<!--
  https://github.com/Duxxie/duxxie-creative-commons
  This work is licenced by https://creativecommons.org/licenses/by-sa/4.0/
-->
<svg version="1.1" id="aankoppelbaar-fietsdeel-svg" xmlns="http://www.w3.org/2000/svg" x="0px" y="0px" width="1000px" height="1000px" viewBox="0 0 1000 1000" xml:space="preserve">
  <style>
    #aankoppelbaar-fietsdeel-svg .st1{fill:none;stroke:currentColor;stroke-miterlimit:10;}
  </style>
  <g>
    <path class="st1" d="M624.4,809c-33.5-34.9-60.6-80.9-55.7-162.2c1.4-23.1,4.9-41.9,11-59.8" />
    <path class="st1" d="M672.8 477.7c52.4-23.9 107.9-27.2 117.1-25.8 0 0 220.9 10.5 204.2 235.9-15.8 214.3-237.3 191.3-258.9 188.4-11.8-1.6-65.3-13.5-109.5-55.2-1.3-1.2-2.6-2.5-3.8-3.7M623.7 514.1c21.8-20.2 46.4-28.8 48.5-29.8M589 559.6c2.6-5 6.2-13.1 11.9-20.4" />
    <path class="st1" d="M789.9,451.9c0,0,220.9,10.5,204.2,235.9c-15.8,214.3-237.3,191.3-258.9,188.4" />
    <path class="st1" d="M618.8 576.3c44.5-89.9 157.1-92 169.9-90 0 0 183.3 8.7 169.5 195.8-13.1 177.9-197 158.8-214.9 156.4-17.9-2.4-151.6-33.4-142.1-192.2 1-16.4 3.6-31.1 7.5-44.4M101.3 161.8c-1-6.4-1.3-13.4-.8-21.2 4.1-68.2 73.9-69.8 80.6-68.8 0 0 78.8 3.8 72.9 84.1-5.6 76.5-84.7 68.2-92.4 67.2-5.6-.7-37.3-7.9-52.7-37.8" />
    <path class="st1" d="M114.8 153c-.1-2.5-.1-8.3.1-11 3.3-55.4 60-56.6 65.4-55.8 0 0 63.9 3 59.1 68.3-4.6 62-68.7 55.4-74.9 54.5-4.6-.6-30.6-6.5-43-31.1M705.8 632.3c19.6-43.4 73-44.5 79-43.5 0 0 84.1 4 77.7 89.8-6 81.6-90.3 72.8-98.5 71.7-8.2-1.1-69.5-15.3-65.1-88.1.1-2.5.4-4.9.7-7.2M31 930.1c0 0 4.3 14.8 13 17.9M114.3 805.3c0 0-4.9 10.5 9.9 15.4M123.6 609.6c-1.2 2.5 1.9 20.4 10.5 26.5M536.4 423L487.7 453.6M349.7 252c-7 .9-52.9 30.5-52.9 30.5M338.9 244.1c-4.4 1.6-48.2 32.3-48.2 32.3" />
    <path class="st1" d="M226.7 151.3c1.5.6 8.2 4.6 5.9 11.4-2.3 6.9-6.9 15.1-11.4 15.1-4.6 0-11.4-4.6-8.7-11.9C215.3 158.6 220.8 149 226.7 151.3zM206.3 183.5c.7 1.5 2.7 9-3.7 12.3s-15.4 6.1-18.7 2.9-5-11.2 2-14.6C193 180.8 203.6 177.7 206.3 183.5zM164.3 191.8c-.8 1.4-5.6 7.6-12.1 4.4s-14.1-8.7-13.5-13.3 6-10.7 12.9-7.1C158.5 179.6 167.3 186.2 164.3 191.8zM166.1 98c.7 1.5 2.7 9-3.7 12.3-6.4 3.3-15.4 6.1-18.7 2.9-3.3-3.2-5-11.2 2-14.6C152.8 95.4 163.4 92.3 166.1 98zM128 145c-4.6 0-9.7-4.2-7-11.5 2.7-7.3 8.2-16.9 14.1-14.6 1.5.6 8.2 4.5 6 11.4-1 2.9-2.3 6-3.9 8.6M207 109.4c-.3 1.6-3.2 8.8-10.3 7.7-7.1-1.2-16-4.4-16.7-8.9-.7-4.5 2.7-12 10.3-10.5C197.9 99.3 208.3 103.2 207 109.4zM229.1 138.5c-1.3 1-8.1 4.8-12.9-.6s-9.6-13.5-7.3-17.5c2.3-3.9 9.7-7.6 14.6-1.5C228.6 125 234.1 134.6 229.1 138.5zM244.7 109.6L483.5 341.1 470.6 357 253.4 147M198.1 222.1L424.5 413.1 413 428.9 127.8 208M251.9 224.6c0 0 28.8-18.7 37.4-17.3 8.6 1.4 47.5 33.1 60.4 44.6 12.9 11.5 184.1 165.4 184.1 165.4s23 31.6 25.9 37.4c2.9 5.8-40.3 28.8-40.3 28.8S293.6 282.2 290.8 276.4C287.9 270.7 251.9 224.6 251.9 224.6zM421.8 421L551.7 538 586.4 559.3 617.7 578.6 737.8 652.5M268.9 317.5c5.7 7.3 148.8 135.2 148.8 135.2M499.7 531.5c0 0 33.3 27.6 36.6 29.2 3.2 1.6 195.8 111.8 195.8 111.8M218.7 598.5l151-64.6c0 0 29.2 52 23.6 56.9S99.2 817.4 99.2 817.4s.8 9.7 6.5 12.2c5.7 2.4 5.7 2.4 5.7 2.4l286-227.5c0 0 9.7 2.4 2.4 7.3-7.3 4.9-386.7 334.7-386.7 334.7s4.1 15.4 13 16.2c8.9.8 361.5-317.6 364.8-319.3 3.2-1.6 25.2-16.2 28.4-30.9 3.2-14.6 4.9-30.1 1.6-31.7-3.2-1.6-9.7-1.6-9.7-1.6L389.3 525l19.5-8.9 8.1 14.6 23.6-13.8M169.3 588.7c-30.1 12.8-50.6 21.6-50.6 21.6l-5.7 8.9-9.7 6.5c0 0-20.3 10.6-10.6 11.4 9.7.8 20.3-3.2 20.3-3.2l15.4 3.2 65.4-28M409.6 485.2c-1.5 1.5-116.2 50.6-201 86.8M672.2 484.4l-1.8-21.4c0 0-30.2 11.8-45.7 29.4M624.6 808.1c0 3.2-7.1 22.3-7.1 22.3s-60.1-56.1-68.2-128.4c-8.1-72.3 12.2-118.6 16.2-124.3M748.5 643.8c11.1 3.7 66.5 20.1 66.5 20.1s5.7 7.4 5.3 11.9c-.4 4.5-4.9 23.4-13.1 23.8-8.2.4-73-18.9-73-18.9s-3.7-16.8-1.2-19.7c2.5-2.9 11.1-18 15.2-17.2M540.1 472.6c0 0 6.1 50.2 3.5 57.1" />
    <path class="st1" d="M632.5 614.5c0 0-58.2-3.4-66.7-8.6-8.6-5.1-36.9-30.4-37.7-34.7M601.1 514.9c-3.8 8.2-20.9 39.7-20.9 39.7M565.6 546.4L579.8 519.9 582.7 514" />
    <path class="st1" d="M590.9 491.9c0 0 6.5-2.8 11.4 2.2 4.9 4.9 6.7 16.6-1 21.5-7.7 4.9-18.2 2.6-19.9-5.6C579.8 501.6 581.8 494.1 590.9 491.9zM412.8 429.1c0 0 13 11.4 13 14.6s-26 31.7-26 31.7l117.8 109.7 14.6-18.7-30.1-26-1.6-8.1 20.3-21.9M230 595.7l4.1 11.4-8.9 7.3-15.4 6.5c0 0-44.7-32.5-40.6-32.5 4.1 0 21.1-8.9 21.1-14.6s-13-13-13.8-8.9c-.8 4.1.8 13.8-4.1 14.6s-23.6-1.6-21.9-6.5c1.6-4.9 13.8-13.8 17.1-15.4 3.2-1.6 33.3-12.2 33.3-12.2s13.8 4.9 15.4 8.9 0 9.7 0 12.2c0 0 .8-1.2.8 2.2" />
    <path class="st1" d="M225.2 614.4l-18.7-48.7c3.2-.2 10.5-6.7 10.5-6.7M228.4 500.6c0 0 9.7 10.6 4.9 14.6-4.9 4.1-14.6 4.1-15.4-.8C217 509.6 217 499 228.4 500.6zM189.4 549.4L217 518.5M47 196.9c0 0 36.9-23.4 67.3-43 20.9-13.5 38.7-25.1 39.4-26.1 0 0 14.2-8.9 18.1 6.9 1.3 5.2-1.9 11.8-1.9 11.8L40.5 228.6" />
    <path class="st1" d="M5 281.3c0 0 2.4-21.1 5.7-25.2 3.2-4.1 2.1-24.5 4.6-27.8s1.6-19.5 1.6-23.6c0-4.1 9.2-25.2 9.2-25.2s14.7-3.8 18.7 1 2.4 22.7.8 28.4c-1.6 5.7-5.5 24.2-5.5 27.5 0 3.8 3.9 11.3 0 17-3.9 5.7 1.1 13.1-1.3 18s-1 13.9-5.9 16.4S7.4 291 5 281.3zM131.2 211.1l-31.5 29.6c0 0-4 9.3 4.7 14 8 4.3 15.2-5.2 15.2-5.2l28.3-26M100.2 240.1c0 0 17.7-14.9 19.4 9M169.9 70.9c0 0-16.2-13-11.4-15.4 4.9-2.4 47.9-39.8 47.9-39.8s14.6 12.2 15.4 18.7S200 54.6 200 54.6s8.1 4.9 7.3 8.1c-.8 3.2-6.3 12-6.3 12M245.5 109.9c0 0 6.5-8.9 12.2-16.2 5.7-7.3.8-12.2-2.4-14.6-3.2-2.4-21.1-8.9-33.3-10.6l-2.4 8.9 13 4.9-4.9 7.3M328.9 313.4L318.1 323.2M338.8 322.2L328.4 331.5M585.9 544.5c9.7 0 34.7-14.8 37.2-28.7 4.3-23.6.9-24.2-1.9-32.2-5.4-15.7-141.4-133.1-141.2-133" />
    <path class="st1" d="M570.1,537.6c-5.3-0.9-16.3-14.9-17.3-25.8c-0.8-9.2,0.9-29.1,10.6-37.6c14.6-12.8,35.4-12.6,46.5-4.7" />
    <path class="st1" d="M597.3 458.9c0 0 13.1.3 27.6 18.5C639 495.1 716 612 716 612M104.3 235.8c.5-5.8 2.3-11.8 2.3-11.8-.7.2 8.2-5.9 11.8-1M125.3 245.3c1.5 5.2-2.3 19.3-1.6 21.7.8 2.9 5.2 7.8 3.6 12.9-1.6 5.1 2.7 8.3 2 12.5-.7 4.2 3 12.3 0 15.1-3 2.8-17.9 7.5-21.7.6 0 0-2.7-16.5-1.2-20.3 1.5-3.7-3.6-19.1-2.5-22 .7-2 .5-6.9-.8-11.7M597.2 458.7c0 0-21-2.6-34.6 8.1-4.9 3.9-13.5 15-15 31.6-1.7 19.2 5.8 37.7 20.4 43.5" />
  </g>
</svg>
