<!--
	https://github.com/Duxxie/duxxie-images
	This work is licenced by https://creativecommons.org/licenses/by-sa/4.0/
-->
<svg version="1.1" id="arthrodesestoel-svg" xmlns="http://www.w3.org/2000/svg" x="0px" y="0px" width="1000px" height="1000px" viewBox="0 0 1000 1000" xml:space="preserve">
	<style>
    #arthrodesestoel-svg .st0{fill:none;stroke:currentColor;stroke-linecap:round;stroke-linejoin:round;stroke-miterlimit:10;}
  </style>
	<path class="st0" d="M477.8 590.3L416.6 611.1M478 599.3c-1.7 1.1-60.3 20.2-60.3 20.2M437.2 537.7c0 0-20 0-22.8 2.2-2.8 2.2-5.3 6.1-5.3 6.1M374.9 543.3l-42.3 25.6c0 0-2.8 5.6 1.1 8.3 3.9 2.8 10.6 5.4 15 6.1 4.6.8 9.5 1 9.5 1M367.1 580c0 0 7.3-11.7 10.7-13.4M309.8 306.3c-.1-.8-.2-1.5-.4-2.2 0 0-14.7-160.1-12.8-183.7 2-23.6 8.8-58.9 25.5-58.9s105.1 32.4 116.9 36.3c11.8 3.9 53 28.5 58.9 71.7 5.9 43.2 11.8 155.2 11.8 155.2s1 54-22.6 59.9c-12.7 3.2-55.9 3.2-93.2 2.6M366.7 386.7c-19.1-.5-32.7-1-32.7-1s-22.6 0-22.6-22.6c0-6.9 0-20 0-27.1M354.8 500.4c-7.6-1.5-19.5-4.1-22.7-6.7-4.9-3.9-8.8-31.4 3.9-39.3 7-4.3 21.1-8.6 36.2-11.6M365.5 501.6c-2.5-.2-5.3-.7-5.3-.5M394.3 439.4c4.8-.5 9.3-.7 13.4-.7 22.6 0 39.3-4.9 51.1-4.9 11.8 0 31.4 0 54 2 22.6 2 68.8 0 91.4 0 22.6 0 91.4 1 101.2 34.4s-16.7 35.4-53 46.2c0 0-19.1-23.3-56-29.5-5.9-1-39.3-2-39.3-2s41.3 29.5 51.1 58 12.8 38.3 7.9 41.3c-4.9 2.9-15.7 11.8-44.2 14.7-28.5 2.9-28.5 16.7-65.8-9.8-37.3-26.5-84.5-67.8-94.3-75.6-1.7-1.4-4.3-2.6-7.5-3.8" />
	<path class="st0" d="M399.4 465.5c3.3 1.6 5.4 3.4 8.3 5.6 25.5 19.6 96.6 90.1 107.1 103.1 11.2 14 16.8 29.6 16.8 29.6M333.4 457.5c1.7 0 17.3-.8 35.1 1.2M384.2 628c0 0-48.9 18.2-50.5 18.7-1.6.5-69.8 15.1-69.2 11.4.5-3.8 87.1-52.9 87.1-52.9" />
	<path class="st0" d="M382.9,619.8c0,0-50.3,19.9-53,21c-2.7,1.1-37.9,6.5-37.9,6.5l64.1-34.2" />
	<path class="st0" d="M360.1 582.8c3.7-2.9 25.4-4.9 29.3 8.2 3.8 13.1-1.3 23.9-14.5 26.5-15.1 3-21.4-7-22.5-11.3C351.3 601.9 348.7 590.4 360.1 582.8zM369.4 518.6c1.2 3 9.2 10.3 17.8 8.1 8.7-2.2 16.2-5.4 16.2-18.4 0-13-7.4-22.1-16.3-23.1-8.1-.9-18.8 1-21.6 12.9 0 0 1 6.1-.2 6.7-1.2.7-4.4-1-5.1-2.6-.7-1.6-3.3-5.1-4.6-3.6s-3.3 13-2.6 17c.7 4 3 10.2 6.1 11 3.1.8 4 1.8 5.4-4s2-6.1 2.6-6.1S368.8 516.9 369.4 518.6z" />
	<path class="st0" d="M383.8 496.5c0 0 11.6.7 11 9.4-.5 8.1-2 10.9-8.4 12-6.4 1.2-12.5-1.5-13-6.3C372.9 506.9 372.6 496.2 383.8 496.5zM526.3 330.3c2.7 1 116.6-8.8 116.6-8.8s16.7-.9 20-.5c3.3.5 12.5 0 14.9 1.9 2.3 1.9 2.3.5 2.8 7s-.5 14.4-.5 14.4-16.7-.9-22.3-.5c-5.6.5-8.8-.5-14.9-.5-6 0-118 6.5-118 6.5s-4.2-3.3-4.2-6C520.7 341 519.8 328 526.3 330.3zM275.4 311.7l119-12.5c0 0 28.3-2.8 38.1-.9 9.8 1.9 14.9 1.9 15.3 5.1.5 3.3 1.4 23.2 1.4 23.2s-7 4.6-14.9 4.6-151 5.6-157.1 5.1c-6-.5-9.3-1.9-9.3-6.5S262.1 312 275.4 311.7zM624.8 434.9L626.8 344.5M609 434.4L609.5 345.6M300.4 654l0 20.2L478 640.7V577c0 0 4.6-2.3 6.5-2.3M300.5 642.7L300.5 645.9M276 649.4l-.6-16.6c0 0 15.9-6.7 20.4-3.3 5.3 4 5.1 4.2 5.1 4.2" />
	<path class="st0" d="M534.7,605.4l1.4,31.6l164.5,28.8c0,0,3.3-7.4,8.8-7.4s13-0.9,14.4,6.5c1.4,7.4,0,30.7,0,30.7 s6.5-3.3,10.2,2.8c3.7,6,1.9,17.2,1.9,17.2s27,12.5,28.3,16.3c1.4,3.7,6,7.4,2.8,8.8s-8.4,0-11.2,5.6c-2.8,5.6-7,13.9-7,13.9 s7.4,9.3,1.9,15.3s-11.6,5.1-15.8,2.8c-4.2-2.3-40.9-26.5-42.7-37.6c-1.9-11.2,2.3-42.7,2.3-42.7l-158.4-29.3l1.9,112.9l-6.5,3.7 l-0.5,26c0,0,18.1,7.9,17.7,16.7c-0.5,8.8-0.9,12.5-0.9,12.5s38.1,19.1,40,27c1.9,7.9-16.7,24.2-16.7,24.2l-16.3,20.4 c0,0,12.5,7,8.8,20.9c-3.7,13.9-18.1,15.3-25.6,8.4c-7.4-7-40-36.7-43.2-41.8s-6.5-18.1-6-25.1c0.5-7,2.3-44.1,2.3-44.1 s0.9-14.9,14.4-16.3c0,0-1.4-20-1.4-23.7s-5.1,1.4-8.4-0.9c-3.3-2.3-6-92.5-6-92.5s-9.8-8.4-9.8-11.6s-5.1-13.5-7.9-13 c-2.8,0.5-170.1,30.7-170.1,30.7l-0.5,4.6c0,0,38.6,18.6,38.6,21.4c0,2.8-13.5,14.4-13.9,16.7s-7.4,16.3-7.4,16.3 s11.2,9.8,8.8,19.5s-14.4,8.4-19.5,5.6c-5.1-2.8-34.4-25.6-36.2-29.3c-1.9-3.7-6-31.6-4.2-34.8c1.9-3.3,4.6,3.7,1.9-3.3 c-2.8-7-6.5-10.7-2.8-12.5c3.7-1.9,12.1-2.8,12.1-2.8l-2.1-46.3" />
	<path class="st0" d="M765.6,742.5c1.9,0,15.3,15.8,13.5,28.8c-1.9,13-18.6,23.7-28.3,25.1s-41-0.3-42.7-35.6" />
	<path class="st0" d="M754.6 747.3c0 0 18 11.8 18 23s-.4 13.3-4.5 17.9M583.9 879.5c.9 1.4 20 19.1 13.5 47.4-6.5 28.3-20.9 33.5-31.1 34.4s-44.2.6-54.8-44.2" />
	<path class="st0" d="M569.7 894.1c2.3 1.4 18.9 17.9 19.3 34.2s.9 19.5-5.1 25.6M333.3 737.8c0 0 11.3 3.3 15.5 18.6 3.7 13.5 0 26.3-12.1 33.9-12.8 8-35 9.1-45.1-1.4-7.7-8-12.3-21.1-10.5-22.5" />
	<path class="st0" d="M325.6 748.5c0 0 10.2 4.2 13 18.1s.9 20-1.9 23.7M390 333.4L395.5 459M363.8 334.3c0 2.3 8.3 123.4 8.3 123.4" />
	<path class="st0" d="M382.5 614.3c1.1 10.2 2.1 17 2.7 17.3 2.2 1.1 26-2.2 29.2-4.9 3.2-2.7 2.2-13 2.2-15.1s-18.2-154-18.2-154c-.5 3.7-29.3-.5-29.3-.5l2.3 31.5M374.7 523.7c-.3 1.4 2 30.2 4.5 57.7M622.6 494.8c0 4.9 1.1 65.4 1.1 65.4l-9.2-.5M546.3 827.3c0 0 0 13.9-20.8 15.4-20.8 1.5-29.8-4-33.7-11.4M734.9 709.2c0 0 3.5 6.9-9.9 7.4-13.4.5-29.8 0-30.8-6.9M309.1 711.7c0 0-6.5 10.2-16.9 11.4-10.8 1.3-17.4 1.7-21.9-.8" />
</svg>
