<!--
  https://github.com/Duxxie/duxxie-creative-commons
  This work is licenced by https://creativecommons.org/licenses/by-sa/4.0/
-->
<svg version="1.1" id="autostoel-svg" xmlns="http://www.w3.org/2000/svg" x="0px" y="0px" width="1000px" height="1000px" viewBox="0 0 1000 1000" xml:space="preserve">
  <style>
    #autostoel-svg .st0{fill:none;stroke:currentColor;stroke-linecap:round;stroke-linejoin:round;stroke-miterlimit:10;}
  </style>
  <path class="st0" d="M352.2 105.2c0 0 62.5-60.2 83.6-74.5C456.9 16.4 521.6 5.8 544.9 5 568.2 4.2 742 21.6 745.8 22.3c3.8.8 39.8 12.8 55.7 30.9 15.7 18.1 21.9 37.6 15.1 44.4-6.8 6.8-14.3 23.3-33.9 37.6-19.5 14.3-21.9 19.5-21.9 19.5s20-13.1 37.2-13.1c17.3 0 44.9 25 50.4 30.4 8.3 8.3 3 41.7-5.2 68.2-9 28.8-5 43-2 53.5 3 10.6-1.9 75.7-4.7 100.8-3 26.3-12.1 67.6-12.1 80.3s-19.2 48-22 55.3c-11 27.7-18.1 70.5-18.9 78.1-.8 7.6-6.1 52.4-32.6 80.3-26.3 27.9-25.4 21.6-25.4 21.6s-5.2 29.3-17.3 46.6c-12 17.3-18.7 27.9-18.7 27.9l.8 59.5-69.3 54.2c0 0-37.6 36.1-58.7 52-21.1 15.9-37.6 25.7-42.2 27.2-4.6 1.6-13.5 12-27.9 14.3-14.3 2.4-30.1-6-30.1-6s-13.5 10.6-30.9 9-49-18.1-55-20.3-12.3-9.9-13.9-15.9c-1.6-6-96.8-38.3-96.8-38.3s-5.2 6.8-19.5 3c-14.3-3.8-39.8-14.3-42.2-15.1-2.2-.8-11-15-11-19.5 0-4.6-92.9-51.2-92.9-51.2l9-66.9c0 0 1.6-34.6 39.8-53.4s60.9-35.4 88.8-26.3c27.9 9.1 25.7 12 34.6 8.3 9-3.8 24.9-28.7 22.5-36.8-2.2-8.3-9.8-17.3-9.8-17.3s-20.3 18.1-32.4 19.5c-12 1.6-52.8-13.5-66.9-33.9-14.3-20.3-2.2-41.4 19.5-57.9 21.9-16.5 52-35.4 70.1-33.9s45.2 2.2 45.2 2.2S282.7 514.1 267 454s-6.8-194.2-3-217.5c3.8-23.3 11.3-76.1 21.9-84.2C296.6 143.4 331.2 110.4 352.2 105.2zM438.3 280.4c0 0-13.2 33.1-19.8 70.7"/>
  <path class="st0" d="M350.4,105.6c0,0-39.7,41.9-36.2,86.6c1.1,13.7-7.2,69.4,43,83c60.5,16.2,83,3.9,91.3-5.2  c8.3-9,0.8-6.8,0.8-6.8s49,3.8,56.4,3c7.6-0.8,11.3,0,13.5-2.2c2.2-2.2,4.6,4.6,17.3,6c12.8,1.6,22.5,0,22.5,0s9,42.2,32.4,51.2  c23.3,9,43.9,12.4,61.3,11.7c17.3-0.8,29.1-2.7,29.1-2.7"/>
  <path class="st0" d="M686.5 308.3c-3.8-3.8-5.2-15.1-6.8-24.9-1.6-9.8 9.8-42.8 21.1-61.7 11.3-18.7 60.9-70.1 60.9-70.1s-76.1 86.6-82.8 215.3l-26.3 116.7c0 0-9.8 63.3-9.8 75.3s4.6 32.4 0 36.8-13.7 3.9-13.7 3.9l-.8 21.9M355.9 718.5c4.3.9 41.4 10.6 48.2 14.3 2 1.1 4.1 2.4 6.1 3.6 4.7 3.1 8.5 7.1 7.4 12.9-1.6 8.3-3 33.1-3 33.1s-41.4 34.6-66.9 39.8c-25.7 5.2-62.5-10.6-66.9-18.1-4.6-7.6 0-68.5 0-68.5s-2.2-17.3 9.8-19.5C302.6 714.1 349.2 717.1 355.9 718.5z"/>
  <path class="st0" d="M413.7 740.1c1.7-2.2-27.1 4.9-39.7 12.3-11.8 7.1-12 6.8-12 6.8s-27.9-2.2-49-9.8c-21.1-7.6-29.3-17.3-31.7-23.3M363.5 817.4L362.1 759.1M722 723.8c0 0-30.4 11.2-46.1 25.5-15.7 14.3-29.3 36.8-42.8 37.6-13.5.8-24.1-13.5-42.2-19.5s-51.2-18.7-57.9-26.3c-6.8-7.6-6-41.4 5.2-51.2 11.3-9.8 63.3-58.7 79.8-64.7 16.5-6 34.6-1.6 46 3.8 11.3 5.2 46 27.9 53.4 32.4 7.6 4.6 10.7 44.1 8.5 49.4M327.6 716.6c0 0 13.9-25 11.8-43.3-2.2-18.9-5.5-29.8-22.5-35.3-13.1-4.3-32.3 2.2-33.1 7.4"/>
  <path class="st0" d="M405.5 567c0 0-6.6-11.8-23.9-17-17.3-5.2-32.4-6.8-48.2-4.6-15.7 2.2-63.9 26.3-75.3 36.1-11.3 9.8-20.3 30.1-21.1 45.2s7.6 36.1 14.3 37.6M471.2 365.5c0 0-42.2-7.4-54.2-8.2-12-.8-41.4-3-55 9S335 399.3 335.8 419c.8 19.5 12.8 66.9 24.1 81.3 11.3 14.3 33.1 36.1 40.6 41.4 7.6 5.2 16.1 7.4 16.1 7.4"/>
  <path class="st0" d="M470.6 380.1c0 0-61.9-.3-72.4 4.3-10.6 4.6-26.3 13.5-27.1 25.7-.8 12 3 53.4 10.6 67.7 7.6 14.3 41.9 60 46.5 64.6M669.6 404.8c0 0-18.6-15.9-30.5-12.1-12 3.8-39.2 30.9-47.4 54.2-8.3 23.3-18.7 86.6-17.3 97.2 1.6 10.6 10.6 30.9 12.8 34.6 2.2 3.8 9 6 9 6l2.2 47.4"/>
  <path class="st0" d="M643.8 575.8c0 0-6.3 12.4-20.6 13.2-14.3.8-19.5-1.6-27.1-4.6M450.1 263.6c0 0-61.1-15.4-76.8-25.2-15.7-9.8-12.8-29.3-16.5-49-3.8-19.5 13.5-73.1 46-94.8S484.7 51 506.6 45s38.4-4.6 42.8-.8c4.6 3.8-6.8 24.1-6.8 24.1s-23.8 95.4-23.8 104.4M757.8 27.9c0 0-38.3 6.6-59.4 29.9C681.1 76.8 597 172.9 573.1 204.7c-15.4 20.5-13.9 56.2-13.9 65.2M648 104.4c0 0-23.3-10.6-44.4-12.8-21.1-2.2-30.1-3.8-38.4 3.8-8.3 7.6-42.8 63.9-45.2 75.3-2.4 11.3-9 71.5-5.2 80.5 3.8 9 4.6 12.8 4.6 12.8M845.3 171.1c0 0-52.4 45.7-68.2 66.1-15.7 20.5-9.4 40.9-17.3 69.3-7.9 28.3-15.7 144.9-23.6 170.1s-17.3 63-20.5 89.8c-3.1 26.8-5.8 88.3 3.6 97.6 1.6 1.6-32.3 13.9-43.6 22.8-11.3 9-44.4 51.2-49 60.9-4.6 9.8-9.8 30.9-4.6 34.6M344.1 273.5c0 0-17.6 86.6-15.7 114.9 1.6 23.1-4.3 51.2 19.4 87.4M457.8 264.2c0 2.7 16.5 67.1 14.8 82.7-1.7 15.6-.9 44.4-.9 47.9M498 266.7c0 0 11.3 58.4 12.1 69.8.9 11.3 1.7 62.7 1.7 59.2M399.6 595.4c.3-2 1.1-4.4 2.5-7.4 6.9-13.1 23.5-32.3 33.1-47.9 9.6-15.7 28.7-75.7 29.6-80.9M512.5 456.6c0 2.7-9.3 28.7-23.3 48.7-13.9 20-28.7 50.5-33.1 59.2-4.4 8.7-7.9 18.3-7.9 21.7 0 3.5 0-3.5 0 3.5s0 6.9 0 6.9-10.6-.2-19.2 3.3M646.5 333.3c0 0-26.6 50.9-38.9 62.2-12.1 11.3-7.9 17.5-16.5 21.7-8.7 4.4-22.7 12.1-22.7 12.1l22.7 13.9M682.2 336.5c0 0-13.5 7.7-24.1 19.8-10.4 12.1-23.5 38.3-23.5 38.3M604.4 633.1c0 0-26-5.5-41.1-7.9-15-2.4-26.3-6.6-38.3-9-12-2.4-23.3-2.4-26.9-1.7M487.4 647.3c1.7 1.3 10.7 2.4 26.3 7.7s41.9 7.2 44.2 9.6 4.9 4.1 4.9 4.1M554.5 480.3c0 0 4.3 7.7-12 18.6-16.2 10.7-21.6 21.6-31.2 27.6-9.6 6-3.6 13.2-19.7 19.2-16.2 6-16.2 6-16.2 6s5.4 1.7 14.3 6 17.3 12 17.3 12 1.3-7.2 9-12c7.7-4.7 23.3-18.6 34.8-25.2 11.3-6.6 20.3-17.3 23.3-22.7 3-5.4 5.2-14.5 5.2-14.5"/>
  <path class="st0" d="M465.2 609.7c0 0 0-6.6 1.3-13.2 1.3-6.6.6-6 10.7-15.6 10.2-9.6 18-20.3 18-20.3M486.2 635.4c0 0-.6-9 5.4-16.2 6-7.2 18.6-23.9 29.3-36.5 10.7-12.6 29.9-40.2 37.8-47.2 7.7-7.2 11.3-19.2 11.3-19.2M408.4 706.7c0 0-8.3 1.3-10.2 9-1.9 7.7-1.3 15-1.3 15M383.8 695.3c0 0-1.3 4.3-6 13.7-4.7 9.4-4.3 13.2-4.3 15M457.8 461.5c-.8-2.8-8.3-20.3-.5-35.7 5.4-10.2 9-19.2 13.7-26.3 4.7-7.1 34.6-5.7 38.3-3.6 6.6 3.6 13.2 18.6 13.2 23.9 0 5.4-.6 38.3-.6 38.3l-9-9-53.9 3c0 0-2.4 3.6-1.7 6.6.6 3 .6 3 .6 3l3.8 4.7M566.3 429.1c0 0-2.7 2-7.6 5.8-4.7 3.8-19.1 21.1-21.4 24.1-2.4 3-1.7 4.4-.3 6.8 1.4 2.4 41.6 31.7 41.6 31.7"/>
  <path class="st0" d="M580.6 488.3c-.9-.6-36.1-22-36.4-24.6-.3-2.4.3-6.8 4.1-11.2 3.8-4.4 16.7-18.4 18.4-19.7 1.7-1.3 4.4-1.4 4.4-1.4M541.3 557.9c0 0 20.9 15.4 20.9 26.3s1.6 16.4-12.6 37.3M515.6 657.1c0 0-24.4 12.3-34.3 20.9-9.9 8.7-18.3 24.7-24.4 33.1S444 734.9 444 734.9s3.5 10.9-3.8 13.5c-7.1 2.8-3.1 2.5-11.8 0-8.7-2.5-10.2-6.1-12.1-6.8M493.1 621.8c0 0 10.9 7.6 8.3 13.4-2.5 5.8-11.8 14.2-22.7 13.4-10.9-.8-12.6-8.3-12.6-14.2s2.5-13.4-5.8-17.6c-8.3-4.3-17.6-5.7-22.7-9.3-4.7-3.3-11.7-11.7-16.7-7.6-2.8 2.4-13.4.8-13.4.8s-7.1-2.4-8.8-6.6c-.8-2-6.1 6.1-5.8 10.9.3 4.6 0 16.4-2.8 26.6s-13.2 24.1-16.4 32.8-17.6 22.5-22.5 26.3c-4.9 3.8-14.2 12.9-12.3 17 1.9 3.9 11.5 9.9 11.5 9.9M500.5 490.6l3.1 44.1c0 0-24.1-6.1-30.5-1.6M436.6 536.6c0 0-19.5 10.2-24.1 16.7-4.6 6.5-9 10.9-6.8 14.2 2.2 3.5 4.9 5.8 4.9 5.8"/>
  <path class="st0" d="M343.7 698.7c1.9-1.6 11.3-9 23.5-9.3s39.2 17 48.8 21.9c9.6 4.9 14.8 7.4 20.2 12.9 5.2 5.5 9 6.8 8 10.6M521.6 976.9c0 0-6.1.3-30.7 3.8s-28.8-8.5-53.5-13.5c-24.6-5-152.1-49.3-207.4-73.1-55.3-23.8-130.1-71.3-130.1-71.3"/>
  <path class="st0" d="M623.3,894.7c0.8-2.5,2.5-38.3-3.5-51.8c-4.1-9.3-9.3-19.7-17.2-27.7c-3.8-3.8-8.2-7.2-13.4-9.6  c-16.2-7.7-17-15.3-45.8-10.2c-28.8,5-71.3,39.1-84.1,51.8c-12.8,12.8-51.8,63.8-42.5,112.1"/>
  <path class="st0" d="M490.7 980.5c0 0-9.9-55.9 4.3-79.8 19.7-33.1 44.4-49.6 69-61.4 20-9.4 38.7-24.2 38.7-24.2M261.5 698.5c2.5.8 8.5 19.5 21.3 21.3 6.8.9-40 12-56.1 17-16.2 5-50.1 31.5-65.3 56.1s-8.5 59.5-8.5 59.5M530.4 734.9c-2.5 0-10.6-8.3-27.2-13.4-16.7-5-45.2-11.8-47.7-11.8M535 695.5c0 0-15.1-.8-26.8-5.8s-31.8-7.6-31.8-7.6M691.6 739.1c0 0-6.6 15.1-14 26.9-7.6 11.8-12.6 33.5-21.7 46.1-9.1 12.6-11.8 21.7-18.4 26-6.8 4.3-9.6 14-17.3 4.9M590.4 767.6L570.2 793.6M465.7 595c0 0-1.9-.6-7.4 2.2-5.4 2.8-7.7 4.7-9.3 6.6-1.6 1.9-3 3.9-2 6.5M486.8 626.7c0 0 5.7 4.7 2.2 7.7-3.5 2.8-4.7 4.1-7.4-.6-2.5-4.7-5-11.5-7.4-14.6-2.2-3.1-12.1-10.2-12.8-12.4s3.8-3.1 3.8-3.1"/>
  <path class="st0" d="M448.2 589.1c0 0 4.7-.6 6.6.3s4.7 7.1 3.5 8M512.5 457.4L465.2 459.6M522.1 459.1L509.9 464.8M549.8 6.1c0 0-13.4 5.5-18.9 16.7-5.5 11-4.3 14-6.3 18.3M352.2 544.3c-2 0-26.1-3.8-31.5-3.5"/>
</svg>
