<?xml version="1.0" encoding="utf-8" ?>
<!--
	https://github.com/Duxxie/duxxie-images
	This work is licenced by https://creativecommons.org/licenses/by-sa/4.0/
-->
<svg version="1.1" id="bad-douchezitje-svg" xmlns="http://www.w3.org/2000/svg" xmlns:xlink="http://www.w3.org/1999/xlink" x="0px" y="0px" width="1000px" height="1000px" viewBox="0 0 1000 1000" style="enable-background:new 0 0 1000 1000;" xml:space="preserve">
	<style type="text/css">
	#bad-douchezitje-svg .st0{fill:none;stroke:currentColor;stroke-linecap:round;stroke-linejoin:round;stroke-miterlimit:10;}
</style>
	<line class="st0" x1="198.1" y1="366.1" x2="653.2" y2="272.9" />
	<line class="st0" x1="191.5" y1="377" x2="638.1" y2="290.3" />
	<path class="st0" d="M138.8,373.9c0,0-0.3-5.6,2.2-6c4.5-0.7,10.5,2.3,12.2,10.5c1.6,7,2.9,11.1-0.6,16.4c-4,6.5-10.2-0.3-10.2-0.3" />
	<path class="st0" d="M122.4,373.3c0,0,1-3,3.4-3.2c7-0.1,10.3,2.6,12.6,10.6c1.6,5.9,1.7,10.1-1.4,15.7c-1.3,2.3-2,1.9-2,1.9" />
	<path class="st0" d="M135.9,374.3l6-1.7c2.9-0.6,6.6,1.6,7.8,6.9c1,4.6,3.4,11.8-1,12.8c-0.6,0.1-10.2,2.3-10.2,2.3" />
	<path class="st0" d="M140.9,367.5c0,0,8.3-2,10.8-2.4c4.5-0.7,10.5,2.3,12.2,10.5c1.6,7,1.7,9,0.6,15.4c-0.6,2.9-14.4,6.2-14.4,6.2" />
	<path class="st0" d="M682.9,288.8l21-6c0,0,5.7-11.1-4.9-15.1" />
	<path class="st0" d="M719.8,263.7l10.5-1.7c0,0,5.5-0.7,6.9,6.5c0.6,3-0.6,4.5-1.9,5.3c-3.7,2.7-7.5,3-7.5,3" />
	<path class="st0" d="M82,402.9c0,0,4.5,4.7,7.3,0.1c2.4-3.9,1.6-6.8,0.4-11.9c-1.3-5.9-5.6-8.2-8.9-7.6c-1.7,0.3-2.2,4.3-2.2,4.3
	S76.9,395.8,82,402.9z" />
	<path class="st0" d="M80.9,383.5c0,0,6-1.4,7.8-1.7c3.2-0.6,7.8,1.1,9.3,7c0.9,3.4,0.9,7,0,11.6c-0.4,2-10.3,4.5-10.3,4.5" />
	<path class="st0" d="M43.1,88.3c0,0,65.4,44.7,219.8,35.2S579.2,8.7,579.2,8.7s24.4-9.5,60.2,1.9c35.8,11.3,128,41.4,133.6,43.2
	s30.2,18.8,20.7,49s-131.7,96-131.7,96l-15.1,32c0,0-164.2,42.1-248.5,54.6c-18.7,2.7-27.9-0.6-27.9-0.6s3.2-6.3,0.1-15.7
	c-3.7-11.2-11.6-19.5-11.6-19.5s-13.9,4.6-30.9,4.6s-93.5-23.4-93.5-23.4s-68.5-25.6-98.7-46.3S12.5,110.3,12.5,110.3
	S5.5,75.2,43.1,88.3z" />
	<path class="st0" d="M569.7,48.2l118.7,43.2c0,0,12.1,0.6,35.8-16.9c14.4-10.5,13.4-10.2,12.5-10.9C717.7,48.9,613.1,16,613.1,16
	s-8.2-0.9-29,11.2C575.9,32.3,556.5,38.9,569.7,48.2z" />
	<path class="st0" d="M93.7,403.4c47.8,97.4,116.8,236,116.8,236" />
	<path class="st0" d="M119,175.1c0,0-52.3,8.6-71,43.1s-17.8,51.3,3.7,98.7c5.2,11.2,17.2,35.9,31.9,65.9" />
	<path class="st0" d="M172.4,203.2c0,0-48.8,4.3-68.9,15.8c-20.1,11.5-35.9,23-30.2,48.8c5.7,25.9,175.1,353.5,175.1,353.5" />
	<path class="st0" d="M262.5,655.5c0,0,75.1,156.7,79.4,166.8s11.5,27.3,11.5,47.4s2.9,51.7,2.9,51.7" />
	<path class="st0" d="M225.8,668.5l84.5,165.3c0,0,7.2,23,8.6,43.1c1.4,20.1,0.9,43.2,0.9,43.2" />
	<path class="st0" d="M311.7,252c0,0-51.4,14.5-77.9,28.6c-39.2,20.8-78.7,70.5-78.7,82" />
	<path class="st0" d="M370.6,279.3c0,0-87.5,20.3-104.4,29.7c-12.9,7.2-48.8,21.7-64.4,49.3c-9.5,16.8-48.4,77.1-48.4,77.1" />
	<line class="st0" x1="126.4" y1="473.3" x2="112.8" y2="497.5" />
	<line class="st0" x1="107.5" y1="432.9" x2="80.5" y2="481.9" />
	<path class="st0" d="M95.8,526c0,0-1-2.3-2.4,13.5c-1.4,15.8,5.7,63.3,5.7,63.3" />
	<path class="st0" d="M68,514.6c-0.6,4.3,0.3-1.4-0.4,6c-2.7,33,0.9,80.4,0.9,80.4" />
	<path class="st0" d="M663.8,197.6c7.2,0,34-10.5,49.1-3c6.2,3,21.5,18.4,6.8,48C711.9,258.2,580.3,406,580.3,406" />
	<path class="st0" d="M648.9,227.5c0,0,30.9-9.2,35.2-4.5c3.4,3.9,2,3.9,0.9,7.5c-4.3,15.2-130.7,153.6-130.7,153.6" />
	<path class="st0" d="M560.4,424.3c0,0-4.5,3-4.5,20.3s-1.4,47.4-1.4,47.4" />
	<path class="st0" d="M535.4,404c0,0-9.6,9-9.6,23.4c0,14.4,1.4,64.6,1.4,64.6" />
	<line class="st0" x1="712.1" y1="252.8" x2="850.5" y2="467.1" />
	<line class="st0" x1="695.4" y1="284.8" x2="823.7" y2="483.6" />
	<path class="st0" d="M869.1,498.5l87.6,131.3c0,0,10.1,40.2,10.1,60.3c0,20.1-1.1,38.5-1.1,38.5" />
	<path class="st0" d="M843.6,514.2L928,645.6c0,0,8.6,10.1,8.6,30.2c0,20.1-2.7,52.9-2.7,52.9" />
	<path class="st0" d="M559.4,495.4l1.9,27.9c1.4,0,7.2-0.4,11.1,6.2c3.9,6.8-7.2,19.7-28.3,20.1s-34-6.2-36.1-13.5
	c-1.9-7.2,5.7-12.1,9.2-12.5l4.7-29.7" />
	<path class="st0" d="M526.3,488.6c0,0-6.8,1.9-4.3,5.3c2.4,3.4,10.1,6.2,18.2,6.2s27.4-3.9,15.8-10.6" />
	<path class="st0" d="M562.8,523.7c1.4,0.4,3.9,6.8-4.7,12.5s-21,5.3-28.9,4.3c-15.4-1.9-12.9-13.5-12.1-16.8" />
	<path class="st0" d="M605.9,60.6l9-7.3c0,0,1.9-6.3,9-3.6c7.3,2.7,83.5,31.7,83.5,31.7" />
	<path class="st0" d="M81,480.7c0,0-10.1,2.6-2.9,19.1c3.4,7.9,14.2,10.5,20.8,10.1c6.8-0.4,16.8-4.7,15.1-13.5" />
	<path class="st0" d="M76.3,484.3l-9.9,19c0,0-1.3,10.5,5,16.4c6.3,5.9,10.5,7.6,17.2,7.2c6.8-0.4,12.9-1.7,16.4-6.8l8-17.1" />
	<g>
		<path class="st0" d="M103,608l1.9,27.9c1.4,0,7.2-0.4,11.1,6.2c3.9,6.8-7.2,19.7-28.3,20.1s-34-6.2-36.1-13.5
		c-1.9-7.2,5.7-12.1,9.2-12.5l4.7-29.7" />
		<path class="st0" d="M69.8,601.2c0,0-6.8,1.9-4.3,5.3c2.4,3.4,10.1,6.2,18.2,6.2s27.4-3.9,15.8-10.6" />
		<path class="st0" d="M106.3,636.3c1.4,0.4,3.9,6.8-4.7,12.5s-21,5.3-28.9,4.3c-15.4-1.9-12.9-13.5-12.1-16.8" />
	</g>
	<g>
		<path class="st0" d="M361.1,926.5l3.2,35.8c1.7,0,8.9-0.6,13.6,7.8s-8.9,24.4-35,25c-26.1,0.6-42.2-7.8-44.5-16.7
		c-2.4-8.9,7.2-14.8,11.3-15.5l5.9-36.8" />
		<path class="st0" d="M320.9,919.4c0,0-8.3,2.4-5.3,6.5c3,4,12.5,7.8,22.6,7.8c10.1,0,34.6-5.9,17.8-12.8" />
		<path class="st0" d="M366,962.8c1.7,0.6,4.7,8.3-5.9,15.5c-10.6,7.2-25.9,6.6-35.6,5.3c-19-2.4-16.1-16.7-14.8-20.8" />
	</g>
	<g>
		<path class="st0" d="M970.3,733.7l3.3,35.6c1.7,0,8.6-0.6,13.2,7.5c4.6,8-8.6,23.6-33.9,24.1c-25.3,0.6-40.8-7.5-43.1-16.1
		s6.9-14.4,10.9-14.9l5.7-35.6" />
		<path class="st0" d="M934.4,728.4c0,0-10.6,1.9-7.8,5.9c2.9,4,12.1,7.5,21.8,7.5c9.8,0,30.9-5.3,17.1-13.4" />
		<path class="st0" d="M975.4,769.9c1.7,0.6,4.6,8-5.7,14.9c-10.3,6.9-25,6.3-34.5,5.2c-18.4-2.3-15.5-16.1-14.4-20.1" />
	</g>
	<path class="st0" d="M557.7,380.6c0,0-1.1-1.3-3.2,2.3c-1.3,2.4-2.3,8.2,5.5,15.9c6.2,6.2,8.3,5.9,13.8,7.5c5.5,1.7,11.6-1.7,9.6-4" />
	<path class="st0" d="M554.8,382.2L537,400.6c-1.4,2.3-2.7,8.9,5.5,16.1c6.5,5.9,10.2,6.5,15.8,7.5c3.9,0.7,2.9,1.3,6.6-2.2
	c0.3-0.3,17.5-16.4,17.5-16.4" />
	<path class="st0" d="M265.6,656.5l-13.2-33c-1.3-2-5.2-1.9-14.5-1.3c-9.3,0.6-18,5.2-22.4,9.6c-6.5,6.5-5.7,12.8-5.7,12.8
	c-0.6-2,15.7,26.9,15.7,26.9" />
	<path class="st0" d="M227.6,673.5c0,0-9-6.5,5.2-14.5c7.9-4.5,9.9-4.7,19.2-5.2s14.8,2.3,13.5,4.9" />
	<g>
		<path class="st0" d="M843.5,516.1l-20.1-30.5c-0.3-1.6-0.4-2.9,5.6-8.5c6.3-5.9,8.6-7.3,14.5-8.9c8.5-2.3,8.3-1.3,8.3-1.3
		c-1.3-1.7,19.7,32.8,19.7,32.8" />
		<path class="st0" d="M871.9,502.4c0,0,1.1-8.5-12.6-1.4c-6.5,3.3-6.2,2.2-10.9,6.8c-6.2,6-5.9,9-2.7,9.6" />
	</g>
</svg>
