<!--
  https://github.com/Duxxie/duxxie-creative-commons
  This work is licenced by https://creativecommons.org/licenses/by-sa/4.0/
-->
<svg version="1.1" id="badplank-svg" xmlns="http://www.w3.org/2000/svg" x="0px" y="0px" viewBox="0 0 1000 1000" xml:space="preserve">
  <style type="text/css">
	#badplank-svg .st0{fill:none;stroke:#333333;stroke-linecap:round;stroke-linejoin:round;stroke-miterlimit:10;}
	#badplank-svg .st1{fill:#FFFFFF;}
	#badplank-svg .st2{fill:none;}
</style>
  <g>
    <path class="st0" d="M456.8,726.8" />
    <path class="st1" d="M956.2,351.8c-4-2-183-66.7-201.2-72.8c-18.2-6.1-39.4-3-51.6,1c-12.1,4-111.2,76.8-372,150.6
		s-290.1,91-307.3,102.1C7,543.9,12,583.3,12,583.3c2,8.1,206.2,137.5,233.5,154.7c27.3,17.2,43.5,33.4,82.9,38.4
		c14.2,1.8,35.5-3.7,57.9-13.3l-5,3c2.7,4.7,1.7,11.7,24.3,13.7c22.7,2,38.4-3.8,47-19c5.3-9.3,4.7-40,4.7-40l-1,0.6
		c12.4-10.1,22.3-20.4,27.8-29.9c22.2-38.4,24.3-45.5,62.7-79.9c38.4-34.4,181-87.9,217.3-102.1c14.4-5.6,51.6-17.4,91.6-31.8
		l-4.5,1.8l0.9,14.9c0,0,6.6,13.2,27.2,14.5c20.6,1.3,30.3-8.3,30.3-8.3s14.5-44.7,14-49.1l-10.7,4.1c40-17,72.6-35,74.7-50.1
		C992.6,369,960.2,353.8,956.2,351.8z" />
    <path class="st1" d="M62.1,557.1c0,0,2.2-45.2,21.5-63.8s28-39.5,64.6-28.7c36.6,10.8,116.2,57.4,125.5,65.3s27.3,30.1,20.8,58.8
		c-6.5,28.7-10,40.9-8.6,56.7c1.4,15.8,2.9,25.1,2.9,25.1s-22.2,17.9-40.9,2.2c0,0-9.3-23.7-0.7-56c8.6-32.3,9.3-43.8,7.2-47.3
		c-2.2-3.6-36.6-15.1-55.2-25.1s-61.7-44.5-64.6-44.5c-2.9,0-12.9,4.3-20.8,23c-7.9,18.7-12.9,38.7-12.9,38.7S76.5,577.2,62.1,557.1
		z" />
    <g>
      <path class="st2" d="M409.4,608.2c2.7-0.3,27.1,0.1,23.5,10.3c-3.9,11.1-19.5,14.5-28.8,13.6c-9.7-1-16.6-6.5-13.5-13.6
			C393,612.8,398.3,609.5,409.4,608.2z" />
      <path class="st2" d="M433.5,615.5c0,0,0.2,7.2-1,9.4c-1.7,3.3-11.8,11.8-25.8,10.6c-11.7-1-17.6-5.7-17.3-9.9c0.4-5.8,0.2-5,0.2-5
			" />
    </g>
    <g>
      <path class="st2" d="M891.9,369.4c2.3-0.3,23.6,0.1,20.5,9c-3.4,9.7-17,12.7-25.2,11.8c-8.5-0.9-14.5-5.6-11.8-11.8
			C877.5,373.4,882.2,370.5,891.9,369.4z" />
      <path class="st2" d="M912.9,375.7c0,0,0.2,6.2-0.9,8.2c-1.5,2.9-10.3,10.3-22.5,9.2c-10.2-0.9-15.4-4.9-15.1-8.7
			c0.4-5.1,0.1-4.4,0.1-4.4" />
    </g>
    <g>
      <path class="st2" d="M684.6,296.9c1.8-0.2,18.2,0.1,15.8,6.9c-2.6,7.5-13.1,9.8-19.4,9.1c-6.5-0.7-11.2-4.4-9.1-9.1
			C673.5,300,677.1,297.8,684.6,296.9z" />
      <path class="st2" d="M700.8,301.8c0,0,0.1,4.8-0.7,6.3c-1.2,2.2-8,7.9-17.4,7.1c-7.9-0.7-11.8-3.8-11.6-6.7
			c0.3-3.9,0.1-3.4,0.1-3.4" />
    </g>
    <path class="st2" d="M418.5,608.7l34.5-38.3c0,0,3-2.8,7.7-0.7c2.9,1.3,4.9,3.5,3.5,6.3s-32.7,36.7-32.7,36.7" />
    <path class="st2" d="M412.9,635.8c0,2.8-48.4,40.1-58.2,45c-9.8,4.9-21.8,8.4-23.9,4.9s-3.5-4.2,3.5-6.3s58.6-39.8,62.1-45.5" />
    <path class="st2" d="M193.1,482.8c1.3,0,49.4-13.9,56.6-15.5c9.9-2.2,13-2.8,15.7-0.4c2.1,1.9,4.6,3.2-11.1,7.5
		c-17,4.6-52.4,13.4-52.4,13.4" />
    <path class="st2" d="M677.2,314.7c-4,0.8-35.9,17.9-38.2,18.7c-4.5,1.6-11,3.5-12.3,1.6s-2.9-2.7,4-5.3
		c6.9-2.7,40.6-18.2,40.6-18.2" />
    <path class="st2" d="M696.7,297.6c2.9-1.3,29.7-14.4,29.7-14.4s5,1.7,4.3,2.9c-1.3,2.4-29.1,13.9-29.1,13.9" />
    <path class="st2" d="M884,393c0,0-38.7,19-45.7,19.8c-6.9,0.8-16.3-0.8-9.6-3.5c6.7-2.7,44.3-17.6,46.8-18.7" />
    <path class="st2" d="M910.1,371.6c1.6-0.5,12.6-8.8,16.3-12.6s9.4-1.9,11.5-0.3s1.3,1.6-0.5,3.2c-1.9,1.6-20.6,15.8-23,16" />
    <path class="st0" d="M177.9,475.7c39.1-11.9,90.5-27.2,153.6-45.1c260.8-73.8,359.9-146.6,372-150.6s33.4-7.1,51.6-1
		c18.2,6.1,197.1,70.8,201.2,72.8c4,2,36.4,17.2,31.3,53.6s-187,90-223.4,104.1s-178.9,67.7-217.3,102.1
		c-38.4,34.4-40.4,41.4-62.7,79.9c-22.2,38.4-116.3,90-155.7,84.9c-39.4-5.1-55.6-21.2-82.9-38.4S14,591.4,12,583.3
		c0,0-5.1-39.4,12.1-50.5c7.7-5,16-10.5,48-22.4" />
    <path class="st0" d="M19.9,537c0,0,277.1,188.9,299.4,189.9c22.2,1,90.1-19.3,118.4-50.6c28.3-31.3,58.6-104.1,123.3-125.4
		c64.7-21.2,339.7-122.3,364.9-138.5c25.3-16.2,46.5-39.4,45.5-49.5" />
    <path class="st0" d="M381.4,766.1c2.7,4.7,1.7,11.7,24.3,13.7c22.7,2,38.4-3.8,47-19c5.3-9.3,4.7-40,4.7-40" />
    <path class="st0" d="M923.6,451.4c0.4,4.4-14,49.1-14,49.1s-9.6,9.6-30.3,8.3s-27.2-14.5-27.2-14.5l-0.9-14.9" />
    <path class="st0" d="M62.1,557.1c0,0,2.2-45.2,21.5-63.8s28-39.5,64.6-28.7c36.6,10.8,116.2,57.4,125.5,65.3s27.3,30.1,20.8,58.8
		c-6.5,28.7-10,40.9-8.6,56.7c1.4,15.8,2.9,25.1,2.9,25.1s-22.2,17.9-40.9,2.2c0,0-9.3-23.7-0.7-56c8.6-32.3,9.3-43.8,7.2-47.3
		c-2.2-3.6-36.6-15.1-55.2-25.1s-61.7-44.5-64.6-44.5c-2.9,0-12.9,4.3-20.8,23c-7.9,18.7-12.9,38.7-12.9,38.7S76.5,577.2,62.1,557.1
		z" />
    <g>
      <path class="st0" d="M409.4,608.2c2.7-0.3,27.1,0.1,23.5,10.3c-3.9,11.1-19.5,14.5-28.8,13.6c-9.7-1-16.6-6.5-13.5-13.6
			C393,612.8,398.3,609.5,409.4,608.2z" />
      <path class="st0" d="M433.5,615.5c0,0,0.2,7.2-1,9.4c-1.7,3.3-11.8,11.8-25.8,10.6c-11.7-1-17.6-5.7-17.3-9.9c0.4-5.8,0.2-5,0.2-5
			" />
    </g>
    <g>
      <path class="st0" d="M891.9,369.4c2.3-0.3,23.6,0.1,20.5,9c-3.4,9.7-17,12.7-25.2,11.8c-8.5-0.9-14.5-5.6-11.8-11.8
			C877.5,373.4,882.2,370.5,891.9,369.4z" />
      <path class="st0" d="M912.9,375.7c0,0,0.2,6.2-0.9,8.2c-1.5,2.9-10.3,10.3-22.5,9.2c-10.2-0.9-15.4-4.9-15.1-8.7
			c0.4-5.1,0.1-4.4,0.1-4.4" />
    </g>
    <g>
      <path class="st0" d="M684.6,296.9c1.8-0.2,18.2,0.1,15.8,6.9c-2.6,7.5-13.1,9.8-19.4,9.1c-6.5-0.7-11.2-4.4-9.1-9.1
			C673.5,300,677.1,297.8,684.6,296.9z" />
      <path class="st0" d="M700.8,301.8c0,0,0.1,4.8-0.7,6.3c-1.2,2.2-8,7.9-17.4,7.1c-7.9-0.7-11.8-3.8-11.6-6.7
			c0.3-3.9,0.1-3.4,0.1-3.4" />
    </g>
    <path class="st0" d="M418.5,608.7l34.5-38.3c0,0,3-2.8,7.7-0.7c2.9,1.3,4.9,3.5,3.5,6.3s-32.7,36.7-32.7,36.7" />
    <path class="st0" d="M412.9,635.8c0,2.8-48.4,40.1-58.2,45c-9.8,4.9-21.8,8.4-23.9,4.9s-3.5-4.2,3.5-6.3s58.6-39.8,62.1-45.5" />
    <path class="st0" d="M193.1,482.8c1.3,0,49.4-13.9,56.6-15.5c9.9-2.2,13-2.8,15.7-0.4c2.1,1.9,4.6,3.2-11.1,7.5
		c-17,4.6-52.4,13.4-52.4,13.4" />
    <path class="st0" d="M677.2,314.7c-4,0.8-39.3,18.5-41.7,19.2c-3.4,1-6.1,3.1-8.8,1.1c-1.8-1.4-2.9-2.7,4-5.3
		c6.9-2.7,40.6-18.2,40.6-18.2" />
    <path class="st0" d="M696.7,297.6c2.9-1.3,29.7-14.4,29.7-14.4s5,1.7,4.3,2.9c-1.3,2.4-29.7,14.3-29.7,14.3" />
    <path class="st0" d="M884,393c0,0-38.7,19-45.7,19.8c-6.9,0.8-16.3-0.8-9.6-3.5c6.7-2.7,44.3-17.6,46.8-18.7" />
    <path class="st0" d="M910.1,371.6c1.6-0.5,12.6-8.8,16.3-12.6s9.4-1.9,11.5-0.3s1.3,1.6-0.5,3.2c-1.9,1.6-20.6,15.8-23,16" />
  </g>
</svg>
