<!--
  https://github.com/Duxxie/duxxie-creative-commons
  This work is licenced by https://creativecommons.org/licenses/by-sa/4.0/
-->
<svg version="1.1" id="badplank-svg" xmlns="http://www.w3.org/2000/svg" x="0px" y="0px" viewBox="0 0 1000 1000" xml:space="preserve">
  <style>
    #badplank-svg .st0{fill:none;stroke:currentColor;stroke-miterlimit:10;}
  </style>
  <path class="st0" d="M332.6 250.3c1.5-.2 2.3-.3 2.3-.3l32.6 10.6c0 0 203.4 168.1 219.9 180.1s157.7 90.1 186.4 100.6c28.5 10.5 187.8 90.1 193.8 103.7s37.5 61.6 24.1 84.1S560.4 900.4 560.4 900.4s-61.6 16.5-69.1 10.5-66.2-10.5-84.1-37.5c-18-27-102.2-187.8-108.2-202.9-6-15-61.6-103.7-114.2-139.8C132.1 494.8 10.6 379 5.1 360.2c-1.2-4.4 5.5-44.7 20.5-50.7 1.5-.6 6-1.7 12.9-3.3M78.4 298c62.3-12.3 161.6-30.5 216.4-40.6"/>
  <path class="st0" d="M25.5 309.5c0 0 80.9 113.2 98.9 123.7s93.2 69.1 106.8 82.7C244.8 529.4 359 640.6 365 667.6s31.5 91.7 42.1 103.7c10.5 12 60.2 85.6 79.6 84.1 19.6-1.5 186.4-48.1 196.9-54 10.5-6 210.3-82.7 228.4-87.2 18.1-4.5 69.1-54 55.6-69.1M294.7 257.2c1.4-8.3 10-31.7 5.8-37.3-4.5-6.1-100.6 3.1-112.8 9.1-12 6-85.6 19.6-90.1 28.5s-16.5 18-18 27 0 21-3.1 25.6c-3.1 4.4-15.2 18-37.7-3 0 0-1.5-45.1 13.6-58.6s45.1-42.1 97.7-46.6 115.7-24.1 139.8-22.5c24.1 1.6 33-1.5 40.6 15 7.5 16.5 13.6 21 7.5 33s-3.1 34.6-12 36.1-31.5 1.5-31.5-4.5C294.5 258.5 294.6 257.9 294.7 257.2"/>
</svg>
