<?xml version="1.0" encoding="utf-8" ?>
<!--
	https://github.com/Duxxie/duxxie-images
	This work is licenced by https://creativecommons.org/licenses/by-sa/4.0/
-->
<svg version="1.1" id="badplank-svg" xmlns="http://www.w3.org/2000/svg" xmlns:xlink="http://www.w3.org/1999/xlink" x="0px" y="0px" width="1000px" height="1000px" viewBox="0 0 1000 1000" style="enable-background:new 0 0 1000 1000;" xml:space="preserve">
	<style type="text/css">
	#badplank-svg .st0{fill:none;stroke:currentColor;stroke-miterlimit:10;}
	#badplank-svg .st1{fill:#FFFFFF;stroke:none;}
</style>
	<path class="st0" d="M334.9,250l32.6,10.6c0,0,203.4,168.1,219.9,180.1c16.5,12,157.7,90.1,186.4,100.6
	c28.5,10.5,187.8,90.1,193.8,103.7s37.5,61.6,24.1,84.1c-13.4,22.5-431.3,171.3-431.3,171.3s-61.6,16.5-69.1,10.5
	c-7.5-6-66.2-10.5-84.1-37.5c-18-27-102.2-187.8-108.2-202.9c-6-15-61.6-103.7-114.2-139.8C132.1,494.8,10.6,379,5.1,360.2
	c-1.2-4.4,5.5-44.7,20.5-50.7C40.5,303.5,334.9,250,334.9,250z" />
	<polygon class="st1" points="76.8,281.5 78.2,297.5 76,311.6 53.3,312.4 39.6,305.8 39.1,280.7 " />
	<polygon class="st1" points="331.4,235.2 331.4,251.8 330.6,265.4 295.3,258.4 297.6,250.2 300.5,232.3 " />
	<path class="st0" d="M25.5,309.5c0,0,80.9,113.2,98.9,123.7c18,10.5,93.2,69.1,106.8,82.7C244.8,529.4,359,640.6,365,667.6
	c6,27,31.5,91.7,42.1,103.7c10.5,12,60.2,85.6,79.6,84.1c19.6-1.5,186.4-48.1,196.9-54c10.5-6,210.3-82.7,228.4-87.2
	c18.1-4.5,69.1-54,55.6-69.1" />
	<path class="st0" d="M38.8,307.1c0,0-1.5-45.1,13.6-58.6s45.1-42.1,97.7-46.6s115.7-24.1,139.8-22.5c24.1,1.6,33-1.5,40.6,15
	c7.5,16.5,13.6,21,7.5,33c-6.1,12-3.1,34.6-12,36.1c-8.9,1.5-31.5,1.5-31.5-4.5c0-6,10.5-33,6-39.1c-4.5-6.1-100.6,3.1-112.8,9.1
	c-12,6-85.6,19.6-90.1,28.5c-4.5,8.9-16.5,18-18,27s0,21-3.1,25.6C73.4,314.5,61.3,328.1,38.8,307.1z" />
</svg>
