<!--
  https://github.com/Duxxie/duxxie-creative-commons
  This work is licenced by https://creativecommons.org/licenses/by-sa/4.0/
-->
<?xml version="1.0" encoding="utf-8"?>
<svg version="1.1" id="bed-pakket-compleet-svg"
	 xmlns="http://www.w3.org/2000/svg" xmlns:xlink="http://www.w3.org/1999/xlink" x="0px" y="0px" width="1000px" height="1000px"
	 viewBox="0 0 1000 1000" style="enable-background:new 0 0 1000 1000;" xml:space="preserve">
<style type="text/css">
	#bed-pakket-compleet-svg .st0{fill:#FFFFFF;}
	#bed-pakket-compleet-svg .st1{fill:#FFFFFF;stroke:currentColor;stroke-miterlimit:10;}
	#bed-pakket-compleet-svg .st2{fill:#FFFFFF;stroke:currentColor;stroke-linecap:round;stroke-linejoin:round;stroke-miterlimit:10;}
	#bed-pakket-compleet-svg .st3{fill:#FFFFFF;stroke:currentColor;stroke-linecap:round;stroke-linejoin:round;stroke-miterlimit:10;}
	#bed-pakket-compleet-svg .st4{fill:#FFFFFF;stroke:currentColore;stroke-miterlimit:10;}
</style>
<g>
	<g id="Laag_3">
		<path class="st0" d="M552.7,712.3c-1.8,0-51.6,21.1-51.6,21.1l0.7,39.5l-71.4-27.3L302.6,775L196,700.3c0,0-113.8,13.2-120.5,13.2
			l3.8,2.7L43.5,719l-0.7,137l149.6,14.2l-53,27.1l0.2,6.6l7.6,1.8l0.1,10.2c0,0,1.3,0.3,0.9,1c-1.5,2.7-6.3,14.3,6,18.1
			c11.8,3.8,18.5-5,19.1-12.3c1.4-16-12.3-11.5-12.3-11.5l0.2-10.5l14.5-6.4L408.3,914l-14.5,9.7l1,9.1l4,0.2l-0.1,10.5l1.2,0.9
			c-6,9.3,0.2,15.8,2.7,17.7c3,2.2,21.1,4.8,22.3-10.9c1.2-15.7-12.3-12.3-12.3-12.3l-0.3-9.8l48.4-34.1l3.1,0.5
			c0,3.6,5.4,8,10.3,7.7c7.2-0.5,10.7-5.8,10.7-5.8l17.7,1.7l10.2-0.2l55.8-50.9l1.1-135.4C569.4,712.5,554.5,712.3,552.7,712.3z
			 M356.7,787.4c0,0,67,23.8,64.2,23.8c-2.8,0-130.1-10.3-130.1-10.3L356.7,787.4z M427.6,901.5l-232.5-17.7l22-10.3
			c0,0,6.4,10.6,20.6,0.4c0.9-0.6,202.1,19.1,202.1,19.1L427.6,901.5z"/>
		<path class="st0" d="M117.6,605.7c0.3,0,40-13.6,107-34.8l-0.1-0.9c-2.7-3.3-2-6.1-1.2-7.7C207,564.8,107.9,599,107.9,599
			l-1.8,110.6l7.9-0.6L117.6,605.7z"/>
		<path class="st0" d="M232.1,560.7l0.1-0.9l1.4-0.4c-0.2-0.3-0.7-0.6-1.6-0.2c-0.1,0-0.1,0.1-0.1,0.1h0.1L232.1,560.7z"/>
		<path class="st0" d="M232.7,571c0.7-0.1,1.4-0.6,1.6-2c-0.6,0.2-1.2,0.3-1.6,0.4L232.7,571z"/>
		<path class="st0" d="M224.5,570.1c0.1,0.2,0.2,0.3,0.4,0.4c0,0,1,0.7,1,3.5s0,42.4,0,42.4s-1.4-0.1-2.4,0.1
			c-1,0.2-2.3,2.4-2.2,5.2c0.2,2.8,0.4,6.5,0.4,6.5s-10.1,9.8-15.6,20.6c0,0-4.7,6.5-3.6,10.6c0.9,3,2.2,4.8,6.8,4.8
			c4.6,0,29.7,0.9,36.5,1.3c6.8,0.4,8.6-0.7,10-4c1.5-3.5-2.9-9.8-3.7-11.1c-0.8-1.2-11.4-17.5-17.2-22.8c0,0,1-8.7-0.5-10.4
			c-1.4-1.5-2.6-0.9-2.6-1.2v-43.2c0,0,0.2-1.1,0.9-1.7V571c-0.7,0.1-1.5-0.5-1.9-1.4c-0.8-1.8,0.1-9.2,1.2-10.3l-7.6,1.6
			c0,0-0.6,0.6-1.1,1.5h0.1L224.5,570.1z M235.1,634.7c0.5-0.2,0.9-0.5,1.4-0.7c0.1-0.1,0.2,0.1,0.4,0.3c0.7,0,0.6,0.1,0.2,0.2
			c1.3,1.4,4.5,6.3,10,14.4c1.5,2.1,2.7,3.5,2.7,3.5s2.2,3.1,1.9,5.7c0.1,1.6-0.5,3.2-3,3.2c-0.2,0-0.5,0-0.8,0
			c-5.6,0.9-21.4-0.2-31.3-1.1c-5.1-0.2-8.7-0.3-8.7-0.3s-3.6-1,0.3-7.8c3.6-6.3,10.3-15.7,11.9-17.5c0.1-0.2,0.2-0.3,0.2-0.3
			s0,0,0.1,0.1c0.1-0.1,0.1-0.1,0.1-0.1c0.3-0.1,0.7,0.3,1.5,0.7C225,635.5,231.5,635.1,235.1,634.7z"/>
		<path class="st0" d="M224.5,570.1l-1.1-7.7h-0.1C222.5,564,221.9,566.7,224.5,570.1z"/>
		<path class="st0" d="M230.8,569.5c0.4,0.9,1.2,1.5,1.9,1.4l-0.1-1.6c-0.9,0.2-1.4,0.3-1.4,0.3l1-9l-0.1-1.4H232
			C230.8,560.3,230,567.7,230.8,569.5z"/>
		<path class="st0" d="M247,648.9c-5.5-8.1-8.7-13-10-14.4c-0.1,0-0.3,0.1-0.4,0.1C237.4,636,243.4,644.1,247,648.9z"/>
		<path class="st0" d="M207.1,654.4c1.3-3.3,11.5-17.9,12.9-19.9c-1.6,1.8-8.3,11.3-11.9,17.5c-3.9,6.9-0.3,7.8-0.3,7.8
			s3.6,0.2,8.7,0.3c-4.9-0.4-8.3-0.7-8.3-0.7S205.7,658,207.1,654.4z"/>
		<path class="st0" d="M221.9,634.9c-0.7-0.4-1.2-0.8-1.5-0.7c0,0-0.1,0.1-0.1,0.1C220.5,634.5,221.1,634.8,221.9,634.9z"/>
		<path class="st0" d="M249.3,660.8c-0.4,0.2-0.9,0.3-1.5,0.4c0.3,0,0.6,0,0.8,0c2.5,0,3.1-1.5,3-3.2
			C251.4,659.1,250.8,660.2,249.3,660.8z"/>
		<path class="st0" d="M236.5,634.2c0.1,0,0.2,0,0.3,0c-0.2-0.2-0.3-0.3-0.4-0.3c-0.5,0.3-1,0.5-1.4,0.7c0.6-0.1,1.2-0.2,1.5-0.2
			C236.5,634.3,236.5,634.2,236.5,634.2z"/>
		<path class="st0" d="M232.1,560.7l0.4,8.7c0.5-0.1,1-0.2,1.6-0.4c0-0.1,0-0.1,0.1-0.2l-0.4-9.3c0,0-0.1-0.1-0.2-0.2l-1.4,0.4
			L232.1,560.7z"/>
		<path class="st0" d="M231.2,569.7c0,0,0.5-0.1,1.4-0.3l-0.4-8.7L231.2,569.7z"/>
		<path class="st0" d="M247.7,555.3l-0.7,4l0.6,4.2l2.5,2c0.6,0,2.7-8.4-2.3-10.3L247.7,555.3L247.7,555.3
			C247.7,555.2,247.7,555.3,247.7,555.3z"/>
		<path class="st0" d="M247.7,555.1L247.7,555.1L247.7,555.1L247.7,555.1z"/>
		<path class="st0" d="M247.8,661.2c-4.9-0.1-21.1-0.6-31.3-1.1C226.4,661,242.2,662,247.8,661.2z"/>
		<path class="st0" d="M235.1,634.7c-3.5,0.4-10.1,0.7-13.2,0.2C223.9,636.1,227.9,638.1,235.1,634.7z"/>
		<path class="st0" d="M251.6,658c0.3-2.6-1.9-5.7-1.9-5.7s-1.1-1.4-2.7-3.5c1,1.5,2.1,3.1,3.3,4.9C250.3,653.7,251.4,656,251.6,658
			z"/>
		<path class="st0" d="M236.9,634.2c0.1,0.1,0.1,0.1,0.2,0.2C237.5,634.3,237.5,634.2,236.9,634.2z"/>
		<path class="st0" d="M220.3,634.3C220.3,634.2,220.2,634.2,220.3,634.3c-0.1-0.1-0.1,0.1-0.2,0.2
			C220.2,634.4,220.2,634.3,220.3,634.3z"/>
		<path class="st0" d="M236.6,634.5c0.2,0,0.3-0.1,0.4-0.1c-0.1-0.1-0.1-0.1-0.2-0.2c-0.1,0-0.2,0-0.3,0
			C236.5,634.2,236.5,634.3,236.6,634.5z"/>
		<path class="st0" d="M247.7,555.1"/>
	</g>
	<g id="Laag_2_1_">
		<path class="st1" d="M223.4,562.4c-16.2,2.3-115.5,36.6-115.5,36.6l-1.8,110.6"/>
		<path class="st1" d="M114,708.9l3.6-103.2c0.3,0,89.1-28.8,107.3-34.9"/>
		<path class="st1" d="M233.8,559.6c0,0-0.5-1-1.8-0.4s-2.1,8.5-1.3,10.3c0.8,1.9,3.1,2.2,3.5-0.7"/>
		<path class="st1" d="M232.7,571.2c-0.7,0.6-0.9,1.7-0.9,1.7v43.2c-0.1,0.4,1.2-0.3,2.6,1.2c1.5,1.7,0.5,10.4,0.5,10.4
			c5.8,5.2,16.4,21.6,17.2,22.8c0.8,1.2,5.2,7.6,3.7,11.1c-1.4,3.2-3.2,4.4-10,4c-6.8-0.4-32-1.3-36.5-1.3c-4.6,0-5.9-1.8-6.8-4.8
			c-1.1-4.1,3.6-10.6,3.6-10.6c5.5-10.8,15.6-20.6,15.6-20.6s-0.3-3.7-0.4-6.5c-0.1-2.8,1.2-5,2.2-5.2c1-0.2,2.4-0.1,2.4-0.1
			s0-39.7,0-42.4s-1-3.5-1-3.5c-4.8-5.6-0.4-9.7-0.4-9.7l7.7-1.6"/>
		<path class="st1" d="M220.4,634.2c-0.6,0.2-8.3,11-12.2,17.8c-3.9,6.9-0.3,7.8-0.3,7.8s35.3,1.4,40.8,1.4s1.7-7.4,1.7-7.4
			c-9-13.3-13.4-20-13.9-19.8C225.7,639.9,221.4,633.9,220.4,634.2z"/>
		<path class="st1" d="M231.2,569.7c0,0,18.8-4.2,18.3-4.5c-4.4-2.9-1.8-10.1-1.8-10.1l-15.5,4.8"/>
		<path class="st1" d="M247.7,554.9c5.1,1.9,2.9,10.3,2.3,10.3"/>
	</g>
	<g id="Laag_2_4_">
		<line class="st2" x1="427.2" y1="901.9" x2="440.3" y2="892.9"/>
		<polyline class="st2" points="461,894.9 405.8,933.2 394.5,932.6 393.8,923.8 408.5,914 		"/>
		<line class="st2" x1="195.8" y1="883.6" x2="219.5" y2="872.2"/>
		<polyline class="st2" points="193.2,869.7 139.8,896.4 139.8,904.2 150.6,905.6 175.3,894.3 		"/>
		<path class="st2" d="M484.9,897c-2.6,4.6-9.3,6.9-14.5,5.6c-4.1-1.3-6.1-4.4-6.6-7.5"/>
		<path class="st2" d="M412.9,938.7c1.6,0,9.3-1.6,11.4,6c1.3,4.7,0.3,10-1.8,13.2c-2.1,3.2-5.7,4.8-9.4,5.6
			c-3.7,0.8-9.6-0.2-12.6-3.1c-2.8-2.8-5.2-9.6-0.9-15.7"/>
		<path class="st2" d="M412.2,928.9c0.3,1,0.2,13.8,0.2,13.8s2.5,1.3,4.1,2.8c1.6,1.5,2.5,4.7,1,7.5c-1.5,2.8-3.4,5-7.5,4.4
			c-6.5-1-3.8-8.8-3.8-8.8l-7.2-5.1v-10.3"/>
		<path class="st2" d="M175,894.3L408.4,914"/>
		<g>
			<path class="st2" d="M161.4,910.8c1.6,0,9.3-1.6,11.4,6c1.3,4.7,0.3,10-1.8,13.2c-2.1,3.3-5.7,4.8-9.4,5.6
				c-3.7,0.8-9.6-0.2-12.6-3.1c-2.8-2.8-5.2-9.6-0.9-15.7"/>
			<path class="st2" d="M160.7,901c0.3,1,0.2,13.8,0.2,13.8s2.5,1.3,4.1,2.8c1.6,1.5,2.5,4.7,1,7.5s-3.4,5-7.5,4.4
				c-6.5-1-3.8-8.8-3.8-8.8l-7.2-5.1v-10.4"/>
		</g>
		<line class="st2" x1="427" y1="902" x2="195.8" y2="883.7"/>
		<path class="st2" d="M237.5,873.8c-2,2.7-7,5.1-14.4,3.9c-4-1.3-5.1-2.8-5.7-4.5"/>
	</g>
	<path class="st2" d="M75.3,713.4l146.5,103.3c0,0,130.8-30.2,134.6-29.5c3.8,0.6,131.3,48.1,131.3,48.1l13.9-7"/>
	<path class="st2" d="M502,773.2c0,0-69.5-27.4-73.3-27.4c-3.8,0-120.9,28.7-125.3,29.4c-4.4,0.6-102.4-74.2-107.5-74.2
		S75.2,713.3,75.2,713.3"/>
	<path class="st2" d="M131.3,811.4c0,0,2.1-0.7,5.7,0.7c3.6,1.4,2.8,7.1,2.8,7.1l1.4,30.8c0,0-4.6,2.8-6,3.2
		c-1.4,0.3-8.8-1.4-8.8-1.4l-2.8-37.5L131.3,811.4z"/>
	<polyline class="st2" points="83.3,719.4 56.2,722 43.3,719.3 	"/>
	<polyline class="st2" points="79.4,716.2 43,719 43,856.2 56.1,857.5 56.1,722.2 	"/>
	<line class="st2" x1="56.2" y1="810.9" x2="123.2" y2="814.2"/>
	<line class="st2" x1="139.8" y1="815.4" x2="501.7" y2="841"/>
	<line class="st2" x1="56.4" y1="836.1" x2="125.3" y2="841.6"/>
	<line class="st2" x1="501.7" y1="898.7" x2="56.4" y2="856.8"/>
	<line class="st2" x1="141" y1="842.8" x2="501.7" y2="868.9"/>
	<path class="st2" d="M554.5,711.6L501.6,733l1,164.8"/>
	<path class="st2" d="M569.5,712.8l-55.8,22.1L513,898.5c0,0,55.4-49.6,55.4-51.4C568.4,845.1,569.5,712.8,569.5,712.8z"/>
	<line class="st2" x1="158.2" y1="816.7" x2="203.7" y2="806"/>
	<path class="st2" d="M133.8,853.8l1.8,13.8c0,0,5.4,22.7,9.3,25.4"/>
	<line class="st2" x1="502.6" y1="898.8" x2="513" y2="898.8"/>
	<path class="st2" d="M502.3,733.7c0,1.1,11.4,0.7,11.4,0.7"/>
	<line class="st2" x1="569.5" y1="712.8" x2="553.9" y2="712.3"/>
	<line class="st2" x1="289.2" y1="801.4" x2="422" y2="811"/>
</g>
<g>
	<g id="wit">
		<g>
			<path class="st0" d="M308.5,433.7c0,0-0.5-5.8-0.3-7.6l-11.7,3.4v1.7c0,0,0,0.1-2,1.1c-4.4,2.1-6.5,11.1-6.5,11.1
				c-0.4,0.6,1.3,0.2,1.3,0.6c-0.7,11.2,9.1,11.8,14.7,10.8c6.7-1.2,7.2-8.9,7.2-8.9l2.5,0.1c0,0,1.2-2.9-0.2-6.9
				C311.7,433.9,308.5,433.7,308.5,433.7z"/>
			<path class="st0" d="M158.6,203.4c25.2-4.2,188.4-31.5,190.4-33.8c2-2.4-0.8-4.5-0.8-6.1c0-1.6,0.9-3.1-0.8-4.8
				c-1.6-1.6-4.5-0.9-4.5-0.9l-84.5-63.3c-0.5-2-3.3-4.5-3.3-4.5S81,112.9,79,113.3c-2.1,0.4-2.5,4.5-2.5,4.5s0,0-0.1,0l-0.5-0.1
				c-0.1,0-0.1,0.1-0.2,0.1c-0.8,0.1-2.2,0.4-3.3,1.2c-1.7,1.2,0,7.4,0,7.4s14.7,14.7,16.7,16.7c0,0,0.3,0.3,0.8,0.8l-2-1
				c-4.8,4.3-5.5,10.9-5.5,10.9l1.8,67.2l-1.2,2h-0.2c0.1,0,0.1,0.1,0.2,0.1l-0.4,0.7L85.2,386l-0.2,0.5h-0.3c0,0,0.1,0,0.3,0.1
				l-1.1,2.7l0.4,23.8c0,0-19,2.7-26,9.2c-7,6.5,0.2,16.1,0.2,16.1s33,32.3,42.4,36.3c9.4,4.1,22.1,2,22.1,2s6.4-1.3,12-2.7
				c0.2,0.3,1,1.7,0.1,1.7c-1,0-4.1,1.5-4.1,1.5c-8.6,2.7-5.9,19.1-5.9,19.1l2.2-0.2c0,0,5.9,10.3,17.3,3.4
				c4.4-2.7,6.6-5.5,5.1-10.9c0,0,0,0,0,0l0.3-0.1c0,0-0.1,0-0.2,0c0.2-0.2,1-0.2,1-0.4c-1-4.1-4.7-6.9-4.7-6.9l-0.5-10.1l-6.2,1.6
				c1.9-0.5,3.2-1.1,3.7-1.5c1.7-1.6,3.2,0.6,5.7,1c2.4,0.5,3.3,0.3,7.4-1.4c4.1-1.7,3.7-3.7,3.7-3.7l159.4-44.5
				c2.4-7.8-4.5-10.6-4.5-10.6s-59.6,16.4-121.5,33.9c-3.2,0.9-19.3,4.7-32.3,7.9l-0.4-16.6l-0.2-2.5l-2.5-1.9l-0.9-33.5
				c0.1-0.1,0.2-0.2,0.3-0.3l0.2,5.6l91.3-22.3c0,0,1.3-2.3,0.3-5.9c-1.3-4.8-3.8-4.5-3.8-4.5L157,393l0.2,4.4
				c-0.1,0-0.2-0.1-0.3-0.1l-3.2-124.5c0.6-0.9,1.1-1.7,1.1-1.7l2.2-1l2.3,3.2c0,0,2.5-0.2,3.2-0.3c0.7-0.1,1-0.2,1.6-2.2
				c0.7-2.1,0.4-4.6,0.2-6.2c-0.2-1.6-2.3-2.7-2.4-3c-0.1-0.4-2.3-0.1-2.7-0.1c0,0-0.8,0.9-1,1.1c-0.2,0.2-1.3,2.3-1.5,2.7
				c-0.2,0.5-0.3,1.5-0.3,1.5l-2.5-0.4l-0.4-1.4l-0.1-4.4l0.9-1.6L154,252c0,0-1.2,0.7-1.2-2.3c0-3-0.9-37.2,0-37.9
				C153.5,211.3,156.6,206.6,158.6,203.4z M86.6,421.9l-9.1,2.1C80.8,423,85.2,421.5,86.6,421.9z M142.9,435.7l-0.2,18.8l1.2,4.4
				c0,0-0.1,0-0.1,0c-9.7,4.6-24,9.3-38.7,4.5c-1-0.3-13.5-10.8-24.1-20.1c-7.7-6.7-15.4-12.1-12.7-15.7c0.5-0.6,2.1-1.5,3.8-2.1
				c-0.2,0.7-0.7,2.7-0.8,3c-0.1,0.4-0.5,5.4-0.5,5.4l9.2,8.3l4.3-1c0,0,3.6-2.2,3.7-2.2c0.2-0.1,2.2-3.6,2.1-3.8
				c-0.1-0.2-0.2-3.1-0.2-3.1l0.8-0.5c0,0-0.7-1.6-1-1.7c-0.2-0.1-2.8-3.5-3-3.7c-0.2-0.2,0-3.7,0-4.2c1.1,0.4,5.7,0.8,7.6,0.6
				c6.7-0.8,7.3-3.2,7.6-5c13.9-4.5,36.5-7.8,41.2-9.9c0.3-0.2,0.7-0.3,1-0.5l0.8,25L142.9,435.7z M145.2,202.5l-4.4,6.9
				c0,0-1.2,6.5-1.2,7.7c0,1.2,2.3,32.8,2.3,32.8l-2.1,3.5l2.5,99.6l1.4,43.7c-0.3-0.1-0.5-0.2-0.7-0.4l-42.4,11l-1.1-16.4l-2-4.8
				l-2.8-139.9c0.4-0.7,0.9-1.5,1.2-2l1.8-1.5l0.9-0.4l0.5,0.5l1.9,2.6c0,0,2.5-0.2,3.2-0.3c0.7-0.1,1-0.2,1.6-2.2
				c0.5-1.4,0.7-3,0.6-4.5l0.1-0.4l-0.2-0.2c-0.1-0.5-0.2-0.8-0.3-1.2c-0.7-1.4-2-2.9-2.4-3c-0.5-0.2-2.3-0.1-2.7-0.1
				c0,0-0.8,0.9-1,1.1c-0.2,0.2-1.3,2.3-1.5,2.7c-0.2,0.5-0.3,1.5-0.3,1.5l-1.4-0.2l-1.1-0.2l-0.5-2h0L94.5,224l-1.4-3.1l-0.6-68.2
				l2.3-2.9c-0.4,0.1-0.5-0.5-0.4-1.1c12.9,13.6,45.4,48.2,50.9,53.5L145.2,202.5z"/>
			<path class="st0" d="M243,395.2c-1.5-4.1-2.9-4.5-4.2-5.3c-1.1-0.7-2.7-3.3-2.7-4l-9.3,2.1c0,0-3,0.4-6.4,6.2
				c-1.7,2.7-2.2,6.2-1.1,8.9c0.3,0.7,1.1-0.2,1.3,0.1c1.5,2.6,3.8,5.4,6.7,5.9c8.4,1.4,16.6-2.2,15.7-11.7
				C242.9,395.4,243.8,397.2,243,395.2z"/>
		</g>
	</g>
	<g id="Laag_4">
		<path class="st2" d="M156.3,266.7c0-0.8,0.2-1.6,0.5-2.3c1-1.8,1.5-2.9,2.3-3.1c0,0,1.8-0.1,2.5,0.1s3.2,2.5,3.1,6.1
			c-0.1,3.7-1.6,5-2.6,5.4c-1,0.5-2.9,0.3-3.2-0.1c-0.2-0.3-1.5-2.1-2-3"/>
		<path class="st2" d="M158.9,272.8c0,0,2.9-0.2,3.3-4.8c0.4-4.5-1.2-5.4-3.1-6.7"/>
		<path class="st2" d="M98,239c0-0.8,0.2-1.6,0.5-2.3c1-1.8,1.5-2.9,2.3-3.1c0,0,1.8-0.1,2.5,0.1s3.2,2.5,3.1,6.1
			c-0.1,3.7-1.6,5-2.6,5.4c-1,0.5-2.9,0.3-3.2-0.1c-0.2-0.3-1.5-2.1-2-3"/>
		<path class="st2" d="M100.7,245.1c0,0,2.9-0.2,3.3-4.8s-1.2-5.4-3.1-6.7"/>
		<path class="st2" d="M89,143.1c-2-2-16.7-16.7-16.7-16.7s-1.7-6.1,0-7.4c1.7-1.2,4.1-1.2,4.1-1.2s0.4-4.1,2.5-4.5
			c2-0.4,176-23.3,176-23.3s2.8,2.5,3.3,4.5l84.4,63.3c0,0,3-0.7,4.5,0.9c1.7,1.7,0.8,3.2,0.8,4.8c0,1.6,2.8,3.7,0.8,6.1
			c-2,2.5-193.6,34.3-193.6,34.3s-5.7,2-9.4-1.2C142,199.4,89,143.1,89,143.1z"/>
		<path class="st2" d="M347.9,164.1c-2.8,0.8-190.1,32.7-194.4,34c-2.5,0.8-5.7-1.5-6.7-2.7c-4-5.3-72.3-75.5-72.3-75.5
			s0.2-1.5,1.2-2.2"/>
		<path class="st2" d="M144.9,202.3c0,0-4.1,5.7-4.9,12.7c-0.8,6.9,1.2,35.2,1.2,35.2l-1.7,2.8l4.6,155.1l0.7,24.1
			c0,0-1.9,1-1.9,3.5c0,2.5-0.1,18.8-0.1,18.8l1,4.5c0,0-12,4.7-15.3,5.4c-2.5,0.5-14.3,2.5-21.3-0.4c-7-2.8-38-31.1-38-31.1
			s-4.9-3.3,0.4-6.1c4.5-2.5,13.8-4.3,16.4-4.7c0.3-0.1,0.7-0.1,1,0.1c0.4,0.1,1.5,0.9,4.3,0.6c4.8-0.5,7.1-0.2,8.9-2.6
			c1.2-1.6,1.7-2.7,1.7-2.7l41.5-9.4"/>
		<path class="st2" d="M158.2,269.2c-0.4,0.4-3.4,1.4-3.9,2.1c-0.5,0.7-0.2,3-0.3,3.6c-0.3,3.9,3.2,158.1,3.2,158.1s3.3,0.8,3.3,2.8
			s-0.2,17.9,0.5,18c3,0.1,153.4-41.6,153.4-41.6s6.9,2.8,4.5,10.6l-159.4,44.5c0,0,0.4,2-3.7,3.7c-4.1,1.7-5,1.8-7.4,1.4
			c-2.5-0.4-4-2.6-5.7-1s-20,5.3-20,5.3s-12.7,2-22.1-2s-42.4-36.3-42.4-36.3s-6.7-9.6,0.2-16.1c7-6.5,25.5-9.2,25.5-9.2l-0.4-23.8
			L85,386l-2.6-162.1l1.7-2.8l-1.8-67.2c0,0,0.7-6.7,5.5-10.9"/>
		<path class="st2" d="M158,266.5c-0.4,0-3.6,0.2-4.2-0.5s-0.3-6.1-0.3-6.1l0.7-0.8l-0.2-6.7l-0.8-3.3c0,0-0.5-27.7-0.2-34.7
			c0.1-8.2,4.8-10.6,4.8-10.6"/>
		<path class="st2" d="M99.7,238.8c-0.4,0-3.6,0.2-4.2-0.5c-0.5-0.7-0.5-14-0.5-14l-2-2.8l-1.2-67.4c0,0-0.5-3.5,2.7-4.3"/>
		<path class="st2" d="M100,241.5c-0.4,0.4-3.1,1-3.9,2.1c-0.5,0.7-1.3,1.4-1.4,2.8l2.7,140.3l2,3.5l0.5,17.4l43.7-11.1"/>
		<path class="st2" d="M156.8,393l88.2-20.8c0,0,2.5-0.2,3.8,4.5c1,3.5-0.3,5.9-0.3,5.9l-91.3,22.3"/>
		<path class="st2" d="M310.7,445.8l-4.1-0.5c0,0,2.3-4.6-2.3-6.7c-4.5-2-8.2-0.5-9.3,1.5c-1.4,2.6-2.3,4.1-5.7,3.7"/>
		<path class="st2" d="M127.3,496.2l4.1-1.7c0,0,0.5-9,4.1-10.1c3.5-1,8.7-1,9.7,1.2c1,2.2,1.2,3.8,1.8,3.6c0.5-0.1,2.9-0.6,2.9-0.6
			"/>
		<path class="st2" d="M220.4,403l4-1.3c0,0,0.5-9,4.1-10.1c3.5-1,8.7-1,9.7,1.2c1,2.2,1.2,3.7,1.8,3.6c0.6-0.1,3-0.1,3-0.1"/>
		<path class="st2" d="M82.8,232.8c0,0,7.7,1.7,12.7-0.5"/>
		<path class="st2" d="M82.6,223.2c2.1,1,6.1,2.1,11.3,0"/>
		<path class="st2" d="M139.9,259.9c0,0,9.2,3,13.8-0.2"/>
		<path class="st2" d="M84.5,386.5c0,0,8.6,2,13.5-0.1"/>
		<path class="st2" d="M143.9,432.9c0,0,9.2,2.1,13.8-0.3"/>
		<path class="st2" d="M141.2,250.1c2.1,1,6.7,2.1,12,0"/>
		<path class="st2" d="M235.9,385.8c0,0.7,1.6,3.2,2.7,4c1.2,0.9,2.6,1.2,4.2,5.3c0.8,2-0.1,0.2,0.1,2.1c0.9,9.5-7.4,13.1-15.7,11.7
			c-2.8-0.5-5.2-3.3-6.7-5.9c-0.2-0.3-1,0.6-1.3-0.1c-1.1-2.7-0.5-6.2,1.1-8.9c3.4-5.8,6.4-6.2,6.4-6.2"/>
		<path class="st2" d="M307.9,426.1c-0.2,1.8,0.3,7.6,0.3,7.6s3.2,0.2,5.1,5.4c1.4,4,0.2,6.9,0.2,6.9l-2.5-0.1c0,0-0.5,7.7-7.2,8.9
			c-5.6,1-15.4,0.5-14.7-10.8c0-0.4-1.7,0-1.3-0.6c0,0,2-9,6.5-11.1c2-1,2-1.1,2-1.1v-1.7"/>
		<path class="st2" d="M145.4,471.3l0.5,10.1c0,0,3.6,2.8,4.7,6.9c0.1,0.2-1,0.2-1,0.5c1.5,5.4-0.7,8.2-5.1,10.9
			c-11.4,6.9-17.3-3.4-17.3-3.4l-2.2,0.2c0,0-2.7-16.4,5.9-19.1c0,0,3.1-1.5,4.1-1.5c1,0-0.1-1.8-0.1-1.8"/>
		<path class="st2" d="M151.4,197.8c0,0-0.7-7.4,4.4-8.6c5.1-1.1,187.6-31.5,187.6-31.5"/>
		<polyline class="st2" points="258.1,94.5 258,97.7 76.3,119.6 76.4,117.8 		"/>
		<path class="st2" d="M157.4,271.5"/>
		<path class="st2" d="M156.3,266.1"/>
		<g>
			<path class="st2" d="M74.1,437.1l1.7-0.7c0,0-0.7-6.2,3.1-7.6c2.6-1,6.6-0.8,7.4,0.9c0.8,1.7,0.9,2.9,1.3,2.7
				c0.4-0.1,2.2-0.5,2.2-0.5"/>
			<path class="st2" d="M70.6,434.4c-0.1-2.6,0.2-6.2,1.7-8.6"/>
			<path class="st2" d="M86.7,422.2l0.2,4.3c0,0,2.7,2.1,3.5,5.2c0.1,0.1-0.8,0.1-0.8,0.3c1.2,4.1-0.5,6.2-3.9,8.2
				c-2.5,1.5-4.5,1.9-6.3,1.8"/>
		</g>
	</g>
</g>
<g>
	<path class="st0" d="M728.4,125.6L782,111l6.3,1.7l9.7-1.1l8.6,0.6l1.1-9.2c0,0,15.5-16.6,17.2-17.2c1.7-0.6,21.1-13.2,26.3-13.8
		c5.2-0.6,25.8-2.8,25.8-2.8l22.3,5.1c0,0,13.8,4.6,15.5,6.9c1.7,2.3,16,16.6,16,16.6l9.7,24.6l3.4,7.4l-5.1,6.9l5.7,5.7l3.4,6.3
		l-17.2-1.7l-8.6-4.6l-4.6,2.3l-5.1,8.6c0,0-4.6,18.9-6.3,22.9c-1.7,4-4.6,17.7-4.6,17.7l-5.7,1.1l-6.3-1.7h-9.7c0,0-9.7-2.3-12-2.8
		c-2.3-0.6-18.3-5.7-18.3-5.7l-9.7-6.3v-32.1l-2.8-18.3l-7.4-4.6l-14.3-1.1l-6.9-3.4l-16,1.7l-24,6.3l-30.9,9.2l-8.6,4l-3.4,8
		l0.6,60.7l-9.7,9.2c0,0-1.7-64.1-1.7-69.8c0-5.7,4-6.3,4-8.6s4.6-5.7,4.6-5.7L728.4,125.6z"/>
	<path class="st0" d="M749.3,246.3l6.9,8.9c0,0,4.6,1.1,5.8,4c1.1,2.8,4.5,24,4.5,25.8s3.4,15.5,3.4,15.5s10.3,7.4,18.9,7.4
		c8.6,0,10.3,2.8,14.9,2.8c4.6,0,10.6-3,10.6,1s0.3,1.8,0.3,1.8l-2.3,12.6l5.7,2.3l5.7-3.4l-1.7-10.3l-1.7-4l9.2-3.4l7.4-2.8
		l-5.7,73.8c-0.6,0.8-1.5,1.1-1.5,1.1s2.2,5,1.1,9.5c-0.6,2.2-0.1,10.6-0.1,10.6l-6.9,26.9l4,4l11.5-1.7l-1.1-16.5
		c0,0,1.7-10.4,1.7-12.1s0.4-7.6,0.4-7.6c-1.7-5.1,1-6.7,1-6.7l-0.1-5.3l-0.1-6.1l6.9-77.3l5.5-16c0,0,1.8-16.7,0.2-17.2
		c-1.7-0.6,61.8-21.7,61.8-21.7c6-0.6,2.1-0.9,8,2c5.8,2.8,12.6,17.7,12.6,17.7l2.2,66.8l0.2,3.7l-0.2,6.6l1.3,6.9
		c2.3,4,0.4,15.4,0.4,15.4l-3.4,6.9l0.3,5.4c0,0,2.7,1.1,6,1.9s6.9,0.7,7.5-1.6s-1.1-12-1.1-12l-1-14.2l-0.2-7L948,335l-0.2-6.1
		l-1.4-68.2l-11.5-18.3l-19.4-16.6l-13.8-14.3l-5.8-21.4l-6.2-0.9v9.2l2.7,14.9l-8.4-2.9l-9.2-5.1l8-17.7l-12.6-3.4l-4.6,18.3
		l-17.6-5.3l1.5-11.9l1.7-8l-9.1,3.1l-0.1,6l-2.6,8.4l-36.3-5.7l-33.3,5.3l-44.1,14.9l-9.7,9.2c0,0-5.1,5.1-4.6,6.9
		c0.6,1.7,3.8,3,3.8,3l-5.9,99.7l-0.2,7.8V347l-1.6,12.3l-2.2,10.9l8.4,3.6l6.3-2.3c0,0-2.3-8.6-2.3-12s0.9-17.3,1.2-20.9
		c0.2-2.4,0.1-7.3,0.1-7.3l0.4-5.6L719,319l4.6-81.8l75.6,25.2l-6.3-33.8"/>
	<path class="st0" d="M894.2,177.4l52-24.2l1.8-4.4l-3.4-6.3c0,0-21.1,0-18.3,0.6c2.8,0.6,4.6,4,4.6,4s-20.3,8.4-29.2,10.3
		c-1.8,0.4-15.5,7.4-15.5,7.4L894.2,177.4z"/>
	<path class="st2" d="M839.1,194c0,0,0.6,0,1.8-2.1c0.9-1.8,1.4-11.4,1.4-11.4c-3.6-3-2.1-1-1.8-21.4c0.5-32.4-6.3-34.7-10.8-35.7
		c-4.5-1-18.5-1.8-18.5-1.8l-2.4-1.8c0,0-14.9-0.6-21.5,1.5c-15.1,4.9-49.3,14.7-53.8,16.1c-4.8,1.4-9,8.2-9,12.6
		c0,4.4,0.6,58.9,0.6,58.9s21.7-7.8,26.5-9.2c19.1-5.7,40.6-9.2,44.5-10c3.7-0.8,7.8-1.9,19.7,0.4C827.8,192.3,839.1,194,839.1,194z
		"/>
	<path class="st2" d="M890,194.3c0,0-0.5,5,0,8.9c0.5,4,2.7,8.7,3.7,10.2c1,1.5-7.2-2.8-9.7-3.8c-2.5-1-9.9-5.4-9.9-5.4l5.4-11.4
		L890,194.3z"/>
	<path class="st2" d="M868.9,190.6l-18.7-6.2c0,0-0.4,4.8-1.6,7.4c-1,2.2-1.2,4.8-1.2,4.8s15.4,3.7,17.1,4.8"/>
	<path class="st3" d="M820.8,310.1l0.8,3.8l1.4,0.5c0,0,2.1,10,2.1,11c0,1-2.3,2.9-5.7,2.9c-3.3,0-5.8-0.2-6.9-2.2
		c-1.1-2.1,0.9-11.3,0.9-11.3l1.2-0.9v-3.2"/>
	<path class="st3" d="M749.6,245.1c0,0,3.8,6.3,6.9,8.8c3,2.5,12.4,7.9,19.4,9.5c7,1.5,21.9,4,26.3,4s15.1-0.2,15.1-0.2"/>
	<path class="st3" d="M854.3,262.3c0,0,0,10.9-1,17.4c-1,6.4-2.4,12.4-4.9,15.9"/>
	<path class="st3" d="M836.5,304c0,0-9,5-16.5,6c-7.4,1-25.5-0.4-33.8-3c-5.9-1.9-13.9-3.5-16.9-9.5c-3-6-7.4-39.7-7.4-39.7"/>
	<path class="st3" d="M853.4,255.6c2.9-0.3,47.4-15.3,51.8-19.7c4.3-4.3,7.8-3.5,4.3-8.4s-11-12.1-17-14.1"/>
	<path class="st3" d="M857.3,220.6c0,0-23.3,10.9-58.9,8.7c-35.6-2.2-42.1-10.6-41.9-15.1c0.2-4.5,6-8.4,13.4-11.6
		c8.6-3.6,15.9-5.8,35.3-7.6s29.1,1.8,32.1,2c1.5,0.1,23.3,4.3,25.6,9.3"/>
	<path class="st2" d="M912.3,154.6c0.5-2,5-9.5,5-9.5c1.1-1.1,1-1.7,5-1.7s9.5,3.2,9.5,3.2S923.1,150.8,912.3,154.6
		c-10.9,3.8-21.4,7.2-23.3,8.3c-4.8,2.8-2.3,5.8-4.8,7.8c-1.4,1.1-10.6,9.7-12.1,12.2c-1.5,2.5-21.4,58.4-27,66.9
		c-7.3,11.3-6.3,23.9-6.3,25.4s-8.1,103.1-8.1,103.1l-0.9,20l-2,13.9c0,0-1.2,0.4-1.7,2c-1.1,4-2.1,11.9-1.8,12.4
		c4,5.9,15.1,1.5,15.1,1.5v-13.4l-1.2-2.8l0.8-12.1l1.5-13.6l0.6-8.1c0,0,9.4-109.6,9.4-113.1c0-3.5,13.6-37,23.5-60.8
		c9.9-23.8,14.9-22.3,17.9-25.3c3-3,48.1-20.9,54.6-26.3c4.4-3.7,1.1-9.5-7.1-14.3c-1.4-0.8,6.3-5.1,3.1-12.8
		c-4.1-10.3-14-55.4-69.1-56.3c-40.7-0.6-66.2,34.9-66.2,34.9l0.6,7.8c0,0-7.4-0.8-9-0.6c-9.9,0.8-2.4,0.1-9.9,0.8
		c-2.2,0.2-4.8-0.6-6.3-1.2c-2.3-1.1-50.2,12.9-53.8,14.5c-0.5,0.2-3.2,1.4-3.1,2.8c0.1,4.7-1.4,2.7-5.8,7.7s-5.4,7.9-6,13.9
		c-0.5,6,1.8,64.7,1.8,66.7s-4.8,4.7-3.5,8.1c0.8,2.4,1.5,3.7,3.1,3.7c1.5,0-4.8,97.4-4.8,97.4l-1.9,31.7c0,0-1.2,0.3-2.5,6.5
		c-0.6,3-1.1,6.4-0.1,7.6c2,2.5,12.8,1.4,13.3,0.1c0.9-2.5-0.4-8.1-0.4-10.6c0-2.5-0.4-1.6-1.4-4l1.4-31.5l4.5-89.3
		c0,0,80.2,28.4,84.6,29.4c4.3,0.9,15.8,2.9,18.9,2.7c3-0.1,11.9-1.7,11.9-1.7"/>
	<path class="st3" d="M715.6,228.1c0,0,31.4,13.1,36.3,14.5c4.9,1.4,50.9,15.1,55.8,16.5c4.9,1.4,29.9,2.2,33.4-0.7"/>
	<path class="st2" d="M907.4,172c0,2-4.3,18.5-5.3,20.1c-1,1.5-0.1,0.8-1.7,2.3c-1.3,1.2-3.8-0.2-3,3.5c1.4,5.9,3.4,13.6,12.2,21.6
		c4,3.6,17.5,16.1,23,20.6c5.4,4.5,12.9,15.9,13.4,24.8s1.7,64.7,1.7,64.7l0.5,29.8c0.6,1.6,0.9,1.3,1.3,2.7c0.8,3.4,1.2,9.9,1.2,11
		c0,1.5-9,4.8-13.5,0.3c-0.6-0.1-1-8.6,0.6-11.4c0,0,1-1.6,1.4-1.8c0.4-0.1-3.4-87.8-3.1-92.9c-1.1-7.8-3.9-14.7-7.4-18.4
		c-3.5-3.7-8.1-8.8-13.6-7.3c-5.4,1.5-64.1,21.6-64.1,21.6"/>
</g>
<g>
	<g>
		<path class="st3" d="M887.6,900.8c0,1.3-6,16-10.4,21c-4.4,5.1-18.8,23.8-55.5,24.5s-54.9-4.1-70.7-11.8
			c-15.8-7.7-22.2-21.2-24.5-25.3c-2.3-4.1-3.4-11.6-3.4-11.6"/>
		<path class="st3" d="M716.8,894.5c0,0-28.3-9-31-9s-9.8,1-15.2,1.6c-5.4,0.7-49.1,7.7-54.2,6c-5.1-1.6-9-9.3-9.1-13.9
			c-0.1-3.2,1.6-8.8,7.3-9.5s74-1.3,74-1.3"/>
		<path class="st3" d="M862.7,804.4c3.8,1.6,50.5,12.7,62.5,37.7c9.6,20.1-3.8,45.7-38,58.6c-8.3,3.1-18.1,5.6-28.9,7
			c-48.3,6-107.3,2.3-135-10.3c-3.9-1.8-7.3-3.8-10-5.9c-20.6-17.1-32.6-26.1-26.6-51.4"/>
		<path class="st2" d="M865.8,832c1,0.3,32.7,10.8,23.5,32c-9.1,21.2-46,34.9-91.3,33c-45.4-2-67.5-19.5-76-36.8"/>
		<path class="st3" d="M702.7,776.5c6-2.9,60.1-26.7,129.8,3.8c0,0,85.8,47.8-11.4,84.1c-0.5,1-19.4,5.4-21.5,5.6
			c-7.4,0.7-21.9,0.5-23,0.5c-37.4-0.6-106.1-11.2-100.9-67.6C675.7,802.8,677.9,787.3,702.7,776.5z"/>
		<path class="st3" d="M701.9,796.2c0.7-0.8,24.2-26,74-19.1c49.8,7,70.8,18.2,74.5,45.1c3.5,26.1-55.8,48.8-106.9,35.6
			C690.1,839,684.4,817.8,701.9,796.2z"/>
		<path class="st2" d="M745.9,799.9c2-1.1,13.3-7.2,34.8-2c0,0,27.6,2.6,27.8,27.5c-7,23.8-51.4,12.7-57.5,10.5
			C745,833.6,716.1,815.7,745.9,799.9z"/>
	</g>
	<path class="st2" d="M765.2,810.1c-1.1,1.1-0.3,7.2,0.2,10.5c0.3,2.6-3.8,0.2-6.2-0.2c-2.1-0.3-1.1-3.8-1.1-4.6
		c0-3.4-0.8-6,0.7-9.1c1.5-3.1,5.9-3.1,7.2-2.8c0.5,0.2,9,2,11.4,2.8c2.9,1,6,2,6.5,2.3c2.1,1.6,0.8,11.3,1.1,15s-0.8,4.1-0.8,4.1
		s-1,0.8-5.4-1.8c-0.8-0.5,0.5-8.8,0.3-11.3L765.2,810.1z"/>
</g>
<g>
	<path class="st4" d="M913.5,594.6L913.5,594.6c0,0-360.7-75.2-364.3-75.2c-3.7,0-147.4,33-149.8,33l0.3,0.1l-0.9-0.1v17.7l0.1,0
		l1.1,12.2l386.3,124.6l125.9-75.2l3-16.5L913.5,594.6z"/>
	<g>
		<path class="st2" d="M399.5,552.4c2.4,0,146.1-33,149.8-33c3.6,0,364.3,75.2,364.3,75.2l-125.4,68.5L399.5,552.4z"/>
		<polyline class="st2" points="913.5,594.6 915.4,615.4 788.2,688.1 398.8,570.2 398.8,552.4 		"/>
		<polyline class="st2" points="915.4,615.4 912.3,631.9 786.4,707.1 400,582.4 398.9,569.7 		"/>
	</g>
</g>
<g>
	<g>
		<path class="st0" d="M633.4,420.4c0,0,0-0.1,0-2.5c0-2.5-19.9-207-19.9-209s1.5-4.6,1.5-4.6s-166.3-6.3-158.2-3.3
			c0.9,0.3-0.5,10.1-0.5,10.1l-52.9,1.9c0,0,0,0,1,34.7s-4.1,179.4-4.1,179.4s0,0,2.5-1c2.5-1,14.8,1,14.8,1v10.7l60.4-5.9l1.3,6.9
			c0,0,21.9-3.6,27-5.1c5.1-1.5,43.2-4.7,43.2-4.7l54.2,2.2l0.5-3.6l11.8,0.2l0.1-6.2"/>
		<path class="st0" d="M557.7,428c0,0,38.8,0.2,40.9,0.2c2.1,0,4.8-0.9,5.7-0.6 M456.5,210.9c0,4.6,2.5,164.2,3.1,173.3
			c0.5,9.2-0.5,41.3-0.5,41.3s9.7,2.5,13.8,2s55.1-4.6,60.7-5.1c5.6-0.5,55.1-2.5,61.2-2.5s12.8,0.5,17.8-0.5
			c5.1-1,15.1-1.4,20.7,0.7 M417.8,427.1l31.8-1.7"/>
		<path class="st0" d="M475.1,427.3c0,0,5.8,0.7,8,0.7s48.8-1.7,53.6-1.9c4.7-0.3,72.2-0.8,72.2-0.8l-0.3-5.3 M458,427.9
			c0,0,0-0.5-2.8-0.5c-2.8,0-5.8,0.5-5.8,0.5s1.3-6.3,1.7-12.5c0.2-5.1,5.6-138.6,5.6-139.7c0-1.1,0.6-10.3,0.6-10.3 M400.4,427
			c0,0,2,0.5,4.4,0.6s10.8-0.2,11.5-0.2s1.3-0.1,1.3-0.1"/>
		<path class="st0" d="M608.6,420.5c0,0,4,0.6,6.1,0.8c2.1,0.2,13.2-1.2,14.3-1.2c1.1,0,4,0,4,0 M549.5,428.8
			c1.1,0,25.4-3.4,28.2-3.4 M459.4,408.8c0,0-1.4,21.7-1.4,22.6s1.9,0,4.5,0s14.9-0.5,15.7-0.5"/>
		<path class="st0" d="M459.7,425.9c0,0-0.5,2.5,0.1,2.6c0.5,0.1,0.5,0.1,3,0c2.5-0.1,12.7-0.3,13.4-0.3s1.3-0.4,1.3-0.4l0.7,3.9"/>
	</g>
	<g>
		<path class="st2" d="M633.4,420.4c0,0,0-0.1,0-2.5c0-2.5-19.9-207-19.9-209s1.5-4.6,1.5-4.6s-166.3-6.3-158.2-3.3
			c0.9,0.3-0.5,10.1-0.5,10.1l-52.9,1.9c0,0,0,0,1,34.7s-4.1,179.4-4.1,179.4s0,0,2.5-1c2.5-1,14.8,1,14.8,1v10.7l60.4-5.9l1.3,6.9
			c0,0,21.9-3.6,27-5.1c5.1-1.5,43.2-4.7,43.2-4.7l54.2,2.2l0.5-3.6l11.8,0.2l0.1-6.2"/>
		<path class="st2" d="M557.7,428c0,0,38.8,0.2,40.9,0.2c2.1,0,4.8-0.9,5.7-0.6 M456.5,210.9c0,4.6,2.5,164.2,3.1,173.3
			c0.5,9.2-0.5,41.3-0.5,41.3s9.7,2.5,13.8,2s55.1-4.6,60.7-5.1c5.6-0.5,55.1-2.5,61.2-2.5s12.8,0.5,17.8-0.5
			c5.1-1,15.1-1.4,20.7,0.7 M417.8,427.1l31.8-1.7"/>
		<path class="st2" d="M475.1,427.3c0,0,5.8,0.7,8,0.7s48.8-1.7,53.6-1.9c4.7-0.3,72.2-0.8,72.2-0.8l-0.3-5.3 M458,427.9
			c0,0,0-0.5-2.8-0.5c-2.8,0-5.8,0.5-5.8,0.5s1.3-6.3,1.7-12.5c0.2-5.1,5.6-138.6,5.6-139.7c0-1.1,0.6-10.3,0.6-10.3 M400.4,427
			c0,0,2,0.5,4.4,0.6s10.8-0.2,11.5-0.2s1.3-0.1,1.3-0.1"/>
		<path class="st2" d="M608.6,420.5c0,0,4,0.6,6.1,0.8c2.1,0.2,13.2-1.2,14.3-1.2c1.1,0,4,0,4,0 M549.5,428.8
			c1.1,0,25.4-3.4,28.2-3.4 M459.4,408.8c0,0-1.4,21.7-1.4,22.6s1.9,0,4.5,0s14.9-0.5,15.7-0.5"/>
		<path class="st2" d="M459.7,425.9c0,0-0.5,2.5,0.1,2.6c0.5,0.1,0.5,0.1,3,0c2.5-0.1,12.7-0.3,13.4-0.3s1.3-0.4,1.3-0.4l0.7,3.9"/>
	</g>
</g>
</svg>
