<!--
	https://github.com/Duxxie/duxxie-images
	This work is licenced by https://creativecommons.org/licenses/by-sa/4.0/
-->
<svg version="1.1" id="bedbeugel-enkel-svg" xmlns="http://www.w3.org/2000/svg" x="0px" y="0px" width="1000px" height="1000px" viewBox="0 0 1000 1000" xml:space="preserve">
	<style>
    #bedbeugel-enkel-svg .st0{fill:none;stroke:currentColor;stroke-linecap:round;stroke-linejoin:round;stroke-miterlimit:10;}
  </style>
	<g>
		<path class="st0" d="M871.6,649.9c-28.4,37.6-79.6,93.4-79.6,93.4s-14,20-62,20s-631-107-631-107s-51-2.9-63-56 c-11.3-50.1-9-246-9-246s-3-53,35-69c0,0,131-64,136-67s26.9-18.3,42.5,0.9c11.3,13.8,8.5,20.1,9.5,36.1s9.6,196.5,9.6,196.5 s0.6,40.5,23.1,46.4c21.5,5.6,526.7,88.3,574.8,96.1c0,0,33.5,3.9,32.5,23.9c-0.1,2.6-1.9,7.4-5.9,13.8" />
		<path class="st0" d="M851.8,646.3c-26.7,30.4-71.8,80-71.8,80s-6,16-55,14s-626.1-107-626.1-107s-31.4-10.1-38.3-40.2 c-5.9-25.6-7.3-240.7-7.3-240.7S58,317.3,80,306.3l140-70c0,0,6.8-1.8,7.2,14.8c0.2,6,11.8,208.2,11.8,208.2s-1,38,27,54 c28,16,595,102,595,102s9.7,0.4,8.8,5.6c-0.3,1.5-2.1,5.6-5.9,10.1" />
		<path class="st0" d="M951.8,654.3c-1.8,0.5-18.9-6.5-22-8.8c-3.2-2.3-23.9-14.1-32.1-13.1c-8.2,0.9-15-0.6-19.5-0.6 c-4.6,0-35-1.3-45.2,0c-6.5,0.8-38.8-3.2-38.8-3.2s-7.1,5.1-7.8,6.9c-0.3,0.9-2.9,2.1,1.5,2.9c5.4,1,18.6,3,23.1,3 c4.6,0,37-0.5,41.6-0.5s33.4,0.5,39.3,0.5s13.3,5,26,10.1c12.8,5,28,11.8,30.3,11.8" />
		<path class="st0" d="M963.1 709.1c0 0-3.2 8.7-6.9 5.5s-5.9-18.7-5.9-24.2-3.2-29.7-1.4-31.5 5.7-9 9.1-9.1c3.5-.1 5.8 2.9 5.4 11.5s1.7 31.9 1.7 31.9M947.7 671.3c0 0-23.4-.2-36.7-5.7s-32-13.7-38.4-15.5-25.6-5.2-32-5.5c-6.2-.3-22.3 3.5-26.6 6.8-4 3-6.7 6.8-7 15-.3 10.1 6.7 18.1 9.4 19" />
		<path class="st0" d="M823.3 678.4c-1.8-.9-7.9-4.9-8.4-11.3-.3-4.3-3.4-13.6 14.9-21.3M809.6 692.6c0 0-5.9-4.1-12.3-5.5-6.4-1.4-11 2.3-17.4 2.3s-47.1-6.9-53.9-7.8c-6.9-.9-51.2-8.7-53-8.2s.9-3.4 2.3-6.4c2.2-4.6 2.1-6.3 9.4-5.8s44.5 10.4 54.1 12.2 19.6 3.7 27 3.2 15.1 2.7 22.4 2.7 9.6-3.2 15.1-1.4 8.7 3.7 8.7 3.7M959 706.8c0 0 14.6 4.1 17.4 3.2 2.7-.9 5.6-10.6 5.6-13.3s-4.3-2.9-8.9-3.8c-4.6-.9-10.3 2.2-10.3 2.2L959 706.8zM951.8 705.1c0 0-26.6 2.3-36.2.5-9.6-1.8-23.8-4.3-31.6-4.7s-46-4.7-50.1-4.7M842.7 686c1.8 0 13.1.6 21.8.2s16 .5 27 4.1c11 3.7 8.7 3.2 21.9 4.1s34.7 1.8 37 0M929 656.6c0 0-12.1-.1-17.1-2.3-5-2.3-22.5-11.5-26.1-12.6M826.4 641.5L814 651.4" />
	</g>
</svg>
