<!--
  https://github.com/Duxxie/duxxie-creative-commons
  This work is licenced by https://creativecommons.org/licenses/by-sa/4.0/
-->
<svg version="1.1" id="bedbeugel-svg" xmlns="http://www.w3.org/2000/svg" x="0px" y="0px" width="1000px" height="1000px" viewBox="0 0 1000 1000" xml:space="preserve">
  <style>
    #bedbeugel-svg .st0{fill:none;stroke:currentColor;stroke-linecap:round;stroke-linejoin:round;stroke-miterlimit:10;}
  </style>
  <path class="st0" d="M369.2,586.4L692,416.4c0,0,20.6-21.2,19.8-41c-0.5-13.4,6.7-122.3,6.7-122.3s7.2-39.7,36.3-45.7  c15.4-3.2,12.7-63.4,12.7-63.4s0-70.6,63.8-62.9c55.1,6.6,87.2,13.9,87.2,13.9s37.1,7.2,39.4,59c1.9,42.1-3,76.2-3,76.2  s41.3,22.7,39.9,55c-1.3,32.2-5,169.9-44.4,204.3c-45.8,40-418.8,341.4-418.8,341.4c-2.7,6.7-69.9,60.5-82,69.9  s-42.3,23.7-68.5,13.4c-14.6-5.7-30.9-25.5-30.9-51.1c0-25.5,0-72.6,0-80.6s-10.6-16.8-14.8-18.8c-1.7-0.8-66.3-31.1-132.9-63.5  c-11.5-5.6-23.2-11.3-34.5-16.8C108,654.1,54.8,628,54.8,628s8.1,57.8,8.1,64.5s0,15.5,10.7,23.6c10.7,8.1,9.5,8.7,24.3,4.6  s74.4-33.2,74.4-33.2" />
  <path class="st0" d="M205.3,703.3c0,0-68.6,36-79.3,41.7c-4.3,2.3-25.8,10.5-48.4,8.1c-27.2-3-50.4-30.3-54.4-65.3  c-4-34.9-19.5-152.4-18.1-172.6S11.8,457.4,40,448c0,0,5.1-8.1,5.4-14.8c0.3-6-3.5-76.8-3.1-106.1c0.3-20.6,19.2-78,52.8-80.7  s121.5,21.5,137.7,26.9c16.1,5.4,39.7,16.1,62.6,52.4s26.9,75.2,28.2,96.7c1.3,21.5,0,112.9,0,112.9s51.1,43,60.5,90  c9.4,47,10.7,107.5,10.7,135.7c0,28.2-1.3,90-1.3,95.4c0,5.4-2.7,29.6,16.1,24.2c18.8-5.4,108.8-84.7,108.8-84.7l421-329.6  c0,0,11.9-31.2,17-65.5c2-13.3,4.2-35.7,4.2-35.7l-227.3-44.9l-1.3,57.8c0,0,5.6,37.1-33.6,57.8C675,448.2,380.3,610.1,380.3,610.1" />
  <path class="st0" d="M226.8 693.9l-173.3-82c0 0-2.7-30.9-6.7-51.1s-1.3-59.1 4-68.5c5.4-9.4 25.5-2.7 25.5-2.7s194.8 76.6 215 83.3c0 0 22.4 11.9 36.3 32.2 0 0 12.7 24.5 16.2 45.3 3.7 22.1 5.3 97.7 5.3 97.7L226.8 693.9M272.5 516.5c-14.8-1.3-176-64.5-176-64.5s-9.4-2.7-10.7-25.5c-1.3-22.8-4-91.2-4-91.2s1.3-31 8-36.4c6.7-5.4 11.1-12.8 30.2-9.9 12 1.8 90.8 24.7 90.8 24.7s38.9 1.8 55.7 37.8c15.6 33.6 11.7 21.5 10.2 83.1C275 493.6 272.5 516.5 272.5 516.5zM783.1 199.4l4-57.8c0 0 5.4-40.3 44.3-34.9 39 5.4 58.3 9.2 58.3 9.2s42.4 1.5 41.1 34.7c-1 26.9-4 73-4 73L783.1 199.4zM734.7 308.2c-1.3-5.4 4-55.1 4-55.1s6.7-28.2 34.9-26.9c28.2 1.3 146.5 21.5 155.9 24.2s39 14.8 39 37.6-6 60.3-6 60.3L734.7 308.2zM326.2 604.5c-.2.7-135.2 70.5-135.2 70.5M338 632.7L226.6 692.3" />
</svg>
