<!--
  https://github.com/Duxxie/duxxie-creative-commons
  This work is licenced by https://creativecommons.org/licenses/by-sa/4.0/
-->
<svg version="1.1" id="bedleestafel-svg" xmlns="http://www.w3.org/2000/svg" x="0px" y="0px" width="1000px" height="1000px" viewBox="0 0 1000 1000" xml:space="preserve">
  <style>
    #bedleestafel-svg .st0{fill:none;stroke:currentColor;stroke-linecap:round;stroke-linejoin:round;stroke-miterlimit:10;}
  </style>
  <path class="st0" d="M401.1,429.6c0-1.9,0.5-3.8,1.3-5.5c2.4-4.3,3.6-7,5.5-7.4c0,0,4.3-0.3,6,0.3c1.7,0.6,7.8,5.9,7.4,14.7  c-0.3,8.9-3.8,11.9-6.3,13c-2.4,1.3-7,0.8-7.8-0.3c-0.6-0.8-3.6-5.1-4.9-7.1"/>
  <path class="st0" d="M407.4 444.3c0 0 7-.6 7.9-11.5.9-10.9-3-13-7.4-16.1M261.1 363c0-1.9.5-3.8 1.3-5.5 2.4-4.3 3.6-7 5.5-7.4 0 0 4.3-.3 6 .3 1.7.6 7.8 5.9 7.4 14.7-.3 8.9-3.8 11.9-6.3 13-2.4 1.3-7 .8-7.8-.3-.6-.8-3.6-5.1-4.9-7.1"/>
  <path class="st0" d="M267.6 377.8c0 0 7-.6 7.9-11.5.9-10.9-3-13-7.4-16.1M239.4 132.7c-4.9-4.9-40.2-40.2-40.2-40.2s-4-14.7 0-17.7 9.8-3 9.8-3 .9-9.8 5.9-10.8c4.9-.9 423-56 423-56s6.8 5.9 7.9 10.8l202.9 152.2c0 0 7.1-1.7 10.9 2.2 4 4 1.9 7.6 1.9 11.5s6.8 8.9 1.9 14.7c-4.9 5.9-465.2 82.4-465.2 82.4s-13.8 4.9-22.6-3C366.8 267.9 239.4 132.7 239.4 132.7z"/>
  <path class="st0" d="M861.6 183c-6.8 1.9-456.8 78.5-467.1 81.8-5.9 1.9-13.8-3.6-16.1-6.6-9.6-12.8-173.7-181.4-173.7-181.4s.5-3.5 3-5.2M373.9 274.9c0 0-9.8 13.8-11.7 30.4-1.9 16.6 3 84.5 3 84.5l-4 6.8 11.1 372.8 1.7 57.9c0 0-4.6 2.5-4.6 8.5 0 5.9-.3 45.1-.3 45.1l2.4 10.9c0 0-28.9 11.4-36.7 13-5.9 1.3-34.3 5.9-51.1-.9-16.8-6.8-91.3-74.7-91.3-74.7s-11.7-7.9.9-14.7c10.9-5.9 33.1-10.3 39.5-11.4.8-.2 1.6-.2 2.4.2.9.3 3.6 2.1 10.3 1.4 11.5-1.1 17.1-.6 21.4-6.2 3-3.8 4.1-6.6 4.1-6.6l99.7-22.5"/>
  <path class="st0" d="M405.7,435.7c-0.9,0.9-8.2,3.3-9.3,5.1c-1.1,1.7-0.6,7.1-0.8,8.7c-0.8,9.3,7.8,379.9,7.8,379.9s7.9,1.9,7.9,6.8  s-0.6,43,1.3,43.2c7.1,0.3,368.7-100,368.7-100s16.6,6.8,10.8,25.5L409.2,911.8c0,0,0.9,4.9-8.9,8.9c-9.8,4-11.9,4.4-17.7,3.3  c-5.9-0.9-9.6-6.3-13.6-2.4s-48.1,12.8-48.1,12.8s-30.4,4.9-53-4.9c-22.6-9.8-102-87.3-102-87.3s-16.1-23.1,0.6-38.8  c16.8-15.7,61.2-22.1,61.2-22.1l-0.9-57.1l3.2-7.9l-6.2-389.4l4-6.8l-4.4-161.5c0,0,1.7-16,13.3-26.3"/>
  <path class="st0" d="M405.2 429.2c-.9 0-8.7.6-10-1.1s-.8-14.6-.8-14.6l1.6-1.9-.5-16-1.9-7.9c0 0-1.1-66.6-.6-83.4.3-19.6 11.5-25.5 11.5-25.5M265.2 362.6c-.9 0-8.7.6-10-1.1-1.3-1.7-1.1-33.7-1.1-33.7l-4.9-6.8-3-162c0 0-1.1-8.4 6.6-10.3M265.9 369.1c-.9.9-7.4 2.4-9.3 5.1-1.3 1.7-3.2 3.3-3.3 6.8l6.5 337.1 4.7 8.5 1.1 41.9 105-26.6M402.4 733.1l212-50c0 0 6-.6 9.2 10.9 2.4 8.5-.8 14.1-.8 14.1l-219.4 53.5M772.3 860l-9.8-1.1c0 0 5.5-11.1-5.5-16-10.9-4.9-19.8-1.3-22.3 3.5-3.3 6.3-5.5 9.8-13.8 9M331.7 981.1l9.8-4.1c0 0 1.3-21.7 9.8-24.2 8.5-2.5 20.9-2.5 23.4 2.8 2.5 5.4 2.8 9.2 4.3 8.7 1.3-.3 7-1.4 7-1.4M555.3 757.1l9.6-3.2c0 0 1.3-21.7 9.8-24.2 8.5-2.5 20.9-2.5 23.4 2.8s2.8 9 4.3 8.7c1.4-.2 7.3-.3 7.3-.3M224.6 348.1c0 0 18.5 4 30.4-1.3M224.3 325c5.1 2.5 14.6 5.1 27.2 0M361.9 413.4c0 0 22 7.1 33.2-.6M228.7 717.4c0 0 20.7 4.9 32.4-.3M371.5 829c0 0 22 5.1 33.2-.8M364.9 389.8c5.1 2.5 16.1 5.1 28.8 0"/>
  <path class="st0" d="M592.5 715.9c0 1.7 3.8 7.8 6.5 9.6 3 2.1 6.3 3 10 12.8 1.9 4.9-.3.5.2 5.1 2.2 22.8-17.7 31.5-37.8 28.2-6.8-1.1-12.5-7.9-16-14.1-.5-.8-2.5 1.4-3.2-.2-2.7-6.6-1.3-14.9 2.7-21.4 8.2-13.9 15.3-14.9 15.3-14.9M765.5 812.7c-.5 4.3.8 18.2.8 18.2s7.8.6 12.2 13c3.3 9.5.5 16.5.5 16.5l-6-.3c0 0-1.3 18.5-17.4 21.5-13.4 2.5-36.9 1.1-35.3-25.9 0-.9-4.1 0-3.2-1.4 0 0 4.9-21.7 15.5-26.7 4.7-2.4 4.7-2.7 4.7-2.7v-4.1M375.2 921.3l1.3 24.2c0 0 8.7 6.8 11.2 16.6.2.5-2.5.5-2.4 1.1 3.6 13-1.6 19.6-12.2 26.1-27.4 16.5-41.6-8.2-41.6-8.2l-5.4.5c0 0-6.6-39.5 14.1-46 0 0 7.4-3.5 9.8-3.5s-.3-4.3-.3-4.3M389.4 264.1c0 0-1.6-17.9 10.6-20.6 12.2-2.7 450.8-75.6 450.8-75.6M645.8 15.8L645.6 23.5 208.9 76.2 209.1 71.8M203.7 839.1l4.1-1.7c0 0-1.6-15 7.4-18.3 6.3-2.4 15.8-1.9 17.7 2.2 1.9 4.1 2.1 7 3.2 6.6.9-.3 5.2-1.1 5.2-1.1M195.3 832.6c-.2-6.3.5-14.9 4.1-20.7"/>
  <path class="st0" d="M233.9,803.2l0.6,10.4c0,0,6.6,5.1,8.5,12.5c0.2,0.3-1.9,0.3-1.9,0.8c2.8,9.8-1.3,14.9-9.3,19.8 c-5.9,3.5-10.9,4.6-15.2,4.3"/>
</svg>
