<?xml version="1.0" encoding="utf-8" ?>
<!--
	https://github.com/Duxxie/duxxie-images
	This work is licenced by https://creativecommons.org/licenses/by-sa/4.0/
-->
<svg version="1.1" id="bedpapegaai-svg" xmlns="http://www.w3.org/2000/svg" xmlns:xlink="http://www.w3.org/1999/xlink" x="0px" y="0px" width="1000px" height="1000px" viewBox="0 0 1000 1000" style="enable-background:new 0 0 1000 1000;" xml:space="preserve">
	<style type="text/css">
	#bedpapegaai-svg .st0{fill:none;stroke:currentColor;stroke-miterlimit:10;}
</style>
	<path class="st0" d="M385.9,55.3c57.3,19.1,337.3,110,338.3,110l14.2,604.5l-352.1,72.5l-47.9-59.5l-25.9,3.9l116.5,178.6l2.6,29.8
	l25.9-6.5l-3.9-32.4l-49.2-86.7l359.8-68.6l85.4,58.2l3.9,38.8c0,0,22-7.7,22-7.8c0-0.1-2.6-44-2.6-44l-110-80.2L754,140.7
	l-24.6-5.2c-24.1-1.9-287.8-99.7-338.8-107" />
	<path class="st0" d="M356.3,48.9c1.1,9.2,8.5,8,11,2.1s-0.4-30.4-4.2-32.5s-5.5,1.1-5.5,1.1" />
	<path class="st0" d="M363.2,18.5l24.1,5.1c0,0,13.9,12.9-1.3,30.5c0,0-3,2.4-3,10.9s0,196.9,0,196.9s4.6-0.4,7.6,0.4
	s7.2,7.6,6.8,16.5s-1.3,20.7-1.3,20.7s31.8,30.8,49.2,64.8c0,0,15,20.6,11.4,33.5c-2.7,9.6-6.9,15.3-21.3,15.3s-93.6,2.8-115.1,4
	s-27.1-2.3-31.5-12.6c-4.8-11.1,9-31.1,11.5-34.9s35.9-55.3,54.1-71.8c0,0-3.2-27.6,1.7-32.9c4.3-4.7,8.2-2.6,8-3.8V61.6
	c0,0-0.5-3.5-2.8-5.3" />
	<path class="st0" d="M390.5,304.9c0,0-15.1,10.5-29.4-0.1l-2.5,3.2c0,0,18.1,11.6,32.9,0.2L390.5,304.9z" />
	<path class="st0" d="M349.3,317.4c-1.4-0.8-15.4,20.3-43.7,62.4c0,0-11.9,23.4,5.4,23.4c17.3,0,128.6-4.3,128.6-4.3s11.3-3-1-24.6
	c-12.2-21.5-36.7-55.4-38.6-56.1C396.9,317.4,383.2,336.2,349.3,317.4z" />
	<path class="st0" d="M362.5,20.6L313.8,5.5c0,0,8.1,22.6-5.7,31.8c-1.4,1,57.9,14.3,57.9,14.3" />
	<path class="st0" d="M306.8,37.3c-1.9,0-8.6-26.4,7.3-32.3" />
	<polyline class="st0" points="325.6,815.1 315.3,816.4 311.4,787.9 " />
	<polyline class="st0" points="738.5,747.8 701,719.3 675.1,723.2 735.9,771.1 " />
	<polyline class="st0" points="673.8,724.5 677.7,753 694.5,750.4 695.8,740 " />
</svg>
