<!--
	https://github.com/Duxxie/duxxie-images
	This work is licenced by https://creativecommons.org/licenses/by-sa/4.0/
-->
<svg version="1.1" id="bedverhoger-svg" xmlns="http://www.w3.org/2000/svg" x="0px" y="0px" viewBox="0 0 1000 1000" xml:space="preserve">
  <style>
    #bedverhoger-svg .st0{fill:none;stroke:currentColor;stroke-linecap:round;stroke-linejoin:round;stroke-miterlimit:10;}
  </style>
  <path class="st0" d="M587.3,73.7c0,0,41.9-7.4,42.6-10.8c3.4-13.5,0.7-31.8,2.7-39.2c2.7-7.4,48.4-9.5,48.4-9.5l38.5,4.7l144.9,720 c0,0,19.6,9.5,26.4,21.6c7.4,12.2,7.4,12.2,7.4,12.2l19.6,14.9L565,987.9c0,0-50.5,12.2-65.3,4.7c-14.9-7.4-430-164.5-430-164.5 s-19.6-24.3-7.4-31.8c12.2-7.4,12.2-7.4,12.2-7.4s9.5-21.6,33.8-26.4c24.3-4.7,125.5-734.8,125.5-734.8s53.2-14.9,62.6-12.2 c9.5,2.7,29.1,4.7,29.1,4.7l8.1,48.4c26.4-1.4,64-8.8,64-8.8c2.7-9.5,7.4-39.9,9.5-45.3c2.7-6.1,57.2-8.1,67.4-9.5 c16.9-2,89,10.8,89,10.8s3.4,8.1,3.4,16.9"/>
  <path class="st0" d="M719.3 20.3l-53.2 10.1c0 0-2.7 26.4-4.1 39.2-1.4 14.9 2.7 14.2-1.4 15.5-24.3 9.5-62 18.9-63.3 15.5-3.4-8.1-25-67.4-25-67.4l-67.4 9.5L417.5 32c0 0-21 62.6-21 74.8 0 0-8.1 2-18.9 0-14.2-2-58.6-3.4-58.6-12.8s-7.4-46.4-8.8-54.5c-1.4-7.4-72.8-10.8-72.8-10.8M316.3 150.5c0 0-2.7 567-36.5 620.9S199 781.5 199 781.5c-23.7-18.2-15.5-62.6-15.5-91s78.2-522.4 78.2-553.5L316.3 150.5zM463.2 178.2c0 0 1.4 588.6-9.5 616.8-10.8 28.2-39.2 64.7-80.9 57.2-41.9-8.1-47.1-68-46.4-91 .7-18.9 74.8-596.1 74.8-596.1L463.2 178.2zM721.4 105.9c0 0 82.9 579.9 82.9 597.9 0 18.2 0 78.2-36.5 82.9-36.5 5.4-51.8-64.7-57.2-99.1-5.4-33.8-33.1-555.5-33.1-555.5L721.4 105.9z"/>
  <path class="st0" d="M76.9,787.6C92.4,803.1,492.7,954.1,511,956.8c18.2,2.7,379.6-189.5,379.6-189.5"/>
  <path class="st0" d="M556.9,172.1l68-24.3c0,0,59.9,590,59.9,608s2.7,85.6-46.4,88.3s-52.5-64.7-54.5-80.9 C581.2,743.2,556.9,208.4,556.9,172.1"/>
</svg>
