<!--
	https://github.com/Duxxie/duxxie-images
	This work is licenced by https://creativecommons.org/licenses/by-sa/4.0/
-->
<svg version="1.1" id="bedverlenger-svg" xmlns="http://www.w3.org/2000/svg" x="0px" y="0px" width="1000px" height="1000px" viewBox="0 0 1000 1000" xml:space="preserve">
  <style>
    #bedverlenger-svg .st1{fill:none;stroke:currentColor;stroke-linecap:round;stroke-linejoin:round;stroke-miterlimit:10;}
  </style>
  <g>
    <path class="st1" d="M958.4 295.7L966.3 284 992.4 283.1 995 515.4 968 515.4 956.2 506.9 955.3 437.7M955.8 325c1 9.2.2 90.8.2 90.8"/>
    <path class="st1" d="M989.1 517.2L991.7 677.7 970.5 681 959.5 668.3 960.4 511.2M973.1 517.2L970.5 681M36.3 294.2L963 296.5 962.5 324.4 36.3 321.9zM110.3 396.2c0 0 .7 3.7-.4 3.7-1.1 0-52.6 0-52.6 0s-4.4-2.2-4.1-4.8c.4-2.6.7-57.8.7-57.8s-.7-6.7 1.8-7c2.6-.4 54.4-1.1 54.4-1.1v7M110.3 505.6c0 0 .7 3.7-.4 3.7-1.1 0-52.6 0-52.6 0s-4.4-2.2-4.1-4.8.7-57.8.7-57.8-.7-6.7 1.8-7c2.6-.4 54.4-1.1 54.4-1.1v7M896.7 399.5c0 0 .6 7 1.6 7s49.5 0 49.5 0 4.2-2.2 3.8-4.7c-.4-2.6-.7-56.8-.7-56.8s.7-6.5-1.7-6.9c-2.5-.4-51.2-1.1-51.2-1.1l.1 3.4M898.9 509.3c0 0-.7 3.7.4 3.7s48.7 0 48.7 0 3.6.2 3.7-4.8c.1-2.6-.7-57.8-.7-57.8s.7-6.7-1.7-7c-2.5-.4-50.4-1.1-50.4-1.1l-.2 8.4"/>
    <path class="st1" d="M49.6,293.3c0,0-6.7-9.2-9.2-10.6c-2.6-1.4-3.8-2.8-3.8-2.8L5,280.4l0.9,241.1h22.9c0,0,3.4,1.4,5.7,0.5 c2.2-0.9,14.3-6.9,14.3-6.9V429"/>
    <path class="st1" d="M47 405.3v-73.5c0 0 1.7-1.7 3.1-3.1 1.4-1.4 6-4.9 5.2-6.3M30.1 280.3L28.9 521.3M966.5 285.1L968.3 515.1M44 518.8l.5 167-12.1 9.5c0 0-.9 0-2.1.1-5.9.1-22 .5-22-1 0-1.7 1.4-171 1.4-171M32.3 524.8L32.3 695.3"/>
    <path class="st1" d="M63 438.8l-.2-8.3c0 0 0 0-1.5-1.5-1.5-1.5-26.7-.9-26.7-.9s-.9-18.5 0-20.7c.6-1.5 28-.6 28-.6s2.1 0 2.1-.9c0-.9 0-4.6 0-4.6M90.7 400.5c0 0-.9 37.9 0 37.9M943.6 443.6l-.5-5.3c0 0 0 0 1.5-1.5 1.5-1.5 18-.4 18-.4s.6-17.5-.2-19.7c-.6-1.5-19.2-1.1-19.2-1.1s-2.1 0-2.1-.9.2-7.3.2-7.3M917 406.5c0 0 2 36.7 1.1 36.7M105.6 336.4c0 0 793.9 0 794.6 4.6.7 4.6 1.5 57.3 1.5 57.3l-796.2-3v-58.9H105.6zM105.6 447.3c0 0 796.7-.5 797.5 4.1.7 4.6 1.5 57.3 1.5 57.3l-798.9-2.6L105.6 447.3 105.6 447.3z"/>
  </g>
</svg>
