<?xml version="1.0" encoding="utf-8" ?>
<!--
	https://github.com/Duxxie/duxxie-images
	This work is licenced by https://creativecommons.org/licenses/by-sa/4.0/
-->
<svg version="1.1" id="bedverlenger-svg" xmlns="http://www.w3.org/2000/svg" xmlns:xlink="http://www.w3.org/1999/xlink" x="0px" y="0px" width="1000px" height="1000px" viewBox="0 0 1000 1000" style="enable-background:new 0 0 1000 1000;" xml:space="preserve">
	<style type="text/css">
	#bedverlenger-svg .st1{fill:none;stroke:currentColor;stroke-linecap:round;stroke-linejoin:round;stroke-miterlimit:10;}
</style>
	<g id="Laag_5">
		<polyline class="st1" points="958.4,295.7 966.3,284 992.4,283.1 995,515.4 968,515.4 956.2,506.9 955.3,437.7 	" />
		<path class="st1" d="M955.8,325c1,9.2,0.2,90.8,0.2,90.8" />
		<polyline class="st1" points="989.1,517.2 991.7,677.7 970.5,681 959.5,668.3 960.4,511.2 	" />
		<line class="st1" x1="973.1" y1="517.2" x2="970.5" y2="681" />
		<polygon class="st1" points="36.3,294.2 963,296.5 962.5,324.4 36.3,321.9 	" />
		<path class="st1" d="M110.3,396.2c0,0,0.7,3.7-0.4,3.7c-1.1,0-52.6,0-52.6,0s-4.4-2.2-4.1-4.8c0.4-2.6,0.7-57.8,0.7-57.8
		s-0.7-6.7,1.8-7c2.6-0.4,54.4-1.1,54.4-1.1v7" />
		<path class="st1" d="M110.3,505.6c0,0,0.7,3.7-0.4,3.7c-1.1,0-52.6,0-52.6,0s-4.4-2.2-4.1-4.8s0.7-57.8,0.7-57.8s-0.7-6.7,1.8-7
		c2.6-0.4,54.4-1.1,54.4-1.1v7" />
		<path class="st1" d="M896.7,399.5c0,0,0.6,7,1.6,7s49.5,0,49.5,0s4.2-2.2,3.8-4.7c-0.4-2.6-0.7-56.8-0.7-56.8s0.7-6.5-1.7-6.9
		c-2.5-0.4-51.2-1.1-51.2-1.1l0.1,3.4" />
		<path class="st1" d="M898.9,509.3c0,0-0.7,3.7,0.4,3.7s48.7,0,48.7,0s3.6,0.2,3.7-4.8c0.1-2.6-0.7-57.8-0.7-57.8s0.7-6.7-1.7-7
		c-2.5-0.4-50.4-1.1-50.4-1.1l-0.2,8.4" />
		<path class="st1" d="M49.6,293.3c0,0-6.7-9.2-9.2-10.6c-2.6-1.4-3.8-2.8-3.8-2.8L5,280.4l0.9,241.1h22.9c0,0,3.4,1.4,5.7,0.5
		c2.2-0.9,14.3-6.9,14.3-6.9V429" />
		<path class="st1" d="M47,405.3v-73.5c0,0,1.7-1.7,3.1-3.1c1.4-1.4,6-4.9,5.2-6.3" />
		<line class="st1" x1="30.1" y1="280.3" x2="28.9" y2="521.3" />
		<line class="st1" x1="966.5" y1="285.1" x2="968.3" y2="515.1" />
		<path class="st1" d="M44,518.8l0.5,167l-12.1,9.5c0,0-0.9,0-2.1,0.1c-5.9,0.1-22,0.5-22-1c0-1.7,1.4-171,1.4-171" />
		<line class="st1" x1="32.3" y1="524.8" x2="32.3" y2="695.3" />
		<path class="st1" d="M63,438.8l-0.2-8.3c0,0,0,0-1.5-1.5c-1.5-1.5-26.7-0.9-26.7-0.9s-0.9-18.5,0-20.7c0.6-1.5,28-0.6,28-0.6
		s2.1,0,2.1-0.9c0-0.9,0-4.6,0-4.6" />
		<path class="st1" d="M90.7,400.5c0,0-0.9,37.9,0,37.9" />
		<path class="st1" d="M943.6,443.6l-0.5-5.3c0,0,0,0,1.5-1.5c1.5-1.5,18-0.4,18-0.4s0.6-17.5-0.2-19.7c-0.6-1.5-19.2-1.1-19.2-1.1
		s-2.1,0-2.1-0.9s0.2-7.3,0.2-7.3" />
		<path class="st1" d="M917,406.5c0,0,2,36.7,1.1,36.7" />
		<path class="st1" d="M105.6,336.4c0,0,793.9,0,794.6,4.6c0.7,4.6,1.5,57.3,1.5,57.3l-796.2-3v-58.9H105.6z" />
		<path class="st1" d="M105.6,447.3c0,0,796.7-0.5,797.5,4.1c0.7,4.6,1.5,57.3,1.5,57.3l-798.9-2.6L105.6,447.3L105.6,447.3z" />
	</g>
</svg>
