<?xml version="1.0" encoding="utf-8" ?>
<!--
	https://github.com/Duxxie/duxxie-images
	This work is licenced by https://creativecommons.org/licenses/by-sa/4.0/
-->
<svg version="1.1" id="beenlade-amputatie-voor-rolstoel-rechts-svg" xmlns="http://www.w3.org/2000/svg" xmlns:xlink="http://www.w3.org/1999/xlink" x="0px" y="0px" width="1000px" height="1000px" viewBox="0 0 1000 1000" style="enable-background:new 0 0 1000 1000;" xml:space="preserve">
	<style type="text/css">
	#beenlade-amputatie-voor-rolstoel-rechts-svg .st0{fill:none;stroke:none;}
	#beenlade-amputatie-voor-rolstoel-rechts-svg .st1{fill:none;stroke:currentColor;stroke-linecap:round;stroke-linejoin:round;stroke-miterlimit:10;}
</style>
	<g id="Laag_2">
		<g>
			<line class="st0" x1="168.5" y1="336.2" x2="166.4" y2="382.1" />
			<path class="st1" d="M629.2,354.5c0,0,8.3,27.6-0.6,46" />
			<path class="st1" d="M374.9,343l254.3,11.2c0,0,25.3,26.4-0.6,46.6l-111.5-2.1c0,0-6.4,1.1-6.4,7.5s-1.1,19.3-1.1,19.3l133.3,2.1
			c0,0,18.3,21.5,1.1,45.1L517,471" />
			<path class="st1" d="M210.3,336.2l-42.7,1.1c-22.3,11.6-9.6,44.2-2,45.3l28.5,0.7" />
			<path class="st1" d="M472.1,414.2c0,0,5.3-15.4-0.1-17.6c-5.4-2.1-78.3-6.7-78.3-6.7" />
			<path class="st1" d="M691.7,513.9c-17.2,0-70.3-0.2-70.3-0.2l-41.9,146.2c0,0,2.1,6.4,7.5,8.6c5.4,2.1,134.2,18.4,134.2,18.4" />
			<path class="st1" d="M728.1,723.5L563.3,705l-2.1,12.9c0,0-9.7,10.7-20.4,10.7s-18.3-18.3-18.3-18.3l31.2-108.5" />
			<path class="st1" d="M535.8,727.3c2.1,6.4,55.5,94.9,55.5,94.9s29-4.3,33.3-8.6s4.3-4.3,4.3-4.3l-51.3-102.5" />
			<polyline class="st1" points="525.3,702.2 510.7,673.9 526.5,602.3 		" />
			<path class="st1" d="M545.5,629.4c0,0-16.6,2.6-20.9-14.6" />
			<path class="st1" d="M579.7,661.1c16.7-6.6,77-12.5,105.9,20.9" />
			<path class="st1" d="M697.1,721.4c0,3.2-8.7,51.8-71.1,81.9" />
			<path class="st1" d="M516.6,686.2c0,0-54.3,38.2-59.7,69.4c-5.4,31.2,3.2,46.2,38.7,64.5s93.1-1.8,93.1-1.8" />
			<path class="st1" d="M589.8,729.4c6.4-1.1,55.2-15.7,57.4,9c2.1,24.7-28.4,42.9-31.6,45" />
			<path class="st1" d="M546.2,746.8c0,0-32.8,19.2-24.8,38.8c5.5,13.6,28,21.4,54.8,12.4" />
			<path class="st1" d="M526.3,490.1c0,0,24.4,1.2,27.9,12.5c2.6,8.3,5.9,20-17.8,27.5" />
			<path class="st1" d="M572.4,592.5c1.3-2.2-2.8,9.1-2.8,9.1l-48,0.8" />
			<path class="st1" d="M566.5,589.3c-4.2,0-23,1-23,1s0-5.2,0-6.6c0-1.4-4.2-6.6-4.2-6.6" />
			<polyline class="st1" points="527.9,593.4 533.4,592.8 534,585.1 531.6,581.3 		" />
			<line class="st1" x1="557.4" y1="574.7" x2="533" y2="575.7" />
			<line class="st1" x1="558" y1="532.3" x2="536.9" y2="532.3" />
			<path class="st1" d="M167.6,337.2c0,0-3.9,29.1-1.5,45.2" />
			<line class="st1" x1="647.3" y1="467.3" x2="684.6" y2="468.1" />
			<line class="st1" x1="587" y1="474" x2="569.6" y2="540.6" />
			<path class="st1" d="M212.4,382.2l-1.8-44.4c0,0-2.1-7.6,5.6-12.7c4.8-3.2,158,3.8,158,3.8s2.1,10.7,1.1,14
			c-1.1,3.2,4.5,23,0.3,43.2" />
			<path class="st1" d="M350.3,385.7c0,0,2.3-20.7,2.4-28.9c0.3-23.1-14.4-14-14.4-14l-6.1,9.6l-27.4-1.5c0,0-1.2-11.6-7.6-12.7
			s-10,1.9-13.7,11.1c-1,2.5-27.9,0.5-27.9,0.5s-3.6-12.2-11.1-11.1s-13.5,19.5-8.2,42" />
			<path class="st1" d="M45.8,484.6c0,0-6.9,64.6,15.7,91.4s43,34.4,82.8,36.5s281.6,7.5,289.1,7.5s70.8-8.5,87.1-34.4
			c11.5-18.3,19.3-50.5,14-72" />
			<path class="st1" d="M576.2,517.9c0,0-14.4,2.9-17.4,11.2c-2.3,6.4,6,19.4,2.1,41.1c-1.1,6.1-7.1,8.5-7.1,8.5s1.9,8.4,18.2,11.3
			c16.3,2.8,26.8,0.1,28.2-3.5" />
			<path class="st1" d="M607.6,560.4c0,0-15.1,2.7-22.5-0.1c-13.7-5.1-18.1-21.8-17.7-26.2c0.5-6.1,3.1-8.2,5.9-8.9" />
			<path class="st1" d="M46.2,484c0,0,18.1-45.9,61.3-76.7c14.8-10.5,57.1-26.5,124-25.1s140.8,2.8,165.8,8.4s58.5,1.4,89.2,39
			s53,73.9,50.2,114.3s-12.9,57.5-26.5,78c-12.9,19.4-27.9,47.4-64.1,47.4s-326.1-7-326.1-7s-37.6,0-64.1-55.7
			C29.5,550.9,42.1,495.2,46.2,484z" />
			<polyline class="st1" points="759.8,906.3 677.6,425.5 699.9,341.9 936.8,337.7 		" />
			<path class="st1" d="M939.6,134.2c-9.8,4.2-112.9,82.2-121.3,93.4c-8.4,11.1-40.4,108.7-40.4,108.7" />
			<path class="st1" d="M939.6,185.8c0,0-79.4,47.4-80.8,53" />
			<path class="st1" d="M939.6,234.6c0,0-90.6,2.8-99,8.4c-8.4,5.6-18.1,5.6-20.9,16.7c-2.8,11.1-26.5,79.4-26.5,79.4" />
			<path class="st1" d="M797,280c0,0-41.4-51-48.3-67.7c-7-16.7,15.3-34.8,29.3-27.9c13.9,7,32.1,53,32.1,53" />
			<path class="st1" d="M788,194.6c-3.5,9.7-7.6,22.9-35.4,23.6" />
		</g>
	</g>
</svg>
