<!--
  https://github.com/Duxxie/duxxie-creative-commons
  This work is licenced by https://creativecommons.org/licenses/by-sa/4.0/
-->
<svg version="1.1" id="beensteunen-svg" xmlns="http://www.w3.org/2000/svg" x="0px" y="0px" width="1000px" height="1000px" viewBox="0 0 1000 1000" xml:space="preserve">
  <style>
    #beensteunen-svg .st0{fill:none;stroke:currentColor;stroke-linecap:round;stroke-linejoin:round;stroke-miterlimit:10;}
    #beensteunen-svg .st1{fill:none;stroke:currentColor;stroke-miterlimit:10;}
  </style>
  <g>
    <path class="st0" d="M795.4 474c-5.6 120.5-11.2 240.3-13.2 241M846.9 310.1c2.6-50.5 4.4-85.1 4.4-86.3 0 0-30-14-42.9-3.6-1.1.9-6 106-11.3 218.3M840.6 438.2c1.9-35.7 3.3-68.7 4.9-99.6M825 727.5c0 0 6.1-116.6 12.5-237.5M130.3 428.6L109.8 658.3M170.7 405.2l15.5-202.8c0 0-21.2 4.6-34.6-4.8L133 400.1M152.6 660.8L168.9 435"/>
    <path class="st0" d="M204,406.2c0,0,19.7-228.8,18.3-235.9c-1.2-5.9-24.3-6.1-31.5-6.1s-21.5,0-27.4,2.4c-6,2.4-7,33.5-7,33.5"/>
    <path class="st0" d="M219.3 209.4l65.8.1c0 0 19.1 13.1 2.4 35.8 0 0-7.6-6-17.5-4.5-9.7 1.5-20.7 8.1-20.7 8.1l-31-1.2M885.1 440.4c-16.2 6.4-42.6-3.8-44.2-1.6-5.4 7.4-41 2.5-44.8-.7-.8-.6-17.8 0-17.8 0l-2.8 35.7h20.1c0 0 15.7 5.8 38.4 3.7 5.3-.5.4 11.4 2.6 12.3 5.4 2.1 44.5 3.7 45.4 0C882.4 487.9 885.6 444.7 885.1 440.4M883.7 397.2L881.6 441.1M881.4 267.4L882.5 336.4M816.8 216.6V188c0 0 4.8-10.7 10.7-10.7 6 0 52.4-1.2 52.4-1.2l.9 54.7M834.6 807.9c1.2 14.3 8.3 75.1 3.6 75.1-4.8 0-44.1 15.5-44.1 15.5s-14.3 1.2-22.6 0-128.7-1.2-128.7-1.2-29.8 0-53.6-3.6-132.3-23.8-132.3-23.8-7.2-6-7.2-10.7c0-4.8 3.6-26.2 3.6-26.2l138.3-34.6 141.9 21.5"/>
    <path class="st0" d="M452.7 833.5c0 0 190 31.6 197.1 31.6 7.2 0 82.3-42.9 96.6-48.9s22.6-2.4 22.6-2.4l26.2 9.5c0 0 22.5-3.3 27.2-3.3 0 0 19.9 19.4 8.5 45.8s-26.4 14.4-29.4-3.5 0-31.4 4-34.3c0 0 5-6.5 12.4-7M794.1 823L794.1 898.5M177 736.4c2.4 3.6 75.9 38.1 75.9 38.1s10.7-1.2 19.1-1.2 135.9 15.5 141.9 15.5 20.3-2.4 20.3 4.8 0 28.6 0 28.6 2.4 1.2-10.7 6-116.8 32.2-116.8 32.2-9.5 2.9-25 .5-143-18.4-143-18.4-9.5-4.8-19.1-9.5-19.1-13.8-26.2-14.3c-11.3-.8-14.8-.2-13.7-10.5 1.4-13.8 1.8-62.2 1.8-62.2s14.3-4.8 20.3-4.8 14.3 6 19.1 6c4.8 0 31.5-8.7 31.5-8.7"/>
    <path class="st0" d="M433.8 793.7c-7.5 4-111.8 28.5-123.7 30.9-11.9 2.4-15.7 1.4-34.6 0-19-1.5-149-15.5-149-15.5L103 740.4M252.9 774.5L126.7 808.6M784.2 811.1l-13.4 4c-2.4 6-4 82.6-4 82.6M938.2 270c0 0-8.3-7.1-17.8-3.6M781.5 704.9c0 0-50.1 2.3-62 1.1s-85.2 7.8-92.4 10.2-13.9-2-16.7.5c-3.8 3.5-15 .8-15 .8l.8 74.7c0 0 6.2 4.6 14.5 2.4 5-1.3 9.7-3 17.2-3.2 7.5-.3 86.2-8.3 142.9-7.5"/>
    <path class="st0" d="M825.3 711.9c0 0 18.4-.9 27.7.3 5.2.6 10.1 2.1 12.6 5.1 7.2 8.3 8.3 4.8 6 16.7-2.4 11.9-14.3 67.9-14.3 67.9s-2.4-4.8-9.5-2.4c-7.2 2.4-20.3 11.9-32.2 11.9s-40.5-3.6-42.9-7.2-3.6-1.2-2.4-3.6c1.2-2.4 7.2-89.4 7.2-89.4s12.1 12.3 22.7 14.2c11.5 2 29.6 4.1 35.7-1 1.5-1.3 17.1-10.4 28-8.4M288.4 300.9c0-9.3 38-45.1 96.2-39.2s86.4 31.2 93.5 50.2S444 574.1 444 574.1s-9.2 20.5-46.3 34.4c-38 14.3-93.8-2.4-110.5-16.6-16.6-14.3-41.6-39.2-40.4-46.3C248 538.5 288.4 304.5 288.4 300.9zM804.6 281c0 0-30.4-13.4-58.9-9.8s-78.4 16.6-91.5 39.2-23.8 254.2-23.8 254.2-3.2 12.3 19.3 36.4c13.9 14.9 62.2 58.7 137.4 29.4"/>
    <path class="st0" d="M317.6 274.1c40.3-16.4 126.1-.1 121.7 43.7-7.1 70.1-30.9 245.6-30.9 245.6s-69.4 76.7-157-7.9M802.7 311.6c0 0-51.4-56.4-152.4 9.2M789.7 600.6c0 0-44 49.2-121.7 16.9M284.1 244.2l-1.7 12.8-3.7 3.6-3.5 37.6c0 0-17.4 1.6-21.4 0s-4-1.6-4-1.6l1.6-36.4-2.9-10.9"/>
    <path class="st1" d="M275.3 370.2L255.5 371.8"/>
    <path class="st0" d="M168.5 438.3c0 2.4 20.5 52.3 20.5 52.3s7.9 8.7 10.3 4.8c2.4-4 2.6-11.2 2.6-11.2l-19.3-48.8M144.1 280.5c0 0-16.1 3-17.7 22.4-1.6 19.8 11.7 36.7 11.7 36.7M128.2 295L108.2 265.7M99.5 270.4L127.6 312.5M114.6 255.4l-25.3-53.1c0 0-10.3-7.9-21.4-5.5s-12.7 15.8-12.7 19.8S90 270.4 90 270.4 104.3 273.6 114.6 255.4zM156.1 617c0 0 8.9-1 14.4 7s8.6 14.3 7 21.4c-1.6 7.1-2.7 8.4-6.7 8.4s-17.7 2.6-17.7 2.6M862.1 368.6c0 0 16 1.1 24.2-7.6 3.8-4.1 3.4-8.4 3.4-8.4l-.6-5c0 0 15.3 2.3 20.5 13.1 3.9 8.2 2 19.1 2 19.1l-7.6 5.4c0 0-4 6.3-5.5 9.5C897 397.9 946.9 523 946.9 523s0 9.5-8.7 8.7-53.9-134.6-53.9-134.6l-8.9-2L862.1 368.6z"/>
    <path class="st0" d="M890.1 352.8c-4-17.4-25.5-38.8-35-42.7-9.5-4-12.5 4.4-15.6 11.6s4.4 16.6 4.4 16.6 6.4-1.3 11.2 6.6 12.2 21.6 16.1 23.2M899.8 398.3c0 0 10.6-3.5 13-3.5s10.3 3.2 13.5 9.5 6.3 20.6-1.6 24.5-13.5 4-13.5 4"/>
    <path class="st0" d="M918.6,432.7l36.6-0.9c0,0-1.2-39.4-3.6-38.6c-2.4,0.8-24.5,2.1-27.7,2.4c-3.5,0.2-6.9-0.1-6.9-0.1"/>
    <path class="st1" d="M203.7,405.3l43.3,2.3c0,0,9.1-2.4,12.1-16.9s-10.9-19.9-10.9-19.9l-37.5-6"/>
    <path class="st0" d="M270.7 408.2l-23.1 3-43.4-5c0 0-15.1.5-32.6-.3-17.4-.8-45.9-7.1-45.9-7.1l-2.4 28.5c0 0 29.3 7.9 48.3 7.9s37.2 1.6 37.2 1.6l21.4 11.9c0 0 4.9 1.8 10.8 2.5 7.9.9 20 .9 21.9.9M132.5 395.4c0 0-7.4 2.1-6.9 3.3M410.7 696.9c-12.1 3-13.3-.1-18.2-.4-50.7-3-96.7-18.5-119.3-22.1-22.6-3.6-58.4-13.1-77.5-13.1s-35.9-2.7-42.1-1c-36.8 10-46-6.3-45.8-1.5 1.5 28.9-6.5 72.2-6.5 72.2s-1.6 8.3 30 9c10.8.2 48.9-3.6 52.4-4.8s204 36.1 204 36.1-.5 6.5 1.5 7.3c10.9 4.2 25.8-.5 24.8-.2C414.1 778.4 413.1 696.3 410.7 696.9zM103.7 741.2L104 735M923.1 302.1c0 0-17.4 7.9-23 6.3s-24.7-58.1-24.7-58.1-1-13.5 4.7-18.8c4.9-4.5 16-13.4 26.3-4.7 8.6 7.3 16.6 12.5 12.8 31.3C918.4 262.3 923.1 302.1 923.1 302.1z"/>
    <path class="st0" d="M915.4,304.8c0,0,15.6,43.3,16.4,51.2c0.8,7.9-5,14.7-11.9,16.6c-5.7,1.6-7.3,1.9-7.3,1.9"/>
    <path class="st0" d="M906.4 308.2l14.4 44.6c0 0 .7 7-5.5 9.5-4.3 1.7-4 2.4-4 2.4M899.2 223.4l38.8-1.9c0 0 22.5 9.1 13.8 30.7l-8.8 4v11.1l-3.2 5.5-.2 44.5-19.4 1.6M818 811.6L818.5 820.5M784.2 808.1L783.7 817.6"/>
    <path class="st1" d="M211.3,307.9c2,0,12.4-7.5,22.4-6s14.9,10.5,14.4,23.4c0,0-4.5,6.5-9,9l-2,33.3"/>
    <path class="st0" d="M612.1 794.9L612.1 802.4M597.1 793.5L597.6 799.6M597.6 717.1l-.9-8.9c0 0 .5-4.2 6.5-4.2 6.1 0 7.9.9 7.9 3.7s-.5 8.4-.5 8.4M398.1 780.8L398.1 787.3M411.9 779.4c0 1 .6 9.1.6 9.1M396.1 696.5c0 0-3.2-1.4 1.2-2.6 4.4-1.2 10.1-2 11.5-.4s1 3.4 1 3.4M854.3 311.9c0 0-7.3 10.7-7.3 16.9 0 6.2-.2 9.3-.2 9.3M861.8 316.1c0 0-3.1 7.1-5.1 12s-4.9 11.3-4.7 12.2M867.1 322.1c0 0-1.3 8.7-5.1 12.7s-7.5 8.9-7.5 8.9M874.5 329.7c0 0-4.4 9.8-7.3 11.8s-10 5.5-10 5.5M880.5 337.2c0 0-4.4 10-10.2 13.8s-9.8 3.1-9.8 3.1M885.6 347c0 0-.9 9.3-7.1 12-6.2 2.7-12 2.7-12 2.7"/>
  </g>
</svg>
