<?xml version="1.0" encoding="utf-8" ?>
<!-- Generator: Adobe Illustrator 23.1.1, SVG Export Plug-In . SVG Version: 6.00 Build 0)  -->
<svg version="1.1" id="chirurgische-mondkapjes-svg" xmlns="http://www.w3.org/2000/svg" xmlns:xlink="http://www.w3.org/1999/xlink" x="0px" y="0px" width="1000px" height="1000px" viewBox="0 0 1000 1000" style="enable-background:new 0 0 1000 1000;" xml:space="preserve">
	<style type="text/css">
	#chirurgische-mondkapjes-svg .st1{fill:#FFFFFF;stroke:none;}
	#chirurgische-mondkapjes-svg .st2{fill:none;stroke:currentColor;stroke-miterlimit:10;}
</style>
	<g id="wit">
		<g>
			<path class="st1" d="M244.3,103.8c0,0-79.8,36-125.3,163s-21.7,212.7,5.4,299.5c0,0,27.1,67.3,51,102
			c23.9,34.7,55.3,96.6,55.3,107.4L244.3,103.8z" />
			<path class="st1" d="M931.7,716c-5.4-11.9-56.4-155.2-68.4-182.3c-3-6.8-7.1-15.6-11.5-25l0.1,0c0,0-0.1,0-0.1,0
			c-13.3-28.2-29.8-61.8-29.8-61.8s-2.5-1.6-7.1-4.5c-4.2-28.9-17.5-102.2-30.8-147.4c-14.1-47.7-55.3-137.8-111.8-169.3
			S546.5,52,472.7,49.8C400,47.6,282.1,77.1,262,95.6c0-0.2,0-0.4,0-0.6l-17.1,8l-12.9,680.9l5.3,22.3c0,0.6-1.1,25.3-3.3,53.1
			c-2.2,28.2-43.4,94.4-43.4,94.4h411.3c1.1-6.5,17.4-66.2,17.4-70.5l-0.4-0.1c1.6-2.7,4.8-7.1,11.3-14c3.7-4,10.5-6.7,18.7-8.5
			c0.8,0.4,1.5,0.6,2.1,0.7l-0.5-1.1c22.8-4.7,54.9-2.8,61.1-2c8.7,1.1,95.5-13,110.7-14.1c11.1-0.8,37.8-3.3,55.2-5.9l0.9,1.3
			c0.1-0.4,0.2-0.9,0.3-1.5c5.9-0.9,10.6-1.8,13.1-2.6c9.8-3.3,56.4-32.6,56.4-32.6S937.1,728,931.7,716z M261.3,96.2
			c-0.3-0.8-0.1-0.4,0.1-0.1C261.4,96.2,261.3,96.2,261.3,96.2z" />
		</g>
	</g>
	<g id="Laag_3">
		<path class="st2" d="M815.6,446.9c-3.3-25-17.4-104.2-31.5-151.9s-55.3-137.8-111.8-169.3S546.5,52,472.7,49.8S278.4,78,261.1,96.4
		" />
		<path class="st2" d="M242.6,107.3c0,0-78.1,32.6-123.7,159.5s-21.7,212.7,5.4,299.5c0,0,27.1,67.3,51,102
		c23.9,34.7,55.3,96.6,55.3,107.4" />
		<path class="st2" d="M190.5,953.7c0,0,41.2-66.2,43.4-94.4c2.2-28.2,3.3-53.2,3.3-53.2" />
		<path class="st2" d="M601.8,953.7c1.1-6.5,17.4-66.2,17.4-70.5" />
	</g>
	<g id="Laag_2">
		<path class="st2" d="M465.9,611.1c0,0,38.3,134.2,49.1,157c10.9,22.8,49.9,89,54.3,93.3c4.3,4.3,46.7,18.4,46.7,18.4
		s0,4.3,14.1-10.9c14.1-15.2,72.7-11.9,81.4-10.9c8.7,1.1,95.5-13,110.7-14.1c15.2-1.1,59.7-5.4,69.4-8.7s56.4-32.6,56.4-32.6
		S937.1,728,931.7,716c-5.4-11.9-56.4-155.2-68.4-182.3c-11.9-27.1-41.2-86.8-41.2-86.8s-90.1,7.6-105.3,8.7
		c-15.2,1.1-54.3,5.4-71.6,10.9s-167.1,47.7-182.3,52.1s-55.3,3.3-55.3,3.3s5.4,38,15.2,51c9.8,13,18.4,28.2,27.1,32.6
		s51,13,66.2,17.4c15.2,4.3,172.5,79.2,204,97.7c31.5,18.4,87.9,61.9,94.4,65.1s28.2-2.2,45.6,1.1s32.6,12.1,49.8,13l36.2,3.6" />
		<path class="st2" d="M478.1,515.3c0,0-26-43.4-103.1-179C293,191.9,262.2,96.4,260,93.2l-15.2,9.8c0,0,108.5,234.4,128,262.6
		s90.1,153,90.1,153" />
		<path class="st2" d="M455.9,607.5c-4.3,4.3-175.3,145.4-190.5,159.5c-15.2,14.1-30.4,29.3-31.5,36.9l-6.5-19.5
		c0,0,15.2-21.7,58.6-62.9c43.4-41.2,152.7-125.8,152.7-125.8" />
	</g>
	<g id="Laag_4">
		<path class="st2" d="M851.9,508.7c-3.6,0-121.4,14.5-162.2,19.9s-191.2,44.4-199.4,46.2c-8.2,1.8-60.7,8.2-60.7,8.2" />
		<path class="st2" d="M499.4,573.1c0,0,157.7,83.4,172.2,92.4c14.5,9.1,184.9,116,189.4,120.5" />
		<path class="st2" d="M551.1,639.2c0.9,6.3,36.8,129.2,42.6,148.6c10,33.5,47.1,71.6,57.1,73.4" />
		<path class="st2" d="M878.2,839.5c0.9-3.6,1.8-15.4-7.2-25.4c-9.1-10-31.7-29-31.7-29" />
	</g>
</svg>
