<!--
	https://github.com/Duxxie/duxxie-images
	This work is licenced by https://creativecommons.org/licenses/by-sa/4.0/
-->
<svg version="1.1" id="dekenboog-svg" xmlns="http://www.w3.org/2000/svg" x="0px" y="0px" width="1000px" height="1000px" viewBox="0 0 1000 1000" xml:space="preserve">
  <style>
    #dekenboog-svg .st0{fill:none;stroke:currentColor;stroke-miterlimit:10;}
  </style>
  <path class="st0" d="M673.4,286.6c-0.9,91,3.4,232.6,1.4,282c-2.8,69,38.4,91.7,38.4,91.7l189.4,115.4c0,0,25.5,26.2,48,18.1	c22.5-7.9,33.6-27.8,33.8-54.8l10.1-392.6c0,0,4.3-40.7-10.7-80.2c-17.4-45.8-89-38-89-38S315.4,292.7,279.9,301	c-70,16.3-72.8,92-72.8,92l10.6,502.1c-3.9,14.2-15.6,0-15.6,0S110.4,788.7,87.1,765.4C63.7,742,57.8,726.1,54,702.7	c-2.8-17.4-21.5-407.8-19.1-443.6c3.4-50.4,51.7-51.4,51.7-51.4s482.5-48.5,529.2-53.2c19.7-2,28.5,1.8,40.2,7.8	c20.5,10.4,18.1,42.8,18.1,42.8l-0.5,48.4"/>
  <path class="st0" d="M702.2,249.5c0.4-25.8,0.6-41.9,0.6-41.9s2.6-45.4-33.7-67.4c-36.3-22-177.7,1.3-177.7,1.3l-417.7,39	c0,0-58.3,9.7-68.8,72.7l20.7,417.7c0,0-1.9,63.9,27.3,103.7c7.2,9.9,144,155.7,144,155.7s24,35.8,46.1-4.4c0,0,7.3-23,4.5-72.2	c-2.8-47.9-6.7-442-6.7-442s5.7-65,38.7-74.6c33.3-9.6,78.3-11.3,78.3-11.3s191.6-23.8,344-42.5c99.6-12.2,182.4-22.4,184-22.4	c3.9,0,51.9-13,64.9,10.4s11.7,27.3,11.7,89.5s-7.4,385.5-9.1,391.8c-2.5,9.7-6.5,22.1-22.6,11.3	c-20.2-13.6-200.4-118.9-200.4-118.9s-22-3.9-27.3-62.2c-3.4-38.9-1.5-200.4-0.3-298.5"/>
</svg>
