<?xml version="1.0" encoding="utf-8" ?>
<!--
	https://github.com/Duxxie/duxxie-images
	This work is licenced by https://creativecommons.org/licenses/by-sa/4.0/
-->
<svg version="1.1" id="douche-toiletvoorziening-complex-svg" xmlns="http://www.w3.org/2000/svg" xmlns:xlink="http://www.w3.org/1999/xlink" x="0px" y="0px" width="1000px" height="1000px" viewBox="0 0 1000 1000" style="enable-background:new 0 0 1000 1000;" xml:space="preserve">
	<style type="text/css">
	#douche-toiletvoorziening-complex-svg .st0{fill:none;stroke:currentColor;stroke-linecap:round;stroke-linejoin:round;stroke-miterlimit:10;}
</style>
	<path class="st0" d="M594.9,491.5c-4.5-2.2-190.8-67-208.7-69.3c-17.8-2.2-40.2-10-40.2-16.7c0-6.7-6.7-31.2,5.6-33.5
	s26.8-12.3,37.9-2.2c11.2,10,23.4,30.1,36.8,36.8c13.4,6.7,30.1,13.4,36.8,11.2s10-29,10-29s40.2-5.6,61.3-4.5
	c21.2,1.1,101,17.3,104.4,19.5" />
	<path class="st0" d="M663.1,182.2c27.7-26.6,60.1-58,68.1-62.3c15.8-8.5,53.2-30.1,111.2-23.4s126.9,32.8,131.4,47.3
	s-4.1,15.8-13.9,23.2c-12.1,9.1-31.6,9.8-43.9,17.6c-12.3,7.8-23.4,12.3-23.4,12.3s11.2,43.5-8.9,80.3s-37.9,37.9-46.8,39
	c-8.9,1.1-24.5-12.3-24.5-12.3s-62.5,100.4-100.4,136.1c0,0-8.6,5.8-12,3.5c-4.4-3-5.5-3.8-7.1-5.7" />
	<path class="st0" d="M533.4,253.8c0,0,48-29,59.1-29c11.2,0,29.4-5,40.1-12.4" />
	<path class="st0" d="M452,250.5c0,0-53.5,23.4-63.6,29s-33.6,27.2-42.3,38.2c-5.8,7.3-8.9,13.9-25.5,24.7
	c-15.7,10.2-54.9,9.6-88.4,5.1s-73.6-26.8-73.6-33.5c0-6.7,6.7-27.9,6.7-27.9s-27.9-5.6-10-44.6s69.2-75.8,95.9-79.2
	c26.8-3.3,36.8-5.6,36.8-5.6l29-24.5l-35.8-62.5c0,0-10.8-26.7,7.3-42.5c14-12.2,39.6-46.7,105.4,6.8s89.4,159.4,89.4,159.4" />
	<path class="st0" d="M691.1,445.8l7.4-41.4c0,0,15.6-17.8,15.6-30.1s-4.5-135-73.6-227.5s-98.2-100.4-126-104.9
	c-27.9-4.5-67.5,27.8-67.5,58" />
	<path class="st0" d="M598.1,486.9c0,0,19.8-42.8,24.6-54.6c6.5-16.3,37.2-55.9,41.3-71.4c4.4-16.8,5.4-78.3-31-150.6
	c-4.1-8.1-8.6-16.3-13.6-24.6C569.1,103.2,556.8,82,518.9,70.9s-45.7,30.1-42.4,41.3c3.3,11.2,32.3,63.6,32.3,63.6" />
	<path class="st0" d="M456.4,175.7c0,0-27.9-79.3-73.2-117.2c-40.4-33.8-56.5-22.9-65.3-17.8c-13.8,8-14.3,22.3-9.8,33.5
	s33,47.6,33,47.6" />
	<path class="st0" d="M336,774.7c0,0,194.1-193,204.1-204.1c6.3-7,33.9-47.5,54.8-78.7c12.3-18.3,22.2-33.4,24.3-36.7
	c7-11.2,21.3-63.1,53.6-43s23.4,52.4-32.3,126c-55.8,73.6-243.2,256.5-243.2,256.5s-34.6,32.3-49.1,27.9S325.9,797,336,774.7z" />
	<path class="st0" d="M385.1,430c0,0-152.9,170.3-181.8,186.6c-45.2,25.5-53.2,55.4-34.9,70.4" />
	<path class="st0" d="M347.1,884c0,0,143.8-64.2,259.9-83.7c36.7-6.1,145-11.2,145-11.2s25.7,1.1,25.7,13.4c0,12.3,6.7,15.6-22.3,19
	c-29,3.3-53.1-9.2-132.7,8.9c-126.3,28.7-199.7,50.2-236.5,75.8s-55.8,15.6-58,11.2S320.4,892.9,347.1,884z" />
	<path class="st0" d="M304.8,588.8c-31.6,32.5-64.3,63.7-81.5,76.9" />
	<path class="st0" d="M442.7,440.5c0,0-47.7,53.2-99.8,108.5" />
	<path class="st0" d="M424.1,406.6c3.3,0,27.9-16.7,34.6-16.7s13.4-3.3,25.7-14.5c12.3-11.2,40.2-53.5,41.3-58
	c1.1-4.5,5.9-18.8,4.8-22.1c0,0-0.8-8.1-3.9-7.3" />
	<path class="st0" d="M398.4,376.5c3.3-4.5,54.7-79.2,58-82.5c3.3-3.3,7.8-17.8,11.2-19" />
	<path class="st0" d="M161.1,301.8c0,0-3.1-0.4-22.6,6.6c-20.3,7.3-111.5,58-111.5,58l6.7,8.9l93.7,50.2c0,0,66.9-20.1,89.2-22.3
	s118.2,1.1,130.5,7.8" />
	<path class="st0" d="M343.8,387.2c0,0-14.1-21.8-39-28.2c-25.2-6.5-33.9-5.8-54.8-0.4c-57.2,14.7-122.1,66-122.1,66" />
	<path class="st0" d="M500.2,360.2c10-2.2,53.3-6,72.2-4.9c19,1.1,40.2,8.9,46.8,14.5" />
	<path class="st0" d="M525.6,317.4c0,0,20.1-1.1,41.3,1.1s56.9,20.1,62.5,34.6" />
	<path class="st0" d="M604.8,393.2c0,0,21.3-49.3,59.2-63.8" />
	<path class="st0" d="M708.5,308.5c0,0,58-36.8,73.6-39s40.2-36.8,58-49.1c17.8-12.3,77-52.4,85.9-55.8c8.9-3.3,31.2-16.7,37.9-17.8
	c6.7-1.1,9-3.2,9-3.2" />
	<path class="st0" d="M875.8,217c0,0,7.4,28.3-6.7,52.4c-22.9,39-35.6,31.6-39.8,27c-8.1-8.9,8.6-38.2,18.7-51.6
	C859.4,229.6,875.8,217,875.8,217z" />
	<path class="st0" d="M369.7,222.2c-7.8-1.1-40.4-14.1-52.7-20.8c-12.3-6.7-32.3-31.2-29-34.6c3.3-3.3,33.5-32.3,39-32.3
	c5.6,0,12.3,2.2,14.5-3.3c2.2-5.6-1.1-15.6-1.1-15.6c-3.3-4.5,12.3,7.8,20.1,20.1c7.8,12.3,20.1,19,30.1,21.2s85.9,25.7,85.9,25.7
	s-8.6,3.3-24.2,6.6c-15.6,3.3-26,17.9-26,22.4" />
	<path class="st0" d="M300.3,346.4c0,0-15.6-22.3-7.8-37.9s10-41.3,70.3-73.6s97-23.4,97-23.4" />
	<path class="st0" d="M286.2,167c0,0-26.3,2.6-35,10.9c-10.9,10.3-21.2,48,0,59.1c21.2,11.2,54.7,11.2,66.9,5.6
	c12.3-5.6,52.4-22.3,62.5-24.5s30.1-3.3,30.1-3.3" />
	<polyline class="st0" points="313.3,346.6 349.4,364.2 421.9,268.3 " />
	<path class="st0" d="M507.8,165.7c0,0-1.1,0,7.8,2.2c8.9,2.2,30.1,40.2,30.1,40.2l-60.2,42.4c0,0-22.3,8.9-31.2-2.2
	c-8.9-11.2-10-17.8-6.7-24.5c3.3-6.7,56.9-44.6,56.9-44.6S513.3,171.3,507.8,165.7z" />
	<line class="st0" x1="533.1" y1="384.9" x2="560.2" y2="358.7" />
	<path class="st0" d="M902.6,132.2c0,0,0-2.2,12.3,0c12.3,2.2,35.7,12.3,35.7,12.3s-23.4,8.9-34.6,12.3c-11.2,3.3-24.5,2.2-24.5-4.5
	C891.5,145.6,899.3,136.7,902.6,132.2z" />
	<path class="st0" d="M358.1,753.7c0,0-28.8,5.3-32.2,14.3c-3.3,8.9-4.5,90.3,21.2,113.8" />
	<path class="st0" d="M397.3,799.2c0,0,27.9,45.7,39,51.3" />
	<path class="st0" d="M349.2,702.8c-7.8,0-77.9,24-77.9,24s-29-33.5-37.9-44.6c-8.9-11.2-18.4-34.3-30.9-40.4
	c-15.1-7.3-31.7,9.7-35.5,22c-4.3,13.9,23.9,93.9,23.9,93.9s-23.3,2.6-23.3,12.6s1.5,17.5,17.1,17.5s87.7-36.4,120.1-45.4
	s50.6-13.3,50.6-13.3" />
	<path class="st0" d="M508.9,684.4l52.4-5.6c0,0,21.2-3.3,22.3,11.2c1.1,14.5,3.3,19-11.2,19s-78.1-1.1-87,1.1" />
	<path class="st0" d="M475.5,635.6c0,0-22.4,8.6-45.8,0.8s-85.9-40.2-85.9-40.2s-6.5-27.9-5.4-37.9c1.1-10,33.9-43.9,32.8-51.8
	c-1.1-7.8,1.9-8.1-5-9.3c-18.7-3.1-54.8,33.2-68.1,48.8c-13.4,15.6-23.4,21.2-15.6,27.9s157.3,97,157.3,97" />
	<path class="st0" d="M334.1,607.4c0,0-9.5,14.6-5,21.2c4.5,6.7,11.4,19.9,11.4,19.9l-6,3.7l27.1,93.5" />
	<line class="st0" x1="414.1" y1="695.5" x2="407.4" y2="653.1" />
	<path class="st0" d="M433.5,761c0,3.3,2.8,11.5,8.4,14.8c5.6,3.3,124.9,34.6,124.9,34.6" />
	<line class="st0" x1="503.3" y1="826" x2="402.9" y2="789.1" />
	<path class="st0" d="M505.6,860c0,0-7.9,33-20.2,35.2c-12.3,2.2-26.9-20.2-26.9-20.2" />
	<line class="st0" x1="429.5" y1="885.1" x2="481.3" y2="895.9" />
	<path class="st0" d="M168.6,782.7c0,1.2-0.1,24.4,3.8,26.7c3.9,2.4,41.7,34.2,41.7,34.2s3.5,0.8,7.1-2.8s3.5-11.8,5.5-16.5
	c2-4.7,8.3-16.9,12.6-19.3s20.4-1.6,20.4-5.1c0-3.5-3.5-11.4-7.9-11.4c-4.3,0-5.9,3.5-10.2,1.6s-19.3-11-20.8-9
	c-1.6,2-2.8,5.9-2.8,5.9s-16-5.3-18.8-3.7" />
	<path class="st0" d="M236.1,813c4.3,7.1,3.3,15.9-0.8,28.3c-3.9,11.8-23.6,24.4-41.7,13.4c-18.1-11-14.5-27.9-11-33.8" />
	<path class="st0" d="M230.2,822.8c0,0,2.7,6.6,0,15.3c-2.8,9-18,15-25.2,12.6c-9.4-3.1-13.4-14.9-10.6-22" />
	<path class="st0" d="M328.8,919.4c0,1.2,0.3,23.9,4.3,26.2c3.9,2.4,41.7,34.2,41.7,34.2s3.5,0.8,7.1-2.8c3.5-3.5,3.5-11.8,5.5-16.5
	c2-4.7,8.3-16.9,12.6-19.3c4.3-2.4,20.4-1.6,20.4-5.1c0-3.5-3.5-11.4-7.9-11.4c-4.3,0-5.9,3.5-10.2,1.6c-4.3-2-19.3-11-20.8-9
	s-2.8,5.9-2.8,5.9s-11.4-6.7-14.1-5.1" />
	<path class="st0" d="M396.8,949.1c4.3,7.1,3.3,15.9-0.8,28.3c-3.9,11.8-23.6,24.4-41.7,13.4c-18.1-11-14.5-27.9-11-33.8" />
	<path class="st0" d="M390.9,958.9c0,0,2.7,6.6,0,15.3c-2.8,9-18,15-25.2,12.6c-9.4-3.1-13.4-14.9-10.6-22" />
	<path class="st0" d="M740.7,824.9c0,1.2-0.8,18.9,3.1,21.2c3.9,2.4,41.7,34.2,41.7,34.2s3.5,0.8,7.1-2.8s3.5-11.8,5.5-16.5
	s8.3-16.9,12.6-19.3s20.4-1.6,20.4-5.1s-3.5-11.4-7.9-11.4c-4.3,0-5.9,3.5-10.2,1.6s-19.3-11-20.8-9s-2.8,5.9-2.8,5.9
	s-13.4-6.2-16.2-4.6" />
	<path class="st0" d="M807.5,849.7c4.3,7.1,3.3,15.9-0.8,28.3c-3.9,11.8-23.6,24.4-41.7,13.4c-18.1-11-14.5-27.9-11-33.8" />
	<path class="st0" d="M801.6,859.5c0,0,2.7,6.6,0,15.3c-2.8,9-18,15-25.2,12.6c-9.4-3.1-13.4-14.9-10.6-22" />
	<path class="st0" d="M550.4,709.1c0,1-0.7,16.2,2.7,18.3c3.4,2,35.9,29.4,35.9,29.4s3,0.7,6.1-2.4c3-3,3-10.2,4.7-14.2
	c1.7-4.1,7.1-14.5,10.8-16.6c3.7-2,17.6-1.4,17.6-4.4s-3-9.8-6.8-9.8s-5.1,3-8.8,1.4s-16.6-9.5-17.9-7.8s-2.4,5.1-2.4,5.1
	s-7.1-5.9-9.4-4.6" />
	<path class="st0" d="M608,730.5c3.7,6.1,2.9,13.7-0.7,24.4c-3.4,10.2-20.3,21-35.9,11.5c-15.6-9.5-12.5-24-9.5-29.1" />
	<path class="st0" d="M602.9,738.9c0,0,2.3,5.6,0,13.2c-2.4,7.8-15.5,12.9-21.7,10.8c-8.1-2.7-11.5-12.9-9.1-18.9" />
	<path class="st0" d="M475.3,256c0,0,22.9,17.8,28,21.6c5.1,3.8,24.8,14,28,7.6c3.2-6.4-1.3-52.2-4.5-59.8" />
	<path class="st0" d="M441,258.5c0,0,3.2,12.1,11.5,14s70.2,15,70.2,15" />
	<path class="st0" d="M419.4,267.4c0,0,16.5,7.6,19.7,7.6c3.2,0,2.3,0.4,8.6-5.3" />
	<path class="st0" d="M451.2,808.2c0,0,1.9,7.7,12,11.6c10,3.9,29.7,8.9,29.7,8.9" />
</svg>
