<?xml version="1.0" encoding="utf-8" ?>
<!--
	https://github.com/Duxxie/duxxie-images
	This work is licenced by https://creativecommons.org/licenses/by-sa/4.0/
-->
<svg version="1.1" id="douchestoel-hooglaag-hydraulisch-svg" xmlns="http://www.w3.org/2000/svg" xmlns:xlink="http://www.w3.org/1999/xlink" x="0px" y="0px" width="1000px" height="1000px" viewBox="0 0 1000 1000" style="enable-background:new 0 0 1000 1000;" xml:space="preserve">
	<style type="text/css">
	#douchestoel-hooglaag-hydraulisch-svg .st0{fill:none;stroke:currentColor;stroke-linecap:round;stroke-linejoin:round;stroke-miterlimit:10;}
	#douchestoel-hooglaag-hydraulisch-svg .st1{fill:none;stroke:currentColor;stroke-linecap:round;stroke-linejoin:round;stroke-miterlimit:10;}
	#douchestoel-hooglaag-hydraulisch-svg .st2{opacity:0;fill:none;stroke:currentColor;stroke-linecap:round;stroke-linejoin:round;stroke-miterlimit:10;}
</style>
	<g id="Laag_2">
		<path class="st0" d="M327,404.3c0,0,7-25,14-27s88-11,105-11s29,5,50,8s100,18,121,18s87.4,4.5,89.4,9.5s2.6,20.5-1.4,23.5
		s-101,17-121,14s-97-13-142-19S327,404.3,327,404.3z" />
		<path class="st0" d="M470,242.3c10.8-26.7,29.4-111.9,31.8-112.2c71.2-6.2,104.3-0.6,131.3,2.4s105,16,106,22
		c0.7,4-11.7,68.2-20,110.4" />
		<path class="st0" d="M713.6,293.1c-1,5.2-1.6,8.2-1.6,8.2s-13-5-14,1s-0.7,5.9-1,6c-15.1,4.3-203-22-206-23s-4-8.1-11-9
		c-3-0.4-7,0-7,0s-3.4-7.1-4.7-16.1" />
		<path class="st0" d="M744,126.7l74.7-3.2c0,0,4.9,5.3,0.8,17.6c-1.1,3.4-71.2,3.2-71.2,3.2" />
		<path class="st0" d="M523.9,104.9l-47.2-13c0,0-8.1,3.2-5.6,14.1c1.3,5.7,39.4,15.1,39.4,15.1" />
		<path class="st0" d="M461.7,689.7c-8.1-4.4-16.7-7.8-25.7-9.5c-44-8-81.3,1.3-101.3,26.3" />
		<path class="st0" d="M485,643.3c60.8,10.3,112,19,112,19l4,83l-13,6l-72-12c0,0-16.1-22.9-40-40.4" />
		<path class="st0" d="M271,691.8l1.8-74.4l15.1-7.7c8.7,1.6,100,17.2,181.2,30.9" />
		<path class="st0" d="M302,252.3c-2.4-1.8,0.2-17.5,0.2-17.5s50-0.7,66-0.7s82.8,3.2,82.8,3.2l-1.7,22.3c0,0-12.9,0.8-18.9,0.8
		S310,258.3,302,252.3z" />
		<path class="st0" d="M503,556.3c0,0,27,5,30,2s9,4,9,4l-4,51c0,0-22,5-30,3s-12-6-12-6L503,556.3z" />
		<path class="st0" d="M316,524.3c0,0-18,3-25,2s-14-5-14-5l-5,54c0,0,19,5,25,5s16-5,16-5L316,524.3z" />
		<path class="st0" d="M667,578.3l3.6-26.5c0,0,20-0.4,20,4.6s0.7,86.4,0.4,94c0,0,20-1,26-9s-5-108-5-108l-12-2c0,0-4.9,7-11,7
		c-9,0-12-9-12-9s-11,1-12,7s-6.2,47.6-6.2,47.6" />
		<path class="st0" d="M436.4,552.4c0,0-0.4-46.2,3.6-48.2s-6,4,4-2s6,3,15,3s15-1,17-4s10-6,12,1s4,41,4,41" />
		<path class="st0" d="M444,544.3c0,0-1.8-25.5,2.2-25.5s18.8-0.5,18.8,2.5s1,38,1,38" />
		<polyline class="st0" points="466,597.3 467,615.3 477,612.3 	" />
		<path class="st0" d="M458,709.3c0,0,13,6,13,12s-8,13-8,13l-40,5c0,0-14,5-22,4s-81-19-81-19s4-9,18-10s72,0,77,4s2-5,11-6
		S458,709.3,458,709.3z" />
		<line class="st0" x1="509" y1="555.5" x2="510.5" y2="546.8" />
		<line class="st0" x1="522.3" y1="558.4" x2="523.7" y2="546.2" />
		<path class="st0" d="M701.3,769.9c0,0,4.1-5.1,6-5.7c1.9-0.6,8.9,0.9,8.9,8.5" />
		<path class="st0" d="M728.8,776.9l-3.2-14.6c0,0-23.7-6.3-24.7-7.3c-0.9-0.9-8.2,0.3-8.2,4.4" />
		<path class="st0" d="M743,737.7c0,0,2.8,4.7-0.3,8.2c-3.2,3.5-17.1,16.5-17.1,16.5" />
		<path class="st0" d="M623.1,863c0,0,16.1,1.9,19.9,2.2c3.8,0.3,10.8,0.3,12.3,3.2c1.6,2.8,3.2,10.8,2.5,13.6" />
		<path class="st0" d="M607.9,869.3c0,0,13.9,5.1,19.3,6.3c5.4,1.3,10.4,1.9,14.2,0.6s13.9-7.9,13.9-7.9" />
		<path class="st0" d="M646.8,853.8c0,0-6.6,3.5-7.3,10.4" />
		<path class="st0" d="M663.6,864.2c0,0-3.2,1.9-3.2,4.4s-1.3,9.2,0.6,9.8s4.7-4.7,5.1-7.6C666.5,868,665.5,867.7,663.6,864.2z" />
		<path class="st0" d="M423.6,716.7c1.7-0.2,12.1-2.7,13.5,7.1c1.3,9.8-3.7,11.8-7.7,12.1c-4,0.3-9.8-5.1-9.8-8.4
		S421.2,717.1,423.6,716.7z" />
		<path class="st0" d="M196.5,675.9c1.5-0.2,10.9-2.4,12.1,6.3c1.2,8.8-3.3,10.6-7,10.9s-8.8-4.5-8.8-7.6S194.4,676.2,196.5,675.9z" />
		<path class="st0" d="M419.5,734.6c-1.3,0.7-11.5,4.4-15.5,4.4c-4,0-77.8-16.2-81.2-16.5" />
		<path class="st0" d="M198.3,697.9c1.3,0.3,57.3,12.1,61.6,13.5c4.4,1.3,11.8,2.4,15.5,2c3.7-0.3,56.9-7.4,56.9-7.4" />
		<path class="st0" d="M597,662.3c-2.6,2.6-11.7,9.6-11.7,9.6" />
		<path class="st0" d="M817.6,123.9c0,0-7,9.9,0.7,17.6" />
		<path class="st0" d="M521.1,105.2c0,0-9.9-0.4-10.2,12.7" />
	</g>
	<g id="Laag_4">
		<path class="st0" d="M505.7,129.6c0,0,12.9-32.5,43-37.3c30.1-4.8,157.1,5.3,161.9,8.1c4.8,2.9,28.2,4.8,34.4,28.7s1.4,38.2-1,52.5
		s-18.1,85.5-18.1,85.5" />
		<path class="st0" d="M530,128.2c0,0,1-6.2,18.6-17.2c17.7-11,154.3,7.6,154.3,7.6s30.6,4.8,27.2,30.6" />
		<path class="st0" d="M700,301.6c0,0-13.2,91.5-13.7,95.3" />
		<path class="st0" d="M706.7,400.4C705.8,388.5,722,293,722,293" />
		<path class="st0" d="M491.3,286.3c0.5,5.3-11.9,62.1-11,84.1" />
		<path class="st0" d="M473.2,277.2c-1.4,1-12.4,73.1-11,89.8" />
		<path class="st0" d="M683.3,431c0.5,1.4-2.4,36.3-2.4,41.1" />
		<path class="st0" d="M705.3,426.7c0,0-7.6,79.3-6.7,103.2" />
		<path class="st0" d="M541,434.4c0,0-13.4,41.6-16.2,58.7c-2.9,17.2-6.2,40.1-6.2,40.1" />
		<path class="st0" d="M560.7,436.6c0,0-17.3,30.7-20.2,56.5s-7.2,63-7.2,63" />
		<path class="st0" d="M366.7,411.4c-2.9,3.8-38.7,40.1-43.5,46.3s-6.7,16.2-7.2,21c-0.5,4.8-4.3,45.8-4.3,45.8" />
		<path class="st0" d="M347.6,407.6l-35.8,39.6c0,0-10.5,14.3-11.5,23.4c-1,9.1-1.9,28.2-1.9,28.2" />
		<path class="st0" d="M592.6,659.3c0,0,2.4-7.2,4.3-8.6s17.2-7.6,17.2-7.6s11-0.5,13.9,1.9s7.2,22.9,7.2,22.9l9.1,3.8l-1,3.3
		l-7.6,3.3c0,0,8.6,1.4,9.1,3.8c0,0,1.2,2.9,0.3,3.5c-0.9,0.5-8.1,4.2-8.1,4.2l0.9,1.8c0,0,6.5-0.5,7.6,0s2.5,2.5,1.8,4
		c-0.7,1.4-8,5.1-8,5.1l0.7,2l6.5,0.7c0,0,2.7-0.2,2.2,2.7c-0.5,2.9-8.7,6-8.7,6l0.4,1.8l7.6,0.5c0,0,2.7,2.2,1.8,3.4
		c-0.9,1.3-8.5,5.4-8.5,5.4l0.5,2c0,0,6.5,0,7.2,0.2c0.7,0.2,2.7,1.8,2.2,3.8c-0.5,2-7.8,5.1-7.8,5.1l0.2,2.2c0,0,6,0,6.7,0
		s3.6,2.5,2.7,3.8c-0.9,1.3-9,5.8-9,5.8l0.5,2.2l5.8-0.7c0,0,2.5,0,3.1,2.2s0.4,3.3-0.7,4s-6.5,4-6.5,4l0.4,1.3c0,0,5.2-0.4,6-0.4
		c0.7,0,1.4,0.5,2.2,2.7c0.7,2.2-0.2,2.7-1.3,3.3s-6.3,4-6.3,4s0.5,1.6,1.1,1.6s7.8,0.4,7.8,0.4s1.4,1.3,1.3,2.4
		S618.7,797,616.7,797c-2,0-1.3,0.5-4.5,0.2c-3.3-0.4-20.6-3.1-20.6-3.1" />
		<path class="st0" d="M600.4,688.6c1.6,0.2,11.8,3.1,13.6,2.5c1.8-0.5,21.6-12.7,21.6-12.7" />
		<path class="st0" d="M600.1,700.9c1.6,0.2,11.8,3.1,13.6,2.5s23.7-13.4,23.7-13.4" />
		<path class="st0" d="M599.7,712.8c1.6,0.2,11.8,3.1,13.6,2.5s26.1-14.7,26.1-14.7" />
		<path class="st0" d="M600.1,724.8c1.6,0.2,11.8,3.1,13.6,2.5s26.6-15,26.6-15" />
		<path class="st0" d="M601.2,736.4c1.6,0.2,11.8,3.1,13.6,2.5s26.1-15.6,26.1-15.6" />
		<path class="st0" d="M596.8,747.8c1.6,0.2,16.5,4,18.3,3.4c1.8-0.5,28-16.5,28-16.5" />
		<path class="st0" d="M592.1,758.3c1.6,0.2,20.8,5.4,22.6,4.9s29.3-16.8,29.3-16.8" />
		<path class="st0" d="M591.6,770c1.6,0.2,21.9,5.2,23.7,4.7s30.9-16.6,30.9-16.6" />
		<path class="st0" d="M591.6,782.5c1.6,0.2,22.8,4.7,24.6,4.2c1.8-0.5,31.1-17.9,31.1-17.9" />
		<path class="st0" d="M651.6,778.7c0,0,1.8-0.4,2,1.1c0.2,1.4,0.5,23-0.7,23.2c-1.3,0.2-35.6,21.5-36.6,21.5
		c-0.9,0-23.7-3.4-23.7-3.4" />
		<path class="st0" d="M577.3,837c0,2.4,0.4,36.6,0.4,36.6s26,7.7,28.3,7.9" />
		<path class="st0" d="M648.7,852.9c0-1.1,0.9-48,0.9-48" />
		<path class="st0" d="M465.2,597c-3.5,3.2-48.5,32.7-48.5,32.7" />
		<path class="st0" d="M443.4,590.7c-1.1,1.8-43.9,36.9-43.9,36.9" />
		<line class="st0" x1="400.2" y1="584" x2="344.8" y2="617.7" />
		<path class="st0" d="M432.2,553.8l26.7-15.4c0,0,6.3,0,6.7,2.8" />
		<path class="st0" d="M510.1,617c-0.4,1.1-1.1,13.7-1.1,13.7s6.3,1.1,8.8,1.4c2.5,0.4,6.3-0.4,7.4-1.1s1.8-15.4,1.8-15.4" />
		<path class="st0" d="M524.2,533.1c0,0-11.9,0.4-18.3,2.5c-6.3,2.1-16.5,10.2-19.3,20.7c-2.8,10.5-27.7,152-27.7,152" />
		<path class="st0" d="M525.9,545.4c0,0-10.5-1.1-15.4,1.4c-4.9,2.5-10.9,7-16.5,35.8s-22.8,135.2-22.8,135.2" />
		<path class="st0" d="M301.9,500.1c0,0-13.7-3.2-24.6,1.4s-14.7,14.4-18.3,25.6c-3.5,11.2-25.3,141.5-25.3,141.5" />
		<path class="st0" d="M300.5,511.4c0,0-3.9-2.1-13.3,0.7c-9.5,2.8-11.9,2.8-16.5,17.6c-4.6,14.7-27,154.1-27,154.1" />
		<path class="st0" d="M307.9,577.7c0,0-0.7,15.4-1.4,16.9c-0.7,1.4-2.1,1.8-6.7,1.4c-4.6-0.4-8.1-1.8-8.1-1.8l0.7-14.4" />
		<g>
			<path class="st1" d="M531,871c0.3,1.7,1.1,5.1-0.3,5.1c-1.4,0-25.1,17.1-29.9,20.3c-4.8,3.1-8,7.4-7.1,10.2
			c0.9,2.8,10,7.1,13.1,9.4c3.1,2.3-2.3,3.7,9.1,0.3c11.4-3.4,22.5-6.5,25.3-5.1s6.8,1.1,5.4,4c-0.4,0.8-2.4,3.5-5,6.9
			c-6.7,8.8-17.8,22.7-17.8,22.7s-8,9.1-3.4,14.2c4.6,5.1,9.7,4.6,19.1-6c9.4-10.5,18.8-24.5,19.6-29.3s6.3-39.8,5.4-41
			c-0.9-1.1-1.1-3.4-2.6-3.4l-0.1-7.3" />
			<path class="st1" d="M540.4,923.1c0,0-15.9-10-28.2,12.2s-3.7,35.9,1.1,38.1c4.8,2.3,26.5-0.6,29.6-23.1" />
			<path class="st1" d="M502.2,914.3c0,0-18.3,15.1-15.4,37c5.7,42.1,43.3,31.3,54.1,17.4c10.8-13.9,8.8-22.5,10.5-29.3" />
		</g>
		<g>
			<path class="st1" d="M190,804.2c0.3,1.7-0.2-0.1-3,7.4c-0.5,1.3-23.2,9-28,12.2c-4.8,3.1-8,7.4-7.1,10.2c0.9,2.8,10,7.1,13.1,9.4
			s-2.3,3.7,9.1,0.3s22.5-6.5,25.3-5.1c2.8,1.4,6.8,1.1,5.4,4c-0.4,0.8-2.4,3.5-5,6.9c-6.7,8.8-17.8,22.7-17.8,22.7s-8,9.1-3.4,14.2
			c4.6,5.1,9.7,4.6,19.1-6c9.4-10.5,18.8-24.5,19.6-29.3c0.9-4.8,6.3-39.8,5.4-41c-0.9-1.1-1.1-3.4-2.6-3.4" />
			<path class="st1" d="M198.5,850.5c0,0-15.9-10-28.2,12.2c-12.2,22.2-3.7,35.9,1.1,38.1c4.8,2.3,26.5-0.6,29.6-23.1" />
			<path class="st1" d="M160.4,841.7c0,0-18.3,15.1-15.4,37c5.7,42.1,43.3,31.3,54.1,17.4c10.8-13.9,8.8-22.5,10.5-29.3" />
		</g>
		<g>
			<path class="st1" d="M764.3,738.7c-1.3-0.5,0.5,13.4-0.7,13.4s-12.9,9.1-16.7,11.6c-3.8,2.5-6.3,5.9-5.6,8.1
			c0.7,2.3,7.9,5.6,10.4,7.5c2.5,1.8-1.8,2.9,7.2,0.2c9-2.7,17.9-5.2,20.1-4.1s5.4,0.9,4.3,3.2c-0.3,0.6-1.9,2.8-4,5.5
			c-5.3,7-14.1,18-14.1,18s-6.3,7.2-2.7,11.3s7.7,3.6,15.1-4.7c7.5-8.4,14.9-19.4,15.6-23.3s-2-45.1-2.7-46s-0.9-2.7-2-2.7
			C788.5,736.7,785.1,747,764.3,738.7z" />
			<path class="st1" d="M778.3,785c0,0-12.7-7.9-22.4,9.7c-9.7,17.6-2.9,28.5,0.9,30.3c3.8,1.8,21-0.5,23.5-18.3" />
			<path class="st1" d="M748,778c0,0-14.5,12-12.2,29.4c4.5,33.4,34.3,24.9,42.9,13.8c8.6-11.1,7-17.9,8.4-23.3" />
		</g>
		<path class="st1" d="M409.2,744.1c0,0-1,11.4,0.7,15.8" />
		<path class="st1" d="M425,740.1c0,0-2.7,15.8,0,22.8" />
		<path class="st1" d="M458.2,742.7c0,3-1.3,17.8-8.1,25.5" />
		<path class="st1" d="M470.3,725.3c0,0-1.7,17.8-3,17.8s-13.4-0.3-13.8-1.7c-0.3-1.3,0.7-6,0.7-6" />
		<path class="st1" d="M429,427.2c0,0,21.8,24.5,25.8,73.5" />
		<path class="st1" d="M474.3,483.3c0,1-0.7,18.5-0.7,18.5" />
		<path class="st1" d="M460.2,502.8c0.3-1.3,4-8.7,3.7-23.8" />
	</g>
	<g id="Laag_5">
		<path class="st1" d="M726,729.2c17.2-6.8,32.2-12.3,37.8-13.1" />
		<path class="st1" d="M653.2,758.9c1.2,0,32-13.2,61.2-25" />
		<path class="st1" d="M693.3,763.2c-21,9-36.9,16.5-38.1,17.1" />
		<path class="st1" d="M773.5,733.3c-8,2.1-17.1,5.1-26.6,8.5" />
		<path class="st1" d="M774,740.1l-1.3-4.4c0,0,3-7.7,1-12.4c-2-4.7-9.4-10.1-13.4-7.7c-2.6,1.5,6-6.4,18.8-7.7
		c12.8-1.3,16.8,3,20.8,11.1s-6.4,19.5-8.1,20.1" />
		<path class="st1" d="M561.6,871.3c0,0,4-15.8,2-23.2c-2-7.4-11.4-15.1-24.2-8.7c-12.8,6.4-12.1,26.9-9.4,29.9
		C532.7,872.3,543.4,880,561.6,871.3z" />
		<path class="st1" d="M220.2,803.5c0,0-10.1,5-18.1,4.7s-19.1-6.4-19.8-14.8c-0.7-8.4,1-15.8,14.1-19.1c13.1-3.4,28.5-6.7,29.2,9.7
		S224.2,802.1,220.2,803.5z" />
		<path class="st1" d="M425,679.6c0,0-42.3,33.6-49.3,34.2" />
		<path class="st1" d="M343.4,730c0,0-20.8,11.7-30.2,11.4" />
		<path class="st1" d="M445.8,683.7c0,0-23.5,25.5-37.6,31.5" />
		<path class="st1" d="M369.2,737c0,0-15.8,11.4-21.5,12.1" />
	</g>
	<g id="Laag_3">
		<path class="st0" d="M559,653.3c10,0,116-82,116-82s15-1,15,2" />
		<line class="st0" x1="642" y1="671.3" x2="690.4" y2="631.5" />
		<path class="st0" d="M315,534.3c3,1,169,30,169,30" />
		<line class="st0" x1="313" y1="568.3" x2="480" y2="597.3" />
		<path class="st0" d="M333.2,710.1c0,0-50.2,8.2-59.2,8.2s-78.9-13.7-78.9-13.7l1-9c0,0-14.2-12.5,0.2-22.7c4.2-3,37.8-4.6,37.8-4.6
		s6.5,12.3,11,20.7c1.3,2.4,90.1,14.2,89.2,15.1L333.2,710.1z" />
		<path class="st0" d="M543,836.3l11-11c0,0-263-49-266-51s-57.9,19.4-61.9,19.4" />
		<polyline class="st0" points="301.8,715.7 302,740.3 570.2,791.5 572,748.3 	" />
		<polyline class="st0" points="281.2,717.5 281,752.3 221,773.3 	" />
		<path class="st0" d="M565,850.3c0,0,25-32,32-32s2-19-2-19s-4,0-4,0l-0.1-49.2" />
		<path class="st0" d="M623,862.3c0,0-14.6,3.6-15.6,7.6s-3.5,15.3,2.5,18.3s18.2,7.2,27.2,6.2c5.9-0.7,19.9-10,21.6-11.1
		c3.1-1.8,6.7-0.9,7.4-2.9c5.3-16.4,0-22,0-22s45.9-83.3,49.9-84.3s14.4,3.5,14.4,3.5s18.7-23.2,18.7-30.2s-16-19-24-18.2
		c-10.5,1.1-31,23.4-32,28.4s2.8,9.8,2.8,9.8l6.7,2.8c0,0-47.2,77.9-49.2,82.9s-6.3,0-6.3,0s-5-8.7-11.6-7.4
		C630.6,846.6,622,856.3,623,862.3z" />
		<path class="st0" d="M395,415c0,4,0,5.3,0,5.3l124,20l19-1" />
		<path class="st0" d="M442.7,429c0,0,15.8,29.4,18.3,45.3c1.5,9.4,31.6,11.1,38.6,10.7c9.2-0.5,26-1.1,26-1.1" />
		<path class="st0" d="M543,483.3c0,0,20.8-1.1,25.8-8.1s8.2-33.1,16.2-35.1" />
		<path class="st0" d="M640.7,436.6c0,0,36.8,21.9,39.2,96.7" />
		<path class="st0" d="M657,436.3c0,0,28.6,22.6,39.6,98.6" />
		<line class="st0" x1="287.2" y1="512.1" x2="286" y2="523.3" />
		<line class="st0" x1="297.5" y1="523.6" x2="298.2" y2="511.4" />
		<path class="st0" d="M732,269.8l10.4-0.7l11.5,2.5c0,0,5.4,11.8-1.1,19.4l-12.5-1.1c0,0-2.2,1.1-1.4,4.7c0.7,3.6,2.9,10.8,2.9,10.8
		l-7.5,0.4c0,0-3.9-12.9-3.2-15.1" />
		<path class="st0" d="M737.3,270.2c0,0,5.7,5,5.7,7.5c0,2.5,0,5.4-0.7,7.5c-0.7,2.2-0.7,4.3-10.4,4.3" />
		<line class="st0" x1="452.4" y1="238.3" x2="469.9" y2="239.7" />
		<path class="st0" d="M450.2,259.8c0,0-0.4,11.8,3.9,14l5.7-0.7c0,0-2.5-10.4-1.4-12.5" />
		<polyline class="st0" points="465.6,260.9 463.5,265.2 458.8,263.4 	" />
	</g>
	<g id="Laag_6">
		<path class="st0" d="M728.7,293.1c-1.3,1.3-97.9-2.2-97.9-2.2s-17.9-1.4-25.8-2.5c-7.9-1.1-140.5-29-140.5-29s-2.5-14.3,7.2-16.8
		c9.7-2.5,107.2,15.8,112.9,16.1c5.7,0.4,31.2,2.5,39.4,2.5s91.8,3.6,91.8,3.6s15.1,1.1,15.4,4.3
		C731.6,272.3,731.6,290.3,728.7,293.1z" />
	</g>
	<g id="Laag_7">
		<path class="st0" d="M275.4,618.7c3.7,0.7,192.3,32.7,192.3,32.7" />
		<path class="st0" d="M481.2,654.1c2.7,0,104.1,17.9,104.1,17.9l2.7,79.4" />
		<path class="st0" d="M338,379c6.9,0.8,81.9,17.6,96.5,19.9s120.2,12.3,127.9,12.3c7.7,0,16.1,2.3,16.1,2.3" />
		<path class="st0" d="M703.2,403.5c0,0-48.2-2.3-70.4,0.8s-36.8,2.3-44.4,5.4c-7.7,3.1-16.1,19.9-14.5,27.6" />
		<path class="st2" d="M554.5,384.9c-1.7,1-15.8,0.7-24.5-0.3c-8.7-1-31.6-5-40.6-3.4s-10.4,4-18.5,4.4c-8.1,0.3-20.5-1.3-26.2,0
		c-5.7,1.3-6.7,5.4-4,6c2.7,0.7,46.7,5.7,55.7,5.7s30.2-0.3,45.3-1.7s47.7-3.4,58.4-3.7" />
		<path class="st1" d="M450.9,238.1c0,0-18,0.2-19.6,2.1c-1.7,1.9-0.7,17.7-0.7,19.6" />
		<path class="st1" d="M431.3,240.2c-0.7,0.7-97-5.9-101.2-5.9" />
		<path class="st2" d="M470,242.3c0,0,80.3,13.3,93.3,17c13,3.7,45.3,11.7,51,12.7c5.7,1,1,2,12-0.3c11-2.3,55.7-2.3,63.7-2.3
		s41.2-0.2,41.2-0.2" />
		<path class="st1" d="M728.7,270.5c0,0-85.6-5.5-100.2,0.9c-5.8,2.6-5.7,1-14.2,0.5c-8.5-0.5-126-24.2-144.2-26" />
	</g>
</svg>
