<?xml version="1.0" encoding="utf-8" ?>
<!--
	https://github.com/Duxxie/duxxie-images
	This work is licenced by https://creativecommons.org/licenses/by-sa/4.0/
-->
<svg version="1.1" id="douchekruk-svg" xmlns="http://www.w3.org/2000/svg" xmlns:xlink="http://www.w3.org/1999/xlink" x="0px" y="0px" width="1000px" height="1000px" viewBox="0 0 1000 1000" style="enable-background:new 0 0 1000 1000;" xml:space="preserve">
	<style type="text/css">
	#douchekruk-svg .st0{fill:none;stroke:currentColor;stroke-linecap:round;stroke-linejoin:round;stroke-miterlimit:10;}
</style>
	<g>
		<path class="st0" d="M755.7,225.7c0,0,21.8,1.6,41.5,14.7c16.7,10.7,16.1,8.2,29.2,58.7s20.2,194.2,20.2,194.2l5.9,4.8l1.1,19.7
		l-2.9,7.7l21,211.5c0,0,5.9,1.1,7,4.8s5.9,24.4,5.9,24.4s10.8,6.2,13.4,26.1c0.8,6.6-7.9,10-30,13.1c-24.7,3.9-41.5-1.3-42.1-8.2
		c-1.1-9.5-0.3-28.7,5.9-31c5.2-2,1.5-19,1.5-19l5.1-7.7l-23.8-212.2l-6.6-7l-1.8-17.9l3.6-7c0,0-12.5-167.5-14.3-174.7
		c-1.8-7-14.3-40.3-21.3-43.4s-48.3-33.8-62.1-29" />
		<path class="st0" d="M398,296.8c0,0-30.2,16.1-40.1,42.3c-10.2,26.1-22,30.8-27.9,124.7c-4.8,82.6-12.5,140.1-14.3,153.2
		c0,1.8-0.7,2.3-0.7,2.3l4.8,11.3l-0.7,17.9l-6.6,7l-26.4,257.8c0,0,5.9,6.1,5.9,9.5c0,3.6,0,12,1.1,14.9c1.1,2.9,5.4,7.2,7.4,15.4
		c2.5,10,18.8,41.9-32.3,41.9c-6.6,0-41.3-1.5-46.7-14.6s1.8-31.5,8.4-34.4c6.6-2.9,13.1-33.3,13.1-33.3l7.5-2.3l21.6-261.4
		l-6.6-10.2l1.8-14.9c0,0,10.2-6.6,10.7-7.7c0.7-3.6,14.9-203.2,16.6-207.9c1.6-4.8,19.8-91.1,51.8-117.2" />
		<path class="st0" d="M660.2,265c5.4,17.2,8.8,60.3,8.8,60.3s3.6,6.6,5.9,8.4c2.3,1.8,2.9,15.4,2.9,15.4l-2.9,7l31.5,217.4
		c0,0,6.6,4.1,6.6,5.9s2,16.6,2.5,19c0.5,2.5,9.8,1,10.5,11.1c0.7,10.2,2.9,16.4-1.5,18c-3.4,1.1-14.7,4.8-29.7,5.6
		c-15.6,0.5-30.2,1.8-33.8-5.9c-2.9-7.7-1.5-18.5-0.2-19.8c1.6-1.6,8.8-5.9,8.8-5.9l-1.8-20.2l5.4-5.4l-32.1-216.1l-7-7
		c0,0-1.1-11.8-1.1-13.6c0-1.8,1.8-5.9,2.9-8.4c1.1-2.3-6.6-57-6.6-57" />
		<path class="st0" d="M171.7,224.3l-13.1,175l6.1,8.7l-0.7,22.6l-4.8,3.6l-17.5,222.4l7.7,14.3v16.9c0,0,8,6.9,8.7,11.5
		c0.5,4.1,2.9,15.4-1.1,22.6c-4.3,7.2-67.2,3.6-71.9-1.6c-3.6-3.9-2.5-21.6-0.8-23.4c2.6-4.4,6.7-6.2,9-7.4
		c2.9-1.1,6.6-27.9,6.6-27.9l6.6-7.7L126,434.1c0,0-10.2-9.5-9.5-11.8c2.9-10.2-1.1-18.4,9.5-20.8c3.6-0.7,13.1-140.8,13.1-148
		c0-7.7,3.3-52.1,8.7-61" />
		<circle class="st0" cx="685.1" cy="543.9" r="5.9" />
		<circle class="st0" cx="678.6" cy="499.3" r="5.9" />
		<circle class="st0" cx="672" cy="456.5" r="5.9" />
		<circle class="st0" cx="666.6" cy="407.9" r="5.9" />
		<circle class="st0" cx="128" cy="613" r="5.9" />
		<circle class="st0" cx="131.4" cy="568.5" r="5.9" />
		<circle class="st0" cx="135" cy="525.7" r="5.9" />
		<circle class="st0" cx="138.6" cy="477" r="5.9" />
		<path class="st0" d="M871.6,736.9c0,0-25.6,8.8-33.3,1.8" />
		<path class="st0" d="M850.8,525.5c0,0-22.9,11-36.1,5.1" />
		<path class="st0" d="M846.7,493.4c0,0-28.5,11.3-36.9,1.1" />
		<path class="st0" d="M674.9,361.5c0,0-17.9,8.8-30.8,2.9" />
		<path class="st0" d="M669,325.3c0,0-25.6,13.8-33.9,3.6" />
		<path class="st0" d="M156.5,440c0,0-17.2,2.9-30.3-2.9" />
		<path class="st0" d="M159.4,395.9c0,0-23.8,9.5-32.1-1.1" />
		<path class="st0" d="M172.5,88.3c0,0,190.7,0,265.5-8.4c74.9-8.4,261.4-77.8,290.5-74.9c20.2,1.8,137.8,96.8,162.2,116.3
		c23.1,19-7.7,34.4-28.5,46.9c-20.8,12.5-158.6,86.7-191.9,94.4c-58.2,13.6-224,33.9-248.9,33.3c-53.4-1.1-185.3-19-206.1-31.5
		c-20.8-12.5-22.6-7-30.3-21.3c-25.6-46.4-95.7-117.7-99.8-129.5c-4.1-12.5-13.1-23.1,0.7-25.6C129.8,80.6,139.3,88.3,172.5,88.3z" />
		<path class="st0" d="M315.6,614c0,0-19,5.4-36.2-0.7" />
		<path class="st0" d="M312,658.6c0,0-32.1,2.9-40.3-5.4" />
		<path class="st0" d="M106,653c0,0,10.8,9,35.2,2.9" />
		<path class="st0" d="M703.6,571.2c0,0-10.3,9.3-29.8,5.6" />
	</g>
</svg>
