<?xml version="1.0" encoding="utf-8" ?>
<!--
	https://github.com/Duxxie/duxxie-images
	This work is licenced by https://creativecommons.org/licenses/by-sa/4.0/
-->
<svg version="1.1" id="douche-toiletstoel-svg" xmlns="http://www.w3.org/2000/svg" xmlns:xlink="http://www.w3.org/1999/xlink" x="0px" y="0px" width="1000px" height="1000px" viewBox="0 0 1000 1000" style="enable-background:new 0 0 1000 1000;" xml:space="preserve">
	<style type="text/css">
	#douche-toiletstoel-svg .st0{fill:none;stroke:currentColor;stroke-linecap:round;stroke-linejoin:round;stroke-miterlimit:10;}
</style>
	<path class="st0" d="M548.9,228c0.8-32.9,1.2-60.5,0.9-72.3c-1.1-40.1-8.8-60.4-25.1-70.9c-17.9-11.5-40.6-9.3-40.6-9.3l-192.8,2.2
	c0,0-30.1-2.2-51.3-2.2s-20.1,27.9-24.5,39s24.5,64.7,30.1,84.7s4.5,37.9,4.5,37.9" />
	<path class="st0" d="M544,414.1c0,0,4.1-40,2.1-89.1" />
	<path class="st0" d="M529,410.1c1.6-7,3.7-33.1,1.7-82.2" />
	<path class="st0" d="M527.5,415.4" />
	<path class="st0" d="M270,217c0,0-11.1-32.3-17.8-52.4c-6.7-20.1-17.8-40.1-14.5-51.3c3.3-11.1,1.1-20.1,30.1-20.1
	s221.7-0.9,221.7-0.9s23.3,0.6,34.7,19.9c8.8,14.8,7.5,64.3,6.3,101.8" />
	<path class="st0" d="M458.4,488.3c6.3-2.1,46.9-3.1,51.4-13.1c4.5-10,11.4-39.8,13.2-47.9c1.6-7,2.9-11.8,3.7-15.9
	c0.7-3.7,0.8,1,16.9,2.7l29.6,0.2c0,0-2.2,51.3-1.1,54.6c1.1,3.3,6.7,14.5,12.3,15.6c5.6,1.1,104.8,21.2,108.1,21.2
	s30,7.8,37.9,43.5c3.7,16.6,8.2,16.5-1.8,25.4c-10,8.9-69.5,45.3-148.7,53.7c-77.6,8.2-159.4-15.6-159.4-15.6s-16.7-5.6-24.5-10
	c-7.8-4.5-83.6-42.4-118.2-43.5c-34.6-1.1-42.4,10-42.4,2.2s-3.3-124.8-3.3-124.8s34.6,2.2,41.2,2.2s24.5-3.3,24.5-3.3s0-2.2,2.2,10
	c2.2,12.3-2.2,31.2,6.7,39c8.9,7.8,11.8,11.9,21,14.6c10.2,2.9,41.6-2,54.9,0.4c31,5.5,14.2,18.1,14.2,18.1
	c18.9,8.9,85.3,4.6,104.8,14c9.5,4.6,16.6,15.5,55.8,15.5c11.9,0,28.8,0.1,13.2-16.7c-15.6-16.7-65.6-19.6-76.7-20.1
	c-28.3-1.4-44.7-1.8-45.8-7.4C447.2,497.2,448.3,491.7,458.4,488.3z" />
	<path class="st0" d="M429.8,735.4c0,0,66.2,15.5,89.2,58.1c21.3,39.6,22.3,46.5,24.1,51.2c2.3,5.8,27.9,69,37.9,69
	c10,0,121.2-20.8,121.2-20.8s-25-26.7-24.8-48.8c0.4-35.8,44.5-85.4,44.5-85.4s-15.8,3.2-18.5-9.1c-0.6-2.8-18.1-3.5-27.6-0.4
	c-2.9,1-1.1,5.9-2.6,9c-0.5,1.1-26.8,5.7-31.5,2c-7.1-5.5-1.5-24.9-0.4-30.4c1.1-5.6,12.1-29.5,35.5-27.3c23.4,2.2,47-3.9,87.1,67.4
	c40.1,71.3,55.7,142.7,55.7,146c0,3.3-1.1,11.1-11.1,12.3c-10,1.1-241.9,43.5-241.9,43.5s-16.4,2.5-22.2-5.7
	c-9.4-13-51.8-135-62.4-151c-24.6-37.2-59.7-28.2-59.7-28.2" />
	<path class="st0" d="M267.8,338.5l-20.1-93.6c0,0,12.3-17.8,43.5-33.4s59.1-37.9,136-30.1c76.9,7.8,123.7,46.8,126,50.2
	c2.2,3.3,4.5,88.1,0,91.4c-1.2,0.9-10.6,2.4-24.1,4.1c-37.9,4.9-108.5,11.8-124.1,12.6c-21.2,1.1-109.2,5.6-109.2,5.6" />
	<path class="st0" d="M807.7,917.4c0,0-26.6-19.3-46.5-22.3s-50.1-4.7-62.2-1.6" />
	<path class="st0" d="M575.5,970.1c0,0-17.1-91.8-33.6-128.6" />
	<line class="st0" x1="521.8" y1="678" x2="522.1" y2="703.5" />
	<line class="st0" x1="541.3" y1="686.7" x2="541.6" y2="701.5" />
	<path class="st0" d="M385.5,747.8c0,2.7-0.3,19.8-0.3,19.8" />
	<path class="st0" d="M699.2,787.3c0,0-27.6,5.3-27.8,9.2c-0.3,3.9,1.2,3.3,8,5c6.8,1.8,9.8,2.4,9.8,3.3" />
	<path class="st0" d="M547,350.1c0,0,11.7-28.3,27.3-31.6s102.6,21.2,108.1,21.2c5.6,0,18.9-11.1,32.3-1.1
	c13.4,10,21.2,27.9,12.3,31.2c-8.9,3.3-118.2-21.2-126-21.2s-18.9-2.2-23.4,11.1s-6.1,54.3-6.1,54.3" />
	<path class="st0" d="M233.3,435.9c0-6.7,2.1-57.3,16.6-78.5c14.5-21.2,18.9-21.2,32.3-16.7c13.4,4.5,63.5,23.4,74.7,23.4
	s24.5-6.7,31.2,3.3c6.7,10,15.6,26.8,4.5,30.1c-11.1,3.3-94.7-25.6-101.4-25.6c-6.7,0-15.6-1.1-18.9,8.9c-3.3,10-4,57.9-4,57.9" />
	<path class="st0" d="M266.7,559.2c-3.3,8.9-22.3,92.5-20.1,102.6c2.2,10,5.6,40.1,21.2,49c15.6,8.9,117.8,56.1,117.8,56.1" />
	<path class="st0" d="M427.2,616.1c0,0,4.5,134.9,1.1,150.5c-3.3,15.6-10,31.2-16.7,32.3c-6.7,1.1-25.6,5.6-26.8,1.1
	c-1.1-4.5,0-11.1,0-11.1l-140.5-71.3c0,0-8.9-13.4-8.9-16.7s0,3.3,0,3.3s-17.1,7.4-23.5,1.1c-2.3-2.3-2.1-41.2-2.1-41.2
	s12.3,3.3,16.7,3.3s4.5,0,4.5,0s-5.6-26.8,3.3-53.5s12.3-52.4,12.3-52.4" />
	<path class="st0" d="M402.7,607.2c1.1,3.3,5.6,78,5.6,78" />
	<path class="st0" d="M526.4,628.3c0,0-4.5,23.4,6.7,33.4c11.1,10,113.7,52.4,113.7,52.4" />
	<path class="st0" d="M503,625c0,0-4.7,34.2,10,45.7c11.2,8.8,127.1,60.2,127.1,60.2" />
	<line class="st0" x1="708.1" y1="587.1" x2="708.7" y2="707.9" />
	<path class="st0" d="M727,577.1c0,5.6,0,141.6,0,141.6" />
	<line class="st0" x1="543" y1="629.6" x2="542.6" y2="666.6" />
	<line class="st0" x1="551" y1="520.6" x2="542" y2="545.8" />
	<path class="st0" d="M525.3,513.5c1.1,6.7-8.6,25.4-8.6,25.4" />
	<path class="st0" d="M250.5,437.1c0,0,2.8,31.9,8.4,44.1c5.6,12.3,11.1,35.7,30.1,37.9c18.9,2.2,61.2,11,80.3,16.7
	c33.8,10.1,36.2,38.2,40.1,58c3.1,15.6-3.3,14.2-3.3,14.2" />
	<path class="st0" d="M293.4,373.1c0,6.7,2.3,51.1,1.1,61.1" />
	<path class="st0" d="M274.5,377c0,0,3.3,48.4,0,60.7" />
	<path class="st0" d="M747,742.1c0-3.6,0-42.3,0-42.3s-6.8,8.7-19.6,0.9" />
	<path class="st0" d="M727,641c0,0,4.1,3.2,10,3.6c3.8,0.3,7.9,0,9.6-0.8c0.9-0.5,1.2-1.1,0.4-1.9C744.7,639.6,733.3,636.9,727,641z" />
	<line class="st0" x1="747.4" y1="642.8" x2="747" y2="699.7" />
	<path class="st0" d="M409.6,786.7c0-3.6,0.9-39.6,0.9-39.6s-11.4,9.6-24.1,1.8" />
	<path class="st0" d="M389.5,685.6c0,0,4.1,3.2,10,3.6c3.8,0.3,7.9,0,9.6-0.8c0.9-0.5,1.2-1.1,0.4-1.9
	C407.3,684.3,395.9,681.5,389.5,685.6z" />
	<line class="st0" x1="410" y1="687.4" x2="409.6" y2="748.5" />
	<line class="st0" x1="387.7" y1="749.8" x2="389.1" y2="686.1" />
	<path class="st0" d="M213.1,607.8c0,0,3.5,2.7,8.6,3.1c3.3,0.3,6.7,0,8.2-0.7c0.8-0.4,1-0.9,0.4-1.6
	C228.3,606.6,218.5,604.3,213.1,607.8z" />
	<line class="st0" x1="230.6" y1="609.4" x2="231.5" y2="624.6" />
	<line class="st0" x1="212.7" y1="608.2" x2="212.4" y2="664.7" />
	<path class="st0" d="M407.8,799.9c-0.9,1.4-1.8,36.2-1.8,36.2" />
	<line class="st0" x1="386.8" y1="802.6" x2="385.4" y2="839.1" />
	<line class="st0" x1="231.2" y1="706.5" x2="230.2" y2="745.3" />
	<line class="st0" x1="212.4" y1="706.6" x2="212.9" y2="746.2" />
	<path class="st0" d="M224.7,774.8c4.1,4.4,17.4,34.9,8.6,56.9c-7,17.7-17.3,24.3-26.4,22.9c-9.1-1.4-23.2-7.3-29.6-36
	c-6.4-28.7,5.7-48.1,13.5-52.6" />
	<path class="st0" d="M208.7,790.8c0,0,7.3,13,6.4,29.5c-0.9,16.2-4.1,20.1-10.4,24.2c-6.4,4.1-22.8-9.1-25.5-30.1s4.4-39.4,11-38.3" />
	<path class="st0" d="M234.5,796.1c2.3-1.4,4.3-8.5,5.2-13.1s0.9-29.6-0.9-36.9s-5.5-10-8.2-2.3c-2.7,7.7-8.2,6.8-15,5.9
	s-4.1-5.5-4.1-5.5s-8.7,0.5-13.7,1.8c-5,1.4-29.1,10-25,11.4c2.7,0.9,16.4,2.3,19.1,10.5s-3.2,8.7-5,14.6
	c-1.8,5.9-4.1,28.2-3.6,34.2c0.5,5.9,2.7,14.1,7.3,9.6s17.9-42.1,24.6-48.3c5.9-5.5,11.4-8.2,16.4-5.9c5,2.3,7.3,10.2,7.3,13.3" />
	<path class="st0" d="M399.3,870.4c4.3,4.7,17.4,38.5,8.1,61.7c-7.5,18.7-18.3,25.7-28,24.3s-24.6-7.7-31.4-38.1
	c-6.8-30.4,6-50.9,14.3-55.7" />
	<path class="st0" d="M381.3,888.8c0,0,7.7,13.8,6.8,31.3c-1,17.2-4.3,21.3-11.1,25.7c-6.8,4.3-24.1-9.6-27-31.8
	c-2.9-22.2,4.7-41.7,11.6-40.6" />
	<path class="st0" d="M407.7,894.5c2.4-1.4,5.5-9,6.5-13.8c1-4.8,1-31.4-1-39.1c-1.9-7.7-5.8-10.6-8.7-2.4s-8.7,7.2-15.9,6.3
	s-4.7-8.7-4.7-8.7s-8.8,3.4-14.1,4.8c-5.3,1.4-30.9,10.6-26.5,12.1c2.9,1,17.4,2.4,20.3,11.1s-3.4,9.2-5.3,15.4
	c-1.9,6.3-4.3,29.9-3.9,36.2c0.5,6.3,2.9,15,7.7,10.1c4.8-4.8,19-44.6,26.1-51.1c6.3-5.8,12.1-8.7,17.4-6.3
	c5.3,2.4,7.7,10.8,7.7,14.1" />
	<path class="st0" d="M481.4,755.5c1.6-17.8,9.9-29.5,16-33" />
	<path class="st0" d="M532.1,730.7c9.2,5.7,17,34.9,12.5,59.5c-2.1,11.5-8.8,18.4-15,21.7" />
	<path class="st0" d="M484.7,757c1.4-14.3,6.8-24.5,11.9-23.7" />
	<path class="st0" d="M516.3,748.8c0,0,7.7,13.8,6.8,31.3c-0.6,9.8-0.3,11.7-2.6,15.5" />
	<path class="st0" d="M504.1,773.1c6.2-13.7,14.2-33.4,19-37.8c6.3-5.8,12.1-8.7,17.4-6.3c5.3,2.4,7.7,10.8,7.7,14.1" />
	<path class="st0" d="M543.6,754.2c2.4-1.4,4.6-8.7,5.6-13.5c1-4.8,1.4-27.4-0.5-35.1c-1.9-7.7-4.7-5-8.4-2.7
	c-7.3,4.7-9.4,3.6-16.7,2.6c-7.2-1-4.3-5.8-4.3-5.8s-9.2,0.5-14.5,1.9c-5.3,1.4-30.9,10.6-26.5,12.1c2.9,1,17.4,2.4,20.3,11.1
	s-3.4,9.2-5.3,15.4c-1.1,3.5-2.3,12.3-3.1,20.6" />
	<path class="st0" d="M384.8,800c0,0-17.5-0.8-21.6-3.5c-7.3-4.9-10.4-15.8-3-18.3" />
</svg>
