<!--
	https://github.com/Duxxie/duxxie-images
	This work is licenced by https://creativecommons.org/licenses/by-sa/4.0/
-->
<svg version="1.1" id="douche-toiletvoorziening-zelfrijder-svg" xmlns="http://www.w3.org/2000/svg" x="0px" y="0px" width="1000px" height="1000px" viewBox="0 0 1000 1000" xml:space="preserve">
  <style>
    #douche-toiletvoorziening-zelfrijder-svg .st0{fill:none;stroke:currentColor;stroke-linecap:round;stroke-linejoin:round;stroke-miterlimit:10;}
  </style>
  <path class="st0" d="M255.3 60.5c0 0 13.5-30.1 26.6-35.5 4.6-1.9 216.9.3 216.9.3s5.4 0 18.2 8.6c12.9 8.6 33.2 22.5 33.2 22.5s13.9 6.4 16.1 21.4 4.3 85.8 6.4 95.4c2.1 9.6 6.4 18.2-2.1 23.6-8.6 5.4-288.4 28.9-288.4 28.9s-24.7 0-24.7-17.2S246.7 68.9 255.3 60.5zM322.9 407.1c30-4.3 228.4-46.1 248.8-41.8 20.4 4.3 204.8 62.2 204.8 62.2s24.7 10.7 25.7 23.6c1.1 12.9 6.4 21.4-6.4 27.9-12.9 6.4-99.7 32.2-99.7 32.2l-68.3-22.1c0 0 3-8.6-2.4-14.3-13-13.8-52.5-35.4-105.1-39.7-52.5-4.3-82.6-1.1-82.6 5.4 0 6.4 8.6 15 25.7 16.1s76.1-1.1 86.8 1.1 16.1 2.1 34.3 10.7c18.2 8.6 40.7 21.6 41.7 35.6s3.5 22.4-4 24.7c-19.8 6-123.5 29.9-131 29.9-7.5 0-86.7-37.6-86.7-37.6M621 879.9c12.4-1.9 225.2-93.3 229.5-93.3s5.4-8.6 18.2-6.4c12.9 2.1 59 18.2 59 25.7s9.6 21.4 2.1 32.2S740 935.7 720.7 936.7c-19.3 1.1-70.8-3.2-91.1-12.9s-25.7-17.2-25.7-17.2l-1.1-13.9C602.8 892.8 607.1 882.1 621 879.9zM613.5 233.4c0 0 5.4-13.9 9.6-16.1s124.4 5.4 131.9 5.4 13.9 6.4 13.9 9.6c0 3.2 0 11.8 0 11.8s-12.9 3.2-16.1 3.2S613.5 233.4 613.5 233.4zM242.1 283.5c0 0-.6-16.8 2.6-21.1 3.2-4.3 15-5.4 25.7-6.4 10.7-1.1 93.3 13.9 93.3 13.9s10.5 3.2 12.5 14.2c2.1 11.1 2.1 11.2 0 11.4-9.7.9-34.5 5.5-38.9 5C331.8 299.8 239.4 284.4 242.1 283.5z"/>
  <path class="st0" d="M781.7,484.4c0,0,34.5,4.2,39.8,24.5c5.4,20.4,69.7,277.7,69.7,277.7"/>
  <path class="st0" d="M718.6 504.6c8.6 3.2 89 31.1 89 31.1l48.2 188.7L601.7 607.6M592.1 619.4l188.7 91.1L576 785.6l-51.5-194.1c0 0-15.8-31.9-29.5-33.5M420.4 584.2c3.2 1.1 82.7 41.6 82.7 41.6l60 206.9-160.8-104M396.9 750.2L517 830.6v32.2c0 0 15 11.8 20.4 5.4 5.4-6.4 3.2-22.5 3.2-22.5l25.7 18.2 19.3 45c0 0-9.6 4.3-5.4 15s16.1 9.6 16.1 9.6l22.5-9.6M871.7 781.6l-6.2-23.9L828 735.2l-1.1 22.5c0 0-9.6 3.2-17.2-1.1l-2.1-31.1L580.3 807l24.2 83.3M380.4 509.8L372.9 506.2M627.7 489.2L625.8 500.4"/>
  <path class="st0" d="M619.9 529.3l-18.2 81.5c0 0-32.2 25.7-64.3 26.8M432.5 618.6c0 0 52.3 20 69.5 20M399.8 671.3c5.2 72.1-7.9 124.3-54.2 168.2-47.3 44.9-116.9-14.1-117.3-13.6M382.1 542.7c1.5 7.2 2.9 14.5 4.1 22 4.7 29.8 8.8 57.5 11.5 83.2M138.7 405.6c0 0 27-71.5 82.8-65 50 5.8 124 62.8 155.6 180.8"/>
  <path class="st0" d="M188.1 378.7c43.1-27.5 152.3 21.8 177.8 243.3 24.8 216-82.3 228.6-96.7 220M565.2 289.2c9.9-1.6 20.2-1.7 32.2-.1 94.4 12.9 135.1 123.3 135.1 123.3M476.4 378.2c0 0 16.6-63.6 70.1-84M736 688.9c-20.7 35.9-48.4 69.1-121.4 53.8 0 0-44.8-13-58.7-33.4M762.5 522.9c0 0 4.7 109.1-17.2 149-.2.4-.5.8-.7 1.2"/>
  <path class="st0" d="M565.2 322.7c4.9-1.2 9.2-2 15-2.4 56.8-4.3 99.7 77.2 99.7 77.2M513.8 369.5c0 0 5.4-25.3 32-39.7M714.7 678.5c-.1.3-.3.6-.4.9-50.4 107.2-162.6 16-162.6 16M727.2 511.1c0 0 33.6 54.7-5.5 151.4M255.3 58.5C242.5 8.1 231.8 11.4 220 8.2c-11.8-3.2-52.5 15-52.5 15s1.1 23.6 8.6 25.7c7.5 2.1 48.2-15 48.2-15s7.5 1.1 9.6 25.7c2.1 24.7 23.5 190.2 22.5 197.8M273.6 225.9L277.6 256.9M460.2 23.2c0 0 8.6-7.5 13.9-9.6S520.2 5 520.2 5s27 9.5 28.9 24.7c1.8 13.9 2.2 26.9 2.2 26.9"/>
  <path class="st0" d="M512.7 30.7l10.7-1.1c0 0 10 6 12.1 15.6M549.1 201.3L545 366.3M563.4 199.9c0 0-.2 26.5.8 27.1 5.7 3 50.1 3.3 50.1 3.3M564.6 364.9L565.3 247.3 757.6 261.1 766.3 245.5M279.9 291.5L280.1 365.8M254.5 287.2L259.7 349.2M374.4 296.6c0 0 9.6 7.5 1.1 12.9-8.6 5.4-19.3 1.1-19.3 1.1l-62.1-17M245.8 261c0 0-21.7-2.9-21.7 1.4s-7.5 16-1.1 20.3c6.4 4.3 26.3 3.5 26.3 3.5M695.5 508.5c0 0 8.3-30.7-3.5-44.9-11.8-14.2-92.2-44.9-122.9-49.7s-108.8-11.8-132.4-1.2c-23.6 10.6-3.5 27.2 0 31.9M114.9 493.9c0 0-1.1-105.1 67.5-114.7 68.6-9.6 150.1 115.8 157.6 220.9 7.5 105.1 15 172.6-22.5 218.7-37.5 46.1-95.4 19.3-134-42.9S110.6 581.8 114.9 493.9z"/>
  <path class="st0" d="M131.1 502.9c0 0-.9-98.3 58.2-107.3 59.1-9 129.3 108.3 135.7 206.6s12.9 161.4-19.4 204.6c-32.3 43.1-82.2 18-115.4-40.1S127.4 585.1 131.1 502.9zM541.4 854.6c3.4-1.1 18.8 6.4 18.8 11.6 0 5.3 0 47.3 0 47.3s-18 14.6-42.8 14.6l-31.5 31.5c0 0-9.8 3.4-13.5-7.5-3.8-10.9 5.6-80.3 5.6-80.3s10.5-17.3 37.9-18.4"/>
  <path class="st0" d="M545.5,924.8c0,0,6.8,43.1-1.1,54l-32.6,16.1c0,0-31.1,3.4-48.8-33.4c-17.6-36.7-10.9-63.4-1.5-73.9	c9.4-10.5,15.4-9.8,15.4-9.8"/>
  <path class="st0" d="M512.1 936.8c0 0 4.9 29.6 0 36.8-4.9 7.1-18.3 10.9-27.8 1.5-8.6-8.6-23.8-26.6-22.5-57.4 1.1-26.3 12.8-21 12.8-21M828.1 747.9c.9 0 16.5 6.1 17.7 10.2 1.2 4.2-1.4 30.5-1.4 30.5M807.8 746.3c-3.3 1.2-33.3 6.8-37 12.3-3.7 5.6-3.5 32.6-3.5 32.6s-16.1 1.4-17.7 6.5c-1.6 5.1.2 26.3 1.9 28.2"/>
  <path class="st0" d="M768 768.6c0 0-29.1 9.1-32.6 27.5-3.5 18.4 2.8 34.2 3.5 35.4M844.9 774.2c0 0-7.5 9.1-24.9 7.7-17.5-1.4-41.2-12.3-49.8-23.1M559 888.3c-2.4 1.8-12.4 14.1-36.1 8.4-23.7-5.7-28-14.7-28-14.7L478 871.9M374.8 531.7c-.4-1.4 11-37.8 11-37.8s11-6.7 18.1-.4 6.7 10.6 6.7 10.6l-13 36.3C397.6 540.4 381.5 553 374.8 531.7zM428.4 626.7c0 0 4.6 16.2 5.4 20.9.8 4.7.8 10.2.8 10.2s-34.3 13.3-37.8 12.6c-13.8-2.8-7.1-19.7-7.1-19.7l23.6-7.9"/>
  <path class="st0" d="M397.4 539.3L415 568l17.7 51.2c0 0 0 8.7-9.1 7.9 0 0-2.8-.8-4.7-3.2-2-2.4-13.4-54-13.4-54s-9.9-4.3-13-9.5c-3.2-5.1-7.5-15.8-7.5-15.8M408.7 585.2c0 1.6 1.9 56.5 1.9 56.5M426.6 660.9c0 0 0-17.6-13-18.1M400.2 669.8c0 0 6.1-20.4-9.8-18.8M409.8 504.9c0 0-16.6 7.5-24.8-9.5"/>
</svg>
