<!--
	https://github.com/Duxxie/duxxie-images
	This work is licenced by https://creativecommons.org/licenses/by-sa/4.0/
-->
<svg version="1.1" id="douchestoel-svg" xmlns="http://www.w3.org/2000/svg" x="0px" y="0px" width="1000px" height="1000px" viewBox="0 0 1000 1000" xml:space="preserve">
  <style>
    #douchestoel-svg .st0{fill:none;stroke:currentColor;stroke-linecap:round;stroke-linejoin:round;stroke-miterlimit:10;}
  </style>
  <g>
    <path class="st0" d="M672.6 475.1c0 0 14.7 1.1 27.9 10 11.3 7.1 10.8 5.6 19.7 39.6s13.7 131.1 13.7 131.1l4 3.3.7 13.3-2 5.3 14.1 143c0 0 4 .7 4.7 3.3.7 2.4 4 16.5 4 16.5s7.3 4.3 9.1 17.5c.6 4.4-5.3 6.7-20.2 8.8-16.7 2.7-27.9-.9-28.5-5.6-.7-6.4-.3-19.4 4-21 3.6-1.3 1-12.8 1-12.8l3.4-5.3-16.1-143.4-4.4-4.7-1.3-12.1 2.4-4.7c0 0-8.4-113.2-9.7-118-1.3-4.7-9.7-27.2-14.4-29.4-4.7-2.1-32.6-22.8-41.9-19.5M431 523.2c0 0-20.4 10.8-27.1 28.5-6.8 17.5-14.8 20.8-18.8 84.2-3.3 55.7-8.4 94.7-9.7 103.5 0 1.3-.4 1.6-.4 1.6l3.3 7.7-.4 12.1-4.4 4.7-17.8 174.2c0 0 4 4.1 4 6.4 0 2.4 0 8.1.7 10.1.7 2 3.7 4.8 5 10.4 1.7 6.7 12.7 28.4-21.8 28.4-4.4 0-27.9-1-31.5-9.8s1.3-21.2 5.7-23.2c4.4-2 8.8-22.5 8.8-22.5l5.1-1.6L346 761.2l-4.4-6.8 1.3-10.1c0 0 6.8-4.4 7.1-5.3.4-2.4 10.1-137.3 11.1-140.6 1.1-3.3 13.4-61.6 34.9-79.1M608 501.6c3.7 11.7 6 40.8 6 40.8s2.4 4.4 4 5.7c1.6 1.3 2 10.4 2 10.4l-2 4.7 21.2 147c0 0 4.4 2.7 4.4 4s1.3 11.1 1.7 12.8c.3 1.7 6.7.7 7.1 7.6.4 6.8 2 11.1-1 12.1-2.3.7-10 3.3-20.1 3.7-10.5.3-20.4 1.3-22.8-4-2-5.3-1-12.5-.1-13.4 1.1-1.1 6-4 6-4l-1.3-13.7 3.7-3.7-21.7-145.8-4.7-4.7c0 0-.7-8-.7-9.1 0-1.3 1.3-4 2-5.7.7-1.6-4.4-38.5-4.4-38.5M278 474.3l-8.8 118.2 4.1 5.8-.4 15.3-3.3 2.4-11.8 150.2 5.3 9.7v11.4c0 0 5.4 4.7 5.8 7.7.3 2.7 2 10.4-.7 15.3-2.9 4.8-45.3 2.4-48.6-1.1-2.4-2.7-1.7-14.7-.6-15.8 1.7-3 4.6-4.3 6.1-5 2-.7 4.4-18.8 4.4-18.8l4.4-5.3 13.3-148.4c0 0-6.8-6.4-6.4-8 2-6.8-.7-12.4 6.4-14.1 2.4-.4 8.8-95.1 8.8-99.9 0-5.3 2.3-35.2 5.8-41.2"/>
    <circle class="st0" cx="624.8" cy="690.1" r="4"/>
    <circle class="st0" cx="620.4" cy="660" r="4"/>
    <circle class="st0" cx="616" cy="631.1" r="4"/>
    <circle class="st0" cx="612.4" cy="598.1" r="4"/>
    <circle class="st0" cx="248.5" cy="736.8" r="4"/>
    <circle class="st0" cx="250.8" cy="706.8" r="4"/>
    <circle class="st0" cx="253.2" cy="677.8" r="4"/>
    <circle class="st0" cx="255.6" cy="644.9" r="4"/>
    <path class="st0" d="M750.8 820.5c0 0-17.2 6-22.5 1.3M736.7 677.7c0 0-15.5 7.4-24.4 3.4M734 656c0 0-19.2 7.7-24.9.7M618 566.9c0 0-12.1 6-20.8 2M614 542.4c0 0-17.2 9.3-23 2.4M267.8 620c0 0-11.7 2-20.5-2M269.7 590.2c0 0-16.1 6.4-21.7-.7M278.6 382.3c0 0 128.9 0 179.3-5.7 50.6-5.7 176.6-52.6 196.3-50.6 13.7 1.3 93.1 65.4 109.6 78.5 15.7 12.8-5.3 23.2-19.2 31.6-14.1 8.4-107.2 58.6-129.6 63.7-39.3 9.1-151.4 23-168.2 22.5-36.1-.7-125.2-12.8-139.3-21.2-14.1-8.4-15.3-4.7-20.5-14.4-17.2-31.4-64.7-79.5-67.4-87.5-2.7-8.4-8.8-15.7.4-17.2C249.6 377.2 256.1 382.3 278.6 382.3zM375.2 737.4c0 0-12.8 3.7-24.5-.4M372.8 767.6c0 0-21.7 2-27.2-3.7M235.1 765.2c0 0 7.3 6.1 23.8 2M637.4 708.6c0 0-7 6.3-20.1 3.7"/>
    <path class="st0" d="M541.7,355.1l-16.7-139.8c0,0,20.7-3,53.2-7.8c32.5-5,34.5-41.3,34.5-41.3s-2-27.5-9.8-94.5 c-7.8-67-65-66-65-66c-122.2-4-181.2,13.8-255.2,26.7s-63,61-63,61s12.8,105.3,21.7,141.8s51.2,17.7,51.2,17.7 c2,2,16.7,130,16.7,130"/>
    <path class="st0" d="M519.1 360.9c0-4-15.8-143.8-15.8-143.8l-184.2 28.5 15.8 135.8M397.9 41.9c15.8-5 43.3-7.8 45.3 5s10.8 33.5-7.8 35.5c-18.7 2-60 9.8-60 9.8s-24.7 5-24.7-15.8c0-9-5.8-23.7 10.8-28.5C378.2 42.9 397.9 41.9 397.9 41.9z"/>
  </g>
  <path class="st0" d="M331.9,937.8c0,0,7.3,6.1,23.8,2"/>
</svg>
