<!--
  https://github.com/Duxxie/duxxie-creative-commons
  This work is licenced by https://creativecommons.org/licenses/by-sa/4.0/
-->
<svg version="1.1" id="douchestoel-inklapbaar-svg" xmlns="http://www.w3.org/2000/svg" x="0px" y="0px" viewBox="0 0 1000 1000" xml:space="preserve">
  <style>
    #douchestoel-inklapbaar-svg .st0{fill:none;stroke:currentColor;stroke-linecap:round;stroke-linejoin:round;stroke-miterlimit:10;}
  </style>
  <path class="st0" d="M310.8 675.2L319.9 675.2M319.9 699.7L311.4 700M686.6 677.2L681.2 677.6M686.2 700.2c0 0-3.6-1-5.3.2"/>
  <path class="st0" d="M686.1,700.3l-1.6,99.3c0,0,6.5,4.3,10.3,3.8s12.4-1.6,12.4-3.2c0-1.6,3.2-266.2,3.2-266.2s6.5,1.6,7.6-1.1 c1.1-2.7,2.2-7-1.6-7s-22.2,1.1-22.2,1.1h-10.8"/>
  <path class="st0" d="M683.4 535.6L688.8 536.2 686.5 677.3M311.5 700.3l4 98.6c0 0-8.8 5.1-12.6 4.5-3.8-.5-12.4-1.6-12.4-3.2 0-1.6-3.2-266.2-3.2-266.2s-9.5 1.6-10.6-1.1c-1.1-2.7-2.2-7 1.6-7 3.8 0 25.2 1.1 25.2 1.1l13.6-.3"/>
  <path class="st0" d="M317 536.4L308.8 536.2 310.6 674.9M715.4 525.9c-3.8 0-22.2 1.1-22.2 1.1h-10.8M485.3 359.1l194.4-28c0 0 9.6-1.3 10.9-9.7.9-6 2.4-21.9 2.4-21.9s23.1 6.1 31.6 1.2v78.9c0 0-35.5 5-35.2 0 .4-7.7 1.2-24.3 1.2-24.3s-1.2-4.9-8.5-3.6-113.6 17.6-113.6 17.6M483.4 380.7c0 0-73.2-.1-83 7.4-9.5 7.3-26.7 15.8-25.5 42.5s7.5 61.6 7.5 61.6"/>
  <path class="st0" d="M359.1 491.3c0 0-7.3-54.6-7.3-66.8s10.3-48 43.7-56.2M463.5 128.3h70.4c0 0 21.9 2.4 21.9 14.6s-6.1 17-13.4 18.2-80.1-1.2-80.1-1.2-14.6-7.3-14.6-13.4S450.2 130.7 463.5 128.3z"/>
  <path class="st0" d="M637.2 490.1c0 0 9.7-48.6 2.4-61.9s-4.9-27.9-55.9-34-197.9-26.7-227.1-32.8c-29.1-6.1-45-16.7-46.3-10.6-1.2 6.1.5 26.2.5 26.2s-32 6.2-32 1.4c0-4.9-3.6-80.1-3.6-80.1l32.8 1.2c0 0 .8 20 1.2 24.3.7 6.8 93.1 22.4 160.3 32.8 66.1 10.2 121.4 14.6 134.8 17 13.4 2.4 58.2 15.8 58.3 55.9.1 32.8-4.2 61.8-4.2 61.8M632.2 830.7c1.5 6.2-3.1 48.6-3.1 48.6l5.6 33.4c0 0-21.1 10.8-30.8 0-3.2-3.5 6.5-34 6.5-34l2.5-48M395.5 830.1l.2 22 7.2 43.2c0 0-21.4 11-31.7 2-2.5-2.2 4.9-45.3 4.9-45.3l-1.2-21.9M304.5 298.9c0-1.6 0-2.7 0-3.1.3-16 15.8-17 15.8-17s104.9-5.2 110.5-2.4c71.1 34.9 145.7 1.2 145.7 1.2s102 .2 112.8 1.7c0 0 9.3 2.1 8.7 19.5M693.6 527.5c.7-56.1 1.4-109.1 2-146.3M714.4 534c-3.6 116.6-5.9 227.4-2.4 267.2.3 3.4-3.5 9.5-3.1 11.8 10.9 65.6 8.2 62.7 8.2 62.7s-6.7 3.7-15.3 3.1c-6.1-.4-14.7-2.1-14.6-4.3.4-7.3 5.2-62 5.2-62s-2-4.4-2-9.8M719.5 380.7c-1.6 45.9-3.3 95.9-4.9 145.1"/>
  <path class="st0" d="M280.3 297.9l-1.3-88.3c0 0-4.9-78.9 68-97.1s273.2-9.7 301.1-1.2c27.9 8.5 74.1 31.6 76.5 80.1.6 12.2-.5 53.3-2.4 109M284.8 525.8L282.1 380.1M284.4 535l2.5 265.3 5.5 5-11 62.5c9.7 14.6 39.1 6.2 37.6 1.2-3.6-12.4-8.8-59.4-8.8-59.4l2.3-8.7M306.1 378.6c.9 41.5 2 94.2 3.2 148.4M681 700.6c-.9 53-.9 99.6-2.5 104-3.6 9.7-7.3 25.5-24.3 25.5s-71.6 0-71.6 0-12.3.5-13.5-10.4-13-94.5-55.5-97.2c-41.1-2.6-69.8 5.7-76.7 76-3.6 37.6-12.1 30.4-40.1 30.4s-52.9 3-64.4-7.3c-12.1-10.9-10.9 0-10.9-57.1 0-16.6-.4-39.5-.9-64.7M683 535.9c0 5.9-.2 11.7.3 17.3.6 7.7-1.2 65.4-2.1 124M317.5 526.4c.1-2.6.3-5.6.4-6 .6-3.3-2.2-30.4 37.6-29.1 4.9.2 278-1.2 278-1.2s32.8-3.6 42.5 13.4c4.5 7.9 6.1 15.7 6.7 23.4M320.1 675c-1.2-54-2.9-111.6-3-138.6M409.7 614.6c0 0 8.7 2.2 8.1 8.1-.5 6-4.3 8.1-7.6 8.1-3.2 0-7.6-4.9-7.6-7.6S405.4 615.1 409.7 614.6zM587.2 614.6c0 0 8.7 2.2 8.1 8.1-.5 6-4.3 8.1-7.6 8.1s-7.6-4.9-7.6-7.6S582.8 615.1 587.2 614.6zM498.4 627.1c0 0 8.7 2.2 8.1 8.1-.5 6-4.3 8.1-7.6 8.1-3.2 0-7.6-4.9-7.6-7.6C491.4 633 494.1 627.6 498.4 627.1zM444.9 643.3c0 0 8.7 2.2 8.1 8.1-.5 6-4.3 8.1-7.6 8.1s-7.6-4.9-7.6-7.6S440.5 643.8 444.9 643.3zM552.5 643.3c0 0 8.7 2.2 8.1 8.1-.5 6-4.3 8.1-7.6 8.1-3.3 0-7.6-4.9-7.6-7.6C545.5 649.2 548.2 643.8 552.5 643.3z"/>
</svg>
