<!--
	https://github.com/Duxxie/duxxie-images
	This work is licenced by https://creativecommons.org/licenses/by-sa/4.0/
-->
<svg version="1.1" id="douchestoel-verrijdbaar-svg" xmlns="http://www.w3.org/2000/svg" x="0px" y="0px" width="1000px" height="1000px" viewBox="0 0 1000 1000" xml:space="preserve">
  <style>
    #douchestoel-verrijdbaar-svg .st0{fill:none;stroke:currentColor;stroke-linecap:round;stroke-linejoin:round;stroke-miterlimit:10;}
  </style>
  <path class="st0" d="M228.5 61.7c0 0 11.1 10.6 21.3 7.6 10.1-3 10.3-7.8 10.3-7.8l266.6-49.8c0 0 11.8 5.9 20.7 3s8.9-3 8.9-3L578.5 195c0 0-19.2 14.8-34 11.8s-258.7 54.7-258.7 54.7-4.4 8.9-17.7 8.9c-13.3 0-19.2-11.8-19.2-11.8L228.5 61.7zM313.2 449.1c11.8-3.5 229-50.5 229-50.5s17.6 17.6 29.4 15.3c11.8-2.4 29.4-23.5 35.3-29.4 5.9-5.9 176.5 36.5 176.5 36.5s-28.2 21.2-30.6 30.6c-2.4 9.4-8.2 20 2.4 23.5 10.6 3.5 37.7 2.4 40 7.1 2.4 4.7 7.1 21.2 4.7 24.7s-220 56.5-220 56.5 4.7-25.9-5.9-27.1c-10.6-1.2-23.5 0-23.5 0s-8.3-30.9-47.5-30.9c-9.3 0-29 2.6-25.5 9.7s-166.2-35.3-166.2-35.3 3.8-5.9 5.7-13.9C318.7 458.4 313.2 449.1 313.2 449.1z"/>
  <path class="st0" d="M575.2 241.8L585.7 379.8 604.6 383.3M553.6 240c0 3.5 15.7 156.3 15.7 156.3l-22.4 4.7M288 321.5c1.2 4.7 13.1 126.6 13.1 126.6l12.6 3.5"/>
  <path class="st0" d="M580.3,558.9l-12.1,4.2l-23.7,8.5c0,0,2.4,261.2-1.2,274.1c-3.5,12.9-25.9-1.2-25.9-1.2l1.2-45.9L284.5,683.4 l-1.2,35.3c0,0,0,0-5.9,4.7s-15.3,0-15.3,0s-1.2-67.1-1.2-87.1s14.1-150.6,15.3-171.8s-12-144.2-15.6-150.1"/>
  <path class="st0" d="M312 478.2c-3.3 1.1-7.3 1.8-11 7.5-3.9 6-16.5 129.4-16.5 140 0 10.6 0 30.6 0 30.6l230.6 111.8c0 0 9.4-183.6 5.9-200-3.5-16.5-24.7-50.6-41.2-55.3M781.1 422.2c0 0 32.9 7.1 42.4 21.2s15.3 28.2 20 50.6S840 758.7 840 758.7s-17.6 9.4-22.4 2.4c-4.7-7.1-1.2-49.4-1.2-49.4L570.5 606.9l3.5 36.5c0 0-22.4 4.7-22.4 0s2.4-72.9 2.4-72.9"/>
  <path class="st0" d="M803.4 504.5L821.1 499.8 817.5 679.8 572.8 581 573.5 561.5M763.4 439.8c0 0 36.5 5.9 43.5 16.5 7.1 10.6 8.2 21.2 8.2 21.2l-20 3.5M559.9 537.5l-12.9 4.7c0 0-4.7-18.8-8.2-22.4M572.9 198.3L573.2 203.6M549.7 206.9L550.1 210.4M283.6 721.7L282.4 735.6M261.5 721.8L262.1 736.6M275.9 770.3c4.8 5.2 20.5 41.1 10.1 66.9-8.2 20.8-20.4 28.6-31.1 26.9-10.7-1.6-27.3-8.6-34.8-42.4-7.5-33.8 6.7-56.6 15.9-61.9"/>
  <path class="st0" d="M257.1,789.1c0,0,8.6,15.3,7.5,34.7c-1.1,19.1-4.8,23.6-12.2,28.5c-7.5,4.8-26.8-10.7-30-35.4 s5.2-46.4,12.9-45.1"/>
  <path class="st0" d="M287.5 795.4c2.7-1.6 5.1-10 6.1-15.4 1.1-5.4 1.1-34.8-1.1-43.4s-6.5-11.8-9.6-2.7c-3.2 9.1-9.6 8-17.6 6.9s-4.8-6.5-4.8-6.5-10.2.6-16.1 2.1c-5.9 1.6-34.2 11.8-29.4 13.4 3.2 1.1 19.3 2.7 22.5 12.4 3.2 9.6-3.8 10.2-5.9 17.2-2.1 6.9-4.8 33.2-4.2 40.2.6 6.9 3.2 16.6 8.6 11.3s21.1-49.5 28.9-56.8c6.9-6.5 13.4-9.6 19.3-6.9 5.9 2.7 8.6 12 8.6 15.6M540.1 852.3L538.9 866.2M519.9 848.1L518.6 867.2M532.4 900.9c4.8 5.2 20.5 41.1 10.1 66.9-8.2 20.8-20.4 28.6-31.1 26.9-10.7-1.6-27.3-8.6-34.8-42.4-7.5-33.8 6.7-56.6 15.9-61.9"/>
  <path class="st0" d="M513.6,919.7c0,0,8.6,15.3,7.5,34.7c-1.1,19.1-4.8,23.6-12.2,28.5c-7.5,4.8-26.8-10.7-30-35.4 s5.2-46.4,12.9-45.1"/>
  <path class="st0" d="M544 926c2.7-1.6 5.1-10 6.1-15.4 1.1-5.4 1.1-34.8-1.1-43.4s-6.5-11.8-9.6-2.7c-3.2 9.1-9.6 8-17.6 6.9s-4.8-6.5-4.8-6.5-10.2.6-16.1 2.1c-5.9 1.6-34.2 11.8-29.4 13.4 3.2 1.1 19.3 2.7 22.5 12.4s-3.9 10.2-6 17.2c-2.1 6.9-4.8 33.2-4.2 40.2.6 6.9 3.2 16.6 8.6 11.3s21.1-49.5 28.9-56.8c6.9-6.5 13.4-9.6 19.3-6.9s8.6 12 8.6 15.6M839.8 762L838.6 775.9M817.7 762.1L818.2 776.9M832.1 810.6c4.8 5.2 20.5 41.1 10.1 66.9-8.2 20.8-20.4 28.6-31.1 26.9-10.7-1.6-27.3-8.6-34.8-42.4-7.5-33.8 6.7-56.6 15.9-61.9"/>
  <path class="st0" d="M813.3,829.4c0,0,8.6,15.3,7.5,34.7c-1.1,19.1-4.8,23.6-12.2,28.5c-7.5,4.8-26.8-10.7-30-35.4 s5.2-46.4,12.9-45.1"/>
  <path class="st0" d="M843.7 835.6c2.7-1.6 5.1-10 6.1-15.4 1.1-5.4 1.1-34.8-1.1-43.4-2.1-8.6-6.5-11.8-9.6-2.7-3.2 9.1-9.6 8-17.6 6.9s-4.8-6.5-4.8-6.5-10.2.6-16.1 2.1c-5.9 1.6-34.2 11.8-29.4 13.4 3.2 1.1 19.3 2.7 22.5 12.4 3.2 9.6-3.8 10.2-5.9 17.2-2.1 6.9-4.8 33.2-4.2 40.2.6 6.9 3.2 16.6 8.6 11.3s21.1-49.5 28.9-56.8c6.9-6.5 13.4-9.6 19.3-6.9s8.6 12 8.6 15.6M572.7 644.2L572.4 658.3M553 645.6L553.5 659.3M516 741.4c-5.3-19.5-2.3-37.5 2.8-47.7M564.7 687.9c4.5 4.8 20.7 40.6 11.1 64.5-7.6 19.3-18.8 26.5-28.8 24.9-.6-.1-1.3-.2-2-.4"/>
  <path class="st0" d="M549,707.9c0,0,8,14.2,7,32.1c-1,17.6-4.5,21.9-11.3,26.4"/>
  <path class="st0" d="M545.2 713.3c4.1-8.9 8-16.7 10.8-19.4 6.4-6 12.4-8.9 17.9-6.4s8 11.1 8 14.5M519.8 665.3c-6.7 2.7-12.2 5.5-9.9 6.2 1.3.4 5 1 9 2.3"/>
  <path class="st0" d="M577.1 713.7c2.5-1.5 4.7-9.3 5.7-14.3s1-32.2-1-40.2-6-10.9-8.9-2.5-8.9 7.4-16.3 6.4c-7.4-1-4.5-6-4.5-6s-3 .2-6.7.6M258.3 62.3c-2.9-12.8-26.5-9.6-29.5-2.3M554.9 11.9c-4.2-10.6-24.1-7.6-27.1-.3M542.2 212.7c0 9.4-2.4 12.9 2.4 20 4.7 7.1 20 11.8 31.8 8.2 11.8-3.5 29.7-14.1 34.1-11.8 5.2 2.7.8 6.2 12.8 7.4 21.6 2 173.1 27.9 173.1 27.9s24.7-17.6 15.3-31.8c-9.4-14.1-164.7-32.9-164.7-32.9s-34.1-7.1-35.3 7.1c-.3 3.7-34.3-6.1-34.3-6.1s-5.2 4.6-9.3 7.3C561.9 212 542.2 212.7 542.2 212.7zM245.8 283.7c-1.6 8.9 3.1 27.2 3.1 27.2s154.5 41.8 185.1 40.6c30.6-1.2 17.6-32.9 17.6-32.9S292.8 285.7 292.8 281s-7.8-13.4-7.8-13.4c.8 1.2-13.4 12.4-24.7 9.4-11.2-3-12.3-8.2-12.3-8.2S247.3 275.5 245.8 283.7zM280.1 266.7L280.5 272.1M255.3 266.7L255.8 275.3"/>
</svg>
