<!--
  https://github.com/Duxxie/duxxie-creative-commons
  This work is licenced by https://creativecommons.org/licenses/by-sa/4.0/
-->
<svg version="1.1" id="douche-toiletstoel-svg" xmlns="http://www.w3.org/2000/svg" x="0px" y="0px" width="1000px" height="1000px" viewBox="0 0 1000 1000" xml:space="preserve">
  <style>
    #douche-toiletstoel-svg .st0{fill:none;stroke:currentColor;stroke-linecap:round;stroke-linejoin:round;stroke-miterlimit:10;}
  </style>
  <path class="st0" d="M548.9 228c.8-32.9 1.2-60.5.9-72.3-1.1-40.1-8.8-60.4-25.1-70.9-17.9-11.5-40.6-9.3-40.6-9.3l-192.8 2.2c0 0-30.1-2.2-51.3-2.2s-20.1 27.9-24.5 39 24.5 64.7 30.1 84.7 4.5 37.9 4.5 37.9M544 414.1c0 0 4.1-40 2.1-89.1M529 410.1c1.6-7 3.7-33.1 1.7-82.2"/>
  <path class="st0" d="M270 217c0 0-11.1-32.3-17.8-52.4-6.7-20.1-17.8-40.1-14.5-51.3 3.3-11.1 1.1-20.1 30.1-20.1s221.7-.9 221.7-.9 23.3.6 34.7 19.9c8.8 14.8 7.5 64.3 6.3 101.8M458.4 488.3c6.3-2.1 46.9-3.1 51.4-13.1 4.5-10 11.4-39.8 13.2-47.9 1.6-7 2.9-11.8 3.7-15.9.7-3.7.8 1 16.9 2.7l29.6.2c0 0-2.2 51.3-1.1 54.6 1.1 3.3 6.7 14.5 12.3 15.6 5.6 1.1 104.8 21.2 108.1 21.2s30 7.8 37.9 43.5c3.7 16.6 8.2 16.5-1.8 25.4-10 8.9-69.5 45.3-148.7 53.7-77.6 8.2-159.4-15.6-159.4-15.6s-16.7-5.6-24.5-10c-7.8-4.5-83.6-42.4-118.2-43.5-34.6-1.1-42.4 10-42.4 2.2s-3.3-124.8-3.3-124.8 34.6 2.2 41.2 2.2 24.5-3.3 24.5-3.3 0-2.2 2.2 10c2.2 12.3-2.2 31.2 6.7 39 8.9 7.8 11.8 11.9 21 14.6 10.2 2.9 41.6-2 54.9.4 31 5.5 14.2 18.1 14.2 18.1 18.9 8.9 85.3 4.6 104.8 14 9.5 4.6 16.6 15.5 55.8 15.5 11.9 0 28.8.1 13.2-16.7-15.6-16.7-65.6-19.6-76.7-20.1-28.3-1.4-44.7-1.8-45.8-7.4C447.2 497.2 448.3 491.7 458.4 488.3zM429.8 735.4c0 0 66.2 15.5 89.2 58.1 21.3 39.6 22.3 46.5 24.1 51.2 2.3 5.8 27.9 69 37.9 69 10 0 121.2-20.8 121.2-20.8s-25-26.7-24.8-48.8c.4-35.8 44.5-85.4 44.5-85.4s-15.8 3.2-18.5-9.1c-.6-2.8-18.1-3.5-27.6-.4-2.9 1-1.1 5.9-2.6 9-.5 1.1-26.8 5.7-31.5 2-7.1-5.5-1.5-24.9-.4-30.4 1.1-5.6 12.1-29.5 35.5-27.3 23.4 2.2 47-3.9 87.1 67.4 40.1 71.3 55.7 142.7 55.7 146 0 3.3-1.1 11.1-11.1 12.3-10 1.1-241.9 43.5-241.9 43.5s-16.4 2.5-22.2-5.7c-9.4-13-51.8-135-62.4-151-24.6-37.2-59.7-28.2-59.7-28.2"/>
  <path class="st0" d="M267.8 338.5l-20.1-93.6c0 0 12.3-17.8 43.5-33.4s59.1-37.9 136-30.1c76.9 7.8 123.7 46.8 126 50.2 2.2 3.3 4.5 88.1 0 91.4-1.2.9-10.6 2.4-24.1 4.1-37.9 4.9-108.5 11.8-124.1 12.6-21.2 1.1-109.2 5.6-109.2 5.6M807.7 917.4c0 0-26.6-19.3-46.5-22.3s-50.1-4.7-62.2-1.6M575.5 970.1c0 0-17.1-91.8-33.6-128.6M521.8 678L522.1 703.5M541.3 686.7L541.6 701.5M385.5 747.8c0 2.7-.3 19.8-.3 19.8M699.2 787.3c0 0-27.6 5.3-27.8 9.2-.3 3.9 1.2 3.3 8 5 6.8 1.8 9.8 2.4 9.8 3.3M547 350.1c0 0 11.7-28.3 27.3-31.6s102.6 21.2 108.1 21.2c5.6 0 18.9-11.1 32.3-1.1 13.4 10 21.2 27.9 12.3 31.2-8.9 3.3-118.2-21.2-126-21.2s-18.9-2.2-23.4 11.1-6.1 54.3-6.1 54.3"/>
  <path class="st0" d="M233.3 435.9c0-6.7 2.1-57.3 16.6-78.5 14.5-21.2 18.9-21.2 32.3-16.7 13.4 4.5 63.5 23.4 74.7 23.4s24.5-6.7 31.2 3.3c6.7 10 15.6 26.8 4.5 30.1-11.1 3.3-94.7-25.6-101.4-25.6-6.7 0-15.6-1.1-18.9 8.9-3.3 10-4 57.9-4 57.9M266.7 559.2c-3.3 8.9-22.3 92.5-20.1 102.6 2.2 10 5.6 40.1 21.2 49 15.6 8.9 117.8 56.1 117.8 56.1"/>
  <path class="st0" d="M427.2 616.1c0 0 4.5 134.9 1.1 150.5-3.3 15.6-10 31.2-16.7 32.3-6.7 1.1-25.6 5.6-26.8 1.1-1.1-4.5 0-11.1 0-11.1l-140.5-71.3c0 0-8.9-13.4-8.9-16.7s0 3.3 0 3.3-17.1 7.4-23.5 1.1c-2.3-2.3-2.1-41.2-2.1-41.2s12.3 3.3 16.7 3.3 4.5 0 4.5 0-5.6-26.8 3.3-53.5 12.3-52.4 12.3-52.4M402.7 607.2c1.1 3.3 5.6 78 5.6 78M526.4 628.3c0 0-4.5 23.4 6.7 33.4 11.1 10 113.7 52.4 113.7 52.4"/>
  <path class="st0" d="M503 625c0 0-4.7 34.2 10 45.7 11.2 8.8 127.1 60.2 127.1 60.2M708.1 587.1L708.7 707.9M727 577.1c0 5.6 0 141.6 0 141.6M543 629.6L542.6 666.6M551 520.6L542 545.8M525.3 513.5c1.1 6.7-8.6 25.4-8.6 25.4M250.5 437.1c0 0 2.8 31.9 8.4 44.1 5.6 12.3 11.1 35.7 30.1 37.9 18.9 2.2 61.2 11 80.3 16.7 33.8 10.1 36.2 38.2 40.1 58 3.1 15.6-3.3 14.2-3.3 14.2M293.4 373.1c0 6.7 2.3 51.1 1.1 61.1M274.5 377c0 0 3.3 48.4 0 60.7M747 742.1c0-3.6 0-42.3 0-42.3s-6.8 8.7-19.6.9M727 641c0 0 4.1 3.2 10 3.6 3.8.3 7.9 0 9.6-.8.9-.5 1.2-1.1.4-1.9C744.7 639.6 733.3 636.9 727 641zM747.4 642.8L747 699.7M409.6 786.7c0-3.6.9-39.6.9-39.6s-11.4 9.6-24.1 1.8M389.5 685.6c0 0 4.1 3.2 10 3.6 3.8.3 7.9 0 9.6-.8.9-.5 1.2-1.1.4-1.9C407.3 684.3 395.9 681.5 389.5 685.6zM410 687.4L409.6 748.5M387.7 749.8L389.1 686.1M213.1 607.8c0 0 3.5 2.7 8.6 3.1 3.3.3 6.7 0 8.2-.7.8-.4 1-.9.4-1.6C228.3 606.6 218.5 604.3 213.1 607.8zM230.6 609.4L231.5 624.6M212.7 608.2L212.4 664.7M407.8 799.9c-.9 1.4-1.8 36.2-1.8 36.2M386.8 802.6L385.4 839.1M231.2 706.5L230.2 745.3M212.4 706.6L212.9 746.2M224.7 774.8c4.1 4.4 17.4 34.9 8.6 56.9-7 17.7-17.3 24.3-26.4 22.9-9.1-1.4-23.2-7.3-29.6-36-6.4-28.7 5.7-48.1 13.5-52.6"/>
  <path class="st0" d="M208.7,790.8c0,0,7.3,13,6.4,29.5c-0.9,16.2-4.1,20.1-10.4,24.2c-6.4,4.1-22.8-9.1-25.5-30.1s4.4-39.4,11-38.3"/>
  <path class="st0" d="M234.5 796.1c2.3-1.4 4.3-8.5 5.2-13.1s.9-29.6-.9-36.9-5.5-10-8.2-2.3c-2.7 7.7-8.2 6.8-15 5.9s-4.1-5.5-4.1-5.5-8.7.5-13.7 1.8c-5 1.4-29.1 10-25 11.4 2.7.9 16.4 2.3 19.1 10.5s-3.2 8.7-5 14.6c-1.8 5.9-4.1 28.2-3.6 34.2.5 5.9 2.7 14.1 7.3 9.6s17.9-42.1 24.6-48.3c5.9-5.5 11.4-8.2 16.4-5.9 5 2.3 7.3 10.2 7.3 13.3M399.3 870.4c4.3 4.7 17.4 38.5 8.1 61.7-7.5 18.7-18.3 25.7-28 24.3s-24.6-7.7-31.4-38.1c-6.8-30.4 6-50.9 14.3-55.7"/>
  <path class="st0" d="M381.3,888.8c0,0,7.7,13.8,6.8,31.3c-1,17.2-4.3,21.3-11.1,25.7c-6.8,4.3-24.1-9.6-27-31.8  c-2.9-22.2,4.7-41.7,11.6-40.6"/>
  <path class="st0" d="M407.7 894.5c2.4-1.4 5.5-9 6.5-13.8 1-4.8 1-31.4-1-39.1-1.9-7.7-5.8-10.6-8.7-2.4s-8.7 7.2-15.9 6.3-4.7-8.7-4.7-8.7-8.8 3.4-14.1 4.8c-5.3 1.4-30.9 10.6-26.5 12.1 2.9 1 17.4 2.4 20.3 11.1s-3.4 9.2-5.3 15.4c-1.9 6.3-4.3 29.9-3.9 36.2.5 6.3 2.9 15 7.7 10.1 4.8-4.8 19-44.6 26.1-51.1 6.3-5.8 12.1-8.7 17.4-6.3 5.3 2.4 7.7 10.8 7.7 14.1M481.4 755.5c1.6-17.8 9.9-29.5 16-33M532.1 730.7c9.2 5.7 17 34.9 12.5 59.5-2.1 11.5-8.8 18.4-15 21.7M484.7 757c1.4-14.3 6.8-24.5 11.9-23.7M516.3 748.8c0 0 7.7 13.8 6.8 31.3-.6 9.8-.3 11.7-2.6 15.5"/>
  <path class="st0" d="M504.1,773.1c6.2-13.7,14.2-33.4,19-37.8c6.3-5.8,12.1-8.7,17.4-6.3c5.3,2.4,7.7,10.8,7.7,14.1"/>
  <path class="st0" d="M543.6 754.2c2.4-1.4 4.6-8.7 5.6-13.5 1-4.8 1.4-27.4-.5-35.1-1.9-7.7-4.7-5-8.4-2.7-7.3 4.7-9.4 3.6-16.7 2.6-7.2-1-4.3-5.8-4.3-5.8s-9.2.5-14.5 1.9c-5.3 1.4-30.9 10.6-26.5 12.1 2.9 1 17.4 2.4 20.3 11.1s-3.4 9.2-5.3 15.4c-1.1 3.5-2.3 12.3-3.1 20.6M384.8 800c0 0-17.5-.8-21.6-3.5-7.3-4.9-10.4-15.8-3-18.3"/>
</svg>
