<?xml version="1.0" encoding="utf-8" ?>
<!--
	https://github.com/Duxxie/duxxie-images
	This work is licenced by https://creativecommons.org/licenses/by-sa/4.0/
-->
<svg version="1.1" id="douche-toiletstoel-kantelbaar-svg" xmlns="http://www.w3.org/2000/svg" xmlns:xlink="http://www.w3.org/1999/xlink" x="0px" y="0px" width="1000px" height="1000px" viewBox="0 0 1000 1000" style="enable-background:new 0 0 1000 1000;" xml:space="preserve">
	<style type="text/css">
	#douche-toiletstoel-kantelbaar-svg .st0{fill:none;stroke:currentColor;stroke-linecap:round;stroke-linejoin:round;stroke-miterlimit:10;}
</style>
	<path class="st0" d="M306.7,424.2c0,0-26.1-99.1-34.8-105.6c-8.7-6.5-15.2-35.9-9.8-40.3c3.5-2.8,18.5-28.3,34.8-33.8
	c16.3-5.4,75.1-29.4,137.2-31.6c62.1-2.2,57.7-3.3,75.1,20.7c17.4,24,42.5,140.5,40.3,153.5c-2.2,13.1-15.2,31.9-70.7,40.6" />
	<path class="st0" d="M559.3,363.2c5.9,0,182.9-14.9,185.4-6.2c3.4,12.1,2.6,19-2.4,20.4c-9.9,2.7-24.6,2.6-24.6,2.6
	s34.4,101.9,29,107.3c-5.4,5.4-21.8,10.9-35.9,1.1s-18.2-79.1-41.6-91.8c-25.6-13.9-107.6,3.6-110.8-5.1
	C555,382.8,557.2,363.2,559.3,363.2z" />
	<path class="st0" d="M295.9,428.5c0,0,20.7-7.6,43.6-7.6s127.4-8.7,132.8-2.2c5.4,6.5,8.7,18.5,4.4,24c-4.4,5.4-17.4,8.7-20.7,8.7
	s18.5,67.5,24,81.7c5.4,14.2,13.1,31.6,0,37c-13.1,5.4-33.8,5.4-35.9-4.4s-19.6-77.3-26.1-86c-6.5-8.7-16.3-26.1-35.9-26.1
	c-19.6,0-66.4,12-74,7.6C300.2,456.8,291.5,434,295.9,428.5z" />
	<path class="st0" d="M334,12.6c0,0,44.6-7.6,71.9-7.6c27.2,0,38.1,7.6,41.4,25s13.1,58.8-3.3,65.3c-16.3,6.5-72.9,12-84.9,14.2
	c-12,2.2-50.1,9.8-54.4-4.4c-4.4-14.2-12-64.2-12-64.2s5.4-22.9,17.4-25C322,13.7,334,12.6,334,12.6z" />
	<line class="st0" x1="390.6" y1="215.1" x2="374.2" y2="108.4" />
	<line class="st0" x1="373.2" y1="218.4" x2="354.6" y2="111.7" />
	<path class="st0" d="M483.4,539.3c8.7,0,66.1-13.8,74.8-19.3c8.7-5.4,31.9-15.9,42.8-17s51.9-0.4,75.9,1.8
	c24,2.2,64.2,17.4,71.9,22.9c7.6,5.4,6.5,22.9,3.3,31.6c-3.3,8.7,0.2,21.5-40.3,29.4c-39.8,7.8-74.9,21.3-90.6,30.4
	c-13.9,8-60.9,25.6-99,22.3c-38.1-3.3-145.7-13.5-145.7-13.5s-13.1-10.9-15.2-19.6c-2.2-8.7-14.2-33.8-6.5-35.9s50.1-1.1,58.8-6.5
	c8.7-5.4,26.1-10.9,26.1-10.9" />
	<path class="st0" d="M353.6,586.4c5.4,0,38.1-3.3,91.5,13.1s76.2,31.6,94.7,31.6s106.7-32.7,115.4-35.9c8.7-3.3,87.7-21.8,96.5-35.7
	" />
	<path class="st0" d="M487.4,555.8c21.8-5.4,61-19.5,67.6-19.5s100.2,17.4,100.2,17.4l-80.6,31.6l-89-20" />
	<path class="st0" d="M598.5,698.5c0,0,118.7-47.9,131.7-50.1c13.1-2.2,35.9-18.5,49-8.7s25,72.9,25,79.5c0,6.5,1.1,19.6-22.9,25
	c-24,5.4-62.1,31.6-100.2,42.5c-38.1,10.9-68.6,31.6-78.4,30.5c-9.8-1.1-19.6-12-20.7-21.8c-1.1-9.8-15.2-69.7-15.2-69.7
	S561.5,709.4,598.5,698.5z" />
	<path class="st0" d="M781.4,837.9c3.3,0,30.5-30.5,35.9-34.8c5.4-4.4,13.1-5.4,22.9-4.4c9.8,1.1,37,4.4,41.4,12s8.7,20.7,0,32.7
	c-8.7,12-44.6,35.9-54.4,35.9c-9.8,0-67.5-10.9-67.5-10.9s-10.9-4.4-3.3-12S781.4,837.9,781.4,837.9z" />
	<path class="st0" d="M674.7,892.4c0,0,24.3-6.4,31.9-9.8c5-2.2,10.5-8.7,22.5-7.6s62.1,6.5,64.2,12c2.2,5.4,2,15.9-7.8,19.2
	c-9.8,3.3-54.1,28-73.7,27c-19.6-1.1-63.4-11.3-66.6-15.7c-3.3-4.4-8.7-21.8-8.7-21.8s10.7-6.9,16.1-5.9
	C658.2,890.9,667.1,896.7,674.7,892.4z" />
	<polyline class="st0" points="589.4,579.5 549.5,573.3 550.3,537.5 " />
	<line class="st0" x1="538.2" y1="576.6" x2="549.5" y2="573.3" />
	<line class="st0" x1="557" y1="370.7" x2="549.1" y2="370.7" />
	<line class="st0" x1="558.2" y1="391.5" x2="548.1" y2="391.5" />
	<path class="st0" d="M638,895.8c3.8,1.9,75.9,17.5,84.3,17.5s28.9-3.4,37.2-6.1c8.4-2.7,34.2-13.3,34.5-18.6" />
	<path class="st0" d="M877.5,807c1.9,2.3,6.1,14,3.4,22.8c-1.7,5.6-34.2,32.6-39.1,35.3c-4.9,2.7-7.6,5.7-14.4,6.1s-59.2-7.2-63.4-8
	c-4.2-0.8-9.9-1.1-9.9-2.3" />
	<path class="st0" d="M482.4,646.1c0,4-3.3,30.1,0.7,37c4,6.8,17.1,14.2,22.2,14.2" />
	<path class="st0" d="M527,728.6c-0.1,3-42.1,20.3-41.6-40.4" />
	<path class="st0" d="M653.4,675.6c0,0-18.8-4-20.5-8" />
	<path class="st0" d="M498.7,695.5c0,0,0.5,17.3,13.8,19.8" />
	<path class="st0" d="M258.8,287l-12,2.2c0,0,6.5-10.9-1.1-10.9s-26.1,4.4-26.1,4.4l70.8,437.7c0,0-61,1.1-71.9,1.1s-25-7.6-28.3,1.1
	s2.2,20.7,2.2,20.7s16.3,3.3,25,0c8.7-3.3,53.3-8.7,84.9-5.4c31.6,3.3,121.9,22.9,141.5,44.6c19.6,21.8,32.7,76.2,34.8,81.7
	c2.2,5.4-1.1,16.3-1.1,16.3s25,4.4,29.4-1.1s-1.1-15.2-3.3-29.4s-19.6-49-19.6-49s81.7-15.2,91.5-25" />
	<path class="st0" d="M273.7,432.4c-11-66.6-20.3-121.4-20.3-121.4s-1.1-4.4,8.7-6.5" />
	<path class="st0" d="M571.3,753c-10.9,4.4-84.9,27.2-92.5,27.2c-7.6,0-16.3-4.4-29.4-15.2c-13.1-10.9-115.4-45.7-123-45.7
	c-4.4,0-28.4-139.9-47.6-255.4" />
	<path class="st0" d="M745.8,578.1c0,3.3,16.1,58.4,16.1,58.4" />
	<line class="st0" x1="728.2" y1="585" x2="743.6" y2="643.5" />
	<line class="st0" x1="573.5" y1="635.8" x2="587.6" y2="700.7" />
	<path class="st0" d="M549.9,641.3c0,4.4,23.6,69.2,23.6,69.2" />
	<path class="st0" d="M523.3,415.5c0,0-7.5,3.2-7.5,15.2s22.9,95.8,22.9,95.8" />
	<path class="st0" d="M500.5,423.1c0,3.3,18.5,106.7,18.5,106.7" />
	<path class="st0" d="M337.6,460.1c0,0,11.6,16.3,14.8,28.3s28.3,81.7,28.3,81.7" />
	<path class="st0" d="M361.2,456.9c0,3.3,33,112.5,33,112.5" />
	<path class="st0" d="M479.7,637.6c0,4.4,39.1,89.5,39.1,89.5s36.3,9.5,49.3,4" />
	<path class="st0" d="M642.2,618.6c0,9.8-13,66.5-13,66.5" />
	<path class="st0" d="M615.7,815.1c0.5,1.4,9.2,45,11.9,54.2s2.8,19.8,11.5,23" />
	<path class="st0" d="M598.7,816.4c3.7,11.5,13.8,59.3,13.8,59.3s2.8,28,28,33.1" />
	<path class="st0" d="M784.5,743.7c0.9,2.3,11.8,47.9,14.1,53c2.3,5.1,7.8,11.9,13.3,12.4" />
	<path class="st0" d="M768.2,749.1c0,0,12.4,47.2,18,54c5.5,6.9,10.3,14.3,15.3,16.6" />
	<line class="st0" x1="360.2" y1="605.8" x2="301.9" y2="603.7" />
	<path class="st0" d="M368.9,621.1c-1.5,0-63.9-1.5-63.9-1.5" />
	<path class="st0" d="M223.1,312.7c0,0-7.7,4.2-10.7,17c-3.1,12.8,13.3,95,13.3,95s7.5,25.5,21.5,26.6" />
	<path class="st0" d="M221.4,298.3c0,0-13,5.3-17.2,13.9c-2.8,5.5-9.2,14.3-3.8,54.9c4.1,31,11,66.4,14,72.5
	c3.1,6.1,17.1,28.3,34.5,28.8" />
	<path class="st0" d="M666.1,600.7c0,0-23.8,26.1-92.1,37.8" />
	<path class="st0" d="M472.2,419.6c0,0-19.4,10.2-21,10.2s-116.6,0-156,4.6" />
	<path class="st0" d="M460.4,573.6c-3.6-0.5-9.2-16.9-16.4-41.4c-7.2-24.6-19.4-72.1-15.9-78.3c3.6-6.1,10.2-7.7,15.9-6.1
	c5.6,1.5,9.7,5.6,12.3,4.6" />
	<path class="st0" d="M725.9,493.3c0,0-6.6,3.1-17.9-38.4c-11.3-41.4-23-72.6-16.4-75.2s26,0.3,26,0.3" />
	<path class="st0" d="M259.4,434.9c0,0,9.2,2,11.3,15.3c2,13.3,3.6,17.4-4.1,16.4c-7.7-1-12.8-7.7-13.3-15.3
	C252.8,443.6,251.7,434.4,259.4,434.9z" />
	<path class="st0" d="M271,466.5l11.9-3.9c0,0,7.2-13.8,0.5-22c-6.6-8.2-10.7-8.7-10.7-8.7l-13.3,3.1" />
	<line class="st0" x1="274.7" y1="432.6" x2="294.7" y2="430.3" />
	<line class="st0" x1="282.9" y1="462.6" x2="301.3" y2="455.9" />
	<path class="st0" d="M223.4,742.5c-0.3,1.7-1.1,5,0.3,5c1.4,0,20.6,4.4,25.3,7.4c4.7,3,7.7,7.2,6.9,9.9c-0.8,2.8-9.6,6.9-12.7,9.1
	c-3,2.2,2.2,3.6-8.8,0.3c-11-3.3-21.7-6.3-24.5-5s-6.6,1.1-5.2,3.9c0.4,0.8,2.3,3.4,4.8,6.7c6.5,8.5,17.2,21.9,17.2,21.9
	s7.7,8.8,3.3,13.8c-4.4,5-9.4,4.4-18.4-5.8c-9.1-10.2-18.2-23.7-19-28.3c-0.8-4.7-6.1-38.5-5.2-39.6s1.1-3.3,2.5-3.3" />
	<path class="st0" d="M210.8,780.7c0,0,15.4-9.6,27.2,11.8s3.6,34.7-1.1,36.9c-4.7,2.2-25.6-0.6-28.6-22.3" />
	<path class="st0" d="M247.6,772.2c0,0,17.7,14.6,14.9,35.8c-5.5,40.7-41.8,30.3-52.3,16.8s-8.5-21.7-10.2-28.3" />
	<path class="st0" d="M509.7,869.8c5.2-1.1,3.5,16.5,5,16.5s13.5,8.8,18.4,12.4c4.9,3.6,11.2,9.6,10.7,12.9c-0.8,5.5-11,9.8-14,11.3
	c-3.9,1.9,0.1,2.8-11.6-1.1c-11.6-3.9-21.9-12.1-24.8-10.5s-6.5,2.3-5,5.6c0.4,0.9,2.4,4,5.1,7.9c6.9,10.1,18.1,25.8,18.1,25.8
	s8.1,10.4,3.5,16.2c-4.6,5.8-9.9,5.2-19.4-6.8s-19.1-27.9-20-33.4c-0.9-5.5-3.5-47.3-2.6-48.6c0.9-1.3,3.5-6.6,5-6.6" />
	<path class="st0" d="M494.9,926c0,0,16.2-11.3,28.7,13.9c12.5,25.3,3.5,40.5-1.2,43.5c-6.9,4.4-29.6-4.6-32.8-30.2" />
	<path class="st0" d="M533.9,921.3c0,0,18.4,18.4,14.3,43.2c-7.7,45.8-46.8,31.2-55.6,13.2c-8.5-17.4-9.4-24.2-9.1-33.2" />
	<path class="st0" d="M793.2,828c-9.9-10.2-19.3-23-20.2-27.7c-0.9-4.7-5.3-40.3-2.9-42.2" />
	<path class="st0" d="M806.1,751.5c-0.3,1.7-0.6,15,0.9,15s22.5,4.4,27.6,7.4s8.4,7.2,7.5,9.9c-0.9,2.8-10.5,6.9-13.8,9.1
	c-3.3,2.2,2.4,3.6-9.6,0.3c-12-3.3-19.7-6.6-22.7-5.2" />
	<path class="st0" d="M791,830c-0.3-1.2-0.6-2.5-0.8-3.9" />
	<path class="st0" d="M798.8,797.4c0,0,8-3.2,17.9,6.6" />
	<path class="st0" d="M782.3,837.4c-7-11.9-6.8-18.5-5.8-28.4" />
	<path class="st0" d="M833,791.2c0,0,3.5,2.7,7.3,7.4" />
	<path class="st0" d="M798.1,737.9l1.2,6.8c0,0,8.3,1.5,6.1,6.3c-2.2,4.9-10.7,9-16,8" />
</svg>
