<!--
  https://github.com/Duxxie/duxxie-creative-commons
  This work is licenced by https://creativecommons.org/licenses/by-sa/4.0/
-->
<svg version="1.1" id="draaischijf-turner-svg" xmlns="http://www.w3.org/2000/svg" x="0px" y="0px" width="1000px" height="1000px" viewBox="0 0 1000 1000" xml:space="preserve">
  <style>
    #draaischijf-turner-svg .st0{fill:none;stroke:currentColor;stroke-linecap:round;stroke-linejoin:round;stroke-miterlimit:10;}
  </style>
  <path class="st0" d="M472.5 547.9c0 0 71 37.4 74.7 39.6 3.8 2.2 32.8 10.7 35.8 35.1 3.1 24.4-4.6 67.9-4.6 67.9s1.5 19.9-11.4 24.4-42.6 3.8-42.6 3.8-7.6 0-17.5 1.5c-9.9 1.5-13.8 2.2-18.3-6.1-4.6-8.3-12.9-27.5-29-32.8-16-5.3-53.3-30.6-71.7-37.4-18.3-6.8-40.4-12.9-40.4-29s4.6-68.6 4.6-71.7c0-3.1 3.8-18.3 16.8-16 12.9 2.2 18.3 3.1 31.3 2.2 12.9-.7 30.3-3.9 32.6-2.4 2.2 1.5 16 7.9 16 7.9L472.5 547.9zM535 477.6h7.6l1.3-18.5 17.1-.6.7 12.9 9.4-.1.3 5.4.1 1.5.1 1.8.1 10.6c0 0-7.1.8-7.4 1.7-1.4 4.6-1.3 18.3-1.3 18.3l-18.5-.4-1.3-15-9.2-.6M550.9 792.4c0 0 2.6-1 6.3-1.1.4 0 .8 0 1.4 0 5.8.3 13.5 3.3 16.4 16.1 5 22.1-16.1 26.8-22.4 26.8s-12.4-7.1-14-17.1C536.4 805 543.1 794.1 550.9 792.4zM653.9 905.8c-5.4-6-6.3-24 3.8-33.1 10-9 17.8-7.6 23.1-3.6 5.4 4 10 10.1 9 16.9-1 6.7-6.5 28.6-22.2 25.3"/>
  <path class="st0" d="M652.4 907.8c-8.8-1.5-22.4-19.4-9.7-38.5 10.1-15.3 23.1-16.4 32.4-13.1 9.3 3.3 17.1 14.3 18.3 18.3 1.4 4-.4 17.5-4.7 25-5.4 9.6-15 12.1-15 12.1M574.1 822c0 0 8.5-16.3 3.1-27.5-4.9-10.4-20.6-19.6-36.1-9.3-18.3 11.9-13.8 35-12.1 38.1 1.9 3.8 7.1 9.3 12.1 11.4 5 1.9 13.8.8 19.2-.8 5.4-1.7 7.9-4.7 9.9-6.7M493.6 858.7c2.1 0 75.3 11.4 77.7 9.7 9.4-6.9 14-7.6 19.2-4.3 7.9 5.1 14.2 12.6 16.9 15.8 2.8 3.2-7.6 4.9-14.2 5.7s-10-1.4-14-4.7c-1.5-1.4-72.1-3.8-72.1-3.8M529.1 823.9c0 0-9.7 9.7-11 14M538.2 834.4c0 0-1.5 5.3-2.5 5.3"/>
  <path class="st0" d="M464.9 838c0 0-75.8 5.4-97.2 16.4-21.4 11-37.8 18.8-49.9 31.8-12.1 13.1-11.4 35.1-9.7 39.5 1.7 4.3 19.4 30.4 44.7 38.8 0 0 46.3 22.6 95.8 23.3 49.5.7 98.6-4.2 121.4-13.6 22.2-9.3 38.2-21.1 48.3-30.4 8.3-7.6 16-18.5 17.1-18.9 0 0 6 .8 9.6-3.2 3.6-4 20.4-36.9 23.5-38.6s11-1.7 12.1 4c1 5.7-19 34-22.4 36.8s-9.2 8.2-16.8 9.4c-1 .1-2.8 2.2-2.8 2.2s-8.1 10.4-16 16.8c-8.8 7.1-30.1 29.4-91.3 37.6-49 6.5-111.1 11-164.6-14.4s-56.3-47.4-58.6-49.3M492.2 558.2L505.6 437.6 522.9 445.8 538.5 445.3 527 573.9M509 565.1L522.9 445.8"/>
  <path class="st0" d="M510.2,439.4L542.1,149c0,0-35.4-4.6-48.1-7.5c-12.8-2.9-21.4-12.2-26.1-33.6c-4.6-21.4,15.7-60.8,21.4-69  c5.8-8.1,13.9-31.9,41.7-32.5c27.8-0.6,127-1.1,127-1.1s26.7-4,41.1,23.8s-1.8,68.3-9.3,78.2c-7.5,9.9-23.2,33.6-37.1,39.5  c-13.9,5.8-17.4,7.5-34.2,6.4c-16.8-1.1-49.3-1.8-49.3-1.8l-30.7,293.9"/>
  <path class="st0" d="M545.6 126.5l-44.6-2.9c0 0-9.3-4-12.8-9.3-3.5-5.3 5.3-41.7 12.8-57.9 7.5-16.3 19.7-29 29-29.6 9.3-.6 134.5 1.1 136.3 1.1 1.8 0 7.5-2.4 13.3 6.4 5.8 8.8.6 40-5.8 49.3-6.4 9.3-19.2 37.1-30.1 41.1s-18.6 6.9-34.2 5.8c-15.7-1.1-37.6-2.9-37.6-2.9l.6-10.4h-24.3L545.6 126.5zM477.5 697L458.6 900.1M507.2 876.2l-6.4 37.9c-.6.6-57.2 19.2-51.4 15.8-2.9-3.8-38.1-33.6-38.1-33.6s43.1-5.6 47.4-5.6M507 721c0 0-16.8 183.4-16.8 184.7M494.9 721L474 911.7"/>
  <path class="st0" d="M496 837.7c2.1 0 53.3-1.3 87 16.5s42.9 36.4 46.5 42.5c3.6 6.1 5.3 14.9 6 16.8.3.8 0 2.1 4.4 2.1s9.7-2.1 9.7-2.1M420 936.7c0 0 40 2.8 48.9.4 8.9-2.4 36-23.1 47.8-26.3 11.7-3.2 59-8.1 66.7-7.6 7.6.4 21.8 4.9 26.7 14.2 4.9 9.3-14.2 21.8-31.1 27.9-16.9 6.1-51.8 11-64.3 11.7-12.5.7-18.2-4.9-33.2.8s-62.2 11-77.7 11-34.4-5.3-34.4-13.8C369.4 946.5 400.1 935.2 420 936.7zM462.4 848.1c0 0-34 6.5-42.5 11-8.5 4.4-20.7 12.5-34.7 15.8-14.2 3.2-26.3 6.9-41.7 12.5-15.4 5.7-29.2 12.1-29.9 17.8-.8 5.7 8.1 12.5 21.4 12.9 13.3.4 43.6-2.1 52.6-11.4 8.9-9.3 23.9-15.8 33.6-17.8 9.7-2.1 33.1-3.9 37.5-3.5"/>
  <path class="st0" d="M494.7 848.9c0 0 12.5-2.1 21 0 8.5 2.1 17.5 8.9 17.9 15M494.3 718.4c0-3.9 17.6-83.5 18.3-91.8.7-8.3 6.1-21.4-1.5-27.5-7.6-6.1-7.6-13.8-44.5-36.7-48.9-30.6-103.3-32.9-109.5-32.1M579.2 609.7c0 0-57.4-5.7-63.2-3.8"/>
</svg>
