<!--
	https://github.com/Duxxie/duxxie-images
	This work is licenced by https://creativecommons.org/licenses/by-sa/4.0/
-->
<svg version="1.1" id="draaischijf-svg" xmlns="http://www.w3.org/2000/svg" x="0px" y="0px" width="1000px" height="1000px" viewBox="0 0 1000 1000" xml:space="preserve">
  <style>
    #draaischijf-svg .st0{fill:none;stroke:currentColor;stroke-miterlimit:10;}
  </style>
  <path class="st0" d="M826.5 503c1.4 5.4-1.7 24.4-6.4 39.6-20.1 65.2-150.2 176.1-411.8 176.1S-11.4 602.3 6.9 494.9c0 0 3.1-34.4 45.6-77.4M852.9 464.2c0 0 2.6-6.6 5.9-8.5 3.2-2 38.5-5.9 43.8-5.9 5.2 0 14.4.7 18.3 7.2 3.9 6.6 24.8 73.3 24.8 73.3s2.6 3.9 2 11.2"/>
  <path class="st0" d="M424.1,468c0,0,21.5,0.1,24.7,11.6c2.6,9.4-11.6,11.8-22.5,12.4c-10.9,0.6-22.8-1.7-26.1-7.2	C396.4,478.5,401.6,469.3,424.1,468z"/>
  <path class="st0" d="M376.9,293.6c30.3-4,375.3-24.8,444.6,176.6c72,209.4-657.9,364.9-799,60.2C22.5,530.2-49.3,351.1,376.9,293.6z"/>
  <path class="st0" d="M423.2 474.1c0 0 12.4-.2 14.7 5.9 2.3 6.1-7 7.9-13.3 8.2s-14.3-2.8-14.3-6.3C410.3 478.3 410.8 474.3 423.2 474.1zM437.7 490.6L438.1 483.8M410.5 490.6L410.5 480.4M775.9 393c6.6 2.6 54.9 13.1 81.1 15.6 26.1 2.6 78.4 3.9 94.2 18.3s43.1 123 43.1 128.1c0 5.2 0 10.5-15.6 13.1-15.6 2.6-168.7 29-168.7 29s24.6-41.9 26.3-68.4c3.3-51.3-13.8-81.7-32.9-105.4-19.1-23.7-15.8-16.4-22.4-24.4M5.3 512.9c-1.2 12.8 1.5 51.4 1.5 56.7 0 5.2 25.5 150.6 321 178.1 295.5 27.5 455.3-96.7 477.6-130.7"/>
  <path class="st0" d="M869.3 531.6c-.7-2-14.4-60.9-15.1-63.4-.7-2.6-6.6-26.1 15.1-28.1 36.8-3.3 48.4-5.2 60.2 14.4 11.7 19.7 19 73.3 19 73.3s6.6 14.4-8.5 22.9c-15.1 8.5-35.3 11.2-46.5 8.5C882.4 556.5 875.8 551.9 869.3 531.6zM794.5 617.7L987.2 580.7 995 557.2"/>
</svg>
