<!--
	https://github.com/Duxxie/duxxie-images
	This work is licenced by https://creativecommons.org/licenses/by-sa/4.0/
-->
<svg version="1.1" id="driewielfiets-svg" xmlns="http://www.w3.org/2000/svg" x="0px" y="0px" width="1000px" height="1000px" viewBox="0 0 1000 1000" xml:space="preserve">
  <style>
    #driewielfiets-svg .st0{fill:none;stroke:currentColor;stroke-linecap:round;stroke-linejoin:round;stroke-miterlimit:10;}
  </style>
  <path class="st0" d="M477.3 692.4c6.5-6 17.8-22.7 17.5-33.2-.6-23.2-15.9-39.1-32.7-48.5-16.8-9.6-136.6-37.9-136.6-37.9s-7.3-16.4-7.9-19.1M280.8 598.8c0 0 9.5 20.9 18.3 39.6 0 0-6.1-.3-10.1 0-4 .4-9.3 1.3-10.4 6-1 4.7-2.7 13.1 5.4 16.4s20.2 3.8 27.1 6c5.9 1.9 113.1 31.4 132.3 34.6 7.7 1.3 13.4.9 17.9-.3M222.5 589L263.2 594M302.9 538.4c-3.2 0-39.7-6.9-39.7-6.9M235.3 526.3c-4 0-40-4.9-40-4.9M712.2 541.8c4-.8 52.6-6.9 67-6 14.3.9 54.8 5.6 55.6 10.4.8 4.7-2.6 2.6-8.2 6.5-5.6 4-9.2 12.5-13.3 14.2s-14.3-4.7-24.7-7.2c-10.4-2.4-26-6.4-43-4.7-11.3 1.2-41.4 9.2-42.1 12.4"/>
  <path class="st0" d="M824.6,557.3c0,0,109.9,23.9,157.8,165.7c47.8,141.8-52.6,210.3-95.5,213.5c-43,3.2-148.2,7.2-227.8-133.8	c0,0-27.3-71.6-27-89.3c0.3-23.1,1.8-90.3,49.6-133.6"/>
  <path class="st0" d="M706.9,584.5c2.4-0.8,68.4-34.6,136,13.2c67.7,47.8,129.9,115.5,113.8,226.1s-110.4,97.2-129.7,96.6	c-18.4-0.5-114.9-33.6-156.2-128.1c-31.1-71.2-21-112.2-18.7-127.7c2.6-17.4,22.3-53.1,34.7-65.6"/>
  <path class="st0" d="M740.5,688.7c0,0,13.2-16.8,34.7-18.3c21.5-1.5,53.4,11.1,66.8,29.5c13.6,18.3,23.1,50.2,18.3,70.9	c-4.7,20.7-16.8,26.3-16.8,26.3l-30.2,16.8"/>
  <path class="st0" d="M748.7 703.9c9.2-7 26.6-10.5 48.1-.1 21.5 10.4 39.8 39.8 39.1 58.9-.8 19.1 1.4 14.2-4 27.9-4.7 11.9-11.1 23.9-32.7 24.7-21.5.8-51.6-15-67.1-52.6-12.8-31.1.8-49.7.8-49.7M678.8 562.9c0 0-22.8 17.9-41.2 52.5-5 9.5-18.3 38.3-17.5 51 .8 12.8 3.2 24.7.8 31.9-2.4 7.2-21.6 27.7-21.6 31.6 0 4 .1 14.5 8.2 9 7.9-5.6 21.6-12.7 24.7-20.7M463.5 551.1c-1.7-10-21-53.8-29.3-65.4-8.3-11.7-19.3-22.5-22.7-23.4M477.7 570.3c.5 6.3.6 11.8-1.4 14-4.1 4.1-11.8 5.8-11.8 0 0-2.8 0-6 0-9.5M401.1 431.9c0 0 29.1 15.2 46.2 42.1 17.5 27.4 30 66.6 29.2 77.5M388.3 445.3c0 0-15.5-11.3-28.8-11.3-13.3 0-27.8-.5-36 6.1M380.1 423.2c0 0-21.8-12.3-47.4-5.1-19.6 5.4-32.3 13.7-35.6 17M201 652.3c0 0 8.2 8.7 15.6 8.7 7.4 0 14.7-10.8 14.7-14.9s-7.2-55.7-13.1-74c-5.8-18.3-29.1-69.8-43.2-84.6-14.1-15-47.4-44.1-69.8-46.5-22.4-2.4-46.4 6.4-52.1 12.2-5.8 5.8-16.5 14.9-20.1 17C28 473.3 9.9 483 9.9 483s9.9-1.4 16.5-1.4c6.7 0 18.1-1 21.4-1 3.3 0 30.6-25.4 63-17.2 17.9 4.5 48.5 19.6 70.6 91.6C203 626 199.8 639.5 201 652.3z"/>
  <path class="st0" d="M43.7,481.5c0,0-33.7,30.6-37.5,80.5C1.9,618.4,7.5,687.5,51,749c46.2,65.2,92.6,40.6,105.8,35.6	c13.3-5,58.9-39.1,59.8-123.7"/>
  <path class="st0" d="M95.9 478.8c5.8.9 58.8 7.4 83.5 108.6 25.2 103 7.2 133.8-10.9 159.9-32.5 47.1-98.1 15.9-119.9-40-21.4-54.7-33.4-127.3-17.9-168.5C46.6 496.4 79.2 476.2 95.9 478.8zM728.6 703.4c0 0-9.6 41.5 5.1 61.1M482.3 554.6L449.3 564.6M422.8 597.2c-9.3-12.2-50.1-61.2-71.5-69.5-21.4-8.3-53-27.3-96.8-33.8M675.7 470.1c-2 4.6-59.8 161.7-69 174.9-18.7 26.8-49.6 44.4-69.2 46.4-19.6 1.9-45.6-.8-55.8-2.7M675.3 374.1c4.4-11.4 6.9-18.1 6.9-18.1s6.5-18.7 12.2-23.3c5.6-4.6 32.7-7.4 38.2-5.6 5.5 1.8 13.1 30.7-6.5 48.4 0 0-9.3 0-13.1-.9-1.4-.4-11.1 26.4-23.2 59.2"/>
  <path class="st0" d="M494.9 658.9c13.1 0 53.1 14 75.6-26.1 15.6-27.9 63.8-151.2 91.6-223.5M300.9 481.3c0 0 25.4 4.2 43 12.7 17.7 8.5 69 48.4 73.6 57.8 4.6 9.3 22.8 45.6 28.4 53.1M369.6 350.3L466.6 613.1M427.8 571.4c0 0-65.7-211.7-68.5-218.2M651.5 302.9L673.8 373.8M689.7 435.4l21.1 85c0 0 12.5 11 19.1 18.8M675.7 469.8c0 3.7 17.7 58.9 17.7 58.9M712.2 541.6c0 0-11.3 8.3-9.5 22.3 1.9 14 8.5 57.8 14.9 73.6s27 63.4 31.6 69.9c4.6 6.5 14.9 31.6 18.7 34.4 3.8 2.8 9.3 0 12.2 4.6 2.8 4.6 3.7 9.3 0 14-3.7 4.6-15.9 3.7-15.9 3.7s-5.6-13.1-4.6-13.1c0 0-41-62.5-53.1-85.8-12.2-23.3-27.9-97.8-27-107.2.9-9.3 14-28.9 14-28.9M745.4 574.8c3.7 1.9 33.7 94.4 33.7 94.4M719.9 580.8L760.5 673.7M328 519.2c0 0-28.6 17.3-36 32.1-7.4 14.9-22.5 32.8-28.3 42.4-6.1 10.1-33.6 17.7-36.4 17.7M347.6 527.2c0 0-3.8 4-26.3 21.6-22.4 17.7-31.2 32.9-39.6 47.9-8.5 14.9-5.1 16-25.7 24.2-23.6 9.5-27.5 6.3-27.5 6.3M305.6 509.2c0 0-34.4 19.2-49.3 25.7-14.9 6.5-33.6 20.5-41 25.2M287 502.5c0 0-41 16.8-51.2 24.2-10.2 7.4-29.8 17.7-29.8 17.7M393.8 464.2c0 0-5.1 19.6-11.7 26.1-6.5 6.5-18.7 12.2-21.4 13.1"/>
  <path class="st0" d="M399.9 480.9c0 8.5-2.8 17.7-9.3 24.2-6.5 6.5-16.3 9.1-16.3 9.1M631.9 307.6c0 0 24.2-3.5 24.2-6.3 0-2.8-10.2-15.2-11.1-20.7-.9-5.6-15.9-54-16.8-61.5-.9-7.4-2.8-23.3-2.8-23.3l35.5-37.3c0 0 10.2.9 18.7 0 8.5-.9 22.4-13.1 33.6-14 11.1-.9 17.7 6.5 22.4 11.1 4.6 4.6 12.2 11.1 15.9 11.1 3.7 0-4.6-9.3-4.6-9.3s-4.2-11.1-10.8-15.8c-6.5-4.6-6.9-3.3-16.3-7-9.3-3.7-6.5-7.9-9.3-9.7-2.8-1.8-14 4.6-14 4.6s-17.5 12.8-17.5 15.5c0 2.7-10.5 1.2-16.9 2.2-4.7.8-27.8-2.9-45.7-10.2-9.2-3.8-13.4-20.6-22.8-24.5-9.3-3.7-38.8-4.6-38.8-4.6s.3-3.6-2.6-9.2c-2.8-5.6-20.6-3.8-30.9-2.9-10.2.9-3.5 5.3-10 7-6.5 1.9-22 1.7-22 1.7s-65.1-.3-67.9-.3v25.2l77.3-2.8c0 0-17.7 5.6-24.2 8.5-6.5 2.8-5.3 8.6.5 4.5 7-5 39.3-4.5 49.6-5.4s5.4 8.7 10 8.7c7.6 0 25.1 3.6 24.2-2.9-.9-6.5 10.4-4.6 18.7-4.6 8.5 0 18.6.1 24.2 6.7 5.6 6.5 31.2 15.4 31.2 15.4s-8.2 9.5-18.7 13.1c-9.3 3.2-7 11.5-7.9 17-.9 5.6 1.5 16.5 1.5 16.5s-2.8 10.2-5.6 12.2c-2.8 1.9.1 23.9.1 31.4 0 7.4 14.9-.6 16.6 4 1.9 4.6 14 32.7 12.3 36.6C630.6 289.5 631.5 304 631.9 307.6zM661 410.4L635.1 306.8M732.6 327.2c0 0-10.2 4.4-14.9 17.2-4.6 12.8 1.3 27.9 5 30M684.2 351.6c0 0-1.7 15.8 5.6 28.3 7.3 12.5 11.9 18.8 11.9 18.8M426.6 640.9c0 0 4.2-4.6 13.3.4 9.1 5 44.9 69 68.1 91 3.8 3.6 0 20.7 0 20.7s-27.1 15.1-33 15.1-29.8-4.1-29.8-6.5-2-11.4-.4-14.7 20.9-10.5 24.2-12.9c3.3-2.4 8.3-4.1 13.3-4.1s-36.6-48.1-40.7-51.9c-4.1-3.6-17.9-17.2-18.8-25.7C422.5 648.6 422.3 645.2 426.6 640.9zM506.3 735.1L482.3 729.9M445.2 555.1l10.4-3.3c0 0 25.1-1.2 26.8 2.9s0 15 0 15l-29.8 7.4M394.5 464.2c0 0-20 1.5-27.5 4.1-7.4 2.4-79.7 15.8-88.9 17.4-9.1 1.7-25 10.8-39.1 10.8s-77.2-23.3-77.2-23.3M391.5 452.9c-5-2.6-131.8-23.7-131.8-23.7L122 446.6M357 287.2c13.4 0 43.2-9.1 53.9-8.3 10.8.8 10.5 21.9 8.8 28.6-1.7 6.7-14.7 8.8-23.1 12.2-9.9 4-16.4 1.4-16.4 5.5 0 4.1-.1 18.8-3.5 22.2-3.3 3.3-20.1 4.7-20.1 4.7l-7.4-14.1c0 0-20.1 5.5-25.1 5.5s-6.4-15.5-13.1-15.5-16.5-.5-19.1-6.7c-2.7-6.4-.3-28.2 8.1-31.5C308.6 286.4 343.5 287.3 357 287.2zM82 610.3c1.8-1 6.8-2.7 12.9 8.2 6.1 10.9 8.8 16.3 4.7 23.8-4.1 7.4-13.6 10.2-18.3 4.1-4.7-6.1-6.1-12.9-6.1-20.4C75.2 618.6 78.7 612.3 82 610.3zM140.4 630L99.7 642.2M127.5 613L95 618.5M106.5 641.5c0 2 8.2 14.2 16.3 19.7 8.2 5.4 17 .6 21.8-2.7 4.7-3.5 12.9-15.6 12.2-27.8-.6-12.2-6.1-39.4-14.2-49.6-8.2-10.2-19.7-9.5-19.7-9.5s-11.5-6.1-17.7 4.7c-6.1 10.9-5.4 36.6-4.7 39.4M175.8 573.7L146.6 591.3M187.3 632.7c-2.7 0-30.6-2-30.6-2M183.2 610.9L153.4 610.3"/>
  <path class="st0" d="M444.9 746.9L472.7 752.8 505.5 737.6M382.2 322.9c0 0-11.3 1.2-21.6.4-10.9-.8-41 9.5-46.5 5.6M392.2 689.3c0 0-25.5 2.9-39.6-1.3-15.9-4.9-30.9-17.4-30.9-17.4M265.2 496.4c0 0-4 8.5-2.7 15.4M283.8 521.5c0 0-.1 10.2 2.3 14.1M277.6 605.5c0 0 2.2 17.4 13.2 32.5M472.7 587.2c0 0-2.4 13.6-5.6 24.7M556 105.9c0 0-1.7-16.3 12.3-18.8 14-2.6 42.4 5.8 36.8 35.1"/>
</svg>
