<?xml version="1.0" encoding="utf-8" ?>
<!--
	https://github.com/Duxxie/duxxie-images
	This work is licenced by https://creativecommons.org/licenses/by-sa/4.0/
-->
<svg version="1.1" id="driewielfiets-svg" xmlns="http://www.w3.org/2000/svg" xmlns:xlink="http://www.w3.org/1999/xlink" x="0px" y="0px" width="1000px" height="1000px" viewBox="0 0 1000 1000" style="enable-background:new 0 0 1000 1000;" xml:space="preserve">
	<style type="text/css">
	#driewielfiets-svg .st0{fill:none;stroke:currentColor;stroke-linecap:round;stroke-linejoin:round;stroke-miterlimit:10;}
</style>
	<path class="st0" d="M477.3,692.4c6.5-6,17.8-22.7,17.5-33.2c-0.6-23.2-15.9-39.1-32.7-48.5c-16.8-9.6-136.6-37.9-136.6-37.9
	s-7.3-16.4-7.9-19.1" />
	<path class="st0" d="M280.8,598.8c0,0,9.5,20.9,18.3,39.6c0,0-6.1-0.3-10.1,0c-4,0.4-9.3,1.3-10.4,6c-1,4.7-2.7,13.1,5.4,16.4
	s20.2,3.8,27.1,6c5.9,1.9,113.1,31.4,132.3,34.6c7.7,1.3,13.4,0.9,17.9-0.3" />
	<line class="st0" x1="222.5" y1="589" x2="263.2" y2="594" />
	<path class="st0" d="M302.9,538.4c-3.2,0-39.7-6.9-39.7-6.9" />
	<path class="st0" d="M235.3,526.3c-4,0-40-4.9-40-4.9" />
	<path class="st0" d="M712.2,541.8c4-0.8,52.6-6.9,67-6c14.3,0.9,54.8,5.6,55.6,10.4c0.8,4.7-2.6,2.6-8.2,6.5
	c-5.6,4-9.2,12.5-13.3,14.2s-14.3-4.7-24.7-7.2c-10.4-2.4-26-6.4-43-4.7c-11.3,1.2-41.4,9.2-42.1,12.4" />
	<path class="st0" d="M824.6,557.3c0,0,109.9,23.9,157.8,165.7c47.8,141.8-52.6,210.3-95.5,213.5c-43,3.2-148.2,7.2-227.8-133.8
	c0,0-27.3-71.6-27-89.3c0.3-23.1,1.8-90.3,49.6-133.6" />
	<path class="st0" d="M706.9,584.5c2.4-0.8,68.4-34.6,136,13.2c67.7,47.8,129.9,115.5,113.8,226.1s-110.4,97.2-129.7,96.6
	c-18.4-0.5-114.9-33.6-156.2-128.1c-31.1-71.2-21-112.2-18.7-127.7c2.6-17.4,22.3-53.1,34.7-65.6" />
	<path class="st0" d="M740.5,688.7c0,0,13.2-16.8,34.7-18.3c21.5-1.5,53.4,11.1,66.8,29.5c13.6,18.3,23.1,50.2,18.3,70.9
	c-4.7,20.7-16.8,26.3-16.8,26.3l-30.2,16.8" />
	<path class="st0" d="M748.7,703.9c9.2-7,26.6-10.5,48.1-0.1c21.5,10.4,39.8,39.8,39.1,58.9c-0.8,19.1,1.4,14.2-4,27.9
	c-4.7,11.9-11.1,23.9-32.7,24.7c-21.5,0.8-51.6-15-67.1-52.6c-12.8-31.1,0.8-49.7,0.8-49.7" />
	<path class="st0" d="M678.8,562.9c0,0-22.8,17.9-41.2,52.5c-5,9.5-18.3,38.3-17.5,51c0.8,12.8,3.2,24.7,0.8,31.9
	c-2.4,7.2-21.6,27.7-21.6,31.6c0,4,0.1,14.5,8.2,9c7.9-5.6,21.6-12.7,24.7-20.7" />
	<path class="st0" d="M463.5,551.1c-1.7-10-21-53.8-29.3-65.4c-8.3-11.7-19.3-22.5-22.7-23.4" />
	<path class="st0" d="M477.7,570.3c0.5,6.3,0.6,11.8-1.4,14c-4.1,4.1-11.8,5.8-11.8,0c0-2.8,0-6,0-9.5" />
	<path class="st0" d="M401.1,431.9c0,0,29.1,15.2,46.2,42.1c17.5,27.4,30,66.6,29.2,77.5" />
	<path class="st0" d="M388.3,445.3c0,0-15.5-11.3-28.8-11.3c-13.3,0-27.8-0.5-36,6.1" />
	<path class="st0" d="M380.1,423.2c0,0-21.8-12.3-47.4-5.1c-19.6,5.4-32.3,13.7-35.6,17" />
	<path class="st0" d="M201,652.3c0,0,8.2,8.7,15.6,8.7c7.4,0,14.7-10.8,14.7-14.9s-7.2-55.7-13.1-74c-5.8-18.3-29.1-69.8-43.2-84.6
	c-14.1-15-47.4-44.1-69.8-46.5c-22.4-2.4-46.4,6.4-52.1,12.2c-5.8,5.8-16.5,14.9-20.1,17C28,473.3,9.9,483,9.9,483s9.9-1.4,16.5-1.4
	c6.7,0,18.1-1,21.4-1c3.3,0,30.6-25.4,63-17.2c17.9,4.5,48.5,19.6,70.6,91.6C203,626,199.8,639.5,201,652.3z" />
	<path class="st0" d="M43.7,481.5c0,0-33.7,30.6-37.5,80.5C1.9,618.4,7.5,687.5,51,749c46.2,65.2,92.6,40.6,105.8,35.6
	c13.3-5,58.9-39.1,59.8-123.7" />
	<path class="st0" d="M95.9,478.8c5.8,0.9,58.8,7.4,83.5,108.6c25.2,103,7.2,133.8-10.9,159.9c-32.5,47.1-98.1,15.9-119.9-40
	c-21.4-54.7-33.4-127.3-17.9-168.5C46.6,496.4,79.2,476.2,95.9,478.8z" />
	<path class="st0" d="M728.6,703.4c0,0-9.6,41.5,5.1,61.1" />
	<line class="st0" x1="482.3" y1="554.6" x2="449.3" y2="564.6" />
	<path class="st0" d="M422.8,597.2c-9.3-12.2-50.1-61.2-71.5-69.5c-21.4-8.3-53-27.3-96.8-33.8" />
	<path class="st0" d="M675.7,470.1c-2,4.6-59.8,161.7-69,174.9c-18.7,26.8-49.6,44.4-69.2,46.4c-19.6,1.9-45.6-0.8-55.8-2.7" />
	<path class="st0" d="M675.3,374.1c4.4-11.4,6.9-18.1,6.9-18.1s6.5-18.7,12.2-23.3c5.6-4.6,32.7-7.4,38.2-5.6
	c5.5,1.8,13.1,30.7-6.5,48.4c0,0-9.3,0-13.1-0.9c-1.4-0.4-11.1,26.4-23.2,59.2" />
	<path class="st0" d="M494.9,658.9c13.1,0,53.1,14,75.6-26.1c15.6-27.9,63.8-151.2,91.6-223.5" />
	<path class="st0" d="M300.9,481.3c0,0,25.4,4.2,43,12.7c17.7,8.5,69,48.4,73.6,57.8c4.6,9.3,22.8,45.6,28.4,53.1" />
	<line class="st0" x1="369.6" y1="350.3" x2="466.6" y2="613.1" />
	<path class="st0" d="M427.8,571.4c0,0-65.7-211.7-68.5-218.2" />
	<line class="st0" x1="651.5" y1="302.9" x2="673.8" y2="373.8" />
	<path class="st0" d="M689.7,435.4l21.1,85c0,0,12.5,11,19.1,18.8" />
	<path class="st0" d="M675.7,469.8c0,3.7,17.7,58.9,17.7,58.9" />
	<path class="st0" d="M712.2,541.6c0,0-11.3,8.3-9.5,22.3c1.9,14,8.5,57.8,14.9,73.6s27,63.4,31.6,69.9c4.6,6.5,14.9,31.6,18.7,34.4
	c3.8,2.8,9.3,0,12.2,4.6c2.8,4.6,3.7,9.3,0,14c-3.7,4.6-15.9,3.7-15.9,3.7s-5.6-13.1-4.6-13.1c0,0-41-62.5-53.1-85.8
	c-12.2-23.3-27.9-97.8-27-107.2c0.9-9.3,14-28.9,14-28.9" />
	<path class="st0" d="M745.4,574.8c3.7,1.9,33.7,94.4,33.7,94.4" />
	<line class="st0" x1="719.9" y1="580.8" x2="760.5" y2="673.7" />
	<path class="st0" d="M328,519.2c0,0-28.6,17.3-36,32.1c-7.4,14.9-22.5,32.8-28.3,42.4c-6.1,10.1-33.6,17.7-36.4,17.7" />
	<path class="st0" d="M347.6,527.2c0,0-3.8,4-26.3,21.6c-22.4,17.7-31.2,32.9-39.6,47.9c-8.5,14.9-5.1,16-25.7,24.2
	c-23.6,9.5-27.5,6.3-27.5,6.3" />
	<path class="st0" d="M305.6,509.2c0,0-34.4,19.2-49.3,25.7c-14.9,6.5-33.6,20.5-41,25.2" />
	<path class="st0" d="M287,502.5c0,0-41,16.8-51.2,24.2c-10.2,7.4-29.8,17.7-29.8,17.7" />
	<path class="st0" d="M393.8,464.2c0,0-5.1,19.6-11.7,26.1c-6.5,6.5-18.7,12.2-21.4,13.1" />
	<path class="st0" d="M399.9,480.9c0,8.5-2.8,17.7-9.3,24.2c-6.5,6.5-16.3,9.1-16.3,9.1" />
	<path class="st0" d="M631.9,307.6c0,0,24.2-3.5,24.2-6.3c0-2.8-10.2-15.2-11.1-20.7c-0.9-5.6-15.9-54-16.8-61.5
	c-0.9-7.4-2.8-23.3-2.8-23.3l35.5-37.3c0,0,10.2,0.9,18.7,0c8.5-0.9,22.4-13.1,33.6-14c11.1-0.9,17.7,6.5,22.4,11.1
	c4.6,4.6,12.2,11.1,15.9,11.1c3.7,0-4.6-9.3-4.6-9.3s-4.2-11.1-10.8-15.8c-6.5-4.6-6.9-3.3-16.3-7c-9.3-3.7-6.5-7.9-9.3-9.7
	c-2.8-1.8-14,4.6-14,4.6s-17.5,12.8-17.5,15.5c0,2.7-10.5,1.2-16.9,2.2c-4.7,0.8-27.8-2.9-45.7-10.2c-9.2-3.8-13.4-20.6-22.8-24.5
	c-9.3-3.7-38.8-4.6-38.8-4.6s0.3-3.6-2.6-9.2c-2.8-5.6-20.6-3.8-30.9-2.9c-10.2,0.9-3.5,5.3-10,7c-6.5,1.9-22,1.7-22,1.7
	s-65.1-0.3-67.9-0.3v25.2l77.3-2.8c0,0-17.7,5.6-24.2,8.5c-6.5,2.8-5.3,8.6,0.5,4.5c7-5,39.3-4.5,49.6-5.4s5.4,8.7,10,8.7
	c7.6,0,25.1,3.6,24.2-2.9c-0.9-6.5,10.4-4.6,18.7-4.6c8.5,0,18.6,0.1,24.2,6.7c5.6,6.5,31.2,15.4,31.2,15.4s-8.2,9.5-18.7,13.1
	c-9.3,3.2-7,11.5-7.9,17c-0.9,5.6,1.5,16.5,1.5,16.5s-2.8,10.2-5.6,12.2c-2.8,1.9,0.1,23.9,0.1,31.4c0,7.4,14.9-0.6,16.6,4
	c1.9,4.6,14,32.7,12.3,36.6C630.6,289.5,631.5,304,631.9,307.6z" />
	<line class="st0" x1="661" y1="410.4" x2="635.1" y2="306.8" />
	<path class="st0" d="M732.6,327.2c0,0-10.2,4.4-14.9,17.2c-4.6,12.8,1.3,27.9,5,30" />
	<path class="st0" d="M684.2,351.6c0,0-1.7,15.8,5.6,28.3c7.3,12.5,11.9,18.8,11.9,18.8" />
	<path class="st0" d="M426.6,640.9c0,0,4.2-4.6,13.3,0.4c9.1,5,44.9,69,68.1,91c3.8,3.6,0,20.7,0,20.7s-27.1,15.1-33,15.1
	s-29.8-4.1-29.8-6.5s-2-11.4-0.4-14.7s20.9-10.5,24.2-12.9c3.3-2.4,8.3-4.1,13.3-4.1s-36.6-48.1-40.7-51.9
	c-4.1-3.6-17.9-17.2-18.8-25.7C422.5,648.6,422.3,645.2,426.6,640.9z" />
	<line class="st0" x1="506.3" y1="735.1" x2="482.3" y2="729.9" />
	<path class="st0" d="M445.2,555.1l10.4-3.3c0,0,25.1-1.2,26.8,2.9s0,15,0,15l-29.8,7.4" />
	<path class="st0" d="M394.5,464.2c0,0-20,1.5-27.5,4.1c-7.4,2.4-79.7,15.8-88.9,17.4c-9.1,1.7-25,10.8-39.1,10.8
	s-77.2-23.3-77.2-23.3" />
	<path class="st0" d="M391.5,452.9c-5-2.6-131.8-23.7-131.8-23.7L122,446.6" />
	<path class="st0" d="M357,287.2c13.4,0,43.2-9.1,53.9-8.3c10.8,0.8,10.5,21.9,8.8,28.6c-1.7,6.7-14.7,8.8-23.1,12.2
	c-9.9,4-16.4,1.4-16.4,5.5c0,4.1-0.1,18.8-3.5,22.2c-3.3,3.3-20.1,4.7-20.1,4.7l-7.4-14.1c0,0-20.1,5.5-25.1,5.5
	s-6.4-15.5-13.1-15.5s-16.5-0.5-19.1-6.7c-2.7-6.4-0.3-28.2,8.1-31.5C308.6,286.4,343.5,287.3,357,287.2z" />
	<path class="st0" d="M82,610.3c1.8-1,6.8-2.7,12.9,8.2c6.1,10.9,8.8,16.3,4.7,23.8c-4.1,7.4-13.6,10.2-18.3,4.1
	c-4.7-6.1-6.1-12.9-6.1-20.4C75.2,618.6,78.7,612.3,82,610.3z" />
	<line class="st0" x1="140.4" y1="630" x2="99.7" y2="642.2" />
	<line class="st0" x1="127.5" y1="613" x2="95" y2="618.5" />
	<path class="st0" d="M106.5,641.5c0,2,8.2,14.2,16.3,19.7c8.2,5.4,17,0.6,21.8-2.7c4.7-3.5,12.9-15.6,12.2-27.8
	c-0.6-12.2-6.1-39.4-14.2-49.6c-8.2-10.2-19.7-9.5-19.7-9.5s-11.5-6.1-17.7,4.7c-6.1,10.9-5.4,36.6-4.7,39.4" />
	<line class="st0" x1="175.8" y1="573.7" x2="146.6" y2="591.3" />
	<path class="st0" d="M187.3,632.7c-2.7,0-30.6-2-30.6-2" />
	<line class="st0" x1="183.2" y1="610.9" x2="153.4" y2="610.3" />
	<polyline class="st0" points="444.9,746.9 472.7,752.8 505.5,737.6 " />
	<path class="st0" d="M382.2,322.9c0,0-11.3,1.2-21.6,0.4c-10.9-0.8-41,9.5-46.5,5.6" />
	<path class="st0" d="M392.2,689.3c0,0-25.5,2.9-39.6-1.3c-15.9-4.9-30.9-17.4-30.9-17.4" />
	<path class="st0" d="M265.2,496.4c0,0-4,8.5-2.7,15.4" />
	<path class="st0" d="M283.8,521.5c0,0-0.1,10.2,2.3,14.1" />
	<path class="st0" d="M277.6,605.5c0,0,2.2,17.4,13.2,32.5" />
	<path class="st0" d="M472.7,587.2c0,0-2.4,13.6-5.6,24.7" />
	<path class="st0" d="M556,105.9c0,0-1.7-16.3,12.3-18.8c14-2.6,42.4,5.8,36.8,35.1" />
</svg>
