<?xml version="1.0" encoding="utf-8" ?>
<!--
	https://github.com/Duxxie/duxxie-images
	This work is licenced by https://creativecommons.org/licenses/by-sa/4.0/
-->
<svg version="1.1" id="duwrolstoel-svg" xmlns="http://www.w3.org/2000/svg" xmlns:xlink="http://www.w3.org/1999/xlink" x="0px" y="0px" width="1000px" height="1000px" viewBox="0 0 1000 1000" style="enable-background:new 0 0 1000 1000;" xml:space="preserve">
	<style type="text/css">
	#duwrolstoel-svg .st0{fill:none;stroke:currentColor;stroke-linecap:round;stroke-linejoin:round;stroke-miterlimit:10;}
</style>
	<path class="st0" d="M360.6,508.9c-14.5-7.4-32.2-17.1-32.2-17.1l-30.5-13.7" />
	<path class="st0" d="M716.7,440.8c0,0-127.5,67.4-140.5,71.7c-13,4.3-134.3,30.3-142.1,30.3c-3.4,0-26.5-11.8-48.4-22.7" />
	<path class="st0" d="M171.5,100.1c6.9,2.6,62.4,4.3,78.9,2.6s144.7-26,151.7-26s54.6-18.2,54.6-18.2l15.6,306.8l20.5-7.8L603.4,400
	c0,0,91.6,28.5,113.2,29.3" />
	<path class="st0" d="M204.3,620.4c18.4,21.7,54.7,77,50.9,171.2c-3.3,82.1-78.5,54.1-112.3,1.7c-23.3-36.2-43.4-86.1-33-155.9
	c8.2-55,48.4-45.9,70.2-35.8" />
	<path class="st0" d="M139.8,634.6c16.9-5.2,68.2,26.9,76.8,125.3c0,0,3.4,105.4-53.8,31.7S119.9,640.7,139.8,634.6z" />
	<path class="st0" d="M448.7,585.9c-6.5-18.6-1.5-33.4,0.5-45.1" />
	<path class="st0" d="M584.6,676.5c-28,34-76.1,8.5-95.9-17.4c-12.3-16.1-23.9-31-34.1-52.3" />
	<path class="st0" d="M598.5,647.7c-2,7.2-3.6,11-6.4,16.3" />
	<path class="st0" d="M568.9,515.1c15.9,21.5,36.8,59.1,34.1,104.9" />
	<path class="st0" d="M469.4,597.2c-6.8-23.2-4.5-46.1-0.7-60.1" />
	<path class="st0" d="M554.1,660.6c-7.7,13.6-38.6,6-52.1-10.8c-9.7-12-18.4-20.9-24.9-31.9" />
	<path class="st0" d="M527.6,525.1c13.4,10,36.9,22.8,39.9,87.8c0,0,1.7,20.7-4.8,35.5" />
	<path class="st0" d="M427.7,858.9c12.7,19.2,29.5,51.4,28.9,83.5c-0.9,46.8-54.6,84.9-102.3,11.3s-32.1-122.2-13.9-133.5
	c14.4-8.9,33.2-11.3,55.9,4.9" />
	<path class="st0" d="M412,875.3c11.1,17.8,20.6,43.5,18.7,78.3c-3.9,68.5-79,2.2-90.1-40.7c-6.4-24.9-20.2-98.1,37.6-71.3
	c1.3,0.6,2.7,1.3,4,2" />
	<path class="st0" d="M712.3,820.7c-13-3.6-26.9-12.8-40.4-29.8c-48-60.5-24.1-106.5-6.5-116c8.1-4.4,19-7.5,31.3-6.8" />
	<path class="st0" d="M751.3,700.1c10.4,15,25.7,44.3,23.3,76.8c-0.4,5.1-1.7,10.2-3.8,15.1" />
	<path class="st0" d="M721.2,813.6c-23.6-3.7-54.7-31.5-63.8-61.3c-6.5-21.4-14.1-91.1,46.1-64c0,0,1.8,0.9,4.6,2.9" />
	<path class="st0" d="M733.7,718.5c9.9,15.6,17.9,37.9,15.7,67.9c-0.5,7-2,12.5-4.3,16.7" />
	<path class="st0" d="M440.7,582l159.1,85.8c0,0-3.4-37.6,0.9-44.5c4.3-6.9,15.3-11.9,29.2-5.8c13.5,5.8,89.2,39.8,89.2,39.8
	l2.6-135.2l-97.1-34.7" />
	<line class="st0" x1="386.2" y1="550.8" x2="419.8" y2="569.9" />
	<line class="st0" x1="304.1" y1="505.6" x2="362" y2="538.7" />
	<path class="st0" d="M362,554.1c-31.1-17.6-57.1-33.7-57.1-33.7" />
	<path class="st0" d="M419.8,586.2c-9.1-5.1-23.2-13.4-31.7-18.2" />
	<path class="st0" d="M441.8,598.6c81.4,45.4,171.5,94.3,174.3,92.5c5.2-3.5,2-38.7,2-52.3c0-7.1,7.1-4.7,10.6-4.7s94,48.3,100.1,50
	c6.1,1.7,12.1,0.9,12.1-0.9c0-1.7-0.9-53.7-0.9-53.7l52.9,16.5l34.7,122.2c0,0,87.5,22.5,88.4,25.1c0.9,2.6,4.3,6.1,13,0.9
	s5.2-19.9,2.6-24.3c-2.6-4.3-94.5-25.1-94.5-25.1s-39.9-149.9-48.5-173.3c-8.7-23.4-47.7-38.1-47.7-38.1s0.9-72.8,3.5-72.8
	c2.6,0,3.5-6.9,3.5-12.1s-13-10.4-13-10.4s1.7-23.4,0-58.9c-1.7-35.5-31.2-45.1-31.2-45.1l-45.9-14.7c0,0,0-31.2,0-39
	s-8.7-25.1-8.7-25.1s7.8-0.9,9.5-13.9c1.7-13-24.3-22.5-24.3-22.5s-112.7-25.1-123.9-23.4c-11.3,1.7-9.5,8.7-9.5,8.7l-13.9,3.5
	c0,0-9.5-147.3-12.1-162.9s-34.7-31.2-34.7-31.2s0,0-2.6-3.5c-2.6-3.5-15.6,4.3-39-1.7c-23.4-6.1-23.4-2.6-27.7,2.6
	c-4.3,5.2,0,20.8,8.7,27.7c8.7,6.9,31.2,3.5,36.4,3.5s13,14.7,19.1,12.1c6.1-2.6,4.3-9.5,4.3-9.5s23.9-0.5,17.3,13.9" />
	<path class="st0" d="M648.1,476.2l65.9,19.9l2.6-113.5c0,0,0-19.9-8.7-25.1s-52-19.1-52-19.1v26.9c0,0-10.4,4.3-14.7,0.9
	c-4.3-3.5-1.7-78-1.7-78s-6.1-27.7-11.3-31.2c-5.2-3.5-117-34.7-122.2-34.7s-17.3-1.7-18.2,3.5c-0.9,5.2,3.5,134.3,3.5,134.3" />
	<path class="st0" d="M740.9,556.8L740,607l44.2,15.6l-12.1-39.9C772.1,582.8,773.8,562.8,740.9,556.8z" />
	<path class="st0" d="M171.4,308.7c2.3,21.6,5.3,41.8,5.3,41.8" />
	<path class="st0" d="M188.2,275.1c-5.8-65.5-14-151.2-17.5-165.5c-6.1-24.3-6.9-19.9-14.7-32.9c-7.8-13-19.1-7.8-21.7-15.6
	c-2.6-7.8-14.7-6.9-22.5-6.9s-19.9-1.7-32.1-5.2s-14.7,0.9-19.1,8.7s6.1,26,12.1,32.1s28.6-1.7,34.7-1.7c6.1,0,11.3,11.3,13.9,15.6
	s-1.7,7.8-2.6,10.4c-0.9,2.6-27.7,12.1-38.1,17.3c-10.4,5.2-7.8,17.3-3.5,17.3s6.9-5.2,7.8-10.4c0.9-5.2,8.7-3.5,20.8-6.9
	c12.1-3.5,9.5-2.6,18.2-1.7c8.7,0.9,14.7-4.3,14.7-4.3s-0.9-21.7,0.9-28.6l0.9-7.8c0,0,8.7,7.8,10.4,20.8c1,7.6,10,92.6,17,158.7" />
	<path class="st0" d="M195.4,359.3c0,0-1.9-22.5-3.6-42.8" />
	<path class="st0" d="M208.8,481.4l3.5,26.9l153.4,78c0,0-5.2-86.7-7.8-97.9c-2.6-11.3-13-35.5-26.9-36.4
	c-13.9-0.9-25.1-8.7-25.1-8.7l0.9,37.3" />
	<path class="st0" d="M450.1,755.4l2.2,61.3c0,0-10.4,5.2-13,3.5" />
	<path class="st0" d="M585.9,939.4l-34.7-12.2l-6.1-2.1l-67.6-213.2c0,0-10.8-26.7-19.8-29.8c-8.2-2.8-11.4-2.4-11.4-2.4l3.4,51.7" />
	<path class="st0" d="M596.9,914.7c0,0,61.6,12.1,64.2,26c2.6,13.9-6.9,24.3-14.7,23.4c-7.8-0.9-60.6-24.7-60.6-24.7" />
	<path class="st0" d="M427,735.4l-3.3-81.6c0,0,0-17.3-8.7-19.1c-8.7-1.7-200.2-104-200.2-104l9.5,112.7" />
	<line class="st0" x1="428.7" y1="764.7" x2="428.1" y2="753" />
	<line class="st0" x1="186.2" y1="470.1" x2="193.4" y2="536.5" />
	<polyline class="st0" points="254.5,744.7 290.2,768.2 391.6,627 " />
	<path class="st0" d="M256.3,770.4l76.4,49.8c0,0,9.5-0.9,10.4-8.7c0.9-7.8,0.9-7.8,0.9-7.8l-6.9-43.3c0,0-1.7-8.7,7.8-6.9
	c9.5,1.7,57.2,35.5,57.2,35.5l0.9,34.7c0,0-28.6,23.4-30.3,31.2c-1.7,7.8-19.1,49.4-18.2,52c0.9,2.6,2.6,27.7,19.9,21.7l26-43.3
	c0,0,26-32.1,32.9-32.9c6.9-0.9,14.7-4.3,14.7,0S437.1,872,437.1,872" />
	<path class="st0" d="M449.1,851.1l-8-24l-3.7-2.2l-3.3-53.3c0,0-5.2-9.5-13.9-8.7c-8.7,0.9-13.2,4.8-13.2,4.8l-55.8-33.1
	c0,0-24.6-8.1-28.1,5.7s-1.9,49.4-1.9,49.4l-13.7-7.8l12.4-13.9" />
	<line class="st0" x1="415" y1="634.8" x2="344.4" y2="733.5" />
	<line class="st0" x1="472.2" y1="365.2" x2="305" y2="414.6" />
	<path class="st0" d="M173.5,330c0,0-27.9,6.6-26.2,10.1c0.1,0.2,0.7,0.6,1.7,1.1c15.5,7.9,132.7,50,132.7,50l2.6,72.8
	c0,0,19.9,19.1,20.8,26.9c0.9,7.8,0,31.2,0,31.2s0,4.3-13,0c-13-4.3-131.7-69.3-131.7-69.3l-13.2-112.5" />
	<path class="st0" d="M493.9,268.2L610,299.4c0,0,13.9,4.3,18.2,4.3s10.4-1.7,10.4-1.7" />
	<path class="st0" d="M637.7,349.6c0,0-4.3-4.3-15.6,0.9c-11.3,5.2,5.2,19.9,9.5,20.8s7.8,14.7,7.8,14.7l0,25.5" />
	<path class="st0" d="M761.3,637.6c0,8.6,0.5,36.7,0.5,36.7s5.9,8.2,6.3,12.7c0.5,4.5,1.8,8.2-1.4,12.2c-3.2,4.1-9.1,10-9.1,10" />
	<path class="st0" d="M718.3,681.6c-1.4,0.5-15.4,12.7-18.1,19c-2.7,6.3-20.4,39.4-20.4,46.7c0,7.3,12.7,22.2,18.6,19
	c5.9-3.2,28.6-40.3,28.6-40.3s16.8-19.9,21.8-24c5-4.1,12.6-13,19.4-6.7" />
	<path class="st0" d="M487.1,747.8l-35.8-17.7c0,0-7.1,12.5-25.8,5c0,0-13.1,2.3-16.3,5s-2.3,8.2-2.3,8.2s50.9,5.1,51.2,9.1
	c0.3,3.9,4.6,9.5,4.6,9.5l34.4,13.6" />
	<path class="st0" d="M576.4,904.6c3.2-1.4,91.1-62.6,91.1-62.6s7.7-8.2,26.7-1.8c19,6.3,74.3,23.1,74.3,23.1s5,2.7,6.3,6.8
	c1.4,4.1,2.3,5.4,0.9,8.2c-1.4,2.7-58,50.3-73,58.9c-15,8.6-43.1,26.4-48.8,26" />
	<path class="st0" d="M831.6,770.9c0,0,3.2-1.4-5.4,1.4c-8.6,2.7-53,18.1-65.3,23.6c-12.2,5.4-45.3,19.9-48,23.6
	c-2.7,3.6-2.3,10-1.8,12.7c0.5,2.7,81.6,25.8,81.6,25.8s15,3.2,19.9,0c5-3.2,96.1-43.1,100.2-44.9s4.1-2.7,4.1-5.4
	c0-2.7-1.4-14.5-1.4-14.5s-51.2,33.5-67.5,39s-33.1,14.5-33.1,14.5s-5.4,5.4-20.4,3.2c-15.1-2.3-77.1-27.6-78.4-28.1" />
	<path class="st0" d="M770.3,867c-4.5,4.5-40.2,40.7-62.4,53.4c-22.2,12.7-45.2,23.1-45.2,23.1" />
	<path class="st0" d="M596.9,914.7l-32.6-11.9l-5.4-2c1.5-0.5-59.4-206.6-76.1-223.5c-15.2-15.5-38.3-23.4-38.3-23.4
	s-2.6-87.5-9.5-89.3c-6.9-1.7-14.7,3.5-14.7,3.5l-0.9,39L389,593.2c0,0-4.3-65-4.3-98.8s-25.1-51.1-25.1-51.1s-49.4-27.7-54.6-28.6
	c-5.2-0.9,1.7-32.9-1.7-51.1c-3.5-18.2-9.5-24.3-9.5-24.3s0,0,2.6-6.1c2.6-6.1-16.5-23.4-16.5-23.4s-84.9-31.2-98.8-37.3
	c-13.9-6.1-24.3-2.6-24.3-2.6s-16.5,7.7-19.1,11.3c0,0-12.1,7.4,1,13.6c0,0,58.1,24.7,76.8,28.7s30.7,16,37.4,21.4
	c6.7,5.3,15.4,6,25.4,4c10-2,15.4-9.5,15.4-9.5" />
	<path class="st0" d="M279.9,390.6c0,0-0.1-32.2-8.1-40.2" />
	<path class="st0" d="M179.3,626.2l35.8-9c0,0-5.6-69.9-6.5-69.5c-1.6,0.7-6.2-2.1-10.3-2.8c-2.7-0.5-1.8-3.4-5.6-10
	c-3.8-6.5-11.2-24.8-11.2-24.8c0.5,0.8,2.9,0.3,1.9-4.9c-0.6-3.1-22-40.6-22-40.6s-5.1-4.4-10.6-2s-7.3,9.2-5.9,10.6
	c1.4,1.4,21,39.6,21,39.6s4.1,1.9,7.9,1.4c2.1-0.3,10.2,21.9,11.6,23.6s-2.5,17.6-1.1,23.4c0.6,2.6,5.8,3.2,10.1,11
	c1.4,2.5,4.6,23.9,4.6,23.9l-22.4,6.5L179.3,626.2z" />
	<path class="st0" d="M161.2,465.2c0,0,0.7,12.9-16.1,9.8" />
	<path class="st0" d="M183.1,508.1c0,0-1.7,5.5-11.7,6.2" />
</svg>
