<?xml version="1.0" encoding="utf-8" ?>
<!--
	https://github.com/Duxxie/duxxie-images
	This work is licenced by https://creativecommons.org/licenses/by-sa/4.0/
-->
<svg id="elektrische-rolstoel-svg" version="1.1" xmlns="http://www.w3.org/2000/svg" xmlns:xlink="http://www.w3.org/1999/xlink" x="0px" y="0px" width="1000px" height="1000px" viewBox="0 0 1000 1000" style="enable-background:new 0 0 1000 1000;" xml:space="preserve">
	<style type="text/css">
	#elektrische-rolstoel-svg .st1{fill:none;stroke:currentColor;stroke-linecap:round;stroke-linejoin:round;stroke-miterlimit:10;}
</style>
	<g id="Laag_5">
		<path class="st1" d="M710.8,448.8c-1.8,2.8-8.3,77.5-4.6,85.8c3.7,8.3,36,2.8,41.5-3.7c5.5-6.5,21.2-143.9,21.2-155.9
		c0-12,18.5-144.8,16.6-163.3s-49.8-18.5-49.8-18.5s-106.1-1.8-119-3.7c0,0-58.1,0-66.4,8.3c-8.3,8.3-12.9,22.1-22.1,63.7
		c-9.2,41.5-5.5,44.3-13.8,58.1c-8.3,13.8-30.4,42.4-35.1,106.1c-4.6,63.7-5.5,61.8,1.8,70.1c7.4,8.3,112.6,26.8,112.6,26.8" />
		<path class="st1" d="M715.4,423c0,0,15.7-71,25.8-98.7c10.1-27.7,14.8-95,22.1-102.4s22.1-10.1,22.1-10.1" />
		<path class="st1" d="M596.4,560.5c0,0-28.6-0.9-43.4-7.4s-36-16.6-55.4-17.5c-19.4-0.9-35.1,2.8-65.5,5.5c-30.4,2.8-34.1,0-45.2,0
		s-62.5,7-76.3,14.4c-13.8,7.4-19.1,26.4-18.7,47.7c0.2,14.5-5.9,18.3,7,23.8c12.9,5.5,68.4,5.1,112.9,12.9
		c19.1,3.3,92.3,19.4,108,19.4s103.3-23.4,103.3-23.4" />
		<path class="st1" d="M602.2,577.3c-4.6-0.9-59.3,7.2-69.4,13.6c-10.1,6.5-24,43.4-12.9,68.3" />
		<path class="st1" d="M513.7,738.4c19.4-3.7,119.6-31.2,119.6-31.2s29.5,11.9,38.7,5.5c14.8-10.1,63.7-42.4,72.9-46.1
		c9.2-3.7,31.6-10.8,45.9-7c7.6,2,5.8-1.3,8.6,9.7c2.8,11.1,1.8,32.3,1.8,32.3s-9.1,0.2-16.5-0.7c-7.4-0.9-24-0.9-36,7.4
		c-12,8.3-49.1,34.9-49.1,34.9l4.6,10.1l-17.1,9" />
		<path class="st1" d="M698.1,823.4c10.1-2.8,7.2-3.5,4.3-25.4c-1.6-11.9-9.6-26.1-14.3-33.1c-2.4-3.6-5.4-6.8-8.5-10
		c-21.7-21.7-56.5-32.5-87.8-22.9c-48,14.8-66.8,61-60.8,64c7.4,3.7,12.9,6.1,20.3,5.2s20.3-4.6,26.8-17.5
		c6.5-12.9,41.5-41.5,60-43.4c18.5-1.8,46.7,19.9,46.7,19.9" />
		<path class="st1" d="M855.7,735c15.9,1.6,12.9-4.1,4.1-14.5c-5-6-18.3-21-41.3-22.9c-11.6-1-16.7,1.1-16.7,1.1" />
		<path class="st1" d="M828.3,719.9c4-0.9,7.8-1.2,10.8-0.8" />
		<path class="st1" d="M763.2,702.3c0,0-19.2,14.1-19.2,22.4c0,8.3,19.4,13.8,25.8,13.8c6.5,0,13.8-0.9,24-5.5
		c3.7-1.7,9-4.2,14.9-6.6" />
		<path class="st1" d="M542.9,459l48.9,2.8c0,0,88.6-13.8,101.5-13.8c12.9,0,21.2-2.8,32.3,2.8c11.1,5.5,18.5,0.9,16.6-5.5
		s-18.2-25.1-49.8-27.7c-58.9-4.9-136.3,15.9-136.3,15.9S534.6,444.2,542.9,459z" />
		<path class="st1" d="M554.6,433.9c0,0,22.2-1.7,37.2,3.8c3.5,1.3,87.3-22.3,127.5-12.8" />
		<path class="st1" d="M591.8,461.7c0,0-5.5-24,0-24" />
		<path class="st1" d="M294.7,405.5c7.4-0.9,72.9-11.1,92.3-11.1s48,0,60,7.4c12,7.4,26.8,15.7,20.3,19.4s-6.5,0-22.1-2.8
		c-15.7-2.8-131.9,12-131.9,12" />
		<path class="st1" d="M402.6,542.2c0,0,35.8-6.2,46.9-10.8c11.1-4.6,8.8-16.9,9-31.1c0.2-13.9,3.2-55.2-3.2-60.8
		c-6.5-5.5-33.2,5.5-47.1,11.1c-13.8,5.5-43.4,19.4-47.1,20.3c0,0-1.1,58.2,5.3,72" />
		<path class="st1" d="M307.6,822.5c0,0-9.2-97.8-8.3-106.1s1.8-18.5,20.3-18.5s85.8,11.1,101.5,17.5s38.7,11.1,37.8,39.7
		c-0.9,28.6-16.6,95-23.1,102.4c-6.5,7.4-14.8,11.1-24.9,9.2s-92.3-25.8-96.9-27.7C309.5,837.2,310.4,828,307.6,822.5z" />
		<path class="st1" d="M335.3,918.4v-8.3c0,0,7.4-15.7,11.1-15.7c3,0,39.8,6.1,54.2,11.4c3.3,1.2,5.4,2.3,5.7,3.4
		c1.8,5.5-2.8,18.5-2.8,18.5s-18.5,6.5-23.1,5.5C375.9,932.3,335.3,918.4,335.3,918.4z" />
		<line class="st1" x1="403.6" y1="864.9" x2="400.6" y2="905.8" />
		<line class="st1" x1="364" y1="853.9" x2="363" y2="896.3" />
		<path class="st1" d="M338.8,904.2c0,0-11.7-3.5-17.3-1.5c-12.8,4.6-33.2,12.9-51.7,11.1s-69.2,0-80.3,3.7s-21.1,8-15.6,11.7
		c5.5,3.7,129.1,48.2,152.1,50.1c23.1,1.8,31.4,4.6,43.4,0.9c12-3.7,32.3-15.7,42.4-18.5s20.6-2.9,22.1-7.4
		c2.4-7.1,4.6-23.1-5.5-25.8s-23.1-7.4-23.1-7.4" />
		<path class="st1" d="M501.4,929.5c0-2.8,0.9-26.8-17.5-32.3s-36.9,15.7-41.5,39.7c-4.6,24,4.6,50.7,18.5,52.6s29.5-9.2,36-24.9" />
		<path class="st1" d="M634.2,790.2c0,0,54.3-2.6,38.7,91.3c-14.7,89.1-73.8,72-80.3,62.7c-6.5-9.2-30.4-36.9-15.7-86.7
		S616.7,788.3,634.2,790.2z" />
		<path class="st1" d="M489.4,928.6c0,0-2.8-9.2-9.2-8.3c-6.5,0.9-21.2,12-20.3,28.6s1.8,22.1,10.1,23.1s19.4-5.5,20.3-10.1" />
		<path class="st1" d="M305.4,878c0,0-5.6-29.8-27.6-29.4c-17.6,0.3-42.5,29-34.7,63.4" />
		<path class="st1" d="M292,877.7c0,0-3.7-11.5-15.7-7.8c-12,3.7-11.4,11.4-13.7,20.3c-2.2,8.7-1.3,24,7.2,23.6" />
		<path class="st1" d="M363.9,701.6c0,0-1.4-23.8,4.2-34.9c5.5-11.1,8.4-17.7,17.6-16.8c9.2,0.9,29,3.7,31.8,4.6
		c2.8,0.9,8.5,5.5,5.7,21.2c-2.8,15.7-3.9,29.3-3.9,39.4" />
		<path class="st1" d="M328.9,631.5c0,2.8-4,25.9,2.5,28.6c6.5,2.8,34.4,6.4,34.4,6.4" />
		<path class="st1" d="M423.9,679.5c3.7,1.8,85.8,17.5,89.5,17.5c3.7,0,14.8-4.6,14.8-4.6c8.3-7.4,11.1-24,9.2-32.3" />
		<line class="st1" x1="363.4" y1="685" x2="319.6" y2="697.9" />
		<line class="st1" x1="364.3" y1="697.2" x2="353.8" y2="700.6" />
		<path class="st1" d="M522.6,922.4l-15.5,9.7c0,0-23.5-5-26.5-4.6s-11.3,5-12.2,11.3s1.3,16,6.3,18.1c5,2.1,26,7.6,32.3,7.1
		c6.3-0.4,23.5-16.4,23.5-16.4" />
		<path class="st1" d="M447.9,727.5c0,0,84.8,12.9,90.4,17.2c5.6,4.3,11.3,9.5,8.7,16.4" />
		<line class="st1" x1="495.5" y1="836.1" x2="496.6" y2="795.5" />
		<path class="st1" d="M494.4,818.7c0,0-18.1,5.2-20.2,9s5.2,69.3,5.2,69.3" />
		<path class="st1" d="M446.6,823.4c1.3,0,27.5,4.3,27.5,4.3" />
		<path class="st1" d="M341.2,866.9c0,0-37.9,13.3-43,12.9c-5.2-0.4-11.2-6.2-18.5-4.5s-11.3,8.3-10.9,15.6
		c0.4,7.3,6.6,16.2,15.3,16.2c8.6,0,29.8-1.8,29.8-1.8" />
		<path class="st1" d="M342.5,849.7c1-14.6-2.1,49-2.2,50.4" />
		<path class="st1" d="M303.7,788.1c0,1.3-4.3,7.3-4.3,12.1s-1.7,7.3,0,9.5c1.7,2.2,7.3,3,7.3,3" />
		<path class="st1" d="M308.9,831.6c0,0-9,0.9-9.5-3.9c-0.4-4.7-4.7-12.9,0-18.1" />
		<path class="st1" d="M338.8,847c0,0-14,4.8-21.3,4.4c-7.3-0.4-13.3-3.9-16.4-5.2s-5.2-13.8-1.7-18.5" />
		<path class="st1" d="M300.3,863c0-2.6-6.5-7.3,0.9-16.8" />
		<line class="st1" x1="441" y1="945.2" x2="434.6" y2="945.7" />
		<path class="st1" d="M555.9,517.1c0,0,5.3,17,4.3,24.5c-1.1,7.4-12.9,8.8-12.9,8.8" />
		<path class="st1" d="M363.8,678.9c0,0-13.2-7.7-34.4-5.9c-21.2,1.8-55.8,10.7-74.2,50.4c0,0-3.8,16.1,8.2,17
		c12,0.9,13.8,1.8,21.2,0c7.4-1.8,14.8-12.9,14.8-12.9" />
		<path class="st1" d="M537.4,800.3c0,0-18.5,22.1-18.5,62.7c0,40.6,6.5,84.9,23.1,104.3s34.1,27.7,54.4,27.7s68.3-12,93.2-87.6
		c0,0,15.7-67.4,6.5-96.9c-9.2-29.5-8.6-34.6-23.7-47.6c-8.6-7.4-31.3-21.6-53.4-15.1" />
		<path class="st1" d="M766.4,738.7c0,0-29.7,40.4-15,87.5s46.1,55.4,69.2,43.4c23.1-12,39.7-37.8,44.3-73.8s-11.4-72-26.2-76.6" />
		<path class="st1" d="M256,739.4c-5.5,5.5-36,83-5.5,130.1" />
		<path class="st1" d="M302.9,768.3c0,0-10.9,16.3-10.9,36.6c0,20.3,2.3,35.3,6.6,37.4" />
		<line class="st1" x1="641.4" y1="609.4" x2="640.3" y2="601.8" />
		<line class="st1" x1="632.2" y1="544.5" x2="618.4" y2="457.6" />
		<line class="st1" x1="630.9" y1="456.2" x2="645.1" y2="543" />
		<path class="st1" d="M450.5,420.6c0,0,9.8,4.5,15.3,12.8s-3.1,10.8-0.3,16.3c2.8,5.5,3.7,14.8,3.7,25.8c0,11.1-1.4,38.7-7.9,40.6" />
		<line class="st1" x1="349.9" y1="426.9" x2="360.2" y2="469.1" />
		<path class="st1" d="M748.6,531c0,0,5.6,8.2,5.6,22.1s0,21.2,4.6,32.3c4.6,11.1,13.8,24,5.5,35.1c-8.3,11.1-20.3,16.6-35.1,20.3
		c-14.8,3.7-48,10.1-48,10.1" />
		<path class="st1" d="M640.7,709.9c0,0,51.7-12.9,56.3-14.8s5.5-6.5,4.6-15.7c-0.9-9.2-1.8-19.4,0.9-22.1c2.8-2.8,5.4-11.4,5.4-11.4
		" />
		<path class="st1" d="M845.5,796.4c1.2-11.1-0.1-25.1-7.6-36.5" />
		<path class="st1" d="M815.8,759.5c0,0-21.1,10.8-12.9,54.3c6.3,33.4,29.3,16.4,33.9,9c1.9-3,5.4-10.5,7.4-19.1" />
		<path class="st1" d="M401.3,899.7c2.8,0.9,50.3,13.2,50.3,13.2" />
		<path class="st1" d="M648.1,596.8c0,1.2,5.5,39.8,5.5,39.8" />
		<line class="st1" x1="532.9" y1="686.7" x2="627" y2="666" />
		<path class="st1" d="M612.6,554.3c4.3-1.8,22.3-10.9,22.3-10.9s16-0.8,18.7,0s10.5,22.3,9,33.2c-1.6,10.9-22.7,25.4-23.8,25.8
		c-1.2,0.4-1.6,2.3-11.3,2c-9.8-0.4-11.3,0.8-12.9-3.9c-1.6-4.7-7.8-30.9-7.8-30.9S603.2,558.2,612.6,554.3z" />
		<path class="st1" d="M638.8,601.6c0,0-4-39.5-6.3-43c-2.3-3.5-17.6-6.6-19.9-4.3" />
		<path class="st1" d="M653.6,543.3c-2.3,2.7-21.1,15.2-21.1,15.2" />
		<path class="st1" d="M767.3,604c0.4-3.9,0.8-19.7,0.8-19.7l-9.4-2.3c2.7-0.8,12.5-12.5,16.8-12.5s20.7,0.4,22.3,3.9
		c1.6,3.5,2,36.7-1.2,42.6c-3.1,5.9-23.4,4.7-25,5.1c-1.6,0.4-6.2-2.7-6.2-2.7" />
		<line class="st1" x1="797.3" y1="573.4" x2="768" y2="584.3" />
		<path class="st1" d="M623.3,488.9c0,0-2.2-2.2-8.8,0.5c-6.6,2.7-15.2,0.4-18.7,18c-3.5,17.6,0.8,59.8,1.6,63.7s3.5,7.4,9.8,7" />
		<path class="st1" d="M810.7,697.6c2.2,0.8,16.5,11.6,19.4,29c2.9,17.4,17.2,73.8,16.3,75.4c-0.8,1.6-11.6,5.5-11.6,5.5
		s-7.4,5.5-8.8,0.8s-14.7-78.9-18.6-86.8s-10.4-18.6-17.2-20.1" />
		<path class="st1" d="M677.1,667.4c0.3,0.8,2.8,13.3,1.1,16.7c-1.7,3.4-12.7,8.2-15.8,7.4c-3.1-0.8-7.9-1.4-8.2-2.5
		c-0.3-1.1-2-9.6-2-9.6" />
		<line class="st1" x1="660.3" y1="676.3" x2="662.4" y2="691.5" />
		<path class="st1" d="M662.6,675.2c0,0-0.6-15.6-2.3-23.4s-1.1-12.1-7.2-14.7c0,0-3.5-1.3-5-1.6c-1.8-0.2-1.2-28-10.2-27.4
		c-2.4,0.2-15.8-1.3-15.4,14.3c0.5,17.2,4.1,47,8.8,52.2c4.3,4.7,7.4,8.6,30.6,1.2c7.2-2.3,16.6-8.3,19.4-12.9
		c2.8-4.6-16.1-180.9-16.1-187.3c0-6.5,15.9-25.4,15.9-25.4" />
		<path class="st1" d="M217,386.2c1.4-0.5,28.1,5.2,40.6,15.8s10.4,13.5,19.5,11.6s16.2-6.3,25.9-2.9c9.6,3.4,13.1,30.4,13.1,37.6
		c0,7.2,0,8.1-5.8,10.1c-9.5,3.3-25,8.7-35.6,8.7c-10.6,0-18.3-3.8-31.3-19.7c-13-15.9-23.1-37.5-27.4-42.8
		C211.7,399.2,204.5,390.6,217,386.2z" />
		<path class="st1" d="M327.1,550.7c0,0-3.8-8.7-4.8-15.9s-1.4-13.5,2.4-16.8c3.8-3.4,25.5-13.5,25.5-13.5l10.1,3.4l-16.4,11.5" />
		<polyline class="st1" points="351.6,544.5 343.9,519.5 324.7,518 	" />
		<path class="st1" d="M259.2,398.7c0,0,10.8-2.4,17.6-2.1c6.8,0.3,15.2-0.3,13.1,2.6c-2.1,2.9-14.7,3.9-18.4,3.9
		S254.4,402.6,259.2,398.7z" />
		<path class="st1" d="M286.7,409.7c0,0-0.3-1,1.3-2.9c1.6-1.8,1.8-7.6,1.8-7.6" />
		<path class="st1" d="M268.6,372.2c0,0,3.1-1.8,6.6-1.8s7.1-1,6,1.8c-1,2.9-5.5,2.6-7.1,2.6S269.1,374.3,268.6,372.2z" />
		<line class="st1" x1="279.9" y1="396.3" x2="281.2" y2="372.2" />
		<line class="st1" x1="269.2" y1="397.1" x2="268.6" y2="372.2" />
		<path class="st1" d="M270.2,467.4c0,0-5-0.5-5.5,2.6s-0.7,8.2,5.3,9.8c6,1.6,12.8,1.5,20.1,0.2c7.3-1.3,50.9-12.8,50.9-12.8
		s2.6-8.4-1.8-10.5c-4.5-2.1-8.1-1.8-10.5-1.8c-2.4,0-13.1-0.8-13.1-0.8" />
		<path class="st1" d="M331,430.1c0,0-2.4,1.3-2.6,4.7c-0.3,3.4,0.3,19.9,0.3,19.9" />
		<path class="st1" d="M320,430.4c0,0.8,0.3,23.6,0.3,23.6" />
		<path class="st1" d="M410.2,420.2c0,0,3.4,0.8,0.8,5s-7.9,8.7-9.7,12.1c-1.8,3.4-1.3,12.3-1,14.4c0.3,2.1,0.3,2.1,0.3,2.1" />
		<path class="st1" d="M455,787.9c0,0,56.5,10.9,62.6,9.6c6.1-1.3,10.2-11.4,14.5-13.6" />
		<path class="st1" d="M519.8,836.1c0,0-8.7,7.8-24.4,0c0,0-9.1-1.7-9.1,4.8c0,6.5-0.4,16.5,1.3,17.4s1.7,0.9,1.7,0.9
		s-0.4-2.2-1.3,3.5c-0.9,5.7-2.6,12.2,0.9,13s3.5,0.9,3.5,0.9s-3.5-1.7-4.3,2.2c-0.9,3.9-4.3,11.7-1.3,13.5c3,1.7,3,1.7,3,1.7
		s-2.6,2.2-2.6,4.3" />
		<path class="st1" d="M517.6,859.6c0,0-18.7,5.2-28.3-0.4" />
		<path class="st1" d="M518.1,877.9c-5.7,0.4-7,4.3-25.7-1.3" />
		<path class="st1" d="M518.9,896.6c-1.3,0.9-10,4.3-29.1-2.6" />
		<path class="st1" d="M522,917.5c0,0-11.7,3.9-19.1,0.9" />
		<path class="st1" d="M590.5,67.3c0,0,5.8-43.4,42.1-54.4c36.3-11,64.1-8.4,73.2-4.5s25.9,15.5,21.4,53.1s-0.7,47.4-15.6,51.2
		c-4.3,1.1-2.7,0.7-10.8,1.4c-19.7,1.7-46.3,1.9-59.1,0.5C623.5,112.7,573.6,112,590.5,67.3z" />
		<path class="st1" d="M678.9,192l1.7-24.5l25.2-38.8c0,0-3.4-10.2-6.1-14" />
		<path class="st1" d="M711.2,191.3l0.3-21.1c0,0,17.8-29.3,19.1-31.6c4.4-8.5,8.7-11,7.1-16.3c-2-7.1-14-27.2-14-27.2" />
		<path class="st1" d="M707.5,112.4c0,0-6.8-11.2-6.1-15.3s13.6-62.3,13.6-68.4s-1-18-13.3-22.5" />
	</g>
</svg>
