<!--
  https://github.com/Duxxie/duxxie-creative-commons
  This work is licenced by https://creativecommons.org/licenses/by-sa/4.0/
-->
<svg version="1.1" id="elektrische-duw-en-hoepelondersteuning-svg" xmlns="http://www.w3.org/2000/svg" x="0px" y="0px" width="1000px" height="1000px" viewBox="0 0 1000 1000" xml:space="preserve">
  <style>
    #elektrische-duw-en-hoepelondersteuning-svg .st0{fill:none;stroke:currentColor;stroke-linecap:round;stroke-linejoin:round;stroke-miterlimit:10;}
  </style>
  <path class="st0" d="M567.4 82.4c-35.6-2.3-76.7 1.7-115.2 18.6C275 178.4 189.9 394.1 192.9 494.6M743.2 148.2c.2 0-55.8-47.1-157.5-61.5M206.1 612.1c7.3 14.6 27.7 201 166 257.8 138.3 56.8 268.8 30.4 367.8-58.4"/>
  <path class="st0" d="M692.2 102.3c0 0-84.1-41.3-147.4-37.7-52.7 3-149.3-.1-270.2 151.3S171.7 482.5 170.2 495.6M187.2 631c5.8 16 24.7 94.4 46.6 134 23.3 42.2 82 119 148.5 135.4 69 17 142.9 42.3 261.2-3.5"/>
  <path class="st0" d="M869.9 230.7c33.1 75.8 49.5 175.2 43.9 292.6C888.7 1052.5 304.6 1141.3 142 765 32.7 511.8 92.8 308 219.2 150.5 375.3-44.1 707-56.7 848.6 193.6M343.3 363.4c0 0 154.1-167.8 241.5 65.2M589.1 524.7c0 0-13.1 81.5-84.5 128.1"/>
  <path class="st0" d="M501.7 664.5c0 0 90.3-5.8 120.9-99 30.6-93.2 18.2-81 18.2-81M627 417.8c0 0-39-102.2-152.6-112.4M311 504.3c0 16 29.1 75.7 59.7 88.8s101.9 26.2 139.8-81.5-62.4-148.2-62.4-148.2-25-13.4-77.4 17.2M284.7 516c0 16 24.6 94.4 58.2 118 29.1 20.4 59.7 37.9 90.3 34.9"/>
  <path class="st0" d="M450.8 613.5c0 0 32-11.6 43.7-16s16-10.2 18.9 5.8-11.6 74.3-24.8 80.1c-13.1 5.8-32 7.3-46.6-7.3-14.6-14.6-33.5-48.1-21.8-53.9C431.8 616.4 450.8 613.5 450.8 613.5zM120 511.2c-1.7-98.3 28.8-215.4 122.5-328.7C422.6-35.3 611.1 53.6 629 64.1c6.2 3.6 114.9 48.1 178.5 174.5M125.9 566.3c-.6-4.1-1.2-8.3-1.7-12.5-.4-3-.7-6-1-9"/>
  <path class="st0" d="M817.3,259.7c35.8,83.1,51.7,197.8,13.5,353.8C726.4,1040.4,321.6,994,206.1,786.8  c-23.2-41.5-50.2-94.5-67.5-158.6"/>
  <path class="st0" d="M287.7 510.1c0 0-58.2 69.9-68.4 85.9-10.2 16-30.6 40.8-56.8 39.3s-30.6-13.1-39.3-39.3c-8.7-26.2 1.5-23.3 4.4-34.9s-1.5-14.6-13.1-24.8c-11.6-10.2 20.4-40.8 20.4-40.8l26.2 18.9c5.8-1.5 10.2-26.2 18.9-26.2 8.7 0 17.5 10.2 17.5 10.2l142.7-134 30.6 16c0 0-46.6 69.9-52.4 83-5.8 13.1-8.7 39.3-8.7 39.3L287.7 510.1zM544 392.2c0 0 36.4 40.8 49.5 43.7 13.1 2.9 72.8-46.6 78.6-51 5.8-4.4 40.8-30.6 40.8-30.6l115-141.3 53.9-45.1c0 0 8.7-4.4 17.5 10.2 8.7 14.6 11.6 21.8 7.3 24.8-4.4 2.9-62.6 46.6-62.6 46.6s-16-7.3-23.3 4.4c-7.3 11.6-87.4 123.8-87.4 123.8l-4.4 13.1c0 0-72.8 80.1-88.8 94.7-16 14.6-49.5 33.5-58.2 48.1-8.7 14.6-24.8 37.9-37.9 39.3s-52.4-24.8-42.2-33.5c10.2-8.7 32-10.2 39.3-23.3 7.3-13.1 23.3-59.7 8.7-75.7C535.2 424.2 513.4 400.9 544 392.2zM567.5 82.3c-10.5 24.7-35 238-35 238M585.2 87.2c-11.5 27.1-34.1 243-34.1 243M742 807.2L605.8 602.2M727 822.4L590 621.4M297.1 566.2c-3.4 0-71 21.4-71 21.4M292.3 544.4L248.6 559.4"/>
</svg>
