<!--
  https://github.com/Duxxie/duxxie-creative-commons
  This work is licenced by https://creativecommons.org/licenses/by-sa/4.0/
-->
<svg version="1.1" id="glijlaken-svg" xmlns="http://www.w3.org/2000/svg" x="0px" y="0px" width="1000px" height="1000px" viewBox="0 0 1000 1000" xml:space="preserve">
  <style>
    #glijlaken-svg .st0{fill:none;stroke:currentColor;stroke-linecap:round;stroke-linejoin:round;stroke-miterlimit:10;}
  </style>
  <path class="st0" d="M981.6,918.7c0,0-0.1-0.6,0-10.5c0.1-10.5-82.4-858.7-82.4-867.2c0-8.5,6.3-19,6.3-19S215.6-4.3,249.2,8.5  c3.7,1.3-1.9,41.8-1.9,41.8L27.7,58c0,0,0,0,4.2,143.8S15,946.3,15,946.3s0,0,10.5-4.2s61.4,4.2,61.4,4.2v44.4l250.7-24.4l5.3,28.7  c0,0,90.9-14.8,112.1-21.2c21.2-6.3,179.1-19.6,179.1-19.6l224.8,9.1l2-14.8l49.1,0.9l0.4-25.9"/>
  <path class="st0" d="M667.7 950.1c0 0 160.8.7 169.7.7 8.9 0 20-3.8 23.7-2.6M247.6 49.3c0 19 10.5 681.1 12.7 719.1 2.2 38-2 171.3-2 171.3s40.2 10.5 57.2 8.5c17-2 228.5-19 251.7-21.2 23.2-2 228.5-10.5 253.8-10.5s52.9 2 74-2c21.2-4.2 62.6-5.7 85.8 2.8M87.4 946.3L219.2 939.3"/>
  <path class="st0" d="M324.9 947.3c0 0 24 2.8 33.2 2.8 9.2 0 202.5-6.9 222.2-8 19.7-1.2 299.7-3.5 299.7-3.5l-1.2-21.9M254.2 949.7c0 0-.1-1.9-11.7-1.9-11.5 0-24.1 2.2-24.1 2.2s5.6-26.2 6.9-51.9c1-21.1 23.1-575.1 23.1-579.8s2.5-42.8 2.5-42.8M15 946.2c0 0 8.5 2.2 18.4 2.6s44.7-.9 47.8-.9 5.4-.4 5.4-.4"/>
  <path class="st0" d="M878.7 919c0 0 16.5 2.5 25.4 3.4s54.8-5.1 59.5-5.1c4.7 0 16.5 0 16.5 0M633.5 953.6c4.7 0 105.3-13.9 116.9-13.9M260 870.5c0 0-6 90.1-6 93.6s8 0 18.6 0 61.7-2 65.2-2"/>
  <path class="st0" d="M260.9,941.5c0,0-1.9,10.4,0.3,10.7c2.2,0.3,1.9,0.6,12.3,0c10.4-0.6,52.6-1.3,55.6-1.3s5.6-1.6,5.6-1.6  l2.9,16.2"/>
</svg>
