<!--
	https://github.com/Duxxie/duxxie-images
	This work is licenced by https://creativecommons.org/licenses/by-sa/4.0/
-->
<svg version="1.1" id="hekbeschermer-svg" xmlns="http://www.w3.org/2000/svg" x="0px" y="0px" viewBox="0 0 1000 1000" xml:space="preserve">
  <style>
		#hekbeschermer-svg .st0{fill:none;stroke:currentColor;stroke-linecap:round;stroke-linejoin:round;stroke-miterlimit:10;}
    #hekbeschermer-svg .st1{display:none;}
    #hekbeschermer-svg .st2{display:inline;}
		#hekbeschermer-svg .st3{fill:none;stroke:currentColor;stroke-width:2;stroke-linecap:round;stroke-linejoin:round;stroke-miterlimit:10;}
		#hekbeschermer-svg .st4{display:inline;fill:none;stroke:currentColor;stroke-width:2;stroke-linecap:round;stroke-linejoin:round;stroke-miterlimit:10;}
		#hekbeschermer-svg .st5{display:inline;fill:none;stroke:currentColor;stroke-linecap:round;stroke-linejoin:round;stroke-miterlimit:10;}
		#hekbeschermer-svg .st6{display:inline;fill:none;stroke:currentColor;stroke-linecap:round;stroke-linejoin:round;stroke-miterlimit:10;}
		#hekbeschermer-svg .st7{fill:none;stroke:currentColor;stroke-width:2;stroke-linecap:round;stroke-linejoin:round;}
		#hekbeschermer-svg .st8{fill:none;stroke:currentColor;stroke-linecap:round;stroke-linejoin:round;stroke-miterlimit:10;}
		#hekbeschermer-svg .st9{display:inline;fill:none;stroke:currentColor;stroke-width:2;stroke-linecap:round;stroke-linejoin:round;stroke-miterlimit:9.9998;}
		#hekbeschermer-svg .st10{fill:none;stroke:currentColor;stroke-width:2;stroke-linecap:round;stroke-linejoin:round;stroke-miterlimit:10;}
		#hekbeschermer-svg .st11{display:inline;fill:none;stroke:currentColor;stroke-width:2;stroke-linecap:round;stroke-linejoin:round;stroke-miterlimit:10;}
		#hekbeschermer-svg .st12{fill:none;stroke:currentColor;stroke-width:0.975;stroke-linecap:round;stroke-linejoin:round;stroke-miterlimit:10;}
		#hekbeschermer-svg .st13{display:inline;fill:none;stroke:currentColor;stroke-width:0.975;stroke-linecap:round;stroke-linejoin:round;stroke-miterlimit:10;}
		#hekbeschermer-svg .st14{fill:none;stroke:currentColor;stroke-linecap:round;stroke-linejoin:round;stroke-miterlimit:10;}
  </style>
  <g>
    <g>
      <g>
        <g>
          <path class="st0" d="M727.4 724.1L752.1 707.2M791 710.9L687.2 783 665.9 781.8 664.6 765.2 692.2 746.9M292.3 689.7L336.9 668.3M287.4 663.6L186.9 713.7 186.9 728.3 207.3 731 253.8 709.8M836 714.9c-4.8 8.7-17.5 12.9-27.3 10.5-7.7-2.4-11.5-8.2-12.4-14.1M700.5 793.3c3.1 0 17.5-3 21.5 11.3 2.5 8.9.6 18.8-3.3 24.9s-10.7 9.1-17.6 10.6c-6.9 1.5-18.1-.4-23.7-5.8-5.2-5.2-9.7-18-1.6-29.5"/>
          <path class="st0" d="M699.2 774.8c.6 1.8.3 25.9.3 25.9s4.7 2.4 7.7 5.3c3 2.9 4.7 8.8 1.8 14.1s-6.4 9.4-14.1 8.2c-12.3-1.8-7.2-16.5-7.2-16.5l-13.6-9.6v-19.4M253.2 709.8L692 746.9M227.5 740.8c3.1 0 17.5-3 21.5 11.3 2.5 8.9.6 18.8-3.3 24.9-3.9 6.2-10.7 9.1-17.6 10.6-6.9 1.5-18.1-.4-23.7-5.8-5.2-5.2-9.7-18-1.6-29.5"/>
          <path class="st0" d="M226.3 722.3c.6 1.8.3 25.9.3 25.9s4.7 2.4 7.7 5.3 4.7 8.8 1.8 14.1-6.4 9.4-14.1 8.2c-12.3-1.8-7.2-16.5-7.2-16.5l-13.6-9.6v-19.5M727 724.2L292.3 689.9M370.7 671.3c-3.8 5.1-13.2 9.5-27.1 7.3-7.5-2.4-9.6-5.2-10.8-8.5"/>
        </g>
        <g>
          <path class="st0" d="M211.2,417.3c0.5-18.1,1.9-74.7,1.7-82.3c-0.2-5.8-186.3,33.8-186.3,33.8l-21-3"/>
          <path class="st0" d="M204.1 334.8L184.2 334.1 5.7 364.9 5 638.2 29.6 640.6 29.6 369.1M830.9 520.6L867.5 523.1M29.7 466.5L58.2 468.4M835.8 465.4L867.5 467.6M29.7 411L62.3 413.2M825.2 638.3L867.3 641.6M29.4 576.1L64.7 578.9M827.2 583L867.5 586.1M29.8 520.7L58.1 522.9M869.2 718.3L30.1 639.2M29.7 625.8L868.9 703.9M968.1 351.1l-101 42.4 2.2 324.7"/>
          <path class="st0" d="M995,351.4L889.6,394l-0.9,323.7c0,0,104.2-93.2,104.2-96.7C993,617.3,995,351.4,995,351.4z"/>
          <g class="st1">
            <g class="st2">
              <path class="st3" d="M-25.8 378.6L-25.8 539.5 674.5 532.4 674.5 369.2"/>
              <path class="st3" d="M2.8,352.6c0,0,101.5,87.2,143.2,106.3c37.9,17.3,93.5,60.3,208.2,15.8c75.5-29.3,136.2-53.3,199.4-30.3 c58.4,21.2,99.6,43,99.6,43"/>
              <circle class="st3" cx="529.5" cy="730.7" r="31.8"/>
              <circle class="st3" cx="130.1" cy="730.7" r="31.8"/>
              <path class="st3" d="M138.6 537.8L494.5 695.5M498 535L153.5 693.4"/>
            </g>
            <path class="st4" d="M245.9 71.1L127 125.5 -12.6 328.9"/>
            <path class="st4" d="M213.1,224.6c0,0-77.7,36.3-52,49.7h104.1C290.8,260.9,213.1,224.6,213.1,224.6l1.3-137.7"/>
          </g>
          <path class="st0" d="M869.2 718.3L888.7 718.3M866.6 393.5c0 2.1 22.5 1 22.5 1M995 351.4L967.6 351.1"/>
        </g>
      </g>
      <g>
        <g>
          <g class="st1">
            <path class="st5" d="M-42.9 -79.3H957.1V920.7H-42.9z"/>
          </g>
          <g class="st1">
            <path class="st4" d="M552.4,444.7c0,0,12.8-24.3,14-29.2c1.2-4.9-4.9-2.9-7.4-8.6c-2.5-5.8-7.4-20.6-3.7-25.1 c3.7-4.9,15.6-16.9,14.4-22.6s-10.7,1.2-13.2-3.7c-2.5-4.9-4.9-18.1-2.5-44c2.5-26.3,11.9-79.8,11.9-83.5s-1.2-13.2-2.5-17.7 c-1.2-4.9-7-10.7-2.5-15.6c4.9-4.9,4.9-2.9,4.9-2.9l-38.1-33.1h-39.5c0,0-17.7-9.1-17.7-13.6s-30.9-9.9-35.8-8.6 c-4.9,1.2-15.6-1.2-15.6-6.2s1.2-16.9,1.2-16.9s-8.2-4.9-9.5,9.5s-25.1,133.7-25.1,137c0,3.7,2.5,7,3.7,15.6 c1.2,8.2,0,15.6-1.2,23.9c-1.2,8.2-7,22.6-5.8,29.6s72.8,87.2,78.6,97.9c5.8,10.7,29.6,26.3,29.6,26.3"/>
            <path class="st4" d="M568.1,557.8c0,0-23,35.8-30.4,44c-7,8.2-6.6-0.8-19.7,17.3c-13.2,17.7-65.4,67.9-109.4,60.9 s-72.8-28.8-93-57.2c-20.2-28.8-22.6-59.7-37-76.5c-14.4-16.9-66.6-84.8-66.6-95.4c0-10.7-17.7-121.8-23.9-133.7 c-6.2-11.9-13.2-23.9-13.2-37s0-42.8,3.7-45.3s8.2-8.2,14.4-2.5c5.8,5.8,60.9,38.3,60.9,38.3l14.4-38.3c0,0,3.7-16.9,11.9-17.7 c8.2-1.2,29.6-141.9,29.6-141.9s11.9-15.6,17.7-17.7c5.8-2.5,15.6-9.5,34.6-3.7c18.9,5.8,18.9,5.8,18.9,5.8s4.9,1.2,13.2,1.2 c8.2,0,14.4-4.9,18.9,3.7C418,70.3,425.4,74,425.4,74s-2.9-13.2-2.9-16.9s0-2.5,0-2.5l-0.4-39.5l38.7,3.7c0,0,1.2,15.6,0,18.9 c-1.2,3.7,8.2,0-1.2,3.7c-9.5,3.7-18.1,1.2-18.1,4.9S439,57,439,61.9s0,7,0,7s6.6-5.8,15.2-9.5c8.2-3.7,35.4-2.5,35.4-2.5 s4.5-13.2,4.5-20.2s3.7-9.5,13.2-9.5c9.5,0,20.2,4.9,27.6,8.2s11.9,4.9,11.9,15.6s-7,89.3-7,89.3l50.2,38.3c0,0,9.5-5.8,7,14.4 s-4.9,44-4.9,64.2c0,0-7,58.4-4.9,75.3c2.5,16.9,8.2,29.6,8.2,42.8s2.5-2.5,0,13.2c-2.5,15.6-7,22.6-9.5,27.6 c-2.5,4.9-4.9,8.2,1.2,13.2"/>
            <path class="st4" d="M306 294.5c16.9 3.7 50.2 18.9 50.2 18.9 8.2-10.7 14.4 3.7 8.2-10.7-5.8-14.4 0-33.3 0-33.3s7-2.5 9.5-11.9c2.5-9.5 23.9-123.8 23.9-130s8.2-21.4 16.9-26.3c8.2-4.9-4.9-5.8-7-9.5s-10.7-4.9-18.9-8.2c-8.2-3.7-15.6-11.9-15.6-11.9s-29.6-13.2-34.6-9.5c-4.9 3.7-17.7 4.9-17.7 17.7s-22.6 133.7-22.6 139.5 1.2 16.9 2.5 22.6 5.8 15.6 4.9 21.4 9.5-3.7-1.2 5.8-5.8 27.6-2.5 35.8c3.7 8.2 75.3 107.4 89.3 122.6 14.4 15.6 89.3 67.9 96.7 74.1 7 5.8 76.5 54.3 84.8 55.5M539.7 140.6c0 0-60.9-51.4-63.4-56-2.5-4.9-17.7-10.7-17.7-10.7s-11.9-2.5-11.9 5.8c0 8.2 9.5 16.9 16.9 20.2 7 3.7 113.1 95.4 118.1 95.4 4.9 0 14.4-11.9 8.2-16.9M189.1 226.6l9.1-8.2c0 0 2.9-4.1 5.3-8.6s6.6-3.7 20.2-2.9c17.7.8 22.6-4.1 29.6.8s4.9-4.1 7.4 9.1 1.2 2.5 4.9 13.2"/>
            <path class="st4" d="M567.2,567.7c0,4.9-3.7,56,2.5,65.4c6.2,9.5,5.8,9.5,5.8,9.5l8.2,2.5c0,0,2.5,34.6,5.8,47.7 c3.7,13.2,4.9,14.4,3.7,22.6c-1.2,8.2,0,7.4-1.2,8.2c-15.6,10.3-8.2,11.9-18.9,28.8c-10.7,16.9-7.4,23.9-7.4,23.9 c8.2,12.8,13.2,21.8,28.4,23c15.6,1.2,12.3-6.2,21,5.8c8.2,11.9,50.2,32.1,66.6,32.1c16.9,0,35.8-7,37-13.2 c1.2-5.8-1.2-13.2-8.2-15.6c-7-2.5-26.3-17.7-26.3-17.7s27.6,5.8,33.3,5.8s16.9,1.2,15.6-4.9c-1.2-5.8-14.4-17.7-23.9-25.1 c-9.5-7-33.3-45.3-33.3-45.3c-5.8-11.9-21.4-40.7-20.2-50.2s3.7-53.5,3.7-53.5l16.9-4.9l-5.8-47.7c0,0,15.6-111.1-5.8-118.1 c-21.4-7-22.6-11.9-29.6-13.2c-7-1.2-42.8-8.2-45.3-4.9"/>
            <path class="st4" d="M316.7,325.4c0,0,17.7-3.7,29.6,1.2c11.9,4.9,25.1,22.6,40.7,42.8c15.6,20.2,35.8,30.9,40.7,45.3 s15.6,27.6,23.9,33.3c8.2,5.8,37,5.8,50.2,5.8s38.3,1.2,51.4-7c13.2-8.2,20.2-9.5,27.6-8.2s3.7-1.2,18.9,3.7 c15.6,4.9,22.2,0.8,29.6,3.3c3.7,1.2,15.2,7.4,1.6,10.7c-14,3.7-18.1-5.3-25.1,0.4c-7,5.8-3.3,0.8-21.4,5.3 c-18.1,4.5-95.4,32.1-100,35.8"/>
            <path class="st4" d="M583.7 645c14.4 2.5 25.1 0 37 0s20.2 3.7 22.6-4.9c2.5-8.2-3.7-44-3.7-44s7-59.7 8.2-75.3c1.2-15.6 4.1-37 1.2-46.1-2.1-6.6-11.1-20.6-19.3-18.1M633.1 647.1c-.8 18.9-4.5 32.5-1.2 48.1s0 39.9 14.4 52.7 30 39.1 38.3 42.4M487 454.5c0 0-21 2.5-31.3.8-10.3-1.6-32.1-4.5-34.6-5.3M659 617.5c-5.3 3.3-15.2 1.6-15.2 1.6"/>
          </g>
          <g class="st1">
            <g class="st2">
              <path class="st3" d="M500.6 372.4c-14.9 5-30.8 8.6-33.5 8.6-1.4 0-15.4 2.3-33.9 5M297.5 401.8c-10.9-9-19 0-24.9-23.1s-19.9-209.5-16.7-233.4c0 0 4.1-56.6 31.7-79.6S330.1 11.9 384 6.9c53.8-5 124 31.7 133.9 82.3s14.9 44.8 15.8 72.4c.5 18.5 2.7 80.1 4.1 120.8"/>
              <path class="st3" d="M335.1,23.6c0,0-95.5,10-103.1,13.1c-8.1,3.2-45.7,15.8-53.8,21.7s-13.1,5.9-14,14s9,140.2,11.8,167.8 c3.2,27.6,20.8,90.5,29.9,110.4c9.1,19.9,18.1,31.7,24.9,33.9c6.8,1.8,49.8,11.3,49.8,11.3"/>
              <path class="st3" d="M269.5 90.1c0 0-56.6 4.1-65.6 0s-39.8-9-39.8-18.1M354.5 514.9c0 0-11.8 10.4-14.5 14.5-3.2 4.1-11.8 6.8-11.8 18.1 0 10.9-8.1 14-3.2 24 5 10 10 19.9 10 19.9 8.1 3.2 16.7 5 16.7 5s-16.6 64.6-16.6 76.4-11.8 59.7-10.9 62.4c.9 3.2 85.5 69.7 127.1 79.6s110.4 23.1 138.9 3.2c29-19.9 33.9-19 35.7-33.9S604.2 628 604.2 621.2s-5.9-16.7 2.3-23.1"/>
              <path class="st3" d="M291.6 448c.9 3.6 2.3 6.8 4.5 9.5 4.1 5.9 23.1 23.1 32.6 29 10 5.9 8.1 10 16.7 18.1s19.9 20.8 27.6 29c7.7 8.1 9 11.8 19.9 16.7 10.9 5 93.2 46.6 104.5 48.9 10.9 1.8 83.2 4.1 105.4-.9 21.7-5 66.5-33.9 77.4-45.7s36.6-60.6 35.7-66.5c-.9-5.9-3.2-11.3-3.2-11.3M302 420.4c2.3-3.2-6.3 5.4-9 9.5M266.3 392.8c0 0-1.8 10-.9 19.9s10 15.8 13.1 19c3.2 3.2 4.1 3.2 4.1 3.2M290.3 344.8l88.7-46.6c0 0 47.5-24.4 51.1-24.4s10.4-1.4 17.6-1.4 18.5-3.2 29-1.4c10.4 1.4 128.4 27.7 136.1 30.8 7.2 3.2 59.7 13.6 81 32.6s37.1 28.5 37.1 38.9 17.6 41.2-23.5 60.2c-41.2 19-112.7 23.5-129.8 23.5-16.7 0-110.8-14.9-121.2-19.9-10.4-4.5-109-33.9-114.9-37.1-5.4-3.2-33.5-6.3-37.1-12.7C300.7 381 290.3 344.8 290.3 344.8z"/>
              <path class="st3" d="M288.5,346.6l19.5,93.2c0,0,100.4,63.3,152.9,63.8c10,0,59.3,11.3,105,9s81-3.6,106.3-17.6 s43.4-19.5,47.1-29.9s4.5-16.3,5.4-25.8s10.4-42.1,10.4-42.1"/>
              <path class="st3" d="M416.5 380.5c0 0 38.5-11.8 48.9-11.8s34.4 3.2 46.6 4.5c12.2 1.4 40.3 9.5 52 12.2 12.2 3.2 18.5 4.1 26.2 7.7 7.2 4.1 18.5 14 18.5 14M653.1 502.7c0 0 20.8 12.2 20.4 19-.5 9.5-5 18.5-5 18.5-8.6 3.2-19.9 7.7-19.9 4.5s-4.1-21.3-4.1-21.3l-29.4-13.5M724.1 451.1c0 0 15.8 5.4 15.8 9 0 4.1.9-2.7.9 6.8s-7.2 23.1-7.2 23.1c-8.6 3.2-14.9.9-13.6-1.4 2.3-4.1-2.7-16.7-2.7-16.7l-5 2.7M304.3 424.9c0 0-26.7 11.3-29.4 13.6s-.9-.9-2.7 4.5.9 26.7.9 26.7l22.6-3.6-5-17.2 16.7-9"/>
              <path class="st3" d="M401.1,301.8c0,0,24,5.9,30.8,6.8s15.8,1.4,29.9,1.4c14,0,34.4-4.1,63.3,4.1c29,7.7,84.1,20.4,94.1,27.1 c10.4,6.8,10.4,13.1,20.4,16.3c10.4,3.2,9.5,2.3,19.5,3.2c10.4,0.9,40.3,0,44.8,7.7s7.2,20.8,1.8,29.4s-17.6,21.7-32.6,23.1 c-14.9,1.4-47.5-6.8-52.9-10s-10.4-4.1-16.7-3.2s-39.4,5.4-58.8,4.1c-19.5-1.4-98.6-20.8-109-24.9s-34.4-8.6-43-16.3 c-8.6-7.7-13.1-20.4-17.6-24.9s-10.4-5.4-18.1-10.9c-7.2-5-8.1-6.8,3.2-14.5C368.1,315.4,401.1,301.8,401.1,301.8z"/>
            </g>
          </g>
          <g class="st1">
            <path class="st4" d="M562.2 583.1L549.2 580.5M761.5 58.6c-6.7-1.3-211.4-23.7-279.1-32.3-67.2-8.5-71.7-7.2-79.7-1.3-8.1 5.8-17 5.8-17 15.2 0 9.9-21.1 176.5-21.1 176.5s-8.5 1.3-18.4 2.7c-9.9 1.3-251.8 104.4-258.9 109.7-7.2 5.8-11.2 17-7.2 22.4 4 5.8 30.9 12.5 36.3 11.2 5.8-1.3 5.8-1.3 5.8-1.3l8.5 382.6 19.7 7.2 17-13.9c0 0-18.4-130.4 1.3-124.5 19.7 5.8 392.4 85.6 392.4 85.6l-5.8 154.1 22.4 9.9 15.2-13.9 8.5-222.6 127.7-106.6 9.9 121.8 22.4 8.5 13.9-18.4-23.7-176.5 11.2-115.1c0 0 25.1-18.4 26.4-25.1s5.8-28.2 1.3-32.3c-4-4-25.1 1.3-25.1-2.7s26.4-190.8 26.4-198.9S792.5 65.8 761.5 58.6z"/>
            <path class="st4" d="M355.7 355.1L362 257.9 329.7 270.5 349.9 355.1M324.8 374.4L292.1 290.2 168.5 347.5 165.3 450.1M563.1 625.7c-4 0-432.3-82-432.3-82M159.5 510.1L161.7 550.9M600.3 691.1L731.5 575.5M460.1 341.2c0 0 .9-5.4-.4-7.2-.9-1.8-4.9-5.8-9-5.8s-31.4-2.7-33.6-2.2c-2.2.4-8.1 0-13 4l-16.6 8.5c0 0-7.2 4-8.5 7.2s-1.3 7.2-1.3 7.2"/>
            <path class="st4" d="M413.5 368.6c0 0 0-6.3-.9-8.1-.9-1.8-5.4-6.3-9-6.7-4-.4-32.3-3.1-34.5-3.1-2.2.4-8.1 0-13.4 4l-17 9c0 0-7.2 4-8.5 7.6s-.9 4-.9 4M365.6 389.2c-1.3-2.2-6.3-9.4-10.3-10.3-4-.4-35.4-4.9-38.1-4.5s-9-.4-14.8 4.9L284 390.5c0 0-8.1 4.9-9.4 9.4-1.3 4-1.3 4.9-1.3 4.9"/>
            <path class="st4" d="M217.3,437.6c0,0,0-3.1,1.3-7.6s9.9-9.9,9.9-9.9l19.7-11.6c6.3-5.4,13-4.9,15.7-4.9 c2.7-0.4,35.4,4,39.9,4.5c4.5,0.4,9.4,6.7,10.3,9"/>
            <path class="st4" d="M254.9 450.5c-1.3-2.7-6.7-9-11.2-9.9-4.9-.9-39.9-5.8-42.6-5.4-2.7.4-9.9-.4-16.6 5.4l-21.1 12.5c0 0-9 5.8-10.3 10.8-1.3 4.9 1.8 35.8 1.8 35.8s48.4 9 52.4 8.5c4-.4 15.2-1.8 17.9-4.5M531.7 349.3c0 0 .4-6.3-.4-8.5-1.3-1.8-5.4-6.7-9.4-7.2-4-.4-34-3.6-36.7-3.1-2.7.4-8.5 0-14.3 4.5l-17.9 9.4c0 0-9 6.3-9.9 9.9M488.3 368.6c-1.3-2.2-5.8-7.6-10.3-8.1-4.5-.4-35.8-4.5-38.5-4-2.7.4-9 0-15.2 4.9l-18.8 10.8c0 0-9.4 7.2-10.8 11.2M436.3 399c-1.3-2.7-6.3-9-10.8-9.4s-37.2-5.8-39.9-5.4-9.4-.4-15.7 5.4l-19.1 12.1c0 0-8.5 5.8-9.9 10.3M387.9 430.4c-1.3-2.7-8.1-11.6-13-12.1-4.9-.9-40.8-5.8-43.9-5.4s-10.3-.4-17 5.8l-21.5 13c0 0-11.6 7.6-11.6 12.5"/>
            <path class="st4" d="M327.5 466.2c-1.3-2.7-9-13.9-13.9-14.8-4.5-.9-39.4-6.7-42.1-6.3s-9.9-.4-16.6 5.8l-20.6 13.4c0 0-9 6.3-10.3 11.6-1.3 5.4 2.2 39.4 2.2 39.4s47.5 10.8 51.5 10.3c4-.4 17.9-2.7 20.6-5.4M517 363.2c1.3-4 8.5-9 8.5-9l17-10.3c5.4-4.9 11.2-4.5 13.9-4.5 2.2-.4 31.4 3.6 35.4 4.5 4 .4 8.1 5.8 9.4 8.1l2.7 5.4M462.8 391.9c1.3-4.5 10.3-9.9 10.3-9.9l20.2-12.1c6.3-5.8 13.4-4.9 16.1-5.4 2.7-.4 36.7 4 41.2 4.9 4.5.4 9.4 6.7 10.8 9l1.8 5.4M514.7 409.3c-1.3-2.7-6.7-9.4-11.2-10.3-4.9-.9-39.4-6.3-42.6-5.8-2.7.4-9.9-.4-16.6 5.8l-20.6 13c0 0-9 6.3-10.3 11.2"/>
            <path class="st4" d="M466.8 438.9c-1.3-2.7-6.7-9.9-11.6-10.8s-40.8-6.3-43.9-5.8c-3.1.4-10.3-.4-17 5.8l-21.5 13.4c0 0-9 6.3-10.8 11.2l-1.3 5.4M413.9 474.3c-1.3-2.7-7.6-10.3-13-10.8-5.4-.4-45.7-6.3-48.8-5.8-3.1.4-11.6-.4-19.3 6.3l-24.2 14.3c0 0-10.3 6.7-12.1 12.1-1.8 5.4 2.2 39.9 2.2 39.9s55.5 9.9 60 9 20.6-3.1 23.7-5.8c1.3-1.3-.4.4 5.4-4M646 348.9c-4.5-.4-15.2-2.2-17.9-1.8-2.7.4-9.4-.4-15.2 5.4l-19.3 11.6c0 0-6.7 2.7-9.4 6.7M606.6 373.9c-4.5-.9-15.2-3.1-17.9-2.7s-9-.4-15.2 5.4l-18.8 13c0 0-8.1 5.8-9.4 11.2M560.9 406.2c-4.5-.9-19.7-4.5-22.4-4-2.7.4-9.9-.4-16.1 5.8l-20.2 13.9c0 0-8.5 4-9.9 9.4M542 447.4c-1.3-3.1-4.5-7.2-9.4-8.1s-39.4-7.6-42.6-7.2c-2.7.4-9.9-.4-16.6 5.8l-20.6 13.9c0 0-9.4 6.3-10.3 12.1-.4 1.8 0 0 0 0"/>
            <path class="st4" d="M491,481c-1.3-3.1-4.9-7.6-9.9-8.5c-4.9-0.9-41.2-7.6-44.3-7.2c-3.1,0.4-10.3-0.9-17,6.3l-21.5,14.8 c0,0-9.4,6.7-10.8,12.5c-1.3,5.8,2.7,43,2.7,43s50.2,12.1,54.2,11.2c4-0.4,13.9-1.3,17-4.5"/>
            <g class="st2">
              <path class="st3" d="M675.1 462.2c4.5-.4 8.5.4 11.2-2.7s25.5-19.7 25.5-19.7M628.5 494c4.5 1.8 11.6 1.3 15.2-.4 4-1.8 31.4-25.5 31.4-25.5s-2.2-42.1-1.8-45.7c0 0-3.1-12.1-8.5-9.9M551 442l-26.9 18.4c0 0-9 4.5-10.8 10.8"/>
              <path class="st3" d="M609.7 511c3.1-3.1 19.7-11.2 19.7-11.2s-3.1-43.5-3.6-46.1c0 0-.9-9.9-8.5-7.6M563.1 481c-5.4-.9-47-8.5-50.2-8.1-3.1.4-11.2-.9-18.8 6.7l-23.3 15.7c0 0-10.3 7.6-11.6 13.4-1.3 6.3 2.7 46.6 2.7 46.6s54.7 13 59.1 12.5 20.2-3.1 23.3-6.3c2.2-2.2 10.8-9.4 19.7-16.1"/>
            </g>
            <path class="st4" d="M474.9,535.7c-1.8,1.8-4.9,8.5-5.8,9.9c-0.4,0.9-1.3,4.5-0.4,4.9c1.3,0.4,38.5,6.3,38.5,6.3 c1.8-1.3,4,2.2,6.3,1.8c1.3,0,4-0.9,5.4-3.1c0.9-1.3,0-6.3-2.2-6.7c-1.3-0.4-2.7,0-3.1,0.4c-0.9,0.4-2.2-0.4-2.2-0.4 c-0.4-0.9-0.4-1.8-0.4-1.8l-31.4-4c0,0,0.9-5.8,1.3-6.3C482.5,535.7,477.1,533,474.9,535.7z"/>
            <path class="st4" d="M481.6 539.2c1.8-.9 3.1-4 1.8-7.2-.9-3.6-4-4.9-6.7-4-2.7 1.3-4 4.9-2.7 8.5M496.4 545.5c0 0-5.4.4-2.2 9M510.2 547.3c0 0-6.7 2.2-3.1 9"/>
            <path class="st4" d="M563.1 567.9l-4.5 4c0 0-16.6 15.2-31.4 14.3-14.8-.9-176.9-32.7-176.9-32.7S138 504.7 135.7 502.1c-1.8-2.7-9.4-9.4 1.8-15.2 11.6-6.3 11.6-6.3 11.6-6.3M715.4 459.1L610.6 537.9"/>
            <path class="st4" d="M764.7,271.4c-10.8,5.3-213.7,139.3-217.3,144.7s-5.4,4-5.4,14.8s23.7,14.8,23.7,14.8l-4,251.8"/>
            <path class="st4" d="M608.3 568.4V451.9l96.8-69c0 0 14.8 87.4 12.1 91.4C714.5 478.3 608.3 568.4 608.3 568.4zM511.1 530.3L517.9 510.6M519.2 534.8L536.2 514.2M528.2 545.1L545.2 531.2"/>
          </g>
          <g class="st1">
            <path class="st4" d="M344.4,217.1l24.5,8c0,0,152.8,126.3,165.2,135.3s118.5,67.7,140,75.6c21.4,7.9,141.1,67.7,145.6,77.9 s28.2,46.3,18.1,63.2s-324,128.7-324,128.7s-46.3,12.4-51.9,7.9s-49.7-7.9-63.2-28.2s-76.8-141.1-81.3-152.4 s-46.3-77.9-85.8-105S100.8,314,96.7,299.9c-0.9-3.3,4.1-33.6,15.4-38.1C123.3,257.3,344.4,217.1,344.4,217.1z"/>
            <path class="st6" d="M149 244.5L149 256.9 148.4 267.1 131.4 267.7 120.1 255.2 120.7 243.9zM341.8 206L341.8 218.5 341.2 228.7 324.3 229.2 316.4 217.3 318.6 203.8z"/>
            <path class="st4" d="M112 261.8c0 0 60.8 85 74.3 92.9s70 51.9 80.2 62.1 96 93.7 100.5 114 23.7 68.9 31.6 77.9 45.2 64.3 59.8 63.2c14.7-1.1 140-36.1 147.9-40.6 7.9-4.5 158-62.1 171.6-65.5 13.6-3.4 51.9-40.6 41.8-51.9M122 260c0 0-1.1-33.9 10.2-44s33.9-31.6 73.4-35 86.9-18.1 105-16.9 24.8-1.1 30.5 11.3c5.6 12.4 10.2 15.8 5.6 24.8s-2.3 26-9 27.1-23.7 1.1-23.7-3.4 7.9-24.8 4.5-29.4-75.6 2.3-84.7 6.8c-9 4.5-64.3 14.7-67.7 21.4s-12.4 13.5-13.5 20.3 0 15.8-2.3 19.2S138.9 275.8 122 260z"/>
          </g>
          <g class="st1">
            <path class="st4" d="M342.9 469.6L408.5 433.4 480.6 402.7 769.9 487.9 772.1 511.5 589.6 636.8z"/>
            <path class="st4" d="M769.9 487.9L682 561.4 589.1 636.8"/>
            <path class="st6" d="M448.2 397.4L499.6 403 535.1 412.9 540.3 428.6 508 444 510.3 415.2 449.8 409zM447.4 419.7L415.9 416.6 388.8 441.5 395.8 448.5zM477.6 553.2L482.2 566.4 472.9 576.5 458.9 567.1 448.8 549.3 445 541.5 451.2 533.8zM436.8 528.6l-12.3-1-7.5-8.9c0 0 1.7-10.6 3.4-10.2C422.1 508.9 436.8 528.6 436.8 528.6z"/>
            <g class="st2">
              <path class="st3" d="M471.9,216.6l53.7,176.9h9c3.7,7.5,2.2,15.7,2.2,15.7l3,17.9c0,0-2.2-1.5,9.7-0.7 c11.9,0.7,20.9,3.7,23.9,9c3,5.2,6.7,7.5,6,14.2s-0.7,12.7-0.7,12.7l-2.2,7.5c0,0,11.2,11.9,9.7,19.4s-1.5,7.5-1.5,7.5 s6.7,31.3-6,46.3s-23.9,12.7-29.9,8.2s-23.1-26.1-2.2-68.7l-41.8-6c0,0-31.3,54.5-29.1,55.2s4.5,7.5,4.5,7.5l-2.2,17.2 c0,0,11.2,9.7,9,44s-35.8,38.8-40.3,37.3s-33.6-7.5-20.1-59.7c0,0,13.4-24.6,22.4-27.6c0,0-4.5-5.2-1.5-11.2s11.9-9,14.2-9 c2.2,0,28.4-59.7,28.4-59.7l-31.3-4.5v7.5c0,0,10.4,41.8-19.4,55.2c0,0-17.2,0.7-20.1-6s-14.9-20.9,1.5-59l-14.9-5.2 c0,0-8.2-6-8.2-8.2s-11.2-7.5-11.2-10.4s0.7-4.5,0.7-8.2s-3-13.4-3-13.4l-26.9,10.4l-44.8,74.6l6.7,9l-3,6 c0,0,26.9,22.4,3,57.5c0,0-12.7,26.9-35.8,15.7s-26.1-39.6-12.7-61.2c0,0,11.2-14.2,16.4-17.2c5.2-3-3.7-8.2,2.2-11.9 s13.4-3.7,13.4-3.7l57.5-109.7c0,0-14.2-23.1-11.9-26.1c2.2-3,11.9-6.7,11.9-6.7L349,331.9c0,0-9-1.5-8.2-3.7 c0.7-2.2,4.5-6.7,4.5-6.7l-3.7-14.2l-26.5-69.8c0,0-5.2-2.2-6.7,0s-2.2,3.7-6.7,5.2s-4.5,1.5-4.5,1.5l2.2,14.2 c0,0-17.9,16.4-20.1,18.7c-2.2,2.2-3-5.2-3-5.2l17.2-17.2l-9-19.4c-6,4.5,2.2,1.5-6,4.5s-12.7,6-19.4,3.7s2.2,1.5,1.5,9.7 s-3,89.6-6.7,111.9s-7.5,31.3-7.5,41.8c0,10.4-3,44.8-8.2,95.5c0,0-17.9,40.3-20.1,50c-2.2,9.7-1.5,47-1.5,55.2 s-1.5,9.7,3.7,14.9s17.2,0,26.9,1.5s20.9-3.7,16.4,6.7s-5.2,18.7-40.3,26.9c0,0-11.2-3.7-12.7,0s-4.5,21.6-4.5,21.6 s-2.2,4.5,5.2,6c7.5,1.5,17.9-2.2,25.4-2.2s16.4-6,19.4,1.5c3,7.5,7.5,6.7,4.5,13.4s-51.5,23.9-58.2,25.4s-46.3,3.7-49.3,4.5 s-3,0.7-3,0.7s-38.1,3.7-38.1-0.7c0-4.5-0.7-14.2-0.7-14.2s0.7-161.2,3-170.2c2.2-9,5.2-26.9,5.2-29.1s12.1-109.7,9.1-120.2 c-3-10.4-33.6-164.9-32.8-171.6s-3-54.5-0.7-59.7c2.2-5.2,202.1-2.2,202.1-2.2v20.9c0,0-8.2,29.9-3.7,30.6s6.7,0,12.7,0 s13.4,3.7,13.4,8.2s0,4.5,0,4.5l35.1,86.6c0,0,4.5,7.5,6.7,4.5s2.2-3,2.2-3s0.7,3,5.2,3.7s11.9-3.7,16.4-6s93.3,3,95.5,3 s6-3.7,4.5-7.5c-1.5-3.7-19.4-64.2-19.4-64.2s-6-1.5-10.4,0s-11.2,0-11.9,3s0,6-3,8.2s1.5,6-3,2.2c-4.5-3.7-7.5,4.5-4.5-3.7 s8.2-11.9,4.5-13.4s-12.7,0-15.7-1.5s-9-3.7-6.7-6c2.2-2.2,14.9,0.7,12.7-3s-13.4-5.2-14.9-9c-1.5-3.7-1.5-11.2-1.5-11.2 l-11.2,1.5c0,0-6.7-9.7-13.4-19.4c-6.7-9.7-30.6-26.9-30.6-26.9h72.4c0,0,11.2,19.4,11.2,23.1s0,7.5,4.5,9s9,4.5,11.9,7.5 c3,3,3.7,4.5,4.5,11.2c0.7,6.7,3,16.4,5.2,14.9C468.1,227,471.9,216.6,471.9,216.6z"/>
              <path class="st3" d="M366.6 342L490.5 346.4 511.4 403.2 385.3 389zM390.5 403.2L507.7 415.1 508.4 427.3 395.7 413.2z"/>
            </g>
            <path class="st4" d="M772.2 511.6L796.6 494.4 796.3 471 769.8 487.5zM537.6 401.1L796.3 471 791.7 151M495.2 292.9L492.3 135.5M497.2 389.8L497 364.4M507.8 394.5L497.2 391.1 479.8 399.6"/>
          </g>
          <g class="st1">
            <g class="st2">
              <path class="st3" d="M676.6 569.3L60.9 496.7c3.8-.5 229.9-55.9 235.7-56.7 3.7-.5 224.9 20.6 380.7 35.6M675.7 604.2L60.3 523.9 61 497.5"/>
            </g>
            <g class="st2">
              <path class="st3" d="M701.3 704.1L693.5 696.8 679.1 702.3 679.1 702.3 54.4 590.2 53.9 550.4 53.4 370.2 40.3 363 42.6 353.4 268.8 323.5 273.6 334.3 272.4 371.4 273.6 383.3 678.1 413.2 680.5 402.5 832.4 352.2 852.8 354.6 851.6 365.4 839.6 370.2 840.8 602.3 840.5 610.4 833.8 612.8 832.6 609.6 712.7 691.9 713.2 700.4 701.3 704.1"/>
              <path class="st3" d="M276.4 442.4L276.4 422.4 277.2 407.3 678.1 442M676.9 610.7L54.1 529.1 53.6 556.8M54.6 562.3L54.4 590.2 679.1 702.3 677.2 657.9z"/>
              <ellipse class="st3" cx="840.5" cy="623" rx="10.8" ry="12.6"/>
              <ellipse class="st3" cx="711.2" cy="714" rx="10.8" ry="12.6"/>
              <ellipse class="st3" cx="73.2" cy="605.8" rx="10.8" ry="12.6"/>
            </g>
            <path class="st4" d="M678.1 413.2L677.2 657.9M335.1 118.7L192 137.8c0 0-34.9 146.1-33 149.9s.1 47 .1 47"/>
            <path class="st4" d="M309.1,148.7c0,0-15.1-29.2-8.5-33s16,13.2,13.2,20.7s-2.8,7.5-2.8,7.5l-3.3,6l-7.1,12.8l4.7,74.5l9.4,5.7 l-6.3-92.3"/>
            <path class="st4" d="M316,242.9c0,0,27.4,45.4,31,51.6c2.9,4.9,0.8,8.6-3.4,11.5c-7.7,5.3-58.3,3.8-58.3,3.8s-12.9-2.2-12-10.3 c0.6-5.7,32-62.2,32-62.2"/>
          </g>
          <g class="st1">
            <g class="st2">
              <path class="st3" d="M676.6 425.3L60.9 352.7c3.8-.5 229.9-55.9 235.7-56.7 3.7-.5 224.9 20.6 380.7 35.6M677.3 460.5L60.9 385.1 60.9 352.7"/>
              <path class="st3" d="M675.7 480.2L60.3 399.9 61 384.4"/>
            </g>
            <g class="st2">
              <path class="st3" d="M701.3 580.1L693.5 572.8 679.1 578.3 679.1 578.3 54.4 466.2 53.9 426.4 53.4 246.2 40.3 239 42.6 229.4 268.8 199.5 273.6 210.3 272.4 247.4 273.6 259.3 678.1 289.2 680.5 278.5 832.4 228.2 852.8 230.6 851.6 241.4 839.6 246.2 840.8 478.3 840.5 486.4 833.8 488.8 832.6 485.6 712.7 567.9 713.2 576.4 701.3 580.1"/>
              <path class="st3" d="M276.4 298.4L276.4 298.4 277.2 283.3 678.1 318M676.9 486.7L54.1 405.1 53.6 432.8M54.6 438.3L54.4 466.2 679.1 578.3 677.2 533.9z"/>
              <ellipse class="st3" cx="840.5" cy="499" rx="10.8" ry="12.6"/>
              <ellipse class="st3" cx="711.2" cy="590" rx="10.8" ry="12.6"/>
              <ellipse class="st3" cx="73.2" cy="481.8" rx="10.8" ry="12.6"/>
            </g>
            <path class="st4" d="M678.1 289.2L677.2 533.9"/>
          </g>
          <g class="st1">
            <g class="st2">
              <path class="st3" d="M678.1 439.7L528.1 421.5M188.6 380.1L62.3 365.2c3.8-.5 209.6-55.4 215.4-56.2 3.8-.5 239.4 21.8 401.4 37.3"/>
              <path class="st3" d="M187 412.8L62.3 397.6 62.4 365.2M677 473.9L528.1 456.1"/>
            </g>
            <g class="st2">
              <path class="st3" d="M55.9 465.7L55.4 425.9 54.9 245.6 41.7 238.4 44.1 228.9 270.3 199 275.1 209.7 273.9 246.8 275.1 258.8 679.5 288.7 681.9 277.9 833.9 227.7 854.3 230.1 853.1 240.8 841.1 245.6 842.3 477.8 842 485.9 835.3 488.3 834.1 485.1 714.2 567.4 714.6 575.9 702.8 579.6"/>
              <path class="st3" d="M702.8 579.6L695 572.3 680.5 577.8 680.5 577.8M277.9 306.9L277.9 297.9 278.7 282.7 679.5 317.4 679.5 349.7M187.8 422.8L55.6 404.5M678.3 486.2L530.2 468.7M190.1 458.3L56.1 437.8 55.9 465.7 195.2 490.6M529.2 550.4L680.5 577.8 678.7 533.3 530.6 510.4"/>
              <ellipse class="st3" cx="842" cy="498.4" rx="10.8" ry="12.6"/>
              <ellipse class="st3" cx="712.7" cy="589.5" rx="10.8" ry="12.6"/>
              <ellipse class="st3" cx="74.7" cy="481.3" rx="10.8" ry="12.6"/>
            </g>
            <path class="st4" d="M679.5 288.7L678.7 533.3M522 523.9c0 0 7.6 1.4 8.8 1.2s1.6-.4 3.3-1.4c2-1.2 5.3-1.3 7.2-.3 2 1 4.8 5 4.4 7.2 0 0 .2 2.9-2.4 5.7-1.1 1.1-3.9 1.5-5.7 1.2-2.9-.5-3.4 0-6.7-2.2"/>
            <path class="st4" d="M522,523.9c0,0.8,0,5.3,0,5.3l8.3,1.9l1.4-0.1c0,0,1.8-0.6,2.6-1.4c0.6-0.6,1.7-1.8,4-1.3s2.6,1.7,2.7,3 c0,0-0.1,2-3.1,3.1c-1.1,0.4-6.2-0.2-6.4-0.9"/>
            <path class="st4" d="M621.8,346c-21.2-1.9-73.3-3.2-85.3-4.3c-10.6-1-182.2-19.8-185.7-19.8s-5.7,1.2-14.5,10.9 c-3.7,4.1-34.3,12.2-39.5,14.7c-7.1,3.3-57.6,18.8-64.5,20.3c-7,1.5-28.1,9.1-34.6,9.1s-8.5,3-10.5,6s-0.5,14,0,17.5 c0,0-0.5,23.4,3.6,62.6c0.4,4,9.7,49,9.9,53.5c0.2,3,0.4,6.2,2.4,8.7s266.8,49.6,273.4,50.7c11,1.9,34.4,3.4,30.2,3.1"/>
            <path class="st4" d="M530.5,531.6c0.1,1.8,0.3,6.6,0.3,8c0.1,2.4,0.1,3.9,0.1,4.3c0,2.5-3.6,10.7-7.1,16.1 c-1.9,2.9-4.9,6.4-6.4,8.9s-7.6,8.4-9.1,9.7c-1.4,1.3-4.2-2.8-3-11.3c0.5-3.5,2.5-24.4,3-31c0.5-6.5,10.2-89.3,10.7-98.8 s1-12.3,3.8-14.2c3.4-2.3,8.2-4.1,10.2-5.1s47.9-23.4,51.9-25.4s28.4-19.2,40.7-25.4c4-2,2.4-20.4-1.2-20.4"/>
            <path class="st4" d="M526.3 421.7c0 0 2.1 45.3 2.1 48.3 0 2 1.3 34.1 2 55.3M526.6 420.5c0 0 22.2-13.2 27.2-16.3 8.2-5.1 16.1-11.6 17.8-13.1 6-5.1 22.5-19.1 26.4-23.4 12.1-13.1 21.6-26.9 27.5-20"/>
          </g>
          <g class="st1">
            <path class="st4" d="M335.6 308l8.5 1.7c0 0 19.3 10.2 21 11.4s5.1 2.3 8 .6c2.8-1.7 19.9 7.4 19.9 7.4s6.8 7.4 4 7.4-29.2-.1-44.3 13.6c-14.6 13.2-17.1 11.4-17.1 11.4V308L335.6 308zM339.1 409.8c0 0 4.2 17.2 19 29.7l3.7 11.8-12.5 2.3v-4.5c0 0-5.7-4-8-5.7C339.1 441.6 339.1 409.8 339.1 409.8zM562.9 255.8l-.7 7.6-8.9 59.8h-3.6l8.9-59.2-2.4-.6c0 0 1-6.9 1.4-9.6.2-1.4-7.3-8 2.3-11.8"/>
            <path class="st4" d="M314.6,578.7c-15.1-15.2-29.2,1-29.2,1s-1,3.1-2.1,4.8s-1.2,27.5-1.2,27.5c-15.8,7.3-3.4,11.9-8,17 s-0.4,16.9-0.4,16.9c9,26.8,22.9,26.4,22.9,26.4s5.5,0,13.3-4.4c7.5-4.3,4.6-20.9,4.6-20.9l7.8-4.8v-16.3l-2.7-5l-0.7-15.5 c10.8,0,12-8,12-8c5.7-6.3,45.6-8,45.6-8c85.6,8.6,81,94.7,79.3,100.4s-3.4,18.8-5.7,21.1s-6.3,8.6-6.3,8.6l-2,38.5 c-19.2,2.3-15.3,20.6-15.3,20.6c6.9,40.4,34.3,42.5,34.3,42.5c18.7-1.4,12.7-31.4,12.7-31.4c7.4-4.6,5.7-24,5.7-29.1 s-1.3,3,1-5.5c2.3-8.6-3.4-22.9-4.4-27.6c-0.8-3.7-0.6-6.3,0.6-12c1.1-5.7,1.1-21.1-2.3-22.8s-1.7-8-1.7-8l14.8,10.8l36.5-16.5 l-1.7-75.3l77.6-25.7l56.5,31.9c0,0-6.3,12.3,1.7,14.3c14.5,3.5,16.1,5.3,20.1,9.3s-0.8,11.2-0.8,11.2 c-22.3-6.3-21.7,16.2-21.7,16.2c0.1,21.4,19.2,32.4,19.2,32.4c30.6,9.8,24.5-24.5,24.5-24.5c7.3-4.3,7.1-21.7,8-25.4 c1.1-4.3,1.4-6.2,1.4-6.2l-1-13c0,0,2.8-15.8-6.2-21.9c-8-5.5-9.3,2.2-16.7-0.7s-21.2-3.2-21.2-3.2l-5.7-2.9l-120.4-69 l-2.9-16.5c6.3-2.3,18.3-14.3,18.3-14.3s66.2-17.7,103.8-35.9c37.7-18.3,35.9-57.6,35.9-57.6c-2.3-49.1-77.6-65.6-77.6-65.6 l3.4-77.6c29.1,2.3,37.1,13.1,43.4,16s11.4,0.6,11.4,0.6c18.3-2.9,18.3-13.7,18.3-16.5c0-2.9,0-5.7-28.5-24.5 s-65-17.1-80.4-15.4s-21.9,19.8-22.5,22.1c0,0-2,10.9,4.6,16.8s9.2,6.6,19.8,3.3c10.6-3.3,13.2-4,14.9-3.3s-0.3,74.7-0.3,74.7 s-35.9-8-50.2-9.8c0,0-41.6-3.4-65.6-2.9s-69,11.4-69,11.4c12.6-3.4,12.6-8,13.7-10.8c1.1-2.9-5.9-16.2-5.9-16.2 c19.5,0,74-22.6,74-22.6c71-35,38-146,38-146C482.6,11.5,398.2,19.7,398.2,19.7s-65.8-8.2-90.5,73s3.1,163.5,3.1,163.5 s-7.9,2.9-18.8,5.2c-10.8,2.3-13.1,13.1-6.8,28c6.3,14.8,34.2,17.1,34.2,17.1l2.9,130.1l-2.9,4l0.6,5.1 c-8-1.7-17.5,2.3-17.5,2.3c-20.1,16,18.6,18.7,18.6,18.7l1.3,27.6c0,0,13.8,10.9,19.5,10.9s7.7-2.5,9.4-3.6s6.3,0.6,6.3,0.6 s10.3-10.8,11.4-12.6c1.1-1.7,0.6-9.7,0.6-13.1s6.3-1.7,6.3-1.7s6.3,9.1,6.3,11.4s-8.4,9.3-10.1,13.3s8.8,7.7,13.4,7.7 s21.3-10.5,22.4-12.8s0.5-10.2-4-12.4s-11.9-0.2-11.9-0.2l5.1-13.1l24.5,9.1l1.1,5.7l10.3-1.7l9.7,5.1l4.6-1.1c0,0,12,6.3,16,8 s1.7,4,1.7,4l2.3,33.1l-5.1,1.1c0,0,2.9,12.6,1.1,16.5c-1.7,4-8.6,6.8-10.3,7.4c-1.7,0.6-67.3,20.5-67.3,20.5 c-16-2.9-47.4,6.2-60.7,2.5"/>
            <path class="st4" d="M214.8 420.9c0 0 22.2 62.3 29 80.7 8 21.6 24.7 38.4 37.3 44.7s21.1 7.1 24.8 7c0 0 6.1-.5 6.9 1.8 1.1 3 1.6 5.2 1.6 5.2l-3 .7 3.9 18.5M214.2 420.8c-6.5 0-11.7-5.2-11.7-11.7s5.2-11.7 11.7-11.7 11.7 5.2 11.7 11.7c0 3.5-1.5 6.6-3.9 8.7"/>
            <path class="st4" d="M222.2,417.9l26.6,74.2c0.3,0,8,21.9,16.2,31.6c0,0,11.1,17.5,35.3,22.1c0,0,11,0.2,13.4,1.9 s5.4,3.1,6.4,11.1l2.3-0.7l2.2,19.9"/>
          </g>
          <g class="st1">
            <path class="st4" d="M505.9 354.3c0 0 .4-71.6 2.2-74.3 1.7-2.7 12.9-27.9 37.5-40 0 0 4.3 1.3 7-1.9 2.7-3.1 10.4-11.5 15.6-11.3 5.2.2 5.2.2 5.2.2s-4.2-19.1-3-20.5 2.5-5.1 5.7-5.3c3.2-.3 5-2.4 7.4-.3s-.1 1 2.4 2.1c3 1.3 19.7-4.9 22.8-6.4 3.1-1.6 9.9-9.6 6.8-11.6-3.1-2-23.3-19.1-26.1-17.9-2.8 1.2-12 4.2-10.2 6.3s4.5 3.8 3.1 6.2-7.2 2.9-6.1 5c1.2 2.2 1.8 6.3 2.3 7.9s.3 3.3-4.7 5.3l-31.6 13c0 0-12.6 6.1-19.1 1.8s-12-12-13.4-21.6-8.6-45.4 20-64.5c2.8-1.8 10.4-7.3 20.2-2s12.6 19.7 14.9 19.8 5.1-.4 7.6 1.6.4 9.4 2.7 9.5 8.3-1.3 12.6-.7 34.1 16.9 38.7 22.1c4.6 5.1 5.5 11.9 3.4 14.3s-30.9 17.4-32.5 17.9-15.2 3.1-15.1 5.8c.1 2 .8 1.9.8 1.9 4.6.3 41.3-13.4 44.8-14.7s26.8-1.2 30.7-.9 6.1-4.4 9.9-1.8 9.3-1.1 8.2 8.7-22.6 23.1-27.9 15.3c-1.8-2.8.2-1-1.8-2.8-2.1-1.8-11.5-2-16.1.7s-18.5 7-19.3 10-.9 5.3-4.1 9.1c-3.2 3.8-5.6-1.2-3.2 3.8 2.4 5 2 8.3 3.4 9.4 1.4 1.2-3.3-1 1.4 1.2 4.7 2.2 7.3 18.2 6.1 19.6s-4.9-.6-6.9 3.2-.7 34.7-.7 34.7l-4.1 1.3 3.1 76M358.2 395.2c0 0 6.1-12.9 6.1-15.8s-.5-1.6 5.7-6 28.7-12.7 29.8-15.4c1.1-2.7 1.3-7.2-1.6-7.3-2.9-.1-44.6 10.5-51.3 10.4-1.4 0-9.5-1.5-8.8-4.5s4.1-9.1 6.2-11.5-1.6-3.1-3.7-2c-2.2 1.2-20 8.8-19.9 6.5s-.4-16.5 5.9-18.3 89.3-24.7 89.3-24.7 5.6 10.1 18.6 25.6M252.9 704c-3.1 1-17.9 1.5-17.9 1.5s-3.9 3.2-5.8-.2c-1.9-3.4-2.8-3-4.3-1.3s-2.3-4.7-11-3.3c-4.2.7-3.6 3.5-4.8 4.3-1.2.7-20.3.7-21.8-1.1s-1-8-.1-9.1c.9-1 3-22.6 3-22.6s-1.7-20.6-.5-22 18.5.7 19-1.9c.4-2.6-4.1-14.2-2-16.7 2.1-2.4 5.4-5.6 6.9-6.1 1.6-.5 66.1-191.5 66.1-191.5M330.7 480.4L300.2 488.8 287.6 530.1"/>
            <path class="st6" d="M468 373.1c0 0 38-9 39.6-9s34.7 4.5 34.7 4.5l22.5.8 5.7 11-2.9 10.6-22.9-3.7-47-2.5L468 373.1zM298.8 442.2L383 403.4 399.7 411.9 407.5 400.1 429.6 398.5 424.2 414 389.1 445.4 384.3 484.7 330.7 470.8 306.6 468.7 302.1 465 296.8 464.2 292.3 461zM767.8 271.7L757.1 282.5 750.6 292.5 749.2 302.5 780.7 324.8 782.2 331.9 794.3 332.6 803.6 311.1 796.5 294.7zM717.1 336.1L701.1 337.8 632 424.6 638.7 431.7 648.8 441.5 736.5 373.2zM273 540.8L274.8 544.9 290.2 579 272.3 623.7 282.5 622.3 312.3 619.3 352.6 606.9 360 566.9 349.7 543.4z"/>
            <path class="st4" d="M645.5 675.5c0 0 0 0-.9 5.5s11.9 23.7 22.4 15.5 5-17.3-.9-25.6c0 0-8.6-4.8-12.8-2.6M250.9 633.5c0 0-9.1-20.1-8.7-24.2.5-4.1.5-11 3.7-12.3 3.2-1.4-2.7-6.3-.5-10s5.9-6.4 10-5.9 14.6 1.8 14.6 1.8 4.1-11.9 7.3-11.9-7.8-12.3-7.8-16 1.8-10 4.6-10.5c2.7-.5-8.7-7.8 4.1-14.6l67.4 5.1c1.7-2.7-8.6-8.7-8.6-8.7s-.4 2.7-3.6 2.6c-4.1-.1-30.6-14.8-19.7-23.3 3.1-2.4 2.4-5.5 12.1.2 18.9 11.2 13.8 15.3 13.8 15.3l11 7c.9-3.2.9-15.1.9-16.4 0-1.3 2-.3 0-1.4-4.8-2.7-4.1-10.5-4.1-11.9s-18.7-20.5-21-20.5-3.2 3.2-5 3.2-18.7-16.6-21.8-15.3c-1.3.5-12-5.2-12-7.5s11.4-15.5 11.4-15.5l-47.5-20.5-74.9 43.8c0 0-1.8-3.2-4.1-1.8s-2.3 1.4-2.3 1.4-.9 2.3-.5 5c.5 2.7-28.3 25.1-28.3 25.1s3.7-1.8 5.9.5c2.3 2.3 2.3 8.2 1.4 11.4-.9 3.2-9.1 13.7-9.1 16.4s-6.8 25.9-25 9l-2.4-5.4c0 0-3.7 7.3-6.4 9.1s-16.9 21.5-20.1 21-25.1-25.6-25.1-25.6-5-.9-3.7-4.6c1.3-3.7-.8-3.6-3.1-3.6s.6.9-6.1-4.9c-3.2-2.7 3.6-7.2 2.2-6.8-9.2 2.9-19.5-15.3-19-17.6s5.5-5.9 6.8-5.9 19.2-12.3 19.2-12.3 15.2-15.9 17-15.9 10.8 15.9 13.1 14.5 8.6-10.4 11.7-11.1c8.1-1.9 10.6 4.8 11.9 3.9 88.7-62.4 151.2-90.5 151.2-90.5l-.5-4.6c0 0 35.1-17.7 42.9-19.2 9.8-1.9 43.4 15.5 45.2 20.1s1.8 5.9 0 9.6-8.7 10.5-8.7 10.5 25.8-1.8 55.7 16.4c3.7 2.3 1.5 1 3.2 0 1.2-.7 26.5-37.9 28.8-39.7 2.3-1.8.9-1.4 8.2.5s28.3 13.7 31 12.8c2.7-.9 6.4-3.7 4.6-5.9-1.8-2.3-40.6-31-41.1-32.4s-5-8.2-2.3-9.6 9.6-2.7 12.8-2.7 1.4-3.2-.9-4.1-19.6-9.6-17.8-11 12.3-11 17.8-7.3 77.6 52.9 77.6 52.9 63.4-1.4 91.3 32l2.3 4.1c0 0 72.1-59.8 75.3-60.3s29.7-8.2 54.8 2.7c0 0 1.8 4.1 5.9 4.1 4.1 0 15.5.5 18.7 4.6s3.2 4.1 3.2 4.1 11.9-15.5 13.7-15.5 5.5-1.4 7.8.9 5 2.3 5 5.5-.5 0 0 3.2 15.8 10.4 19 11.8 12.8 1.8 13.9-.8c1.4-3.4-.5-30.1-3.2-31.5s-11-6.4-11.4-3.7c-.5 2.7 0 5.9-2.7 6.4s-6.8-3.7-7.8-1.4c-.9 2.3-3.7 5.5-4.6 6.8-.9 1.3-2.3 2.4-7.1-.2l-30.3-15.7c0 0-12.8-5.6-13.7-13.4s1.4-16.9 7.8-24.2c6.4-7.3 29-35.9 62.1-26.5 3.2.9 12.3 3.2 14.6 14.1s-6.8 22.4-5.5 24.2c1.4 1.8 3.7 3.7 3.7 6.8s-6.8 6.4-5.5 8.2 6.4 5.5 8.7 9.1 9.1 37 8.2 43.8c-.9 6.8-7.5 10.6-10.7 10.6s-31.7-12.9-33.1-13.8c-1.4-.9-12.5-7.6-13.7-6-2.1 2.8 36.1 24.6 39.3 26.5 3.2 1.8 15.2 16.1 17.4 19.3 2.2 3.2 3.2 2.8 6.5 6 3.5 3.4 8.3 6.9 1 13.5-9.4 8.6-28.4-2.8-25.8-12 .9-3.2-7.1-10.2-12-12.3-5.5-2.3-17.3-9.6-20.1-8.2-2.7 1.4-4.6 2.7-9.6 2.7s-3.9-2.3-5 0c-2.4 5-5 6.8-5 8.7s-1.4-3.2 0 1.8-9.1 17.3-11 17.3c-1.8 0-2.7-4.1-6.8-3.2S727 435.7 727 435.7l-3.7-2.3-46.8 43.3M400.4 656.4l-54.1-33.5-7.8 1.4c0 0-15.4 13.9-19.9 17.5"/>
            <path class="st4" d="M311 362c0 0 18.4 6.6 20.4 10.3 1.5 2.8 2.5 5.5-.2 7.7s-8.3 9.2-8.3 9.2-6.3-2.9-10.1-5.2c-4.3-2.7-12.8-4.5-13-6.7C299.4 372.3 299.3 363 311 362zM828 261.8c0 0-29.1.9-50.3 32.3 0 0-15.2 18.4-7.4 30.4M544.5 124.3c0 0-20.8 20.3-15.2 57.8 0 0 5.4 21.4 19.3 25"/>
            <g class="st2">
              <path class="st7" d="M672.2,170.8c0,0,76.3-18.5,116.4,53.2"/>
              <path class="st8" d="M773.4,217c0.3-0.5,0.9-0.7,1.4-0.4l13.6,7.1l0.7-15.3c0-0.6,0.5-1,1-1c0.6,0,1,0.5,1,1l-0.8,16.9 c0,0.3-0.2,0.7-0.5,0.8c-0.3,0.2-0.7,0.2-1,0l-14.9-7.8c-0.2-0.1-0.3-0.2-0.4-0.4C773.3,217.7,773.3,217.3,773.4,217z"/>
            </g>
            <path class="st4" d="M677.4,632.5c0,0,0,0,0.9,5.5s18.8,18.7,26.1,7.6c7.3-11.1-0.8-18-9-23.9c0,0-9.7-1.8-13,1.7"/>
            <ellipse transform="rotate(-18.594 531.46522365 557.72579885)" class="st9" cx="531.5" cy="557.7" rx="164.3" ry="162.7"/>
            <circle class="st4" cx="281.2" cy="668.5" r="45.4"/>
          </g>
          <g class="st1">
            <path class="st6" d="M304,281l-7.6,11.8l1,21.6l11.7,29.7l-4.6,52.7l41.3,249.9c0,0-46.4-14.7-47.2-22.1 c-0.6-5.4-9.6-16-9.6-16l-47.1-19.9l-5.4,10.8l-26.3,17.3l-1.8,19.7l18.5,16.7l36.5-17.3l-2.3-22.4l15.5,9.9l17.9,34.7l4.8,4.2 L434,727.4l109.9,8.7l64.9,30.2l11.3,10.4l25.7-22.4l13.7,4.8l-17,16.5c0,0-1.6,13.2,0.1,18.2c-2.9-13.6,0.5,15.7,11.5,15.7 s-5.5-14.3-2.6-0.7c2.2,10.4,29.9,4.2,23.2,7.8l-2.4-0.9c0,0,20.4-12.2,29.7-23.1c9.2-10.9-6.9-27.1-3.6-29.6 c3.4-2.5,1.2-7.1,1.2-10.5s-37.7-18.4-44.4-18.4s-9.2,8.4-9.2,8.4l-6.7-1.7L573.9,709l0,0l69.4-46.8l4-16.8l9.6,15L646,641.1 l10.9,19.3l65.4,26c6.6,2.4,6.8,6.5,7.5,8.9l1.7,2l28.6-28c1.7-2.5,22.5,6.3,22.5,6.3l-23.5,12c-8.5,9.8-11.1,17.9,6.8,41.4 c5.9,7.8,26.4-2.2,20.9,2c-8.5,2.9-1.6,2-1.6,2l12.8-11.3l7.7-9.9l3.9-12.4l-5.9-18.9l3.6-5.9l-2-5.2l-12.7-7.5l-32.2-7.1 l-8.9,6.6c0,0-55.6-22.8-58.1-22.8s-29.8-13-29.8-13s-17.9-25.6-22-33.9c-4.1-8.2-14.5-9.2-14.5-9.2l-48.2-25.9l-23.6-185.2 c0,0,8.2-13.3,9-19.9s-7.4-17.3-7.4-17.3l-13-14.9 M471.2,524.5c0-2.4-0.1-12.2-0.1-12.2c4,1.6,12.7,3.4,14,5.5 s4.9,12.1,4.9,12.1S471.2,526.9,471.2,524.5z M505.9,529.3l-6-20.2l-46-17.6l-3,2.2l1.3,8.5l-7.2,6l-7.2-1.2l-8.4,3l-5.6,12.9 l8.6,20.6l-63.3,33.9c-0.8-1.6-11.9-73.1-11.9-73.1s15.1,2.3,17.5,1.2c1.2-0.5,40.9-9.9,78.3-29.8c38.6-20.5,81.1-33.7,81.6-40 C535.7,423,547,542.9,547,542.9L505.9,529.3z"/>
            <g class="st2">
              <path class="st10" d="M754.5,242.5c-6.7-4.3-18.7-12.4-20.9-14.2c-0.2-0.2-19,24.7-18.9,24.6c3.4-0.2,5.6,8,1.7,11.2 c-8.3,6.6-12.2,24.8-5.9,31.6c3.9,4.2,8.6,1.8,3,11.3c-5.5,9.5-14.3,7-20.9,6.5c-6.3-0.5-15.1-16.6-18.3-19.8 c-3.2-3.2-58.1-113.3-58.1-113.3S537.9,24.5,526.8,11.1c-11.1-13.5-32.1-10.2-38.6-5.2c-5.7,4.4-26.3,28.1-26.3,28.1l-4.7-5.5 l-11.9,11.1c0,0-127.7,19.4-129.8,14.2c-2.4-6-22.9-25.6-31.6-32.7s-18.1,4.9-23.8,9.8c-7.6,6.5-28.5,24.5-28.5,24.5l-4.7-7.1 c0,0-46.7,46.7-47.5,52.2s20.6,15,20.6,15l46.7-41.1l-3.2-5.5c0,0,20.6-19.8,27.7-23.7c7.1-4,13.5,3.2,18.2,7.1 c4.7,4,15,16.6,15,16.6s-1.2,2.1-1.2,5.3S379.6,228,379.6,228l14.2-19.8l-68-136.9l95.7-9.5l-7.9,3.2c0,0-0.8,8.7,0.8,13.5 c1.6,4.7,11.9,3.2,11.9,3.2l32.4-28.5l73.6-7.1l77.5,159c0,0-29.8,20.9-36.9,25.7c-23.3,16-35.3,40.4-39.2,45.9 c-4,5.5-11.7,47.9-11.7,47.9l22.2,6.3c0,0,4.5-32.2,7.7-40.9c3.2-8.7,6.6-12.9,14.5-19.2c7.9-6.3,23.7-13.5,29.3-18.2 c5.5-4.7,26.1-14.2,26.1-14.2s41.1,76.7,48.3,84.7c7.1,7.9,17.2,12.8,38.3,8.5c14.8-3,23.4-29.8,23.4-29.8s3.6,2.3,11.6-2.1 C766.5,286.6,767.3,250.7,754.5,242.5z M487.2,30.4c0,0,4.9-13,13.4-12.5c8.5,0.4,14.8,10.3,14.8,10.3L487.2,30.4z"/>
            </g>
            <path class="st11" d="M503.8 264.3c0 0 16.9-.4 23.3 8.3 6.3 8.7 15.5 59.8 15.5 59.8s7.9 44.3 10.3 60.9c2.4 16.6-9.5 30.1-15 38s-49.8 26.1-59.3 31.6-92.6 42.7-102.1 42.7-20.6-.8-21.4-7.9-21.4-136.9-21.4-136.9S493.5 262.8 503.8 264.3zM601.1 198.7c2.5-5.1 48.3-59.3 52.2-64.1 4-4.7 8.7-13.5 22.9-4.7 14.2 8.7 51.4 69.6 54.6 74.4 3.2 4.7 7.1 11.1 3.2 21.4-4 10.3-41.1 52.2-48.3 59.3-7.1 7.1-22.9 30.1-39.6 19.8s-47.5-64.9-47.5-64.9S584.5 233.5 601.1 198.7z"/>
            <g class="st2">
              <path class="st3" d="M787.2 728.8c4.2-3.5 12.6-12.7 12.6-12.7 16.9-19.2 2.5-35.5 2.5-35.5s0 0 3.3-7.4-16.5-12.4-24-15.7c-7.4-3.3-14-3.6-19.8-4.8-2.3-.5-13.3 8.1-13.3 8.1s-72.7-28.9-76-31.4-8.3-2.5-19.8-20.6c-11.6-18.2-19-26.4-24.8-27.2s-49.6-23.9-49.6-23.9l-23.9-189M214.4 610.7c0 0 20-13.5 22.5-13.5s-1.7-9.9 6.6-8.3c8.3 1.7 42.2 14.9 46.3 19s7.7 16.3 11 18.8 45.2 20 45.2 20S302.2 402.3 303 399s0-48.7 8.3-56.1l24.8 37.7 20.7 131.6M680.5 791.5c2.8 13.4-3.7 24.3-14.5 24.4-10.9 0-22-10.8-24.8-24.3-2.8-13.4 3.7-24.3 14.5-24.4C666.5 767.2 677.6 778 680.5 791.5z"/>
              <path class="st3" d="M792.4 707.5c2.8 13.4-3.7 24.3-14.5 24.4-10.9 0-22-10.8-24.8-24.3-2.8-13.4 3.7-24.3 14.5-24.4C778.4 683.2 789.6 694.1 792.4 707.5zM241 629.8c2.4 11.4-3.1 20.6-12.3 20.7-9.2 0-18.7-9.2-21.1-20.6s3.1-20.6 12.3-20.7C229.1 609.2 238.6 618.4 241 629.8zM431.8 541.3c-3.3-3.6-5.9-8.3-6.9-13.5-2.4-11.4 3.1-20.6 12.3-20.7 9.2 0 18.7 9.2 21.1 20.6.2 1.1.4 2.2.5 3.2"/>
              <path class="st3" d="M646.7,769.9l13-10.4l-15.5-7.3l-25.4,22.5l-9.9-9.1l-64.5-31.4l-110.8-9.1L294,657.6 c0,0-15.8-32.4-16.6-34.9s-14.9-9.9-14.9-9.9s0.8,14.9,0,19.8c-0.8,5-23.4,13.8-26.9,16"/>
              <path class="st3" d="M573.3 707.9l64.5 31.4 6.6 1.7c0 0 8.5-7.4 9.1-8.3 4-5.3 43.8 14.9 43.8 18.2s4.1 8.3.8 10.7c-3.3 2.5 12.4 19 3.3 29.7-9.1 10.7-28 22.9-28 22.9M761.5 683.9l17.6-9c0 0-18.8-9.1-20.5-6.6s-26.7 28.9-30 28.1c-3.3-.8 0-7.4-9.1-10.7S655 660.1 655 660.1l-10.7-19M472.5 526.1c-.6-4.1-.9-6.1-2.5-14.7 0 0 10.7 4.1 14.1 5.8 3.3 1.7 6.6 12.4 6.6 12.4"/>
              <path class="st3" d="M534.3 435.2c1.1 4.8 12.5 107.5 12.5 107.5s-38-13.2-40.5-14.9-2.5-15.7-8.3-18.2-32.9-14-36-15.2-11.2-3.7-11.2 1.2.9 6.3.9 6.3l-9.9 5.1M368.6 577.2L356.8 512.2M484.9 528.3c12.2 1.8 24.8 8.6 33.1 13.9 8.4 5.4 105.6 66.8 109.8 70.3 4.2 3.6 14.9 10.7 15.5 16.7s2.1 20.9 1.8 24.4c-.5 6.7-1.7 8.5-11.8 15.1-13.2 8.7-60.3 39.1-60.3 39.1l-22.2-10.7-65.3-6.2c0 0-42.7-2.7-45.1-2.7s-58.5-28-58.5-28l-13.2-83 63.8-36.3c.2.1 19.7-6.6 29.4-10.7C469.2 527.2 473 525.3 484.9 528.3"/>
              <path class="st3" d="M373.7 594.2c1-.7 94.6-51.2 104.6-50.2s8-7.3 37.1 8.6c29.1 15.9 116 66.1 117.1 70.9 1 4.8 6.6 12.1 4.2 15.9-2.4 3.8-83.1 57.4-83.1 57.4M487.3 692.4L377.8 628.5"/>
              <path class="st3" d="M439.1,586.3c0,0,145.5,71.6,147.2,72.3s1.7,2.4,1.7,4.5s-2.4,3.1-2.4,3.1l-161.4-69.9c0,0,1.5-4,2.8-5.5 C430.1,586.9,435.3,583.5,439.1,586.3z"/>
            </g>
            <path class="st11" d="M307.3,339.8c0,0,31.9,55.9,41.7,60.1s6.3,11.9,32.2,7s130.9-98.6,130.2-101.4 c-0.4-1.7,20.2-25.4,4.3-48.3c-15.8-22.9-51.4-71.2-51.4-71.2s-18.2-28.5-45.9-5.5c-27.7,22.9-112.4,97.3-114.7,98.9 c-2.4,1.6-12.7,15.8-7.1,34C302.1,331.6,307.3,339.8,307.3,339.8z"/>
            <path class="st11" d="M403.8,225.5c0,0,3-15,18.6-19.7c12.4-3.7,18,0.7,23.6,10.2c5.5,9.5,58.7,78.1,64.5,83.4 c5.8,5.4,1,7.3,7.3,7.3s21.9-7.1,34.8,7.3c6.2,6.9,18.1,23.2,8.6,43s-18.5,20.5-18.5,20.5s-9,39.7-38.7,37.3 c-26.1-2.1-44-21.1-47.6-25.4c-4.7-5.6-14.4-21.3-14.4-21.3l15.9-13.6c0,0,10.8,18.7,15.5,23.5c4.7,4.7,17.7,14,25.4,14.8 c15.1,1.5,24.5-11.8,18.2-11.1c-7.7,0.8-27.7-2.4-32.1-25.2c-1.4-7.2-0.8-13-0.8-13s-75.6-101.4-77.2-104.6 S403,231,403.8,225.5z"/>
          </g>
          <g class="st1">
            <g class="st2">
              <path class="st12" d="M900 391.6L734.2 482.5 169.7 400.6M169.6 400.6L23.3 383.3c1.6-.2 39.9-8.6 81.6-19.5M733 526.8L23.3 420.8 23.3 383.3M734.2 482.5c1.1 1.1-1.1 44.3-1.1 44.3"/>
            </g>
            <g class="st2">
              <path class="st12" d="M732 626.6l180-107.9 1.1-82c-1.1 1.1-180.7 97.6-180.7 97.6M15.8 499.8L15.2 453.7 14.6 312.9 133.1 285.9M305.8 323.8L900 389.3 900 435.9 733 526.8M15.8 499.8L177.2 528.6"/>
              <path class="st12" d="M177.1 528.7L731.9 626.7 731.9 533.6 15.2 425.7"/>
            </g>
            <g class="st2">
              <path class="st12" d="M202.2 241.2l28.6 29.8c0 0 .8 6.2 0 8.7-.9 2.5-46.3 10.4-46.3 10.4s.4 1.6-2.2-.4c-2.6-2-26-28.7-26-28.7s-3.9-3.4-5.5-4.4c-1.6-.9-.9 1.6-1.6-.9-.7-2.5 4.2-9.1 4.2-9.1S200.6 240 202.2 241.2zM318.2 361.1L235.5 386.1M325.9 349.4l2.4 2.9 6.2 7.4c0 0 .7 1.9-.5 2.9-1.1.9-2.1.3-2.1.3l-3.4-2.6-3.5 1-3-.9-3.5.6M315.5 355.5L223.3 382.9"/>
              <path class="st12" d="M321.1 351.2L324.7 354.7 322.2 354.9 312.9 353.7M130.6 366.3c-2.5 1.2-4.9 0-5.4-1.1s-.9-2.5 0-3.8 42.3-34.5 42.3-34.5 3.9-4.8 6.9-4.5c0 0 1.7-.4 2.9 1.6 1.4 2.3 2.6 1.8.5 4.5s-15.5 12-15.5 12L140.9 358M314.9 355.8c2.7-1.7 5.9 1.5 3.8 5.5M231.1 270.7c.9-1.3 17.2-8.8 19.8-6.5s77.3 84.3 77.3 84.3-9.6 2.7-11.8 3.4c-2.6.9-4.6 1.8-4.6 1.8L222.2 379c0 0-5.6 1.7-6.3 2.7-.5.7-.3 2.8-.3 2.8"/>
              <path class="st12" d="M168.1 326.5l-34.9-41.7c0 0 .5-3.8 3.1-3.6s15.9.3 23.2.2c7.3-.1 13.7.8 14-.1M142.3 346.9c-12.4 4.3-33.5 11.2-33.5 11.2s-2.8 1.3-3.4 3.6c-.1.4-1.4 3.2 1.4 5.4 2.8 2.3 17 5.1 19.7 5.5s68.5 12.4 70.4 12.2c1.9-.2 26 7.7 26 7.7"/>
              <path class="st12" d="M130.9 356.9c0 0-16.9 5.1-18 6.3-.1.1-1.4.6 1.9 1.3 4 .9 6.7 2.2 12 2M191.6 376.3c0 0 5.4 2.3 7.3 1.4 1.9-.9 7.4-4 7.4-4M224.9 385.5c0 0 4.6-1.3 6.9-1.3.4 0 1-.8 2.8 1.1 3.4 3.7 4 4.2 2.4 5.3-2.8 1.9-6 2.1-6 2.1M153.6 246.3c0 0 30 34.9 31.2 35.1s45-10.2 45-10.2M183.6 290.5L184.8 281.4M174.5 331.4l40.6 53.1c0 0 .1.7 1.3 0M150.6 360c.5-.1 3.4-.9 3.4-.9s.6-.4 1.3.3 1 1.2.7 2.2c-.4 1.2-1.8 3.3-1.3 4.4s1.4 2 2.5 1.6M162 361.7l3.5-.7c0 0 .9-.4 1.9.8.9 1 .9 1.5-.1 2.8-1 1.4-1.4 3.1-.9 3.9.6.8 2 1.1 2 1.1M173.1 364.1l3.9-1.5c0 0 .9-.7 2 .6 1.1 1.4-.8 3.7-.7 5.1 0 1.4-.4 1.4.6 2.3.7.7 1.7 1 2.5.8M186 365.2c.9-.1 2.5-.5 2.8-.7.1 0 .9-.4 1.6.4s.7 1.3-.2 2.6c-1 1.5-1.8 1.7-1.1 2.8.7 1.1 1.8 1.6 2 3.1s-.1 2.8-.1 2.8l-4.9 2.5M248.4 263.5c.1 2.1-8.4-8-10.5-9.5-1.5-1.1-4.5-2.1-6.4-1.8-1.9.2-15.8 2.7-15.8 2.7M157.2 262.7c0 0-24.7 1.3-26.6 2.2-1.9.8-1.9 1.3-3 3.1-1.4 2.4-.5 6.7-.5 6.7s1.3 2.4 2 3.4 4 4.7 4 4.7"/>
              <path class="st12" d="M161.5 267.7c0 0-24.4 2-25.3 1.8-1-.2-4 3.2-2.4 5.9 1 1.7 5.2 5.8 5.2 5.8M244 264c0 0-5.1-5-7.3-6.1-2.3-1-1.3-1.1-4.5-.8-3.2.3-12.9 2.4-12.9 2.4M142.5 356.8c0 0 1.9.5 2 1.5.1.8-.3 1.8-1.3 3.2-.7 1.1-.6 3 .9 3.6.7.3 1.8.5 2.2-.1s2.1-3.2 2.6-3.7c.6-.6 1.1-1.5 1.8-1.2.8.3 1.8.6 1.9 1.4 0 .8.3 1.5-.4 2.6s-1.1 1.2-1.1 2.5.9 3.2 2.4 3.3c1.1.1 1.6.1 3.2-1.6 1.4-1.6.7-1.6 1.8-3 1.2-1.6 1.6-3.6 3.4-3.4.2 0-.5-.6 1.1.8 1.9 1.7 1.1 2.6.8 4.1s-1.2 1.4-.9 2.8 2.2 3.7 3.9 2.3c1.7-1.4 4.3-5.5 5-6.2.8-.9.9-1.9 2.6-1.4s1.6 1.1 1.3 2.5c-.6 2.8-1.2 2.1-.9 4.5.2 2 .2 1.6 1.5 2.3 1.2.6 3.3 1.1 4.4-.6 1.1-1.7 3.2-5.7 4.3-6.7 1.3-1.1.8-1.1 1.3-.9 1.4.5 2.2.6 1.3 2.7-.8 2-2.3 2.1-1.4 3.9.9 1.8.5 1.6.8 2.9s.7 2 0 2.9-.9.9-.9.9l-54.6-9.9c0 0-1.2-1.6-1-2.7.3-1.2 4.2-5.5 4.8-6.3.6-.7 1.6-2.3 3.6-2.3s2.3.8 2.2 1.8c-.2 1.7-.9 2.2-.9 3.6-.1 1.4-.7 4.1 1.6 4.1s4-1.5 4.5-2.1M220.9 380.5c.4 1.9 11.3 13.3 11.3 13.3s1.5.7.1 2.5c-1.5 1.9-5.7 1.8-5.7 1.8l-10.3-14.4"/>
            </g>
            <path class="st13" d="M327.4 347.4c0 0 4.3 2.1 2.1 4.7M278.3 294c0 0 2.8-2.8 5.3-2.8s3.6 1.8 3.6 3.6-3.6 3.9-3.6 3.9M156.9 345.8L179.9 339.5M148.3 353L182.4 343M902.1 433.7c1.9.8 10.3 3 10.3 3M25.9 502.9L26.7 523.7 45.3 528.4 70 520.6 70.8 509.8M45.3 505.2L45.3 528.4M668.8 616.4L669.3 637.7 692.5 643.4 712.9 632 712.7 624.1M862.1 548.8L880.7 551.7 898.9 542.7 898.9 526.8M690.8 620.9L691.1 642.1M881.6 537.6L881.6 550.7"/>
          </g>
        </g>
      </g>
    </g>
    <path class="st0" d="M889.9 410.7L981.1 372.4 994.4 366.8M889.9 455.9L994.4 412M981.1 417.8L981.1 372.4M866.6 405.1L212.9 368.9M866.6 445.6L211.5 409.6M68.2 615.9c0 0 1.2-4.1 1-5.3-2.5-19-11.1-77.5-11.1-90.1 0-12.4-1.4-85.1 5.1-107.4 1.3-4.6 3-7 5-6.4 8.5 2.7 772.4 53.7 772.4 53.7s-6.2.4-7 13.6c-1.1 18-12 181.5-7.5 198 1.4 5.2 2.1 8.7 1.5 11.2-.3 1.1-2.2 6.8-2.2 6.8s-696.3-71.5-700.8-72.1C103.1 615.2 77.6 615 68.2 615.9zM840.9 460.5L844.1 465.7"/>
    <path class="st14" d="M842.8,521.9c0,0,0.7,58.3-0.7,61"/>
    <path class="st0" d="M838.8 640.1c0 0-3.8 45.5-13.3 49.9M69.4 611c3 0 34.6-2 51.6 1s559 56 568 56 138.1 15.1 138.1 15.1"/>
  </g>
</svg>
