<?xml version="1.0" encoding="utf-8" ?>
<!--
	https://github.com/Duxxie/duxxie-images
	This work is licenced by https://creativecommons.org/licenses/by-sa/4.0/
-->
<svg version="1.1" id="hoog-laag-bed-svg" xmlns="http://www.w3.org/2000/svg" xmlns:xlink="http://www.w3.org/1999/xlink" x="0px" y="0px" width="1000px" height="1000px" viewBox="0 0 1000 1000" style="enable-background:new 0 0 1000 1000;" xml:space="preserve">
	<style type="text/css">
	#hoog-laag-bed-svg .st0{fill:none;stroke:currentColor;stroke-miterlimit:10;}
	#hoog-laag-bed-svg .st1{fill:none;stroke:currentColor;stroke-linecap:round;stroke-linejoin:round;stroke-miterlimit:10;}
	#hoog-laag-bed-svg .st2{display:none;}
	#hoog-laag-bed-svg .st3{display:inline;fill:#E4E4E4;}
	#hoog-laag-bed-svg .st4{display:inline;fill:none;stroke:currentColor;stroke-width:2;stroke-linecap:round;stroke-linejoin:round;stroke-miterlimit:10;}
	#hoog-laag-bed-svg .st5{display:inline;fill:none;stroke:currentColor;stroke-width:2;stroke-linecap:round;stroke-linejoin:round;stroke-miterlimit:10;}
	#hoog-laag-bed-svg .st6{display:inline;}
	#hoog-laag-bed-svg .st7{fill:none;stroke:currentColor;stroke-width:2;stroke-linecap:round;stroke-linejoin:round;stroke-miterlimit:10;}
	#hoog-laag-bed-svg .st8{fill:none;stroke:currentColor;stroke-width:2;stroke-linecap:round;stroke-linejoin:round;stroke-miterlimit:10;}
	#hoog-laag-bed-svg .st9{fill:none;stroke:currentColor;stroke-width:2;stroke-linecap:round;stroke-linejoin:round;stroke-miterlimit:10;}
	#hoog-laag-bed-svg .st10{display:inline;fill:none;stroke:currentColor;stroke-width:2;stroke-miterlimit:10;}
	#hoog-laag-bed-svg .st11{display:inline;fill:#FFFFFF;stroke:none;}
	#hoog-laag-bed-svg .st12{display:inline;fill:none;stroke:currentColor;stroke-width:2;stroke-linecap:round;stroke-linejoin:round;stroke-miterlimit:10;}
	#hoog-laag-bed-svg .st13{fill:none;stroke:currentColor;stroke-width:2;stroke-linecap:round;stroke-linejoin:round;}
	#hoog-laag-bed-svg .st14{fill:currentColor;}
	#hoog-laag-bed-svg .st15{display:inline;fill:none;stroke:currentColor;stroke-width:2;stroke-miterlimit:10;}
	#hoog-laag-bed-svg .st16{fill:#FFFFFF;stroke:currentColor;stroke-width:2;stroke-linecap:round;stroke-linejoin:round;stroke-miterlimit:10;}
	#hoog-laag-bed-svg .st17{display:inline;fill:#FFFFFF;stroke:currentColor;stroke-width:2;stroke-linecap:round;stroke-linejoin:round;stroke-miterlimit:10;}
	#hoog-laag-bed-svg .st18{fill:none;stroke:currentColor;stroke-width:2;stroke-linecap:round;stroke-linejoin:round;stroke-miterlimit:10;}
	#hoog-laag-bed-svg .st19{fill:none;stroke:currentColor;stroke-width:0.975;stroke-linecap:round;stroke-linejoin:round;stroke-miterlimit:10;}
	#hoog-laag-bed-svg .st20{fill:none;stroke:currentColor;stroke-width:0.975;stroke-miterlimit:10;}
	#hoog-laag-bed-svg .st21{display:inline;fill:none;stroke:currentColor;stroke-width:0.975;stroke-miterlimit:10;}
  #hoog-laag-bed-svg .st22{display:inline;fill:none;stroke:currentColor;stroke-width:0.975;stroke-linecap:round;stroke-linejoin:round;stroke-miterlimit:10;}
</style>
	<g id="Laag_2_1_">
		<path class="st0" d="M344.1,164.9c-30.4,4.4-217.2,68.8-217.2,68.8l-3.3,207.9" />
		<path class="st0" d="M138.5,440.5l6.7-194.1c0.6,0,167.6-54.2,201.8-65.6" />
		<path class="st0" d="M363.8,159.6c0,0-1-1.9-3.3-0.7s-4,15.9-2.5,19.4s5.9,4.2,6.6-1.3" />
		<path class="st0" d="M361.6,181.5c-1.4,1.1-1.7,3.2-1.7,3.2v81.2c-0.1,0.7,2.2-0.5,4.8,2.3c2.9,3.2,1,19.6,1,19.6
		c10.9,9.8,30.8,40.6,32.3,42.8c1.5,2.3,9.7,14.2,6.9,20.8c-2.6,6.1-6,8.2-18.8,7.5c-12.8-0.7-60.1-2.4-68.7-2.4
		c-8.6,0-11.1-3.4-12.7-9.1c-2.1-7.7,6.8-20,6.8-20c10.4-20.3,29.4-38.7,29.4-38.7s-0.5-7-0.8-12.3c-0.2-5.3,2.3-9.4,4.1-9.8
		s4.5-0.2,4.5-0.2s0-74.6,0-79.7s-1.8-6.5-1.8-6.5c-9.1-10.5-0.8-18.2-0.8-18.2l14.4-3" />
		<path class="st0" d="M338.5,299.9c-1.1,0.4-15.7,20.6-23,33.5c-7.3,12.9-0.6,14.7-0.6,14.7s66.4,2.6,76.7,2.6s3.2-14,3.2-14
		c-16.9-25.1-25.2-37.7-26.1-37.2C348.5,310.7,340.4,299.4,338.5,299.9z" />
		<path class="st0" d="M358.8,178.6c0,0,35.4-7.9,34.5-8.5c-8.2-5.5-3.4-19-3.4-19l-29.1,9" />
		<path class="st0" d="M389.8,150.9c9.5,3.5,5.5,19.3,4.4,19.3" />
	</g>
	<g id="Laag_1">
		<g id="Laag_2_4_">
			<line class="st1" x1="727.4" y1="803.4" x2="752.1" y2="786.5" />
			<polyline class="st1" points="791,790.2 687.2,862.3 665.9,861.1 664.6,844.5 692.2,826.2 		" />
			<line class="st1" x1="292.3" y1="769" x2="336.9" y2="747.6" />
			<polyline class="st1" points="287.4,742.9 186.9,793 186.9,807.6 207.3,810.3 253.8,789.1 		" />
			<path class="st1" d="M836,794.2c-4.8,8.7-17.5,12.9-27.3,10.5c-7.7-2.4-11.5-8.2-12.4-14.1" />
			<path class="st1" d="M700.5,872.6c3.1,0,17.5-3,21.5,11.3c2.5,8.9,0.6,18.8-3.3,24.9s-10.7,9.1-17.6,10.6
			c-6.9,1.5-18.1-0.4-23.7-5.8c-5.2-5.2-9.7-18-1.6-29.5" />
			<path class="st1" d="M699.2,854.1c0.6,1.8,0.3,25.9,0.3,25.9s4.7,2.4,7.7,5.3c3,2.9,4.7,8.8,1.8,14.1s-6.4,9.4-14.1,8.2
			c-12.3-1.8-7.2-16.5-7.2-16.5l-13.6-9.6v-19.4" />
			<path class="st1" d="M253.2,789.1L692,826.2" />
			<g>
				<path class="st1" d="M227.5,820.1c3.1,0,17.5-3,21.5,11.3c2.5,8.9,0.6,18.8-3.3,24.9c-3.9,6.2-10.7,9.1-17.6,10.6
				c-6.9,1.5-18.1-0.4-23.7-5.8c-5.2-5.2-9.7-18-1.6-29.5" />
				<path class="st1" d="M226.3,801.6c0.6,1.8,0.3,25.9,0.3,25.9s4.7,2.4,7.7,5.3s4.7,8.8,1.8,14.1c-2.9,5.3-6.4,9.4-14.1,8.2
				c-12.3-1.8-7.2-16.5-7.2-16.5l-13.6-9.6v-19.5" />
			</g>
			<line class="st1" x1="727" y1="803.5" x2="292.3" y2="769.2" />
			<path class="st1" d="M370.7,750.6c-3.8,5.1-13.2,9.5-27.1,7.3c-7.5-2.4-9.6-5.2-10.8-8.5" />
		</g>
		<g id="Laag_1_4_">
			<path class="st1" d="M65.6,448.9l275.5,194.3c0,0,245.9-56.7,253.1-55.4c7.2,1.1,247,90.4,247,90.4l26.2-13.2" />
			<path class="st1" d="M868,561.3c0,0-130.7-51.5-137.8-51.5c-7.2,0-227.4,54-235.7,55.2c-8.3,1.1-192.6-139.5-202.2-139.5
			c-9.6,0-226.9,23.2-226.9,23.2" />
			<path class="st1" d="M170.9,633.1c0,0,4-1.4,10.7,1.4c6.7,2.6,5.3,13.3,5.3,13.3l2.6,57.9c0,0-8.7,5.3-11.3,6
			c-2.6,0.6-16.6-2.6-16.6-2.6l-5.3-70.5L170.9,633.1z" />
			<polyline class="st1" points="80.7,460.1 29.8,465 5.4,460 		" />
			<polyline class="st1" points="73.3,454.2 5,459.4 5,717.5 29.6,719.9 29.6,465.4 		" />
			<line class="st1" x1="29.7" y1="632.3" x2="155.7" y2="638.5" />
			<line class="st1" x1="186.9" y1="640.7" x2="867.5" y2="688.9" />
			<line class="st1" x1="30.1" y1="679.7" x2="159.7" y2="689.9" />
			<line class="st1" x1="867.5" y1="797.3" x2="30.1" y2="718.5" />
			<line class="st1" x1="189.3" y1="692.3" x2="867.5" y2="741.4" />
			<path class="st1" d="M966.9,445.5l-99.5,40.3l1.9,309.9" />
			<path class="st1" d="M995,447.7l-104.9,41.5l-1.4,307.8c0,0,104.2-93.2,104.2-96.7C993,696.6,995,447.7,995,447.7z" />
			<line class="st1" x1="221.6" y1="643.2" x2="307.2" y2="623.1" />
			<path class="st1" d="M175.6,713l3.3,25.9c0,0,10.2,42.6,17.5,47.8" />
			<g id="Papegaai_8_" class="st2">
				<g class="st6">
					<polyline class="st9" points="-25.8,457.9 -25.8,618.8 674.5,611.7 674.5,448.5 				" />
					<path class="st9" d="M2.8,431.9c0,0,101.5,87.2,143.2,106.3c37.9,17.3,93.5,60.3,208.2,15.8c75.5-29.3,136.2-53.3,199.4-30.3
					c58.4,21.2,99.6,43,99.6,43" />
					<circle class="st9" cx="529.5" cy="810" r="31.8" />
					<circle class="st9" cx="130.1" cy="810" r="31.8" />
					<line class="st9" x1="138.6" y1="617.1" x2="494.5" y2="774.8" />
					<line class="st9" x1="498" y1="614.3" x2="153.5" y2="772.7" />
				</g>
				<polyline class="st4" points="245.9,150.4 127,204.8 -12.6,408.2 			" />
				<path class="st4" d="M213.1,303.9c0,0-77.7,36.3-52,49.7h104.1C290.8,340.2,213.1,303.9,213.1,303.9l1.3-137.7" />
			</g>
			<line class="st1" x1="869.2" y1="797.6" x2="888.7" y2="797.6" />
			<path class="st1" d="M868.7,487.1c0,2.1,21.4,1.3,21.4,1.3" />
			<line class="st1" x1="995" y1="447.7" x2="965.7" y2="446.8" />
			<line class="st1" x1="467.9" y1="614.4" x2="717.7" y2="632.4" />
		</g>
	</g>
</svg>
