<!--
  https://github.com/Duxxie/duxxie-creative-commons
  This work is licenced by https://creativecommons.org/licenses/by-sa/4.0/
-->
<svg version="1.1" id="infuuspaal-svg" xmlns="http://www.w3.org/2000/svg" x="0px" y="0px" width="1000px" height="1000px" viewBox="0 0 1000 1000" xml:space="preserve">
  <style>
    #infuuspaal-svg .st0{fill:none;stroke:currentColor;stroke-linecap:round;stroke-linejoin:round;stroke-miterlimit:10;}
  </style>
  <path class="st0" d="M536.1,957.2c0.7-0.2,17.7-3.9,19.3,12.1c1.4,14.2-10.3,15.6-14.9,15.8c-4.6,0.2-14.9-3.9-15.1-12.4 C525.1,964.3,528.3,959.8,536.1,957.2z"/>
  <path class="st0" d="M537 946.9c2.5 0 12.1-1.4 17.7 7.8s3.9 14.9 3.9 14.9 1.1 1.8-1.6-4.4c-2.8-6.2-5.5-10.5-14-11.2s-17.4 3.7-19.9 15.6c0 0-2.5-6.6-.5-10.5l.2-9.9M679.1 913.2c.6-.2 16.7-3.7 18.2 11.5 1.3 13.4-9.7 14.7-14.1 14.9-4.3.2-14.1-3.7-14.3-11.7S671.7 915.6 679.1 913.2z"/>
  <path class="st0" d="M680 903.4c2.4 0 11.5-1.3 16.7 7.4s3.7 14.1 3.7 14.1 1.1 1.7-1.5-4.1-5.2-10-13.2-10.6-16.5 3.5-18.8 14.7c0 0-2.4-6.3-.4-10l.2-9.3M331.6 920.3L332.4 925.3M332.1 922.5c0 0 10.7-4.3 16.9-.1 6.2 4.3 9.3 8.2 8.7 15.3l-2.9 5.6c0 0 .4-11.5-8.7-15.3-8.5-3.6-16.9-2.1-20.8 3.9s-3.5 10.5-3.5 10.5M323.2 921.6c-.2 1.2-1.2 18.9-1.2 18.9"/>
  <path class="st0" d="M339 928.4c0 0 14.8 1.4 14 16.5s-18.2 12.2-21.2 9.9-9.4-5.9-6.8-16.7C327.7 927.1 336 928.4 339 928.4zM568.6 858.1l.6 4c0 0 4-2.5 9-1.2 5 1.2 9 3.1 11.2 8.1s1.9 9-.3 10.8M559.9 863.1c0 .9.6 4.3.6 4.3s-4 .6-4.6 5.9 1.5 5.3 1.5 5.3M394.8 872.4c0 0 5 6.2 4 8.4-.9 2.2-3.1 5-3.1 5s-.6 2.5-2.2 4M365.3 865.6l.9 11.5c0 0-2.8 4-1.5 9l2.8-.3c0 0-1.5 4 1.5 7.1"/>
  <path class="st0" d="M394.4 889.6c0 0-.6-9.4-5.3-12.5s-10.5-4.6-14.6-2.5c0 0-9.3 4-7.1 11.2M581 879.5c0 0-.3-9.3-5.9-11.5-6.8-2.6-10.5-2.5-14.6-.6M501.1 858.7c0 0 23.7 12.7 23.7 14.5s5.3 2.6-4.8 5.7c-10.1 3.1-22.8 4.4-29.4 3.9-6.6-.4-16.6-1-20.5-1.9-3.1-.7-8.2-2.7-8.9-5.1-1.4-5.1 3.1-6.6 6-8.2 3.8-2.1 17.7-8.8 17.7-8.8M490.5 901.2c-1.8 0-23-2.1-23-2.1M514.2 899.9L523.9 896M500.6 42.7l26.7 1.3c0 0 9.1-1.4 11.4 3.1 3.9 7.6 7.1 13.5 12.3 13.1 5.3-.4 7.4-4.1 5.1-11.9-1.9-6.4-17.4-5.7-17.4-5.7"/>
  <path class="st0" d="M485.3,861l2.2-825.3c2.6,2.2,10.5-0.4,12.3-0.4l0.2,827.2C500,862.4,489.5,865.4,485.3,861z"/>
  <path class="st0" d="M495.9 40.2c4.5-.2 21.9-3 23.8-.8 2.5 2.7 3.8 14.3 8.6 16.2 2.6 1.1 5.4-3.2 5.6-11.1.2-7.1-2.2-9-3.5-8.6s-4.5 1.4-4.5 1.4M487 39.8c0 0-30.5-.4-36 .4-3.9.6-9.2 13.6-11.4 15s-8.5 1.5-10.7-5.5 1.6-11.9 5.6-12.1c4.9-.3 24.3-.1 24.3-.1"/>
  <path class="st0" d="M486.6 41.8c0 0-13.1-.6-16.2 2.2-5.2 4.6-4.9 11.6-10.3 15.7-3.9 2.9-4.4-3.2-4.5-5.5-.4-9.5 4.1-13.6 9-13.8 3.5-.2 6.1-.6 9.2-.6M525.2 876.2c7.5 1.3 155.6 10.1 155.6 10.1l.4 15.3-2.7 4.7-156-11.4"/>
  <path class="st0" d="M522.5 881.1L677.2 891.1 680.8 886.3M677.2 906L677.2 891.1M467.8 897.3c-4.8 1.3-144.6 24.1-144.6 24.1l-7.5-4.4.4-14.9L460 879.6"/>
  <path class="st0" d="M467.4 883.4L323.6 906.9 323.1 921.4M465.2 868.4L368.3 847.7 358.6 850.8 359.5 864 441.5 881.5M511 864.4L563.3 839.4 573.8 841.2 574.3 855.6 530.4 875.8M490.5 885.9c1.6.7 13.7-1.9 14.5-.9.8 1.1 31.1 46.5 31.1 46.5v17.1l-14.9.4-30.6-50.4L490.5 885.9l31.6 47.8h14M572.9 842.5c-1.3.9-54.5 26.3-54.5 26.3M359.1 850.8L460.9 872.8M316.1 901.7L324.4 906.9M519.9 948.1L520.8 933.2M467.3 883.7c.4 1.8.4 14 .4 14M522.1 881.5c0 1.3 0 13.6 0 13.6M460.9 873.4c0 0-.4 2.8-.4 5.4s1.7 5.2 1.7 5.2"/>
</svg>
