<?xml version="1.0" encoding="utf-8" ?>
<!--
	https://github.com/Duxxie/duxxie-images
	This work is licenced by https://creativecommons.org/licenses/by-sa/4.0/
-->
<svg version="1.1" id="kinderbed-met-kussen-svg" xmlns="http://www.w3.org/2000/svg" xmlns:xlink="http://www.w3.org/1999/xlink" x="0px" y="0px" width="1000px" height="1000px" viewBox="0 0 1000 1000" style="enable-background:new 0 0 1000 1000;" xml:space="preserve">
	<style type="text/css">
	#kinderbed-met-kussen-svg .st0{fill:none;stroke:currentColor;stroke-miterlimit:10;}
	#kinderbed-met-kussen-svg .st1{fill:none;stroke:currentColor;stroke-miterlimit:10;}
	#kinderbed-met-kussen-svg .st2{fill:none;stroke:currentColor;stroke-linecap:round;stroke-linejoin:round;stroke-miterlimit:10;}
	#kinderbed-met-kussen-svg .st3{fill:none;stroke:currentColor;stroke-linecap:round;stroke-linejoin:round;stroke-miterlimit:10;}
</style>
	<g id="Laag_5">
		<line class="st0" x1="296" y1="207.3" x2="298" y2="389.3" />
		<line class="st0" x1="265" y1="207.3" x2="267" y2="391.3" />
		<line class="st0" x1="234" y1="207.3" x2="236" y2="391.3" />
		<line class="st0" x1="206" y1="207.3" x2="208" y2="391.3" />
		<line class="st0" x1="412" y1="207.3" x2="414" y2="389.3" />
		<line class="st0" x1="381" y1="207.3" x2="383" y2="389.3" />
		<line class="st0" x1="350" y1="207.3" x2="352" y2="389.3" />
		<line class="st0" x1="322" y1="207.3" x2="324" y2="389.3" />
		<line class="st0" x1="526" y1="207.3" x2="528" y2="389.3" />
		<line class="st0" x1="495" y1="207.3" x2="497" y2="389.3" />
		<line class="st0" x1="464" y1="207.3" x2="466" y2="389.3" />
		<line class="st0" x1="436" y1="207.3" x2="438" y2="389.3" />
		<line class="st0" x1="641" y1="207.3" x2="643" y2="389.3" />
		<line class="st0" x1="610" y1="207.3" x2="612" y2="389.3" />
		<line class="st0" x1="579" y1="207.3" x2="581" y2="389.3" />
		<line class="st0" x1="551" y1="207.3" x2="553" y2="389.3" />
		<line class="st0" x1="722" y1="207.3" x2="724" y2="389.3" />
		<line class="st0" x1="691" y1="207.3" x2="693" y2="389.3" />
		<line class="st0" x1="663" y1="207.3" x2="665" y2="389.3" />
		<path class="st1" d="M109.9,649.2l1.2-129.7c0,0,728.8-5.4,730.3,1.4c0.5,2.5,1.4,128.4,1.4,128.4H108.9" />
		<path class="st1" d="M861.7,667.6c-0.2,77.3-1.1,137.6-1.1,137.6s-20.2,6.7-20.7-1.4c-0.5-6.7,1.4-73,2.7-135.8" />
		<path class="st1" d="M862.2,360.5c-0.4,94.5-1.4,200.1-1.7,289" />
		<path class="st1" d="M91.8,342.7V179.9l91.1,16.6l563.1,0.8c0,0,118-24,117.5-18.7l-1.9,164.3" />
		<line class="st1" x1="91.8" y1="650.6" x2="91.8" y2="357.6" />
		<path class="st1" d="M109.7,664.9l-1.4,150c0,0-6.9,6.9-16.6,0v-150" />
		<path class="st1" d="M170.1,648.1c-1-49.1-1-132.9-1-129.9" />
		<path class="st1" d="M185.7,520.9c0,6.8-0.7,82.3-1.1,127.2" />
		<path class="st1" d="M742.7,649c-1-49.2-0.7-133.9-0.7-130.9" />
		<path class="st1" d="M756.7,649c-1-49.2-0.7-133.9-0.7-130.9" />
		<path class="st1" d="M757.5,667.6c-0.1,8.1-0.3,13.4-0.3,13.4s-9.7,6.9-12.4,1.4c-0.5-0.9-0.9-6.5-1.2-15.1" />
		<polyline class="st1" points="115.2,491.9 113.9,436.7 182.9,391.1 746.1,388.4 835.8,438.1 834.5,493.3 	" />
		<path class="st1" d="M834.5,445c-17.9,0-719.2-6.9-719.2-6.9" />
		<path class="st1" d="M846.2,343l-0.7-146.6l-96.6,12.4L181.5,206l-71.8-11c1.4,4.8,2.1,147.7,2.1,147.7" />
		<polyline class="st1" points="112.8,358 115.2,491.9 846.9,494.7 846.3,360.8 	" />
		<line class="st1" x1="181.5" y1="206.1" x2="182.9" y2="391.1" />
		<path class="st1" d="M748.9,208.9c-2.8,13.8-2.8,179.5-2.8,179.5" />
		<path class="st1" d="M92.3,358l-14.5,0.5c0,0,0.1-14.4,0.1-15.7h33.8h749.8h10.1l-1.4,17.9h-7.4" />
		<line class="st1" x1="846.9" y1="360.7" x2="111.3" y2="358.1" />
		<path class="st1" d="M860.1,649.3h11.6l-1.4,17.9h-9.8h-8.3l-771.5-2.7c0,0-2.8-13.8-2.8-15.2h13.9" />
		<g>
			<path class="st2" d="M184.6,678.3c2-0.4,1.4,6.4,1.9,6.4s5.2,3.4,7.1,4.8c1.9,1.4,4.3,3.7,4.2,5c-0.3,2.1-6.3,3.8-7.4,4.4
			c-1.5,0.7,0,1.1-4.5-0.4s-8.5-4.7-9.6-4c-1.1,0.6-2.5,0.9-1.9,2.2c0.2,0.4,0.9,1.5,2,3.1c2.7,3.9,7,10,7,10s3.1,4,1.3,6.3
			s-3.8,2-7.5-2.6s-7.4-10.8-7.7-12.9c-0.3-2.1-1.3-18.3-1-18.8s1.4-2.6,1.9-2.6" />
			<path class="st2" d="M176.8,700c0,0,6.3-4.4,11.1,5.4s1.4,15.7-0.4,16.8c-2.7,1.7-11.5-1.8-12.7-11.7" />
			<path class="st2" d="M192,698.2c0,0,7.1,7.1,5.5,16.7c-3,17.7-18.1,12.1-21.5,5.1c-3.3-6.7-3.6-9.4-3.5-12.8" />
		</g>
		<g>
			<path class="st2" d="M758.2,678.3c2-0.4,1.4,6.4,1.9,6.4s5.2,3.4,7.1,4.8c1.9,1.4,4.3,3.7,4.2,5c-0.3,2.1-6.3,3.8-7.4,4.4
			c-1.5,0.7,0,1.1-4.5-0.4s-8.5-4.7-9.6-4c-1.1,0.6-2.5,0.9-1.9,2.2c0.2,0.4,0.9,1.5,2,3.1c2.7,3.9,7,10,7,10s3.1,4,1.3,6.3
			s-3.8,2-7.5-2.6s-7.4-10.8-7.7-12.9c-0.3-2.1-1.3-18.3-1-18.8s1.4-2.6,1.9-2.6" />
			<path class="st2" d="M750.5,700c0,0,6.3-4.4,11.1,5.4c4.8,9.8,1.4,15.7-0.4,16.8c-2.7,1.7-11.5-1.8-12.7-11.7" />
			<path class="st2" d="M765.6,698.2c0,0,7.1,7.1,5.5,16.7c-3,17.7-18.1,12.1-21.5,5.1c-3.3-6.7-3.6-9.4-3.5-12.8" />
		</g>
		<path class="st0" d="M861.2,804.4c0.4,0.6,8,2.5,6.4,13.3c-1,6.2-4.4,11.9-4.4,12.9s0.6,16.7,0.6,16.7l-5.3,0.2c0,0,0-15.5,0-16.1
		s-0.2-4.2-1.9-5.3c-4.6-2.9-11.9-1.3-14.4,0.4s-1.5,20.1-1.5,20.1s-3,1.5-3.4-2.3s-5.3-10.6-4.7-16.1s-0.4-16.7,0.6-18.6
		c1.1-1.9,3-5.7,5.5-6.1" />
		<path class="st0" d="M841.8,829.6c0,0,3,8,2.3,21c-0.2,4.2-0.4,9.5-1.7,8s-3.6-8.5-3.2-9.9" />
		<path class="st0" d="M858.9,848.6c0,0-0.2,3.4-0.4,6.1c-0.1,1.8-1.9,3.4-1.9,3.4l-13.8,0.6" />
		<line class="st0" x1="825" y1="362.3" x2="827" y2="648.3" />
		<line class="st0" x1="791" y1="359.3" x2="793" y2="648.3" />
		<line class="st0" x1="750" y1="359.3" x2="752" y2="648.3" />
		<line class="st0" x1="712" y1="359.3" x2="714" y2="648.3" />
		<line class="st0" x1="675" y1="359.3" x2="677" y2="648.3" />
		<line class="st0" x1="641" y1="359.3" x2="643" y2="648.3" />
		<line class="st0" x1="600" y1="359.3" x2="602" y2="648.3" />
		<line class="st0" x1="562" y1="359.3" x2="564" y2="648.3" />
		<line class="st0" x1="523" y1="359.3" x2="525" y2="648.3" />
		<line class="st0" x1="489" y1="359.3" x2="491" y2="648.3" />
		<line class="st0" x1="448" y1="359.3" x2="450" y2="648.3" />
		<line class="st0" x1="410" y1="359.3" x2="412" y2="648.3" />
		<line class="st0" x1="362" y1="359.3" x2="364" y2="648.3" />
		<line class="st0" x1="328" y1="359.3" x2="330" y2="648.3" />
		<line class="st0" x1="287" y1="359.3" x2="289" y2="648.3" />
		<line class="st0" x1="249" y1="359.3" x2="251" y2="648.3" />
		<line class="st0" x1="207" y1="359.3" x2="209" y2="648.3" />
		<line class="st0" x1="173" y1="359.3" x2="175" y2="648.3" />
		<line class="st0" x1="132" y1="359.3" x2="134" y2="648.3" />
		<path class="st1" d="M183.8,666.1c0,1.3,0.5,15,0.5,15s-10.7,6.4-13.5,0.9c0,0-1.7-15.4-1.3-16.7" />
		<g>
			<path class="st3" d="M107.6,809.5c0.9,0,3.9,1.8,4.4,2.5s-2.8,22.4-3.4,25.4c-0.5,3-6.3,11.6-12.2,18.2c-5.8,6.5-9,6.9-11.8,3.7
			s2.1-8.8,2.1-8.8s6.8-8.6,11-14c1.6-2.1,2.9-3.8,3.1-4.3c0.9-1.8-1.6-1.6-3.4-2.5s-8.6,1.1-15.7,3.2c-7.1,2.1-3.7,1.2-5.6-0.2
			s-7.6-4.1-8.1-5.8c-0.5-1.8,1.4-4.4,4.4-6.3c3-1.9,15.3-4.8,16.2-4.8s0.4-2.1,0.2-3.2l2.3-1.5" />
			<path class="st3" d="M97,837c0,0-9.9-6.2-17.5,7.6s-2.3,22.2,0.7,23.6c3,1.4,16.4-0.4,18.3-14.3" />
			<path class="st3" d="M73.4,831.5c0,0-11.4,9.4-9.5,22.9c3.5,26.1,26.8,19.4,33.5,10.8s5.5-13.9,6.5-18.2" />
		</g>
	</g>
</svg>
