<!--
  https://github.com/Duxxie/duxxie-creative-commons
  This work is licenced by https://creativecommons.org/licenses/by-sa/4.0/
-->
<svg version="1.1" id="kinderbed-met-kussen-svg" xmlns="http://www.w3.org/2000/svg" x="0px" y="0px" width="1000px" height="1000px" viewBox="0 0 1000 1000" xml:space="preserve">
  <style>
    #kinderbed-met-kussen-svg .st0{fill:none;stroke:currentColor;stroke-miterlimit:10;} #kinderbed-met-kussen-svg .st1{fill:none;stroke:currentColor;stroke-miterlimit:10;} #kinderbed-met-kussen-svg .st2{fill:none;stroke:currentColor;stroke-linecap:round;stroke-linejoin:round;stroke-miterlimit:10;} #kinderbed-met-kussen-svg .st3{fill:none;stroke:currentColor;stroke-linecap:round;stroke-linejoin:round;stroke-miterlimit:10;}
  </style>
  <path class="st0" d="M296 207.3L298 389.3M265 207.3L267 391.3M234 207.3L236 391.3M206 207.3L208 391.3M412 207.3L414 389.3M381 207.3L383 389.3M350 207.3L352 389.3M322 207.3L324 389.3M526 207.3L528 389.3M495 207.3L497 389.3M464 207.3L466 389.3M436 207.3L438 389.3M641 207.3L643 389.3M610 207.3L612 389.3M579 207.3L581 389.3M551 207.3L553 389.3M722 207.3L724 389.3M691 207.3L693 389.3M663 207.3L665 389.3"/>
  <path class="st1" d="M109.9 649.2l1.2-129.7c0 0 728.8-5.4 730.3 1.4.5 2.5 1.4 128.4 1.4 128.4H108.9M861.7 667.6c-.2 77.3-1.1 137.6-1.1 137.6s-20.2 6.7-20.7-1.4c-.5-6.7 1.4-73 2.7-135.8M862.2 360.5c-.4 94.5-1.4 200.1-1.7 289M91.8 342.7V179.9l91.1 16.6 563.1.8c0 0 118-24 117.5-18.7l-1.9 164.3M91.8 650.6L91.8 357.6M109.7 664.9l-1.4 150c0 0-6.9 6.9-16.6 0v-150M170.1 648.1c-1-49.1-1-132.9-1-129.9M185.7 520.9c0 6.8-.7 82.3-1.1 127.2M742.7 649c-1-49.2-.7-133.9-.7-130.9M756.7 649c-1-49.2-.7-133.9-.7-130.9M757.5 667.6c-.1 8.1-.3 13.4-.3 13.4s-9.7 6.9-12.4 1.4c-.5-.9-.9-6.5-1.2-15.1M115.2 491.9L113.9 436.7 182.9 391.1 746.1 388.4 835.8 438.1 834.5 493.3M834.5 445c-17.9 0-719.2-6.9-719.2-6.9"/>
  <path class="st1" d="M846.2 343l-.7-146.6-96.6 12.4L181.5 206l-71.8-11c1.4 4.8 2.1 147.7 2.1 147.7M112.8 358L115.2 491.9 846.9 494.7 846.3 360.8M181.5 206.1L182.9 391.1M748.9 208.9c-2.8 13.8-2.8 179.5-2.8 179.5"/>
  <path class="st1" d="M92.3 358l-14.5.5c0 0 .1-14.4.1-15.7h33.8 749.8 10.1l-1.4 17.9h-7.4M846.9 360.7L111.3 358.1M860.1 649.3h11.6l-1.4 17.9h-9.8-8.3l-771.5-2.7c0 0-2.8-13.8-2.8-15.2h13.9"/>
  <path class="st2" d="M184.6,678.3c2-0.4,1.4,6.4,1.9,6.4s5.2,3.4,7.1,4.8c1.9,1.4,4.3,3.7,4.2,5c-0.3,2.1-6.3,3.8-7.4,4.4 c-1.5,0.7,0,1.1-4.5-0.4s-8.5-4.7-9.6-4c-1.1,0.6-2.5,0.9-1.9,2.2c0.2,0.4,0.9,1.5,2,3.1c2.7,3.9,7,10,7,10s3.1,4,1.3,6.3 s-3.8,2-7.5-2.6s-7.4-10.8-7.7-12.9c-0.3-2.1-1.3-18.3-1-18.8s1.4-2.6,1.9-2.6"/>
  <path class="st2" d="M176.8,700c0,0,6.3-4.4,11.1,5.4s1.4,15.7-0.4,16.8c-2.7,1.7-11.5-1.8-12.7-11.7"/>
  <path class="st2" d="M192 698.2c0 0 7.1 7.1 5.5 16.7-3 17.7-18.1 12.1-21.5 5.1-3.3-6.7-3.6-9.4-3.5-12.8M758.2 678.3c2-.4 1.4 6.4 1.9 6.4s5.2 3.4 7.1 4.8c1.9 1.4 4.3 3.7 4.2 5-.3 2.1-6.3 3.8-7.4 4.4-1.5.7 0 1.1-4.5-.4s-8.5-4.7-9.6-4c-1.1.6-2.5.9-1.9 2.2.2.4.9 1.5 2 3.1 2.7 3.9 7 10 7 10s3.1 4 1.3 6.3-3.8 2-7.5-2.6-7.4-10.8-7.7-12.9c-.3-2.1-1.3-18.3-1-18.8s1.4-2.6 1.9-2.6"/>
  <path class="st2" d="M750.5,700c0,0,6.3-4.4,11.1,5.4c4.8,9.8,1.4,15.7-0.4,16.8c-2.7,1.7-11.5-1.8-12.7-11.7"/>
  <path class="st2" d="M765.6,698.2c0,0,7.1,7.1,5.5,16.7c-3,17.7-18.1,12.1-21.5,5.1c-3.3-6.7-3.6-9.4-3.5-12.8"/>
  <path class="st0" d="M861.2,804.4c0.4,0.6,8,2.5,6.4,13.3c-1,6.2-4.4,11.9-4.4,12.9s0.6,16.7,0.6,16.7l-5.3,0.2c0,0,0-15.5,0-16.1 s-0.2-4.2-1.9-5.3c-4.6-2.9-11.9-1.3-14.4,0.4s-1.5,20.1-1.5,20.1s-3,1.5-3.4-2.3s-5.3-10.6-4.7-16.1s-0.4-16.7,0.6-18.6 c1.1-1.9,3-5.7,5.5-6.1"/>
  <path class="st0" d="M841.8,829.6c0,0,3,8,2.3,21c-0.2,4.2-0.4,9.5-1.7,8s-3.6-8.5-3.2-9.9"/>
  <path class="st0" d="M858.9 848.6c0 0-.2 3.4-.4 6.1-.1 1.8-1.9 3.4-1.9 3.4l-13.8.6M825 362.3L827 648.3M791 359.3L793 648.3M750 359.3L752 648.3M712 359.3L714 648.3M675 359.3L677 648.3M641 359.3L643 648.3M600 359.3L602 648.3M562 359.3L564 648.3M523 359.3L525 648.3M489 359.3L491 648.3M448 359.3L450 648.3M410 359.3L412 648.3M362 359.3L364 648.3M328 359.3L330 648.3M287 359.3L289 648.3M249 359.3L251 648.3M207 359.3L209 648.3M173 359.3L175 648.3M132 359.3L134 648.3"/>
  <path class="st1" d="M183.8,666.1c0,1.3,0.5,15,0.5,15s-10.7,6.4-13.5,0.9c0,0-1.7-15.4-1.3-16.7"/>
  <g>
    <path class="st3" d="M107.6,809.5c0.9,0,3.9,1.8,4.4,2.5s-2.8,22.4-3.4,25.4c-0.5,3-6.3,11.6-12.2,18.2c-5.8,6.5-9,6.9-11.8,3.7 s2.1-8.8,2.1-8.8s6.8-8.6,11-14c1.6-2.1,2.9-3.8,3.1-4.3c0.9-1.8-1.6-1.6-3.4-2.5s-8.6,1.1-15.7,3.2c-7.1,2.1-3.7,1.2-5.6-0.2 s-7.6-4.1-8.1-5.8c-0.5-1.8,1.4-4.4,4.4-6.3c3-1.9,15.3-4.8,16.2-4.8s0.4-2.1,0.2-3.2l2.3-1.5"/>
    <path class="st3" d="M97,837c0,0-9.9-6.2-17.5,7.6s-2.3,22.2,0.7,23.6c3,1.4,16.4-0.4,18.3-14.3"/>
    <path class="st3" d="M73.4,831.5c0,0-11.4,9.4-9.5,22.9c3.5,26.1,26.8,19.4,33.5,10.8s5.5-13.9,6.5-18.2"/>
  </g>
</svg>
