<?xml version="1.0" encoding="utf-8" ?>
<!--
	https://github.com/Duxxie/duxxie-images
	This work is licenced by https://creativecommons.org/licenses/by-sa/4.0/
-->
<svg version="1.1" id="kinderwagen-buggy-svg" xmlns="http://www.w3.org/2000/svg" xmlns:xlink="http://www.w3.org/1999/xlink" x="0px" y="0px" width="1000px" height="1000px" viewBox="0 0 1000 1000" style="enable-background:new 0 0 1000 1000;" xml:space="preserve">
	<style type="text/css">
	#kinderwagen-buggy-svg .st0{fill:none;stroke:currentColor;stroke-linecap:round;stroke-linejoin:round;stroke-miterlimit:10;}
</style>
	<path class="st0" d="M559,521.5l172.7-406.8c0,0,0-3.1-5.1-10.2c-5.1-7.2-23.5-43.9-15.3-70.5c0,0-10.2-12.3,4.1-17.4
	s17.4,5.1,25.5,10.2c8.2,5.1,28.6,37.8,24.5,56.2S578.2,522.9,578.2,522.9C576.8,524.2,559,521.5,559,521.5z" />
	<path class="st0" d="M722.6,44.2L740,62.6c0,0,5.1,8.2,4.1,14.3c-1,6.1-8.2,22.5-8.2,22.5S711.3,58.5,722.6,44.2z" />
	<path class="st0" d="M472.1,175.8c-49,115.4-121,281.7-121,281.7" />
	<path class="st0" d="M332.8,455.8L484.9,97.5c0,0,0-2.8-4.7-9.5c-4.7-6.6-21.8-40.8-14.2-65.5c0,0-9.5-11.4,3.8-16.1
	c13.3-4.7,16.1,4.7,23.7,9.5s26.6,35.1,22.8,52.2c-0.8,3.5-8,21.6-19.1,48.3" />
	<path class="st0" d="M476.4,31.9L492.5,49c0,0,4.7,7.6,3.8,13.3c-0.9,5.7-7.6,20.9-7.6,20.9S465.9,45.2,476.4,31.9z" />
	<path class="st0" d="M198.6,667.3l3.1-23.5l64.4-29.6l12.3,2l11.2-4.1l187.3,61l38.4,12.5l-21.5,49c0,0-70.5,5.1-77.6,5.1
	s-9.2-2-24.5-6.1S198.6,667.3,198.6,667.3z" />
	<polyline class="st0" points="208.8,649.9 410,716.3 514.8,686 " />
	<path class="st0" d="M464.1,901.2c0,0,17.4-41.9,55.2-39.8s27.1,76.2,10.2,103.2c-14.1,22.6-51.1,47-69.5,15.3
	C441.7,948.2,462.1,903.3,464.1,901.2z" />
	<path class="st0" d="M515.2,882.8c0,0,32.7-5.1,23.5,38.8c-9.2,43.9-22.5,58.2-37.8,59.2s-30.6-15.3-18.4-58.2
	C494.8,879.8,511.1,884.9,515.2,882.8z" />
	<path class="st0" d="M441.4,848.6c-19,11.4-38.8,39.8-39.5,82.3c-1,58.2,46.7,44.3,52.6,36.9" />
	<path class="st0" d="M490.6,869.2c0,0-6.9-22.1-23.3-24.9" />
	<path class="st0" d="M431.9,888c-6.6,9.6-11.5,22.1-10.7,37.7c2,35.8,20.3,35.1,30.5,25.9" />
	<path class="st0" d="M479.8,877.6c0-3.6-12.5-14.9-20.5-13.4" />
	<path class="st0" d="M233,808.2c0,0,15.9-38.3,50.4-36.4s22.4,73.7,9.3,94.3s-46.7,42.9-63.5,14S231.2,810,233,808.2z" />
	<path class="st0" d="M279.7,791.4c0,0,29.9-4.7,21.5,35.5c-8.4,40.1-20.5,53.2-34.5,54.1c-14,0.9-28-14-16.8-53.2
	C261,788.6,276,793.2,279.7,791.4z" />
	<path class="st0" d="M204.2,766c-14.5,12.8-27.5,36.4-28.1,69.3c-0.9,53.2,42.9,40.8,47.9,34" />
	<path class="st0" d="M257.4,778.5c0,0-2.6-15.5-13.3-19.4c-4-1.5-8.5-2.6-14.2-1.7" />
	<path class="st0" d="M204.6,795.4c-5.8,8.6-11.5,21.3-10.7,35.2c1.9,32.7,18.7,32.8,28,24.4" />
	<path class="st0" d="M246.5,786.9c0.2-7.4-13.5-16-20.9-11.3c-1,0.6-2.4,1.5-3.9,2.6" />
	<path class="st0" d="M683.3,705.7c0,0,15.4-37.1,48.8-35.3c33.4,1.8,21.7,71.4,9,91.3c-12.7,19.9-45.2,41.6-61.5,13.6
	S681.5,707.5,683.3,705.7z" />
	<path class="st0" d="M728.5,689.4c0,0,28.9-4.5,20.8,34.4c-8.1,38.9-19.9,51.5-33.4,52.4s-27.1-13.6-16.3-51.5
	C710.5,686.7,723.7,690.6,728.5,689.4z" />
	<path class="st0" d="M650.2,668.9c-12.3,11.9-21.4,31.9-22,63c-0.9,51.5,42.3,38.6,46.7,33.2" />
	<path class="st0" d="M682.8,654.1" />
	<path class="st0" d="M711,674.8c0,0,0-18.4-16.7-18.4" />
	<path class="st0" d="M675.2,674.8c-13.7,2.4-31.3,27.2-29.9,52.5c1.8,31.6,17.1,31.9,27.5,22.7" />
	<path class="st0" d="M702.1,680.8c-1.8-4.5-2.3-6.4-7.1-5.9" />
	<path class="st0" d="M459.1,667.7c0.1-17.2,7.5-33,8.5-34c0,0,12.6-30.4,40.1-29c12.5,0.7,17.3,12.8,17.9,27.5" />
	<path class="st0" d="M477.9,673.5c-0.6-6.3,0.2-14.3,3-24.3c8.9-31.2,20.8-27.5,23.8-29c0,0,18.2-2.8,18.3,17.8" />
	<path class="st0" d="M452.9,594.3c-14.4,7.5-30.1,28.5-30.7,60.9" />
	<path class="st0" d="M487,609.9c0,0-1.8-3.6-5-7.6" />
	<path class="st0" d="M452.8,614.3c-8,7.1-17.4,19.4-16.4,37.2c0.2,3.2,0.5,6.1,1,8.6" />
	<path class="st0" d="M687.7,269.9C678.2,322.3,669,382,660,429.1" />
	<path class="st0" d="M596.8,519.9c14.4,0.4,26.3,0.3,28.5-0.4" />
	<path class="st0" d="M427.3,503.2c0.8,0.1,1.6,0.1,2.4,0.1c23.4,0,43.7,2.6,46.7,9.7c3.1,7.2,10.2,7,25.5,3.1
	c13-3.3,23.6-1.1,38.8,0.8c3.9,0.5,11.1,1,19.7,1.5" />
	<path class="st0" d="M423.6,439.1c-2.7,14.9-4.4,23.9-4.4,23.9s-81.6-7.2-112.5-9.2c-3.2-0.2-6.5-0.3-8,0.8c-1.4,0.9-2.7,2-2.1,7.9
	c0.8,7.2,18.9,7.6,25.2,7.8c15.2,0.4,48.1,14.7,74.8,24.4" />
	<path class="st0" d="M704.1,178.7c5.1-28.5,8.3-46.6,8.3-46.6s-80.7-1-97,0c-12.4,0.8-84.1-10.8-118.1-16.4l-16.5-2.2
	c0,0-7.2,56.2-8.4,62.5c-1.6,8.5-32,173.2-46.1,249.2" />
	<path class="st0" d="M647,366.5c0.7,2.2,38.7,195.7,46.8,264.8c3.4,29.5,0.5,57.2,0.5,57.2" />
	<polyline class="st0" points="631.5,403.3 675.6,632.6 677,720.9 " />
	<line class="st0" x1="408" y1="325.1" x2="428.9" y2="410.5" />
	<line class="st0" x1="394.8" y1="356.8" x2="412.7" y2="421.9" />
	<path class="st0" d="M237.6,682.1c0,0-38.3,95-38.3,106.3c0,1.2,27.8,32.2,27.8,32.2" />
	<path class="st0" d="M256.2,689c0,4.1-36.2,93.7-36.2,93.7l14.7,16.5" />
	<polyline class="st0" points="532.3,516.1 481.1,593.7 479.1,617.2 " />
	<path class="st0" d="M512.8,515.1c-5.3,3.8-34.9,60.6-34.9,60.6l-12.8-1.6l-13.4-70" />
	<path class="st0" d="M432.1,503.4c0,8.2,22.3,76.7,22.3,76.7l-2.6,63.9l9,7" />
	<path class="st0" d="M303.9,454.3c2,0.9,5.6,1.8,5.6,5.6c0,3.8-2.1,8-4.7,8.4" />
	<path class="st0" d="M476.5,513.5c-2.4-4.1,4.1-10.7,12.5-7.1c0.5,0.2,1,0.6,1.4,1c2.4,2.5,2.5,8.2-0.3,10.9" />
	<path class="st0" d="M645.4,474.1c-0.4,1.3-6.9,21.5-6.9,21.5" />
	<path class="st0" d="M562.7,510.8c-4.1-0.7-78.7-5.6-78.7-5.6" />
	<path class="st0" d="M537.9,666.7c10.3-1.4,136.8-17.5,136.8-17.5" />
	<line class="st0" x1="531.7" y1="683.2" x2="675.8" y2="665.3" />
	<path class="st0" d="M609.1,454.8l14.8,9.9c0,0-3.7,6.2-8.6,11.1c-4.9,4.9-160.1,400.3-160.1,400.3l9.5,23" />
	<path class="st0" d="M485.4,735.6c-28.1,71.5-56.8,145-56.8,145l26.1,45.3" />
	<path class="st0" d="M566.3,523.3c-1.2,6.4-28.8,78.3-60.3,158.7" />
	<line class="st0" x1="347.6" y1="477" x2="290.1" y2="611.3" />
	<path class="st0" d="M328.7,471.8c-1.2,3.7-59.6,142-59.6,142" />
	<path class="st0" d="M612.6,246.9c-1.5,3.8-18.1,55.1-24.6,70.7c-3.5,8.2-28.5,56.3-31.6,57.1c-3.1,0.8-14.5-4.6-14.5-4.6
	s12.2-20.6,18.3-35.9c6.1-15.3,31.6-68.7,34.1-76c2.4-7.1,3.1-12.9,3.5-12.7" />
	<path class="st0" d="M528.7,230c-4.7,24.2-8.6,54.4-12.8,70.1c-4.2,15.6-20.6,60.1-20.6,60.1l-13.8-4.7c0,0,9.9-27.5,13-36.6
	c3.1-9.2,18.5-83,18.5-89.1" />
	<path class="st0" d="M511.7,425.8c0,0,28.6,31.2,35.4,37.3c6.9,6.1,28.8,18.7,28.8,18.7" />
	<path class="st0" d="M532.7,413.5c2.3,2.3,13.7,19.1,23.7,28.2c9.9,9.2,23.6,21.3,27.5,22.1" />
	<path class="st0" d="M459.4,411.2c-0.8,2.3-16,11.6-22.9,14.5c-4.9,2.1-16,0.8-18.3,0c-2.3-0.8-4.6-6.9-10.7-3.8
	c-6.1,3.1-10.7,16.8-10.7,16.8s1.5,3.8,3.1,8.4c1.5,4.6,0,8.4,6.1,13.7" />
	<path class="st0" d="M468.7,413.4c-4.6,4.6-15.1,15.6-26.8,21.5c-7.6,3.8-32.1,4.2-32.1,4.2" />
	<path class="st0" d="M472.3,420.7c0,0-12.2,11.9-25.2,21.8c-13,9.9-30.5,30.5-36.6,36.6c-6.1,6.1-13.9,16.2-13.9,16.2
	s0.9,3.2,5.8,4.8c4.1,1.4,17.4,8.2,23.8,3.4l3.3-9.9c0,0,1.8-3.5,3.9-5.9c10.3-11.6,30.9-17.3,43.9-29.5s20.9-34.1,20.9-37.2" />
	<path class="st0" d="M457.1,472.5c23.9,5.8,51.9,12.2,61,12.9c16.9,1.1,53.1,7.6,53.1,7.6" />
	<path class="st0" d="M419.2,463c0,0,1.9,0.5,5.1,1.3" />
	<path class="st0" d="M422.5,446.9c-4.1,2-4.9,2.6-7.5,3.2c-3.8,0.9-2-10.5-2-10.5" />
	<path class="st0" d="M418.1,426c-0.6,1.7-9.6,14.5-9.6,14.5s-5.5,2.9-11.3-0.9" />
	<path class="st0" d="M420.4,452.7c0,0-7.8,9-10.2,9.3" />
	<path class="st0" d="M599,226.8c0-1.2,2.1-5.9,6.2-6.5c4.1-0.6,14.5-1.5,16,2.1c1.5,3.5-0.3,13.6-2.4,18c-2.1,4.4-0.6,6.8-8.3,6.8
	s-14.8-1.5-15.4-4.1C594.6,240.4,599,226.8,599,226.8z" />
	<path class="st0" d="M511,211.1c-0.2-1.2,1.2-6.2,5.2-7.4c4-1.2,14.1-3.6,16.1-0.3s1.7,13.5,0.4,18.2s0.4,6.8-7.2,8
	c-7.6,1.1-14.8,0.7-15.8-1.8C508.6,225.2,511,211.1,511,211.1z" />
	<path class="st0" d="M502.1,354.7" />
	<path class="st0" d="M543.9,364.3l-5.1-1.9l-5.3,9.9l5.4,5.3l-9.2,19.1l-7.6-2.3l-9.9,9.9c0,0-22.1-6.1-25.2-6.9
	c-3.1-0.8,3.8-12.2,3.8-12.2l-7.1-3.7l7.1-15.4c0,0,5.2,0.3,8.3,1.8c3.1,1.5,6-12.4,6-12.4l-7.2-1.2" />
	<path class="st0" d="M562.5,370.8" />
	<path class="st0" d="M558.9,369.6l8.4,2.6l-8.7,13.2c0,0-7.5-3.8-10.1-5.4c-2.3-1.4-13,17.5-13,17.5l5.6,4.5L522,428.8l-15.3-4.6
	l-6.1,7.6c0,0-3.5-0.1-4-1.5c-1-3,3.8-11.1,1.8-11.5c-3.8-0.8-21.1-6-21.1-6l-3.5,7.5l-6.1-2.3l2.3-5.3c0,0-14.4-1-14.5-2.3
	c-0.2-2.1,13.9-31.3,13.9-31.3l6.2-0.3l5.5-13.8l-7.3-5.8l5.3-11.5l3.2,1.8" />
	<path class="st0" d="M614.7,477.9c0,0,18.2,9.8,21.4,13.2c4,4.4,8.1,29.3,8.1,29.3l-11.8,10.5c0,0-3.8,0.2-6.1-7.1
	c-2.3-7.3-0.2-5.9-1.3-13c-1.8-12-16-14.4-17.9-16.3" />
</svg>
