<!--
  https://github.com/Duxxie/duxxie-creative-commons
  This work is licenced by https://creativecommons.org/licenses/by-sa/4.0/
-->
<svg version="1.1" id="kinderwagen-buggy-svg" xmlns="http://www.w3.org/2000/svg" x="0px" y="0px" width="1000px" height="1000px" viewBox="0 0 1000 1000" xml:space="preserve">
  <style>
    #kinderwagen-buggy-svg .st0{fill:none;stroke:currentColor;stroke-linecap:round;stroke-linejoin:round;stroke-miterlimit:10;}
  </style>
  <path class="st0" d="M559,521.5l172.7-406.8c0,0,0-3.1-5.1-10.2c-5.1-7.2-23.5-43.9-15.3-70.5c0,0-10.2-12.3,4.1-17.4  s17.4,5.1,25.5,10.2c8.2,5.1,28.6,37.8,24.5,56.2S578.2,522.9,578.2,522.9C576.8,524.2,559,521.5,559,521.5z"/>
  <path class="st0" d="M722.6 44.2L740 62.6c0 0 5.1 8.2 4.1 14.3-1 6.1-8.2 22.5-8.2 22.5S711.3 58.5 722.6 44.2zM472.1 175.8c-49 115.4-121 281.7-121 281.7M332.8 455.8L484.9 97.5c0 0 0-2.8-4.7-9.5-4.7-6.6-21.8-40.8-14.2-65.5 0 0-9.5-11.4 3.8-16.1 13.3-4.7 16.1 4.7 23.7 9.5s26.6 35.1 22.8 52.2c-.8 3.5-8 21.6-19.1 48.3"/>
  <path class="st0" d="M476.4 31.9L492.5 49c0 0 4.7 7.6 3.8 13.3-.9 5.7-7.6 20.9-7.6 20.9S465.9 45.2 476.4 31.9zM198.6 667.3l3.1-23.5 64.4-29.6 12.3 2 11.2-4.1 187.3 61 38.4 12.5-21.5 49c0 0-70.5 5.1-77.6 5.1s-9.2-2-24.5-6.1S198.6 667.3 198.6 667.3z"/>
  <path class="st0" d="M208.8 649.9L410 716.3 514.8 686M464.1 901.2c0 0 17.4-41.9 55.2-39.8s27.1 76.2 10.2 103.2c-14.1 22.6-51.1 47-69.5 15.3C441.7 948.2 462.1 903.3 464.1 901.2z"/>
  <path class="st0" d="M515.2 882.8c0 0 32.7-5.1 23.5 38.8-9.2 43.9-22.5 58.2-37.8 59.2s-30.6-15.3-18.4-58.2C494.8 879.8 511.1 884.9 515.2 882.8zM441.4 848.6c-19 11.4-38.8 39.8-39.5 82.3-1 58.2 46.7 44.3 52.6 36.9M490.6 869.2c0 0-6.9-22.1-23.3-24.9"/>
  <path class="st0" d="M431.9 888c-6.6 9.6-11.5 22.1-10.7 37.7 2 35.8 20.3 35.1 30.5 25.9M479.8 877.6c0-3.6-12.5-14.9-20.5-13.4M233 808.2c0 0 15.9-38.3 50.4-36.4s22.4 73.7 9.3 94.3-46.7 42.9-63.5 14S231.2 810 233 808.2z"/>
  <path class="st0" d="M279.7 791.4c0 0 29.9-4.7 21.5 35.5-8.4 40.1-20.5 53.2-34.5 54.1-14 .9-28-14-16.8-53.2C261 788.6 276 793.2 279.7 791.4zM204.2 766c-14.5 12.8-27.5 36.4-28.1 69.3-.9 53.2 42.9 40.8 47.9 34M257.4 778.5c0 0-2.6-15.5-13.3-19.4-4-1.5-8.5-2.6-14.2-1.7"/>
  <path class="st0" d="M204.6 795.4c-5.8 8.6-11.5 21.3-10.7 35.2 1.9 32.7 18.7 32.8 28 24.4M246.5 786.9c.2-7.4-13.5-16-20.9-11.3-1 .6-2.4 1.5-3.9 2.6M683.3 705.7c0 0 15.4-37.1 48.8-35.3 33.4 1.8 21.7 71.4 9 91.3-12.7 19.9-45.2 41.6-61.5 13.6S681.5 707.5 683.3 705.7z"/>
  <path class="st0" d="M728.5 689.4c0 0 28.9-4.5 20.8 34.4-8.1 38.9-19.9 51.5-33.4 52.4s-27.1-13.6-16.3-51.5C710.5 686.7 723.7 690.6 728.5 689.4zM650.2 668.9c-12.3 11.9-21.4 31.9-22 63-.9 51.5 42.3 38.6 46.7 33.2M711 674.8c0 0 0-18.4-16.7-18.4"/>
  <path class="st0" d="M675.2 674.8c-13.7 2.4-31.3 27.2-29.9 52.5 1.8 31.6 17.1 31.9 27.5 22.7M702.1 680.8c-1.8-4.5-2.3-6.4-7.1-5.9M459.1 667.7c.1-17.2 7.5-33 8.5-34 0 0 12.6-30.4 40.1-29 12.5.7 17.3 12.8 17.9 27.5"/>
  <path class="st0" d="M477.9 673.5c-.6-6.3.2-14.3 3-24.3 8.9-31.2 20.8-27.5 23.8-29 0 0 18.2-2.8 18.3 17.8M452.9 594.3c-14.4 7.5-30.1 28.5-30.7 60.9M487 609.9c0 0-1.8-3.6-5-7.6M452.8 614.3c-8 7.1-17.4 19.4-16.4 37.2.2 3.2.5 6.1 1 8.6M687.7 269.9C678.2 322.3 669 382 660 429.1M596.8 519.9c14.4.4 26.3.3 28.5-.4M427.3 503.2c.8.1 1.6.1 2.4.1 23.4 0 43.7 2.6 46.7 9.7 3.1 7.2 10.2 7 25.5 3.1 13-3.3 23.6-1.1 38.8.8 3.9.5 11.1 1 19.7 1.5M423.6 439.1c-2.7 14.9-4.4 23.9-4.4 23.9s-81.6-7.2-112.5-9.2c-3.2-.2-6.5-.3-8 .8-1.4.9-2.7 2-2.1 7.9.8 7.2 18.9 7.6 25.2 7.8 15.2.4 48.1 14.7 74.8 24.4M704.1 178.7c5.1-28.5 8.3-46.6 8.3-46.6s-80.7-1-97 0c-12.4.8-84.1-10.8-118.1-16.4l-16.5-2.2c0 0-7.2 56.2-8.4 62.5-1.6 8.5-32 173.2-46.1 249.2M647 366.5c.7 2.2 38.7 195.7 46.8 264.8 3.4 29.5.5 57.2.5 57.2M631.5 403.3L675.6 632.6 677 720.9M408 325.1L428.9 410.5M394.8 356.8L412.7 421.9M237.6 682.1c0 0-38.3 95-38.3 106.3 0 1.2 27.8 32.2 27.8 32.2"/>
  <path class="st0" d="M256.2 689c0 4.1-36.2 93.7-36.2 93.7l14.7 16.5M532.3 516.1L481.1 593.7 479.1 617.2M512.8 515.1c-5.3 3.8-34.9 60.6-34.9 60.6l-12.8-1.6-13.4-70M432.1 503.4c0 8.2 22.3 76.7 22.3 76.7l-2.6 63.9 9 7M303.9 454.3c2 .9 5.6 1.8 5.6 5.6 0 3.8-2.1 8-4.7 8.4"/>
  <path class="st0" d="M476.5 513.5c-2.4-4.1 4.1-10.7 12.5-7.1.5.2 1 .6 1.4 1 2.4 2.5 2.5 8.2-.3 10.9M645.4 474.1c-.4 1.3-6.9 21.5-6.9 21.5M562.7 510.8c-4.1-.7-78.7-5.6-78.7-5.6M537.9 666.7c10.3-1.4 136.8-17.5 136.8-17.5M531.7 683.2L675.8 665.3"/>
  <path class="st0" d="M609.1,454.8l14.8,9.9c0,0-3.7,6.2-8.6,11.1c-4.9,4.9-160.1,400.3-160.1,400.3l9.5,23"/>
  <path class="st0" d="M485.4 735.6c-28.1 71.5-56.8 145-56.8 145l26.1 45.3M566.3 523.3c-1.2 6.4-28.8 78.3-60.3 158.7M347.6 477L290.1 611.3M328.7 471.8c-1.2 3.7-59.6 142-59.6 142M612.6 246.9c-1.5 3.8-18.1 55.1-24.6 70.7-3.5 8.2-28.5 56.3-31.6 57.1-3.1.8-14.5-4.6-14.5-4.6s12.2-20.6 18.3-35.9c6.1-15.3 31.6-68.7 34.1-76 2.4-7.1 3.1-12.9 3.5-12.7M528.7 230c-4.7 24.2-8.6 54.4-12.8 70.1-4.2 15.6-20.6 60.1-20.6 60.1l-13.8-4.7c0 0 9.9-27.5 13-36.6 3.1-9.2 18.5-83 18.5-89.1M511.7 425.8c0 0 28.6 31.2 35.4 37.3 6.9 6.1 28.8 18.7 28.8 18.7M532.7 413.5c2.3 2.3 13.7 19.1 23.7 28.2 9.9 9.2 23.6 21.3 27.5 22.1M459.4 411.2c-.8 2.3-16 11.6-22.9 14.5-4.9 2.1-16 .8-18.3 0-2.3-.8-4.6-6.9-10.7-3.8-6.1 3.1-10.7 16.8-10.7 16.8s1.5 3.8 3.1 8.4c1.5 4.6 0 8.4 6.1 13.7"/>
  <path class="st0" d="M468.7 413.4c-4.6 4.6-15.1 15.6-26.8 21.5-7.6 3.8-32.1 4.2-32.1 4.2M472.3 420.7c0 0-12.2 11.9-25.2 21.8-13 9.9-30.5 30.5-36.6 36.6-6.1 6.1-13.9 16.2-13.9 16.2s.9 3.2 5.8 4.8c4.1 1.4 17.4 8.2 23.8 3.4l3.3-9.9c0 0 1.8-3.5 3.9-5.9 10.3-11.6 30.9-17.3 43.9-29.5s20.9-34.1 20.9-37.2"/>
  <path class="st0" d="M457.1 472.5c23.9 5.8 51.9 12.2 61 12.9 16.9 1.1 53.1 7.6 53.1 7.6M419.2 463c0 0 1.9.5 5.1 1.3M422.5 446.9c-4.1 2-4.9 2.6-7.5 3.2-3.8.9-2-10.5-2-10.5M418.1 426c-.6 1.7-9.6 14.5-9.6 14.5s-5.5 2.9-11.3-.9M420.4 452.7c0 0-7.8 9-10.2 9.3M599 226.8c0-1.2 2.1-5.9 6.2-6.5 4.1-.6 14.5-1.5 16 2.1 1.5 3.5-.3 13.6-2.4 18-2.1 4.4-.6 6.8-8.3 6.8s-14.8-1.5-15.4-4.1C594.6 240.4 599 226.8 599 226.8zM511 211.1c-.2-1.2 1.2-6.2 5.2-7.4 4-1.2 14.1-3.6 16.1-.3s1.7 13.5.4 18.2.4 6.8-7.2 8c-7.6 1.1-14.8.7-15.8-1.8C508.6 225.2 511 211.1 511 211.1zM543.9 364.3l-5.1-1.9-5.3 9.9 5.4 5.3-9.2 19.1-7.6-2.3-9.9 9.9c0 0-22.1-6.1-25.2-6.9-3.1-.8 3.8-12.2 3.8-12.2l-7.1-3.7 7.1-15.4c0 0 5.2.3 8.3 1.8 3.1 1.5 6-12.4 6-12.4l-7.2-1.2"/>
  <path class="st0" d="M558.9 369.6l8.4 2.6-8.7 13.2c0 0-7.5-3.8-10.1-5.4-2.3-1.4-13 17.5-13 17.5l5.6 4.5L522 428.8l-15.3-4.6-6.1 7.6c0 0-3.5-.1-4-1.5-1-3 3.8-11.1 1.8-11.5-3.8-.8-21.1-6-21.1-6l-3.5 7.5-6.1-2.3 2.3-5.3c0 0-14.4-1-14.5-2.3-.2-2.1 13.9-31.3 13.9-31.3l6.2-.3 5.5-13.8-7.3-5.8 5.3-11.5 3.2 1.8M614.7 477.9c0 0 18.2 9.8 21.4 13.2 4 4.4 8.1 29.3 8.1 29.3l-11.8 10.5c0 0-3.8.2-6.1-7.1-2.3-7.3-.2-5.9-1.3-13-1.8-12-16-14.4-17.9-16.3"/>
</svg>
