<?xml version="1.0" encoding="utf-8"?>
<!-- Generator: Adobe Illustrator 23.1.1, SVG Export Plug-In . SVG Version: 6.00 Build 0)  -->
<svg version="1.1" id="kraamhulpmiddelen-pakket-svg" xmlns="http://www.w3.org/2000/svg" xmlns:xlink="http://www.w3.org/1999/xlink" x="0px" y="0px"
	 width="1000px" height="1000px" viewBox="0 0 1000 1000" style="enable-background:new 0 0 1000 1000;" xml:space="preserve">
<style type="text/css">
	#kraamhulpmiddelen-pakket-svg .st0{fill:none;stroke:currentColor;stroke-linecap:round;stroke-linejoin:round;stroke-miterlimit:10;}
	#kraamhulpmiddelen-pakket-svg .st1{fill:none;}
	#kraamhulpmiddelen-pakket-svg .st2{fill:none;}
	#kraamhulpmiddelen-pakket-svg .st3{fill:none;stroke:currentColor;stroke-linecap:round;stroke-linejoin:round;stroke-miterlimit:10;}
	#kraamhulpmiddelen-pakket-svg .st4{fill:none;stroke:currentColor;stroke-linecap:round;stroke-linejoin:round;stroke-miterlimit:10;}
</style>
<g>
	<path class="st0" d="M448.2,615c5.9,2.6,77.5,17.7,96.5,56.8c15.1,31.5-9.9,71.9-63.7,92.1c-13.1,4.9-50.9,14.8-67.8,17.2
		c-75.8,9.5-137.1-2-178.8-16.3c-6.2-2.8-25.3-10.5-29.4-13.9c-31.5-21.9-50.3-41.1-38.2-79.7"/>
	<path class="st0" d="M484.2,764.7c2.9,9.3-12.5,29.5-19.4,37.4c-6.9,7.9-28.8,32.2-86.4,33.2c-57.6,1-86-6.4-110.9-18.4
		c-24.8-12-34.8-33.2-38.4-39.7c-3.6-6.4-5.6-16.9-5.6-16.9"/>
	<path class="st0" d="M450.3,657.7c1.5,0.5,48.7,23,34.4,56.2c-14.3,33.2-72.5,47-143.4,44c-71.2-3.1-107.8-23.8-118.2-56.3"/>
	<path class="st0" d="M215.1,756.5c0,0-45.8-12.4-50.2-12.4c-4.3,0-17.2,1.5-25.6,2.5c-8.4,1-78,10.1-86,7.6
		c-7.9-2.5-12.3-11.3-12.6-18.4c-0.2-5.7,3.2-17.5,12.1-18.4c9-1,115.8-1.2,115.8-1.2"/>
	<path class="st0" d="M194.8,568.1c9.5-4.6,94.8-41.7,200.8,3.6c0,0,88.1,37.2,46.9,99.4c-0.5,0.6-12.2,20.3-73.9,38.9
		c0,0-40.7,10.8-103.3,0.7c-12.6-2.1-57.1-6.9-93.3-36.8c-40.1-33.2-24.6-64-19.3-72.9C158,592.6,171.7,579.3,194.8,568.1z"/>
	<path class="st0" d="M289.7,622.6c-0.7,3.9-0.5,12.6,0.4,17.7c-0.7,1.8-5.8-0.8-9.7-2.3c-3.3-0.5-3.1-16.6-0.7-21.6
		c2.3-4.9,6.3-4.8,8.4-4.3c0.7,0.3,30.2,7.4,31,7.8c5.5,3,2.6,17.2,1.8,23.5c-0.7,5.8-1.3,6.4-1.3,6.4s-1.5,1.3-8.4-2.8
		c-1.3-0.7,0.7-13.8,0.5-17.6L289.7,622.6z"/>
	<path class="st0" d="M190.4,600.1c1-1.3,37.9-40.7,116-30c78.1,11,116.4,33.9,116.8,70.6c0.4,40.4-80.2,79.4-173.6,55.2
		C166.1,666.4,163.1,633.8,190.4,600.1z"/>
	<path class="st0" d="M261.2,607.4c4.3-1.4,18-11.7,56.8-3.3c15.8,3.4,47.4,14.7,39.7,41.4c-13.1,31.9-80.6,20-90.2,16.4
		C245.2,654.7,221.2,626.6,261.2,607.4z"/>
</g>
<g id="Laag_7">
	<path class="st0" d="M863.8,299.7c0,0,4-3.2,8.6-4.7c1.5-0.5,8,5.5,7.9,8c-0.3,3.4-6.3,7.8-6.3,7.8"/>
	<path class="st1" d="M955.8,407.4l15.4,18c0,0,3.2,4,1.9,6.7c-1.5,2.7-4.7,1.9-4.7,1.9l-7.4-5.5l-10.9,0.7l-27.1-11.7l15.2-4.6
		l15.3,4.6l-6.8-7.6L955.8,407.4z"/>
	<path class="st0" d="M956.2,407.7l4.7,5.6l12,14.4c0,0,1.5,3.6-1.1,5.6c-2.2,1.7-4,0.5-4,0.5l-6.6-5.1l-11,0.4l-37-8.5"/>
	<path class="st2" d="M620.8,276.5l37.4,0.1l110.1-20l28.6-13l12.2-1.5l118.2,128.6l32.3,34.6c0,0-26.2,9-29.7,10.5
		c-15.7,6.4-161.8,46-161.8,46s-18.8,5.6-20.4,6c-1.6,0.5-5.6,4.4-5.6,4.4s1.5,4.8-0.4,3.5c-3.4-2.5-53.4-69.3-79.3-101
		c-14.6-18.1-11.9-11.7-11.9-11.7l-67.9-79.8l0.9-3.8c0,0,1.9-4.4,4.4-4C591.3,276.4,620.8,276.5,620.8,276.5z"/>
	<path class="st1" d="M757.6,473c0,0,79.1-26,82.2-26s98.9-28.7,98.9-28.7l8.2,0.5l-0.5,8.6l-163.6,51.1l-5.5-3.6l-17.6,3.1
		L757.6,473z"/>
	<path class="st1" d="M673.9,388.4c0,0-47.9,11.4-49.2,14.1c-1.3,2.8-17.7,15.4-17.7,15.4l72.3-22.4L673.9,388.4z"/>
	<path class="st1" d="M592.9,410.4l-27.2,6.3l-31.4,8.5l-5,6.6v7.4l7.1,5.5l25.7,6.7l59.4,10.5l84.9,14.2l18,5l32.2,10.3l-11.4-15.4
		c0,0-2.4,1.9-5.5-2.5c-1.7-2.4-13.4-18.6-14.8-18.2c-1.3,0.5-16.4,8.5-16.4,8.5l-13.3-3.2l-0.5-7.2l-3.9-5.9l4.4-7.5l-2.9-2.5
		l-9.5,3.1l-7.4,11l-6.2-3.1l3.1-12.1l-3.1-3.1l-9.8,3.9l-8,10.5l-5-2.8l4.3-9.4l-0.1-2.4l-3.6-2.7l-11.3,2.8l-6.7,10.7l-3.2-0.9
		l-1.9-4l3.1-9l-2.9-3.5l-8.7,3.1l-9,10.1l-3.6-1.6l-1.1-5.4l3.1-7.9l-3.2-3.1l-9.9,2.3l-11.3,14.4l-2.8,2.9c0,0-4.6,0-7.2,0
		s-20.9-2.9-20.9-2.9l-6.8-3.1c0,0,12.1-5.8,14.8-6.3s18.9-5,18.9-5L592.9,410.4z"/>
	<path class="st1" d="M630.8,240.3c-1.9,0-51.2,4-51.2,4l-4.6,1.6l-3.4,6.8l-0.5,10.2l12.6,16.9l4.4-3.2l6.9-0.3l-11.3-12.9l0.7-5.6
		l3.8-4.3l50.7-4L630.8,240.3z"/>
	<path class="st1" d="M742.3,225.4c1.3-0.5,32.7-6,32.7-6l9.1,2.4l20.9,19.9l-5,2.9l-16.6-13.9l-4.6-2l-13.2,1.9l-14.9,3.9
		L742.3,225.4z"/>
	<path class="st0" d="M781.3,478.7l166-52.2c2.8-12-9.2-8.9-9.2-8.9l-181.2,55.3"/>
	<polyline class="st0" points="946.8,410.4 954,417.9 948.6,416.5 935.7,414.1 	"/>
	<path class="st0" d="M578.3,440.3c-4.8,2.3-9.4,0-10.5-2c-1.1-2-1.9-4.8,0-7.4c1.9-2.6,81.9-66.8,81.9-66.8s10.6-10.5,13.6-8.6
		c0,0,11,6.4,6.2,11.7c-4.1,5.2-29.9,23.2-29.9,23.2l-41.4,33.9"/>
	<path class="st0" d="M650.8,363.3l-67.5-80.3c0,0,0.9-7.4,5.9-7s30.8,0.6,44.8,0.4c14.2-0.3,27.8,0.8,28.2-0.7"/>
	<path class="st0" d="M592.5,410c-24.1,4.7-56.3,14.6-56.3,14.6s-5.5,2.7-6.6,6.9c-0.3,0.8-2.8,6.2,2.7,10.6
		c5.5,4.4,32.9,9.8,38.1,10.7c5.2,0.8,132.5,24,136.2,23.6c3.6-0.4,50.4,15,50.4,15"/>
	<path class="st0" d="M578.1,422.2c0,0-31.9,9.8-34.1,12.1c-0.1,0.1-2.7,1.1,3.6,2.5c7.8,1.9,12.9,4.3,23.2,3.9"/>
	<path class="st0" d="M696.3,459.8c0,0,10.5,4.4,14.1,2.7c3.6-1.9,14.4-7.6,14.4-7.6"/>
	<path class="st0" d="M760.8,477.5c0,0,8.9-2.7,13.2-3.1c0.7-0.1,1.9-1.1,5.5,2.7c6.6,7.1,7.8,8.2,4.7,10.2c-5.5,3.8-11.7,4-11.7,4"
		/>
	<path class="st0" d="M662.2,373.9l79.7,101.8c0,0,1.3,0.9,3.6-0.3"/>
	<path class="st0" d="M617,428.3c0.9-0.1,6.6-1.9,6.6-1.9s1.1-0.8,2.4,0.7c1.3,1.5,2,2.3,1.3,4.4c-0.7,2.3-3.5,6.4-2.5,8.5
		c0.9,2,2.7,3.8,4.7,3.1"/>
	<path class="st0" d="M639.1,431.4l6.8-1.3c0,0,1.9-0.7,3.8,1.5c1.7,1.9,1.9,2.8-0.1,5.5c-2,2.8-2.8,6-1.7,7.5c1.1,1.6,3.9,2,3.9,2"
		/>
	<path class="st0" d="M660.5,436.1l7.5-2.8c0,0,1.7-1.5,3.9,1.2c2.2,2.7-1.5,7.2-1.3,9.9c0.1,2.7-0.7,2.8,1.1,4.4
		c1.3,1.3,3.4,1.9,4.8,1.6"/>
	<path class="st0" d="M685.5,438.3c1.7-0.3,4.7-0.9,5.5-1.3c0.3-0.1,1.9-0.7,3.1,0.7c1.5,1.5,1.3,2.4-0.5,5.1
		c-1.9,2.8-3.5,3.2-2.2,5.5c1.5,2.2,3.5,3.1,3.8,5.9c0.3,2.9-0.3,5.5-0.3,5.5l-9.4,4.8"/>
	<path class="st0" d="M805.8,241.8c-2.9-1.6-15.8-15.8-19.9-18.8c-2.9-2-8.7-4-12.3-3.5s-30.6,5.2-30.6,5.2"/>
	<path class="st0" d="M629.8,239.9c0,0-47.9,2.5-51.5,4.3c-3.6,1.8-3.6,2.5-5.6,6c-2.8,4.6-1.1,13.1-1.1,13.1s2.5,4.6,3.9,6.6
		c1.3,1.9,8.6,9.9,8.6,9.9"/>
	<path class="st0" d="M638.9,249.6c0,0-48,4-49.8,3.6s-7.8,6.2-4.6,11.4c1.9,3.2,9.9,11.1,9.9,11.1"/>
	<path class="st0" d="M797,244c0,0-10.2-11.9-14.5-13.8c-4.4-1.9-1.3-1.7-7.5-1.1s-24.9,4.6-24.9,4.6"/>
	<path class="st0" d="M601.3,422c0,0,3.6,0.9,3.8,2.9c0.1,1.6-0.6,3.4-2.5,6.2c-1.5,2-1.1,5.6,1.9,7c1.3,0.6,3.5,0.9,4.3-0.3
		c0.7-1.2,4.1-6.3,5.1-7.1c1.2-1.2,2-2.9,3.6-2.3c1.6,0.6,3.5,1.2,3.6,2.8c0,1.6,0.5,2.8-0.7,5c-1.2,2.2-2.2,2.3-2.2,4.7
		c0.1,2.5,1.9,6,4.6,6.4c2,0.3,3.1,0.3,6.2-3.1c2.8-3.1,1.3-3.1,3.4-5.9c2.4-3.1,3.1-7,6.6-6.7c0.4,0-0.9-1.2,2.2,1.5
		c3.6,3.2,2.2,5.1,1.5,7.9c-0.7,2.8-2.4,2.8-1.7,5.5c0.7,2.7,4.3,7.1,7.5,4.4c3.2-2.7,8.3-10.6,9.7-12c1.6-1.7,1.9-3.6,5-2.7
		c3.1,0.9,3.1,2,2.4,5c-1.2,5.5-2.3,4.1-1.7,8.7c0.5,3.9,0.4,3.1,2.9,4.4c2.3,1.2,6.3,2.2,8.5-1.1c2.2-3.2,6.2-11,8.3-13
		c2.4-2,1.5-2.2,2.5-1.9c2.7,0.8,4.3,1.1,2.5,5.2c-1.6,3.9-4.4,4.1-2.7,7.5c1.9,3.4,0.9,3.1,1.6,5.6c0.6,2.4,0.9,3.6,0,5.6
		c-0.8,1.9-1.2,1.9-1.2,1.9l-105.8-18.8c0,0-2.4-3.1-1.9-5.2c0.5-2.2,8.2-10.7,9.4-12.1c1.1-1.3,3.1-4.4,6.9-4.4s4.4,1.5,4.1,3.5
		c-0.5,3.2-1.7,4.3-1.9,7c-0.1,2.8-1.2,8,3.1,8s7.6-2.9,8.9-4"/>
	<path class="st0" d="M752.2,466.7c0.8,3.6,21.7,25.5,21.7,25.5s3.1,1.2,0.1,5c-2.8,3.6-10.9,3.5-10.9,3.5l-19.5-29"/>
	<path class="st0" d="M716.9,198.3l55.3,57.5c0,0,1.6,11.9-0.1,16.9s-91.7,21.1-91.7,21.1s-0.7-0.1-2.3-1.9
		c-4.4-4.4-50.3-55.5-50.3-55.5s-7.8-6.4-10.7-8.5c-2.2-1.4-2.2-0.3-3.2-1.7c-2.8-4.3,8-17.7,8-17.7S713.7,196,716.9,198.3z"/>
	<path class="st0" d="M622.4,209.5c0,0,58.6,66.1,60.9,66.7c2.2,0.4,88.9-20.2,88.9-20.2"/>
	<line class="st0" x1="680.8" y1="293.8" x2="683.3" y2="276.1"/>
	<path class="st0" d="M772.7,255.3c1.9-2.5,33.2-16.9,38.3-12.5c5.1,4.4,149.7,163.1,149.7,163.1s-16.9,5.1-21.6,6.7
		c-19.5,6.7-183.6,52.3-183.6,52.3s-10.7,3.6-11.9,5.6c-0.8,1.3-0.7,5.1-0.7,5.1"/>
	<line class="st0" x1="626.9" y1="401.3" x2="673.7" y2="388.4"/>
	<line class="st0" x1="606.8" y1="417.6" x2="678.6" y2="395.3"/>
</g>
<g>
	<path class="st3" d="M796.6,610.4c0,0,16.7-3,16.9-4.4c1.4-5.4,0.3-12.7,1.1-15.7c1.1-3,19.3-3.8,19.3-3.8l15.4,1.8l57.7,286.7
		c0,0,7.8,3.8,10.6,8.6c3,4.8,3,4.8,3,4.8l7.8,5.9l-140.5,79.7c0,0-20,4.8-26.1,1.8c-5.9-3-171.2-65.4-171.2-65.4s-7.8-9.6-3-12.7
		c4.8-3,4.8-3,4.8-3s3.8-8.6,13.4-10.6c9.6-2,49.9-292.6,49.9-292.6s21.1-5.9,24.9-4.8s11.6,1.8,11.6,1.8l3.2,19.3
		c10.6-0.6,25.5-3.5,25.5-3.5c1.1-3.8,3-15.8,3.8-18.1c1.1-2.4,22.8-3.2,26.8-3.8c6.8-0.8,35.4,4.4,35.4,4.4s1.4,3.2,1.4,6.8"/>
	<path class="st0" d="M849.2,589.2l-21.1,4.1c0,0-1.1,10.6-1.7,15.7c-0.6,5.9,1.1,5.6-0.6,6.2c-9.6,3.8-24.7,7.5-25.2,6.2
		c-1.4-3.2-9.9-26.8-9.9-26.8l-26.8,3.8l-34.8-4.4c0,0-8.3,24.9-8.3,29.8c0,0-3.2,0.8-7.5,0c-5.6-0.8-23.4-1.4-23.4-5.1
		s-3-18.5-3.5-21.7c-0.6-3-28.9-4.4-28.9-4.4"/>
	<path class="st0" d="M688.8,641c0,0-1.1,225.8-14.5,247.2c-13.4,21.4-32.3,4.1-32.3,4.1c-9.3-7.2-6.2-24.9-6.2-36.2
		c0-11.3,31.1-208,31.1-220.4L688.8,641z"/>
	<path class="st0" d="M747.3,652c0,0,0.6,234.4-3.8,245.6c-4.4,11.2-15.7,25.8-32.3,22.8c-16.7-3.2-18.7-27.1-18.5-36.2
		c0.3-7.5,29.8-237.4,29.8-237.4L747.3,652z"/>
	<path class="st0" d="M850.1,623.2c0,0,33,230.9,33,238c0,7.2,0,31.1-14.5,33c-14.5,2.1-20.7-25.8-22.8-39.5
		c-2.1-13.4-13.1-221.1-13.1-221.1L850.1,623.2z"/>
	<path class="st0" d="M593.4,894.7c6.2,6.2,165.7,66.3,172.9,67.4c7.2,1.1,151.2-75.4,151.2-75.4"/>
	<path class="st0" d="M784.5,649.6l27.1-9.6c0,0,23.8,234.8,23.8,242.1s1.1,34.1-18.5,35.1s-21-25.8-21.7-32.3
		C794.2,877.1,784.5,664.1,784.5,649.6"/>
</g>
<g>
	<path class="st4" d="M413.5,143.5c0,0,10,0.7,19.1,6.7c7.7,4.9,12.8,7.4,15.9,28.3c6,23.2,6.8,87.8,6.8,87.8l2.7,2.2l0.5,9
		l-1.3,3.5l9.6,97.1c0,0,2.7,0.5,3.2,2.2c0.5,1.7,2.7,11.2,2.7,11.2s5,2.8,6.2,12c0.4,3-3.6,4.6-13.8,6c-11.3,1.8-19.1-0.6-19.3-3.8
		c-0.5-4.4-0.1-13.2,2.7-14.2c2.4-0.9,0.7-8.7,0.7-8.7l2.3-3.5L440.5,282l-3-3.2l-0.8-8.2l1.7-3.2c0,0-5.7-76.9-6.6-80.2
		c-0.5-6.2-4.8-15.3-9.8-19.9c-2.6-2.4-22.2-15.5-28.5-13.3 M250.3,175.4c0,0-14.8,8.1-19.4,20.2c-4.7,12-10.1,14.1-12.8,57.3
		c-2.2,37.9-5.7,64.3-6.6,70.3c0,0.8-0.3,1.1-0.3,1.1l2.2,5.2l-0.3,8.2l-3,3.2l-12.1,118.4c0,0,2.7,2.8,2.7,4.4c0,1.7,0,5.5,0.5,6.8
		c0.5,1.3,2.5,3.3,3.4,7.1c1.1,4.6,8.6,19.2-14.8,19.2c-3,0-19-0.7-21.4-6.7c-2.5-6,0.8-14.5,3.9-15.8c3-1.3,6-15.3,6-15.3l3.4-1.1
		l9.9-120l-3-4.7l0.8-6.8c0,0,4.7-3,4.9-3.5c0.3-1.7,6.8-93.3,7.6-95.4c0.7-2.2,9.1-41.8,23.8-53.8 M369.7,161.6
		c2.5,7.9,4,27.7,4,27.7s1.7,3,2.7,3.9c1.1,0.8,1.3,7.1,1.3,7.1l-1.3,3.2l14.5,99.8c0,0,3,1.9,3,2.7s0.9,7.6,1.1,8.7
		c0.2,1.1,4.5,0.5,4.8,5.1c0.3,4.7,1.3,7.5-0.7,8.3c-1.6,0.5-6.7,2.2-13.6,2.6c-7.2,0.2-13.9,0.8-15.5-2.7c-1.3-3.5-0.7-8.5-0.1-9.1
		c0.7-0.7,4-2.7,4-2.7l-0.8-9.3l2.5-2.5l-14.7-99.2l-3.2-3.2c0,0-0.5-5.4-0.5-6.2s0.8-2.7,1.3-3.9c0.5-1.1-3-26.2-3-26.2
		 M145.4,142.9l-6,80.3l2.8,4l-0.3,10.4l-2.2,1.7l-8,102.1l3.5,6.6v7.8c0,0,3.7,3.2,4,5.3c0.2,1.9,1.3,7.1-0.5,10.4
		c-2,3.3-30.9,1.7-33-0.7c-1.7-1.8-1.1-9.9-0.4-10.7c1.2-2,3.1-2.8,4.1-3.4c1.3-0.5,3-12.8,3-12.8l3-3.5l9-100.9
		c0,0-4.7-4.4-4.4-5.4c1.3-4.7-0.5-8.4,4.4-9.5c1.7-0.3,6-64.6,6-67.9c0-3.5,1.5-23.9,4-28"/>
	<circle class="st4" cx="381.1" cy="289.6" r="2.7"/>
	<circle class="st4" cx="378.1" cy="269.1" r="2.7"/>
	<circle class="st4" cx="375.1" cy="249.5" r="2.7"/>
	<circle class="st4" cx="372.6" cy="227.2" r="2.7"/>
	
		<ellipse transform="matrix(3.327801e-02 -0.9994 0.9994 3.327801e-02 -199.9919 435.8837)" class="st4" cx="125.3" cy="321.3" rx="2.7" ry="2.7"/>
	
		<ellipse transform="matrix(3.327803e-02 -0.9994 0.9994 3.327803e-02 -178.0638 417.6932)" class="st4" cx="126.9" cy="300.9" rx="2.7" ry="2.7"/>
	<circle class="st4" cx="128.5" cy="281.2" r="2.7"/>
	<circle class="st4" cx="130.2" cy="258.9" r="2.7"/>
	<path class="st4" d="M466.7,378.2c0,0-11.8,4-15.3,0.8 M198.1,459.1c0,0-13.4,1.9-16.9-1.3 M457.2,281.2c0,0-10.5,5.1-16.6,2.3
		 M455.3,266.4c0,0-13.1,5.2-16.9,0.5 M376.4,205.9c0,0-8.2,4-14.1,1.3 M373.7,189.2c0,0-11.8,6.3-15.6,1.7 M138.4,241.9
		c0,0-7.9,1.3-13.9-1.3 M139.7,221.6c0,0-10.9,4.4-14.7-0.5 M145.8,80.4c0,0,87.6,0,121.9-3.9c34.4-3.9,120-35.7,133.4-34.4
		c9.3,0.8,63.3,44.4,74.5,53.4c10.6,8.7-3.5,15.8-13.1,21.5c-9.5,5.7-72.8,39.8-88.1,43.3c-26.7,6.2-102.8,15.6-114.3,15.3
		c-24.5-0.5-85.1-8.7-94.6-14.5c-9.5-5.7-10.4-3.2-13.9-9.8c-11.8-21.3-43.9-54-45.8-59.5c-1.9-5.7-6-10.6,0.3-11.8
		C126.1,76.9,130.5,80.4,145.8,80.4z M211.5,321.8c0,0-8.7,2.5-16.6-0.3 M209.8,342.3c0,0-14.7,1.3-18.5-2.5 M115.2,339.7
		c0,0,5,4.1,16.2,1.3 M389.6,302.1c0,0-4.7,4.3-13.7,2.6"/>
</g>
</svg>
