<?xml version="1.0" encoding="utf-8" ?>
<!--
	https://github.com/Duxxie/duxxie-images
	This work is licenced by https://creativecommons.org/licenses/by-sa/4.0/
-->
<svg version="1.1" id="matras-licht-dynamisch-svg" xmlns="http://www.w3.org/2000/svg" xmlns:xlink="http://www.w3.org/1999/xlink" x="0px" y="0px" width="1000px" height="1000px" viewBox="0 0 1000 1000" style="enable-background:new 0 0 1000 1000;" xml:space="preserve">
	<style type="text/css">
	#matras-licht-dynamisch-svg .st0{fill:none;stroke:currentColor;stroke-linecap:round;stroke-linejoin:round;stroke-miterlimit:10;}
</style>
	<path class="st0" d="M551.7,652.4c0,0-200.4-122.1-226.8-136.7s-86-54.3-96.6-58.2c-10.6-4-50.3-29.1-79.4-46.3
	c-29.1-17.2-52.9-35.7-64.9-41s-41-22.5-41-22.5l-2.6-34.4c0,0-5.3-18.5,21.2-15.9c0,0,268.7-49,292.5-50.3s27.8-10.6,56.9-1.3
	c29.1,9.3,499,227.6,512.2,236.9c13.2,9.3,70.1,39.7,70.1,59.6s4,51.6,0,52.9c-4,1.3-142.4,35.2-142.4,35.2" />
	<path class="st0" d="M990.6,539.5c-5.3,0-153.9,36.5-153.9,36.5" />
	<path class="st0" d="M617.4,636.2c0,0-27.8-17.2-87.4-54.3c-59.6-37.1-55.6-34.4-95.3-58.2s-120.4-76.8-156.2-91.3
	s-148.2-79.4-148.2-79.4l-90-39.7" />
	<path class="st0" d="M108.5,386.6c0,0-14.5-1.5-16,0.7c-3.1,4.6-13.6,5.3-13.6,5.3c3.4-1,8-12.1,3.5-15.9
	c-8.8-7.1-12.2,2.8-12.2,2.8" />
	<path class="st0" d="M74,378.2c-2,0.5-24.5,18.1-30.8,19.6C36.8,399.3,5,409.1,5,409.1s-0.5,4.4,2.4,5.4c2.9,1,10.3,2.4,10.3,2.4
	s23.5-6.9,27.9-8.3c4.4-1.5,18.6-3.4,21.5-5.9c2.9-2.4,10.3-13.7,13.7-15.2" />
	<path class="st0" d="M656.6,579.4c7-4.6,100.3-27.4,180.6-2.4c0,0,7.8,14.2,9.8,30.3c2,16.2,12.2,115,4.4,127.3
	c-7.8,12.2-199.2,3.4-205.1,2c-5.9-1.5-4.4-84.2-4.4-84.2s2.4-25.9,5.4-36.7C650.2,604.9,653.6,581.4,656.6,579.4z" />
	<path class="st0" d="M663.9,590.7c2.8-3.4,79.3-23.5,165.5-2.9c0,0,5.9,4.4-2.4,7.3c-8.3,2.9-47,20.1-53.4,24.5
	c-6.4,4.4-33.3,10.8-52.9,2c-19.6-8.8-43.6-20.6-48.9-21.5C666.3,599,661.4,593.6,663.9,590.7z" />
	<path class="st0" d="M743.7,587.3c0,0,19.6,3.4,18.1,14.2c-1.5,10.8-6.4,13.7-16.2,13.7c-9.8,0-18.6-9.3-18.6-13.7
	C727,597,732.4,587.7,743.7,587.3z" />
	<path class="st0" d="M645.3,632.8c9.3,2.9,199.2-0.5,202.2-0.5" />
	<path class="st0" d="M640.4,687.1c0,0-97.4,8.8-108.2,8.3c-10.8-0.5-50.9,2.4-53.8,2.9" />
	<path class="st0" d="M624.2,673.9c-5.9-0.5-56.3,1.5-74.9,3.4c-18.6,2-70.5,12.7-76.4,25.9c-5.9,13.2-8.8,15.2-2,19.6
	c6.9,4.4,85.2-1.5,95.5-2.4c10.3-1,72.9-5.4,74.4-5.9" />
	<path class="st0" d="M609.6,650.4c-1.5-0.5-75.9-2-111.6,10.8c-37.6,13.4-42.6,32.3-43.6,36.2c-1,3.9,3.9,22,4.9,23.5
	c1,1.5,12.2,2.9,18.6,3.4" />
	<path class="st0" d="M640.9,648.4l-15.2-0.5l-11.7-0.5c0,0-6.4,5.9-4.4,9.3c2,3.4,15.7,3.4,15.7,3.4l15.7-1.5" />
	<path class="st0" d="M640.4,675.4c0,0-17.1-1.5-19.6-6.4c-2.4-4.9,1-5.9,1-5.9" />
	<line class="st0" x1="85.7" y1="371.3" x2="74.6" y2="374.2" />
	<polyline class="st0" points="642.5,632.2 617.4,637.5 618.5,648.3 " />
	<path class="st0" d="M383.4,238.8c-1.7-4.3,1.7-32.6,3.4-36c1.7-3.4,11.2-22.3,18-16.3c6.9,6,19.7,58.4,19.7,62.6" />
	<path class="st0" d="M538.4,189.6c-15.4,1-26.2,1.7-29.7,2c-19.7,1.7-63.5,6.9-67.8,3.4s-14.6-4.3-14.6-4.3
	c-12.9-1.7-21.5-4.3-21.5-4.3" />
	<path class="st0" d="M637.5,183.7c-28.2,1.6-55.8,3.3-78.3,4.7" />
	<path class="st0" d="M652,352c9.4,0,128.7-9.4,139-12c10.3-2.6,18-10.3,25.7-36.9c7.7-26.6,3.4-97-3.4-103s-20.6-24.9-26.6-24.9
	c-2.8,0-57.1,3.1-117.2,6.5" />
	<path class="st0" d="M701.8,347.8c0,0,12-40.3,11.2-72.1c-0.9-31.8,4.3-42.1-9.4-52.3c-13.7-10.3-40.7-36.7-64.7-39.3" />
	<path class="st0" d="M716.3,347.8c0,0,9.4-26.6,12.9-43.8c3.4-17.2,2.6-72.9-3.4-79.8c-6-6.9-34.3-30-40.3-33.5
	c-6-3.4-21.3-15-28.5-12.2c-22.7,9-34.2,1.9-39.3,0.2c-5.1-1.7-6.9-7.7-16.3-5.1c-9.4,2.6-23.3,10.2-29.3,12.7
	c-6,2.6-3.3-11.9-14.4-8.4s-14.6,8.6-18.9,13.7c-4.3,5.1-8.6,40.3-6,51.5s8.6,60.1,8.6,60.1" />
	<path class="st0" d="M560.2,310.8c0,0-4.3-33.5-5.1-49.8c-0.9-16.3-3.1-27.5-3.4-34.3c-0.7-13.2,7.4-39.2,7.4-39.2" />
</svg>
