<?xml version="1.0" encoding="utf-8" ?>
<!--
	https://github.com/Duxxie/duxxie-images
	This work is licenced by https://creativecommons.org/licenses/by-sa/4.0/
-->
<svg version="1.1" id="matras-sterk-dynamisch-svg" xmlns="http://www.w3.org/2000/svg" xmlns:xlink="http://www.w3.org/1999/xlink" x="0px" y="0px" width="1000px" height="1000px" viewBox="0 0 1000 1000" style="enable-background:new 0 0 1000 1000;" xml:space="preserve">
	<style type="text/css">
	#matras-sterk-dynamisch-svg .st0{fill:none;stroke:currentColor;stroke-miterlimit:10;}
</style>
	<path class="st0" d="M87.4,692.8c0.9,2.8-10.6,1.2-19.9-4.9c-7.4-4.9-13.4-10.9-19.8-6.4s-33.2,12.1-39.6,12.8
	c-6.4,0.6-1.3,0.9,0.6-4.8s0.7-13.7,3.3-16.9c2.6-3.2,32-21.7,33.9-24.3c1.9-2.6,1.3-10.2,8.9-12.8s1.3,2.6,7.7-2.6
	c6.4-5.1,21.1-18.5,21.1-18.5" />
	<path class="st0" d="M144.3,574.1c0,0,5.8-13.4,11.5-17.3s12.8-3.8,12.8-3.8s8.9-3.8,12.1-8.3c3.2-4.5,3.8-16.6,14.7-17.3
	c10.9-0.6,16-1.9,16-1.9s13.4-5.1,14.7-10.9c1.3-5.8,12.8-19.2,19.8-19.8c7-0.6,6.4-5.8,16-14.7s10.2-6.4,19.2-8.3s-0.6,6.4,8.9-1.9
	c9.6-8.3,10.2-17.9,15.3-20.4c5.1-2.6,14.1-7,14.1-7s9.6-16,13.4-18.5c3.8-2.6,17.9-5.1,17.9-5.1s10.9-10.2,12.8-13.4
	s3.2-10.9,7-12.1c3.8-1.3,11.5-0.6,11.5-0.6s8.3-14.7,12.1-17.3c3.8-2.6,12.1-5.1,12.1-5.1s13.4-7.7,14.1-12.8
	c0.6-5.1,3.8-9.6,12.1-11.5s8.3-1.9,8.3-1.9s1.9-16,8.3-17.3c6.4-1.3,14.1-5.8,14.1-5.8s10.2-7,10.2-10.2s1.9-8.3,4.5-9.6
	c2.6-1.3,12.8-5.8,12.8-5.8s2.6-5.8,7-10.2c4.5-4.5,19.2-10.9,19.2-10.9s4.5-7.7,6.4-10.2c1.9-2.6,10.2-7.7,10.2-7.7l7-8.9
	c0,0,2.6-1.3,4.5-5.1c1.9-3.8,4.5-3.2,8.3-6.4c3.8-3.2,6.4-8.9,6.4-8.9l10.2-11.5c0,0,138.7,23.6,163.6,28.1
	c24.9,4.5,178.3,27.5,192.4,30c14.1,2.6,25.6,6.4,35.8,8.9c10.2,2.6,32.6,0.6,32.6,3.8c0,3.2,3.2,8.9-3.2,12.8
	c-6.4,3.8-21.1,14.1-21.1,14.1s3.8,6.4,1.9,10.2s-18.5,16.6-18.5,16.6s-0.6,8.9-0.6,11.5s-17.3,13.4-17.3,13.4s5.1,14.1,1.3,16.6
	c-3.8,2.6-19.8,8.3-19.8,11.5s0.6,8.9-1.3,11.5c-1.9,2.6-15.3,8.9-15.3,8.9s6.4,8.3,1.9,12.1c-4.5,3.8-19.8,5.8-19.8,12.1
	s0,10.2-3.2,13.4c-3.2,3.2-16.6,8.3-17.9,12.1s-0.6,11.5-3.8,15.3c-3.2,3.8-22.4,12.8-22.4,19.2c0,6.4,2.6,7.7,0,12.1
	c-2.6,4.5-21.7,10.9-22.4,14.7c-0.6,3.8,5.8,12.8,1.9,16c-3.8,3.2-16.6,8.3-19.2,12.1c-2.6,3.8-10.2,7-10.2,12.1
	c0,5.1,3.2,8.3,0,10.9c-3.2,2.6-24.3,8.9-25.6,14.1c-1.3,5.1-1.9,8.9-2.6,14.7c-0.6,5.8-12.1,6.4-16,10.9
	c-3.8,4.5-13.4,7.7-14.1,15.3c-0.6,7.7,5.1,7.7,0,12.8c-5.1,5.1-30.7,11.5-30,17.3c0.6,5.8,5.8,12.8,0,16.6s-28.1,13.4-28.1,19.8
	c0,6.4,3.8,10.2-2.6,14.1s-29.4,14.7-32,20.4c-2.6,5.8-2.6,6.4-3.2,14.1s-14.7,8.9-19.8,15.3c-5.1,6.4-10.9,14.1-13.4,21.7
	c-2.6,7.7-4.5,11.5-13.4,16.6c-8.9,5.1-21.1,19.2-24.3,22.4c-3.2,3.2-3.2,12.1-3.8,17.3c-0.6,5.1-19.8,24.9-19.8,24.9
	s-24.9-9.6-26.2-17.9c-1.3-8.3-5.8-12.8-13.4-14.7s-65.8-32-65.8-32s-7.7,3.8-15.3,4.5s-24.9-8.9-47.9-13.4
	c-23-4.5-33.9-8.3-53-19.2c-19.2-10.9-19.8-15.3-35.1-14.7c-15.3,0.6-40.9-10.2-40.9-10.2" />
	<path class="st0" d="M562.5,222.8l-4.2-2c0,0,1.5-4.2,0-4.6s-5.1-0.2-5.1,1c0,1.2-0.2,3.2-0.2,3.2l-8.3-1c0,0-7.8-1.2-3.9,1.2
	c3.9,2.4,6.4,0.5,6.6,2.7c0.2,2.2-2.4,4.6,1.5,5.1s8.6,2,8.6,2" />
	<path class="st0" d="M190.9,782.2c0,0-30.8,58.8-31.2,62.4c-0.6,4.4-13.4,2.7-14.3,1.3c-0.9-1.3-1.3-6.2,0.4-13.8s-0.4-29-1.3-30.8" />
	<path class="st0" d="M153.9,797.3c0,1.3,3.6,20.1,4.9,25c1.3,4.9,2.2,18.7,2.2,18.7" />
	<path class="st0" d="M175.3,787.1c0,0-13.8,31.2-15.6,33" />
	<path class="st0" d="M173.8,603.2c0,0,14.2,0,15.4,9.7s-5.8,14.8-11.6,16.1c-5.8,1.3-18-3.2-16.7-9S163.5,605.7,173.8,603.2z" />
	<path class="st0" d="M125.5,602c0,0,6.5,0,7.1,4.4c0.6,4.4-2.7,6.8-5.3,7.4c-2.7,0.6-8.3-1.5-7.7-4.1
	C120.2,607,120.8,603.1,125.5,602z" />
	<path class="st0" d="M125.5,620.2c0,0,6.5,0,7.1,4.4c0.6,4.4-2.7,6.8-5.3,7.4c-2.7,0.6-8.3-1.5-7.7-4.1
	C120.2,625.2,120.8,621.4,125.5,620.2z" />
	<path class="st0" d="M224.1,579.5c0,0,8.9,189.1,10.9,199.1" />
	<path class="st0" d="M557.5,232.8c18.2,0,413,78.2,413,78.2" />
	<line class="st0" x1="537.7" y1="255.6" x2="954.2" y2="337.9" />
	<line class="st0" x1="518" y1="275.4" x2="935.1" y2="364.7" />
	<line class="st0" x1="490.6" y1="295.1" x2="916.8" y2="390.9" />
	<line class="st0" x1="464.8" y1="319.5" x2="900.5" y2="413.5" />
	<line class="st0" x1="442" y1="342.3" x2="882.7" y2="436.5" />
	<line class="st0" x1="416.1" y1="366.6" x2="860" y2="462.3" />
	<line class="st0" x1="379.7" y1="389.4" x2="835.5" y2="493.3" />
	<line class="st0" x1="356.9" y1="415.2" x2="812.8" y2="524.6" />
	<path class="st0" d="M321.9,444.1c19.8,4.6,463.6,117,463.6,117" />
	<path class="st0" d="M288.5,468.4c16.7,1.5,470,120.3,470,120.3" />
	<path class="st0" d="M248.9,491.2c30.4,9.1,479.9,133.5,479.9,133.5" />
	<line class="st0" x1="218.5" y1="521.6" x2="697" y2="658" />
	<path class="st0" d="M174.5,549c7.6,4.6,495.7,145.7,495.7,145.7" />
	<path class="st0" d="M229.2,614.3c7.6,0,404.3,120.1,404.3,120.1" />
	<path class="st0" d="M233.7,661.4c4.6,0,360.2,124.6,360.2,124.6" />
	<path class="st0" d="M551.6,841.4c0,0-28-10.6-81.1-34.8s-109.1-39.6-122.6-42.5c-13.5-2.9-69.5-27-82-29c-12.5-1.9-29-11.6-29-11.6
	" />
	<path class="st0" d="M87.8,677.7c0,0-26.6-2.3-31.4-8.1S36.1,656,36.1,656" />
	<path class="st0" d="M79.8,693.6c0,0,5.3,10.7,10.7,13.6" />
	<path class="st0" d="M67.6,687.9c-0.8,3.3,6.3,31.2,22.3,34.1" />
	<path class="st0" d="M84.4,581.7c0,0,129.3-10.6,140-1.9c10.6,8.7,15.4,186.3,15.4,186.3l-4.8,12.5c0,0-125.5,9.7-135.1,1.9
	C90.2,772.8,84.4,583.7,84.4,581.7z" />
	<path class="st0" d="M103.7,595.2c2.9,0,87.8-5.8,95.6,0c7.7,5.8,4.8,45.4,4.8,45.4s-101.4,7.7-101.4,3.9S103.7,595.2,103.7,595.2z" />
	<path class="st0" d="M92.3,744.1c0,0-21,5.9-30.4,10.4c-9.3,4.4-28.5,9.8-38.4,29.9c-3.9,8,17.2,19.6,37.7,18.7
	c12.2-0.5,66.9-4.1,89.1-19.7" />
	<path class="st0" d="M90.7,729.8c0,0-35.8,8.8-53.1,29.6c-9.8,11.7-16.2,20.2-14,27.9c2.4,8.4,12.1,26.5,37.9,27.6
	c30,1.2,42.2-0.6,54.8-3.5c12.5-2.9,62-25.8,64.9-28.7" />
</svg>
