<?xml version="1.0" encoding="utf-8"?>
<!-- Generator: Adobe Illustrator 23.1.1, SVG Export Plug-In . SVG Version: 6.00 Build 0)  -->
<svg version="1.1" id="mondkapje-voor-svg" xmlns="http://www.w3.org/2000/svg" xmlns:xlink="http://www.w3.org/1999/xlink" x="0px" y="0px" width="1000px"
	 height="1000px" viewBox="0 0 1000 1000" style="enable-background:new 0 0 1000 1000;" xml:space="preserve">
<style type="text/css">
	#mondkapje-voor-svg .st0{fill:none;}
	#mondkapje-voor-svg .st1{fill:none;stroke:currentColor;stroke-linecap:round;stroke-linejoin:round;stroke-miterlimit:10;}
	#mondkapje-voor-svg .st2{fill:none;stroke:currentColor;stroke-linecap:round;stroke-linejoin:round;}
	#mondkapje-voor-svg .st3{fill:none;stroke:currentColor;stroke-linecap:round;stroke-linejoin:round;stroke-dasharray:9.6549,13.5836;}
	#mondkapje-voor-svg .st4{fill:none;stroke:currentColor;stroke-linecap:round;stroke-linejoin:round;stroke-miterlimit:10;stroke-dasharray:9.9508,14;}
	#mondkapje-voor-svg .st5{fill:none;stroke:currentColor;stroke-miterlimit:10;}
</style>
<g id="wit">
</g>
<g id="lijn">
	<g>
		<path class="st0" d="M955.2,246.5c5.3-14.3,9.8-21.1,9.8-21.1l1.5,93.3l-2.6,151.6L915.8,575l-1.9,13.1c0,0,40.6-63.2,42.1-70
			c1.5-6.8,19.6-37.6,18.8-42.1c-0.8-4.5,6-89.5,5.3-94c-0.8-4.5-6.2-170.3-6-166.3c0.2,4.5-10.4-1.6-14.9-0.8
			c-4.5,0.8-21.6,32.9-21.9,41.5c-0.3,8.1-25.4,92.8-33.3,103.4l-35.1,58.8c-0.9-0.3-8.8-4.4-9.7-4.3c-26.4,2-130.9-55.8-170.9-62.2
			c-47-7.6-109.2-64.2-123.2-86c-19.4-30.2-57.1-21.6-74.4,8.6c-12.7,22.2-55.4,42.8-97.9,60.9l-0.2-1.6c0,0-4.5,0.2-10.5,3.9
			c-26.1,10.9-51.4,23.4-68.4,32.3c-46.7,24.4-141.3,34.1-141.3,34.1c-9.3,3.6-3.9,9.1-20.5,20.1c0,0-22.5,97.2-26.2,116
			c-1.8,9.1-2.1,32.8,1.1,51.4c0,0,3.3,3.4,5,12.7c11.2,43.1,36.8,102.1,87.4,169.6c85.3,113.8,294.6,154.4,294.6,154.4
			s61-6.1,186.9-63c119.1-53.8,200-214.6,210.2-266.4c15.6-18.6,4.3-14.7,4.3-14.7c-4.9-39.1-20.4-114.3-35.6-147.3
			c18.5-22.4,44.4-62.2,54.7-118.2 M153.5,426.8c-1.8,3.7-3.5,7.6-5.1,11.8C148.5,438.5,148.1,420.3,153.5,426.8z"/>
		<path class="st0" d="M61.6,219.5l7.3,18.9C66.9,228.8,64.5,221.8,61.6,219.5z"/>
	</g>
	<path class="st0" d="M57.7,210.9l-19.6,9c0,0-3,91-2.3,93.3s3,136.9,3.8,139.2c0.8,2.3,3,24.8,5.3,30.1
		c2.3,5.3,26.3,53.4,29.3,56.4c3,3,45.1,51.9,45.1,51.9l3-5.3c0,0-44.4-61.7-48.1-67c-3.8-5.3-22.6-51.2-22.6-51.2l-1.5-234.7
		l8.3,8.3c0,0,21.8,72.2,24.8,82c3,9.8,12,44.4,12,44.4l26.3,51.9l34.6,38.4l3.8-24.1c0,0-29.3-37.6-30.8-40.6s-28.6-63.9-31.6-67.7
		c-3-3.8-30.8-92.5-30.8-92.5"/>
	<path class="st1" d="M880.1,438.8c18.4,41,33.3,123.1,31.8,152.8c-2,40.6-85.3,217.4-211.3,274.3c-126,56.9-186.9,63-186.9,63
		S304.4,888.3,219,774.5s-99.6-203.2-93.5-233.6c3.8-18.9,9.1-60.5,19.9-93.2"/>
	<path class="st1" d="M155.8,423.1c4.7-8.5,10.2-15,16.5-18.4c0,0,95.5-10.2,142.2-34.5s154.5-57.3,176-95
		c17.2-30.2,55-38.8,74.4-8.6c14.1,21.9,76.5,79.7,123.5,87.3c40,6.5,144.3,63,170.7,61c3.1-0.2,6.2,1.5,9.3,4.7"/>
	<path class="st4" d="M298.4,710.6c8.8,3.8,98.8,75,141.3,91.3s66.3,27.5,80,28.8c13.8,1.3,55-2.5,96.3-23.8
		c41.3-21.3,102.6-67.5,125.1-86.3"/>
	<g>
		<path class="st1" d="M897.9,603c0,0,41.9-64.5,61-121.7c7.1-21.4,8.6-52.8,5.7-252.8"/>
		<path class="st1" d="M859.3,458.7c0,0,58.1-48.3,74.9-139.3c5.6-30.6,27.8-106.7,41.8-93.8c0,0,14.3,230-8.6,275.7
			c-33,66-69.9,110.9-69.9,110.9"/>
		<path class="st4" d="M294.6,466.7c3.8,2.5,92.6,11.3,137.6-5c45-16.3,95.1-36.3,105.1-36.3c10,0,18.8,13.8,90.1,33.8
			c71.3,20,101.4,22.9,132.7,15.4"/>
		<path class="st4" d="M646.8,338.8c0,0,94.3,50.4,108.1,62.9c13.8,12.5,73.1,55.4,81.3,121.3c6.3,50,7.5,67.5-15,141.3
			c-21.3,69.8-41.3,111.3-106.3,166.3c-40.9,34.6-113.8,75-127.6,78.8"/>
	</g>
	<path class="st4" d="M391,338.8c0,0-90.5,50.4-104.3,62.9s-73.1,55.4-81.3,121.3c-6.3,50-7.5,67.5,15,141.3
		c21.3,69.8,41.3,111.3,106.3,166.3c40.9,34.6,113.8,75,127.6,78.8"/>
	<path class="st1" d="M854,435.3c0,0,45.9-44.9,63.9-111.8c6-22.4,29.7-98.7,39.9-108.9c0,0,11.1-0.4,18.2,11"/>
	<path class="st1" d="M136,601.7c0,0-59.8-66.1-78.9-123.3c-7.1-21.4-8.6-52.8-5.7-252.8"/>
	<path class="st1" d="M156.7,455.9c0,0-58.1-48.3-74.9-139.3C76.2,286,54,209.9,40,222.7c0,0-11.5,218,8.5,265
		c35,81.8,88.5,116.4,88.5,116.4"/>
	<path class="st1" d="M162,432.4c0,0-45.9-44.9-63.9-111.8c-6-22.4-29.7-98.7-39.9-108.9c0,0-11.1-0.4-18.2,11"/>
	<path class="st1" d="M843.3,433.3c0,0,14-5.1,14.9,15.9c0.5,10.6,0.5,14.5-4.4,20.4c-6.9,8.4-18,4.8-19.3-10.6
		C833.3,445.6,833.9,439.8,843.3,433.3z"/>
	<path class="st1" d="M884.7,593.5c0,0,14.4-2.9,12.1,17.7c-1.1,10.3-1.7,14.2-7.3,19.2c-7.9,7.1-18.2,1.9-17.2-13.2
		C873.2,604,874.6,598.4,884.7,593.5z"/>
	<path class="st1" d="M170.7,431.8c0,0-14-5.1-14.9,15.9c-0.5,10.6-0.5,14.5,4.4,20.4c6.9,8.4,18,4.8,19.3-10.6
		C180.7,444.1,180.1,438.3,170.7,431.8z"/>
	<path class="st1" d="M146.5,593.9c0,0-11-2.2-9.3,13.6c0.9,7.9,1.3,10.9,5.6,14.7c6.1,5.4,14,1.5,13.2-10.1
		C155.4,602,154.3,597.7,146.5,593.9z"/>
</g>
</svg>
