<?xml version="1.0" encoding="utf-8"?>
<!-- Generator: Adobe Illustrator 23.1.1, SVG Export Plug-In . SVG Version: 6.00 Build 0)  -->
<svg version="1.1" id="mondkapje-voor-hoofd-svg" xmlns="http://www.w3.org/2000/svg" xmlns:xlink="http://www.w3.org/1999/xlink" x="0px" y="0px" width="1000px"
	 height="1000px" viewBox="0 0 1000 1000" style="enable-background:new 0 0 1000 1000;" xml:space="preserve">
<style type="text/css">
	#mondkapje-voor-hoofd-svg .st0{fill:none;}
	#mondkapje-voor-hoofd-svg .st1{fill:none;stroke:currentColor;stroke-linecap:round;stroke-linejoin:round;stroke-miterlimit:10;}
	#mondkapje-voor-hoofd-svg .st2{fill:none;stroke:currentColor;stroke-linecap:round;stroke-linejoin:round;}
	#mondkapje-voor-hoofd-svg .st3{fill:none;stroke:currentColor;stroke-linecap:round;stroke-linejoin:round;stroke-dasharray:9.6549,13.5836;}
	#mondkapje-voor-hoofd-svg .st4{fill:none;stroke:currentColor;stroke-linecap:round;stroke-linejoin:round;stroke-miterlimit:10;stroke-dasharray:9.9508,14;}
	#mondkapje-voor-hoofd-svg .st5{fill:none;stroke:currentColor;stroke-miterlimit:10;}
</style>
<g id="wit">
	<path class="st0" d="M261.6,939.2l-0.2-95.3c0,0-17.4-40-22.8-71.1c-5.3-30.6-16.4-102-16.4-102s-3.5,0-13.1-8.3
		c-9.7-8.3-9-17.3-11-33.8s-36.3-61.9-40.4-77.1s-4.7-10.7-3-28.1c1.8-18.8,12.2-23.9,30.1-30.1s27.8,0,27.8,0s4.2-21.1,1.9-27.7
		C198,418,172.6,205,266.4,131.3s172.8-92.4,300.1-69.7c132.5,23.7,217,160.8,207.6,290.7s-13.7,141-13.7,141s20.7-7.3,38.6-1.1
		s23.5,12.1,27.3,30.6c2.1,10.3-0.8,19.6-6.5,31.3c-6.9,14.2-42.8,58-44.9,74.6c-1.9,15.5-1.5,24.4-9.3,32.3L750.9,671l-15.1,80.1
		l-9.4,62.2l-16.1,49l-3.3,92.1L261.6,939.2z"/>
</g>
<g id="lijn">
	<path class="st5" d="M765.5,660.9c7.9-7.9,7.4-16.7,9.3-32.3c2.1-16.6,38-60.4,44.9-74.6c5.7-11.7,8.6-21,6.5-31.3
		c-3.8-18.5-9.3-24.4-27.3-30.6s-38.6,1.1-38.6,1.1s4.3-11,13.7-141S699,85.4,566.4,61.7c-127.3-22.8-206.3-4-300.1,69.7
		S198,418,214.4,465.6c2.3,6.6-1.9,27.7-1.9,27.7s-9.9-6.2-27.8,0s-28.3,11.4-30.1,30.1c-1.7,17.4-1.1,12.9,3,28.1
		s38.4,60.5,40.4,77.1s1.4,25.5,11,33.8c9.7,8.3,13.1,8.3,13.1,8.3s11.1,71.4,16.4,102c5.4,31.1,21.4,69.3,21.4,69.3l-0.2,97.5"/>
	<path class="st5" d="M706.3,957.1l4-94.9c0,0,17.2-57,22.6-90.8c4.9-30.6,17.8-100.7,17.8-100.7"/>
	<g>
		<path class="st0" d="M754.3,499.2l6-13.9C758.6,487,756.5,492.2,754.3,499.2z"/>
		<path class="st0" d="M757.3,501.7l4.6-11.8C760.1,491.4,758.6,495.7,757.3,501.7z"/>
		<path class="st0" d="M754.7,669.3c0,2.4-1.5,9.8-4.7,25.1l-11.8,27.1c-4.7-25.5-13-72.9-22.5-93.5c11.5-13.9,27.6-38.6,34-73.5
			c2.5-13.6,4.4-38.1,7.6-52.9l1.7-10.9c2.6-11-18.8,63.4-28.2,89.4l-21.8,36.5c-0.6-0.2-5.5-2.7-6-2.7
			c-16.4,1.3-81.2-33.9-106.1-37.9c-29.2-4.7-68-40.7-76.7-54.3c-12.1-18.8-35.5-13.4-46.2,5.4c-7.9,13.8-34.4,26.6-60.8,37.9
			l-0.1-1c0,0-2.3,1.4-6.1,3.7c-16.2,6.8-31.8,13-42.3,18.5c-29,15.2-88.4,21.5-88.4,21.5c-3.8,2-2.4,5.7-12.7,12.5l-26.2-39.2
			c-5-10-20.4-87.4-25.5-91.5c-3.5-2.8,2.5,26.1,2.5,30.5c0,19.9,6.7,33.4,8.7,44.2c7.6,41.4,25.5,59,36.4,70.6
			c-6.6,20.3-9.9,45.8-12.2,57.5c-1.1,5.6-1.3,20.4,0.7,31.9l-12.9-13.6c-11.2-13.3-14.7-36-14.7-38.2c0-2.4-6.3-5.1-6.3-5.1
			c1.2,36.1,26.4,57.3,37.1,64.8c6.9,26.8,22.9,63.4,54.3,105.4c53,70.7,183.1,96,183.1,96s37.9-3.8,116.2-39.2
			c74-33.4,124.3-133.4,130.7-165.6c9.7-11.6,23.4-33,24.4-62.4L754.7,669.3z M264.5,621.8c-1.1,2.3-2.2,4.7-3.2,7.3
			C261.4,629.2,261.1,617.8,264.5,621.8z"/>
		<path class="st0" d="M214.9,499.2c-2.2-6.9-4.3-12.2-6-13.9L214.9,499.2z"/>
		<path class="st0" d="M207.3,489.9l4.6,11.8C210.6,495.7,209.2,491.4,207.3,489.9z"/>
	</g>
	<path class="st1" d="M249.3,725.4c-3.3-15-3.5-26.4-2.2-33.2c2.3-11.7,5.7-37.6,12.4-57.9"/>
	<path class="st1" d="M735.2,728.9c-6.5,32.3-56.8,132.1-130.7,165.5c-78.3,35.4-116.2,39.2-116.2,39.2s-130.1-25.3-183.1-96
		c-31.8-42.4-47.7-79.3-54.5-106.2"/>
	<path class="st1" d="M716.1,628.8c10.9,24.3,19.8,71.8,19.8,92.2"/>
	<path class="st1" d="M265.9,619.1c2.9-5.3,6.3-9.3,10.3-11.4c0,0,59.4-6.3,88.4-21.5c29-15.2,96-35.6,109.4-59
		c10.7-18.8,34.2-24.1,46.2-5.4c8.7,13.6,47.6,49.6,76.7,54.3c24.8,4,89.7,39.2,106.1,37.9c1.9-0.1,3.9,0.9,5.8,2.9"/>
	<path class="st4" d="M354.5,797.8c5.4,2.3,61.4,46.6,87.8,56.8c26.4,10.1,41.2,17.1,49.8,17.9c8.6,0.8,34.2-1.6,59.9-14.8
		c25.7-13.2,63.7-42,77.7-53.6"/>
	<g>
		<path class="st1" d="M727.2,730.9c0.4,0.2,23.7-20,27.7-61.5"/>
		<path class="st1" d="M727,736.6c0,0,31-24.3,32.6-70.2"/>
		<path class="st4" d="M352.2,646.2c2.3,1.6,57.5,7,85.5-3.1c28-10.1,59.1-22.5,65.3-22.5s11.7,8.6,56,21
			c44.3,12.4,63,14.2,82.5,9.6"/>
		<path class="st4" d="M571.1,566.7c0,0,58.6,31.3,67.2,39.1s45.4,34.5,50.5,75.4c3.9,31.1,4.7,42-9.3,87.8
			c-13.2,43.4-25.7,69.2-66.1,103.4c-25.4,21.5-70.7,46.6-79.3,49"/>
	</g>
	<g>
		<path class="st1" d="M254,729.3c0,0-29.8-17.8-34.5-59"/>
		<path class="st1" d="M253.7,732.5c0,0-38.3-19.4-39.9-65.3"/>
	</g>
	<path class="st4" d="M413.1,564c0,0-57.2,34-65.7,41.8s-45.4,34.5-50.5,75.4c-3.9,31.1-4.7,42,9.3,87.8
		c13.2,43.4,25.7,69.2,66.1,103.4c25.4,21.5,70.7,46.6,79.3,49"/>
	<path class="st1" d="M699.9,626.6c0,0,28.5-27.9,39.7-69.5c3.7-13.9,18.5-61.4,24.8-67.7"/>
	<path class="st1" d="M703.2,641.2c0,0,36.1-30,46.6-86.6c3.5-19,9.8-73.5,18.5-65.5"/>
	<g>
		<path class="st1" d="M269.5,624c0,0-27-26.9-38.2-68.5c-3.7-13.9-18.5-61.4-24.8-67.7"/>
		<path class="st1" d="M265.4,637.4c0,0-33.8-27.9-44.2-84.5c-3.5-19-9.8-73.5-18.5-65.5"/>
	</g>
	<path class="st1" d="M693.2,625.4c0,0,8.7-3.2,9.3,9.9c0.3,6.6,0.3,9-2.7,12.7c-4.3,5.2-11.2,3-12-6.6
		C687.1,633.1,687.4,629.4,693.2,625.4z"/>
	<path class="st1" d="M719,725c0,0,8.9-1.8,7.5,11c-0.7,6.4-1.1,8.8-4.5,11.9c-4.9,4.4-11.3,1.2-10.7-8.2
		C711.8,731.5,712.7,728,719,725z"/>
	<path class="st1" d="M275.2,624.5c0,0-8.7-3.2-9.3,9.9c-0.3,6.6-0.3,9,2.7,12.7c4.3,5.2,11.2,3,12-6.6
		C281.4,632.1,281,628.5,275.2,624.5z"/>
	<path class="st1" d="M260.2,725.3c0,0-6.9-1.4-5.8,8.5c0.5,4.9,0.8,6.8,3.5,9.2c3.8,3.4,8.7,0.9,8.2-6.3
		C265.7,730.3,265,727.6,260.2,725.3z"/>
	<path class="st5" d="M750.7,670.8c0,0-0.6,0.3-0.1,0.2c1.4-0.4,6-2.3,13.2-8.5c0.6-0.5,1.2-1,1.7-1.6"/>
	<path class="st5" d="M222.1,670.7c0,0,0,0.1-0.5,0c-1.4-0.4-5.4-2-12.6-8.2c-0.6-0.5-1.2-1-1.7-1.6"/>
</g>
</svg>
