<?xml version="1.0" encoding="utf-8"?>
<!-- Generator: Adobe Illustrator 23.1.1, SVG Export Plug-In . SVG Version: 6.00 Build 0)  -->
<svg version="1.1" id="mondkapje-zij-svg" xmlns="http://www.w3.org/2000/svg" xmlns:xlink="http://www.w3.org/1999/xlink" x="0px" y="0px" width="1000px"
	 height="1000px" viewBox="0 0 1000 1000" style="enable-background:new 0 0 1000 1000;" xml:space="preserve">
<style type="text/css">
	#mondkapje-zij-svg .st0{fill:none;}
	#mondkapje-zij-svg .st1{fill:none;stroke:currentColor;stroke-linecap:round;stroke-linejoin:round;stroke-miterlimit:10;}
	#mondkapje-zij-svg .st2{fill:none;stroke:currentColor;stroke-linecap:round;stroke-linejoin:round;}
	#mondkapje-zij-svg .st3{fill:none;stroke:currentColor;stroke-linecap:round;stroke-linejoin:round;stroke-dasharray:9.6549,13.5836;}
	#mondkapje-zij-svg .st4{fill:none;stroke:currentColor;stroke-linecap:round;stroke-linejoin:round;stroke-miterlimit:10;stroke-dasharray:9.9508,14;}
	#mondkapje-zij-svg .st5{fill:none;stroke:currentColor;stroke-miterlimit:10;}
</style>
<g id="wit">
	<g>
		<path class="st0" d="M961.1,263.9c-23.3-40.8-79.5-65.4-122.7-53.1c-34.2,9.8-90.2,52.4-116.9,69.8
			c-18.8,12.3-149.1,94.1-215.6,135.8l-0.3-0.8c-14.2,1.1-37.2,2.6-59.4,2.6c-35.8,0-35.8-7.5-73.5-15.1
			c-37.7-7.5-71.6-37.7-124.4-69.8s-124.4-62.2-124.4-62.2C65.5,389.9-23.1,569,76.8,729.2s242.8,154.5,265.4,156
			c5.3,0.4,13.6-1.4,13.6-1.4c123.3-55.5,215.1-151.3,244.5-184.4c125.9-62.5,219.6-157.2,270.2-204
			c36.2-33.4,94.8-91.9,104.2-143.8C983.8,301.7,979.3,295.6,961.1,263.9z M944.8,353.1c-9.6,34.4-31.6,59.8-49.5,77.6
			S733.2,579.2,729.7,583.3c-3.4,4.1-101,68-105.1,70.8s-22,11-22,11l-74.2-224l240.5-161.5c8.2-6.2,67.3-51.5,103.8-44
			c36.4,7.6,62.5,50.8,66.7,57.7C943.4,300.2,954.4,318.7,944.8,353.1z"/>
	</g>
</g>
<g id="lijn">
	<path class="st1" d="M601,698.6c-28.6,32.3-120.9,129.3-245.2,185.2c0,0-8.4,1.7-13.6,1.4c-22.6-1.5-165.5,4.3-265.4-156
		s-11.3-339.4,47.1-458.1c0,0,71.6,30.2,124.4,62.2s86.7,62.2,124.4,69.8s37.7,15.1,73.5,15.1c22.2,0,45.2-1.5,59.4-2.6"/>
	<line class="st1" x1="528.7" y1="441.3" x2="602.7" y2="664.8"/>
	<path class="st1" d="M484,469.1c1.3,1,260.5-172.5,274.4-182.5c17.9-12.8,93.8-77.8,142.2-38.1c57.1,46.9,52.8,86.7,35.8,128.2
		c-17,41.5-167.1,168.4-182.9,184.8c-49,50.9-159.9,107.8-179.7,119.9"/>
	<path class="st1" d="M467,440.8c0,0,229-143.7,254.5-160.3c26.7-17.4,82.7-60,116.9-69.8c43.2-12.3,99.3,12.3,122.7,53.1
		c18.1,31.8,22.7,37.8,13.6,87.7c-9.4,51.9-68.1,110.4-104.2,143.8c-52.7,48.7-152.1,149.4-286,211.6"/>
	<g>
		<g>
			<path class="st2" d="M69.2,425.7c0,0,1.5,0.8,4.5,2.2"/>
			<path class="st3" d="M86.1,433.5c34.7,14.9,119.6,45.2,220.3,38.4"/>
			<path class="st2" d="M313.1,471.4c1.6-0.1,3.3-0.3,5-0.4"/>
		</g>
	</g>
	<path class="st4" d="M361.5,699.1c0,0-128.2,81.1-239.4,86.7"/>
	<path class="st4" d="M254,865c0,0,156.5-58.4,188.5-216.8s-126.3-267.7-141.4-279"/>
	<path class="st1" d="M449.5,441.5c0,0,16.4-6.3,26.5,6.3c10.1,12.6,7.6,25.2-1.3,31.5s-32.8,7.6-36.6-5
		C434.4,461.6,433.1,449,449.5,441.5z"/>
	<path class="st1" d="M554.2,678.6c0,0,17.7-2.5,24,11.4c6.3,13.9,3.8,25.2-6.3,30.3s-33.8,8.2-37.8-3.8
		C529,701.3,525.2,686.1,554.2,678.6z"/>
</g>
</svg>
