<?xml version="1.0" encoding="utf-8" ?>
<!--
	https://github.com/Duxxie/duxxie-images
	This work is licenced by https://creativecommons.org/licenses/by-sa/4.0/
-->
<svg version="1.1" id="ondersteek-svg" xmlns="http://www.w3.org/2000/svg" xmlns:xlink="http://www.w3.org/1999/xlink" x="0px" y="0px" width="1000px" height="1000px" viewBox="0 0 1000 1000" style="enable-background:new 0 0 1000 1000;" xml:space="preserve">
	<style type="text/css">
	#ondersteek-svg .st0{fill:none;stroke:currentColor;stroke-linecap:round;stroke-linejoin:round;stroke-miterlimit:10;}
</style>
	<path class="st0" d="M798.7,375.4c11.5,5,150.9,34.5,187.9,110.8c29.4,61.3-19.3,139.9-124.1,179.3c-25.4,9.5-99.1,28.9-132.1,33.4
	c-147.6,18.5-266.9-3.8-348.2-31.8c-11.9-5.5-49.2-20.6-57.2-27.1c-61.3-42.8-98-80.1-74.3-155.2" />
	<path class="st0" d="M868.8,667.1c5.6,18.2-24.4,57.5-37.9,72.9c-13.5,15.4-56.1,62.7-168.4,64.6c-112.2,2-167.5-12.5-215.9-35.9
	c-48.4-23.4-67.9-64.8-74.7-77.2c-7-12.5-10.9-32.9-10.9-32.9" />
	<path class="st0" d="M802.6,458.9c2.9,1,94.9,44.7,67,109.5S728.4,660,590.3,654c-138.7-6-209.9-46.4-230.3-109.6" />
	<path class="st0" d="M344.6,651.1c0,0-89.3-24.1-97.9-24.1c-8.4,0-33.4,2.9-49.8,4.9S45,651.5,29.6,646.6s-24-22-24.5-35.9
	c-0.4-11.1,6.2-33.9,23.7-35.9c17.4-2,225.6-2.4,225.6-2.4" />
	<path class="st0" d="M305.2,284.3c18.5-9,184.6-81.2,391.1,7c0,0,171.6,72.5,91.4,193.6c-0.8,1.1-23.8,39.4-144,75.7
	c0,0-79.2,21-201.2,1.4c-24.5-3.9-111.3-13.5-181.7-71.6c-78.2-64.8-47.9-124.8-37.6-141.9C233.3,332,260,306.2,305.2,284.3z" />
	<path class="st0" d="M489.8,390.4c-1.4,7.7-0.8,24.5,0.7,34.5c-1.4,3.4-11.4-1.7-18.9-4.6c-6.4-1-6-32.4-1.5-41.9
	c4.5-9.5,12.3-9.3,16.4-8.3c1.5,0.6,58.9,14.3,60.4,15.3c10.8,5.7,5,33.5,3.5,45.8c-1.5,11.4-2.5,12.5-2.5,12.5s-2.9,2.5-16.4-5.5
	c-2.5-1.5,1.5-26.9,1-34.3L489.8,390.4z" />
	<path class="st0" d="M296.6,346.4c2-2.5,73.7-79.2,225.9-58.3c152.1,21.5,226.7,65.9,227.4,137.5c0.7,78.8-156.2,154.6-338.2,107.4
	C249.1,475.7,243.4,412.3,296.6,346.4z" />
	<path class="st0" d="M434.3,360.9c8.3-2.7,35-22.7,110.6-6.4c30.7,6.6,92.4,28.5,77.2,80.8c-25.4,62.2-157,38.8-175.5,32
	C403.3,452.7,356.6,398,434.3,360.9z" />
</svg>
