<?xml version="1.0" encoding="utf-8" ?>
<!--
	https://github.com/Duxxie/duxxie-images
	This work is licenced by https://creativecommons.org/licenses/by-sa/4.0/
-->
<svg version="1.1" id="opvulmatras-svg" xmlns="http://www.w3.org/2000/svg" xmlns:xlink="http://www.w3.org/1999/xlink" x="0px" y="0px" width="1000px" height="1000px" viewBox="0 0 1000 1000" style="enable-background:new 0 0 1000 1000;" xml:space="preserve">
	<style type="text/css">
	#opvulmatras-svg .st0{fill:none;stroke:currentColor;stroke-miterlimit:10;}
</style>
	<g>
		<path class="st0" d="M962.7,417.5c0,0,9.4,3.1,9.4,11.9s-5.6,18.2-8.2,20.1" />
		<path class="st0" d="M75.5,213.4c10,0,893.5,36.8,893.5,36.8s-3.1,143.5-1.7,162.3c0.4,5-227.6,169-271.1,202.5
		c-43.5,33.5-222.5,194.1-222.5,194.1" />
		<path class="st0" d="M544,809.1c0,0,254.3-234.3,284.5-252.7s125.3-102.9,133.7-106.3c8.4-3.3,3.6,73.4,1.9,83.5
		c-1.7,10-3.1,8.8-10,17.6c-5.6,7.1-215.8,257.9-215.8,257.9" />
		<line class="st0" x1="75.5" y1="650.1" x2="969" y2="250.2" />
	</g>
</svg>
