<?xml version="1.0" encoding="utf-8" ?>
<!--
	https://github.com/Duxxie/duxxie-images
	This work is licenced by https://creativecommons.org/licenses/by-sa/4.0/
-->
<svg version="1.1" id="overzet-toiletstoel-svg" xmlns="http://www.w3.org/2000/svg" xmlns:xlink="http://www.w3.org/1999/xlink" x="0px" y="0px" width="1000px" height="1000px" viewBox="0 0 1000 1000" style="enable-background:new 0 0 1000 1000;" xml:space="preserve">
	<style type="text/css">
	#overzet-toiletstoel-svg .st0{fill:none;stroke:currentColor;stroke-linecap:round;stroke-linejoin:round;stroke-miterlimit:10;}
</style>
	<path class="st0" d="M312,387.1c0,0-39.1-12.3-48.3-22.8c-9.2-10.5-25-32.9,0-53.9c0,0,11.8-26.3,26.3-34.2
	c14.5-7.9,78.8-39.4,78.8-39.4l394.2,7.9c0,0-5.9,42-14.5,47.3c-8.4,5.2-7.9,25-7.9,25s-33,37.4-61.8,46c-3.5,1-3.5,7.1-4.8,26.5" />
	<path class="st0" d="M671.4,421.3c-2.6,24.6-7.2,59.1-16.1,107.3c-1,5.2-93.3,52.6-139.3,53.9c-46,1.3-135.3-15.8-155.1-38.1
	l-40.1-128.7" />
	<path class="st0" d="M263.8,310c0,0-14.5,75.4,191.8,60.9s269-52.7,288.8-73.8" />
	<path class="st0" d="M312.6,387.6c11.8,7.9,152.3,14.2,250.7,4.4c51.3-5.1,108.9-28.3,114.2-28.3" />
	<path class="st0" d="M122.4,118.3c0,0-14.1-36.4-34.6-2.4" />
	<path class="st0" d="M784.4,118.9c0,0,14.8-31.4,34.3-1.8" />
	<ellipse transform="matrix(0.9968 -7.966314e-02 7.966314e-02 0.9968 -46.0811 19.3473)" class="st0" cx="219.4" cy="587.2" rx="4.3" ry="4.3" />
	<ellipse transform="matrix(0.9968 -7.966314e-02 7.966314e-02 0.9968 -43.4864 19.2368)" class="st0" cx="219.3" cy="554.6" rx="4.3" ry="4.3" />
	<ellipse transform="matrix(0.9968 -7.966314e-02 7.966314e-02 0.9968 -50.7807 19.574)" class="st0" cx="219.9" cy="646.2" rx="4.3" ry="4.3" />
	<ellipse transform="matrix(0.9968 -7.966314e-02 7.966314e-02 0.9968 -48.1861 19.4635)" class="st0" cx="219.8" cy="613.6" rx="4.3" ry="4.3" />
	<ellipse transform="matrix(0.9968 -7.966314e-02 7.966314e-02 0.9968 -40.9946 19.1482)" class="st0" cx="219.5" cy="523.4" rx="4.3" ry="4.3" />
	<ellipse transform="matrix(0.9968 -7.966314e-02 7.966314e-02 0.9968 -38.1625 19.0188)" class="st0" cx="219.3" cy="487.8" rx="4.3" ry="4.3" />
	<ellipse transform="matrix(0.9782 -0.2079 0.2079 0.9782 -104.3837 209.0197)" class="st0" cx="942.3" cy="601.2" rx="4.3" ry="4.3" />
	<ellipse transform="matrix(0.9782 -0.2079 0.2079 0.9782 -97.7654 207.4208)" class="st0" cx="938" cy="568.9" rx="4.3" ry="4.3" />
	<ellipse transform="matrix(0.9782 -0.2079 0.2079 0.9782 -116.3578 211.9841)" class="st0" cx="950.4" cy="659.6" rx="4.3" ry="4.3" />
	<ellipse transform="matrix(0.9782 -0.2079 0.2079 0.9782 -109.7395 210.3851)" class="st0" cx="946.1" cy="627.3" rx="4.3" ry="4.3" />
	<ellipse transform="matrix(0.9782 -0.2079 0.2079 0.9782 -91.4004 205.9304)" class="st0" cx="934.1" cy="537.8" rx="4.3" ry="4.3" />
	<ellipse transform="matrix(0.9782 -0.2079 0.2079 0.9782 -84.181 204.1624)" class="st0" cx="929.3" cy="502.6" rx="4.3" ry="4.3" />
	<line class="st0" x1="851.7" y1="96.4" x2="882.9" y2="294.2" />
	<path class="st0" d="M228.1,71.4c0,0,6.9,15.5,6.8,64.3" />
	<path class="st0" d="M826,317c15.8,1,29,2.3,34.4,4c17.1,5.3,27.6,27.6,27.6,27.6l61.8,361.4l-10.5,9.2l2.6,38.1
	c33.7,21.3,53.2-7.1,53.2-7.1l-6.3-33.4l-10.1-8.1L875.3,71.8c0,0,3.4-7.1,3.4-17.6s-25-25-25-25s-488.8-11.8-550.6-9.2
	s-73.9,50.7-73.9,50.7s-3.6-16.6-11.5-25.8c-7.9-9.2-25-15.8-31.5-11.8c-6.6,3.9-95.6,47.7-95.6,47.7s-12.4,13-12.1,27.2
	c0.1,4.5,0,5.3,0,5.3L89,116c0,0-22.3,22.3-23.7,64.4S18.1,878.2,18.1,878.2l-5.3,8.1L5.3,930c-5,4.6,47.7,24.1,58.7-1.5
	c0.3-0.7-6-44.7-2.9-41.7l-8.9-11.9L95,196.3c0,0,8.4-76.4,27.6-77.7c7-0.5,78.4-36.9,78.4-36.9l7.1,221.3" />
	<path class="st0" d="M744.1,313.9c0,0,22.1,0.4,47.3,1.4" />
	<path class="st0" d="M594.1,386.5c1.4,0,2.9,0.1,4.3,0.1c90.5,2.3,158.1,4,158.1,4s38.1,6.6,43.4,15.8" />
	<path class="st0" d="M82.3,404.4c0,0,19.8-27.5,56.6-28.3c9.3-0.2,71.1,1.1,152.3,3" />
	<path class="st0" d="M474.9,418.2c72,1.3,140.9,2.6,191.3,3.6c48.6,1,79.9,1.7,79.9,1.7s54.5,7.8,59.8,41.9" />
	<path class="st0" d="M75.8,498.3c1.3-14.3,18.8-77.8,45.1-83.1c9.6-1.9,94.4-1,200.6,0.4c48.9,0.7,101.9,1.5,153.4,2.4" />
	<path class="st0" d="M287.2,277.4c0,0-87.8,1.5-86.5,46.2s2.3,53.3,2.3,53.3" />
	<path class="st0" d="M233.5,376.2l-1.3-42c0,0,6.1-30,31.5-27.6" />
	<path class="st0" d="M821.6,278.2c10.1,0.6,20,1.6,28.2,3.4c30.2,6.6,63.1,31.5,65.7,42" />
	<path class="st0" d="M765.4,278.5" />
	<path class="st0" d="M235.9,283.2l-1.1-147.5c0,0,13.1-76.2,52.6-80.2s521.7-3.9,521.7-3.9l-34,32.7c0,0-4.6,5.1-5.9,16.1
	c-0.7,6.6,0,19.8,6.6,24.1c3.9,2.6,8.8-5.1,8.8-5.1s-5.7,16.3-5.7,42.6c0,6.2,3.9,51.2,9.9,116.6c19.5,213.6,61.1,644.2,61.1,644.2
	l-7.6,7.6l-0.3,54.8c0,0,32,12.8,59.2-3.3c2.7-1.6-9.2-52.6-9.2-52.6l-7.9-9.2l-71-730.6c0,0-1.3-69.6,6.6-72.3l8.9,0.6L873.8,74" />
	<path class="st0" d="M939.7,719.2c0,0,22.2,16.3,48.3-0.3" />
	<path class="st0" d="M762.9,245.1c-1.1,0.7,1.6,32.6,1.6,32.6s-2.5,10-8.9,19.2c-5.2,7.4-14.5,19.6-14.5,19.6" />
	<line class="st0" x1="764.5" y1="277.6" x2="788.7" y2="278.6" />
	<path class="st0" d="M204.6,414.3l3.9,265.4l-7.9,9.2v32.9c0,0,19.7,23.7,48.6,2.6v-36.8l-11-9.6l-1.7-263.1" />
	<path class="st0" d="M201.6,688.7c0,0,22.2,16.3,48.3-0.3" />
	<path class="st0" d="M14.5,886.8C15,887.1,38,906,59.8,887" />
	<path class="st0" d="M841.7,929.8c0,0,22.2,16.3,48.3-0.3" />
	<line class="st0" x1="200.9" y1="81.8" x2="229.2" y2="70.6" />
	<path class="st0" d="M807.3,52.3c0,0,29.9-22.4,42.9-22.4" />
</svg>
