<?xml version="1.0" encoding="utf-8" ?>
<!--
	https://github.com/Duxxie/duxxie-images
	This work is licenced by https://creativecommons.org/licenses/by-sa/4.0/
-->
<svg version="1.1" id="rolstoel-kleuter-svg" xmlns="http://www.w3.org/2000/svg" xmlns:xlink="http://www.w3.org/1999/xlink" x="0px" y="0px" viewBox="0 0 1000 1000" style="enable-background:new 0 0 1000 1000;" xml:space="preserve">
	<style type="text/css">
	#rolstoel-kleuter-svg .st0{fill:none;stroke:currentColor;stroke-linecap:round;stroke-linejoin:round;stroke-miterlimit:10;}
</style>
	<g id="Laag_9_kopie">
		<path class="st0" d="M629.3,546.3l-84,31.6c0,0-0.8-74.8-0.8-82.6s2.3-10.1,8.6-20.3c6.2-10.1,44.6-46.5,50.9-51.9" />
		<path class="st0" d="M881.3,545.7c0.8-86.4-38.7-118.5-65.4-127.5c-37.9-12.9-65.2,0.5-65.2,0.5s-84.3,28.6-126.8,142
		c-33.8,90-28.1,163.5,10.1,204.1c38.2,40.5,109.2,30.7,157-14.7" />
		<path class="st0" d="M846.9,466.3c-1.9-4.8-23.7-30-43.8-32.8c-23.4-3.3-63.1,0.3-94.3,31.5c-31.2,31.1-79.5,107.5-81,167.4
		c-1.5,60,7.8,98.1,19.5,113.7c11.7,15.6,32.5,38.8,77.7,29.2" />
		<path class="st0" d="M850.2,491.5c3.8,4.3,11.3,39.6,9.6,69.9c-1.4,26.3-2.5,40.9-17.9,74.8c-15.6,34.5-26.1,59.4-47.5,87.4
		c-13.2,17.3-26.9,28.8-52.3,41.2" />
		<path class="st0" d="M508.1,306.5l-1.5-10.3l-13.2-4c0,0-97.7,11.7-103.9,14.3c-6.2,2.5-22.8,14-26.8,19.9c-4,5.9-9.8,11-5.4,16.2
		c4.4,5.2,9.2,4.9,13.3,5c5.9,0.2,14.5-10.7,18.2-14c3.6-3.3,8.9-6.8,13-5.9c2.5,0.5,2,5.6,1.7,7.6" />
		<path class="st0" d="M525.6,306.4c0,0-10.2-1-13.8-0.6c-3.6,0.4-5.7-0.5-5.7,3c0,2.9,0.5,6.9,2.9,6.8c2.5-0.2,16.8-1.8,16.8-1.8" />
		<polyline class="st0" points="536.9,425.1 554.7,424.5 570,433.2 	" />
		<path class="st0" d="M605.4,422.5c0,0-2.7,6.7-7.4,20c-4.7,13.3-6.6,16.7-8.6,28c-2,11.3,0.7,16-11.3,20c-12,4-33.5,4.8-33.5,4.8" />
		<path class="st0" d="M742.2,379.4l0.3,13.8c0,0-4.7-1.4-5.4,3.3s-0.4,8.8,2.3,14.3c3.9,8.1,4.5,10.9,4.5,10.9" />
		<path class="st0" d="M398.8,514.1c0,0-0.6,13.6-1.2,20.4s0.6,10.6,0.6,12.4c0,0,2,38.6,7.4,47.6" />
		<path class="st0" d="M374.6,502.4c0,0-4.9,29.1,0,54.5c0,0,7,40.1,11.2,45.5" />
		<path class="st0" d="M373.3,548.8c0,0-7.4,0-13-3.1c-5.6-3.1-5.6-4.9-6.8-11.2c-1.2-6.2-1.9-7.4-0.6-15.5c1.2-8.1,4.3-9.9,4.3-9.9
		l-49.6,10.6l0.6,34.1" />
		<path class="st0" d="M321.3,483.1l1.9,18.6l-17.3,3.1l0.6-7.4c0,0,0,0-4.9-3.1s-9.9,1.2-9.9,1.2l0.6,25.4c0,0-8,0.6-13.6,3.1
		c-5.6,2.5-14.9,5.6-14.9,5.6s-8.1,5.5-13.9,14.6c-5.9,9.2-20.7,58.4-20.7,58.4" />
		<polyline class="st0" points="346.7,492.5 347.3,499.9 360.3,496.8 	" />
		<path class="st0" d="M585.7,416.7c0,0-28.8,32.7-39.7,39.7c-10.9,7-14,28.1-14.8,31.9c-0.8,3.9-3.1,60-3.1,63.8l0.1,17.7l-1.2,8
		l-36.7,12.5" />
		<path class="st0" d="M407,706.2c-0.5,3.4,15-52.1,16.6-54.7c1.7-2.5,7.7-22.2,25.9-29c0,0,0,0,3.1-1.9c3.1-1.9,19.2-6.8,19.2-6.8
		v-9.3l-0.6-20c0,0-0.8-2.3,5.1-3.1c5.9-0.8,12.1-1.2,12.9,2.7c0.8,3.9-0.6,26-0.6,26" />
		<path class="st0" d="M603.3,701.1c-4.7,2-14.2,5.2-14.2,5.2L516,738.9l1.7,17.5c0,0,2.5,4.2-1.7,9.9c-4.2,5.8-14.1,10.8-20,5.9
		c-5.9-5-6.6-13.3-6.6-13.3h-7.5l-3.3-63.2c0,0-5,0-9.9-1.7c-4.9-1.7-43.3,18.3-43.3,18.3l-0.8,3.9" />
		<path class="st0" d="M250.6,585.9c0,0,8.3-27.4,11.6-31.6c3.3-4.2,13.3-13.3,18.3-14.1c5-0.8,12.5-2.5,12.5-2.5l0.8,29.9
		c0,0-6.6,5-10.8,9.2s-4.2,4.2-4.2,4.2L250.6,585.9z" />
		<path class="st0" d="M471.9,635.8c0,0-17.5,1.7-20.8,6.6c-3.3,5-9.2,3.3-10.8,15c-1.7,11.6-12.5,39.1-12.5,39.1l44.1-24.1V635.8z" />
		<path class="st0" d="M230.4,597.7c-1.7-1.1-5,0.5-5,0.5l-20.5,64.1c0,0,5.9,8.3,14.1,15c8.3,6.6,27.4,20.8,27.4,20.8
		s3.3-3.3,7.5-1.7c4.2,1.7,108.9,71.5,113.1,76.6s19.1,18.3,26.6,19.1c7.5,0.8,7.5,0.8,7.5,0.8l27.4-68.2c0,0,0.8-10.3-1.2-11.5
		c0,0,1.1,5.6-7.4,3.3c-8.6-2.2-11.5-6.7-14.8-13c0,0-159.2-96.2-161.7-97.1" />
		<path class="st0" d="M390.5,618c1.2,2.4,13.3,28.2,31.7,37.1" />
		<path class="st0" d="M410.3,613.8c0,0,8.4,22.7,18.6,24.5" />
		<path class="st0" d="M445.6,649.6c1.2,1.8,16.6,6.8,25.4,7.2" />
		<path class="st0" d="M438.4,666.4c0,0,16.7,10.2,25.1,10.2" />
		<path class="st0" d="M695.6,519.4c0,0,60.7-88.8,123.8-67.8c63.1,21,67.2,97.4,59.3,139.5c-10.9,58-34.8,103-64.8,137
		c-30.9,35.2-77.1,61.5-120.7,39.7c-43.6-21.8-57.6-96.6-39.7-160.4C671.4,543.6,696.3,523.4,695.6,519.4z" />
		<path class="st0" d="M812.4,463.4c0,0,54.5,14,56,86.4c1.5,72.5-41.9,141.4-59.2,165.9c-5.9,8.3-38.9,40.5-62.3,47.5
		c-23.4,7-76.3,3.9-85.6-59.2c-9.3-63.1,16.3-147.9,50.6-186.1C746.2,479.7,794,458.7,812.4,463.4z" />
		<path class="st0" d="M747.3,419.4c0,0,7.5-23.7,7.5-32.3s-4.4-14.6-9.1-14.6" />
		<path class="st0" d="M747,359.9c0,0,10.9-3.5,16.3,7c3.9,7.6,5.2,6.2,3.1,17.1c-3.9,20.4-7.2,31.7-7.2,31.7" />
		<path class="st0" d="M740.7,380.1c-1.5,1.9-109,22.6-109,22.6s-8.6,4.7-14,11.7c-5.5,7-11.7,8.6-17.1,7.8
		c-5.5-0.8-21-3.9-20.3-10.9c0.8-7,9.3-22.6,17.9-28.8c8.6-6.2,123.8-31.9,123.8-31.9s7-3.9,15.6-0.8c8.6,3.1,9.3,8.6,9.3,15.6
		S743.8,376.1,740.7,380.1z" />
		<path class="st0" d="M325.8,417.4c0,0-1.1-11.7,0.4-15.7c1.5-4,13.6-15.3,20.9-21.6s42.1-39.2,45.7-40.6c3.6-1.5,4.4-4.9,10.6-4.9
		c0,0-17.2,54.3-24.2,65.5c-5.5,8.7-6.3,9.3-20.7,12.7c-13.8,3.2-32.8,6.2-32.8,6.2" />
		<path class="st0" d="M565.5,436.9c0,0-17.1-3.9-22.6-5.5s-3.5-3.9-11.1-11.5c-3.8-3.8-3-9.6-8.7-10.2c-13.7-1.4-19.1,8.6-23.8,9.2
		c-4.9,0.6-39.8,11.2-54.5,14.8c-11.3,2.8-63.1,17.9-74.8,18.7s-46.7,7-54.5,9.3c-7.8,2.3-4.7,7-5.5,10.9
		c-0.8,3.9,11.7,9.3,17.9,11.7c6.2,2.3,27.3,8.6,38.9,14c11.6,5.5,55.3,26.4,59.2,28.8c0,0,23.3,16.2,34.2,20.4
		c10.8,4.2,19.1,8.3,30.8,10.8c10.3,2.2,17.3,3.8,24.5,3.2c0.9-0.1,7.6-1.6,12.4-3.2" />
		<path class="st0" d="M726.9,348.8c0,0-5.6,0.2-9.6-3.7c-3.9-3.9-3.9-7.8-4.7-14.8c-0.8-7,2.3-17.9,2.3-27.3c0-9.4,4.7-7,13.3-10.9
		c8.6-3.9,9.3,3.9,17.1,1.5c7.8-2.3,7.8-0.8,7.8-0.8s3.1-8.6,1.5-17.1c-1.5-8.6,5.6-86.5,5.6-86.5s0,0-8.6,0c-8.6,0-13.3,0-21.8-0.8
		s-6.2-3.9-10.9-2.3c-4.7,1.5-5.5,0.8-10.1,2.3c-4.7,1.5-35.1-4.7-45.2-7s-71.6-10.9-79.4-17.1c-7.8-6.2-10.1-4.7-15.6-4.7
		s-31.1-2.3-31.1-2.3s-2.3,4.7-3.1,15.6c-0.8,10.9-4.7,77.1-4.7,77.1s7,0.8,14,3.9c7,3.1,4.7,4.7,7,12.5c2.3,7.8,6.2,17.1,4.7,23.4
		s-1.5,10.9-7,12.5c-5.5,1.5-22.6-3.1-22.6-3.1l1.9,39.1c0,0,10.1,2.3,13.2,2.9c5.5,1,4.9,1.4,4.9,6.8c0,1.8-3.5,33-3.5,33h-10.1
		l-3.1-17.9l-18.7-46.8" />
		<line class="st0" x1="543.7" y1="253.9" x2="540.5" y2="302" />
		<line class="st0" x1="539.5" y1="340.6" x2="540.2" y2="380.1" />
		<line class="st0" x1="532.8" y1="251.5" x2="529.6" y2="299.6" />
		<line class="st0" x1="732.2" y1="294.4" x2="726.6" y2="348.6" />
		<path class="st0" d="M748.5,295.2c0,10.1-6.2,56.8-6.2,56.8" />
		<path class="st0" d="M540.5,157.3c0,0,4.7-8.6,10.1-14c5.5-5.5,11.7-7.8,11.7-7.8s3.9-0.8,7,2.3c3.1,3.1,3.1,3.1,3.1,3.1
		s-3.1,2.3-6.2,7.8c-3.2,5.5-5.5,10.9-5.5,10.9" />
		<path class="st0" d="M741.4,188.7c0,0,14.3-20.5,18.3-23.4c4-2.9,7.7-4.4,7.7-4.4s-0.5-3.7,4.5-3.2c5.8,0.6,6.4,4.6,6.6,8.2
		c0.4,7.2-3.8,9.6-3.8,9.6s-8.4,4.4-10.9,6.2c-2.5,1.9-5.1,3.5-5.7,6.9" />
		<path class="st0" d="M759.3,164.7c0,0-3.1-8.5,7-12.3c6-2.2,14.3-5.9,18-5.5c3.6,0.4,7.7,5.5,8.8,8c1.1,2.5,33.4,1.5,33.4,1.5
		s9.4-0.3,10.5,4.8c1.1,5.1,0.4,10.9-0.7,15c-1.3,4.8-3.3,8-8,7.3c-4.8-0.7-8-6.9-8-6.9l-32.5-0.7c0,0-1.5,9.2-0.7,11.3
		c0.7,2.2,0.8,6.4,5.9,7.3c3.3,0.6,6.9,1,11,3.6c5.8,3.7,17.1,17.8,16.7,21c-0.4,3.2,1.5,4.5-2.5,6c-4,1.5-7.3,1.5-7.3-1.9
		c0-3.3,1-3.2-0.4-6.6c-1.2-2.8-4.6-7.5-10-10.8c-5.3-3.3-9-6-9.7-3.1c-0.7,2.9,0.4,5.5-2.2,7.3c-2.5,1.9-17.2,11.3-18.7,12.1
		c-1.5,0.8-11.3-0.7-11.7-2.5" />
		<path class="st0" d="M763.8,181.7c0,0-2.1,1.9,0.5,5.9s2.1,5,2.5,9.5c0.4,4.5-3.1,11.3-7.9,12.6" />
		<path class="st0" d="M581.2,161.6l-0.7-10.6l35.8-0.7c0,0-2.5,3.3,2.2,5.1s7.3,4.4,9.9-1.5c2.5-5.9,3.3-15-0.7-18.3
		c-4-3.3-39.2-2.9-39.2-2.9s1.1-3.6-2.2-4.8c-3.3-1.1-6.6-1.1-8.8,0c-2.2,1.1-2.2-1.5-5.5-1.1s-6.9,4.9-9.7,8.6" />
		<path class="st0" d="M314.9,461.2c0-6.2-1.1-49.4-1.1-52.7c0-3.3,2.5-17.3,10.9-24.5c8.2-7.1,41.4-37.7,41.4-37.7" />
		<line class="st0" x1="754.2" y1="392.9" x2="738.5" y2="394.2" />
		<line class="st0" x1="749.6" y1="408.8" x2="740.4" y2="413" />
		<line class="st0" x1="761.6" y1="436.7" x2="758.3" y2="460.2" />
		<path class="st0" d="M715.2,536.5l0.7,13.3c0,0,4.7,0,4.7,3.3s-5.4,84-5.4,84l-54.5,24.4" />
		<path class="st0" d="M660,676.5c6.6-2,75.4-31.8,75.4-31.8l-0.2-14.9c0,0,0.1-5.6,0.2-13.6c0.4-20.1,1.1-56,1.1-59.7
		c0-5.3,10-6.6,14-10c4-3.3,7.3-11.3,4.7-22c-2.7-10.6-1.3-12.6-1.3-12.6l2.5-30.7" />
		<line class="st0" x1="646.2" y1="683.4" x2="630.6" y2="690.4" />
		<path class="st0" d="M646.6,666.1c-8,3.3-17.3,8.1-17.3,8.1" />
		<path class="st0" d="M621.3,565.8l-132.7,44.4v7.4c0,0,3.1-3.1,6.2,0s3.7,11.8,3.7,11.8l-8.7,5.6v9.9l-0.5,30.8
		c0,0,12.5,3.3,13.3,7.5c0.8,4.2,0.8,8.3-3.3,11.6s-4.2,3.3-4.2,3.3l0,0l-0.8,19.1c0,0,5-2.5,9.9,0c4.9,2.5,5,2.5,5,2.5l65.6-22.6
		c0,0,18.5-9,26.5-12.3" />
		<path class="st0" d="M708.6,521.8l13.3-4c0,0,5.3,0.7,5.3,6s3.3,10-4.7,10.6c-8,0.6-27.3,8.6-27.3,8.6" />
		<path class="st0" d="M678.6,547.8c-2.7,0-31.9,12.3-31.9,12.3" />
		<line class="st0" x1="691.6" y1="525.8" x2="658.1" y2="538.7" />
		<polyline class="st0" points="522.4,345.8 530,345.9 530.3,339 	" />
		<path class="st0" d="M587.2,578.8c0,0-4.2,50.2-78.6,76.6c0,0-17,3.8-20,2" />
		<line class="st0" x1="208.3" y1="706.1" x2="218.8" y2="677.8" />
		<line class="st0" x1="206.2" y1="665.8" x2="195.2" y2="701.8" />
		<path class="st0" d="M188.9,767c4.3,0.2,72.4,8.4,74.8,7.2c2.4-1.2,4.2-8.9,1.8-12.6c-2.4-3.6-54-32.4-54-32.4s-2.5-1.5-4.9-2.2
		c-2.4-0.6,2.4-20.7,2.4-20.7s-14.4-2.4-15-5.9c-0.3-2.2-53.7-7-53.7-7s-3.6,3-4.8,7.8c-1.2,4.8-3.6,18-3.6,18l-9.6-0.6
		c0,0-5.4,7.8-3.6,11.4c1.8,3.6,48.5,30.5,48.5,30.5S177.5,766.4,188.9,767z" />
		<path class="st0" d="M376.2,822.6c0,0,5.4-4.2,9.6,2.4c4.2,6.6-2.4,38.3-10.2,38.3s-56.3,5.4-59.3,3.6c-3-1.8-8.9-7.2-8.9-7.2
		s-16.7,3.6-18.6,2.4c-1.8-1.2-63.4-47.3-63.4-47.3s-7.2-8.4-3.6-15c3.6-6.6,3-10.2,11.4-10.2c8.4,0,69.5,2.4,69.5,2.4
		s26.4,11.9,35.3,19.7c8.9,7.8,14.3,11.9,14.3,11.9L376.2,822.6z" />
		<path class="st0" d="M283.4,715.5c0,0,0,21,8.4,28.8c8.4,7.8,18.6,20.4,47.9,10.8" />
		<path class="st0" d="M225.9,597.9c0,0,4.2,11.6,9.6,12.2c5.4,0.6,7.9-4.2,7.9-4.2c7.8-4.2,38.7-11.4,38.7-11.4s3.6,3.6,7.8,3
		c4.2-0.6,4.2-0.6,4.2-0.6l0,0l3,16.2l0.6,24.5" />
		<path class="st0" d="M308,552.1l1.2,21.5c0,0,5.4-3.6,10.2-6.6c4.8-3,10.8-7.8,11.9-3.6c1.2,4.2-2.4,11.4-2.4,15
		c0,3.6-3.6,1.2-7.2,3c-3.6,1.8-6.6,6-6,10.2c0.6,4.2-5.4,1.2-5.4,1.2l6,34.2l211.7-67.5" />
		<path class="st0" d="M470.2,594c-2.4,0.6-152.6,43.7-152.6,43.7l0.6,13.2c0,0,13.8-7.2,26.9-8.4c13.2-1.2,34.2,6.6,40.1,28.8
		c0,0,1.8,14.3,1.8,18" />
		<path class="st0" d="M490.5,673.6c0,0,16.7,0,34.2-7.5c79.9-34.1,82.4-93.9,82.4-93.9" />
		<line class="st0" x1="582.3" y1="444" x2="594.9" y2="448.8" />
		<line class="st0" x1="373.2" y1="822.2" x2="384.4" y2="786.2" />
		<line class="st0" x1="397.9" y1="792.6" x2="386.6" y2="829.2" />
		<path class="st0" d="M527.4,763c0,0,26.1-31,55-19.7c28.9,11.3,33.1,43.6,11.9,82.4c-21.1,38.8-38.8,45.8-52.8,47.2
		c-14.1,1.4-57,3.5-38.8-72.5" />
		<path class="st0" d="M490.8,766.5c0,0-7,2.1-7,8.5c0,6.3-0.7,9.2,4.2,12.6c4.9,3.5,17.6,19,24,19c6.3,0,7-3.5,14.1-3.5
		c7.1,0,24,6.3,26.8,12.6c2.8,6.3,7.8,12.6,14.8,8.5c7-4.2,13.4-19.7,3.5-28.1s-21.8-11.9-28.9-16.9c-7-4.9-20.4-21.8-20.4-21.8" />
	</g>
</svg>
