<?xml version="1.0" encoding="utf-8" ?>
<!--
	https://github.com/Duxxie/duxxie-images
	This work is licenced by https://creativecommons.org/licenses/by-sa/4.0/
-->
<svg version="1.1" id="rolstoelfiets-svg" xmlns="http://www.w3.org/2000/svg" xmlns:xlink="http://www.w3.org/1999/xlink" x="0px" y="0px" width="1000px" height="1000px" viewBox="0 0 1000 1000" style="enable-background:new 0 0 1000 1000;" xml:space="preserve">
	<style type="text/css">
	#rolstoelfiets-svg .st0{fill:none;stroke:currentColor;stroke-linecap:round;stroke-linejoin:round;stroke-miterlimit:10;}
</style>
	<path class="st0" d="M571.2,594.4c1.8,0,122.1,16.1,142.2,28" />
	<path class="st0" d="M726.7,663.8c-5.4-0.9-100.1-23.1-100.1-23.1" />
	<line class="st0" x1="644.1" y1="669.5" x2="724.3" y2="688.5" />
	<path class="st0" d="M741.4,628.9c0,0,52.7,10.6,63.4,26.4" />
	<path class="st0" d="M765.9,699.1c8.2,0,34.5,12,41.4,10.7c6.9-1.3,16.3-26.9,16.3-26.9" />
	<path class="st0" d="M760.9,672c0,0,45.8,24.5,48.3,28.2c2.5,3.7,6.3,1.8,6.3,1.8" />
	<path class="st0" d="M827.4,695.3c3.1,2.5,33.8,20.7,33.8,20.7l12-25.8c0,0-1.3-19.5-6.3-22.6c-5.1-3.1-17.6-6.9-20-5.6
	c-2.4,1.3-6.9,9.4-6.9,9.4s-13.1-4.4-17.6-7.5s-18.1-9.9-18.1-9.9s-7.8,7.6-5.4,12c2.4,4.4,3.9,6.7,11.5,11.2
	c7.5,4.4,21.3,8.7,21.3,8.7L827.4,695.3z" />
	<path class="st0" d="M860.1,715.1c0,0,4.4-20.5-4.5-26.1c-8.9-5.6-20-6.9-23.8-3.1" />
	<path class="st0" d="M721.4,727.3c0,0-3.2-17.3,10.9-14.6c9.7,1.7,12.3,5.2,12.3,10.8c-0.1,8.3-8.2,12-12.5,12
	C727.7,735.5,722,729.1,721.4,727.3z" />
	<path class="st0" d="M839.7,495.7c0,0,6.1-12.5,18.6-5.6c11.9,6.6,10.9,12.9,9,21.1c-2.5,11.3-14.8,9.2-17.6,8.9" />
	<path class="st0" d="M142.8,513.4c1,0.3,23.7,7.5,26.6,19.8" />
	<path class="st0" d="M175.4,575.1c0,0-9.6,19.2-32.9,18.8c-17.4-0.3-23.4-2.9-34.4-17.7" />
	<path class="st0" d="M124,512.7c0,0-32.6,8.2-23.4,42.8" />
	<path class="st0" d="M120.1,392.8c0,0,5.2,5.2,8.1,11.4c2.9,6.3,5.2,23.5,5.2,23.5" />
	<path class="st0" d="M94.5,397.2c2.9,0,8.1-5.8,16.6-0.6s13.1,12,14.8,18.9c1.7,6.9,1.7,9.7,1.7,9.7" />
	<path class="st0" d="M134.5,445.4c0,0,4.6,10.2,4,15.4" />
	<path class="st0" d="M127,443.6c0,0,5.2,13.1,5.2,16" />
	<path class="st0" d="M518.7,493.4c-4.6,1.7-9,3.3-9,3.6c0,0.6-4.7,0.6-7.6,0.6c-2.9,0-15.5-2.8-15.5-2.8" />
	<path class="st0" d="M511.9,470.7c0.6,0,7.4,0,10.5,1.2c3.1,1.2,5.9,5.9,5.9,5.9l1.2,11.9c0,0-0.7,0.2-1.8,0.7" />
	<path class="st0" d="M526.9,479.3c-1.4,0-15.5,5.9-17.2,6.6c-1.6,0.8-0.2,11.1-0.2,11.1" />
	<path class="st0" d="M513.8,495.8c0,2.5,0,32.3,0,32.3" />
	<line class="st0" x1="528" y1="522.8" x2="527.4" y2="504.5" />
	<path class="st0" d="M509.3,486.5c0,0-1.4-0.6-5.1-3.1c-3.7-2.5-9-4.7-12.2-4.3" />
	<path class="st0" d="M514.5,489.3c1.2-0.2,7.8-2,7.8-2s4.5,0.2,6,4.3c1.5,4,3.5,7.6,5.3,8.2c1.7,0.6,2.8,2.3,2.8,2.3l-10.9,2.3
	c0,0-3.5-2.9-4.7-5.1s-2-8.5-3.3-8.5C516.1,490.9,514.5,489.3,514.5,489.3z" />
	<path class="st0" d="M451.8,527.8c-4.7,1.7-9.2,3.3-9.2,3.7c0,0.6-4.7,0.6-7.6,0.6c-12.7,0.2-25.7-6.6-25.7-6.6
	c-0.8-2.8,1.7-4.8-1.6-5.3s-6.2-1.7-6.2-1.7" />
	<path class="st0" d="M442.6,501.2c0.6,0,10.4,2.8,13.5,3.9c3.1,1.2,5.1,7,5.1,7l1.2,11.9c0,0,0.5-0.1-1.4,0.6" />
	<path class="st0" d="M459.8,513.7c-1.4,0-15.5,5.9-17.2,6.6c-1.6,0.7-0.2,11.1-0.2,11.1" />
	<path class="st0" d="M442.2,520.9c0,0-0.2-0.9-3.9-3.5c-3.7-2.5-16.3-6.6-19.7-6.2" />
	<path class="st0" d="M447.4,523.9c1.2-0.2,7.8-2,7.8-2s4.5,0.2,6,4.3c1.5,4,3.5,7.6,5.3,8.2c1.7,0.6,2.8,2.3,2.8,2.3l-10.9,2.3
	c0,0-3.5-2.9-4.7-5.1s-2-8.5-3.3-8.5C449,525.4,447.4,523.9,447.4,523.9z" />
	<path class="st0" d="M430.8,551.7c5.6,0.5,9.8,0.9,11.4,1.3l21.5,27.7" />
	<path class="st0" d="M848.5,614.7c10.8-10.8,13.4-57.6,0.8-95.8c-13.7-41.7-60.5-91.5-126-91.1c-52.8,0.3-80.3,28.3-80.3,28.3
	l-20.7-5.4c0,0-25.8-6.8-50.5-5.9c-24.7,1-55.4,10.2-55.4,10.2l-47.3,18.8c0,0,0,0,1-10.8s-7.1-33-7.1-33l-51.1-186.4l6-6.9
	c0,0,7.9-2,12.9-3c4.9-1,12.9-7.9,15.8-9.9c3-2,6.9,4.9,10.8,6.9c3.9,2,12.9,10.8,15.8,12.9c3,2-1-10.8-1-10.8s-10.8-14.8-13.8-19.8
	c-3-4.9-7.9-2-14.8,0c-6.9,2-6.9,6.9-9.9,10.8s-11.9,2-14.8,2c-3,0-8.9-1-12.9,0c-4,1-9.9-1-18.8-6.9c-8.9-6-17.8-9.9-23.7-10.8
	c-6-1-39.5,3-42.5,3.9c-3,1-21.8-6-21.8-6s-14.8,8.9-19.8,9.9c-4.9,1-37.5,3.9-37.5,3.9l3.9,15.8c0,0,22.7-6,38.6-8.9
	c15.8-3,8.9,3.9,8.9,3.9l-23.7,6c0,0-3,8.9,8.9,4.9c11.9-3.9,26.7-8.9,34.6-10.8c7.9-2,7.9,4.9,11.9,2c3.9-3,24.7-8.9,33.6-10.8
	c8.9-2,16.8,3,23.7,4.9c6.9,2,12.9,11.9,12.9,11.9s43.9,164.3,52,192.6c7.5,25.6,9.2,38.7,5.3,46.6c-3.9,7.9-16.8,12.9-20.7,14.8
	c-3.9,2-61.2,22.7-67.2,32.6c-6,9.9,11.9,23.7,11.9,23.7s14.3,0.5,29.6,1.2" />
	<path class="st0" d="M833.6,612.6c0,0,12.4-19,10.9-49.7c-1.4-29.7-14-70.4-55.6-100s-95-15-104.8-12.1c-12.9,3.8-30,16.1-30,16.1
	s18.1,38.2,22.3,45.6c4.4,7.4,31.2,73,33.6,77" />
	<path class="st0" d="M679,560.5l-36.1-83.6c0,0-10.8,17.8-13.8,27.6s-7.6,21.2-6.6,25.4" />
	<line class="st0" x1="480.2" y1="485.4" x2="506.5" y2="531.2" />
	<line class="st0" x1="469.9" y1="490.3" x2="499.3" y2="534" />
	<path class="st0" d="M610.5,526.6c0,0,4.1-22.7,9.3-32.6c2.8-5.3,12.2-23,12.2-23s-35.8-13.1-62.4-11.2c-26.7,2-35.5,4.3-41.3,5.3
	c-6,1-46.5,17-43.5,17l-20,9.4c-7.9,1-74.8,31.9-74.8,31.9s-10.8,3-7.9,4.9s-4.9,1,11.9,3c16.8,2,54.3,4.9,54.3,4.9
	c2.5,0.3,17.6,24.4,17.6,24.4" />
	<line class="st0" x1="736.8" y1="694.9" x2="723.4" y2="714.5" />
	<path class="st0" d="M728.4,643.6c-17.8-28.2-42.1-51-42.1-51c-55.4-52.4-116.6-54.3-146.3-51.5c-29.7,3-44.9,19.6-48.8,23.4
	l3.7,6.1" />
	<line class="st0" x1="744.2" y1="726.8" x2="757.5" y2="706.2" />
	<path class="st0" d="M758.1,665.3c6.9,25.6,11.2,65.6,7.7,80.9c-4.9,21.8-17.2,47-19.1,50c-2,3-10.8,6.9-20.7-6
	c0,0,12.5-25.1,16.8-37.5c4-11.7,3.2-23.5,3.2-27.4" />
	<path class="st0" d="M466.4,560.9c3-3.9,47-45.5,98.4-41.4c51.5,3.9,95.9,22.7,120.6,47.4s55.9,57.7,64.8,76.4" />
	<path class="st0" d="M182.5,443.4c26.6,9.2,54.2,20,72.9,29.5c46.5,23.7,139.4,89.9,149.3,97.8" />
	<path class="st0" d="M97.2,417.6c6.6,1,37.1,9.8,70,20.7" />
	<path class="st0" d="M175.4,456.4c14.6,4.6,29.2,9.6,40.4,14.5c37.5,16.8,122.6,70.2,133.5,78.2c10.8,7.9,46.5,41.6,46.5,41.6" />
	<path class="st0" d="M97.2,437.4c4.6,1.2,31.8,5.1,60.4,13.4" />
	<polyline class="st0" points="125,544.1 199.1,413.7 216.8,449.3 220.1,448.7 223.5,447.4 226.7,445.2 176.5,336.2 " />
	<path class="st0" d="M167.3,340.8c0,7.9,23.8,55,23.8,55L105.5,548" />
	<path class="st0" d="M52.8,525.4c2.2,4.4,37.5,8.9,41.6,6c3.9-3,6.9-16.8,6.9-16.8l-4.9-113.6c0,0-6-10.8-15.8-10.8
	s-37.5-3.9-44.4,0s-9.9,12.9-9.9,19.8C26.2,416.8,50.8,521.5,52.8,525.4z" />
	<path class="st0" d="M292.7,563.1c0,0,79.3,10.1,89.2,15.1" />
	<path class="st0" d="M286,547.1c0,0,64.6,6.9,75.4,11.9" />
	<path class="st0" d="M25.1,387c0,0-22.7,0-19.8-3.9c3-3.9,27.6-11.9,30.6-11.9s8.9-3,19.8-2c10.8,1,74.1,3,74.1,3s24.7,1,15.8,6.9
	c-8.9,6-43.5,11.9-43.5,11.9s-8.9,2-21.8-1C67.4,387,25.1,387,25.1,387z" />
	<path class="st0" d="M130.8,306.9c0,0,14.6-4.1,21.6-3.2c6.9,1,19.9,3.2,25.9,2.2c6-1,27.6-6.9,32.6-6c4.9,1,7.9,6.9,8.9,11.9
	c1,4.9-1,10.8-6.9,12.9c-5.9,2.1-28.9,8.4-33.8,11.2c-9.2,5.2-28.4,5.5-33.4,6.6c-4.9,1-24.5,1.6-26.5-4.3
	C117.1,332.3,115.1,311.8,130.8,306.9z" />
	<path class="st0" d="M430.9,704.6c0,0,9.2-23,9.2-31.1c0-8.1-9.4-61,9.2-80.6c12.8-13.5,43.2-37.9,104.2-7.9s91.5,81.6,91.5,86.2
	s-8.1,12.7-18.4,10.4c-10.4-2.3-10.4-2.3-10.4-2.3s-19.6-43.7-71.4-76c-45.4-28.2-64.9-15.8-76-10.4c-13.7,6.7-21.9,24.2-21.9,34.5
	c0,63.8-15.5,76.7-15.5,76.7" />
	<path class="st0" d="M500,612.5c0,0,73.7,2.3,118.6,89.8c44.9,87.5,8.1,116.3-2.3,124.3c-10.4,8.1-92.7,8.9-138.7-90.1
	S477,607.9,500,612.5z" />
	<path class="st0" d="M638,678.8c0,0,37.9,45.2,31.2,102.9c-7.1,61.4-31.1,58.7-40.3,63.3c-17.6,8.9-61.7,11.5-117-41.4
	c-55.3-53-67.6-135-63.7-150.1c0,0,2.5-41.8,20.1-52.1c17.4-10.2,33.2-15.1,64.1-4.7" />
	<path class="st0" d="M676.5,512.5c0,0,10.9-33.3,42.7-38.6c21.5-3.6,58.9-4.1,81.7,39.4c25.6,48.7,1.6,81.6-17.3,91.7" />
	<path class="st0" d="M814.3,608.8c2.8-1.8,20.6-15.3,20.7-51c0.1-26.6-2-42.1-25-68.6c-23-26.5-61.9-45-107.2-31
	c0,0-28.2,10.7-36.8,31.4" />
	<path class="st0" d="M660.7,547.5c0,0-5.9-14.3-1.4-30" />
	<path class="st0" d="M655,503.7c-0.7,6.4-1.2,5.5-5.1,12c-3.9,6.4-4.9,11.7-9.4,17.2c-1.4,1.7-0.7,4.4,3.7,2.1
	c4.4-2.3,10.9-8.5,12.3-12.1c1.4-3.7,3-6.4,3-6.4" />
	<path class="st0" d="M609.1,547.8c0,0,0.6,19.6,5.2,25.3" />
	<path class="st0" d="M622.6,552.1c0,0,1.3,17.8,5.9,23.6" />
	<line class="st0" x1="444" y1="535.6" x2="444.2" y2="530.8" />
	<line class="st0" x1="451.9" y1="539.5" x2="451.8" y2="528.2" />
	<path class="st0" d="M301.9,205.6c-1-1.4-4-11.7,11.4-14.8c15.4-3.1,29.2,1.4,28.2,8.1c-1,6.7-11.7,11.4-13.8,11.7" />
	<path class="st0" d="M450.2,444.7c0,0-1.5-1-5.5,6.6c-4,7.5-10,38.6-10,38.6" />
	<path class="st0" d="M447.6,438.7c0,0-4-2-8.1,6.6c-4,8.5-16.6,50.1-16.6,50.1" />
	<path class="st0" d="M709.9,591.3c5.1,1.8,259.4,45.1,261,45.4c0,0,24.2,4.6,24.2,12.7s0,40.3-3.5,43.7c-3.5,3.5-6.9,13.8-19.6,13.8
	c-12.7,0-99.3-18-99.3-18" />
	<line class="st0" x1="871.8" y1="677" x2="981.2" y2="698.8" />
	<path class="st0" d="M731.3,779.9c-34.2-9.9-59.9-16.2-59.9-16.2" />
	<path class="st0" d="M814.3,704.6c5.8,3.5,148.5,34.5,148.5,34.5s17.3-4.6,16.1,23c-1.2,27.6-10.4,65.6-10.4,65.6
	s3.5,11.5-17.3,11.5c-12.7,0-120.6-31-198.9-53.4" />
	<path class="st0" d="M755.9,776.8c82.5,22.7,196.5,54.4,196.5,54.4s11.5-1.2,16.1-3.5" />
	<path class="st0" d="M670.4,754.1c1.2,0,38.7,10.4,64.6,16.8" />
	<path class="st0" d="M438.2,638.4c-3.5,4-16.3,19-16.3,19l15.7,28.5" />
	<path class="st0" d="M432.7,693.4l-13.6-4.7v-8.9c0,0,7.5-7.5,9.6-6.8" />
	<path class="st0" d="M424.6,543.2c2.1,0.1,26.5,36,26.5,36s0.7,3.5-3.5,9.6c-4,6.1-19,12.2-19,12.2l-28.5-40.1
	C400.1,560.9,408.3,542.5,424.6,543.2z" />
	<line class="st0" x1="441" y1="608.8" x2="434.1" y2="599" />
	<path class="st0" d="M252.6,582.9c-4.6-2.2-10.7-5.2-14.3-7c-10.8-5.4-22.4-7.5-33.3-5.4c-10.8,2.1-61.1,7.5-71.4,7.5
	s-22.4,4-28.5-5.4c-6.1-9.4-8.9-22.4,3.5-25.1c3.8-0.8,86.3-17,91.7-17.7c5.4-0.7,52.4-5.4,70.7,4.7c18.3,10.2,23.1,23.1,21.8,34.6
	s-14.3,21.3-24.9,22" />
	<path class="st0" d="M55.4,528.2c0,0,1.3,31.3,16.3,56.4c13.2,22,43.5,46,62.5,48.5c18.4,2.3,48.2,4.6,66-13.1s19-43.5,19-48.9" />
	<path class="st0" d="M152.7,496.4c0,0,27.2,14.3,32.6,34" />
	<path class="st0" d="M195.5,572.4c0,0,2.8,34-20.4,42.1s-53.1-1.4-61.1-6.8c-8.2-5.4-37.4-27.9-39.4-74.8" />
	<path class="st0" d="M138,489.7c0,0-22.7-10.4-37-2.9" />
	<path class="st0" d="M203.7,529.1c0,0-2.1-9.2-15.1-23.1c-13.5-14.4-24.9-21.4-29.7-21.4" />
	<path class="st0" d="M144.9,477.4c0.7-0.1-12-7.6-24.4-6.4c-4.3,0.3-17,1-20.8,2.3" />
	<path class="st0" d="M218,526.2c0,0-17.5-34.3-35.1-44.7c-11.2-6.6-17.4-8.9-17.4-8.9" />
	<path class="st0" d="M151.9,465.4c0,0-18.5-4.7-25.8-6.4c-5.4-1.3-22.1-0.3-26.9,2.4" />
	<line class="st0" x1="275.7" y1="536.4" x2="268.3" y2="499.2" />
	<line class="st0" x1="288.7" y1="546.7" x2="279.6" y2="506.4" />
	<path class="st0" d="M277,483.9c-0.6-0.9-2.3-7.8-4.9-9.3c-2.6-1.5-6.4-4.6-7.3-0.6c-0.9,4-0.9,4-0.9,4" />
	<path class="st0" d="M279.1,484.5c0.9,0,8.4,0,8.4,0l13.1-9l-2.3-11.6l-15.7,0.3l-13.9,7.6" />
	<path class="st0" d="M275.9,475.9c1.2,0,8.4,0,8.4,0l13.9-12" />
	<path class="st0" d="M263.1,626.8c0,0-6.7-28-7.5-32.9c-0.9-4.9-7.3-30.9-4.4-34.6c2.9-3.8,12.5-6.7,13.4,3.5s2.3,28.5,3.8,35.5
	s4.4,29.1,5.5,31.1c1.2,2.1,3.8,5.2,2.3,7.8c-1.5,2.6-12.5,13.1-14.8,15.4s-7.8,2.1-10.7,1.7c-2.9-0.3-14.3-3.5-14.3-3.5
	s-2.3-7.8-1.2-9.3s13.4-16.2,15.4-16.6C252.7,624.5,257.2,624.5,263.1,626.8z" />
	<path class="st0" d="M235.2,641.5c0,0,21.2,4.9,22.7,4.9c1.5,0,15.5-14.3,14.5-15.1c-3.8-3-9.3-4.3-9.3-4.3" />
	<path class="st0" d="M257.4,653.3c0.9-1.5,0.6-6.7,0.6-6.7" />
	<path class="st0" d="M228,572.7c0,2.1,5.5,19.8,5.5,22.4" />
	<path class="st0" d="M257.7,602.8c-2.1,0.6-63.1,21.9-63.1,21.9" />
	<line class="st0" x1="254" y1="588" x2="212.7" y2="602.1" />
	<path class="st0" d="M25.1,387c4.3-2.9,37.9-16,37.9-16" />
	<path class="st0" d="M85.8,389.9c4-0.6,44-17.7,44-17.7" />
	<path class="st0" d="M84.8,391.6c0,0-8.5,1.7-9.7,8.1c-1.2,6.3,1.2,30.3-1.2,33.7c-2.3,3.5-10.2,2.9-14.8,2.9s-16.6-0.6-16.6-0.6
	s-5.2-2.3-5.2-7.5s-5.2-30.9-5.2-30.9s-1.5-5.5,3.8-7.4" />
	<path class="st0" d="M88.1,527.1l-6.9-119.5c0,0,2.9-10.2,6.9-12" />
	<path class="st0" d="M730.9,665.9c-13.6,6.9-8.7,20.5-5.1,24.3c3.7,3.8,9.8,5.1,14.8,4.5c5.1-0.6,11.3-5.1,13.1-12.7s-6-12.5-6-12.5
	" />
	<path class="st0" d="M728.4,665c-0.8,0.6-1.3,1.5-2.5-4.5c-1.3-5.6-4-9.8,1.7-15.4c4-4,16.9-2.1,22.6-1.2c2.4,0.3,30.2,1.2,32.7,8.1
	c3.5,9.7-18.3,9.7-24.5,12.8c-2.8,1.4-4.8,4.3-8.2,4.4C746.7,669.3,730.4,665.1,728.4,665z" />
	<polyline class="st0" points="677.4,585 594.6,569.8 592,569.3 565.4,590.4 " />
	<path class="st0" d="M592.7,569c-2.2-4.9-0.1-23.7-12.8-21.5c-12.7,2.2-42.7,23.1-48.8,27.7" />
	<line class="st0" x1="637.6" y1="757.4" x2="462.6" y2="698" />
	<line class="st0" x1="634.7" y1="744.7" x2="461.8" y2="691" />
	<path class="st0" d="M530.7,620.9c-3.8,1.6-71.9,53.8-71.9,53.8" />
	<path class="st0" d="M430.3,704.1c0,0,7,2.5,12.1,2.5s11.2-1.6,11.2-3.9" />
	<path class="st0" d="M399.5,571.4c0,0-4.3,2-4.9,7.7c-0.8,5.8-0.8,11.2,6.1,13.8s11.5-1.2,11.2-8.1C411.4,578,411,570.7,399.5,571.4
	z" />
	<line class="st0" x1="132.5" y1="385.2" x2="184.4" y2="404.6" />
	<line class="st0" x1="113.5" y1="390.1" x2="178.4" y2="414.7" />
	<path class="st0" d="M853.1,487.8c2.9-2.9,10.9-0.3,15.1,0.3c1.7,0.2,21.5,0.8,23.3,5.8c2.4,6.9-13,6.9-17.4,9.1
	c-2,0.9-3.5,3-5.9,3.1" />
	<line class="st0" x1="201.2" y1="417.5" x2="189.7" y2="445.2" />
	<line class="st0" x1="182.8" y1="459.6" x2="174.6" y2="476" />
</svg>
