<!--
	https://github.com/Duxxie/duxxie-images
	This work is licenced by https://creativecommons.org/licenses/by-sa/4.0/
-->
<svg version="1.1" id="rolstoel-duw-kantel-svg" xmlns="http://www.w3.org/2000/svg" x="0px" y="0px" width="1000px" height="1000px" viewBox="0 0 1000 1000" xml:space="preserve">
  <style>
    #rolstoel-duw-kantel-svg .st0{fill:none;stroke:currentColor;stroke-miterlimit:10;}
  </style>
  <path class="st0" d="M501.4 727.3c16.4 0 109.1 0 109.1 0s9.4 16.4 17.6 16.4 65.7 0 65.7 0M474.4 695.6L607 698c0 0 7-16.4 15.3-21.1s2.3-10.6 25.8-10.6c23.5 0 68.1-2.3 68.1-2.3l21.1 9.4c0 0 15.3-7 16.4 5.9"/>
  <path class="st0" d="M736.6 702.6c0 0-9.5-6.8-9.5-11.6s3.4-10.9 3.4-10.9l-15-7.5-12.3 2.7c0 0-1.4 12.9 0 21.1 1.4 8.2 6.1 12.3 12.9 12.3C723 708.7 734.6 705.3 736.6 702.6zM654.9 692.3c3.4-6.1 4.1-8.2 11.6-8.2 7.5 0 12.9 1.4 12.9 1.4s6.1 0 7.5 3.4c1.4 3.4 1.4 7.5 0 10.2-1.4 2.7-31.3 1.4-31.3 1.4S653.9 694.1 654.9 692.3zM652.9 721.6c0 0 2.7-9.5 5.4-10.2 2.7-.7 22.5-.7 22.5-.7s5.4-1.4 7.5 1.4 5.4 10.2 2.7 10.2S652.9 721.6 652.9 721.6zM763.2 740c2.5-1.1 14.3 0 16.3 10.2 2 10.2-6.1 16.3-11.6 16.3s-16.3-5.4-15.7-12.3C753 747.5 758.4 742.1 763.2 740z"/>
  <path class="st0" d="M751.6 733.2l6.8 4.8c0 0 6.1-4.8 11.6-4.1s15.7 15 10.2 22.5M745.5 738.6l4.8 4.1c0 0-5.4 18.4 6.8 21.1M764.3 547.5c0 2 1.6 67.6-60 114.8M446.1 621c.7-9.2 35.5 61.7 96.5 75.8M739.1 548.3c0 0 5.2 63.6-73.4 117.3M447.2 588.3c0 0 41.2 83 144.2 109.2M697.8 423.5c46.1-42.8 88.8-81 88.8-81s17.6-14.1 45.8-10.6c28.2 3.5 63.5 23.3 63.5 23.3s1.7 3.3-5.7 10.6"/>
  <path class="st0" d="M782.3 505.3l121-121.1c0 0 6.1 2.4 12.6 5.3 8.8 3.9 29.4 11.8 32.3 15.6 2.9 3.9 16.1 11.6 13.7 13.2-3 2-.2 11.7 13.2 16.6s19.5-3 19.9-8.6c.7-12.4-9.3-10.9-12.3-12.6-7.8-4.3-13.1-22.3-18.9-26.2-5.8-3.9-47.5-21.9-47.5-21.9s-26-4.8-30.8 2.9c0 0-103 96.4-117.6 111.8M500.4 585.7L621.9 659 757.6 528.9M454.3 557.4L469 566.9M360.6 500.6L420.8 537.8M488.4 493.5c3.7 2.4 7.4 4.9 11.1 7.4M430.2 514.7c-43.1-27.9-78.9-51.4-78.9-51.4s14.1-35.2 23.5-36.4c9.4-1.2 10.6-1.2 18.8 3.5 2.5 1.5 27.6 18.1 61 40.4M478.6 546c-5.9-3.8-10.9-7-16.8-10.8"/>
  <path class="st0" d="M750 514.8c0 0-104.3 104.6-118.4 117.5s-122.2-66-122.2-66M529.3 520.9c15.1 10.1 28.1 23.8 43.8 29.3 1.8.7 4.2-3.6 11.7-13 6.5-8.2 42-47 83.9-86.5M927.3 334.2c-11.7-2.3-59.8-29.3-59.8-37.5 0-8.2 14.1-39.9 27-44.6 12.9-4.7 56.3-19.9 64.5-11.7 8.2 8.2 10.6 11.7 10.6 19.9 0 8.2-10.6 23.5-10.6 23.5l10.6 8.2-22.3 35.2-9.4-5.9L927.3 334.2zM370 483.2c-1.2 12.9-15.3 22.3-15.3 22.3l-38.7-27 11.7-18.8-55.1-23.5c0 0-222.9 122-227.6 124.4-4.7 2.3-9.4 1.2-14.1-5.9-4.7-7 2.3-14.1 2.3-14.1S289 394.1 304.3 387c15.3-7 19.9-2.3 29.3-2.3s43.4 24.6 43.4 24.6l-34 55.1L370 483.2z"/>
  <path class="st0" d="M354.7 414c0 0-14.1-15.3-25.8-15.3-11.7 0-21.1-1.2-21.1 4.7 0 5.9 3.5 21.1 8.2 25.8 4.7 4.7 18.8 14.1 18.8 14.1L354.7 414zM592.9 403.4c0 0 224.2-14.1 208.4 222.2-9.8 146.7-215.8 216.9-316.6 126.7-61.2-54.8-93.6-121.2-64.2-212.7C464.1 403.5 580 404.6 592.9 403.4z"/>
  <path class="st0" d="M597.6 441.9c0 0 186.9-14.3 173.8 183.5-8.7 131-180.6 181.5-265 105.8-50.6-45.4-75.7-101-51.4-176.7C490.9 441.9 590.3 443.9 597.6 441.9zM656.3 409.3L504.9 306.1c0 0-32.7.2-43.1 22.2-4.1 8.5 117.3 76.2 117.3 76.2"/>
  <path class="st0" d="M560.1 450.4l-72.7 165.4c0 0-12.9-1.2-16.4-3.5-3.5-2.3-16.4-9.4-15.3-15.3 1.2-5.9 58.7-124.4 58.7-124.4M529.6 415.2L542.5 384.7M709.1 412.8c0 0-41.1-44.6-112.6-44.6M380.6 401.1c19.9-3.5 69.2 22.3 69.2 22.3s25.9-39.7 31.3-48.2c3.6-5.6 16.8.1 16.8.1l39.9 19.9"/>
  <path class="st0" d="M77.8,502l234.7-140.8c0,0,24.6-12.9,35.2-9.4c0,0,37.1,18.6,39.4,22.7c2.3,4.1,8.7,5,5.5,11.9	c-3.2,6.9-9.7,14.6-9.7,14.6"/>
  <path class="st0" d="M358.2 393.8c0 0 7.8-8.3 9.2-11.9 1.4-3.7 6.4-4.6-.5-10.6-6.9-6-17.4-9.6-22-8.7-4.6.9-14.2 4.1-15.1 10.1-.9 6 .9 12.8 2.3 12.8M82.5 509.9c-1.4-2.8-23.4-25.7-23.4-25.7l-22 19.3-22.9 14.2L5 524.1l19.7 22.5 7.3-4.6M59.1 525c-1.8-.5-22-21.6-22-21.6M99.5 533.3l16.1 17.4-18.8 20.2c0 0-1.8 3.2-3.2 5-1.4 1.8-16.1 17-16.1 17l-8.7 4.6-28.9-33M50.9 561.7c.9 1.8 25.2 27.5 25.2 27.5M31.6 537.4c-1.8-1.4-14.2-17-14.2-17M410.1 621c-20.6-.9-135.4 5.4-139 6.3-3.7.9-9.2 7.3-8.7 11.9s2.8 10.1 10.1 10.6c7.3.5 142.7-1 142.7-1M388.9 594.7c.5-2.2-19.7-4.1-19.7-4.1s-4.6-3.2-4.6-.5-1.4 6 2.3 9.2c3.7 3.2 9.6 11.9 13.3 11.9S387.6 600.7 388.9 594.7zM315.7 671.6c0 0-18.5-19.5-22.2-20.9M308.2 671.6c0 0-5.1-6.2-6.9-3.4-1.8 2.8-3.2 3.7 0 12.4 3.2 8.7 21.6 41.3 20.2 50.5-1.4 9.2-12.4 18.8-20.6 9.6-8.3-9.2-39.4-73.9-39.4-73.9s-2.8-13.3 2.3-17.9"/>
  <path class="st0" d="M299.7,672.3c0,0,30.5-3.2,49.3,16c18.8,19.3,20.6,61.5,1.4,79.8c-19.3,18.3-64.5,22.9-82.6-2.8	c-15.2-21.5-18.2-46,3.4-76.7"/>
  <path class="st0" d="M308.2 696.5c0 0 36.2 4.7 37.1 30.8s-18.3 38.1-31.2 37.2c-12.8-.9-33.6-2.3-39-25.2-5.1-21.7 6.1-27 7.1-30.6M319.6 583.6c.5 1.4 18.4 34.5 18.8 38.7M296.7 581.4c0 0-4.1 2.8-4.1 7.3s18.3 36.7 18.3 36.7M331.6 602.5c3.7 0 26.9-1.9 41.1 19.2M302.7 615.4c0 0-6 4.1-6.9 9.2M383.4 649.1c0 3.7-1.8 36.4-25.6 46.1M365.9 648.8c0 0-.9 24-22 32.2M458.9 726.4c-1.8-1.8-80.5-51.6-80.5-51.6"/>
  <path class="st0" d="M411.9 570l-33-16.6c0 0-.5-2.8-2.3-4.6-1.8-1.8-23.4-17-23.4-17s-15 7-8.3 16.1c1.4 1.8 25.7 13.8 25.7 13.8s2.3.9 4.1.5c1.8-.5 13.3 6.4 13.3 6.4s-77.1-2.3-79.4-2.3-12.4-.5-12.4 6c0 6.4-.9 7.8 7.3 9.6 8.3 1.8 27.5 1.8 27.5 1.8s-.5 1.8 5 6.4c5.5 4.6 7.3 2.8 15.6 7.3s13.8 14.2 21.1 17.4 13.7 6.4 13.7 6.4M96.7 570.9c-.1-9-16.6-26.6-16.6-26.6M410.4 578.6c-1.4 0-22.4-10-22.4-10"/>
  <path class="st0" d="M387.4 518l.6 22.1c0 0 3.7 3.7 3.7 6.6s0 12.1 0 12.1M965.5 303.1c7.7 4.8 6.7 13.5 12.5 30.8 5.8 17.3 6.7 38.5-1 43.3-7.7 4.8-57.8-18.3-59.7-21.2l-8.1 8.3"/>
  <path class="st0" d="M953.9,318.5l8.7,4.8c0,0,4.8,28.9,3.9,35.6s0,1.9-6.7,2.9c-6.7,1-49.1-22.1-49.1-22.1l-17.3,13.5"/>
</svg>
