<!--
  https://github.com/Duxxie/duxxie-creative-commons
  This work is licenced by https://creativecommons.org/licenses/by-sa/4.0/
-->
<svg version="1.1" id="rolstoel-svg" xmlns="http://www.w3.org/2000/svg" x="0px" y="0px" width="1000px" height="1000px" viewBox="0 0 1000 1000" xml:space="preserve">
  <style>
    #rolstoel-svg .st0{fill:none;stroke:currentColor;stroke-linecap:round;stroke-linejoin:round;stroke-miterlimit:10;}
  </style>
  <path class="st0" d="M667.6 560.1l-109 41c0 0-1-97-1-107.1s3-13.1 11.1-26.3c8.1-13.1 57.9-60.3 66-67.3M994.5 559.4c1-112.1-50.2-153.7-84.8-165.4-49.2-16.7-84.6.6-84.6.6s-109.3 37.1-164.5 184.2c-43.8 116.7-36.4 212.1 13.1 264.7 49.5 52.5 141.7 39.8 203.6-19.1"/>
  <path class="st0" d="M949.9 456.4c-2.5-6.2-30.8-38.9-56.8-42.6-30.3-4.3-81.9.4-122.3 40.8C730.3 495 667.7 594 665.7 671.8s10.1 127.3 25.3 147.5 42.2 50.3 100.8 37.9M954.2 489.1c4.9 5.6 14.6 51.4 12.5 90.7-1.8 34.1-3.3 53-23.2 97-20.3 44.8-33.9 77-61.6 113.4-17.1 22.4-34.9 37.3-67.8 53.4M510.4 249.1l-1.9-13.3-17.1-5.2c0 0-126.7 15.2-134.8 18.5-8.1 3.3-29.6 18.2-34.8 25.8-5.2 7.6-12.7 14.3-7 21s11.9 6.4 17.3 6.5c7.6.3 18.8-13.9 23.6-18.2 4.7-4.3 11.5-8.8 16.9-7.7 3.2.6 2.6 7.2 2.2 9.8"/>
  <path class="st0" d="M533.1 248.9c0 0-13.2-1.3-17.9-.8s-7.4-.6-7.4 3.9c0 3.7.7 8.9 3.7 8.8 3.3-.2 21.8-2.3 21.8-2.3M547.8 402.9L570.8 402.2 590.7 413.5M636.6 399.6c0 0-3.5 8.7-9.6 25.9-6.1 17.3-8.6 21.6-11.2 36.3-2.6 14.7.9 20.7-14.7 25.9-15.6 5.2-43.5 6.2-43.5 6.2M814.1 343.7l.4 17.9c0 0-6.1-1.8-7 4.3s-.5 11.4 3 18.6c5 10.5 5.8 14.2 5.8 14.2M368.6 518.4c0 0-.8 17.7-1.6 26.5-.8 8.8.8 13.7.8 16.1 0 0 2.6 50.1 9.6 61.8M337.2 503.2c0 0-6.4 37.8 0 70.7 0 0 9.1 52 14.5 59"/>
  <path class="st0" d="M335.6 563.4c0 0-9.6 0-16.9-4s-7.2-6.4-8.8-14.5c-1.6-8-2.4-9.6-.8-20.1s5.6-12.9 5.6-12.9l-64.3 13.7.8 44.2M268.1 478.2l2.4 24.1-22.5 4 .8-9.6c0 0 0 0-6.4-4s-12.9 1.6-12.9 1.6l.8 33c0 0-10.4.8-17.7 4-7.2 3.2-19.3 7.2-19.3 7.2s-10.5 7.1-18 19c-7.6 11.9-26.9 75.8-26.9 75.8M301 490.3L301.8 499.9 318.7 495.9M611.1 392c0 0-37.4 42.4-51.5 51.5s-18.2 36.4-19.2 41.4c-1 5.1-4 77.8-4 82.8l.1 23-1.6 10.4-47.6 16.2M379.3 767.6c-.7 4.4 19.4-67.6 21.5-70.9 2.2-3.2 10-28.8 33.6-37.6 0 0 0 0 4-2.4s24.9-8.8 24.9-8.8v-12.1l-.8-26c0 0-1-3 6.6-4s15.7-1.5 16.7 3.5S485 643 485 643M633.9 760.9c-6.1 2.6-18.4 6.7-18.4 6.7L520.6 810l2.2 22.7c0 0 3.2 5.4-2.2 12.9s-18.3 14-25.9 7.6c-7.6-6.5-8.6-17.3-8.6-17.3h-9.7l-4.3-82c0 0-6.5 0-12.9-2.2S403 775.5 403 775.5l-1.1 5.1"/>
  <path class="st0" d="M176.4 611.5c0 0 10.8-35.6 15.1-41s17.3-17.3 23.7-18.3c6.5-1.1 16.2-3.2 16.2-3.2l1.1 38.8c0 0-8.6 6.5-14 11.9s-5.4 5.4-5.4 5.4L176.4 611.5zM463.4 676.2c0 0-22.7 2.2-27 8.6-4.3 6.5-11.9 4.3-14 19.4-2.2 15.1-16.2 50.7-16.2 50.7l57.2-31.3V676.2zM150.2 626.8c-2.2-1.4-6.5.7-6.5.7l-26.6 83.2c0 0 7.6 10.8 18.3 19.4 10.8 8.6 35.6 27 35.6 27s4.3-4.3 9.7-2.2c5.4 2.2 141.3 92.8 146.7 99.3s24.8 23.7 34.5 24.8 9.7 1.1 9.7 1.1l35.6-88.5c0 0 1.1-13.3-1.5-14.9 0 0 1.4 7.2-9.6 4.3-11.1-2.9-14.9-8.7-19.2-16.8 0 0-206.5-124.8-209.7-125.9M357.9 653.1c1.6 3.1 17.3 36.6 41.1 48.1M383.5 647.7c0 0 10.9 29.5 24.1 31.8M429.3 694.2c1.6 2.3 21.5 8.8 32.9 9.4M420 716c0 0 21.7 13.2 32.6 13.2M753.6 525.3c0 0 78.8-115.2 160.6-87.9 81.8 27.3 87.2 126.3 76.9 181C977 693.6 946 752 907.1 796.1c-40.1 45.6-100 79.8-156.6 51.5C694 819.3 675.8 722.3 699 639.5 722.3 556.6 754.6 530.4 753.6 525.3z"/>
  <path class="st0" d="M905.1 452.6c0 0 70.7 18.2 72.7 112.1 2 94-54.4 183.4-76.8 215.2-7.6 10.8-50.5 52.5-80.8 61.6s-99 5.1-111.1-76.8 21.2-191.9 65.7-241.4S881.3 446.5 905.1 452.6zM820.7 395.5c0 0 9.7-30.8 9.7-41.9s-5.7-19-11.8-19"/>
  <path class="st0" d="M820.3 318.3c0 0 14.2-4.6 21.2 9.1 5 9.8 6.7 8.1 4 22.2-5 26.5-9.4 41.1-9.4 41.1M812.2 344.5c-1.9 2.4-141.4 29.3-141.4 29.3s-11.1 6.1-18.2 15.2c-7.1 9.1-15.2 11.1-22.2 10.1-7.1-1-27.3-5.1-26.3-14.1 1-9.1 12.1-29.3 23.2-37.4 11.1-8.1 160.6-41.4 160.6-41.4s9.1-5.1 20.2-1c11.1 4 12.1 11.1 12.1 20.2S816.2 339.4 812.2 344.5zM274 392.9c0 0-1.4-15.2.5-20.4 1.9-5.2 17.6-19.9 27.1-28s54.6-50.8 59.3-52.7 5.7-6.4 13.8-6.4c0 0-22.3 70.5-31.4 85-7.1 11.3-8.2 12.1-26.9 16.5-17.9 4.2-42.6 8.1-42.6 8.1M584.9 418.2c0 0-22.2-5.1-29.3-7.1s-4.5-5-14.4-14.9c-4.9-4.9-3.9-12.4-11.3-13.2-17.8-1.8-24.8 11.1-30.9 11.9-6.3.8-51.6 14.5-70.7 19.2-14.7 3.6-81.8 23.2-97 24.2s-60.6 9.1-70.7 12.1-6.1 9.1-7.1 14.1c-1 5.1 15.2 12.1 23.2 15.2 8.1 3 35.4 11.1 50.5 18.2s71.7 34.3 76.8 37.4c0 0 30.2 21 44.3 26.4 14 5.4 24.8 10.8 39.9 14 13.4 2.9 22.4 4.9 31.8 4.2 1.2-.1 9.8-2.1 16.1-4.1"/>
  <path class="st0" d="M794.2 303.9c0 0-7.3.2-12.4-4.8-5.1-5.1-5.1-10.1-6.1-19.2s3-23.2 3-35.4 6.1-9.1 17.2-14.1c11.1-5.1 12.1 5.1 22.2 2 10.1-3 10.1-1 10.1-1s4-11.1 2-22.2S837.4 97 837.4 97s0 0-11.1 0-17.2 0-28.3-1-8.1-5.1-14.1-3c-6.1 2-7.1 1-13.1 3-6.1 2-45.5-6.1-58.6-9.1s-92.9-14.1-103-22.2-13.1-6.1-20.2-6.1-40.4-3-40.4-3-3 6.1-4 20.2-6.1 100-6.1 100 9.1 1 18.2 5.1c9.1 4 6.1 6.1 9.1 16.2 3 10.1 8.1 22.2 6.1 30.3s-2 14.1-9.1 16.2c-7.1 2-29.3-4-29.3-4l2.4 50.7c0 0 13.1 3 17.1 3.8 7.1 1.3 6.4 1.8 6.4 8.8 0 2.3-4.6 42.8-4.6 42.8h-13.1l-4-23.2-24.3-60.7M556.6 180.8L552.5 243.2M551.2 293.3L552.1 344.6M542.4 177.8L538.3 240.2M801.1 233.4L793.8 303.7M822.3 234.4c0 13.1-8.1 73.7-8.1 73.7"/>
  <path class="st0" d="M552.5 55.6c0 0 6.1-11.1 13.1-18.2 7.1-7.1 15.2-10.1 15.2-10.1s5.1-1 9.1 3 4 4 4 4-4 3-8.1 10.1-7.1 14.1-7.1 14.1M813 96.3c0 0 18.6-26.6 23.8-30.4 5.2-3.8 10-5.7 10-5.7s-.6-4.8 5.8-4.1c7.5.8 8.3 6 8.6 10.7.5 9.4-4.9 12.4-4.9 12.4s-10.9 5.7-14.2 8.1-6.6 4.5-7.4 9"/>
  <path class="st0" d="M836.3,65.2c0,0-4-11,9.1-15.9c7.8-2.9,18.5-7.6,23.3-7.1c4.7,0.5,10,7.1,11.4,10.4c1.4,3.3,43.3,1.9,43.3,1.9 s12.2-0.4,13.6,6.2s0.5,14.1-0.9,19.5c-1.7,6.2-4.3,10.4-10.4,9.5c-6.2-0.9-10.4-9-10.4-9l-42.2-0.9c0,0-1.9,11.9-0.9,14.7 c0.9,2.8,1,8.3,7.6,9.5c4.3,0.8,8.9,1.3,14.3,4.7c7.5,4.8,22.2,23.1,21.7,27.3s1.9,5.9-3.3,7.8s-9.5,1.9-9.5-2.4s1.3-4.2-0.5-8.5 c-1.5-3.6-6-9.7-13-14c-6.9-4.3-11.7-7.8-12.6-4c-0.9,3.8,0.5,7.1-2.8,9.5s-22.3,14.7-24.2,15.7s-14.7-0.9-15.2-3.3"/>
  <path class="st0" d="M842.1 87.2c0 0-2.7 2.5.7 7.7s2.7 6.5 3.2 12.3c.5 5.9-4 14.7-10.2 16.3M605.3 61.1l-.9-13.8 46.5-.9c0 0-3.3 4.3 2.8 6.6s9.5 5.7 12.8-1.9 4.3-19.5-.9-23.7c-5.2-4.3-50.8-3.8-50.8-3.8s1.4-4.7-2.8-6.2c-4.3-1.4-8.5-1.4-11.4 0-2.8 1.4-2.8-1.9-7.1-1.4s-9 6.3-12.6 11.2M259.8 449.8c0-8.1-1.4-64.1-1.4-68.3 0-4.3 3.3-22.4 14.2-31.8 10.6-9.2 53.7-48.9 53.7-48.9M829.6 361.2L809.3 362.9M823.7 381.8L811.8 387.3M839.2 418L835 448.5M779.1 547.4l.9 17.3c0 0 6.1 0 6.1 4.3s-7 109-7 109l-70.7 31.7"/>
  <path class="st0" d="M707.4 729c8.6-2.6 97.8-41.2 97.8-41.2l-.2-19.3c0 0 .1-7.2.3-17.6.5-26.1 1.4-72.6 1.4-77.5 0-6.9 13-8.6 18.2-13 5.2-4.3 9.5-14.7 6.1-28.5-3.5-13.8-1.7-16.4-1.7-16.4l3.2-39.8M689.5 738L669.3 747.1M690.1 715.5c-10.4 4.3-22.5 10.5-22.5 10.5M657.2 585.4L485.1 643v9.6c0 0 4-4 8 0s4.8 15.3 4.8 15.3l-11.3 7.2V688l-.6 40c0 0 16.2 4.3 17.3 9.7 1.1 5.4 1.1 10.8-4.3 15.1s-5.4 4.3-5.4 4.3l0 0-1.1 24.8c0 0 6.5-3.2 12.9 0s6.5 3.2 6.5 3.2l85.1-29.3c0 0 24-11.7 34.4-16M770.5 528.4l17.3-5.2c0 0 6.9.9 6.9 7.8 0 6.9 4.3 13-6.1 13.8S753.2 556 753.2 556M731.6 562.1c-3.5 0-41.4 15.9-41.4 15.9M748.5 533.5L705 550.3M528.9 300.1L538.8 300.2 539.2 291.2"/>
  <path class="st0" d="M613 602.3c0 0-5.5 65.1-101.9 99.4 0 0-22 4.9-25.9 2.6M121.5 767.4L135.1 730.7M118.8 715.2L104.5 761.9M96.3 846.4c5.6.3 93.9 10.9 97 9.3 3.1-1.6 5.4-11.6 2.3-16.3-3.1-4.7-70-42-70-42s-3.2-2-6.3-2.8c-3.1-.8 3.1-26.9 3.1-26.9s-18.7-3.1-19.5-7.7c-.4-2.8-69.6-9.1-69.6-9.1s-4.7 3.9-6.2 10.1-4.7 23.3-4.7 23.3L10 783.5c0 0-7 10.1-4.7 14.8s62.9 39.6 62.9 39.6S81.6 845.6 96.3 846.4zM339.3 918.6c0 0 7-5.4 12.4 3.1s-3.1 49.7-13.2 49.7-73 7-76.9 4.7-11.6-9.3-11.6-9.3-21.7 4.7-24.1 3.1c-2.3-1.6-82.3-61.3-82.3-61.3s-9.3-10.9-4.7-19.4c4.7-8.5 3.9-13.2 14.8-13.2s90.1 3.1 90.1 3.1 34.2 15.5 45.8 25.6c11.6 10.1 18.6 15.5 18.6 15.5L339.3 918.6zM219 779.6c0 0 0 27.2 10.9 37.3s24.1 26.4 62.1 14M144.4 627.1c0 0 5.4 15.1 12.4 15.8 7 .8 10.3-5.4 10.3-5.4 10.1-5.4 50.2-14.8 50.2-14.8s4.7 4.7 10.1 3.9c5.4-.8 5.4-.8 5.4-.8l0 0 3.9 21 .8 31.8M250.8 567.7l1.6 27.9c0 0 7-4.7 13.2-8.5 6.2-3.9 14-10.1 15.5-4.7 1.6 5.4-3.1 14.8-3.1 19.4 0 4.7-4.7 1.6-9.3 3.9-4.7 2.3-8.5 7.8-7.8 13.2.8 5.4-7 1.6-7 1.6l7.8 44.3 274.6-87.6M461.2 622c-3.1.8-198 56.7-198 56.7l.8 17.1c0 0 17.9-9.3 34.9-10.9 17.1-1.6 44.3 8.5 52 37.3 0 0 2.3 18.6 2.3 23.3"/>
  <path class="st0" d="M487.6 725.3c0 0 21.7 0 44.4-9.7 103.7-44.2 106.9-121.8 106.9-121.8M606.7 427.5L623 433.7M335.4 918L350 871.4M367.4 879.6L352.8 927.1M535.5 841.2c0 0 33.8-40.2 71.3-25.6s42.9 56.6 15.5 106.9c-27.4 50.3-50.3 59.4-68.5 61.2-18.3 1.8-74 4.6-50.3-94.1"/>
  <path class="st0" d="M488,845.8c0,0-9.1,2.7-9.1,11c0,8.2-0.9,11.9,5.5,16.4c6.4,4.6,22.8,24.7,31.1,24.7c8.2,0,9.1-4.6,18.3-4.6 s31.1,8.2,34.7,16.4s10.1,16.4,19.2,11c9.1-5.5,17.4-25.6,4.6-36.5s-28.3-15.5-37.5-21.9c-9.1-6.4-26.5-28.3-26.5-28.3"/>
</svg>
