<!--
	https://github.com/Duxxie/duxxie-images
	This work is licenced by https://creativecommons.org/licenses/by-sa/4.0/
-->
<svg version="1.1" id="rolstoel-beensteun-gips-svg" xmlns="http://www.w3.org/2000/svg" x="0px" y="0px" width="1000px" height="1000px" viewBox="0 0 1000 1000" xml:space="preserve">
  <style>
    #rolstoel-beensteun-gips-svg .st0{fill:none;stroke:currentColor;stroke-miterlimit:10;}
  </style>
  <path class="st0" d="M209.8,702.7c0,0,9.1,6.3,12.5,4.1c3.4-2.3,5.6-9-4.5-22.5c-10.1-13.5-19.1-12.4-29.3-12.4	c-10.1,0-46.7-4.3-58.5-5.6c-11.1-1.4-47.3-27.2-61.8-39.7c-17.6-15.1-23.8-26.9-30.2-34.1c-4.7-5.3-11.6-1-11.6-1	c-0.7-7,27.5-11.6,35.4-12.9c6.6-1.2,641.4-165.5,671.8-170c30.4-4.5,33.8-5.6,47.3,2.3s36,20.3,46.2,24.8	c10.1,4.5,56,16.3,67.2,19.7s36,8.7,50.8,6.3c6-1,18.4-0.6,26.1,4.4c9.8,6.4,15.1,22.3,14,23.5c-8.9,8.9-23,13.6-23,13.6	s-0.2-2.7-7.4-6.1c-5.9-2.7-22.1-1.8-36,2.4c-18.5,5.5-695.3,207.4-695.3,207.4"/>
  <path class="st0" d="M36.8 591.1c0 0-18.2 2.8-19.8 1.9-5.6-3.2-10.1-2.3-11.4 5.3-1.2 7.5-1.2 20.5 6.9 21.7s11.3-1.9 14.4-3.5c2.8-1.4 25.1-7.2 25.1-7.2M208.3 675.1l-26.7 5.1c0 0-6.1 7.8-2.8 17.6 3.2 9.3 7.1 11.9 11.5 11.9 4.4 0 33.9-14.7 33.9-14.7M751.6 549.7c0 2.5-1.2 65.3-1.2 65.3l18.7 8.1 16.8-5.6 3.2-79.7M837.5 526c4.4 1.2 116.4 38.6 116.4 38.6L947 688.5l18.7 9.3 18-6.2L995 545.4c0 0-.7-6.9-3.2-8.1-2.5-1.2-2.5-1.2-2.5-1.2s-.7-6.9-1.2-19.3c-.6-12.4 1.2-21.6-5-25.3"/>
  <path class="st0" d="M965.1 502.5c0 0 2.4 11.1.6 23.2-1 6.5-1.8 8.7-1.8 8.7l-73.5-25.1M769 623.1L772.2 543.5M965.7 697.9l10.6-150c0 0-3.7-3.7-8.1-5s-90.9-29.3-90.9-29.3M194.7 672.1c0 0 .2 3.2 1.4 4.6M36.6 613.8c0 0 9.3 7.2 15.4 8.1 6.2.9 11.4 1.6 12.3 1.6"/>
</svg>
