<?xml version="1.0" encoding="utf-8" ?>
<!--
	https://github.com/Duxxie/duxxie-images
	This work is licenced by https://creativecommons.org/licenses/by-sa/4.0/
-->
<svg version="1.1" id="rolstoel-kind-svg" xmlns="http://www.w3.org/2000/svg" xmlns:xlink="http://www.w3.org/1999/xlink" x="0px" y="0px" width="1000px" height="1000px" viewBox="0 0 1000 1000" style="enable-background:new 0 0 1000 1000;" xml:space="preserve">
	<style type="text/css">
	#rolstoel-kind-svg .st0{fill:none;stroke:currentColor;stroke-linecap:round;stroke-linejoin:round;stroke-miterlimit:10;}
</style>
	<g id="Laag_1_1_">
		<g id="Laag_9_kopie">
			<path class="st0" d="M696.5,579.2l-84,31.6c0,0-0.8-74.8-0.8-82.5c0-7.8,2.3-10.1,8.6-20.3c6.2-10.1,44.6-46.5,50.9-51.9" />
			<path class="st0" d="M948.5,578.7c0.8-86.4-38.7-118.5-65.4-127.5c-37.9-12.9-65.2,0.5-65.2,0.5s-84.2,28.6-126.8,142
			c-33.8,89.9-28.1,163.5,10.1,204c38.2,40.5,109.2,30.7,156.9-14.7" />
			<path class="st0" d="M914.1,499.3c-1.9-4.8-23.7-30-43.8-32.8c-23.4-3.3-63.1,0.3-94.3,31.4s-79.5,107.4-81,167.4
			s7.8,98.1,19.5,113.7c11.7,15.6,32.5,38.8,77.7,29.2" />
			<path class="st0" d="M917.4,524.5c3.8,4.3,11.3,39.6,9.6,69.9c-1.4,26.3-2.5,40.9-17.9,74.8c-15.6,34.5-26.1,59.3-47.5,87.4
			c-13.2,17.3-26.9,28.7-52.3,41.2" />
			<path class="st0" d="M575.3,339.5l-1.5-10.3l-13.2-4c0,0-97.7,11.7-103.9,14.3c-6.2,2.5-22.8,14-26.8,19.9s-9.8,11-5.4,16.2
			s9.2,4.9,13.3,5c5.9,0.2,14.5-10.7,18.2-14c3.6-3.3,8.9-6.8,13-5.9c2.5,0.5,2,5.5,1.7,7.6" />
			<path class="st0" d="M592.8,339.4c0,0-10.2-1-13.8-0.6s-5.7-0.5-5.7,3c0,2.9,0.5,6.9,2.9,6.8c2.5-0.2,16.8-1.8,16.8-1.8" />
			<polyline class="st0" points="604.2,458.1 621.9,457.5 637.2,466.2 		" />
			<path class="st0" d="M672.6,455.5c0,0-2.7,6.7-7.4,20s-6.6,16.6-8.6,28c-2,11.3,0.7,16-11.3,20s-33.5,4.8-33.5,4.8" />
			<path class="st0" d="M809.4,412.4l0.3,13.8c0,0-4.7-1.4-5.4,3.3c-0.7,4.7-0.4,8.8,2.3,14.3c3.9,8.1,4.5,10.9,4.5,10.9" />
			<path class="st0" d="M466,547.1c0,0-0.6,13.6-1.2,20.4s0.6,10.6,0.6,12.4c0,0,2,38.6,7.4,47.6" />
			<path class="st0" d="M441.8,535.4c0,0-4.9,29.1,0,54.5c0,0,7,40.1,11.2,45.5" />
			<path class="st0" d="M440.6,581.8c0,0-7.4,0-13-3.1s-5.5-4.9-6.8-11.2c-1.2-6.2-1.8-7.4-0.6-15.5c1.2-8.1,4.3-9.9,4.3-9.9
			l-49.6,10.6l0.6,34.1" />
			<path class="st0" d="M388.6,516.1l1.8,18.6l-17.3,3.1l0.6-7.4c0,0,0,0-4.9-3.1s-9.9,1.2-9.9,1.2l0.6,25.4l2,19.9" />
			<polyline class="st0" points="413.9,525.4 414.5,532.8 427.6,529.7 		" />
			<path class="st0" d="M652.9,449.7c0,0-28.8,32.7-39.7,39.7s-14,28.1-14.8,31.9c-0.8,3.9-3.1,60-3.1,63.8l0.1,17.7l-1.2,8
			l-36.7,12.5" />
			<path class="st0" d="M490.8,684.5c1.7-2.5,7.7-22.2,25.9-29c0,0,0,0,3.1-1.8s19.2-6.8,19.2-6.8v-9.3l-0.6-20c0,0-0.8-2.3,5.1-3.1
			c5.9-0.8,12.1-1.2,12.9,2.7s-0.6,26-0.6,26" />
			<path class="st0" d="M670.5,734c-4.7,2-14.2,5.2-14.2,5.2l-73.1,32.7l1.7,17.5c0,0,2.5,4.2-1.7,9.9c-4.2,5.8-14.1,10.8-20,5.9
			c-5.9-5-6.6-13.3-6.6-13.3h-7.5l-3.3-63.2c0,0-5,0-9.9-1.7" />
			<path class="st0" d="M457.8,650.9c1.2,2.4,13.3,28.2,31.7,37.1" />
			<path class="st0" d="M477.5,646.7c0,0,8.4,22.7,18.6,24.5" />
			<path class="st0" d="M512.8,682.6c1.2,1.8,16.6,6.8,25.4,7.2" />
			<path class="st0" d="M505.6,699.4c0,0,16.7,10.2,25.1,10.2" />
			<path class="st0" d="M762.8,552.4c0,0,60.7-88.8,123.8-67.8c63,21,67.2,97.3,59.3,139.5c-10.9,58-34.8,103-64.7,137
			c-30.9,35.1-77.1,61.5-120.7,39.7c-43.5-21.8-57.6-96.6-39.7-160.4C738.6,576.5,763.5,556.3,762.8,552.4z" />
			<path class="st0" d="M879.5,496.4c0,0,54.5,14,56,86.4c1.5,72.5-41.9,141.4-59.2,165.9c-5.9,8.3-38.9,40.5-62.3,47.5
			c-23.4,7-76.3,3.9-85.6-59.2s16.3-147.9,50.6-186.1C813.4,512.7,861.2,491.7,879.5,496.4z" />
			<path class="st0" d="M814.5,452.3c0,0,7.5-23.7,7.5-32.3s-4.4-14.6-9.1-14.6" />
			<path class="st0" d="M814.2,392.8c0,0,10.9-3.5,16.3,7c3.9,7.6,5.2,6.2,3.1,17.1c-3.9,20.4-7.2,31.7-7.2,31.7" />
			<path class="st0" d="M807.9,413c-1.5,1.8-109,22.6-109,22.6s-8.6,4.7-14,11.7c-5.5,7-11.7,8.6-17.1,7.8c-5.5-0.8-21-3.9-20.3-10.9
			c0.8-7,9.3-22.6,17.9-28.8s123.8-31.9,123.8-31.9s7-3.9,15.6-0.8s9.3,8.6,9.3,15.6S811,409.1,807.9,413z" />
			<path class="st0" d="M393.1,450.3c0,0-1.1-11.7,0.4-15.7s13.6-15.3,20.9-21.6c7.3-6.2,42.1-39.2,45.7-40.6
			c3.6-1.5,4.4-4.9,10.6-4.9c0,0-17.2,54.3-24.2,65.5c-5.5,8.7-6.3,9.3-20.7,12.7C412,449,393,452,393,452" />
			<path class="st0" d="M632.7,469.8c0,0-17.1-3.9-22.6-5.5c-5.5-1.5-3.5-3.9-11.1-11.5c-3.8-3.8-3-9.6-8.7-10.2
			c-13.7-1.4-19.1,8.6-23.8,9.2c-4.9,0.6-39.8,11.2-54.5,14.8c-11.3,2.8-63,17.9-74.8,18.7c-11.7,0.8-46.7,7-54.5,9.3
			s-4.7,7-5.5,10.9s11.7,9.3,17.9,11.7c6.2,2.3,27.3,8.6,38.9,14c11.6,5.5,55.3,26.4,59.2,28.8c0,0,23.3,16.2,34.1,20.3
			c10.8,4.2,19.1,8.3,30.8,10.8c10.3,2.2,17.3,3.8,24.5,3.2c0.9-0.1,7.6-1.6,12.4-3.2" />
			<path class="st0" d="M794.1,381.7c0,0-5.6,0.2-9.6-3.7c-3.9-3.9-3.9-7.8-4.7-14.8s2.3-17.9,2.3-27.3s4.7-7,13.3-10.9
			s9.3,3.9,17.1,1.5c7.8-2.3,7.8-0.8,7.8-0.8s3.1-8.6,1.5-17.1c-1.5-8.6,5.5-86.5,5.5-86.5s0,0-8.6,0s-13.3,0-21.8-0.8
			c-8.6-0.8-6.2-3.9-10.9-2.3c-4.7,1.5-5.5,0.8-10.1,2.3c-4.7,1.5-35.1-4.7-45.2-7c-10.1-2.3-71.6-10.9-79.4-17.1
			c-7.8-6.2-10.1-4.7-15.6-4.7s-31.1-2.3-31.1-2.3s-2.3,4.7-3.1,15.6c-0.8,10.9-4.7,77.1-4.7,77.1s7,0.8,14,3.9s4.7,4.7,7,12.5
			s6.2,17.1,4.7,23.4c-1.5,6.2-1.5,10.9-7,12.5c-5.5,1.5-22.6-3.1-22.6-3.1l1.8,39.1c0,0,10.1,2.3,13.2,2.9c5.5,1,4.9,1.4,4.9,6.8
			c0,1.8-3.5,33-3.5,33h-10.1l-3.1-17.9l-18.7-46.8" />
			<line class="st0" x1="610.9" y1="286.9" x2="607.8" y2="335" />
			<line class="st0" x1="606.8" y1="373.6" x2="607.5" y2="413.1" />
			<line class="st0" x1="600" y1="284.6" x2="596.8" y2="332.6" />
			<line class="st0" x1="799.4" y1="327.4" x2="793.8" y2="381.6" />
			<path class="st0" d="M815.7,328.2c0,10.1-6.2,56.8-6.2,56.8" />
			<path class="st0" d="M607.8,190.4c0,0,4.7-8.6,10.1-14c5.5-5.5,11.7-7.8,11.7-7.8s3.9-0.8,7,2.3s3.1,3.1,3.1,3.1s-3.1,2.3-6.2,7.8
			c-3.2,5.5-5.5,10.9-5.5,10.9" />
			<path class="st0" d="M808.6,221.7c0,0,14.3-20.5,18.3-23.4s7.7-4.4,7.7-4.4s-0.5-3.7,4.5-3.2c5.8,0.6,6.4,4.6,6.6,8.2
			c0.4,7.2-3.8,9.6-3.8,9.6s-8.4,4.4-10.9,6.2s-5.1,3.5-5.7,6.9" />
			<path class="st0" d="M826.5,197.8c0,0-3.1-8.5,7-12.3c6-2.2,14.3-5.9,18-5.5c3.6,0.4,7.7,5.5,8.8,8s33.4,1.5,33.4,1.5
			s9.4-0.3,10.5,4.8s0.4,10.9-0.7,15c-1.3,4.8-3.3,8-8,7.3c-4.8-0.7-8-6.9-8-6.9L855,209c0,0-1.5,9.2-0.7,11.3
			c0.7,2.2,0.8,6.4,5.9,7.3c3.3,0.6,6.9,1,11,3.6c5.8,3.7,17.1,17.8,16.7,21c-0.4,3.2,1.5,4.5-2.5,6s-7.3,1.5-7.3-1.8
			c0-3.3,1-3.2-0.4-6.6c-1.2-2.8-4.6-7.5-10-10.8c-5.3-3.3-9-6-9.7-3.1s0.4,5.5-2.2,7.3c-2.5,1.8-17.2,11.3-18.7,12.1
			c-1.5,0.8-11.3-0.7-11.7-2.5" />
			<path class="st0" d="M831,214.7c0,0-2.1,1.9,0.5,5.9s2.1,5,2.5,9.5s-3.1,11.3-7.9,12.6" />
			<path class="st0" d="M648.5,194.6l-0.7-10.6l35.8-0.7c0,0-2.5,3.3,2.2,5.1s7.3,4.4,9.9-1.5c2.5-5.9,3.3-15-0.7-18.3
			s-39.2-2.9-39.2-2.9s1.1-3.6-2.2-4.8c-3.3-1.1-6.6-1.1-8.8,0s-2.2-1.5-5.5-1.1s-6.9,4.9-9.7,8.6" />
			<path class="st0" d="M382.2,494.2c0-6.2-1.1-49.4-1.1-52.6c0-3.3,2.5-17.3,10.9-24.5c8.2-7.1,41.4-37.7,41.4-37.7" />
			<line class="st0" x1="821.4" y1="425.9" x2="805.7" y2="427.2" />
			<line class="st0" x1="816.8" y1="441.8" x2="807.6" y2="446" />
			<line class="st0" x1="828.8" y1="469.7" x2="825.5" y2="493.2" />
			<path class="st0" d="M782.4,569.4l0.7,13.3c0,0,4.7,0,4.7,3.3s-5.4,84-5.4,84l-54.5,24.4" />
			<path class="st0" d="M727.2,709.4c6.6-2,75.4-31.8,75.4-31.8l-0.2-14.9c0,0,0.1-5.5,0.2-13.6c0.4-20.1,1.1-56,1.1-59.7
			c0-5.3,10-6.6,14-10c4-3.3,7.3-11.3,4.7-22c-2.7-10.6-1.3-12.6-1.3-12.6l2.5-30.7" />
			<line class="st0" x1="713.4" y1="716.3" x2="697.8" y2="723.3" />
			<path class="st0" d="M713.8,699c-8,3.3-17.3,8.1-17.3,8.1" />
			<path class="st0" d="M688.5,598.7l-132.6,44.4v7.4c0,0,3.1-3.1,6.2,0c3.1,3.1,3.7,11.8,3.7,11.8l-8.7,5.5v9.9l-0.5,30.8
			c0,0,12.5,3.3,13.3,7.5s0.8,8.3-3.3,11.6s-4.2,3.3-4.2,3.3l0,0l-0.8,19.1c0,0,5-2.5,9.9,0s5,2.5,5,2.5l65.6-22.6
			c0,0,18.5-9,26.5-12.3" />
			<path class="st0" d="M775.8,554.8l13.3-4c0,0,5.3,0.7,5.3,6s3.3,10-4.7,10.6s-27.3,8.6-27.3,8.6" />
			<path class="st0" d="M745.8,580.8c-2.7,0-31.9,12.3-31.9,12.3" />
			<line class="st0" x1="758.8" y1="558.7" x2="725.3" y2="571.7" />
			<polyline class="st0" points="589.6,378.8 597.2,378.9 597.5,372 		" />
			<path class="st0" d="M654.4,611.7c0,0-4.2,50.2-78.5,76.6c0,0-17,3.8-20,2" />
			<path class="st0" d="M443.4,855.5c0,0,5.4-4.2,9.6,2.4c4.2,6.6-2.4,38.3-10.2,38.3c-7.8,0-56.3,5.4-59.3,3.6
			c-3-1.8-8.9-7.2-8.9-7.2s-16.7,3.6-18.6,2.4c-1.8-1.2-63.4-47.2-63.4-47.2s-7.2-8.4-3.6-15s3-10.2,11.4-10.2s69.4,2.4,69.4,2.4
			s26.4,11.9,35.3,19.7s14.3,11.9,14.3,11.9L443.4,855.5z" />
			<path class="st0" d="M375.2,585.1l1.2,21.5c0,0,5.4-3.6,10.2-6.6c4.8-3,10.8-7.8,11.9-3.6c1.2,4.2-2.4,11.4-2.4,15s-3.6,1.2-7.2,3
			s-6.6,6-6,10.2s-5.4,1.2-5.4,1.2l6,34.1l211.7-67.5" />
			<path class="st0" d="M537.4,626.9c-2.4,0.6-152.6,43.7-152.6,43.7" />
			<path class="st0" d="M557.8,706.5c0,0,16.7,0,34.2-7.5c79.9-34.1,82.4-93.9,82.4-93.9" />
			<line class="st0" x1="649.5" y1="477" x2="662.1" y2="481.8" />
			<line class="st0" x1="440.4" y1="855.1" x2="451.7" y2="819.2" />
			<line class="st0" x1="465.1" y1="825.5" x2="453.9" y2="862.1" />
			<path class="st0" d="M594.7,795.9c0,0,26.1-31,55-19.7s33.1,43.6,11.9,82.4c-21.1,38.8-38.8,45.8-52.8,47.2
			c-14.1,1.4-57,3.5-38.8-72.5" />
			<path class="st0" d="M558.1,799.4c0,0-7,2.1-7,8.5c0,6.3-0.7,9.2,4.2,12.6c4.9,3.5,17.6,19,24,19c6.3,0,7-3.5,14.1-3.5
			s24,6.3,26.7,12.6s7.8,12.6,14.8,8.5c7-4.2,13.4-19.7,3.5-28.1c-9.9-8.4-21.8-11.9-28.9-16.9c-7-4.9-20.4-21.8-20.4-21.8
			s-1.5-6.3-4.4-5.2" />
		</g>
		<path class="st0" d="M422.8,713c-13.5-3.6-31.7-28.6-31.7-28.6s-2.3-5.8-5.2-4.7" />
		<path class="st0" d="M364.1,688c0,0-10,4.9-10,11.3c0,6.3-0.7,9.2,4.2,12.6c4.9,3.5,13.7,19.6,20.1,19.6c6.3,0,7-3.5,14.1-3.5
		s18.3,3.7,23,8.4" />
		<path class="st0" d="M440.4,855.1l11.3-35.9l22.6-80c-0.5,3.4,15-52.1,16.6-54.6c1.7-2.5,7.7-22.2,25.9-29" />
		<path class="st0" d="M535.9,726.9c-4.9-1.7-43.3,18.3-43.3,18.3l-2.5,5.9l-24.9,74.3L453.9,862" />
		<path class="st0" d="M538.8,668.7c-2.3-0.4-17.3,4.2-17.3,4.2c-6,3.3-11.1,7.3-14,17.4c-1.7,11.6-12.5,39.1-12.5,39.1l44.1-24.1
		C539.1,705.2,541.1,669.1,538.8,668.7z" />
		<path class="st0" d="M443.4,855.5c0,0,5.4-4.2,9.6,2.4c4.2,6.6-2.4,38.3-10.2,38.3c-7.8,0-56.3,5.4-59.3,3.6
		c-3-1.8-8.9-7.2-8.9-7.2s-16.7,3.6-18.6,2.4c-1.8-1.2-63.4-47.2-63.4-47.2s-7.2-8.4-3.6-15s3-10.2,11.4-10.2s69.4,2.4,69.4,2.4
		s26.4,11.9,35.3,19.7s14.3,11.9,14.3,11.9L443.4,855.5z" />
		<path class="st0" d="M356.3,712.5c0,0-22.3,33.8,2.8,64.7c7.2,8.9,17.5,14.9,41.4,10.7" />
		<path class="st0" d="M388.5,679.7c22.9-13,57.2-0.7,63.2,21.5" />
		<path class="st0" d="M478.5,724.3c0,0,1.8-6.8-3.9-12.3c-5.7-5.5-18.3-10.2-26.9-10.4c-5.2-0.2-16.9,1-23.1,6.8
		c-1.9,1.8-3.4,4.1-3.9,7.1c-2.2,12.7-23.1,80.2-23.2,85.8c-0.1,3.7-0.3,18.1,12.6,26.5s33.6,4,37.6,1" />
		<path class="st0" d="M420.8,713.8c0,0,7.2-9.2,19.6-5.8c4.8,1.3,18,4.1,22,6.1c4.6,2.3,6,3.6,6.2,9.8c0.1,6.2-23.7,96.5-23.7,96.5
		s-2.3,5.7-11.5,7.6c-7.3,1.5-25.3-2.5-31-8.7" />
		<g>
			<path class="st0" d="M361.5,573.9c0,0-11.5-17.1-24.9-18.2c-12.4-1.1-25.8-0.3-37.3,11.6c-5.7,5.9-13.3,21.6-13.3,21.6" />
			<path class="st0" d="M300.1,591.7c8.2-14.2,14.7-17.8,19.2-20.6c7.8-5,13-3,23.5,2.5c11.6,6.1,17,17.8,17,17.8l0.8,23.2
			c-0.6-1.2-18.8-5.2-22.8-6.5c-4.4-1.4-16.4,0.7-18.9,0.7" />
			<path class="st0" d="M139.2,615.3c5.9,5.9,54.7,6.6,61.4,6.6s120.2-3.3,120.2-3.3s-2.5-15.8-5.8-19.9c-3.3-4.1-26.5-10.8-36.5-9.1
			s-72.1-4.1-85.4-1.7c-8.3,1.6-25.1,6.7-37.1,10.9c-7.1,2.5-12.6,4.7-13.5,5.7C140,607,134.2,610.4,139.2,615.3z" />
			<path class="st0" d="M144.5,603.2c13.5-2.8,49.5-4.5,54.5-2.8s9,18.5,9,21.9" />
			<line class="st0" x1="316.4" y1="602.3" x2="200" y2="601.3" />
			<path class="st0" d="M165.1,595.2c0,0,3.1-63,2.3-71.1c-0.8-7.5,2.5-43.9-1.7-48.1s-51.6-6.6-61.5-7.2c-19.6-1-34.6-3.5-35.3,4.2
			c-0.7,8.2-0.1,11.3-0.1,11.3s-12.3-2.5-13.9,4.1c-1.7,6.6-9.7,110.8-3.9,112.5s45.2,1.2,57.6,2s29.3,0,34.5,0.7" />
			<path class="st0" d="M98.6,467.2c0,0,0.6-11.6-6.1-13.3c-6.6-1.7-16.9-1.5-18.7,5c-1.1,3.9-0.7,9.7-0.7,9.7" />
			<path class="st0" d="M352.1,611.7c-0.2-1.1-23.2-19.7-23.2-19.7s0-3.2-1.8-6.4s-6.8-8.5-9.3-7.5s-6.8,1.4-5,5.3s6.1,10.3,8.9,11
			s5.3,0.7,5.3,0.7l18.2,14.6" />
			<path class="st0" d="M384.9,669.8l1.7,17.5c0,0,2.6,2.8-2.8,7.5c-3.2,2.8-6.8,4.2-14,2.1c-5.9-5-3.6-8.8-3.6-8.8l-4.4-1.4l-1.1-63
			c0,0-11.6-5.8-22.5-9.5c-4.1-1.4-18.2,0.4-18.2,0.4" />
		</g>
	</g>
</svg>
