<?xml version="1.0" encoding="utf-8" ?>
<!--
	https://github.com/Duxxie/duxxie-images
	This work is licenced by https://creativecommons.org/licenses/by-sa/4.0/
-->
<svg version="1.1" id="rugsteun-svg" xmlns="http://www.w3.org/2000/svg" xmlns:xlink="http://www.w3.org/1999/xlink" x="0px" y="0px" width="1000px" height="1000px" viewBox="0 0 1000 1000" style="enable-background:new 0 0 1000 1000;" xml:space="preserve">
	<style type="text/css">
	#rugsteun-svg .st0{fill:none;stroke:currentColor;stroke-linecap:round;stroke-linejoin:round;stroke-miterlimit:10;}
	#rugsteun-svg .st1{fill:#FFFFFF;stroke:none;}
	#rugsteun-svg .st2{fill:none;}
</style>
	<g id="Laag_7">
		<path class="st0" d="M750.8,392.1c0,0,8.9-7.3,19.2-10.5c3.2-1.1,17.8,12.1,17.5,17.8c-0.5,7.6-14,17.3-14,17.3" />
		<path class="st1" d="M955.9,631.9l34.3,39.9c0,0,7.3,8.9,4,14.8s-10.5,4-10.5,4l-16.5-12.1l-24.3,1.6l-60.4-25.9l33.7-10.3l34,10.3
		l-15.1-17L955.9,631.9z" />
		<path class="st0" d="M956.7,632.5l10.5,12.4l26.7,32.1c0,0,3.2,8.1-2.4,12.4c-4.9,3.8-8.9,1.1-8.9,1.1L968,679.1l-24.5,0.8
		l-82.3-18.9" />
		<path class="st2" d="M209.9,340.3l83.4,0.3l245.2-44.5l63.7-28.9l27.2-3.2l263,286.2l72,77.2c0,0-58.3,20-66.1,23.2
		c-34.8,14.3-360.2,102.5-360.2,102.5s-41.8,12.4-45.3,13.5s-12.4,10-12.4,10s3.2,10.8-0.8,7.8c-7.6-5.7-119-154.3-176.4-225
		c-32.6-40.2-26.4-25.9-26.4-25.9L125.8,355.7l2.2-8.4c0,0,4-10,10-8.9C144.1,340,209.9,340.3,209.9,340.3z" />
		<path class="st1" d="M514.5,777.9c0,0,176.2-58,183.2-58c7,0,220.1-63.9,220.1-63.9l18.1,1.1l-1.1,19.2L570.6,790l-12.1-8.1
		l-39.1,7L514.5,777.9z" />
		<path class="st1" d="M328.1,589.3c0,0-106.6,25.4-109.5,31.3c-3,6.2-39.4,34.3-39.4,34.3L340.2,605L328.1,589.3z" />
		<path class="st1" d="M147.6,638.4l-60.7,14L17,671.3L6,685.9v16.5l15.9,12.1l57.2,14.8l132.2,23.2l189.1,31.6l39.9,11.1l71.8,22.9
		l-25.4-34.3c0,0-5.4,4-12.1-5.7c-3.8-5.4-29.9-41.5-32.9-40.5c-3,1.1-36.4,18.9-36.4,18.9l-29.7-7.3l-1.1-16.2l-8.6-13.2l10-16.7
		l-6.5-5.7l-21.3,7L331.6,729l-13.8-6.7l7-27l-7-6.7l-21.9,8.6l-17.8,23.2l-11.1-6.2l9.4-20.8l-0.3-5.4l-8.1-5.9l-25.1,6.2l-14.8,24
		l-7.3-2.2l-4-8.9l7-20l-6.5-7.8l-19.4,7l-20,22.4l-8.1-3.5l-2.4-11.9l6.7-17.5l-7.3-6.7l-22.1,5.1l-25.1,32.1l-6.2,6.5
		c0,0-10.3,0-16.2,0s-46.7-6.5-46.7-6.5l-15.1-7c0,0,27-12.9,32.9-14c5.9-1.1,42.1-11.1,42.1-11.1L147.6,638.4z" />
		<path class="st1" d="M232.3,259.6c-4,0-114.1,8.9-114.1,8.9L108,272l-7.6,15.1l-1.1,22.7l28.1,37.5l9.7-7.3l15.4-0.5l-25.1-28.6
		l1.6-12.7l8.4-9.4l112.8-8.9L232.3,259.6z" />
		<path class="st1" d="M480.2,226.7c3-1.1,72.8-13.5,72.8-13.5l20.2,5.4l46.7,44.2l-11.1,6.5l-37-31l-10.3-4.6l-29.4,4l-33.2,8.6
		L480.2,226.7z" />
		<path class="st0" d="M567.1,790.6l369.6-116.3c6.2-26.7-20.5-19.7-20.5-19.7l-403.3,123" />
		<polyline class="st0" points="935.6,638.4 951.8,655.1 939.7,652.2 910.8,646.8 	" />
		<path class="st0" d="M115.2,705c-10.8,5.1-21,0-23.2-4.6c-2.4-4.6-4-10.8,0-16.5c4-5.7,182.4-148.6,182.4-148.6
		s23.5-23.2,30.2-19.2c0,0,24.5,14.3,13.8,25.9c-9.2,11.6-66.6,51.8-66.6,51.8l-92.3,75.5" />
		<path class="st0" d="M276.6,533.5L126.3,354.6c0,0,2.2-16.5,13.2-15.6c11.1,0.8,68.5,1.3,99.8,0.8c31.6-0.5,61.8,1.9,62.9-1.6" />
		<path class="st0" d="M146.8,637.6c-53.7,10.5-125.4,32.6-125.4,32.6s-12.1,5.9-14.6,15.4c-0.5,1.9-6.2,13.8,5.9,23.5
		s73.1,21.9,84.7,23.7c11.6,1.9,295.1,53.4,303.2,52.6c8.1-0.8,112.2,33.5,112.2,33.5" />
		<path class="st0" d="M115,664.6c0,0-71,21.9-75.8,27c-0.3,0.3-5.9,2.4,8.1,5.7c17.3,4,28.6,9.4,51.5,8.6" />
		<path class="st0" d="M378,748.5c0,0,23.2,10,31.3,5.9c8.1-4,32.1-17,32.1-17" />
		<path class="st0" d="M521.5,787.9c0,0,19.7-5.9,29.4-7c1.6-0.3,4.3-2.4,12.1,5.9c14.6,15.9,17.3,18.1,10.5,22.7
		c-12.1,8.4-25.9,8.9-25.9,8.9" />
		<path class="st0" d="M302.2,557.2l177.2,226.6c0,0,3,2.2,8.1-0.5" />
		<path class="st0" d="M201.6,678.3c2.2-0.3,14.6-4,14.6-4s2.4-1.9,5.4,1.6c3,3.2,4.6,5.1,3,9.7c-1.6,5.1-7.8,14.3-5.7,18.9
		c2.2,4.6,5.9,8.4,10.5,6.7" />
		<path class="st0" d="M250.7,685.3l15.1-3c0,0,4-1.6,8.4,3.2c3.8,4.3,4,6.2-0.3,12.1c-4.6,6.2-6.2,13.5-3.8,16.7
		c2.4,3.5,8.6,4.6,8.6,4.6" />
		<path class="st0" d="M298.1,695.9l16.7-6.2c0,0,3.8-3.2,8.6,2.7s-3.2,16.2-3,22.1c0.3,5.9-1.6,6.2,2.4,9.7c3,3,7.6,4.3,10.8,3.5" />
		<path class="st0" d="M354,700.5c3.8-0.5,10.5-2.2,12.1-3c0.5-0.3,4-1.6,7,1.6c3.2,3.2,3,5.4-1.1,11.3c-4.3,6.2-7.8,7.3-4.9,12.1
		c3.2,4.9,7.8,6.7,8.4,13.2c0.5,6.5-0.5,12.1-0.5,12.1l-21,10.8" />
		<path class="st0" d="M621.9,263.1c-6.5-3.5-35.3-35.3-44.5-41.8c-6.5-4.6-19.4-8.9-27.5-7.8c-8.1,1.1-68,11.6-68,11.6" />
		<path class="st0" d="M229.9,258.8c0,0-106.6,5.7-114.7,9.4s-8.1,5.7-12.7,13.5c-6.2,10.3-2.4,29.1-2.4,29.1s5.7,10.3,8.6,14.6
		c3,4.3,19.2,22.1,19.2,22.1" />
		<path class="st0" d="M250.1,280.4c0,0-106.8,8.9-110.9,8.1c-4-0.8-17.3,13.8-10.3,25.4c4.3,7.3,22.1,24.8,22.1,24.8" />
		<path class="st0" d="M602.2,268c0,0-22.7-26.4-32.4-30.8s-3-3.8-16.7-2.4c-13.8,1.3-55.6,10.3-55.6,10.3" />
		<path class="st0" d="M166.5,664.3c0,0,8.1,2.2,8.4,6.5c0.3,3.5-1.3,7.6-5.7,13.8c-3.2,4.6-2.4,12.7,4,15.6c3,1.3,7.8,2.2,9.4-0.5
		s9.2-14,11.3-15.9c2.7-2.7,4.6-6.5,8.1-5.1c3.5,1.3,7.8,2.7,8.1,6.2c0,3.5,1.1,6.2-1.6,11.1c-2.7,4.9-4.9,5.1-4.9,10.5
		c0.3,5.7,4,13.5,10.3,14.3c4.6,0.5,6.7,0.5,13.8-6.7c6.2-6.7,3-7,7.6-13.2c5.4-7,6.7-15.6,14.6-14.8c0.8,0-2.2-2.7,4.9,3.2
		c8.1,7.3,4.9,11.3,3.2,17.5s-5.4,6.2-3.8,12.1s9.4,15.9,16.7,10c7.3-5.9,18.6-23.5,21.6-26.7c3.5-3.8,4-8.1,11.1-5.9
		s6.7,4.6,5.4,11.1c-2.7,12.1-5.1,9.2-3.8,19.4c1.1,8.6,0.8,7,6.5,9.7c5.1,2.7,14,4.9,18.9-2.4c4.9-7.3,13.8-24.5,18.6-28.9
		c5.4-4.6,3.2-4.9,5.7-4c5.9,1.9,9.4,2.4,5.7,11.6c-3.5,8.6-10,9.2-5.9,16.7c4,7.6,2.2,7,3.5,12.4c1.3,5.4,2.2,8.1,0,12.4
		c-1.9,4-2.7,4-2.7,4l-235-42.4c0,0-5.4-6.7-4-11.6c1.1-4.9,18.3-23.7,20.8-27c2.4-3,7-10,15.4-10c8.4,0,10,3.2,9.2,7.8
		c-1.1,7.3-3.8,9.4-4,15.6s-2.7,17.8,7,17.8s17-6.5,19.7-8.9" />
		<path class="st0" d="M502.4,763.8c1.9,8.1,48.3,56.7,48.3,56.7s6.7,2.7,0.3,11.1c-6.2,8.1-24.3,7.8-24.3,7.8l-43.4-64.5" />
		<path class="st0" d="M423.9,166.3l123,128.1c0,0,3.5,26.4-0.3,37.5s-204.2,46.9-204.2,46.9s-1.6-0.3-5.1-4
		c-10-10-112-123.6-112-123.6S208,237,201.6,232.4c-4.9-3.2-4.9-0.8-7-3.8c-6.2-9.4,17.8-39.4,17.8-39.4S416.8,161.2,423.9,166.3z" />
		<path class="st0" d="M213.4,191.1c0,0,130.6,147.3,135.4,148.4c4.9,0.8,198-45.1,198-45.1" />
		<line class="st0" x1="343.5" y1="378.9" x2="348.9" y2="339.5" />
		<path class="st0" d="M548.2,293.4c4-5.7,73.9-37.8,85.2-27.8c11.3,10,333.2,363.1,333.2,363.1s-37.8,11.3-48,14.8
		c-43.4,14.8-408.7,116.5-408.7,116.5s-23.7,8.1-26.4,12.4c-1.9,3-1.6,11.3-1.6,11.3" />
		<line class="st0" x1="223.4" y1="618.2" x2="327.8" y2="589.6" />
		<line class="st0" x1="178.9" y1="654.6" x2="338.6" y2="605" />
	</g>
	<g id="Laag_2"></g>
	<g id="Laag_3"></g>
	<g id="Laag_6"></g>
	<g id="Laag_5"></g>
	<g id="Laag_4"></g>
</svg>
