<!--
  https://github.com/Duxxie/duxxie-creative-commons
  This work is licenced by https://creativecommons.org/licenses/by-sa/4.0/
-->
<svg version="1.1" id="scootmobiel-svg" xmlns="http://www.w3.org/2000/svg" x="0px" y="0px" width="1000px" height="1000px" viewBox="0 0 1000 1000" xml:space="preserve">
  <style>
    #scootmobiel-svg .st0{fill:none;stroke:currentColor;stroke-linecap:round;stroke-linejoin:round;stroke-miterlimit:10;}
  </style>
  <path class="st0" d="M870.4,528.5c0,0,26.9,1.9,45.5,35.3c18.6,33.3,21.2,57.7,19.9,62.2c-1.3,4.5-39.7,28.8-43.6,32  c-3.8,3.2-22.4,7.7-26.9,10.3c-4.5,2.6-9,3.2-10.3,6.4S853,683,853,683s28.2-5.8,46.8,2.6c0,0,3.8,1.3,5.8,3.2s22.4-17.3,25-19.9  c2.6-2.6,25.6-17.9,28.8-17.9c3.2,0,10.3,3.2,10.3,11.5c0,8.3-37.2,38.5-37.2,38.5s106.2,65.8,41.7,196.1  c-11.6,23.5-146.9,109.8-210.9-54.5c0,0-12.8,8.3-23.1,11.5c-10.3,3.2-57.7,6.4-126.9-6.4c-69.2-12.8-134.6-19.2-173.1-14.7  s-178.9-24.4-211-27c7.3,23.8-62.4,133.1-151.5,76.2C-30.6,812.7,33.1,672,60.2,663.7c0,0,1.9-34-0.6-35.3c-2.6-1.3-6.4-4.5-7.7-1.3  c-1.3,3.2-5.8,7.7-7.7,9c-1.9,1.3-37.8,17.9-39.1,14.7c-1.3-3.2,16-23.1,19.2-27.6c3.2-4.5,10.3-10.3,10.3-14.1s-1.3-25,1.3-27.6  c2.6-2.6,9-7.1,9-7.1S34.6,542,67.2,522.1l10.3,5.8c0,0,5.8-1.3,12.2-1.3s6.4-14.7,16-15.4c9.6-0.6,9.6-0.6,9.6-0.6l46.1,15.4  l26.3-10.3v-7.1c0,0-23.1-5.1-26.9-7.7s-21.8-51.3-14.7-65.4c7.1-14.1,11.5-14.1,14.7-15.4c3.2-1.3,3.8-5.1,0-7.7  c-3.8-2.6-9.6-17.3-3.2-19.2c6.4-1.9,6.4-1.9,6.4-1.9s-8.3-18.6-6.4-42.3c0,0-9.6-0.6-9.6-3.2c0-2.6,3.2-39.7,2.6-46.1  c-0.6-6.4-12.2-48.1-9.6-122.4c2.6-74.4,5.8-81.4,41.7-92.9s70.5-19.9,94.2,10.9s21.8,44.9,48.1,71.8s57,69.2,55.1,77.6  s56.4,1.9,96.1,5.1c39.7,3.2,57.2,3.5,57.7,7.4c0.6,4.7,0.9,11.1-1.7,10.5c-4.4-1-6.3-0.3-6.6,1.4c-1,5.9-4.9,9.2-12.6,11.1  s-29.7,1-43.2,6.8s-71.1,12.2-78.2,10.9c-7.1-1.3-4,21.3-4,33.2c0,11-25.5,42.6-30.5,41.6c-2.8-0.5,4.4,7.9,4.4,7.9  s53.2-12.8,110.2-3.8s84,16.7,114.1,40.4c0,0,16,17.9-14.1,57.7c0,0-95.5,28.2-112.8,48.1c0,0-9,3.2-6.4,3.8  c2.6,0.6,60.9,5.8,84,26.9s20.5,25,28.8,58.3s15.4,89.7,15.4,89.7s66.2,47.8,110.2,30.1c3.2-1.3,19.2-66,22.4-75  c3.2-9,9.8-74.6,5.8-84c-1.9-4.5,6.4-34,12.2-38.5s-12.2-24.4-11.5-30.8c0.6-6.4,10.9-10.9,7.1-12.2c-3.8-1.3-12.8,3.8-13.5,1.3  c-0.6-2.6,5.7-6.4-1.9-15.4c-3.8-4.5-66-184-65.4-186.5s3.8-10.9,3.2-15.4c-0.6-4.5-1.9-10.3-5.1-12.2c-3.2-1.9-45.5-14.1-53.2-17.3  c-7.7-3.2-14.7-9-14.7-9l-21.2,5.8c0,0-5.1-4.5-1.9-6.4c3.2-1.9,16-5.8,16-5.8s-11.5-3.2-9.6-6.4c1.9-3.2-10.9-0.6-13.5,3.8  c-2.6,4.5,3.8,5.8-6.4,10.3c-10.3,4.5-32,8.3-37.8,8.3s-10.9-9-5.1-17.9c0,0,10.3-10.3,50.6-23.7v-9c0,0,76.9-54.5,82-54.5  c5.1,0,24.4-7.7,34-7.1s14.7,7.7,23.1,21.8s15.4,30.1,15.4,37.8s-21.2,48.1-20.5,51.3c0.6,3.2,4.5,17.9,7.1,18.6  c2.6,0.6,7.7,1.9,9.6,3.2c1.9,1.3,34.6,82,34.6,82"/>
  <path class="st0" d="M725.5,301c4.5-0.6,57-23.1,68.6-24.4c11.5-1.3,133.3-12.2,141-11.5c7.7,0.6,6.4-8.3,7.7,0.6  c1.3,9,4.5,223.7,1.3,226.9c-3.2,3.2-62.8,33.3-73.7,35.3c-10.9,1.9-84.6,6.4-91,3.2C772.9,527.9,725.5,301,725.5,301z"/>
  <path class="st0" d="M876.1 265.7l-1.3-10.3c0 0-72.4 8.3-77.6 10.9-5.1 2.6-69.9 21.2-73.7 24.4s-5.8-4.5-3.8 3.2 5.8 7.1 5.8 7.1M654.4 324c0 0-10.3 2.6-9 9 1.3 6.4 18.6 59.6 18.6 59.6M166.6 294.6c12.9-1.4 98.7-2.6 110.2-1.3 11.5 1.3 78.2 5.8 80.8 9.6 2.6 3.8 6.4 19.9 1.9 22.4-4.5 2.6-9 5.1-16.7 5.1s-81.4 10.3-94.9 12.8c-13.5 2.6-26.3-.6-28.8 5.8-2.6 6.4.6 8.3 5.1 19.2 4.5 10.9 7.7 58.3-38.5 45.5s-21.2-63.5-14.1-65.4c7.1-1.9.6-9-3.2-12.2-3.8-3.2-10.9-38.5-7.7-40.4C164 293.9 160.8 295.2 166.6 294.6zM37.6 606.4c2.6-.6 42.2-39.4 84.2-28.6 30.8 8 63.5 17.9 80.8 58.3 17.3 40.4 35.8 63 26.8 168.8"/>
  <path class="st0" d="M59.7 663.5c0 0 79.4-60 155.6 47.6 0 0 13.3 20.3 16 47.5M854.3 672.1c0 0-50.6 22.4-54.5 28.2s-30.8 10.3-23.1 40.4c7.7 30.1 17.3 39.7 17.3 39.7L906.9 690M931.9 701.6L885.8 739.8 761.4 843.2M279.9 517.7c-10.1 2.5-62.3 26.7-80.3 34.9-4.6 2.1-7.3 3.4-7.3 3.4s33.3 31.7 47.5 49.1c14.3 17.4 83.9 139.4 93.4 152 9.5 12.7 33.3 38 72.9 38s60.2-4.8 60.2-4.8-9.5-12.7-4.8-14.3c4.8-1.6 82.4-47.5 82.4-47.5s20.6-1.6 30.1-1.6c9.5 0 11.1-12.7 11.1-12.7l-4.8-14.3"/>
  <path class="st0" d="M193 557.5c0 0 183 36.5 203.6 52.3 20.6 15.8 36.8 115.6 44.3 160 7 41.1 1.6 15.1 3.2 20.6M545.5 565.5L407.7 620.9M161.6 422.3c30.5 16.6 135.3 10.2 173.3 14.9s107.7 23.8 118.8 30.1c11.1 6.3 11.1 6.3 11.1 6.3l-14.2 53.6c-4.5 3.2-6.4 3.8-12.2 3.2s-31.4-3.8-31.4-3.8l.6 46.1c-54.5 26.9-105.1-9-105.1-9s1.3-28.2 1.3-33.3-4.5-9.6-7.7-11.5c-3.2-1.9-106.4-7.7-106.4-7.7M585.1 421.4L464.7 473.6M149.5 123.6c7.9 14.3 11.1 23.8 22.2 34.8 11.1 11.1 55.4 50.7 61.8 129.9"/>
  <path class="st0" d="M357,372.3c-4.8,1.6-31.7,9.5-60.2,19c-28.5,9.5-66.5,19-69.7,25.3c-3.2,6.3-18.5,13.5-18.5,13.5"/>
  <path class="st0" d="M212.2 430.1c41.9 3.5 79.9-19.8 89.4-23 9.5-3.2 11.1-9.5 6.3-15.8M732.2 532.2c4.8 0 99.9 22.2 120.5 49.1s41.2 41.2 47.5 68.1M45 573.8c0 0 30.1-24.1 53.8-24.1s77.6 9.5 114 64.9 96.6 166.3 112.4 174.2c15.8 7.9 33.3 22.2 68.1 22.2s101.4-6.3 141-3.2 177.4 28.5 186.9 28.5 72.8-55.9 72.8-55.9"/>
  <path class="st0" d="M692.9 732.9c0 0 6.2 30.3-1.7 36.6s-13.6 0-20.1-1.7c-9.6-2.6-21 7.5-3.5 14.8 24 10 20.1-2.6 12.4 15.7-9.8 23.4-25.7 25.9-52.6 22.7M882.8 744.5c11.1 3.2 99 54.8 39.6 134.2-10.4 13.9-70.2 41.9-125.6-61.1M184.3 773.9c0 43.3-26.2 85.5-64.8 81.3-32.7-3.5-69.7-36.5-69.7-79.8 0-43.3 26.9-74.7 59.6-78.4C145.9 692.8 184.3 730.6 184.3 773.9zM758.9 456.9c0 0-17.5 18.7-45.2 18.7M773.4 518.4c0 0-18.7 17.5-38.5 12.6M680.7 248c0 0 4.8 8.4-33.7 16.9M683.7 258.8c0 0 4.8 8.4-33.7 16.9M546.4 205.2c1.8 0 40.9-15.7 46.4-15.7 5.4 0 9.6 10.2 9.6 15.7s-15.7 12-15.7 12l7.2 12.6-17.5 7.2M642.7 137.2c0-1.8-.6-12-4.2-10.2-3.6 1.8-13.9 6.6-13.9 6.6l1.2 7.2M939 266c0 0-53 24.7-64.4 26.5-11.4 1.8-146.9 10.8-146.9 10.8M878.2 525.6c0-4.2-10.2-231.2-10.2-231.2"/>
</svg>
