<!--
  https://github.com/Duxxie/duxxie-creative-commons
  This work is licenced by https://creativecommons.org/licenses/by-sa/4.0/
-->
<svg version="1.1" id="sta-loop-beugel-svg" xmlns="http://www.w3.org/2000/svg" x="0px" y="0px" width="1000px" height="1000px" viewBox="0 0 1000 1000" xml:space="preserve">
  <style>
    #sta-loop-beugel-svg .st0{fill:none;stroke:currentColor;stroke-linecap:round;stroke-linejoin:round;stroke-miterlimit:10;}
  </style>
  <path class="st0" d="M702.4 385.8c4.9 8.3 8.8 14.6 10.6 16.6 7.1 7.9 17.2 12.8 38.3 8.5 14.8-3 23.4-29.8 23.4-29.8s3.6 2.3 11.6-2.1c23.1-13.1 23.9-49 11.1-57.2-6.7-4.3-18.7-12.4-20.9-14.2-.2-.2-19 24.7-18.9 24.6 3.4-.2 5.6 8 1.7 11.2-8.3 6.6-12.2 24.8-5.9 31.6 3.9 4.2 8.6 1.8 3 11.3-5.5 9.5-14.3 7-20.9 6.5-6.3-.5-14-14.5-17.2-17.7M590.4 389.3c1.4-8.1 3-16.2 4.4-20 3.2-8.7 6.6-12.9 14.5-19.2 7.9-6.3 23.7-13.5 29.3-18.2 1.4-1.2 3.7-2.6 6.4-4.2M636.8 295.5c-8.3 5.8-17.5 12.2-21 14.6-23.3 16-35.3 40.4-39.2 45.9-.6.9-1.3 2.6-2.1 4.9M434.1 282.3l-65.4-131.7 206.5-25.2L647 272.7M527.9 113.4c.8-2 9.3-12.6 15.2-14.1 9-2.2 17.1 9.6 17.1 9.6l-72.1 10c0 0-127.7 19.4-129.8 14.2-2.4-6-22.9-25.6-31.6-32.7s-18.1 4.9-23.8 9.8c-7.6 6.5-28.5 24.5-28.5 24.5l-4.3-5.9c0 0-48.7 45.5-47.9 51 2.3 16.6 19.5 16 19.5 16l47.8-42.1-3.2-5.5c0 0 20.6-19.8 27.7-23.7 7.1-4 13.5 3.2 18.2 7.1 4.7 4 15 16.6 15 16.6s-1.2 2.1-1.2 5.3c0 2.7 54.3 110.1 71.3 143.8M659.1 259.7c0 0-78.3-155.9-89.4-169.3-11.1-13.5-32.1-10.2-38.6-5.2-5.7 4.4-26.3 28.1-26.3 28.1l-4.7-5.5L489.9 119M592.8 453.7c1.2 7.4 2.3 14.3 3 18.9 2.4 16.6-9.5 30.1-15 38-5.5 7.9-49.8 26.1-59.3 31.6s-92.6 42.7-102.1 42.7-21.1-.3-21.9-7.4M563.6 346.9c2.5 1.2 4.8 2.8 6.4 5 3.1 4.3 6.9 19 10 32.7"/>
  <path class="st0" d="M644 278c2.5-5.1 48.3-59.3 52.2-64.1 4-4.7 8.7-13.5 22.9-4.7 14.2 8.7 51.4 69.6 54.6 74.4 3.2 4.7 7.1 11.1 3.2 21.4-4 10.3-41.1 52.2-48.3 59.3-7.1 7.1-22.9 30.1-39.6 19.8s-47.5-64.9-47.5-64.9S627.4 312.8 644 278zM830.1 808.1c4.2-3.5 12.6-12.7 12.6-12.7 16.9-19.2 2.5-35.5 2.5-35.5s0 0 3.3-7.4-16.5-12.4-24-15.7c-7.4-3.3-14-3.6-19.8-4.8-2.3-.5-13.3 8.1-13.3 8.1s-72.7-28.9-76-31.4-8.3-2.5-19.8-20.6c-11.6-18.2-19-26.4-24.8-27.2S621.2 637 621.2 637l-23.9-189M379.8 466.3l19.9 125.2M257.3 690c0 0 20-13.5 22.5-13.5s-1.7-9.9 6.6-8.3c8.3 1.7 42.2 14.9 46.3 19s7.7 16.3 11 18.8 45.2 20 45.2 20-43.8-244.4-43-247.7-.9-47.6 7.4-55M723.4 870.8c2.8 13.4-3.7 24.3-14.5 24.4-10.9 0-22-10.8-24.8-24.3-2.8-13.4 3.7-24.3 14.5-24.4C709.4 846.5 720.5 857.3 723.4 870.8z"/>
  <path class="st0" d="M835.3 786.8c2.8 13.4-3.7 24.3-14.5 24.4-10.9 0-22-10.8-24.8-24.3-2.8-13.4 3.7-24.3 14.5-24.4C821.3 762.5 832.5 773.4 835.3 786.8zM283.9 709.1c2.4 11.4-3.1 20.6-12.3 20.7-9.2 0-18.7-9.2-21.1-20.6s3.1-20.6 12.3-20.7C272 688.5 281.5 697.7 283.9 709.1zM474.7 620.6c-3.3-3.6-5.9-8.3-6.9-13.5-2.4-11.4 3.1-20.6 12.3-20.7 9.2 0 18.7 9.2 21.1 20.6.2 1.1.4 2.2.5 3.2"/>
  <path class="st0" d="M689.6,849.2l13-10.4l-15.5-7.3L661.7,854l-9.9-9.1l-64.5-31.4l-110.8-9.1l-139.6-67.5 c0,0-15.8-32.4-16.6-34.9s-14.9-9.9-14.9-9.9s0.8,14.9,0,19.8c-0.8,5-23.4,13.8-26.9,16"/>
  <path class="st0" d="M616.2 787.2l64.5 31.4 6.6 1.7c0 0 8.5-7.4 9.1-8.3 4-5.3 43.8 14.9 43.8 18.2s4.1 8.3.8 10.7c-3.3 2.5 12.4 19 3.3 29.7-9.1 10.7-28 22.9-28 22.9M804.4 763.2l17.6-9c0 0-18.8-9.1-20.5-6.6s-26.7 28.9-30 28.1c-3.3-.8 0-7.4-9.1-10.7s-64.5-25.6-64.5-25.6l-10.7-19M515.4 605.4c-.6-4.1-.9-6.1-2.5-14.7 0 0 10.7 4.1 14.1 5.8 3.3 1.7 6.6 12.4 6.6 12.4"/>
  <path class="st0" d="M577.2 514.5c1.1 4.8 12.5 107.5 12.5 107.5s-38-13.2-40.5-14.9-2.5-15.7-8.3-18.2-32.9-14-36-15.2-11.2-3.7-11.2 1.2.9 6.3.9 6.3l-9.9 5.1M411.5 656.5L399.7 591.5M527.8 607.6c12.2 1.8 24.8 8.6 33.1 13.9 8.4 5.4 105.6 66.8 109.8 70.3 4.2 3.6 14.9 10.7 15.5 16.7s2.1 20.9 1.8 24.4c-.5 6.7-1.7 8.5-11.8 15.1-13.2 8.7-60.3 39.1-60.3 39.1l-22.2-10.7-65.3-6.2c0 0-42.7-2.7-45.1-2.7s-58.5-28-58.5-28l-13.2-83 63.8-36.3c.2.1 19.7-6.6 29.4-10.7C512.1 606.5 515.9 604.6 527.8 607.6"/>
  <path class="st0" d="M416.6 673.5c1-.7 94.6-51.2 104.6-50.2s8-7.3 37.1 8.6 116 66.1 117.1 70.9c1 4.8 6.6 12.1 4.2 15.9-2.4 3.8-83.1 57.4-83.1 57.4M528.4 770.3L420.7 707.8"/>
  <path class="st0" d="M482 665.6c0 0 145.5 71.6 147.2 72.3s1.7 2.4 1.7 4.5-2.4 3.1-2.4 3.1l-161.4-69.9c0 0 1.5-4 2.8-5.5C473 666.2 478.2 662.8 482 665.6zM556.1 383.2c-.4-1.7 18.4-23.8 2.5-46.7-15.8-22.9-51.4-71.2-51.4-71.2s-18.2-28.5-45.9-5.5c-27.7 22.9-112.4 97.3-114.7 98.9-2.4 1.6-12.7 15.8-7.1 34 5.5 18.2 10.7 26.4 10.7 26.4s31.9 55.9 41.7 60.1c9.8 4.2 6.3 11.9 32.2 7 16.3-3.1 64.1-41.5 97-70.2"/>
  <path class="st0" d="M500.8 433.8c0 0 10.8 18.7 15.5 23.5 4.7 4.7 17.7 14 25.4 14.8 15.1 1.5 24.5-11.8 18.2-11.1-7.7.8-27.7-2.4-32.1-25.2-1.4-7.2-.8-13-.8-13s-75.6-101.4-77.2-104.6-3.9-7.9-3.1-13.4c0 0 3-15 18.6-19.7 12.4-3.7 18 .7 23.6 10.2 5.5 9.5 58.7 78.1 64.5 83.4 5.8 5.4 1 7.3 7.3 7.3s21.9-7.1 34.8 7.3c10 9.1 18.6 23.5 8.6 43-10 19.6-18.5 20.5-18.5 20.5s-9 39.7-38.7 37.3c-26.1-2.1-44-21.1-47.6-25.4-4.7-5.6-14.4-21.3-14.4-21.3M470 138.4l-4.4 3.1c0 0-4 9.1.8 13.5 1.6 4.7 11.9 3.2 11.9 3.2l32.8-24.7"/>
</svg>
