<?xml version="1.0" encoding="utf-8" ?>
<!--
	https://github.com/Duxxie/duxxie-images
	This work is licenced by https://creativecommons.org/licenses/by-sa/4.0/
-->
<svg version="1.1" id="sta-loop-beugel-svg" xmlns="http://www.w3.org/2000/svg" xmlns:xlink="http://www.w3.org/1999/xlink" x="0px" y="0px" width="1000px" height="1000px" viewBox="0 0 1000 1000" style="enable-background:new 0 0 1000 1000;" xml:space="preserve">
	<style type="text/css">
	#sta-loop-beugel-svg .st0{fill:#FFFFFF;stroke:none;}
	#sta-loop-beugel-svg .st1{fill:#FFFFFF;stroke:currentColor;stroke-linecap:round;stroke-linejoin:round;stroke-miterlimit:10;}
	#sta-loop-beugel-svg .st2{fill:none;stroke:currentColor;stroke-linecap:round;stroke-linejoin:round;stroke-miterlimit:10;}
</style>
	<path class="st0" d="M281.7,344.4l-9.2,14.3l1.2,26.2l14.2,36.1l-5.6,64l50.2,303.5c0,0-56.4-17.9-57.3-26.8
	c-0.7-6.6-11.7-19.4-11.7-19.4l-57.2-24.2l-6.6,13.1l-31.9,21l-2.2,23.9l22.5,20.3l44.3-21l-2.8-27.2l18.8,12l21.7,42.1l5.8,5.1
	l163.6,79.1L573,897.2l78.8,36.7l13.7,12.6l31.2-27.2l16.6,5.8l-20.6,20c0,0-1.9,16,0.1,22.1c-3.5-16.5,0.6,19.1,14,19.1
	s-6.7-17.4-3.2-0.9c2.7,12.6,36.3,5.1,28.2,9.5l-2.9-1.1c0,0,24.8-14.8,36.1-28.1c11.2-13.2-8.4-32.9-4.4-36c4.1-3,1.5-8.6,1.5-12.8
	c0-4.1-45.8-22.3-53.9-22.3c-8.1,0-11.2,10.2-11.2,10.2l-8.1-2.1l-79.4-38.6l0,0l84.3-56.8l4.9-20.4l11.7,18.2l-13.2-23.4l13.2,23.4
	l79.4,31.6c8,2.9,8.3,7.9,9.1,10.8l2.1,2.4l34.7-34c2.1-3,27.3,7.7,27.3,7.7l-28.5,14.6c-10.3,11.9-13.5,21.7,8.3,50.3
	c7.2,9.5,32.1-2.7,25.4,2.4c-10.3,3.5-1.9,2.4-1.9,2.4l15.5-13.7l9.4-12l4.7-15.1l-7.2-23l4.4-7.2l-2.4-6.3l-15.4-9.1l-39.1-8.6
	l-10.8,8c0,0-67.5-27.7-70.6-27.7S718.4,763,718.4,763s-21.7-31.1-26.7-41.2c-5-10-17.6-11.2-17.6-11.2l-58.5-31.5l-28.7-225
	c0,0,10-16.2,10.9-24.2s-9-21-9-21L573,391 M484.7,640.2c0-2.9-0.1-14.8-0.1-14.8c4.9,1.9,15.4,4.1,17,6.7c1.6,2.6,6,14.7,6,14.7
	S484.7,643.1,484.7,640.2z M526.9,646l-7.3-24.5l-55.9-21.4l-3.6,2.7l1.6,10.3l-8.7,7.3l-8.7-1.5l-10.2,3.6l-6.8,15.7l10.4,25
	l-76.9,41.2c-1-1.9-14.5-88.8-14.5-88.8s18.3,2.8,21.3,1.5c1.5-0.6,49.7-12,95.1-36.2c46.9-24.9,98.5-40.9,99.1-48.6
	c1.3-15.4,15.1,130.2,15.1,130.2L526.9,646z" />
	<g>
		<path class="st1" d="M828.8,297.7c-8.1-5.2-22.7-15.1-25.4-17.2c-0.2-0.2-23.1,30-23,29.9c4.1-0.2,6.8,9.7,2.1,13.6
		c-10.1,8-14.8,30.1-7.2,38.4c4.7,5.1,10.4,2.2,3.6,13.7c-6.7,11.5-17.4,8.5-25.4,7.9c-7.7-0.6-18.3-20.2-22.2-24
		c-3.9-3.9-70.6-137.6-70.6-137.6S565.8,32.9,552.3,16.6c-13.5-16.4-39-12.4-46.9-6.3c-6.9,5.3-31.9,34.1-31.9,34.1l-5.7-6.7
		l-14.5,13.5c0,0-155.1,23.6-157.7,17.2c-2.9-7.3-27.8-31.1-38.4-39.7c-10.6-8.6-22,6-28.9,11.9c-9.2,7.9-34.6,29.8-34.6,29.8
		l-5.7-8.6c0,0-56.7,56.7-57.7,63.4c-1,6.7,25,18.2,25,18.2l56.7-49.9l-3.9-6.7c0,0,25-24,33.6-28.8c8.6-4.9,16.4,3.9,22.1,8.6
		c5.7,4.9,18.2,20.2,18.2,20.2s-1.5,2.6-1.5,6.4c0,3.9,92.8,186.8,92.8,186.8l17.2-24L308.1,89.7l116.2-11.5l-9.6,3.9
		c0,0-1,10.6,1,16.4c1.9,5.7,14.5,3.9,14.5,3.9l39.4-34.6l89.4-8.6l94.1,193.1c0,0-36.2,25.4-44.8,31.2
		c-28.3,19.4-42.9,49.1-47.6,55.8c-4.9,6.7-14.2,58.2-14.2,58.2l27,7.7c0,0,5.5-39.1,9.4-49.7c3.9-10.6,8-15.7,17.6-23.3
		c9.6-7.7,28.8-16.4,35.6-22.1c6.7-5.7,31.7-17.2,31.7-17.2s49.9,93.2,58.7,102.9c8.6,9.6,20.9,15.5,46.5,10.3
		c18-3.6,28.4-36.2,28.4-36.2s4.4,2.8,14.1-2.6C843.4,351.2,844.4,307.6,828.8,297.7z M504.2,40c0,0,6-15.8,16.3-15.2
		c10.3,0.5,18,12.5,18,12.5L504.2,40z" />
	</g>
	<path class="st1" d="M524.3,324.2c0,0,20.5-0.5,28.3,10.1c7.7,10.6,18.8,72.6,18.8,72.6s9.6,53.8,12.5,74
	c2.9,20.2-11.5,36.6-18.2,46.2c-6.7,9.6-60.5,31.7-72,38.4s-112.5,51.9-124,51.9s-25-1-26-9.6c-1-8.6-26-166.3-26-166.3
	S511.8,322.3,524.3,324.2z" />
	<path class="st1" d="M642.5,244.5c3-6.2,58.7-72,63.4-77.9c4.9-5.7,10.6-16.4,27.8-5.7c17.2,10.6,62.4,84.5,66.3,90.4
	c3.9,5.7,8.6,13.5,3.9,26c-4.9,12.5-49.9,63.4-58.7,72c-8.6,8.6-27.8,36.6-48.1,24c-20.3-12.5-57.7-78.8-57.7-78.8
	S622.4,286.7,642.5,244.5z" />
	<g>
		<path class="st2" d="M868.6,888.4c5.1-4.3,15.3-15.4,15.3-15.4c20.5-23.3,3-43.1,3-43.1s0,0,4-9c4-9-20-15.1-29.2-19.1
		c-9-4-17-4.4-24-5.8c-2.8-0.6-16.2,9.8-16.2,9.8s-88.3-35.1-92.3-38.1c-4-3-10.1-3-24-25c-14.1-22.1-23.1-32.1-30.1-33
		c-7-1-60.2-29-60.2-29l-29-229.6" />
		<path class="st2" d="M172.8,744.9c0,0,24.3-16.4,27.3-16.4s-2.1-12,8-10.1c10.1,2.1,51.3,18.1,56.2,23.1c5,5,9.4,19.8,13.4,22.8
		c4,3,54.9,24.3,54.9,24.3s-53.2-296.9-52.2-300.9c1-4,0-59.2,10.1-68.1l30.1,45.8l25.1,159.8" />
		<path class="st2" d="M739,964.5c3.4,16.3-4.5,29.5-17.6,29.6c-13.2,0-26.7-13.1-30.1-29.5c-3.4-16.3,4.5-29.5,17.6-29.6
		C722,935,735.4,948.1,739,964.5z" />
		<path class="st2" d="M874.9,862.5c3.4,16.3-4.5,29.5-17.6,29.6c-13.2,0-26.7-13.1-30.1-29.5c-3.4-16.3,4.5-29.5,17.6-29.6
		C857.9,833,871.5,846.2,874.9,862.5z" />
		<path class="st2" d="M205.1,768.1c2.9,13.8-3.8,25-14.9,25.1c-11.2,0-22.7-11.2-25.6-25c-2.9-13.8,3.8-25,14.9-25.1
		C190.7,743.1,202.2,754.3,205.1,768.1z" />
		<path class="st2" d="M436.9,660.6c-4-4.4-7.2-10.1-8.4-16.4c-2.9-13.8,3.8-25,14.9-25.1c11.2,0,22.7,11.2,25.6,25
		c0.2,1.3,0.5,2.7,0.6,3.9" />
		<path class="st2" d="M503.2,644.5" />
		<path class="st2" d="M697.9,938.3l15.8-12.6l-18.8-8.9L664,944.1l-12-11.1l-78.3-38.1l-134.6-11.1l-169.6-82
		c0,0-19.2-39.4-20.2-42.4c-1-3-18.1-12-18.1-12s1,18.1,0,24c-1,6.1-28.4,16.8-32.7,19.4" />
		<path class="st2" d="M608.8,863l78.3,38.1l8,2.1c0,0,10.3-9,11.1-10.1c4.9-6.4,53.2,18.1,53.2,22.1s5,10.1,1,13
		c-4,3,15.1,23.1,4,36.1c-11.1,13-34,27.8-34,27.8" />
		<path class="st2" d="M837.4,833.8l21.4-10.9c0,0-22.8-11.1-24.9-8c-2.1,3-32.4,35.1-36.4,34.1s0-9-11.1-13
		c-11.1-4-78.3-31.1-78.3-31.1l-13-23.1" />
		<path class="st2" d="M486.3,642.1c-0.7-5-1.1-7.4-3-17.9c0,0,13,5,17.1,7c4,2.1,8,15.1,8,15.1" />
		<path class="st2" d="M389.9,254.3" />
		<path class="st2" d="M561.4,531.7c1.3,5.8,15.2,130.6,15.2,130.6s-46.2-16-49.2-18.1c-3-2.1-3-19.1-10.1-22.1c-7-3-40-17-43.7-18.5
		c-3.8-1.5-13.6-4.5-13.6,1.5s1.1,7.7,1.1,7.7l-12,6.2" />
		<line class="st2" x1="360.1" y1="704.2" x2="345.8" y2="625.3" />
		<path class="st2" d="M501.4,644.8c14.8,2.2,30.1,10.4,40.2,16.9c10.2,6.6,128.3,81.1,133.4,85.4c5.1,4.4,18.1,13,18.8,20.3
		s2.6,25.4,2.2,29.6c-0.6,8.1-2.1,10.3-14.3,18.3c-16,10.6-73.2,47.5-73.2,47.5l-27-13l-79.3-7.5c0,0-51.9-3.3-54.8-3.3
		s-71.1-34-71.1-34l-16-100.8l77.5-44.1c0.2,0.1,23.9-8,35.7-13C482.3,643.5,486.9,641.2,501.4,644.8" />
		<path class="st2" d="M366.3,724.9c1.2-0.9,114.9-62.2,127.1-61s9.7-8.9,45.1,10.4s140.9,80.3,142.2,86.1c1.2,5.8,8,14.7,5.1,19.3
		c-2.9,4.6-100.9,69.7-100.9,69.7" />
		<line class="st2" x1="504.3" y1="844.1" x2="371.3" y2="766.5" />
		<path class="st2" d="M445.8,715.3c0,0,176.7,87,178.8,87.8c2.1,0.9,2.1,2.9,2.1,5.5s-2.9,3.8-2.9,3.8l-196-84.9
		c0,0,1.8-4.9,3.4-6.7C434.8,716,441.1,711.9,445.8,715.3z" />
	</g>
	<path class="st1" d="M285.7,415.9c0,0,38.7,67.9,50.7,73c11.9,5.1,7.7,14.5,39.1,8.5c31.5-6,159-119.8,158.1-123.2
	c-0.5-2.1,24.5-30.9,5.2-58.7c-19.2-27.8-62.4-86.5-62.4-86.5s-22.1-34.6-55.8-6.7C387,250.2,284.1,340.6,281.3,342.5
	c-2.9,1.9-15.4,19.2-8.6,41.3C279.3,405.9,285.7,415.9,285.7,415.9z" />
	<path class="st1" d="M402.9,277c0,0,3.6-18.2,22.6-23.9c15.1-4.5,21.9,0.9,28.7,12.4c6.7,11.5,71.3,94.9,78.3,101.3
	c7,6.6,1.2,8.9,8.9,8.9s26.6-8.6,42.3,8.9c7.5,8.4,22,28.2,10.4,52.2c-11.5,24-22.5,24.9-22.5,24.9s-10.9,48.2-47,45.3
	c-31.7-2.6-53.4-25.6-57.8-30.9c-5.7-6.8-17.5-25.9-17.5-25.9l19.3-16.5c0,0,13.1,22.7,18.8,28.5c5.7,5.7,21.5,17,30.9,18
	c18.3,1.8,29.8-14.3,22.1-13.5c-9.4,1-33.6-2.9-39-30.6c-1.7-8.7-1-15.8-1-15.8s-91.8-123.2-93.8-127.1
	C404.7,289.4,401.9,283.7,402.9,277z" />
</svg>
