<?xml version="1.0" encoding="utf-8" ?>
<!--
	https://github.com/Duxxie/duxxie-images
	This work is licenced by https://creativecommons.org/licenses/by-sa/4.0/
-->
<svg version="1.1" id="tandem-svg" xmlns="http://www.w3.org/2000/svg" xmlns:xlink="http://www.w3.org/1999/xlink" x="0px" y="0px" width="1000px" height="1000px" viewBox="0 0 1000 1000" style="enable-background:new 0 0 1000 1000;" xml:space="preserve">
	<style type="text/css">
	#tandem-svg .st0{fill:none;stroke:currentColor;stroke-linecap:round;stroke-linejoin:round;stroke-miterlimit:10;}
</style>
	<path class="st0" d="M99.7,646.6c0,0,11.8,1.6,13.9,11.2c3.7,17.7-7.7,22.5-13.3,21.3c-8.8-2-12.4-12.4-12.3-18
	C88.2,656.6,89.1,645.6,99.7,646.6z" />
	<path class="st0" d="M98.7,646c0,0,7.1-29,30.3-28.2c14.3,0.6,36.2,12.3,32.9,50.5c-3.2,38.3-55.1,33.6-58.3,10.5" />
	<line class="st0" x1="109.6" y1="650.4" x2="122.6" y2="646" />
	<path class="st0" d="M114.1,669.5c0,0,13.3-2.2,14.4-3.5" />
	<path class="st0" d="M116.3,647.9c0,0,2.8-7.4,10.1-7.2c6.1,0.2,15.4,5.9,14.9,19.7c-0.5,13.8-18,17.6-20.7,8" />
	<path class="st0" d="M102.3,520.8c0-4.6,0-68.5,0-68.5s-5.8,4.6-10.4,2.9s-4.6-1.7-4.6-1.7l2.3,70.3" />
	<path class="st0" d="M151.2,508.1c-1.7,0-47.9,8.1-47.9,8.1" />
	<line class="st0" x1="155.6" y1="510.2" x2="106.7" y2="522.6" />
	<path class="st0" d="M87.1,471.7c0,0-13.5,13.6-14.6,20.3c-1,6.7-0.5,10.3,2.5,8.8c3-1.5,12.5-12.6,12.5-12.6" />
	<path class="st0" d="M87.7,497l-6.2,7.1c-0.3,0.6-5.4,2.3-7.7-2.3" />
	<path class="st0" d="M87.1,480.2c0,0-10.1,11.4-12,14.1c-2.5,3.5-2.2,7.3,0,6.7" />
	<path class="st0" d="M102.7,472.6c0,0,5-0.5,5,3.8c0,4.3-5.3,9.2-5.3,9.2" />
	<path class="st0" d="M566.5,520.2c-0.7,4.2-22.7,30.4-22.7,30.4" />
	<path class="st0" d="M539.4,563.2c-2.3,3.9-10.6,16.8-10.6,16.8" />
	<path class="st0" d="M413.5,524.3c0,0-107.6,18.7-111.1,19.9c-3.5,1.2-122.5-18.5-122.5-18.5l-34,5.4" />
	<line class="st0" x1="425.8" y1="593" x2="426.1" y2="608.9" />
	<line class="st0" x1="425.3" y1="565.8" x2="425.6" y2="583.5" />
	<line class="st0" x1="424.8" y1="544.2" x2="425.2" y2="557.3" />
	<polyline class="st0" points="219.2,620.5 305.9,628.6 388.3,621 " />
	<path class="st0" d="M305.9,528.8c4.6,0,74.8,1.5,74.8,1.5" />
	<line class="st0" x1="305.9" y1="528" x2="307" y2="511.5" />
	<line class="st0" x1="158.8" y1="512.3" x2="159.4" y2="528.8" />
	<path class="st0" d="M491.5,617.3c0,3.1-3.1,23.4-8.3,32.7" />
	<path class="st0" d="M822.2,656.8c6.9-1.2,38.7-23.9,66.7,25.1c17,29.7-15.8,73.2-48.9,61.6c-35.4-12.4-43.9-49.7-27.7-78.6" />
	<path class="st0" d="M823.4,655.6c0,0,19.7-12.4,22.8-13.5c1.6-0.6,42-5.4,55.5,35c13.5,40.5-26.2,69.7-51.2,68.5" />
	<path class="st0" d="M814.8,591.2c0,0,27.7,39,31.2,50.9" />
	<path class="st0" d="M799.1,598.5c0,0,31.6,37.8,32,50.1" />
	<path class="st0" d="M214.1,660.1c0,0.5,4.6,71.2-31.4,103.8c-30.5,37-114.2,36.1-149-45.3c-27.2-63.5-11.3-109.1-3-126.2
	c2.3-4.9,5.3-9.4,5.3-9.4" />
	<path class="st0" d="M155.6,510.2c-4.5-3.8-18.7-21.2-24.3-37.9c-5.5-16.8,3.4-29.1,3.4-37.5c0-8.3-3.2-21-9.8-26.9
	c-6.6-5.9-22-55.3-22-72.4c-1.8-20.5,3.1-42.8,32.1-45.8c32.3-3.4,65.8,0.9,89.4,10.2c23.6,9.4,30.1,37,21.2,57.2
	c-7.6,24.5-14.9,36.4-26.5,46.2c-11.7,9.8-28.9,26.2-30.6,40.9c-1.8,14.7-1.5,32.9,9.1,31.1c9.8-5,72.6-5.9,85.5-5
	c12.9,0.9,78-1.2,79.2,11.8c1.2,12.8-3,17.5-10.6,20.5c-7.6,3-26.1,8.7-66.7,9.8C275.7,512.8,161.9,515.5,155.6,510.2z" />
	<path class="st0" d="M107.1,548.7c16,4,72.7,7.9,82.5,109.8c9.8,102-56.4,113.4-79.1,110.5c-10.4-2.4-86-22-77.6-133.9
	C41.5,544.4,100.8,548.7,107.1,548.7z" />
	<path class="st0" d="M323.4,471.3c-7.6-2.3-10.9-7.7-5.7-9.1c14.2-3.8,32.1-5,32.1-5" />
	<path class="st0" d="M510.8,463.6c0,0,0,13.9-22.3,13.9c-22.3,0-106.5-0.7-106.5-0.7l-27.5-0.9" />
	<path class="st0" d="M215.7,615.5c14.2,48.3,1.2,40.8,0.8,43.1c-0.3,2.3-13.9,1.2-15.8-4.6c-2-5.8-8.1-57.5-31.6-81.7
	s-50.9-42.8-83.2-34.7s-43.6,40.5-47,42.1c-3.8,1.8-19.9,9.4-22.7,10.2c-11.7,0.5-14.8-2-6.5-4.9c8.3-3,21-10.3,29.5-24.9
	c12.4-22.8,41-43.1,85.2-36.2C124.4,523.9,191.8,534.3,215.7,615.5z" />
	<path class="st0" d="M192,475.1c0,0-44.3,5-45.8,7.2c-1.5,2.3-5,2.7-0.3,5c4.5,2.3,92.8,11,105.3,11.8s58.3-1.2,66.7-2.3
	c8.3-1.2,42.1-12.5,42.8-16.3" />
	<path class="st0" d="M304.8,468.6c0,0-4.5-9.1-5.3-19c14.8-60.6-11.3-51.9-16.6-84.5c-4.4-27.1-7.9-54.3,5.7-59.6
	c0,0,11.8-13.1,41.7-10.1c31,3.2,56.8-1.6,67.4,23.8c3,20.5-0.2,58-16,72.7c-15.8,14.7-36.3,45.1-36.1,52.6
	c0.6,12.6-2,14.3,42.9,12.1c44.9-2.2,92.9-6.1,111.3-0.8c18.4,5.4,15.1,17.5,6.8,27.3c-6.5,7.6-2.5,8.9-21.2,9.8
	c-21.6,1.2-50.9-2.1-58-1.5c-1.7,0.1-63.8,0.3-64.4-0.3" />
	<path class="st0" d="M790.3,570.7c21.7-13.4,47.2-19.3,72.1-17.2c2.5,0.2,86.1,1.4,122.5,95.4c37,112.2-39.3,162.1-55.5,169.4
	c-137.6,59.5-193-79.8-196.5-109.2c-5.5-47.3,5.9-84.5,26.5-110.7" />
	<path class="st0" d="M798.6,599.7c3.5-10.1,98-44.6,145.7,39.7c51.9,91.9-27.7,182-98.6,160.3c-40.7-12.4-65.5-33.5-85.2-97.9
	c-10.3-48.9,9.9-75,19.7-85.5" />
	<path class="st0" d="M766.1,342.9c26.1,14.9,28.6,21.8,28.6,21.8s-0.6,15.1-8.2,15.5c-8.4,0.5-29.2-22.7-29.2-22.7" />
	<path class="st0" d="M742.6,362.4l22.5,86.1c0,0,17.8-40.3,19-42.1c1.2-1.7,7.5-11,13.9-12.8c6.4-1.8,20.2-1.2,20.2-1.2
	c6.4,0.6,10.2,32.1,1.2,41.5c-16.4,17.2-15.7-18.1-15.7-18.1c0.1,0.5-0.3-18.5,14.8-23.2" />
	<path class="st0" d="M807.2,437.8c0,0-5.2-6-7.9-0.6c-2.8,3.1-23.6,62.5-23.6,62.5c-0.6,2.3-6.9,28.3-24.3,40.5
	c-17.3,12.1-131.6,51.4-131.6,51.4" />
	<path class="st0" d="M788.4,523.6c1.2-3,22.3,1.8,24,0c1.7-1.8-0.6-13.3,5.4-27.7c6-14.4,2.4-29.5-1.8-37.3s-20.5-13.3-20.5-13.3" />
	<path class="st0" d="M693,567.2c0,0-27.3,41.7-56.1,43.2c-14.6,0.8-39.1,39.3-16.6,66.1c22.5,26.9,54.9,22.9,70.5,4" />
	<path class="st0" d="M593,342.1l33.3,33.4c0,0,3.1,3.4,8.1,3.8c5,0.5,11.3-9.6,11.3-11c0-1.4,5-4.7,6.4-1.4s-0.5,16.3-8.6,30.6
	c-8.1,14.3-27.2,48.4-27.2,48.4l-30.7-96.3C585.7,349.8,582.2,338.1,593,342.1z" />
	<path class="st0" d="M488.8,240.9c2.3,1.4,10.9,6.7,10.9,6.7l4-0.9c0,0,121.8,100.6,120.3,99.1c-1.5-1.5,20.3-2.4,27.2-0.9
	c6.8,1.4,18,9.6,19.4,16.8c0,0,1.4-3.4,12.7-6.7c11.3-3.4,23-2,25.3,2.9c2.3,4.7,1.8-3.4,4.5-4.7c2.7-1.4,10.9-2.4,10.9-2.4
	l-10.6-26.5c0,0-88.5-80.7-96.8-79.8c-14.8,1.7-24.7,4.7-25.2,10.1c-0.5,5.3-0.9,15.8-0.9,15.8s-11.4-0.2-11.4-8.4
	c0-8.4,4.5-22.9-1.8-26.7c-6.1-1.8-4.6,2.4-15,0.5c-10.4-2-4-3.7-13.2-8.4c-9.1-4.7-2.4-2.7-12.4-3.1c-9.9-0.5-9.9-0.5-9.9-0.5
	l8.6,9.6c0,0-20.3,11.4-21.7,11s-6.4-10.1-6.4-10.1L488.8,240.9z" />
	<path class="st0" d="M449.4,698.6c0,0-22.4,22.1-60.3,13.3c-57.6-13.3-69-58.4-70.4-65.9c-1.4-7.4-2.5,2.4-15,4.9
	c-12.5,2.4-35.1,10.8-48.6,11.2c-13.4,0.5-25.9-14-32.4-17" />
	<path class="st0" d="M595.9,479.7c15-28.6-37.5-162.6-37.5-162.6l-67.6-52.6c0,0,2.8-3.7-0.5-8c-4.5-5.9-15.3-13.2-18.3-8.9
	c-3,4.3,2.3,27.3-5,30.6c-17.3,2.2-12.3-2.2-14.2-12.9c-2-10.8,2.4-22.1-4.7-21c-7.2,1-14.4-0.1-21.6-3.2
	c-31.4-17.3-44.6-6.1-44.6-6.1l2.8,4.3l-62.4,26.2c0,0-12-10.4-8-13.6c4-3.2,52.8-31.6,52.8-31.6l10.2,5.4l16.3-7.5
	c0,0,31.7,10.5,41.8,8.3c10.2-2.2-11-8.8,4.3-13.2c15.3-4.3,16.3-8,23.5-0.5s-4,15.1,5.2,14.1c9.1-1,35.4-16.1,50.7-19.3
	c15.4-3.2,10.3,5.5,16.9,2.3c11.8-2.8,23.5-5,29.7-6.9c4.9-1.5,28.4-4.7,34.6,3.7c9.7,9.7,86.9,67,109.8,86.6l54.4,35.1
	c0,0,5.4,8.6,1,20c-4.4,11.4-15.7,8.3-25.1,13.1c-9.4,4.6-26.6,19.3-34.4,25c-7.9,5.7-32.5,36.4-38.4,41.2c-5.9,4.6-20.7,23-20.7,23
	s0,2.7,6.5,1.5c6.5-1,84.2-27.6,84.2-27.6s5.3,0.1-9.4-54.2" />
	<path class="st0" d="M582,493.6c0,0-241.7,77.5-238.8,76.8l-0.8-14.7l255.5-87" />
	<polyline class="st0" points="784.2,407.8 773,405.1 755.4,408.5 " />
	<polyline class="st0" points="787,402.4 776.2,396.7 786.3,380.3 " />
	<path class="st0" d="M779.9,378c0,0-10.5,13.1-11.4,16.5c-0.9,3.4,0.6,6.5-3.5,6.5s-10.6,2.3-10.6,2.3" />
	<path class="st0" d="M568.6,518.2c0,0-224.8,74.4-226.5,73.9v-8.4l228.4-72.5" />
	<path class="st0" d="M557.9,557.7l-215,57l0.8-8.4c2.3,0,216.2-60.1,216.2-60.1" />
	<line class="st0" x1="339" y1="635.2" x2="547" y2="574.8" />
	<line class="st0" x1="346" y1="653.3" x2="532.3" y2="606.4" />
	<path class="st0" d="M470.1,621.9c-0.1,1.6-0.2,2.5-0.2,2.5s-6.8,50.4-46.1,61.3c-66.5,18.4-85.9-44.4-87-59.4" />
	<path class="st0" d="M467,582c1.4,5.4,2.2,10.6,2.8,15.6" />
	<path class="st0" d="M455.3,555.6c3.7,5.3,6.5,11,8.7,16.8" />
	<path class="st0" d="M438.9,539.8c4.3,2.7,8,5.8,11.1,9.2" />
	<path class="st0" d="M561,543.9c0,0,5.5-35.4,23.1-54c12.4-13.1,32.4-27.9,55.1-28.4c20.8-0.6,34.2,17.7,35,54.3
	c-5.8,46.9-9.8,43.8-13.9,49.4s-24.6,13.1-30.4,14.2c-5.8,1.2-76.5,116.4-76.5,116.4s-21,56.1-63.1,49
	C442.8,731.2,437.5,671,463,660C537,628.2,559,558.5,561,543.9z" />
	<path class="st0" d="M690.8,680.6c15.6-18.8,62.4-100,62.4-100" />
	<path class="st0" d="M507.2,671.1c0,0-32.9-10.4-36.5,19.1c-2.7,22.5,11.6,31.2,22.3,32.4c13.5,0.3,26.2-8.1,25.4-26.6" />
	<path class="st0" d="M652,645.6c0,0,9.5-0.5,9.5,4.7c0,5.2-1,7.9-5,7.4c-3.9-0.5-7.1-3.7-7.1-5.9C649.4,649.6,649.5,645.6,652,645.6
	z" />
	<path class="st0" d="M492.9,693c0,0,9-0.5,9,4.7c0,5.2-0.9,7.9-4.7,7.4c-3.8-0.5-6.7-3.7-6.7-5.9C490.5,697,490.6,693,492.9,693z" />
	<polygon class="st0" points="509.8,665.5 535.2,658.8 567.1,657.7 569.1,657.6 569.6,668.1 553.1,676.2 509.8,677.1 " />
	<polyline class="st0" points="509.8,665.5 550.7,666.6 569.1,657.6 " />
	<line class="st0" x1="550.7" y1="666.6" x2="551.7" y2="676.7" />
	<line class="st0" x1="548.1" y1="677.1" x2="501.3" y2="705.7" />
	<line class="st0" x1="517.2" y1="677.6" x2="492.9" y2="693" />
	<path class="st0" d="M715.1,481.4c0,0,1.4-4.4,4.9-5.4s8.2,0.6,8.7,4.3c0.5,3.7,0.2,9.8-5.8,11.9c-6,2.1-5.1-1.3-6.6-2.3" />
	<path class="st0" d="M707.8,481.8c0,0,1.5-13.1,13.1-14.7c6.1-0.8,14.2-6.6,15,2c1,6.4,3.8,12.4,1.5,20c-2.2,7.3-3.6,7.3-13.9,10.4
	c-9.9,0.5-13.9,1.5-13.9,1.5l-2.5-10.2" />
	<path class="st0" d="M673.1,631.2c0,0-34-16.1-38.6,14.2c-4.2,28.2,17.2,32.1,23.6,31c12.1-2.3,32.3-17.1,23.1-34.2" />
	<path class="st0" d="M652,645.6c0,0,9.5-0.5,9.5,4.7c0,5.2-1,7.9-5,7.4c-3.9-0.5-7.1-3.7-7.1-5.9C649.4,649.6,649.5,645.6,652,645.6
	z" />
	<path class="st0" d="M492.9,693c0,0,9-0.5,9,4.7c0,5.2-0.9,7.9-4.7,7.4c-3.8-0.5-6.7-3.7-6.7-5.9C490.5,697,490.6,693,492.9,693z" />
	<path class="st0" d="M530.7,659.7c0,0-6.5-9.5-11-12.1s-12.5-4.7-12.5,0c0,4.7,0,6.8,3.5,8.4c3.5,1.5,11.2,7.7,11.2,7.7" />
	<path class="st0" d="M560.2,545.8c0,0,5,30.6,21.2,35.5c0,0,30.1,13.1,67.4-20c11.2-9.9,18.3-62.1,9.6-77.5
	c-5.4-12.7-19.1-21.2-31.6-20" />
	<line class="st0" x1="671.1" y1="483.7" x2="719.3" y2="480.6" />
	<line class="st0" x1="670.7" y1="493.2" x2="723.5" y2="487.6" />
	<polyline class="st0" points="424.7,493.3 424.7,501.9 455.4,500.5 456.5,516.5 " />
	<path class="st0" d="M679,642.1c0.3,2.5-0.3,5.4-0.3,5.4l-19.4,10.4" />
	<path class="st0" d="M652,645.6c0.9,0.2,3.1-1,9.7-3.5" />
	<path class="st0" d="M661.4,644.1l32.8-3.2l23.5-6.8c0,0-2.7-10.9-2.7-12c0,0-30.4,5.9-31.7,5.9c-1.2,0-21.7,7.5-21.7,7.5l0.7,8.7" />
	<path class="st0" d="M693.5,626.5c0,0-8-13.5-12.6-16.2c-4.6-2.8-11.1-4.4-12.9,0c-1.8,4.2,0,6.8,3.6,8.4c3.6,1.6,12,8.4,12,8.4" />
	<path class="st0" d="M748.6,755.6c-6.6,7.3-9.6,13.3-15,14.4c-5.4,1.2-11.4-3-7.3-17.5c4.2-14.4,1-25.8-0.9-36.5
	c-6.4-36.1-2.5-47.3-1.7-56.4c1.5-18.1,24.2-61.5,31.4-67.5" />
	<path class="st0" d="M794.8,552.8c0,0,29.5-15.4,61-18.3c5-0.5,11.7-0.9,9.5,5.5c-1.3,3.7-6.5,6.2-7.7,12.3" />
	<path class="st0" d="M789.4,567c21.6-13.4,39.8-14.7,41.3-16.8c2.7-3.5,24-14.2,30.6-15.5" />
	<path class="st0" d="M731.3,549.6c0,0,19.2,1.7,19.8,6.4s1.7,33.2,5.8,39c0.5,0.7,1.3,1.6,2.3,2.5c6.8,6.8,23.5,18.5,28,19" />
	<path class="st0" d="M765.1,526.4c5.8,2.9,14.1,10.5,14.1,10.5c-0.7,3-4.2,16.9-4.2,28.9c-1,11.2,19,78.4,34.9,95.3
	c13.6,19.4,30.7,42.2,30.7,42.2s11.4,9,10.4-5.4c-0.3-4.6-32.9-40.5-39.3-58.5c-6.4-17.9-24.4-69-22.3-74.7
	c2.2-5.7,5.1-14.3,5.1-14.3s6.9-3.5,10.5-5.2c3.5-1.7,4-6.9,2.9-11.7c-1.2-4.6-18-6.9-23.2-12.3c-5.2-5.2-5.8-25-5.8-25" />
	<path class="st0" d="M487.9,577c1.3,4.2,2.2,8.6,2.9,13.1" />
	<path class="st0" d="M474.7,548.6c3.2,5.1,6.7,11.3,9.6,18.3" />
	<path class="st0" d="M462.3,532.2c0,0,3.6,3.7,8.2,10.2" />
	<path class="st0" d="M420.5,527.8c-2-0.7-37.5-22.1-68.9,1.5" />
	<path class="st0" d="M315.3,529.4c0,0,56.9-62,135.5-11" />
	<line class="st0" x1="302.4" y1="544.2" x2="310" y2="629.2" />
</svg>
