<!--
	https://github.com/Duxxie/duxxie-images
	This work is licenced by https://creativecommons.org/licenses/by-sa/4.0/
-->
<svg version="1.1" id="tilband-passief-svg" xmlns="http://www.w3.org/2000/svg" x="0px" y="0px" width="1000px" height="1000px" viewBox="0 0 1000 1000" xml:space="preserve">
  <style>
    #tilband-passief-svg .st0{fill:none;stroke:currentColor;stroke-linecap:round;stroke-linejoin:round;stroke-miterlimit:10;}
  </style>
  <path class="st0" d="M159 266.1c0 0 20.4-20.9 30-23.2s9.6-5.1 22.1-6.8c12.5-1.7 14.2-4.5 23.8-1.7 9.6 2.8 14.2 1.7 15.3 4.5s4.5 12.5 3.4 16.4c-1.1 4-4.5 7.4-1.1 9.6 3.4 2.3 10.8 2.3 10.8 2.3M440.4 526.1c0 0 107 12.2 138.7 6 4.7-.9 36.2-18.1 51.5-18.1 15.3 0 27.2 3.4 37.4 4 10.2.6 34 8.5 34 11.3s-.6 7.4-7.4 5.7c-6.8-1.7-29.4-6.8-30.6-2.3-1.1 4.5 5.7.6-1.1 4.5-6.8 4-47 10.2-49.8 11.9s-87.5 34.4-92.6 36.1"/>
  <path class="st0" d="M683.8,518.6c0,0,26.6-5.1,36.8-1.7c10.2,3.4,37.9,19.8,35.7,52.6c-2.3,32.8-7.4,83.2-7.9,90	c-0.6,6.8,6.8,60,6.8,60s0.6,4-7.9,5.7c-8.5,1.7-28.9,1.7-28.9,1.7"/>
  <path class="st0" d="M627.9,655.7c0,0,3.3,93.9,3.3,95.6c0,1.7,6.2,14.7,19.8,15.3c13.6,0.6,42.5-4,49.8-5.7s19.2-9.6,19.2-9.6	s-8.5-44.7-6.8-56.6c1.7-11.9,23.2-104.7,11.3-125.7c-11.9-20.9-17.5-30-23.8-31.1"/>
  <path class="st0" d="M700.3,768.3c0,14.2,1.7,56.6,7.4,79.3c5.7,22.6,11.9,44.2,20.4,53.2c8.5,9.1,46.4,47,56.6,53.8	s18.1,9.6,18.1,16.4c0,6.8,11.9,11.9-12.5,17.5c-24.3,5.7-37.9,10.2-58.3,2.3c-20.4-7.9-41.9-27.2-53.2-39.6	c-11.3-12.5-32.8-30.6-36.8-36.8s-10.8-13-4.5-22.6s14.7-7.9,14.7-30.6s-11.9-97.9-11.9-97.9"/>
  <path class="st0" d="M737 733.2c0 7.4-5.7 62.3-1.7 81s7.9 39.6 20.9 54.9c13 15.3 57.2 53.2 60 57.7 2.8 4.5 13 15.9 5.7 16.4s-12.5 3.4-31.7.6c-19.2-2.8-26.6-6.2-26.6-6.2M318.2 378.8c2.8 0 32.6-4.3 41.8.7s25.5 35.5 41.8 52.5c16.3 17 65.9 73 72.3 80.8 6.4 7.8 9.2 15.6 9.2 15.6M291.5 317.5c0 0 9.7 14.5 13.2 23.8 3.5 9.2 11.3 9.9 7.8 15.6-3.5 5.7-13.5 6.4-13.5 6.4"/>
  <path class="st0" d="M300.3 364.1c38.2 48.9 113.1 142.4 128.3 154.3 19.5 15.4 175.9 130.9 194.3 125 0 0 11.8 5.3 0 22.5-11.8 17.2-57.4 64.6-76.4 82.3-19 17.8-84.7 91.2-177.1 33.2S319 719.8 265.2 636.3s-62.8-59.8-79.4-145.1-28.4-138.6-32.6-155.2c-4.1-16.6-7.1-64 0-68.7 3.3-2.2 58.6 23.7 75.8 31.4 12.4 5.6 26.6 13.9 38 24.3M302.6 334c36.4 15.7 79.5 35 91.7 48.9C416.2 407.7 521 529.1 524 530.9M247.4 307.6c.2.3.5.7 1.1 1.2M467.1 69.6l.6-14.8 4.7-2.4c0 0 0-47.4-2.4-46.8C467.7 6.2 450.5 5 450.5 5l.6 43.2 4.1 4.1v17.2M500.3 108c-13 4.7-21.9-5.9-22.5-19.5s16.6-14.2 23.1-13 8.3 16 8.3 16"/>
  <path class="st0" d="M486.6 95l151.6 120.2c12.4-4.7.6-15.4.6-15.4-1.8-1.8-143.9-118.4-143.9-118.4M402.6 57.1c0 0-46.2-14.2-53.3-13-7.1 1.2-26.7-7.1-39.1 32-12.4 39.1-31.4 169.4-31.4 169.4"/>
  <path class="st0" d="M403.1 72.5l-55.7-15.4c0 0-19.5 3-21.9 16.6C323.2 87.3 296 252.6 296 252.6M439.9 109.8c0 0-9.5-1.2-15.4 9.5s-43.2 207.3-43.2 207.3M448.2 123.4c0 0-1.8-6.5-9.5 4.7-7.7 11.3-43.8 200.2-43.8 200.2"/>
  <path class="st0" d="M396.6,74.3c3,6.5,11.8,2.4,13.6-2.4c1.8-4.7-7.1-19-7.1-19s25.5-1.8,33.2,4.7c7.7,6.5,26.1,21.9,26.1,21.9	s3.6-17.2,16.6-21.3c13-4.1,55.1-2.4,55.1-2.4l3-28.4c0,0,0-3,5.9-4.7c5.9-1.8,32.6-1.2,37.9,3.6c5.3,4.7,14.8,16,14.8,16	l-9.5,111.3"/>
  <path class="st0" d="M579.6 173.8l-61.6-2.4-10.7-11.3-1.2-8.3-46.8-1.2-10.1-9.5.6-27.2c0 0-11.3-4.1-11.3-8.3s-9.5-18.4-14.2-18.4S399 80.8 399 80.8M471.3 5.6h24.9c0 0 1.8 23.7-1.8 28.4-3.6 4.7-23.7 3.6-23.7 3.6M249.8 310l20.1-59.9c0 0-2.4-5.3 4.7-4.7 7.1.6 17.8 4.7 20.1 7.1 2.4 2.4 2.7 36.4 2.7 36.4"/>
  <path class="st0" d="M265.4,321.7c0-1.8,19.8-65,19.8-65s7.7-7.1,9.5-4.1"/>
  <path class="st0" d="M290 312.8c0 0 13.1 2.6 12.5-7.5-.6-10.1-5.3-17.8-9.5-22.5-4.1-4.7-10.7-5.9-10.7-5.9M400.2 304.1c0 0 3-6.5 7.1 4.1 4.1 10.7-1.2 21.9-1.2 21.9M384.8 303.5c0 0-8.5 8.4-9.7 24.4M643 199.8c0 0 11.3-.6 12.4 8.9 1.2 9.5-3.6 19-3.6 30.8 0 11.8-.6 93-1.8 102.5s-2.4 69.3-1.8 72.8-5.3-1.2-11.3-.6c-5.9.6-22.5 4.1-24.9.6-2.4-3.6-5.3-6.5-1.2-52.7 4.1-46.2 8.3-116.1 7.1-120.2-1.2-4.1-3.6-18.4-.6-21.3s8.9-11.8 8.9-11.8"/>
  <path class="st0" d="M605.8 521.3c0-3.5 13.3-26.6 13.3-26.6v-15.9c0 0-15-12.4-12.4-20.4 2.7-8 8.9-22.1 8.9-22.1l5.3-20.4M651.9 515.1l-15.1-26.4c15.9-8 22.5-22.1 15.1-46.2-1.8-5.9-7.1-25.7-7.1-25.7s-10.2 13.5-10.2 16.9c0 1.9 1.3 3.9 2.7 6.5 1.1 1.9 2.2 4.2 2.9 7.1 1.7 6.8 5.1 15.3 2.8 19.2-2.3 4-8.5 29.4-8.5 29.4l2.3 18.1M395.1 326.5c0 0 15 2.7 15 9.7.2 13.8-11.5 16-11.5 16l3.5 38M380 326.4c0 0-13.9 1.5-13.2 16 .3 6.4 9.7 8 9.7 8l-6.2 15.9M577.5 27.3c-.9 3.5-8.9 110.7-8.9 110.7M450 138.8c8 0 58.4 0 58.4 0l-1.8 13.3M509.3 158.3c0 0 15 2.7 17.7.9 2.7-1.8 42.5 3.5 42.5 3.5M272.3 300.6c0 0 10.8-5.7 14.7 1.7 4 7.4 13.6 60.6 13.6 67.9 0 7.4-4 37.9-4 37.9l-18.7-3.4c0 0 6.8-26.6 6.2-36.8-.6-10.2-6.8-48.7-6.8-48.7s2.8 17-.6 28.3-18.1 36.2-18.1 36.2-7.4-5.7-6.8-9.6c.6-4 10.2-22.1 11.9-27.7 1.7-5.7 4.5-31.1 4.5-31.1"/>
  <path class="st0" d="M376.5 350.4c0 0 .1-1.6 6.1-3.4 5.2-1.5 8.8-1.4 12 .3 2.6 1.5 4.9 5.6 4.9 5.6M652.8 446c0 0-11.2-7.9-16.9-8.6M619.8 481.3c0 0 10.8 4.6 17 0"/>
</svg>
