<!--
  https://github.com/Duxxie/duxxie-creative-commons
  This work is licenced by https://creativecommons.org/licenses/by-sa/4.0/
-->
<svg version="1.1" id="tilband-actief-svg" xmlns="http://www.w3.org/2000/svg" x="0px" y="0px" width="1000px" height="1000px" viewBox="0 0 1000 1000" xml:space="preserve">
  <style>
    #tilband-actief-svg .st0{fill:none;stroke:currentColor;stroke-miterlimit:10;}
  </style>
  <path class="st0" d="M143.1,511.2c0,0,12.6-5.4,18-9c5.4-3.6-5.4,12.6,1.8,25.2c7.2,12.6,84.7,135.1,111.7,153.1  c27,18,91.9,108.1,239.6,102.7s194.5-99.1,268.4-153.1c73.9-54,48.6-91.9,54-100.9s7.2-18,36-12.6c28.8,5.4,55.8,39.6,55.8,52.2  c0,12.6-18,23.4-34.2,39.6C878,624.7,789.8,729.2,750.1,761.6c-39.6,32.4-133.3,106.3-239.6,97.3s-236-64.8-338.7-192.7  s-57.6-77.5-64.8-79.3c-7.2-1.8-21.6,5.4-21.6-5.4s12.6-36,25.2-50.4S134.1,511.2,143.1,511.2z"/>
  <path class="st0" d="M900.1 529.1c0 0 18-11.4 28.8-11.4s26.4 8.4 37.2 24.6S995 588 995 603.6c0 15.6 0 28.8-3.6 33.6s-9.6 3-9-7.2c.6-10.2-1.2-24.6-4.8-38.4-3.6-13.8-16.8-44.4-25.2-52.2-8.4-7.8-29.4-16.8-33-14.4-3.6 2.4-12.6 10.2-12.6 10.2M893.5 525.5l-5.4-49.8c0 0 4.8-8.4 4.8-11.4 0-3-7.2-64.9-7.2-64.9s-5.4-5.4-5.4-9.6-2.4-33-2.4-33 4.2-10.8 4.2-14.4c0-3.6-5.4-48-5.4-52.8s.6-4.2-3.6-10.2c-4.2-6-7.8-10.2-10.2-7.2-2.4 3-7.8 7.8-7.2 16.2.6 8.4 4.2 58.2 4.8 62.5.6 4.2 6.6 4.2 7.2 11.4s1.2 28.8 1.2 28.8-2.4 5.4-3 10.2c-.6 4.8 6 67.9 6 67.9s4.2 3 6 8.4c1.8 5.4 4.8 40.2 4.8 40.2M959 318.3c0 0-7.2-27-28.8-34.8-21.6-7.8-22.2-8.4-36.6-9.6-14.4-1.2-22.2-6-26.4-3"/>
  <path class="st0" d="M900.1 529.1c0 0 18-11.4 28.8-11.4s26.4 8.4 37.2 24.6S995 588 995 603.6c0 15.6 0 28.8-3.6 33.6s-9.6 3-9-7.2c.6-10.2-1.2-24.6-4.8-38.4-3.6-13.8-16.8-44.4-25.2-52.2-8.4-7.8-29.4-16.8-33-14.4-3.6 2.4-12.6 10.2-12.6 10.2M893.5 525.5l-5.4-49.8c0 0 4.8-8.4 4.8-11.4 0-3-7.2-64.9-7.2-64.9s-5.4-5.4-5.4-9.6-2.4-33-2.4-33 4.2-10.8 4.2-14.4c0-3.6-5.4-48-5.4-52.8s.6-4.2-3.6-10.2c-4.2-6-7.8-10.2-10.2-7.2-2.4 3-7.8 7.8-7.2 16.2.6 8.4 4.2 58.2 4.8 62.5.6 4.2 6.6 4.2 7.2 11.4s1.2 28.8 1.2 28.8-2.4 5.4-3 10.2c-.6 4.8 6 67.9 6 67.9s4.2 3 6 8.4c1.8 5.4 4.8 40.2 4.8 40.2M959 318.3c0 0-7.2-27-28.8-34.8-21.6-7.8-22.2-8.4-36.6-9.6-14.4-1.2-22.2-6-26.4-3M116.1 523.5c0 0-20.3-6.4-30.8-3.6s-23.4 14.9-29.6 33.4c-6.3 18.4-16.1 51.5-12.1 66.6 4 15.1 7.4 27.9 12.1 31.6 4.7 3.7 10.1.4 6.9-9.3-3.2-9.7-5.2-24.1-5.2-38.4-.1-14.3 4.8-47.3 10.9-57 6.1-9.7 24.1-23.8 28.2-22.4 4.1 1.4 14.8 6.6 14.8 6.6M121.5 518.4l-7.6-49.6c0 0-6.8-6.9-7.6-9.8s-9.7-64.5-9.7-64.5 3.8-6.6 2.8-10.7c-1.1-4.1-6.2-32.5-6.2-32.5s-6.8-9.4-7.8-12.8c-.9-3.5-7.1-47.8-8.4-52.5-1.2-4.6-1.7-3.9.9-10.8s4.9-11.9 8-9.6c3.1 2.3 9.6 5.5 11.1 13.8 1.6 8.3 10.9 57.4 11.4 61.6.5 4.2-5.3 5.8-4 12.9 1.3 7.1 6.3 28.2 6.3 28.2s3.7 4.6 5.5 9.1c1.8 4.5 11.6 67.1 11.6 67.1s-3.3 4-3.6 9.7c-.4 5.7 6 46.8 6 46.8M5 335c0 0 0-28 18.9-41.1 18.9-13.1 19.3-13.8 32.9-18.7s19.9-11.5 24.8-9.7"/>
</svg>
