<?xml version="1.0" encoding="utf-8" ?>
<!--
	https://github.com/Duxxie/duxxie-images
	This work is licenced by https://creativecommons.org/licenses/by-sa/4.0/
-->
<svg version="1.1" id="tillift-actief-svg" xmlns="http://www.w3.org/2000/svg" xmlns:xlink="http://www.w3.org/1999/xlink" x="0px" y="0px" width="1000px" height="1000px" viewBox="0 0 1000 1000" style="enable-background:new 0 0 1000 1000;" xml:space="preserve">
	<style type="text/css">
	#tillift-actief-svg .st1{fill:none;stroke:currentColor;stroke-linecap:round;stroke-linejoin:round;stroke-miterlimit:10;}
</style>
	<g id="Laag_2">
		<path class="st1" d="M847.5,96.3c0,0-10.9-63.1-20.4-64.8c-3.2-0.6-1.9,0.3-7.8,0.3c-5.9,0-2.2-6.1-5.4-7.9
		c-6.8-3.7-16.1,1.4-23.3,3.2c-4.6,1.2-0.6,22.3-0.6,22.3l-68,25.8l-0.7-11.9l5-7.9c0,0-5.5-23.5-7.9-35.3s-7.6-16.5-19.2-14.9
		c-21.3,2.9-21.7,17.2-21.7,17.2s-157.1,84.4-167.7,90.3c-10.6,5.9-9.4,29.3-9.4,29.3l-120.8,54c0,0-19.4-3.9-26.6,5.2
		c-7.3,9.1-37.9,65.2-39,69.8" />
		<path class="st1" d="M677.7,179.3c3.6,20.5,7.7,52.6,20.9,101.1c34.8,128,72.4,152.7,83,155c10.6,2.3,85-18.1,103.8-31
		s27.8-77.1,22-158s-5.7-116.2-24.6-124.3c-16-6.9-37.3-3.2-37.3-3.2" />
		<path class="st1" d="M673.8,137.6c-0.4,2.9-1.5,5.7,0.9,23" />
		<path class="st1" d="M777.6,145.5c0,0-2.9-34.3-9.9-43.7s-13.4-7.6-13.4-7.6s1.8,9.2,1.8,13.8c0,4.7-10.6,5.9-15.2,5.9
		c-4.7,0-35.7-12.8-35.7-12.8" />
		<path class="st1" d="M543.9,179.3c0,0,1.1,36.6-0.1,40.1c-1.2,3.5-1.2,3.5-1.2,3.5l3.2,8.2l-3.2,29.3l-11.7-1.2L525,332
		c0,0,9.4,2.3,8.2,8.2c-1.2,5.9-24.6,227.5-24.6,227.5s11.7,10.6,11.7,30.5s-2.3,68-4.7,71.5c-2.3,3.5-18.8,7-28.1,7
		c-9.4,0-28.1-8.2-30.5-11.7s-12.9-11.7-16.4-11.7" />
		<path class="st1" d="M502.8,193.7L518,223c0,0-10.9-4.4-12.9,2.3c-2.4,8.2-5.9,23.5-2.3,25.8c3.5,2.3,3.5,2.3,3.5,2.3l0,0l8.2,3.5
		l-5.9,76.2c0,0-8.2,0-8.2,3.5s-17.6,225.2-17.6,225.2s-9.2,3.1-9.2,6.7c0,3.5-1.4,12-4.9,14.3s-9.3,1.3-15.2,0.1
		c0,0-6.9-3.4-11,0.7s-9,22.5-9,23.7s-1.5,1.3-1.5,1.3" />
		<path class="st1" d="M374.8,710.1c-3.5-1.2-26.8-9.8-26.8-9.8L193.2,739c0,0-11.7,4.7-11.7,12.9s-3.5,36.4-3.5,36.4
		s39.9,51.6,45.7,56.3c5.9,4.7,99,23.1,99,23.1" />
		<path class="st1" d="M517.8,845.4c0,0,7.2-19.7-2.1-27.9c-9.4-8.2-131.3-73.9-131.3-73.9s-37.5-39.9-36.4-43.4" />
		<path class="st1" d="M182.7,747.1c0.6,14,37.4,58.7,48,58.7c10.6,0,284.4,12.8,284.4,12.8" />
		<path class="st1" d="M385,743.9c0,0-138.5,31.9-156.3,60.6" />
		<line class="st1" x1="455.8" y1="771.8" x2="383.8" y2="275.2" />
		<path class="st1" d="M452.6,743.9c4.7,0,308.1-50.7,308.1-50.7s14.7,8.1,11.2,11.6s-40.6,10.9-40.6,10.9s-12.8,2.1-17.5,11.5
		s-9.4,19.9-14.1,19.9S466.6,777,466.6,777" />
		<path class="st1" d="M542.6,855.1c8.2,0,371.7-49.3,371.7-49.3s7,3.8,13.6,14.7c1.7,2.8-46.5,3.8-46.6,8.9c0,0-3.8,0-31.3,31.9
		c-3.9,4.5-304,43-304,43l2.3-35.2L542.6,855.1z" />
		<path class="st1" d="M346.7,888.5c0,0-37,4.1-35.8-8.2c0.8-7.5,14.5-16.6,33.3-17.7c18.8-1.2,181.5-18.1,181.5-18.1
		c6.3-1.9,17.4,10.8,10.8,17.7c-5.4,5.7-15.8,7.3-15.8,7.3l-1.5,45.4l-84.4,15.2l-45.3-50.3" />
		<path class="st1" d="M350.8,933.8l-4-45.9c0,0,5.8-2.4,11.6-3.5c5.9-1.2,162.9-14.9,162.9-14.9" />
		<path class="st1" d="M436.4,878c0,4.7-1.6,52.1-1.6,52.1" />
		<path class="st1" d="M692.8,86c0,0,1.8-16,4-18.7c2.1-2.8,3.9-9.3,29.4-11.9" />
		<path class="st1" d="M520.3,910c0,0,11.4-1.6,14.3-3.8c2.9-2.2,11.6-1.9,11.6-1.9" />
		<line class="st1" x1="538.4" y1="855.2" x2="542.6" y2="855.1" />
		<line class="st1" x1="311.2" y1="896.1" x2="310.6" y2="877.4" />
		<path class="st1" d="M587.2,761.8c0,0,64.5-7.6,76.2-4c11.7,3.5,76.2,55.1,76.2,55.1s5.9,8.2,2.3,14.1" />
		<path class="st1" d="M256.5,270.1c5.4-3.6,14.3-5,22.5-6.5c17.5-3.4,24.6-6.9,35,9.8c10.6,17.2,43.4,279.1,43.4,279.1
		s4.7,2.3-10.6,5.9c-15.2,3.5-88,11.7-88,11.7s-10.6-12.9-14.1-12.9s-21.1-170-21.1-170s-7-23.5-11.7-27s-11.7-10.6-11.7-18.8
		c0-8.2-1.4-39.7,5.5-44.1" />
		<path class="st1" d="M189,288.9c0,0-8.4-12.1-9.9-21.4c-2-12.5,10.6-104.4,10.6-104.4s42.2,17.6,46.9,25.8s5.9,16.4,7,32.8
		s-16.4,83.3-14.1,92.6c2.3,9.4,7,28.6,5.8,32.1s-3.4,5.4-5.8,11.3c0,0,8.9,10.7,16,13c7,2.3,15.9-6.4,13.6-17s-8.4-16-9.6-26.5
		s10.6-80.9,12.9-100.9s-2.3-51.6-16.4-56.3s-52.8-25.8-52.8-25.8s-16.6-2.4-19.9,18.8c-3.1,19.8-12.9,95-11.7,100.9
		c1.2,5.9,18.8,39.9,24.6,45.7" />
		<path class="st1" d="M209.3,360.1c0,0-10.5,12.1-17.5,6.2s-5.7-44.8-5.7-44.8s2.8-36.5,9-41.1c4.7-3.4,10.6-4.2,14.1,1.7" />
		<path class="st1" d="M354.3,556.4c0,0,21.8,160.3,21.8,166.1s11.7,12.9,11.7,12.9s80.1,44.2,101.1,52.5c0,0,29.4,26.8,29.4,31.9" />
		<path class="st1" d="M323.4,276.9c0.7-3.3,39.9-68.4,41.8-69.7c2-1.3,21.1-12.5,31.9-2.7c9.2,8.4,17.1,19.2,7.3,39.2
		c-9.1,18.7-23.9,34.6-26.6,38.5l12.8,82.6c0,0-5.3,5.5-19.9,6.2s-30.1-5.8-30.1-5.8L323.4,276.9z" />
		<path class="st1" d="M399.8,205.9c5.1-1.8,122.2-56,122.2-56s27.2,10.6,38.5,8.6S705.3,100,705.3,100s0-10.7,2.6-14
		s5.9-5.9,12.4-4.6s34.1,5,33.7,12.5" />
		<path class="st1" d="M722,75.2c0,0-20.9,9.1-47.5,19.4c-45.2,17.4-107.3,41.1-114,42.8c-10.6,2.7-25.9-4.6-31.9-6
		c-6-1.3-6-5.3-6-5.3s161.5-86.9,160.8-84.4c-1.7,5.8-5.5,42.8-6.8,51.9" />
		<path class="st1" d="M743.2,86.2L805,62.3c0,0,14.4,50.5,14.6,47.2c0.4-4.7,4.1-11.8,6.5-12.7c2.5-0.9,6.9-1.1,10.8-1.3
		c4.8-0.2,10.7,1,10.7,1s-3.9,4.2-5.5,4.8" />
		<path class="st1" d="M407.7,236c3.3-2,128.2-60.2,128.2-60.2s17.3,7.3,25.2,8c8,0.7,185.3-8.6,185.3-8.6s36.5,0,45.8-22.6
		S813,89.7,813,89.7" />
		<path class="st1" d="M804.4,62.7l-22,71.3c0,0-4,19.3-15.3,21.3s-199.3,10-199.3,10s-21.2-4.8-21.2-6.8" />
		<path class="st1" d="M310,905.9c3.3,0.1,39.1-7.8,42.7,44.5c2.3,33.8-33.3,43.9-44.6,44.5c-16.8,1-47.2-13-41.8-48.8
		C271.1,913.8,301.4,905.6,310,905.9z" />
		<path class="st1" d="M181.2,793c0,0-16.3,35.4,9.6,51.2c16.2,9.8,29.8,3.8,33.3,2.5" />
		<path class="st1" d="M743.4,713.3c0,0,18.7-2.8,23.7,24.5c3.8,20.7-16.2,28.2-25.9,29.2c-17.8,1.9-35.8-13.6-30.7-32.9" />
		<path class="st1" d="M899.7,825c0,0,18.7-2.8,23.7,24.5c3.8,20.7-16.2,28.2-25.9,29.2c-17.8,1.9-36-16.1-30.8-35.3" />
		<path class="st1" d="M310.9,889.1c-0.3,0.7-24.4-1.3-33.3,11.5" />
		<path class="st1" d="M248.3,853.4c0,3.3-12.7,34.4,17.9,48.4" />
		<path class="st1" d="M609.5,659.3c9.5,15.5,24.4,5,24.4,5s7-15.4,11.5-32s0-21.1-12.2-25.6c-15.7-5.8-19.8,30.1-19.8,30.1l-53-36.9
		c0,0-7.9-1.7-7.2,7.9" />
		<path class="st1" d="M589.4,639.5l15.1-2.6c0,0,12.4,9.2,7.2,21l-13.8,3.9" />
		<path class="st1" d="M547.5,608.7l15.1-2.6c0,0,12.4,9.2,7.2,21L556,631" />
		<path class="st1" d="M565.4,629.9c3.8,3.4,12.2,12.1,12.2,12.1" />
		<path class="st1" d="M612.1,57.1c-7.2-0.7-31.9-8.2-31.9-8.2s-11.1,5.9-9.2,14.4s2,8.5,2,8.5l9.8,1.9" />
		<path class="st1" d="M576.1,154.2c0,0,95-14.8,98.3-18.1c0,0,12.3-8.9,15-27.6" />
		<path class="st1" d="M330.9,374.6c0,0-71.4,23.2-105.9,14.1" />
		<path class="st1" d="M203.9,293.7c1.8,0.3,20.3-4.7,20.7-12s-6.9-2.9-12-1.1S198.8,293,203.9,293.7z" />
		<path class="st1" d="M203.9,293.7l4.7,8c1.1,0,18.5-2.5,19.6-9.1l-3.6-10.9" />
		<line class="st1" x1="233.6" y1="281" x2="226.7" y2="285.4" />
		<path class="st1" d="M268.1,969.6c0,0-6.1,3.5-8.2-0.6c-3.5-6.8-5.2-15.7-5.2-15.7s-9.9-0.6-10.6-9.3s10.9-9,10.9-9
		s4.3-21.7,10.7-23.3l1.2-13.6c2,0,6.5-6.1,8.8,1.9s3,21,3,21" />
		<path class="st1" d="M822.8,121.4c-11.7-0.6-24.4,17.1-26.4,20.9" />
		<path class="st1" d="M781.3,166.8c0,0,16.9,132.6,17.2,141.5c0.9,23.4,0.9,81.7-14.4,98.9c-9.6,10.8-18.7,0.3-32.3-25.3
		c-22.6-42.7-61.7-202.6-61.7-202.6" />
		<path class="st1" d="M686.1,160c0,0-3.5-29.1,5.5-35.5c9-6.4,32-15.4,32-15.4" />
		<path class="st1" d="M447,705.3c3.2,0,105.6-33.9,105.6-33.9l-16.6-64c0,0-1.3-7.7,5.1-3.8c6.4,3.8,3.2-0.6,9,15.4
		s14.1,42.3,14.7,44.8c0.6,2.6,10.9,7,10.9,7" />
		<path class="st1" d="M504.9,735.6c5.1-1.3,72.7-27.1,72.7-27.1l16.8,7l3-60.8c0,0-8.3-21.1-15.4-19.2c-7,1.9-5.1,36.3-5.1,36.3" />
		<path class="st1" d="M449.5,718.1c12.2-1.9,126.2-36.7,126.2-36.7l1.8,27.1" />
		<path class="st1" d="M605.8,630.4c0-6.4-3.2-65.9-1.9-73s4.5-10.2,13.4-9s60.2,14.1,65.3,17.9c5.1,3.8,17.3,11.5,17.3,36.5
		s-1.2,49.3-1.2,51.3c0,2.4-1.3,27.7-38,33.6c-38.2,6.1-50.4-26.1-50.4-26.1" />
		<path class="st1" d="M565.8,603.4c0-2.6-10.8-91.2-10.8-91.2s0.3-9.6,13.1-10.4c7.1-0.4,25.8,7.3,28.8,15.4c3.9,10.5,7,40.3,7,40.3
		" />
		<path class="st1" d="M605.1,608c-2.6,5.1-5.6,15.2-10.1,15.2" />
		<path class="st1" d="M595.7,515.9c-16.2-12.7-26-10.2-28.4-7.2c-1.6,2-3.1,6.2,5.1,14.8c9.5,9.9,14.1,18.5,17.3,33.9
		s7.3,64.9,7.3,64.9" />
		<path class="st1" d="M839.6,97.4l19,86.9c0,0-2.8,0.9-6.1,2.1c-3.4,1.2-7.4,1.5-10.4,1.2c-3.1-0.3-20.6-82.9-20.6-82.9" />
		<path class="st1" d="M177.5,828.9c0,0-7.4,2.2-9.5-1.9c-3.5-6.8-3.9-10.7-3.9-10.7s-9.9-0.6-10.6-9.3s10.9-9,10.9-9
		s4.2-17.4,10.6-19.1l4.8-12.7" />
		<path class="st1" d="M196.4,368.7c0,6.3-1.1,24-1.1,24s8,9.1,8,20s2.3,69.7,1.1,77.7c-1.1,8-2.9,46.8-1.7,53.7s2.9,16.6,7.4,14.3
		c4.6-2.3,17.7-19.4,17.7-28s-8-63.4-8.6-72s-6.9-19.4-4-22.8s4-5.7,7.4-4.6s6.3,5.7,6.3,5.7" />
		<path class="st1" d="M235.2,496.6c0,0,5.1,35.4,2.9,42.3c-2.3,6.9-16.6,26.8-21.7,29.1c-5.1,2.3-15.4,10.3-18.8-2.3
		c-3.4-12.6-8-41.7-5.1-78.8s3.4-63.4,1.1-71.4c-2.3-8-11.4-17.7-8.6-20c2.9-2.3,6.9-4,10.3-2.9" />
	</g>
	<path class="st1" d="M821.9,108.4c0,0-1.8,1.7-2.3,1.1" />
</svg>
