<!--
	https://github.com/Duxxie/duxxie-images
	This work is licenced by https://creativecommons.org/licenses/by-sa/4.0/
-->
<svg version="1.1" id="tillift-passief-svg" xmlns="http://www.w3.org/2000/svg" x="0px" y="0px" width="1000px" height="1000px" viewBox="0 0 1000 1000" xml:space="preserve">
  <style>
    #tillift-passief-svg .st0{fill:none;stroke:currentColor;stroke-linecap:round;stroke-linejoin:round;stroke-miterlimit:10;}
  </style>
  <path class="st0" d="M339.8 271.1L329.7 14.6 345.6 5l39.3.8 9.2 227c0 0 24.7-34.9 50.3-36.9 22.7-1.9 202.3 14.2 202.3 14.2M346.8 613.8l-20.7 6.9-32.4-17.2-2.1-102c0 0-1.5-7.4-4.3-11.6-2.8-4.1-1.7 1.1-8.8 1.9-13.5 1.7-32.1-10.8-37.6-19.7-5.5-9-6.5-20.3 1.1-45.8 7.6-25.5 19.2-37.8 25.5-42.7 9.5-7.4 19.4-15.3 43.4-22.1 16.3-4.7 17.2-5.5 23.4-5.5"/>
  <path class="st0" d="M645.5,247.2c-2.9-0.7-164.7-16.1-164.7-16.1s-24.9-4.7-38.9,6.9c-13.8,11.6-18.1,29.2-17.1,45.3	c1,16,5.2,109.6,5.2,109.6s-1.5,4.7-5.4,6.9c-3.7,2.2-17.9-1-17.9-1l8.1,245.5l3.2,90l60.2,17.4c0,0,0.7,6.9,2.8,8.3	s320.2,89.3,320.2,89.3s-6.9,13.2-12.7,13c-8.8-0.6-28.7-10.5-35.4-10.2l-16.4,13.4L468,786.7c0,0-99.6,51.7-92.1,53.8	s286.9,110.4,286.9,110.4s-5.4,4.7-12.7,9.6c-3.6,2.5-10.1-3.7-13.6-5.2c-4.5-1.8-16-6.6-20.3-5.4L601,961.8l-250-98.5h-7.6	l-43.4-14.5l-0.7-28.9l-38.3-15.2c0,0-21.2-7.4-26.3-9c-12.1-3.7,9.8-14.7,17-11.2c2.2,1.1,66.3,24.4,66.3,24.4l37.9-31.7	l-24.3-496.4"/>
  <path class="st0" d="M338.5 433.2l-34.5 8.3-.7-9c0 0-12.4-.7-12.4 1.4 0 2.1 0 2.1 0 2.1l6.2 9c0 0-9.6 3.4-12.4 5.5-2.8 2.1-2.1 5.5-2.1 9.6 0 4.1-.7 13.8-.7 13.8s-2.6 4.7-6.8 4c-4.1-.7-14.5-4.8-21.5-11.6-4.7-4.4-5.4-7.6-4.8-16.5.6-9.8 8-31.1 13-40 3.9-6.9 23.6-24.1 36.7-28.3 13.1-4.1 36.5-9 37.9-10.3M394.9 232.3c0 0-3.9 5.9-5.1 30.5s3 131.5 3 131.5l14.2 3.7M454.2 793.9L453.6 769.9 418.7 761.5M329.3 799.1l47.4 16.4-1.1 23.7c0 0-6.9-2.5-12.4.6-5.5 3-13 6.3-13 6.3v16.5"/>
  <path class="st0" d="M418.2 734l1 47.7-19 11c0 0-14.7 0-22.7-1.2-8-1.2-23.6-7.7-24.1-11.4M482.6 761.4L474.6 766.2 474.6 787.7M772.4 857.3c0 0 13.1 8.3 11.7 21.1-1.5 12.8-13.8 14.9-21.8 12.4-11.7-3.7-17.8-15.3-14.7-24.9 3-9.8 10.5-11.4 13.5-11.9"/>
  <path class="st0" d="M793.5 859.9c0 0 3 4.8 3 11.3 0 6.3-2.2 9.8-4.8 11.7-2.6 1.9-8.3 3-9 .7M634 954.6c0 0 13.6 3.3 15 20.9 1.4 17.6-16.4 21.8-26.2 18.3-9.8-3.4-17.8-12.3-14.7-25.9C611.2 954.6 622.7 951.9 634 954.6z"/>
  <path class="st0" d="M657.3 956.3c0 0 4.5 3.2 4.1 11.9-.4 8.7-5.2 13.9-12.4 15M619.3 954.5c0 0 .3-3.9 2.6-4.3M240.4 799.6c.6.3 14.5 7.3 14.1 26.6-.3 15.8-13.4 25.4-29.4 16.1-15.2-8.7-13.8-26.2-9.6-36.4C219.5 796 228.4 794.5 240.4 799.6zM270.2 807.8c1.1 3 1.7 7.3.6 13.1-2.6 15.4-12.7 16.1-17.4 15.3M235.2 795.8c0 0-1.5-.6-2.5 1.2M290.8 496.9l27.6 14.1c0 0 1.4 1 6.5.4 5.1-.4 15.8-3.3 15.8-3.3"/>
  <path class="st0" d="M336.2 456.6c0 0-5.1 14.5-7.4 23.4-2.3 8.8-4.7 24.3-3.7 31.3 1 7 2.8 109.4 2.8 109.4M389.5 288.9c-3.2 3.2-44.7-1.9-53.1-5.2-4.3-1.7-4.8-3-4.8-3s-.3-6.3 7.4-8.1M383.7 10.4L366.7 18.9 331.6 16.7M374.1 35.9L383.7 281.3M356 280.4c0-5.4-7.4-242.3-7.4-242.3M395.9 396.4L408.1 787.3M384.8 31.6L372 37 329.6 35.9"/>
  <path class="st0" d="M389.1 278.4c0 0-2.5 5.9-12.3 4.7-9.8-1.2-36.9-5.2-36.9-5.2s0-3.7 0-6.8M353.4 725.7c0 0-12.7-2.2-13.2 17.5-.4 20.1 12.4 24.7 15 26.5M647.1 202.8L647.4 301.6M672.2 202.2L671.7 292.8M661.5 197.3c5.8.6 19.3 3.6 5.5 8.8-13 5-25.1-4-19.2-6.6C653.7 196.9 658.1 197.7 661.5 197.3zM624.1 302.3c0 0-7.3-29.6-6.2-32.8 1.1-3.4 6.2-9 9.8-10.5M531.6 364.3l.4 13.2c0 0-3.3 2.6-4.8 1.8-1.5-.8-2.6-2.9-2.6-2.9l-4 1.1c0 0-2.8-3.9-1.2-5 1.5-1.1 5-2.1 5-2.1v-12.1M531.6 350.2L533.1 325.9M804.9 467c0 0 2.8-.3 3 1 .3 1.2.6 2.5-.7 3.4-1.2 1-3.3 1.2-3.3 1.2M665 541.5c0 0-3.4-.3-4 2.1-.6 2.2-1.8 2.8.3 4 2.1 1.2 3.3 1.2 5.2.7 2.1-.6 5.9-5.4 5.9-5.4M796.4 396.8c2.3-.6 9.6.3 9 6.5M663.1 464.2c2.3-.6 10.2.6 9.4 6.6M702.4 352.3c2.3-.6 12.3-.6 9.4 10.9M580.6 409.9c2.3-.6 12.3-.6 9.4 10.9M692.1 312.9c-7.2-.7-14.7-1.2-22.7-1.7-5-.3-9.6-.4-13.9-.7M820.4 370.1c-8.1-9.1-21.9-22.9-37.5-31.7-18.7-10.6-41.9-19.2-76.4-23.8M819.3 386.8c4.4 4.1 6.5 3.9 9.4 1.1 3.4-3.3-.7-8.8-.7-8.8"/>
  <path class="st0" d="M710.8 327.1c8.1 1.1 15.6 2.3 21.8 4 24.3 6.8 51.8 16.4 78.7 47.4M640 321.4c15.6.7 39.1 1.9 60.5 4.3M598.7 381.4c-6.2-2.1-12.3-4-18.2-5.4-28.9-7.3-54.3-25.8-54.3-31.1 0-5.4.4-16.3 4.1-18.6 3.6-2.2 89.2-5.9 92.3-5.4.3 0 1.1.1 2.5.1M687.6 436.8c-9.2-10.3-22.6-24-29.8-28.7-8-5.2-27.2-14.7-47.8-22.6M686.3 453.3c2.2 2.3 3.4 3.6 3.4 3.6s8.1-.4 8.1-7.7c0-.3-1-1.8-2.8-3.9M608.3 395.3c1.7.6 3 1.1 4.1 1.4 9.1 3.6 44.8 23 56.5 37.1 3.6 4.3 6.9 8 9.8 11.3"/>
  <path class="st0" d="M522.1 319.7c-6.3 8.1-15.4 28.5 8.8 44 20.3 12.8 48.1 22.2 65.9 28M637.8 309.9c-30.3-1.2-40.8-.8-53.1.6-5.7.7-13.9 1-22.5 1.2"/>
  <path class="st0" d="M726.6,330c0.4,1.4,0.1,14.3,0.1,14.3s5.9,2.8,4.1,8.1c0,0-19,13.1-23.6,13.1s-9.9-3.6-8.5-8.5 s4.5-5.4,4.5-5.4s2.2-25.8-9.1-36.7c-11.3-10.9-14.9-19-45.2-0.4c-30.3,18.6-39.8,73.3-41.2,85.5c0,0,7.3,4.1,4.1,8.5L586.2,423 c0,0-15.8-4.1-4.1-14.1l-0.7-22.3"/>
  <path class="st0" d="M591.6 390.2l1.8 15.8c0 0 .4-.8 1.7-1.2 0 0 6.3-53.3 19.8-71s31.1-31.1 36.7-34.3c5.5-3.2 23.6-8.5 28.9-7.3s16.3 2.2 24.4 19c8.1 16.7 9.1 36.7 9.1 36.7l3.2-1-1-18.6M689.2 435.7c0 0-14.9 14.1-17.6 16.7-2.8 2.6-8.5 11.3-8.5 11.3s-3.6 2.2-.4 6.8c3.2 4.5 7.7 3.6 8.5 2.2.8-1.4 10.9-14.9 13.5-17.6 2.6-2.8 9.9-10.3 11.3-10.3s1.4 0 1.4 0L689.2 435.7zM821.7 369.1c0 0-14.9 14.1-17.6 16.7s-8.8 10.8-8.8 10.8-3.3 2.8-.1 7.3c3.2 4.5 7.7 3.6 8.5 2.2.8-1.4 10.9-14.9 13.5-17.6 2.8-2.8 9.9-10.3 11.3-10.3s1-1.2 1-1.2L821.7 369.1zM586.9 307.1c0-1.4-9.1-24.9-8.5-26.7.6-1.8 1.4-12.3 7.3-12.7 5.9-.4 42.6-9.1 42.6-9.1s6.3 9.2 9.9 20.1c.3.7 7.9 1.5 5.8 11.6-1.1 5.4-6.2 6.6-8.5 6.3-.7-.1-10.9 5.9-10.9 5.9L586.9 307.1zM585.9 304.8c-1.8.4-23.7 6.9-23.7 6.9l-29.5 6.9-2.8-2.1c0 0-1.2 3.4-8 3.2-4.4-.1-5.8-10.6-1-12 3.4-1 7.3-.4 7.3-.4l4.5-3.6 48.9-11.3M638.6 279.1L646.7 276M640.4 295.7L647.1 292.6"/>
  <path class="st0" d="M807.7 401.8l-4 73.2c0 0-5 4.1-6.8.4l1-68.5M675.9 467.1l-3.4 75.8c0 0-5 4.1-6.8.4l1.4-69.2"/>
</svg>
