<!--
  https://github.com/Duxxie/duxxie-creative-commons
  This work is licenced by https://creativecommons.org/licenses/by-sa/4.0/
-->
<svg version="1.1" id="tillift-actief-svg" xmlns="http://www.w3.org/2000/svg" x="0px" y="0px" width="1000px" height="1000px" viewBox="0 0 1000 1000" xml:space="preserve">
  <style>
    #tillift-actief-svg .st1{fill:none;stroke:currentColor;stroke-linecap:round;stroke-linejoin:round;stroke-miterlimit:10;}
  </style>
  <path class="st1" d="M847.5 96.3c0 0-10.9-63.1-20.4-64.8-3.2-.6-1.9.3-7.8.3-5.9 0-2.2-6.1-5.4-7.9-6.8-3.7-16.1 1.4-23.3 3.2-4.6 1.2-.6 22.3-.6 22.3l-68 25.8-.7-11.9 5-7.9c0 0-5.5-23.5-7.9-35.3s-7.6-16.5-19.2-14.9c-21.3 2.9-21.7 17.2-21.7 17.2s-157.1 84.4-167.7 90.3c-10.6 5.9-9.4 29.3-9.4 29.3l-120.8 54c0 0-19.4-3.9-26.6 5.2-7.3 9.1-37.9 65.2-39 69.8M677.7 179.3c3.6 20.5 7.7 52.6 20.9 101.1 34.8 128 72.4 152.7 83 155 10.6 2.3 85-18.1 103.8-31s27.8-77.1 22-158-5.7-116.2-24.6-124.3c-16-6.9-37.3-3.2-37.3-3.2M673.8 137.6c-.4 2.9-1.5 5.7.9 23"/>
  <path class="st1" d="M777.6 145.5c0 0-2.9-34.3-9.9-43.7s-13.4-7.6-13.4-7.6 1.8 9.2 1.8 13.8c0 4.7-10.6 5.9-15.2 5.9-4.7 0-35.7-12.8-35.7-12.8M543.9 179.3c0 0 1.1 36.6-.1 40.1-1.2 3.5-1.2 3.5-1.2 3.5l3.2 8.2-3.2 29.3-11.7-1.2L525 332c0 0 9.4 2.3 8.2 8.2-1.2 5.9-24.6 227.5-24.6 227.5s11.7 10.6 11.7 30.5-2.3 68-4.7 71.5c-2.3 3.5-18.8 7-28.1 7-9.4 0-28.1-8.2-30.5-11.7s-12.9-11.7-16.4-11.7"/>
  <path class="st1" d="M502.8 193.7L518 223c0 0-10.9-4.4-12.9 2.3-2.4 8.2-5.9 23.5-2.3 25.8 3.5 2.3 3.5 2.3 3.5 2.3l0 0 8.2 3.5-5.9 76.2c0 0-8.2 0-8.2 3.5s-17.6 225.2-17.6 225.2-9.2 3.1-9.2 6.7c0 3.5-1.4 12-4.9 14.3s-9.3 1.3-15.2.1c0 0-6.9-3.4-11 .7s-9 22.5-9 23.7-1.5 1.3-1.5 1.3M374.8 710.1c-3.5-1.2-26.8-9.8-26.8-9.8L193.2 739c0 0-11.7 4.7-11.7 12.9s-3.5 36.4-3.5 36.4 39.9 51.6 45.7 56.3c5.9 4.7 99 23.1 99 23.1"/>
  <path class="st1" d="M517.8,845.4c0,0,7.2-19.7-2.1-27.9c-9.4-8.2-131.3-73.9-131.3-73.9s-37.5-39.9-36.4-43.4"/>
  <path class="st1" d="M182.7 747.1c.6 14 37.4 58.7 48 58.7 10.6 0 284.4 12.8 284.4 12.8M385 743.9c0 0-138.5 31.9-156.3 60.6M455.8 771.8L383.8 275.2M452.6 743.9c4.7 0 308.1-50.7 308.1-50.7s14.7 8.1 11.2 11.6-40.6 10.9-40.6 10.9-12.8 2.1-17.5 11.5-9.4 19.9-14.1 19.9S466.6 777 466.6 777M542.6 855.1c8.2 0 371.7-49.3 371.7-49.3s7 3.8 13.6 14.7c1.7 2.8-46.5 3.8-46.6 8.9 0 0-3.8 0-31.3 31.9-3.9 4.5-304 43-304 43l2.3-35.2L542.6 855.1zM346.7 888.5c0 0-37 4.1-35.8-8.2.8-7.5 14.5-16.6 33.3-17.7 18.8-1.2 181.5-18.1 181.5-18.1 6.3-1.9 17.4 10.8 10.8 17.7-5.4 5.7-15.8 7.3-15.8 7.3l-1.5 45.4-84.4 15.2-45.3-50.3"/>
  <path class="st1" d="M350.8 933.8l-4-45.9c0 0 5.8-2.4 11.6-3.5 5.9-1.2 162.9-14.9 162.9-14.9M436.4 878c0 4.7-1.6 52.1-1.6 52.1M692.8 86c0 0 1.8-16 4-18.7 2.1-2.8 3.9-9.3 29.4-11.9M520.3 910c0 0 11.4-1.6 14.3-3.8 2.9-2.2 11.6-1.9 11.6-1.9M538.4 855.2L542.6 855.1M311.2 896.1L310.6 877.4M587.2 761.8c0 0 64.5-7.6 76.2-4 11.7 3.5 76.2 55.1 76.2 55.1s5.9 8.2 2.3 14.1M256.5 270.1c5.4-3.6 14.3-5 22.5-6.5 17.5-3.4 24.6-6.9 35 9.8 10.6 17.2 43.4 279.1 43.4 279.1s4.7 2.3-10.6 5.9c-15.2 3.5-88 11.7-88 11.7s-10.6-12.9-14.1-12.9-21.1-170-21.1-170-7-23.5-11.7-27-11.7-10.6-11.7-18.8c0-8.2-1.4-39.7 5.5-44.1"/>
  <path class="st1" d="M189,288.9c0,0-8.4-12.1-9.9-21.4c-2-12.5,10.6-104.4,10.6-104.4s42.2,17.6,46.9,25.8s5.9,16.4,7,32.8 s-16.4,83.3-14.1,92.6c2.3,9.4,7,28.6,5.8,32.1s-3.4,5.4-5.8,11.3c0,0,8.9,10.7,16,13c7,2.3,15.9-6.4,13.6-17s-8.4-16-9.6-26.5 s10.6-80.9,12.9-100.9s-2.3-51.6-16.4-56.3s-52.8-25.8-52.8-25.8s-16.6-2.4-19.9,18.8c-3.1,19.8-12.9,95-11.7,100.9 c1.2,5.9,18.8,39.9,24.6,45.7"/>
  <path class="st1" d="M209.3 360.1c0 0-10.5 12.1-17.5 6.2s-5.7-44.8-5.7-44.8 2.8-36.5 9-41.1c4.7-3.4 10.6-4.2 14.1 1.7M354.3 556.4c0 0 21.8 160.3 21.8 166.1s11.7 12.9 11.7 12.9 80.1 44.2 101.1 52.5c0 0 29.4 26.8 29.4 31.9M323.4 276.9c.7-3.3 39.9-68.4 41.8-69.7 2-1.3 21.1-12.5 31.9-2.7 9.2 8.4 17.1 19.2 7.3 39.2-9.1 18.7-23.9 34.6-26.6 38.5l12.8 82.6c0 0-5.3 5.5-19.9 6.2s-30.1-5.8-30.1-5.8L323.4 276.9zM399.8 205.9c5.1-1.8 122.2-56 122.2-56s27.2 10.6 38.5 8.6S705.3 100 705.3 100s0-10.7 2.6-14 5.9-5.9 12.4-4.6 34.1 5 33.7 12.5"/>
  <path class="st1" d="M722 75.2c0 0-20.9 9.1-47.5 19.4-45.2 17.4-107.3 41.1-114 42.8-10.6 2.7-25.9-4.6-31.9-6-6-1.3-6-5.3-6-5.3s161.5-86.9 160.8-84.4c-1.7 5.8-5.5 42.8-6.8 51.9M743.2 86.2L805 62.3c0 0 14.4 50.5 14.6 47.2.4-4.7 4.1-11.8 6.5-12.7 2.5-.9 6.9-1.1 10.8-1.3 4.8-.2 10.7 1 10.7 1s-3.9 4.2-5.5 4.8"/>
  <path class="st1" d="M407.7,236c3.3-2,128.2-60.2,128.2-60.2s17.3,7.3,25.2,8c8,0.7,185.3-8.6,185.3-8.6s36.5,0,45.8-22.6 S813,89.7,813,89.7"/>
  <path class="st1" d="M804.4 62.7l-22 71.3c0 0-4 19.3-15.3 21.3s-199.3 10-199.3 10-21.2-4.8-21.2-6.8M310 905.9c3.3.1 39.1-7.8 42.7 44.5 2.3 33.8-33.3 43.9-44.6 44.5-16.8 1-47.2-13-41.8-48.8C271.1 913.8 301.4 905.6 310 905.9zM181.2 793c0 0-16.3 35.4 9.6 51.2 16.2 9.8 29.8 3.8 33.3 2.5M743.4 713.3c0 0 18.7-2.8 23.7 24.5 3.8 20.7-16.2 28.2-25.9 29.2-17.8 1.9-35.8-13.6-30.7-32.9M899.7 825c0 0 18.7-2.8 23.7 24.5 3.8 20.7-16.2 28.2-25.9 29.2-17.8 1.9-36-16.1-30.8-35.3M310.9 889.1c-.3.7-24.4-1.3-33.3 11.5M248.3 853.4c0 3.3-12.7 34.4 17.9 48.4M609.5 659.3c9.5 15.5 24.4 5 24.4 5s7-15.4 11.5-32 0-21.1-12.2-25.6c-15.7-5.8-19.8 30.1-19.8 30.1l-53-36.9c0 0-7.9-1.7-7.2 7.9"/>
  <path class="st1" d="M589.4 639.5l15.1-2.6c0 0 12.4 9.2 7.2 21l-13.8 3.9M547.5 608.7l15.1-2.6c0 0 12.4 9.2 7.2 21L556 631M565.4 629.9c3.8 3.4 12.2 12.1 12.2 12.1M612.1 57.1c-7.2-.7-31.9-8.2-31.9-8.2s-11.1 5.9-9.2 14.4 2 8.5 2 8.5l9.8 1.9M576.1 154.2c0 0 95-14.8 98.3-18.1 0 0 12.3-8.9 15-27.6M330.9 374.6c0 0-71.4 23.2-105.9 14.1M203.9 293.7c1.8.3 20.3-4.7 20.7-12s-6.9-2.9-12-1.1S198.8 293 203.9 293.7z"/>
  <path class="st1" d="M203.9 293.7l4.7 8c1.1 0 18.5-2.5 19.6-9.1l-3.6-10.9M233.6 281L226.7 285.4M268.1 969.6c0 0-6.1 3.5-8.2-.6-3.5-6.8-5.2-15.7-5.2-15.7s-9.9-.6-10.6-9.3 10.9-9 10.9-9 4.3-21.7 10.7-23.3l1.2-13.6c2 0 6.5-6.1 8.8 1.9s3 21 3 21M822.8 121.4c-11.7-.6-24.4 17.1-26.4 20.9M781.3 166.8c0 0 16.9 132.6 17.2 141.5.9 23.4.9 81.7-14.4 98.9-9.6 10.8-18.7.3-32.3-25.3-22.6-42.7-61.7-202.6-61.7-202.6M686.1 160c0 0-3.5-29.1 5.5-35.5 9-6.4 32-15.4 32-15.4M447 705.3c3.2 0 105.6-33.9 105.6-33.9l-16.6-64c0 0-1.3-7.7 5.1-3.8 6.4 3.8 3.2-.6 9 15.4s14.1 42.3 14.7 44.8c.6 2.6 10.9 7 10.9 7"/>
  <path class="st1" d="M504.9,735.6c5.1-1.3,72.7-27.1,72.7-27.1l16.8,7l3-60.8c0,0-8.3-21.1-15.4-19.2c-7,1.9-5.1,36.3-5.1,36.3"/>
  <path class="st1" d="M449.5 718.1c12.2-1.9 126.2-36.7 126.2-36.7l1.8 27.1M605.8 630.4c0-6.4-3.2-65.9-1.9-73s4.5-10.2 13.4-9 60.2 14.1 65.3 17.9c5.1 3.8 17.3 11.5 17.3 36.5s-1.2 49.3-1.2 51.3c0 2.4-1.3 27.7-38 33.6-38.2 6.1-50.4-26.1-50.4-26.1"/>
  <path class="st1" d="M565.8 603.4c0-2.6-10.8-91.2-10.8-91.2s.3-9.6 13.1-10.4c7.1-.4 25.8 7.3 28.8 15.4 3.9 10.5 7 40.3 7 40.3M605.1 608c-2.6 5.1-5.6 15.2-10.1 15.2"/>
  <path class="st1" d="M595.7 515.9c-16.2-12.7-26-10.2-28.4-7.2-1.6 2-3.1 6.2 5.1 14.8 9.5 9.9 14.1 18.5 17.3 33.9s7.3 64.9 7.3 64.9M839.6 97.4l19 86.9c0 0-2.8.9-6.1 2.1-3.4 1.2-7.4 1.5-10.4 1.2-3.1-.3-20.6-82.9-20.6-82.9M177.5 828.9c0 0-7.4 2.2-9.5-1.9-3.5-6.8-3.9-10.7-3.9-10.7s-9.9-.6-10.6-9.3 10.9-9 10.9-9 4.2-17.4 10.6-19.1l4.8-12.7M196.4 368.7c0 6.3-1.1 24-1.1 24s8 9.1 8 20 2.3 69.7 1.1 77.7c-1.1 8-2.9 46.8-1.7 53.7s2.9 16.6 7.4 14.3c4.6-2.3 17.7-19.4 17.7-28s-8-63.4-8.6-72-6.9-19.4-4-22.8 4-5.7 7.4-4.6 6.3 5.7 6.3 5.7"/>
  <path class="st1" d="M235.2 496.6c0 0 5.1 35.4 2.9 42.3-2.3 6.9-16.6 26.8-21.7 29.1-5.1 2.3-15.4 10.3-18.8-2.3-3.4-12.6-8-41.7-5.1-78.8s3.4-63.4 1.1-71.4c-2.3-8-11.4-17.7-8.6-20 2.9-2.3 6.9-4 10.3-2.9M821.9 108.4c0 0-1.8 1.7-2.3 1.1"/>
</svg>
