<!--
	https://github.com/Duxxie/duxxie-images
	This work is licenced by https://creativecommons.org/licenses/by-sa/4.0/
-->
<svg version="1.1" id="toiletband-passief-svg" xmlns="http://www.w3.org/2000/svg" x="0px" y="0px" width="1000px" height="1000px" viewBox="0 0 1000 1000" xml:space="preserve">
  <style>
    #toiletband-passief-svg .st0{fill:none;stroke:currentColor;stroke-linecap:round;stroke-linejoin:round;stroke-miterlimit:10;}
  </style>
  <path class="st0" d="M171.8,896.6c-19.2-0.3-36.2-7.2-41.6-19.2c-9.3-20.5,3.7-153,3.7-169.8c0-16.8,26.1-158.6,28-169.8	c1.9-11.2,1.9-82.1,7.5-102.6c5.6-20.5,0-35.5-13.1-50.4c-13.1-14.9-32.1-31.8-33.1-70.9c-0.3-11.9,13.6-47.7,31.2-56	c18.2-8.5,28.7-20.1,58.6-16.3C242.9,245.3,328,243,328,243s13.1-1.9,16.8,3.7s3.7,5.6,3.7,5.6l18.7,7.5l1.9-13.1	c0,0-48.5-35.5-54.1-42.9c-5.6-7.5-18.7-18.7-18.7-18.7s-0.9-0.5-1.3-1.9"/>
  <path class="st0" d="M807.2 899.3c-20.3-4.8-44.8-16.3-50-33.1-7.5-24.2-33.6-205.3-33.6-231.4s-7.5-59.7-5.6-74.6-46.8-72.2-71.1-74.1c-24.3-1.9-55.8-2.4-70.7-8s-28-16.8-42.9-14.9c-14.9 1.9-37.5 16.7-61.7 18.6-24.3 1.9-38.6 0-63.3-7.4-25.1-7.5-55.5.5-68.6 17.3s-49.1 33-58.5 46c-9.3 13.1-16.1 113.8-18.7 148-2.7 35.4-7.3 64.8-7.3 87.2s-13.1 97-42.9 113.8c-5.8 3.3-12.2 5.7-18.7 7.3M701.9 186.5c-18 19.2-61.2 68.2-67.9 73.3l16.7 1.8 12.4-12.4 108.8 2.2c0 0 70.6-1 78.8 3.3 32.3 16.8 28.1 64.4 27.7 78.6 0 0-12.6 33.5-18.2 37.2-5.6 3.7-10.1 2.6-11.9 10.1s-14.4 20.6-23.7 54.2-16.2 84.3 2.5 125.4c18.7 41.1 10 56.8 24.5 120.1 16.3 71.1 32.5 165.6 26.9 180.5-5.6 14.9-31.7 39-48.5 41.1M286.6 169.2c-8.7-16.6-18.3-42.8-5.3-60.6 20.5-28 57.8-50.4 80.2-56 22.4-5.6 54.1-24.3 82.1-22.4 28 1.9 85.8 9.3 98.9 3.7 13.1-5.6 57.8-9.3 69 7.5s24.3 22.4 50.4 28c26.1 5.6 63.4 46.7 63.4 46.7 0 34.5-4 47.9-13 59.1"/>
  <path class="st0" d="M148.1 369.7c3.7-1.2 49.8-18.7 56-18.7s7.5 7.5 36.1 6.2 48.5 1.2 70.9 1.2 130.6-8.7 145.6-8.7 24.9-6.2 46-2.5c21.1 3.7 63.4 10 87.1 10s75.9 0 84.6 0 33.6-1.2 47.3-1.2c13.7 0 31.1 1.2 43.5 6.2 12.4 5 82.1 19.9 82.1 19.9M159.3 390.9c11.2 0 29.9-7.5 38.6-7.5 8.7 0 18.7 10 31.1 10 12.4 0 28.6-1.2 49.8-1.2s64.7-5 93.3-2.5c28.6 2.5 97-2.5 109.5-2.5 12.4 0 136.9 7.5 158 7.5s90.8-3.7 99.5 0c8.7 3.7 38.6 12.4 49.8 16.2 11.2 3.7 37.3 14.9 37.3 14.9M795 772.8l12.4 131.9-10 2.5 10 54.7 11.2-2.5 27.4-1.2-6.2-54.7-11.2-1.2-10-131.9h8.7l-2.5-34.8c0 0-46-2.5-46 1.2s3.7 34.8 3.7 34.8L795 772.8zM815.9 962.6c.4 2.5 3.8 13.9 3.8 13.9s21.9 1.3 21.9-.4c0-1.7-2.1-16.9-2.1-16.9M818.6 770.4L795 772.8M807.5 904.7L828.6 902.2M205.3 771.6l-12.4 131.9 10 2.5-10 54.7-11.2-2.5-27.4-1.2 6.2-54.7 11.2-1.2 10-131.9H173l2.5-34.8c0 0 46-2.5 46 1.2 0 3.7-3.7 34.8-3.7 34.8L205.3 771.6zM184.4 961.4c-.4 2.5-3.8 13.9-3.8 13.9s-21.9 1.3-21.9-.4 2.1-16.9 2.1-16.9M181.7 769.1L205.3 771.6M192.9 903.5L171.7 901M879.3 320.5l23.6-20.2 5.8 5.8c0 0 4.8-1 6.3-4.8s27.5-21.7 27.5-21.7l-3.9-8.7c0 0 55.4-45.8 56.4-47.2s-10.6-14.4-14-16.4l-53.5 48.2c0 0-1.9-7.7-5.3-6.3-3.4 1.4-30.8 24.1-30.8 24.1l-1 6.3-13.5 8.2M890.4 280L903.4 302.2M927.5 255.5L939.1 270.9M120.7 313.4l-23.6-20.2-5.8 5.8c0 0-4.8-1-6.3-4.8s-27.5-21.7-27.5-21.7l3.9-8.7c0 0-55.4-45.8-56.4-47.2s10.6-14.4 14-16.4l53.5 48.2c0 0 1.9-7.7 5.3-6.3 3.4 1.4 30.8 24.1 30.8 24.1l1 6.3 21.8 14.3M109.6 272.9L96.6 295.1M72.5 248.3L60.9 263.7M341.4 136.2L356.8 159.2 338.9 169.9 322.3 146 341.4 136.5M333.3 164.6c-1.2.2-77.2 35.9-77.2 35.9s-12.5-9.8-6.4-12.5c6.1-2.7 75.7-36.6 75.7-36.6"/>
  <path class="st0" d="M256.1 201l2 4.6-33.7 14.2c0 0-12-14.9-9.5-18.6 2.4-3.7 30-17.8 30-16.9 0 1 2.7 5.1 2.7 5.1M660.4 142.4L645 165.4 662.8 176.2 679.4 152.2 660.4 142.7M667.8 170.2c1.2.2 77.8 36.5 77.8 36.5s12.5-9.8 6.4-12.5c-6.1-2.7-75.7-36.6-75.7-36.6"/>
  <path class="st0" d="M745.6,207.2l-2,4.6l33.7,14.2c0,0,12-14.9,9.5-18.6c-2.4-3.7-30-17.8-30-16.9s-2.7,5.1-2.7,5.1"/>
</svg>
