<!--
	https://github.com/Duxxie/duxxie-images
	This work is licenced by https://creativecommons.org/licenses/by-sa/4.0/
-->
<svg version="1.1" id="toiletstoel-svg" xmlns="http://www.w3.org/2000/svg" x="0px" y="0px" width="1000px" height="1000px" viewBox="0 0 1000 1000" xml:space="preserve">
  <style>
    #toiletstoel-svg .st0{fill:none;stroke:currentColor;stroke-linecap:round;stroke-linejoin:round;stroke-miterlimit:10;}
  </style>
  <path class="st0" d="M526.9 405.4c0 0 1.1 0 3-3.6 1.5-3 2.4-19.3 2.4-19.3-6.1-5.1-3.5-1.7-3-36.2.9-54.9-10.7-58.8-18.2-60.5-7.6-1.7-31.4-3.1-31.4-3.1l-4-3.1c0 0-25.3-1.1-36.4 2.5-25.6 8.3-83.5 24.9-91.1 27.2-8.2 2.4-15.3 13.8-15.3 21.3s1 99.7 1 99.7 36.7-13.2 44.9-15.6c32.4-9.6 68.7-15.5 75.3-16.9 6.2-1.3 13.2-3.2 33.4.7C507.7 402.5 526.9 405.4 526.9 405.4zM613 406c0 0-.8 8.4 0 15.1s4.6 14.8 6.3 17.3-12.2-4.7-16.4-6.4c-4.2-1.7-16.8-9.2-16.8-9.2l9.2-19.3L613 406zM577.3 399.7l-31.6-10.5c0 0-.7 8.1-2.7 12.6-1.7 3.8-2 8.1-2 8.1s26.1 6.2 28.9 8.1M495.9 601.9l1.3 6.5 2.3.8c0 0 3.5 16.9 3.5 18.7 0 1.7-3.9 4.9-9.6 4.9-5.6 0-9.8-.3-11.6-3.8-1.8-3.5 1.5-19.2 1.5-19.2l2.1-1.5v-5.5M375.3 491.9c0 0 6.5 10.7 11.6 14.9 5 4.2 21 13.4 32.8 16 11.8 2.5 37 6.7 44.5 6.7s25.5-.4 25.5-.4M552.5 521.1c0 0 0 18.5-1.7 29.4s-4.1 21-8.3 26.9"/>
  <path class="st0" d="M522.4 591.7c0 0-15.3 8.5-27.9 10.2s-43.2-.7-57.2-5c-10-3.2-23.5-5.9-28.6-16-5-10.1-12.6-67.2-12.6-67.2M551 509.8c4.9-.5 80.3-25.9 87.6-33.3 7.3-7.3 13.2-5.9 7.3-14.2s-18.6-20.5-28.7-23.9M557.6 450.5c0 0-39.5 18.5-99.7 14.8s-71.2-17.9-70.9-25.5c.3-7.6 10.1-14.3 22.7-19.6 14.5-6.1 26.9-9.8 59.7-12.9s49.3 3.1 54.3 3.4c2.5.1 39.5 7.3 43.4 15.7"/>
  <path class="st0" d="M650.7,338.7c0.8-3.4,8.4-16,8.4-16c1.9-1.8,1.7-2.8,8.4-2.8s16,5.4,16,5.4S669.1,332.3,650.7,338.7	c-18.4,6.4-36.2,12.2-39.4,14.1c-8.2,4.8-3.9,9.8-8.2,13.2c-2.4,1.9-17.9,16.5-20.5,20.7c-2.5,4.2-36.3,98.8-45.7,113.3	c-12.4,19.1-10.6,40.5-10.6,43s-13.7,174.6-13.7,174.6l-1.5,33.8l-3.4,23.5c0,0-2.1,0.7-2.8,3.4c-1.9,6.8-3.6,20.2-3.1,21	c6.7,10,25.5,2.5,25.5,2.5v-22.7l-2-4.8l1.4-20.5l2.5-23l1-13.7c0,0,15.9-185.5,15.9-191.4s23-62.6,39.8-102.9s25.2-37.8,30.3-42.9	c5-5,81.5-35.4,92.5-44.5c7.4-6.2,1.8-16.1-12-24.2c-2.3-1.4,10.6-8.7,5.3-21.6c-7-17.4-23.7-93.8-116.9-95.3	c-68.9-1.1-112,59.1-112,59.1l1.1,13.2c0,0-12.6-1.3-15.2-1.1c-16.8,1.4-4,0.2-16.8,1.4c-3.8,0.4-8.2-1-10.6-2.1	c-3.9-1.9-84.9,21.9-91,24.5c-0.9,0.4-5.4,2.3-5.3,4.7c0.2,7.9-2.3,4.6-9.9,13s-9.2,13.4-10.1,23.5c-0.8,10.1,3.1,109.5,3.1,112.9	s-8.1,7.9-6,13.7c1.4,4,2.6,6.2,5.2,6.2c2.5,0-8.2,164.8-8.2,164.8l-3.2,53.7c0,0-2.1,0.5-4.2,11c-1,5-1.9,10.8-0.2,12.9	c3.4,4.3,21.7,2.4,22.5,0.2c1.6-4.2-0.7-13.7-0.7-17.9s-0.7-2.7-2.4-6.7l2.4-53.3l7.7-151.2c0,0,135.8,48.1,143.2,49.7	c7.2,1.5,26.7,4.9,32,4.6c5-0.2,20.2-2.9,20.2-2.9"/>
  <path class="st0" d="M317.7 463.2c0 0 53.2 22.1 61.5 24.6 8.3 2.4 86.1 25.5 94.5 27.9 8.3 2.4 50.6 3.7 56.5-1.2M642.4 368.2c0 3.4-7.3 31.4-8.9 34-1.7 2.5-.1 1.4-2.8 3.9-2.2 2-6.5-.4-5 5.9 2.3 10 5.7 23.1 20.7 36.5 6.8 6.1 29.7 27.3 39 34.9 9.2 7.6 21.9 26.9 22.7 42s2.8 109.5 2.8 109.5l.9 50.5c1 2.7 1.6 2.2 2.2 4.6 1.4 5.8 2.1 16.8 2.1 18.6 0 2.5-15.3 8.1-22.9.5-1.1-.2-1.7-14.6 1.1-19.3 0 0 1.7-2.7 2.3-3.1.7-.2-5.7-148.7-5.3-157.2-1.8-13.2-6.6-24.9-12.6-31.1s-13.7-14.9-23-12.4c-9.2 2.5-108.5 36.5-108.5 36.5"/>
</svg>
