<?xml version="1.0" encoding="utf-8" ?>
<!--
	https://github.com/Duxxie/duxxie-images
	This work is licenced by https://creativecommons.org/licenses/by-sa/4.0/
-->
<svg version="1.1" id="toiletpakket-svg" xmlns="http://www.w3.org/2000/svg" xmlns:xlink="http://www.w3.org/1999/xlink" x="0px" y="0px" viewBox="0 0 1000 1000" style="enable-background:new 0 0 1000 1000;" xml:space="preserve">
	<style type="text/css">
	#toiletpakket-svg .st0{fill:none;stroke:currentColor;stroke-linecap:round;stroke-linejoin:round;stroke-miterlimit:10;}
	#toiletpakket-svg .st1{fill:#FFFFFF;stroke:none;}
	#toiletpakket-svg .st2{fill:#FFFFFF;stroke:currentColor;stroke-linecap:round;stroke-linejoin:round;stroke-miterlimit:10;}
	#toiletpakket-svg .st3{fill:none;stroke:currentColor;stroke-linecap:round;stroke-linejoin:round;stroke-miterlimit:10;}
</style>
	<g id="Laag_2">
		<g>
			<g>
				<path class="st0" d="M595.9,738.8c6.4,2.8,84.5,19.3,105.2,62c16.5,34.3-10.8,78.3-69.5,100.4c-14.2,5.3-55.5,16.2-73.9,18.7
				c-82.7,10.4-149.4-2.1-195-17.8c-6.7-3.1-27.6-11.5-32-15.1c-34.3-23.9-54.9-44.8-41.6-86.9" />
				<path class="st0" d="M635.2,902.1c3.1,10.2-13.7,32.2-21.2,40.8s-31.4,35.1-94.3,36.2c-62.8,1.1-93.8-7-120.9-20.1
				s-38-36.3-41.8-43.2c-3.9-7-6.1-18.4-6.1-18.4" />
				<path class="st0" d="M598.1,785.5c1.6,0.5,53.1,25,37.5,61.3s-79,51.3-156.4,48c-77.6-3.4-117.5-26-129-61.4" />
				<path class="st0" d="M341.7,893.1c0,0-50-13.5-54.8-13.5c-4.7,0-18.7,1.6-27.9,2.7s-85.1,11-93.7,8.2
				c-8.6-2.7-13.4-12.3-13.7-20.1c-0.2-6.2,3.5-19,13.3-20.1c9.7-1.1,126.3-1.3,126.3-1.3" />
				<path class="st0" d="M319.6,687.8c10.4-5,103.4-45.4,219,3.9c0,0,96.1,40.6,51.2,108.4c-0.5,0.6-13.3,22.1-80.6,42.4
				c0,0-44.3,11.8-112.6,0.8c-13.7-2.2-62.3-7.5-101.7-40.1c-43.8-36.3-26.8-69.9-21-79.4C279.4,714.5,294.4,700,319.6,687.8z" />
				<path class="st0" d="M423,747.2c-0.8,4.3-0.5,13.7,0.4,19.3c-0.8,1.9-6.4-0.9-10.6-2.6c-3.6-0.5-3.4-18.1-0.9-23.5
				c2.5-5.3,6.9-5.2,9.2-4.6c0.9,0.3,33,8,33.8,8.6c6,3.2,2.8,18.8,2,25.7c-0.9,6.4-1.4,7-1.4,7s-1.6,1.4-9.2-3.1
				c-1.4-0.9,0.9-15.1,0.5-19.2L423,747.2z" />
				<path class="st0" d="M314.8,722.6c1.1-1.4,41.3-44.3,126.4-32.7c85.2,12,126.9,36.9,127.3,77c0.4,44.1-87.4,86.6-189.3,60.1
				C288.2,794.9,285,759.4,314.8,722.6z" />
				<path class="st0" d="M391.9,730.6c4.6-1.5,19.6-12.7,61.9-3.6c17.2,3.7,51.7,15.9,43.2,45.2c-14.2,34.8-87.9,21.7-98.3,17.9
				C374.6,782.1,348.4,751.4,391.9,730.6z" />
			</g>
			<g>
				<path class="st1" d="M309.5,204.4l83.9-39.1l2.9-7.1l-5.5-10.2c0,0-34.2,0-29.6,0.9s7.4,6.5,7.4,6.5s-32.7,13.7-47.1,16.6
				c-2.9,0.6-25,12-25,12L309.5,204.4z" />
				<path class="st0" d="M220.6,231.1c0,0,1.1,0,2.9-3.4c1.4-2.9,2.3-18.4,2.3-18.4c-5.8-4.9-3.4-1.6-2.9-34.5
				c0.9-52.3-10.2-56.1-17.4-57.7s-30-2.9-30-2.9l-3.8-2.9c0,0-24.1-1.1-34.7,2.4c-24.4,7.9-79.6,23.7-86.9,25.9
				c-7.8,2.3-14.6,13.1-14.6,20.3c0,7.1,0.9,95.1,0.9,95.1s35-12.6,42.8-14.9c30.9-9.1,65.5-14.8,71.8-16.1
				c5.9-1.2,12.6-3.1,31.9,0.6C202.3,228.3,220.6,231.1,220.6,231.1z" />
				<path class="st0" d="M302.7,231.7c0,0-0.8,8,0,14.4s4.4,14.1,6,16.5s-11.7-4.5-15.7-6.1s-16-8.8-16-8.8l8.8-18.4L302.7,231.7z" />
				<path class="st0" d="M268.7,225.7l-30.1-10c0,0-0.6,7.7-2.6,12c-1.6,3.7-1.9,7.7-1.9,7.7s24.9,5.9,27.6,7.7" />
				<path class="st2" d="M191,418.5l1.2,6.2l2.2,0.8c0,0,3.4,16.1,3.4,17.8c0,1.6-3.7,4.7-9.1,4.7c-5.4,0-9.4-0.3-11.1-3.7
				c-1.7-3.4,1.4-18.3,1.4-18.3l2-1.4v-5.2" />
				<path class="st2" d="M76.1,313.6c0,0,6.2,10.2,11.1,14.2c4.8,4,20,12.8,31.3,15.3c11.2,2.4,35.3,6.4,42.5,6.4
				c7.1,0,24.3-0.4,24.3-0.4" />
				<path class="st2" d="M245,341.4c0,0,0,17.7-1.6,28c-1.6,10.4-3.9,20-7.9,25.7" />
				<path class="st2" d="M216.3,408.8c0,0-14.6,8.1-26.6,9.7s-41.2-0.6-54.5-4.8c-9.5-3.1-22.4-5.7-27.3-15.3
				c-4.8-9.7-12-64.1-12-64.1" />
				<path class="st2" d="M243.6,330.7c4.7-0.5,76.5-24.7,83.6-31.7c6.9-6.9,12.6-5.7,6.9-13.5c-5.7-7.9-17.7-19.5-27.4-22.8" />
				<path class="st2" d="M249.9,274.1c0,0-37.7,17.7-95.1,14.1s-67.9-17.1-67.6-24.3s9.7-13.7,21.7-18.7c13.8-5.8,25.6-9.4,56.9-12.3
				c31.3-2.9,47,2.9,51.8,3.2c2.4,0.1,37.7,6.9,41.4,15" />
				<path class="st0" d="M338.7,167.5c0.8-3.2,8-15.3,8-15.3c1.8-1.7,1.6-2.6,8-2.6s15.3,5.1,15.3,5.1S356.2,161.4,338.7,167.5
				s-34.5,11.7-37.6,13.4c-7.8,4.6-3.7,9.4-7.8,12.6c-2.3,1.8-17.1,15.7-19.5,19.7s-34.6,94.2-43.6,108
				c-11.8,18.2-10.1,38.6-10.1,41S207,528.7,207,528.7l-1.4,32.2l-3.2,22.4c0,0-2,0.6-2.6,3.2c-1.8,6.5-3.4,19.3-2.9,20
				c6.4,9.5,24.3,2.4,24.3,2.4v-21.7l-1.9-4.6l1.4-19.5l2.4-21.9l0.9-13.1c0,0,15.1-176.9,15.1-182.5c0-5.7,21.9-59.7,38-98.1
				s24-36,28.9-40.9c4.8-4.8,77.7-33.7,88.2-42.5c7.1-5.9,1.7-15.4-11.4-23.1c-2.2-1.4,10.1-8.3,5.1-20.6
				c-6.8-16.5-22.7-89.3-111.6-90.8C210.6,28.5,169.5,86,169.5,86l1.1,12.6c0,0-12-1.2-14.5-1.1c-16,1.4-3.8,0.2-16,1.4
				c-3.7,0.4-7.8-0.9-10.1-2c-3.7-1.8-81,20.9-86.8,23.4c-0.9,0.4-5.1,2.2-5.1,4.5c0.2,7.5-2.2,4.4-9.4,12.4
				c-7.2,8.1-8.8,12.8-9.7,22.4c-0.8,9.7,2.9,104.4,2.9,107.6c0,3.2-7.7,7.5-5.7,13.1c1.4,3.8,2.5,5.9,4.9,5.9s-7.8,157.2-7.8,157.2
				l-3.1,51.2c0,0-2,0.5-4,10.5c-0.9,4.8-1.8,10.3-0.2,12.3c3.2,4.1,20.7,2.3,21.4,0.2c1.5-4-0.6-13.1-0.6-17.1s-0.6-2.6-2.3-6.4
				l2.3-50.8l7.4-144.2c0,0,129.5,45.9,136.5,47.4c6.9,1.4,25.4,4.7,30.5,4.4c4.8-0.2,19.3-2.8,19.3-2.8" />
				<path class="st2" d="M21.1,286.2c0,0,50.8,21.1,58.6,23.4c7.9,2.3,82.1,24.3,90.1,26.6c7.9,2.3,48.2,3.5,53.9-1.1" />
				<path class="st0" d="M330.7,195.6c0,3.2-6.9,30-8.5,32.4s-0.1,1.4-2.6,3.7c-2.1,1.9-6.2-0.4-4.8,5.7c2.2,9.5,5.4,22,19.7,34.8
				c6.5,5.8,28.3,26,37.2,33.3c8.8,7.2,20.9,25.7,21.7,40c0.8,14.4,2.6,104.4,2.6,104.4l0.9,48.2c0.9,2.6,1.5,2.1,2.1,4.4
				c1.4,5.5,2,16,2,17.7c0,2.4-14.6,7.7-21.8,0.5c-1.1-0.2-1.6-13.9,1.1-18.4c0,0,1.6-2.6,2.2-2.9c0.6-0.2-5.4-141.8-5.1-149.9
				c-1.7-12.6-6.3-23.7-12-29.7c-5.7-5.9-13.1-14.2-21.9-11.8c-8.8,2.4-103.5,34.8-103.5,34.8" />
			</g>
			<g>
				<path class="st3" d="M506.7,406.2l97-60.2c0,0,52.1-31.7,56.2-31.7c4.1,0,11.3-2.1,19.4-2.1c8.1,0,20.4-4.1,31.7-2.1
				s141,35.7,149.1,39.8c8.2,4.1,65.4,17.4,88.9,41.9s37.7,37.2,40.9,50.1c2.6,10.6,19.4,53.1-25.5,77.6
				c-44.9,24.5-123.6,30.6-142,30.6s-121.5-19.4-132.8-25.5c-11.3-6.2-119.5-43.9-125.6-48s-36.8-8.2-40.9-16.3
				C518.9,452.2,506.7,406.2,506.7,406.2z" />
				<path class="st3" d="M506.7,406.4L523,546.2c0,0,160.3,62.3,170.6,66.4c10.2,4.1,64.4,25.5,114.4,22.5
				c50.1-3.1,90.9-6.1,118.5-24.5s46-34.8,50.1-48s5.1-21.6,8.2-33.5c3.1-11.8,8.2-41,8.2-41" />
				<path class="st3" d="M645.6,451.7c0,0,41.8-16.9,53.1-16.9c11.2,0,37.8,4.1,51,6.1c13.3,2.1,43.9,12.2,57.2,16.3
				c13.3,4.1,20.4,5.1,28.6,10.2c8.2,5.1,20.4,18.4,20.4,18.4" />
				<path class="st3" d="M926.4,610.5c0,0,9.2,5.1,9.2,10.2c0,5.1-5.4,40.1-8.8,38.4c-6.2,2.1-18.8,3.4-18.8-0.6s1-21.4,1-21.4
				l-37.6-7.7" />
				<path class="st3" d="M519,516.1c0,0-24.5,9.7-28.7,10.6c-0.9,0.2-2.2,1.2-3.1,3.1c-3.2,6.7,1,37.8,1,37.8s17.2,1.5,17-0.4
				c-0.7-10,1.1-22.5-1.3-21.8l19,0.8" />
				<path class="st3" d="M661.9,356.2c7.1,1,17.4,2.1,32.7,2.1s37.8-5.1,69.4,5.1c31.7,10.2,91.9,26.6,103.2,35.7
				c11.3,9.2,11.3,17.4,22.5,21.4c11.3,4.1,10.2,3.1,21.4,4.1c11.3,1,43.9,0,49,10.2s8.2,27.6,2.1,38.8s-19.4,28.6-35.7,30.6
				c-16.3,2.1-52.1-9.2-58.2-13.3c-6.1-4.1-11.3-5.1-18.4-4.1c-7.1,1-42.9,7.1-64.4,5.1c-21.4-2.1-108.3-27.6-119.5-32.7
				c-11.3-5.1-37.8-11.3-47-21.4c-9.2-10.2-14.3-26.6-19.4-32.7c-5.1-6.1-15.4-20.4-22.5-26.2c-5.9-4.8-7.3-7.7,2.4-12.9
				c16.5-8.7,26.1-15.9,34.1-19.6C621.1,342.9,654.8,355.1,661.9,356.2z" />
			</g>
		</g>
	</g>
</svg>
