<!--
	https://github.com/Duxxie/duxxie-images
	This work is licenced by https://creativecommons.org/licenses/by-sa/4.0/
-->
<svg version="1.1" id="toiletverhoger-met-armleuning-svg" xmlns="http://www.w3.org/2000/svg" x="0px" y="0px" width="1000px" height="1000px" viewBox="0 0 1000 1000" xml:space="preserve">
  <style>
		#toiletverhoger-met-armleuning-svg .st0{fill:#FFFFFF;stroke:none;}
		#toiletverhoger-met-armleuning-svg .st1{fill:none;stroke:currentColor;stroke-linecap:round;stroke-linejoin:round;stroke-miterlimit:10;}
  </style>
  <path class="st0" d="M974.7,268.6c-1.6-7-50.7-35.8-66.3-39.7s-61.3-5-61.3-5s-271.1-65.2-278.1-64.5c-12.6,1.3-22.9,9.5-22.9,9.5 c-52.3-9.4-63.1,41.7-63.1,41.7s-3.3,1.3-3.9,121c-0.2,41.8,14.9,56.3,9.4,56.2c-53-1.6-63.7,1.9-63.7,1.9L341.6,430 c0,0-215.8-77.8-227.5-78.6c-11.7-0.8-28.9,7-28.9,7c-2.3-0.8-29-6-43.9,7.2c-14.8,13.3-15.2,42.4-16,46.3 c-0.8,3.9,10.2,77.9,20.3,140.3C55.8,614.7,109,653.9,109,653.9l2,15l-10.7-9l-9,8.7c0,0,5.3,10.3,4.7,17.3c-0.4,3.9,3,9.4,5.3,11 c2.3,1.6,4.7-1.3,4.7-1.3l9,5.7l6.4,39.8l72.2,26.1c110,39,105.3,53,201.3,94.4c96,41.3,184.9,45.2,184.9,45.2s55.4,26.5,60.9,29.6 s9.1,2.3,13-0.8c3.9-3.1,20.3-15.7,20.3-15.7c139-28.3,164.6-67.3,189.7-100.3c16-21,10.7-48,10.7-48l-1.7-41l6-6l5.7-62.7 c0,0,7.3-3.7,10.7-6c2.9-2-7.2-7.8-3.3-14s3.3-1.3,3.3-6c0-4.7-8.3-7.7-8.3-7.7s2.7-17.5-2-25.3c-4.7-7.8-21-19.3-21-19.3 c0-11.4-2-25-2-25C809.8,449.9,626.7,409,626.7,409s4.9-74.8,4.1-83.4c-0.8-8.6,8.2-104.6,8.2-104.6s72.6,16.7,113.2,22.8 c36.2,5.4,107.5,23.9,134.8,35.6c27.3,11.7,23.7,28.8,46.3,32.7c22.6,3.9,39.7-12,39.7-12S976.2,275.6,974.7,268.6z M115,573.9 c-3.1,2.3-0.3,6.2-3,11c-2,3.5-5,29-5,29s-21.7-19.7-26.7-44c-7.7-37.6-24.3-152-24.3-152s-0.2-22.2,3.7-25.3s12.7-2.3,12.7-2.3 l2.3,8.3c0,0,78.7,34.9,82.7,35.7c5.6,1.1,14.7,108,14.7,108S118.1,571.6,115,573.9z M235,489.6c-3.1,3.1-11.3,5.7-12.7,8.3 c-2.2,4.4-7,16.8-7,20.7s-12,6.3-12,6.3L192,448.3l67,24.7C259,472.9,238.1,486.5,235,489.6z M609.5,402.1 c0,3.9-90.1-10.2-90.1-10.2s-16.9-28.1-18.5-39c-1.6-10.9,0.4-140.7,2.7-142.2s10.2-14.6,17.2-17c7-2.3,8.3-2,15.3-1.2 c7,0.8,6.3,6.6,9.4,7.4c3.1,0.8,66.1,15.6,66.1,15.6S609.5,398.2,609.5,402.1z"/>
  <path class="st1" d="M545.3 199.6c0 0 142.1 34.7 203.1 44 36.1 5.5 109.9 23.4 137.2 35.1 27.3 11.7 26.5 29.6 49.1 33.5 22.6 3.9 38.2-12.5 38.2-12.5s3.5-23.9 2-30.9c-1.6-7-49.5-36.1-65.1-40-15.6-3.9-62.3-4.7-62.3-4.7s-275.1-65.5-282.1-64.7c0 0-20.6 4.8-23.1 15.6C539.6 185.8 540.3 198.4 545.3 199.6zM432.9 463.6c0 0-305.3-112.3-317-113-11.7-.8-33.7 7.6-33.7 7.6S71.7 368.9 71.7 379s2.5 19.6 2.5 19.6 106.1 46.1 119.4 50.5c13.3 4.4 177.5 63.2 187.6 66.9 10.1 3.8 42.3 17.1 65 31.6 22.7 14.5 48.6 43.6 66.3 48.6 17.7 5.1 41 2.5 62.5-21.5 0 0 .9-7.7 1.6-16.3.6-8.6.9-18.1-.3-21.6-2.5-6.9-42.9-49.9-83.4-63.2s-63.2-12-70.1-8.8c-6.9 3.2-25.9 18.3-27.8 24-1.9 5.7-4.4 14.5 0 17.7 4.4 3.2 51.2 18.3 60.6 24.6s41 34.7 53.7 43.6c12.6 8.8 55.6-2.7 67.4-25.7"/>
  <path class="st1" d="M341.3,429.5l82.9-40.2c0,0,12.5-3.1,65.5-1.6c0,0,112.4,14.6,136.4,20.3c0,0,183.1,41.7,234.9,150.3	c0,0,2.5,13.9,2.5,25.3c0,0,6.9,65.7-59.4,92.8c-66.3,27.2-219.8,60-385.9,3.2S229.5,561.5,229.5,561.5l-1.3-20.2c0,0-1.9,2.5-5.7,0	c-3.8-2.5-7.6-25.9-6.3-28.4s5.1-14.5,8.2-16.4c3.2-1.9,34.7-24,34.7-24"/>
  <path class="st1" d="M114.9 701l6.2 39.7 69.4 25.7c109.9 39 105.2 53 201.1 94.3 95.9 41.3 184.7 45.2 184.7 45.2s55.3 26.5 60.8 29.6c5.5 3.1 12.5 3.9 16.4.8 3.9-3.1 19.9-16.8 19.9-16.8 149.6-26.5 173.9-80.8 190.4-99.8 8.8-10.1 11.4-38 11.4-38l-2.7-51.1 6.2-6.2c0 0 7.8-93.2 7.8-97.4 0 0 3.1-16.4-1.6-24.2 0 0-10.5-13.4-20.6-17.8M545 168.8c-52.2-9.4-62.3 42.9-62.3 42.9s-3.1 22.1-4.3 128.2c0 0-2.6 10 11.3 47.9"/>
  <path class="st1" d="M520.6 392.2c0 0-19.4-27.6-20.2-41-.3-5.1 1.3-137.7 2.5-139.6 1.3-1.9 10.1-15.8 18.3-18.3 8.2-2.5 15.8-.6 17.7 0M639.4 225.5c0 0-9.5 104.2-9.5 113s-3.8 69.5-3.8 69.5M611.6 218.6c0 6.3-3.8 183.1-3.8 183.1M187.6 655.3c-27.9-12.8-51.5-23.7-51.5-23.7l22.1-11.4c0 0 2.5-22.7-5.1-26.5-7.6-3.8-17.1 2.5-17.1 2.5l-30.3 17.7c0 0-20.2-20.8-25.3-39.8-5.1-18.9-24.6-156-24.6-156s0-22.7 3.2-25.9c3.2-3.2 13.3-1.9 13.3-1.9M364.6 703.5c0 0-3.7-18.8-22.6-16.9 0 0-22.7 18.3-25.9 18.9-3.2.6-13.9 2.5-22.1-1.3-3.6-1.7-36.7-16.9-70-32.2M193 448.3L224.5 677.7M160 434.3L189.1 661.9"/>
  <path class="st1" d="M108.1 613.2c0 0 2.1-35.2 7.7-39.7 5.7-4.4 56.2-30.9 56.2-30.9M203.7 525.5L215 520.5M974.6 283.3c-7.8 10.5-23.3 14.5-33.3 12.3-5.8-1.3-29.1-21.5-40.4-26.5-11.4-5.1-27.3-11.3-44.8-14.5-11.2-2-22.3-5.6-22.1-11.4.1-4.5 6.7-18 13.5-19.1M863.6 594.6c0 0-12.6 90.1-226.1 93.9C451.9 691.7 331.9 619 299 600s-70.7-58.7-70.7-58.7M111.2 669.8l9.2-4.9c0 0 15.4 5.2 11 13.9-.3.6-8.6 7.8-8.6 7.8l6.3 8-7 7.8c0 0-6-.9-8.6-2.3-2.6-1.4-7.5-4.9-7.5-4.9s-.9 2.8-4 1.7c-3.1-1.1-7-10.4-6.4-11.9.6-1.5.8-4.9.8-4.9l-5.1-10.3c0 0 .2-1.7 1.2-2.9 1.1-1.2 8.1-6.6 8.1-6.6L111.2 669.8zM620.1 860.6l10-5.3c0 0 16.8 5.7 12 15.2-.3.7-9.4 8.5-9.4 8.5l6.8 8.7-7.7 8.5c0 0-6.5-1-9.4-2.5s-8.2-5.3-8.2-5.3-1 3-4.3 1.8c-3.3-1.2-7.7-11.4-7-13s.8-5.3.8-5.3l-5.5-11.2c0 0 .2-1.8 1.3-3.2 1.2-1.3 8.8-7.2 8.8-7.2L620.1 860.6z"/>
  <path class="st1" d="M218.3 632.3c0 0 268.9 115.5 339.7 118 70.7 2.5 195.8-3.8 248.8-39.2 53-35.4 73-62.9 79.3-82.9 0 0 10.6 6.6 10.4 8.5s-5.1 3.4-5.3 5.3-.8 5.8 1.2 8.7 3.6 3.4 2.2 5.2c-1.5 1.8-5.4 4.8-9.8 5.8M294 704.2c0 0-3.7-14.5-2.1-19.4 1.6-4.9 12.5-8.7 14.2-8.7 0 0 20.6 9.6 30.7 13.4"/>
  <path class="st1" d="M293.4,683.7c0,0,25.2,8.2,28,9.8s2.7,3.3,2.7,6"/>
  <path class="st1" d="M378,754.1c0,0,11.4-6.5,12.5-9.8c1.1-3.3-4.6-14.4-10.5-17.4c-2.4-1.2-2.6-8.7-2.6-8.7v-14.7l-8.2-3.3	L352.1,712v4l-3.8,3.4c0,0-3.8,5.7-17.1,13.9c-13.3,8.2-37.3,5.7-41,4.4s-187-87.3-187-87.3S55.6,613,45.5,550.6	c-10.1-62.3-21-132.5-20.3-136.4s0-34.3,14.8-47.5c0,0,10.9-13.6,42.1-8.6"/>
  <path class="st1" d="M306.6 739.4l2.2 19.5c0 0 2.7 3.3 7.6 4.4 4.9 1.1 5.4-.8 10.3 1.4 6.1 2.7 7.9 7 13.3 9.7s8.4 3.1 13.6 3.9c2.7.4 9.6 1.2 9.6 1.2l18-12.5c0 0-1-11.5-1.4-13.6M377.5 703.4L361.6 716 361.7 721.4 343.1 739.3 331.2 733.3"/>
  <path class="st1" d="M343.1 739.3L345.9 773.1 377.3 754.5M371 738.3c0 0 6.6 1.2 7.6 8.2.6 4.6-4.8 4.7-7.6 3.6-4.2-1.7-4.5-4.7-5-6.6C364.7 738.9 369.8 738.3 371 738.3zM308.8 691.7c0 0 6.6 1.2 7.6 8.2.6 4.6-4.8 4.7-7.6 3.6-4.2-1.7-4.5-4.7-5-6.6C302.5 692.3 307.5 691.7 308.8 691.7zM673.7 919.2L701.9 763 661.5 812.2 654 935.9M701.9 763c0 0-56.8 18.9-120 6.3-10.5-2.1 79.6 42.9 79.6 42.9M576.2 906c2-14.2 5-137.4 5-137.4M108.5 654L111.2 669.8M183.6 620.7L158.7 605.6M115 575.2c0 0 20.6 15.2 26.7 17.3"/>
</svg>
