<!--
  https://github.com/Duxxie/duxxie-creative-commons
  This work is licenced by https://creativecommons.org/licenses/by-sa/4.0/
-->
<svg version="1.1" id="toiletverhoger-met-deksel-svg" xmlns="http://www.w3.org/2000/svg" x="0px" y="0px" width="1000px" height="1000px" viewBox="0 0 1000 1000" xml:space="preserve">
  <style>
    #toiletverhoger-met-deksel-svg .st0{fill:none;stroke:currentColor;stroke-linecap:round;stroke-linejoin:round;stroke-miterlimit:10;}
  </style>
  <path class="st0" d="M203.1,665.8l145.3-76.3c0,0,77.8-40,83.7-40c5.9,0,17-2.3,28.8-2.3s30.3-5.2,47.5-2.3 c17,2.3,210.3,45.4,222.9,50.4c11.8,5.2,97.8,22.3,132.7,53.4s60.8,46.7,60.8,63.7c0,17,28.8,67.5-38.5,98.6 c-67.5,31.1-184.6,38.5-212.6,38.5c-27.4,0-181.5-24.4-198.5-32.6c-17-7.4-178.5-55.5-188.2-60.8c-8.8-5.2-54.9-10.3-60.8-20.8 C220.2,725.1,203.1,665.8,203.1,665.8z"/>
  <path class="st0" d="M200.2,668.8l31.9,152.6c0,0,164.4,103.7,250.4,104.5c16.4,0,97.1,18.5,172,14.7s132.7-5.9,174.1-28.8 c41.4-22.9,71.1-31.9,77.1-49c6.1-17,7.4-26.7,8.8-42.3c1.5-15.6,17-69,17-69"/>
  <path class="st0" d="M409.8 724.3c0 0 63.1-19.3 80.1-19.3 17 0 56.3 5.2 76.3 7.4 20 2.3 66 15.6 85.2 20 20 5.2 30.3 6.7 42.9 12.6 11.8 6.7 30.3 22.9 30.3 22.9M797.3 924.4c0 0 34.1 20 33.4 31.1-.8 15.6-8.2 30.3-8.2 30.3-14.1 5.2-32.6 12.6-32.6 7.4s-6.7-34.9-6.7-34.9l-48.2-22.1M913.6 839.9c0 0 25.9 8.8 25.9 14.7 0 6.7 1.5-4.4 1.5 11.1s-11.8 37.8-11.8 37.8c-14.1 5.2-24.4 1.5-22.3-2.3 3.8-6.7-4.4-27.4-4.4-27.4l-8.2 4.4M226 797c0 0-43.7 18.5-48.2 22.3-4.4 3.8-1.5-1.5-4.4 7.4-2.9 8.8 1.5 43.7 1.5 43.7l37-5.9-8.2-28.2 27.4-14.7"/>
  <path class="st0" d="M384.6 595.4c0 0 39.3 9.7 50.4 11.1 11.1 1.5 25.9 2.3 49 2.3 22.9 0 56.3-6.7 103.7 6.7 47.5 12.6 137.7 33.4 154.1 44.4 17 11.1 17 21.5 33.4 26.7 17 5.2 15.6 3.8 31.9 5.2 17 1.5 66 0 73.4 12.6 7.4 12.6 11.8 34.1 2.9 48.2-8.8 14.1-28.8 35.5-53.4 37.8-24.4 2.3-77.8-11.1-86.6-16.4-8.8-5.2-17-6.7-27.4-5.2-10.3 1.5-64.5 8.8-96.3 6.7-31.9-2.3-161.5-34.1-178.5-40.8s-56.3-14.1-70.4-26.7c-14.1-12.6-21.5-33.4-28.8-40.8-7.4-7.4-17-8.8-29.6-17.9-11.8-8.2-13.3-11.1 5.2-23.7C330.5 617.7 384.6 595.4 384.6 595.4zM421.3 534.9c0 0 78.8-98.9 53.7-281.8C450 70.2 364.2 5 300.1 5 262.3 5 96.7 57.5 103.8 346.2c7.2 288.7 106.8 296.3 106.8 296.3l211.1-108.3M428.8 550.6c0 0-5 2.1-5.5-4.2-.4-6.3-1.3-11.3-1.3-11.3"/>
  <path class="st0" d="M407.9 559c0 0 .8-3.8.8-8 0-4.2-2.9-9.2-2.9-9.2M206.8 663.5c0 0 3.4-15.5 3.8-19.7M238.3 646.3c-2.1 0-2.1 2.5-7.6-2.5-5.5-5-5.9-8.8-5.9-8.8"/>
</svg>
