<?xml version="1.0" encoding="utf-8" ?>
<!--
	https://github.com/Duxxie/duxxie-images
	This work is licenced by https://creativecommons.org/licenses/by-sa/4.0/
-->
<svg version="1.1" id="toiletstoel-svg" xmlns="http://www.w3.org/2000/svg" xmlns:xlink="http://www.w3.org/1999/xlink" x="0px" y="0px" width="1000px" height="1000px" viewBox="0 0 1000 1000" style="enable-background:new 0 0 1000 1000;" xml:space="preserve">
	<style type="text/css">
	#toiletstoel-svg .st0{fill:#FFFFFF;stroke:none;}
	#toiletstoel-svg .st1{fill:none;stroke:currentColor;stroke-linecap:round;stroke-linejoin:round;stroke-miterlimit:10;}
	#toiletstoel-svg .st2{fill:#FFFFFF;stroke:currentColor;stroke-linecap:round;stroke-linejoin:round;stroke-miterlimit:10;}
</style>
	<g>
		<path class="st0" d="M222.4,159.5l147-40l17.3,4.7l26.7-3.1l23.5,1.6l3.1-25.1c0,0,42.4-45.5,47.1-47.1c4.7-1.6,58-36.1,72.2-37.7
		S630.1,5,630.1,5l61.2,14.1c0,0,37.7,12.6,42.4,18.8c4.7,6.3,43.9,45.5,43.9,45.5l26.7,67.5l9.4,20.4l-14.1,18.8l15.7,15.7
		l9.4,17.3l-47.1-4.7l-23.5-12.6l-12.6,6.3l-14.1,23.5c0,0-12.6,51.8-17.3,62.8c-4.7,11-12.6,48.6-12.6,48.6l-15.7,3.1l-17.3-4.7
		h-26.7c0,0-26.7-6.3-32.9-7.8c-6.3-1.6-50.2-15.7-50.2-15.7l-26.7-17.3v-87.9l-7.8-50.2l-20.4-12.6l-39.2-3.1l-18.8-9.4l-43.9,4.7
		l-65.9,17.3l-84.7,25.1l-23.5,11l-9.4,22l1.6,166.3L189.2,413c0,0-4.7-175.7-4.7-191.4s11-17.3,11-23.5s12.6-15.7,12.6-15.7
		L222.4,159.5z" />
		<path class="st0" d="M279.9,490.4l18.9,24.5c0,0,12.6,3.1,15.9,11c3.1,7.8,12.5,65.9,12.5,70.6c0,4.7,9.4,42.4,9.4,42.4
		s28.2,20.4,51.8,20.4c23.5,0,28.2,7.8,40.8,7.8c12.6,0,29-8.3,29,2.8c0,11,0.8,5,0.8,5l-6.3,34.5l15.7,6.3l15.7-9.4l-4.7-28.2
		l-4.7-11l25.1-9.4l20.4-7.8l-15.7,202.4c-1.8,2.1-4.2,3.1-4.2,3.1s6.2,13.6,2.9,25.9c-1.6,6-0.3,29-0.3,29L484.1,984l11,11
		l31.4-4.7l-3.1-45.2c0,0,4.7-28.5,4.7-33.2s1-20.9,1-20.9c-4.7-14.1,2.8-18.5,2.8-18.5l-0.2-14.4l-0.3-16.8l18.8-211.8l15.1-43.7
		c0,0,4.9-45.8,0.6-47.1C561.2,537,735.3,479,735.3,479c16.5-1.8,5.8-2.6,22,5.5c15.9,7.8,34.7,48.6,34.7,48.6l6,183l0.6,10
		l-0.6,18.1l3.6,18.9c6.3,11,1.1,42.3,1.1,42.3l-9.4,18.8l0.8,14.9c0,0,7.4,3.1,16.4,5.2c8.9,2.1,18.9,1.9,20.6-4.4
		c1.6-6.3-3.1-32.9-3.1-32.9l-2.8-38.9l-0.5-19.1l-0.3-15.7l-0.6-16.8l-3.7-187l-31.4-50.2l-53.3-45.5l-37.7-39.2L681.7,336l-17-2.6
		v25.1l7.3,40.8l-23-7.9l-25.1-14.1l22-48.6l-34.5-9.4l-12.6,50.2L550.5,355l4.2-32.6l4.7-22l-24.9,8.6l-0.2,16.5l-7.1,23.2
		l-99.4-15.5l-91.2,14.4l-120.8,40.8l-26.7,25.1c0,0-14.1,14.1-12.6,18.8c1.6,4.7,10.4,8.1,10.4,8.1l-16.2,273.4l-0.5,21.4v31.4
		l-4.4,33.8l-6.2,30l23,9.9l17.3-6.3c0,0-6.3-23.5-6.3-32.9c0-9.4,2.4-47.3,3.4-57.3c0.5-6.6,0.3-19.9,0.3-19.9l1-15.2l-1.6-18.8
		l12.6-224.3l207.1,69l-17.3-92.6" />
		<path class="st0" d="M677,301.5l142.5-66.4l4.9-12l-9.4-17.3c0,0-58,0-50.2,1.6c7.8,1.6,12.6,11,12.6,11s-55.5,23.2-80,28.2
		c-4.9,1-42.4,20.4-42.4,20.4L677,301.5z" />
		<path class="st1" d="M526.1,346.9c0,0,1.8,0,4.9-5.8c2.4-4.9,3.9-31.3,3.9-31.3c-9.9-8.3-5.7-2.8-4.9-58.6
		c1.5-88.9-17.3-95.2-29.5-98c-12.3-2.8-50.9-5-50.9-5l-6.5-5c0,0-41-1.8-58.9,4c-41.5,13.4-135.2,40.3-147.5,44
		c-13.3,3.9-24.8,22.3-24.8,34.5c0,12.1,1.6,161.5,1.6,161.5s59.4-21.4,72.7-25.3c52.5-15.5,111.3-25.1,121.9-27.4
		c10-2.1,21.4-5.2,54.1,1.1C495,342.2,526.1,346.9,526.1,346.9z" />
		<path class="st1" d="M665.5,347.9c0,0-1.3,13.6,0,24.5c1.3,10.9,7.4,24,10.2,28c2.8,4-19.8-7.6-26.6-10.4
		c-6.8-2.8-27.2-14.9-27.2-14.9l14.9-31.3L665.5,347.9z" />
		<path class="st1" d="M607.7,337.7l-51.2-17c0,0-1.1,13.1-4.4,20.4c-2.8,6.2-3.2,13.1-3.2,13.1s42.3,10,46.8,13.1" />
		<path class="st2" d="M475.9,665.1l2.1,10.5l3.7,1.3c0,0,5.7,27.4,5.7,30.3c0,2.8-6.3,7.9-15.5,7.9c-9.1,0-15.9-0.5-18.8-6.2
		c-2.9-5.7,2.4-31.1,2.4-31.1l3.4-2.4v-8.9" />
		<path class="st2" d="M280.6,487c0,0,10.5,17.3,18.8,24.1c8.1,6.8,34,21.7,53.1,25.9c19.1,4,59.9,10.9,72.1,10.9
		c12.1,0,41.3-0.6,41.3-0.6" />
		<path class="st2" d="M567.5,534.3c0,0,0,30-2.8,47.6c-2.8,17.7-6.6,34-13.4,43.6" />
		<path class="st2" d="M518.8,648.6c0,0-24.8,13.8-45.2,16.5s-70-1.1-92.6-8.1c-16.2-5.2-38.1-9.6-46.3-25.9
		c-8.1-16.4-20.4-108.8-20.4-108.8" />
		<path class="st2" d="M565.1,516c7.9-0.8,130-41.9,141.9-53.9c11.8-11.8,21.4-9.6,11.8-23c-9.6-13.4-30.1-33.2-46.5-38.7" />
		<path class="st2" d="M575.8,419.9c0,0-64,30-161.5,24c-97.5-6-115.3-29-114.8-41.3c0.5-12.3,16.4-23.2,36.8-31.7
		C359.8,361,379.8,355,433,350c53.1-5,79.8,5,87.9,5.5c4,0.2,64,11.8,70.3,25.4" />
		<path class="st1" d="M726.6,238.9c1.3-5.5,13.6-25.9,13.6-25.9c3.1-2.9,2.8-4.5,13.6-4.5s25.9,8.7,25.9,8.7
		S756.4,228.5,726.6,238.9c-29.8,10.4-58.6,19.8-63.8,22.8c-13.3,7.8-6.3,15.9-13.3,21.4c-3.9,3.1-29,26.7-33.2,33.5
		c-4,6.8-58.8,160-74,183.5c-20.1,30.9-17.2,65.6-17.2,69.6c0,4-22.2,282.8-22.2,282.8l-2.4,54.7l-5.5,38.1c0,0-3.4,1.1-4.5,5.5
		c-3.1,11-5.8,32.7-5,34c10.9,16.2,41.3,4,41.3,4v-36.8l-3.2-7.8l2.3-33.2l4-37.2l1.6-22.2c0,0,25.7-300.4,25.7-310
		s37.2-101.4,64.5-166.6s40.8-61.2,49.1-69.5c8.1-8.1,132-57.3,149.8-72.1c12-10,2.9-26.1-19.4-39.2c-3.7-2.3,17.2-14.1,8.6-35
		C798.3,131.2,771.3,7.5,620.3,5C508.8,3.2,439,100.7,439,100.7l1.8,21.4c0,0-20.4-2.1-24.6-1.8c-27.2,2.3-6.5,0.3-27.2,2.3
		c-6.2,0.6-13.3-1.6-17.2-3.4c-6.3-3.1-137.5,35.5-147.4,39.7c-1.5,0.6-8.7,3.7-8.6,7.6c0.3,12.8-3.7,7.4-16,21.1
		s-14.9,21.7-16.4,38.1c-1.3,16.4,5,177.3,5,182.8s-13.1,12.8-9.7,22.2c2.3,6.5,4.2,10,8.4,10c4,0-13.3,266.9-13.3,266.9l-5.2,87
		c0,0-3.4,0.8-6.8,17.8c-1.6,8.1-3.1,17.5-0.3,20.9c5.5,7,35.1,3.9,36.4,0.3c2.6-6.8-1.1-22.2-1.1-29s-1.1-4.4-3.9-10.9l3.9-86.3
		l12.5-244.9c0,0,219.9,77.9,231.9,80.5c11.7,2.4,43.2,7.9,51.8,7.4c8.1-0.3,32.7-4.7,32.7-4.7" />
		<path class="st2" d="M187.3,440.5c0,0,86.2,35.8,99.6,39.8c13.4,3.9,139.4,41.3,153,45.2c13.4,3.9,81.9,6,91.5-1.9" />
		<path class="st1" d="M713.1,286.6c0,5.5-11.8,50.9-14.4,55.1c-2.8,4-0.2,2.3-4.5,6.3c-3.6,3.2-10.5-0.6-8.1,9.6
		c3.7,16.2,9.2,37.4,33.5,59.1c11,9.9,48.1,44.2,63.2,56.5c14.9,12.3,35.5,43.6,36.8,68c1.3,24.5,4.5,177.3,4.5,177.3l1.5,81.8
		c1.6,4.4,2.6,3.6,3.6,7.4c2.3,9.4,3.4,27.2,3.4,30.1c0,4-24.8,13.1-37.1,0.8c-1.8-0.3-2.8-23.6,1.8-31.3c0,0,2.8-4.4,3.7-5
		c1.1-0.3-9.2-240.8-8.6-254.6c-2.9-21.4-10.7-40.3-20.4-50.4c-9.7-10-22.2-24.1-37.2-20.1c-14.9,4-175.7,59.1-175.7,59.1" />
	</g>
</svg>
