<?xml version="1.0" encoding="utf-8"?>
<!--
  https://github.com/Duxxie/duxxie-creative-commons
  This work is licenced by https://creativecommons.org/licenses/by-sa/4.0/
-->
<svg version="1.1" id="toiletstoel-svg" xmlns="http://www.w3.org/2000/svg" xmlns:xlink="http://www.w3.org/1999/xlink" x="0px" y="0px" viewBox="0 0 1000 1000" style="enable-background:new 0 0 1000 1000;" xml:space="preserve">
	<style type="text/css">
	#toiletstoel-svg .st0{fill:none;stroke:currentColor;stroke-linecap:round;stroke-linejoin:round;stroke-miterlimit:10;}
</style>
	<g>
		<path class="st0" d="M529.3,350.7c0,0,1.7,0,4.8-5.7c2.4-4.8,3.8-30.7,3.8-30.7c-9.7-8.1-5.6-2.7-4.8-57.5
		c1.4-87.2-17-93.4-28.9-96.1c-12.1-2.7-49.9-4.9-49.9-4.9l-6.4-4.9c0,0-40.2-1.7-57.8,4C349.4,168,257.4,194.3,245.4,198
		c-13,3.8-24.3,21.9-24.3,33.8s1.6,158.4,1.6,158.4s58.3-21,71.3-24.8c51.5-15.3,109.1-24.6,119.6-26.9c9.9-2.1,21-5.1,53.1,1.1
		C498.8,346.1,529.3,350.7,529.3,350.7z M666.1,351.6c0,0-1.3,13.3,0,24c1.3,10.6,7.3,23.5,10,27.5c2.7,4-19.4-7.5-26.1-10.2
		c-6.7-2.7-26.7-14.6-26.7-14.6l14.6-30.7L666.1,351.6z M609.3,341.6l-50.2-16.7c0,0-1.1,12.9-4.3,20c-2.7,6-3.2,12.9-3.2,12.9
		s41.5,9.9,45.9,12.9 M480,662.9l2.1,10.3l3.7,1.3c0,0,5.6,26.9,5.6,29.7c0,2.7-6.2,7.8-15.3,7.8c-8.9,0-15.6-0.5-18.4-6
		c-2.9-5.6,2.4-30.5,2.4-30.5l3.3-2.4v-8.7 M288.4,488.1c0,0,10.3,17,18.4,23.7c7.9,6.7,33.4,21.3,52.1,25.4
		c18.7,4,58.8,10.6,70.7,10.6c11.9,0,40.5-0.6,40.5-0.6 M569.9,534.5c0,0,0,29.4-2.7,46.7c-2.7,17.3-6.5,33.4-13.2,42.7" />
		<path class="st0" d="M522.1,646.7c0,0-24.3,13.5-44.3,16.2s-68.6-1.1-90.9-7.9c-15.9-5.1-37.3-9.4-45.4-25.4
		c-7.9-16-20-106.8-20-106.8 M567.6,516.5c7.8-0.8,127.6-41.1,139.2-52.9c11.6-11.6,21-9.4,11.6-22.6c-9.4-13.2-29.6-32.6-45.6-38
		 M578,422.3c0,0-62.8,29.4-158.4,23.5C324,440,306.5,417.4,307,405.3c0.5-12.1,16-22.7,36.1-31.1c23-9.7,42.7-15.6,94.8-20.5
		s78.3,4.9,86.3,5.4c4,0.2,62.8,11.6,69,24.9" />
		<path class="st0" d="M726,244.7c1.3-5.4,13.3-25.4,13.3-25.4c3-2.9,2.7-4.4,13.3-4.4s25.4,8.6,25.4,8.6S755.2,234.5,726,244.7
		c-29.2,10.2-57.5,19.4-62.6,22.4c-13,7.6-6.2,15.6-13,21c-3.8,3-28.4,26.2-32.6,32.9c-4,6.7-57.7,157-72.6,180
		c-19.7,30.3-16.8,64.3-16.8,68.3c0,4-21.8,277.4-21.8,277.4l-2.4,53.7l-5.4,37.3c0,0-3.3,1.1-4.4,5.4c-3,10.8-5.7,32.1-4.9,33.4
		c10.6,15.9,40.5,4,40.5,4v-36.1l-3.2-7.6l2.2-32.6l4-36.5l1.6-21.8c0,0,25.3-294.7,25.3-304.1s36.5-99.5,63.2-163.5
		c26.7-64,40-60.1,48.1-68.2c7.9-7.9,129.5-56.2,147-70.7c11.8-9.9,2.9-25.6-19.1-38.4c-3.7-2.2,16.8-13.8,8.4-34.3
		c-11.1-27.6-37.7-149-185.7-151.4c-109.5-1.7-177.9,93.9-177.9,93.9l1.7,21c0,0-20-2.1-24.1-1.7c-26.7,2.2-6.4,0.3-26.7,2.2
		c-6,0.6-13-1.6-16.8-3.3c-6.2-3-134.9,34.8-144.6,38.9c-1.4,0.6-8.6,3.7-8.4,7.5c0.3,12.6-3.7,7.3-15.7,20.7
		c-12.1,13.3-14.6,21.3-16,37.3c-1.3,16,4.9,174,4.9,179.4c0,5.4-12.9,12.6-9.5,21.8c2.2,6.4,4.1,9.9,8.3,9.9c4,0-13,261.8-13,261.8
		l-5.1,85.3c0,0-3.3,0.8-6.7,17.5c-1.6,7.9-3,17.2-0.3,20.5c5.4,6.8,34.5,3.8,35.7,0.3c2.5-6.7-1.1-21.8-1.1-28.4
		c0-6.7-1.1-4.3-3.8-10.6l3.8-84.7l12.2-240.2c0,0,215.8,76.4,227.5,79c11.4,2.4,42.4,7.8,50.8,7.3c7.9-0.3,32.1-4.6,32.1-4.6" />
		<path class="st0" d="M196.9,442.5c0,0,84.5,35.1,97.7,39.1c13.2,3.8,136.8,40.5,150.1,44.3c13.2,3.8,80.4,5.9,89.8-1.9
		 M712.8,291.6c0,5.4-11.6,49.9-14.1,54c-2.7,4-0.2,2.2-4.4,6.2c-3.5,3.2-10.3-0.6-7.9,9.4c3.7,15.9,9.1,36.7,32.9,58
		c10.8,9.7,47.2,43.4,62,55.4c14.6,12.1,34.8,42.7,36.1,66.7c1.3,24,4.4,174,4.4,174l1.4,80.2c1.6,4.3,2.5,3.5,3.5,7.3
		c2.2,9.2,3.3,26.7,3.3,29.6c0,4-24.3,12.9-36.4,0.8c-1.7-0.3-2.7-23.2,1.7-30.7c0,0,2.7-4.3,3.7-4.9c1.1-0.3-9.1-236.2-8.4-249.8
		c-2.9-21-10.5-39.6-20-49.4s-21.8-23.7-36.5-19.7c-14.6,4-172.4,58-172.4,58" />
	</g>
</svg>
