<?xml version="1.0" encoding="utf-8" ?>
<!--
	https://github.com/Duxxie/duxxie-images
	This work is licenced by https://creativecommons.org/licenses/by-sa/4.0/
-->
<svg version="1.1" id="toiletverhoger-svg" xmlns="http://www.w3.org/2000/svg" xmlns:xlink="http://www.w3.org/1999/xlink" x="0px" y="0px" width="1000px" height="1000px" viewBox="0 0 1000 1000" style="enable-background:new 0 0 1000 1000;" xml:space="preserve">
	<style type="text/css">
	#toiletverhoger-svg .st0{fill:none;stroke:currentColor;stroke-linecap:round;stroke-linejoin:round;stroke-miterlimit:10;}
</style>
	<path class="st0" d="M45.1,342.9l188.7-117.2c0,0,101.3-61.6,109.3-61.6c7.9,0,21.9-4,37.7-4s39.7-7.9,61.6-4s274.2,69.5,290.1,77.5
	c15.9,7.9,127.2,33.8,172.9,81.5c45.7,47.7,73.3,72.3,79.5,97.4c5.1,20.7,37.7,103.3-49.7,151S694.8,623,659,623
	s-236.4-37.7-258.3-49.7S168.3,487.9,156.3,480c-11.9-7.9-71.5-15.9-79.5-31.8C68.9,432.3,45.1,342.9,45.1,342.9z" />
	<path class="st0" d="M45.2,343.2l31.7,271.9c0,0,311.9,121.2,331.8,129.1s125.2,49.7,222.5,43.7c97.4-6,176.8-11.9,230.5-47.7
	c53.6-35.8,89.4-67.6,97.4-93.4s10-42.1,16-65.2c6-22.9,16-79.8,16-79.8" />
	<path class="st0" d="M315.4,431.4c0,0,81.4-32.9,103.2-32.9s73.5,7.9,99.3,11.9c25.8,4,85.4,23.8,111.3,31.8
	c25.8,7.9,39.7,9.9,55.6,19.9s39.7,35.8,39.7,35.8" />
	<path class="st0" d="M861.6,740.2c0,0,17.9,9.9,17.9,19.9c0,9.9-10.5,78-17.2,74.7c-12,4-36.5,6.7-36.5-1.2s2-41.7,2-41.7L754.7,777
	" />
	<path class="st0" d="M69.1,556.6c0,0-47.6,18.8-55.8,20.7c-1.7,0.4-4.2,2.3-6,6c-6.2,13.1,2,73.5,2,73.5s33.4,2.9,33.1-0.8
	c-1.4-19.4,2.2-43.7-2.5-42.5l37,1.5" />
	<path class="st0" d="M347.1,245.5c13.9,2,33.8,4,63.6,4s73.5-9.9,135.1,9.9s178.8,51.7,200.7,69.5s21.9,33.8,43.7,41.7
	c21.9,7.9,19.9,6,41.7,7.9c21.9,2,85.4,0,95.4,19.9c9.9,19.9,15.9,53.6,4,75.5s-37.7,55.6-69.5,59.6c-31.8,4-101.3-17.9-113.2-25.8
	c-11.9-7.9-21.9-9.9-35.8-7.9c-13.9,2-83.4,13.9-125.2,9.9c-41.7-4-210.6-53.6-232.5-63.6c-21.9-9.9-73.5-21.9-91.4-41.7
	s-27.8-51.7-37.7-63.6c-9.9-11.9-29.9-39.7-43.7-50.9c-11.4-9.3-14.2-15,4.7-25.1c32-17,50.8-30.9,66.3-38.2
	C267.8,219.8,333.2,243.5,347.1,245.5z" />
</svg>
