<!--
	https://github.com/Duxxie/duxxie-images
	This work is licenced by https://creativecommons.org/licenses/by-sa/4.0/
-->
<svg version="1.1" id="toiletstoel-verrijdbaar-svg" xmlns="http://www.w3.org/2000/svg" x="0px" y="0px" width="1000px" height="1000px" viewBox="0 0 1000 1000" xml:space="preserve">
  <style>
    #toiletstoel-verrijdbaar-svg .st0{fill:none;stroke:currentColor;stroke-miterlimit:10;}
  </style>
  <path class="st0" d="M835.5 247.4c-64-14.6-232.8-53.1-238.7-53.1-7.3 0-33.9-6.4-33.9-6.4l14.7-164c29.3 6.4 278.6 51.3 278.6 51.3l21.1.9-17 172.3M615.4 379.2c54.1 16.7 168.8 52.2 173.9 54.3 6.4 2.7 37.6 17.4 35.7 27.5s-3.7 12.8-9.2 17.4c-4 3.4-132.9 36.5-200.9 53.7M593 537.8c-11.9 3-19.1 4.8-19.1 4.8s-11.7 2.1-33.9-5.5c-17.9-6.1-225.5-84.3-230.9-86.1-5.5-1.8-13.5-5.2-10.5-15.8 2.3-8.1 12.3-14.5 15.1-17.2l234.6-48.6c0 0 21.7-3.5 44.8 2.7M615.1 504.7c68.4-17.9 203.4-53.4 203.4-53.4"/>
  <path class="st0" d="M308.3 422.5c3.7 4.6 235.4 88.1 235.4 88.1s18.7 7.7 33.4 4.1c1.9-.5 7.2-1.9 15.1-3.9M573.5 668.4c22.2-3.6 45.3-8.8 54.5-12.2 17.4-6.4 20.2-19.2 24.7-33.9 4.6-14.7 12.8-60.5 12.8-60.5M438.3 548.1c0 6.4 11.9 87.1 18.3 97.1 4.6 7.3 29.8 16 50 21.7M103.2 777.4l71.1-5.7c0 0 7.3 12.8 7.3 21.1s111.8 45.8 111.8 45.8 3.8.6 2.5 9.7c-.8 5.9-69.5 10.9-82.3 12.3-19.2 2.1-28.4-5.5-41.2-7.3s-77.8-30.4-77.8-30.4l.4-16.1 21.7-1.7c0 0 4.5-13.1.8-19.5C114 779.1 107.5 774 103.2 777.4z"/>
  <path class="st0" d="M96.4 808.4c6.4 4.6 99.4 41.1 104 42 4.6.9 88-9.7 92.6-10.6M228.1 864.5c4.6 4.6 100.2 53 100.2 53M290.7 218.2c0 0 .9-9.2 16.5-17.4 15.6-8.2 195.2-26.6 195.2-26.6s12.8-2.7 21.1 1.8c8.2 4.6 17.4 10.1 17.4 15.6s0 5.5 0 5.5l-224.5 33C316.4 230.1 291.7 227.4 290.7 218.2zM618.8 297.9c0 0-9.2-13.7 25.7-21.1 34.8-7.3 179.6-27.5 179.6-27.5s31.2-8.2 45.8 4.6c14.7 12.8 7.3 22.9 7.3 22.9S650 308.9 645.4 308.9 627.1 310.8 618.8 297.9z"/>
  <path class="st0" d="M389.4 889.5l-28 2.1c7.3 0 8.2 22.1 8.2 22.1l-3.7 28.4 65.1-3.7c0 0 2.7-15.6 4.6-29.3 1.8-13.7-12.8-22-12.8-22l-33 1.8c0 0-44-22-47.7-23.8-3.7-1.8-11-3.7-11-3.7l-104.5 2.7-5.5 10.1L321.9 933c0 0 16.5 0 26.6 0s16.7 7 16.7 7M450.2 891.8L437 936.7 431 938.5M432.8 887.2L427.6 890M583.5 25c0 0 10.3-21.6 26.7-20 73 7.2 165.2 20.4 165.2 20.4s87.2 5.7 94.8 27.4c5.3 15.2.6 27.7 2.8 22.4"/>
  <path class="st0" d="M603.3 28.5c0 0 11-9 19.3-7.3 19.8 4 191.9 28 199.6 30.1 5.9 1.6 33.7 2.4 31 22.9M301.5 446.7c0 0-15.4-.3-20 9.8s-10.1 30.2-6.4 30.2 271.3 98.1 271.3 98.1 19.2 10.1 23.8 3.7 12.8-8.2 12.8-8.2M615.2 571.9c0 0 18.3 1.8 26.6-1.8 8.2-3.7 196.1-58.7 196.1-58.7s1.8-17.4 1.8-21.1c0-3.7-8.3-19.5-18-17"/>
  <path class="st0" d="M858,288.8c-1.6,37.3-8.2,205.3-8.2,209s-3.7,31.2,0,66.9s11,117.3,11,128.3s-6.4,64.2-6.4,64.2	s-8.1,7.2-16.1,1.7c-4.4-3-0.4-44.8-0.4-44.8l-269.4,84.3l-1.8,63.2c0,0-7.3,9.2-20.2,0.9l4.6-88l-30.2-12.8l-29.3,8.2l-41.2,121.9	c0,0-16.4-1.4-20-6.9c-3.7-5.5,63.1-197.4,63.1-197.4s10.4-25.9,26.6-30.2c8.2-2.2,30.2-7.3,30.2-7.3l1.1-63.1"/>
  <path class="st0" d="M575 584.7l-2 188.9L839.7 692c0 0 1.8-15.6-1.8-42.2-3.7-26.6-11-127.4-10.1-132M837 293.3c.9 4.6-5.5 181.8-5.5 181.8M583 192.3L577.5 369.4M563.8 189.8c0 0-1.2 3-6.3 2.6-4.6-.4-17.5-2.6-17.5-2.6M559.3 367.6l5.5-153.1c0 0-1.8-4.6-13.7-3.7-11.9.9-232.8 29.3-232.8 29.3s-11 0-17.4 18.3-2.7 178.4-2.7 178.4M299 227.4c0 0-17.4 15.6-19.2 30.2-1.8 14.7-2 209-2 209M303.6 498.6c0 2.7-.9 146.6-.9 146.6l179.6 77M284.3 488.5L282.5 744.2M473.5 744.3L301.7 672.8 303.6 748.8M460.3 650.8c-3.7 0-95.3 21.1-95.3 21.1M450.2 630.6L337.5 659M326.2 683.2L302.7 687.4M283.3 549.4c0 0-28.9 1.7-37.4 15.2-6.9 10.9-70.6 208-70.6 208"/>
  <path class="st0" d="M281.6 571.1c0 0-16.8-.7-25.1 14.9-8.2 15.6-70.5 210.2-70.5 210.2M547.3 673.7c0 0-19.2-2.7-23.8 6.4s-24.7 64.2-24.7 64.2l49.5-12.8L547.3 673.7zM836.1 754.9c-8.4 0-16.4 5.4-18.3 14.5-1.9 9.1 5.2 36.9 5.2 36.9"/>
  <path class="st0" d="M856,757.7c0,0-1,2,7.8,2.6c8.4,0.5,18.1-0.7,18.1-0.7s7.8-9,12.3-9.6s28.5,11.7,28.5,11.7s-7.1-1.3-11.7,7.1	c-4.5,8.4-2.6,15.6-7.1,16.8s-14.3-5.8-15.6,3.2s-1.3,59.6-3.9,62.2c-2.6,2.6-19.4,5.8-20.7-1.3c-1.3-7.1-9.1-39.5-13-45.4	c-3.9-5.8-24.9-25.7-31.3-21"/>
  <path class="st0" d="M890,787.2c0,0,27.1,17.6,8.1,66.7c-17.9,46-58.9,35.4-64.1,31.5c-5.2-3.9-39.8-32.6-0.9-97.4"/>
  <path class="st0" d="M850.5 806.3c0 0-22.1 31.4-16.5 51.9 3.2 11.7 9.7 35 40.2 20.7 30.5-14.3 34.3-81.7 14.9-79.1M546.1 860.7c-8.4 0-16.4 5.4-18.3 14.5-1.9 9.1 5.2 36.9 5.2 36.9"/>
  <path class="st0" d="M566,863.5c0,0-1,2,7.8,2.6c8.4,0.5,18.1-0.7,18.1-0.7s7.8-9,12.3-9.6c4.5-0.6,28.5,11.7,28.5,11.7	s-7.1-1.3-11.7,7.1c-4.5,8.4-2.6,15.6-7.1,16.8s-14.3-5.8-15.6,3.2s-1.3,59.6-3.9,62.2c-2.6,2.6-19.4,5.8-20.7-1.3	c-1.3-7.1-9.1-39.5-13-45.4c-3.9-5.8-24.9-25.7-31.3-21"/>
  <path class="st0" d="M600,892.9c0,0,27.1,17.6,8.1,66.7c-17.9,46-58.9,35.4-64.1,31.5c-5.2-3.9-39.8-32.6-0.9-97.4"/>
  <path class="st0" d="M560.5 912c0 0-22.1 31.4-16.5 51.9 3.2 11.7 9.7 35 40.2 20.7 30.5-14.3 34.3-81.7 14.9-79.1M283.3 743.5c-8.4 0-16.4 5.4-18.3 14.5-1.9 9.1 5.2 36.9 5.2 36.9"/>
  <path class="st0" d="M303.2 746.3c0 0-1 2 7.8 2.6 8.4.5 18.1-.7 18.1-.7s7.8-9 12.3-9.6c4.5-.6 28.5 11.7 28.5 11.7s-7.1-1.3-11.7 7.1c-4.5 8.4-2.6 15.6-7.1 16.8-4.5 1.3-14.3-5.8-15.6 3.2-1.3 9.1-1.3 59.6-3.9 62.2-2.6 2.6-19.4 5.8-20.7-1.3-1.3-7.1-9.1-39.5-13-45.4-3.9-5.8-24.9-25.7-31.3-21M262.2 827.1c.9-13.5 5.9-30.3 18.1-50.5M271.4 863.6c-1.6-2.4-3.2-5.1-4.6-8.3"/>
  <path class="st0" d="M337.2 775.7c0 0 27.1 17.6 8.1 66.7-3.3 8.5-7.4 15-11.9 20.1M329.5 861.9c22.8-21.2 24.3-75.8 6.7-73.5M282.9 852.6c1 3 2.3 6.2 4 9.1M297.7 794.8c0 0-14.6 20.8-17.1 39.6M640 648.6c8 3.4 17.1 8.1 17.1 8.1s-7.1-1.3-11.7 7.1c-4.5 8.4-2.6 15.6-7.1 16.8-4.5 1.3-14.3-5.8-15.6 3.2-1.3 9.1-1.3 59.6-3.9 62.2-2.6 2.6-19.4 5.8-20.7-1.3-1.3-7.1-9.1-39.5-13-45.4-1.8-2.7-6.6-7.4-11.8-11.7"/>
  <path class="st0" d="M623.4 681.9c0 0 28.9 20 7.8 68.1-1 2.2-1.7 4.5-2.6 6.5M624.6 758.4c14.9-24.7 14-65.5-1.2-63.5M586 701.9c0 0-11.5 7.5-13.2 21.7M284.3 620L235.7 638.2M230.6 660.7c5.8 0 51.8-17.4 51.8-17.4M874.2 284.7c-5.8.6-226.2 30.5-237.2 36.9-11 6.5-21.4 16.2-22 62.9-.6 46.7 0 212.6 0 212.6s-2.6 3.2-9.7 1.3c-7.1-1.9-21.4-5.8-21.4-5.8l-1.3-42.8 11 2.6c0 0-2.6-200.2 1.9-208.7s5.8-22.7 25.9-40.8M851.7 450.3c0 0 1.5-1.3 4.4-2.2 2.5-.8 11.1-1.2 16.9 2.7 8 5.4 11.2 19 9 25.7-4.1 12.8-20.1 15.6-20.1 15.6l-11.7-7.1"/>
  <path class="st0" d="M851.5 466.1c0 0 7.4-3.9 8 1.8.9 8.2-1.3 8.7-8.1 10.2M891.3 267.5c0 0-8.5-1.6-10.1 9.8-1.3 9.4 6.9 9.1 8.8 7.7M891.5 267.6c0 0-.4-5.5-3.6-6.9-3.3-1.5-12.7-2.2-12.7-2.2"/>
  <path class="st0" d="M886.2,285.5l-12.1,0.2c0,0-0.7-5.1-0.2-7.8"/>
  <path class="st0" d="M887.4 268.9l6.5.7c0 0 7 2.7 4.4 10.6-1.8 5.6-5.6 3.9-5.6 3.9l-10.3-.8M107.5 777.4c-1.2.3-23.4 1.7-23.4 1.7s-6.4 6.4-5.1 13.6c1.3 7.2 3.4 11.5 7.2 12.3.9.2 2-.2 3.2-1.1 3.8-2.7 8.1-9.8 7.8-14.6 0 0-8.9-9.3-11.9-9.3M367.3 924.3l-28.9.4c0 0-20-8.9-11.9-23.8 5.1-9.3 8.1-7.6 10.2-8.5 2.1-.8 28.9 1.3 28.9 1.3"/>
  <path class="st0" d="M339.7 924.8c0 0 5.1 1.7 10.6-11 6.8-15.7-13.6-20.4-13.6-20.4M117.3 802.1L89.5 804"/>
</svg>
