<!--
	https://github.com/Duxxie/duxxie-images
	This work is licenced by https://creativecommons.org/licenses/by-sa/4.0/
-->
<svg version="1.1" id="toiletverhoger-met-deksel-en-armleggers-svg" xmlns="http://www.w3.org/2000/svg" x="0px" y="0px" width="1000px" height="1000px" viewBox="0 0 1000 1000" xml:space="preserve">
  <style>
    #toiletverhoger-met-deksel-en-armleggers-svg .st0{fill:none;stroke:currentColor;stroke-linecap:round;stroke-linejoin:round;stroke-miterlimit:10;}
  </style>
  <path class="st0" d="M201.6 695.4l7 105.5c0 0 148 87.1 332.8 140.7 17.8 4.2 45.1 12.6 91.3 26.2 16.1 4.8 37.6-17 66.1-21 72.4-10.2 129.4-54.6 143.3-89.4 6.2-15.5 16.6-21 17.9-24.8 5.4-15.2-9.2-191-9.2-191M255.3 581.4c-2.1 4.2-53 20.1-55.1 27.5s-1 58-1 58"/>
  <path class="st0" d="M261.1 657.1c7.3 7.3 224.6 120.7 295 126 70.3 5.2 152.2 3.1 214.2-32.5 44.9-25.9 91.3-89.2 78.7-117.6-12.6-28.3-53.8-47.4-53.8-47.4M200.2 608.8c0 0 29.9 29.4 35.2 31.5"/>
  <path class="st0" d="M477 482.8c0 0 17.2 7.4 26.4 3.8 10.8-4.2 15.6 1.4 61.1 10 67.2 12.6 241.4 43 257.2 139.6S696.7 747.4 671.5 749.5c-25.2 2.1-264.3 21.5-373.5-119.2M281 602.5c0 0-4.6-7.9-9.9-11-11.3-6.6-12.4-6.9-12.4-6.9"/>
  <path class="st0" d="M499.4 555.3c12.2-6.1 98.7-12.6 171.1 19.9 72.4 32.5 119 95.9-26.2 112.3C504.6 703.3 390.3 625.4 426 595S495.2 557.4 499.4 555.3zM385.8 524.3L478.4 480.7M152.2 339.9c19.2 140.2 105.9 244.5 105.9 244.5l98.4-46.3M477.9 480.4c0 0 21.9-59.1-21.6-218C419.6 128 337.8 47.3 281 54.5c-38.4 4.9-129.3-9.9-132.8 200.5M606.7 295.9c0-2 0-23.3 2-26 2-2.7 9.3-8.7 20-8 10.7.7 286 61.3 294.7 64.7 8.7 3.3 34.7 13.5 50.7 42 16 28.7 4 38.7-4 39.3-8 .7-17.3 1.3-29.3-6-13-7.9-17.3-30-46-36.7C866 358.6 606.7 295.9 606.7 295.9z"/>
  <path class="st0" d="M752.7 551.3c0 0 14 4.7 25.3-21.3s36-182 36-182M772 566.6c0 0 19.3-8 27.3-32s42-181.3 42-181.3M547.3 493.3c0 0 27.3-33.3 28-45.3.7-12 0-118 0-118s5.3-35.3 31.3-34"/>
  <path class="st0" d="M606 277.3c0 0-32-8.7-46 30s-4.7 116-4.7 123.3c0 21.3-24 54.7-30 56.7M14 427.3l158.7-202c0 0 27.3-24 44.7-27.3 17.3-3.3 37.3-12.7 58 0 20.7 12.7 24 14 20.7 23.3-3.3 9.3-39.3 30.7-47.3 30-8-.7-32.7-15.3-41.3-6.7-8.7 8.7-174.7 210-174.7 210s-8 8.7-14 3.3c-6-5.3-11.3-18-11.3-18S11.3 430.6 14 427.3z"/>
  <path class="st0" d="M284.5 234c2.7 0 21.3 12.4 2.8 27.9-13.2 11.1-23.3 6.9-22.7-8.7.3-7.6 2.5-9.1 2.5-9.1M18.7 457.9c-14 24 10 77.3 10 77.3s92 134.7 106 146c45.2 36.6 93.3 1.3 93.3 1.3s108.7-78 145.3-116-11.3-94-11.3-94S188.7 303.9 182.7 295.9c0 0 34.7-38.7 40.7-42 6-3.3 13.2-5.5 15.9-4.8"/>
  <path class="st0" d="M164 326.6c2 1.3 176 172 176 172s32 27.3 12.7 46c-19.3 18.7-149.3 121.3-149.3 121.3s-38 12.7-59.3-8S52 522.6 52 522.6s-18.7-42.7 0-65.3S164 326.6 164 326.6zM268.2 266L250.9 251.6"/>
</svg>
