<!--
	https://github.com/Duxxie/duxxie-images
	This work is licenced by https://creativecommons.org/licenses/by-sa/4.0/
-->
<svg version="1.1" id="transferplank-svg" xmlns="http://www.w3.org/2000/svg" x="0px" y="0px" width="1000px" height="1000px" viewBox="0 0 1000 1000" xml:space="preserve">
  <style>
    #transferplank-svg .st2{fill:none;stroke:currentColor;stroke-miterlimit:10;}
  </style>
  <path class="st2" d="M168.2,54.3c15.7,0,134.5-19.3,152-19.3c17.5,0,30.6,4.4,58.1,33C559,256.1,820.1,566.6,820.1,566.6 s-52.3,40.9-39,63.8c15.7,27.2,51.5,32.9,66.9,21.7c25.1-18.4,20.4-23.2,20.4-23.2l110.7,132.3c0,0,31.1,36.5,6.2,50.9 c-18.9,10.9-438.3,137.9-438.3,137.9s-52,16.7-86.7-25.3c-39.8-48.2-88.6-167.1-88.6-167.1s6.4-19.2,23.7-9.1 c6.8,3.9,30.1,5.7,43.3,0.8c14.2-5.4,26.9-21.8,4.2-41c-22.7-19.2-117.7-28.9-117.7-28.9L5.8,94.4c0,0-4.4-16,7.1-19.1 C26.6,71.6,168.2,54.3,168.2,54.3z"/>
  <path class="st2" d="M268.6,75.1c0,0,27.4,1.4,21.2,15c-5.1,11.2-143.9,27.1-155.4,23c-1.9-0.7-20.8-16.2-10-19.4 C164.8,82,268.6,75.1,268.6,75.1z"/>
</svg>
