<?xml version="1.0" encoding="utf-8" ?>
<!--
	https://github.com/Duxxie/duxxie-images
	This work is licenced by https://creativecommons.org/licenses/by-sa/4.0/
-->
<svg version="1.1" id="trippelstoel-svg" xmlns="http://www.w3.org/2000/svg" xmlns:xlink="http://www.w3.org/1999/xlink" x="0px" y="0px" width="1000px" height="1000px" viewBox="0 0 1000 1000" style="enable-background:new 0 0 1000 1000;" xml:space="preserve">
	<style type="text/css">
	#trippelstoel-svg .st0{fill:none;stroke:currentColor;stroke-linecap:round;stroke-linejoin:round;stroke-miterlimit:10;}
</style>
	<path class="st0" d="M388.4,563.3l8.3,14.6c0,0-3.1,3.5-5.6,6.9s-8,10.1-8,13.2c0,3.1,9,8,9,8c22.6,1.7,36.1-15.6,36.1-15.6
	s0.7-6.6-1.4-11.5s-3.5-5.6-7.6-4.5c-4.2,1-10.8,1.7-10.8,1.7l-9.7-13.9" />
	<polyline class="st0" points="425.5,585.1 414.4,584.8 397.4,592.8 392.2,606 " />
	<path class="st0" d="M318.9,531.6c0,0-13.5-2.6-20.4,0s-11.3,6.5-9.5,9.5c1.7,3,10.9,16.1,30.8,8.2" />
	<path class="st0" d="M319.3,555c0,0-7.8,3.9-18.2,1.7c-11.7-2.4-13-10.4-13-10.4l-0.4-6.9" />
	<path class="st0" d="M308.5,296.5c0,0-51.4-190.7,32.1-259.9s155-5,175.7,10c20.7,15,96.1,94.5,68.6,210
	C562.7,349.3,441.3,355,441.3,355" />
	<path class="st0" d="M342,426.4c5-2.9,10-22.1,90-35.7s152.1-25,229.2-2.1s117.1,42.8,115.7,89.3c-1.4,46.4-21.4,60-53.6,73.6
	c-32.1,13.6-114.3,46.4-157.1,45.7s-161.4-39.3-188.5-62.8c-13.8-12-32.1-32.8-33.6-38.6" />
	<path class="st0" d="M341.3,450.7c2.1,12.9,66.6,66.3,86.6,78.2c22.9,13.6,81.5,42,105.7,46.3c24.3,4.3,89.6,11.2,115.3,4.8" />
	<path class="st0" d="M787.7,807.1c0,3.6,5.7,20.7-10,30s-41.4-7.9-45-33.6c-3.6-25.7,19.6-33.4,31.4-26.1" />
	<path class="st0" d="M777.7,814.9c0,2.9,2.2,11-6.4,16.4c-5.2,3.2-18.1,1.6-26.4-15c-7.1-14.3-5-24.3-1.4-27.1
	c3.6-2.9,13.4-7.9,18.5-0.5" />
	<path class="st0" d="M733.1,746.9c0,0-1-8,0.3-13.4c1.4-5.8,13-19.5,18.3-16.5c5,2.9,20.9,4.5,23.1,5.6c6.7,3.3,18.6,3.7,22.8,10.8
	s-1.4,51.4-1.4,57.8c0,6.4-19.3,30-27.9,30s-22.1-10.7-18.6-19.3c3.6-8.6,11.4-9.3,12.9-13.6c1.4-4.3,2.1-27.1,2.1-27.1
	S733.8,744.8,733.1,746.9z" />
	<path class="st0" d="M470.6,917.8c-5,0-22.1-5.9-21.4,28.4c0.7,34.3,29.3,46.3,35.6,47.6c2.7,0.6,30,10.4,22.9-35.3" />
	<path class="st0" d="M493.4,967c0.5,3.6,4.3,16.4-5,19.3c-9.3,2.9-25-6.4-27.9-15.7s-8.5-21.8-4.6-31.3c4.7-11.2,11-8.7,14.6-5.8" />
	<path class="st0" d="M509.1,861.1c0,0-1.2,2.7,0.5,11.4c1.1,5.7-0.7,14.6,4.6,21.1c6.3,7.7,0.4,46.2,0.3,51.9
	c-0.3,10.8-20.7,21.6-29.9,27.9c-4.7,3.3-24.1-2.8-21.9-15.7s10.9-11.5,10.9-15.1s-5.2-28.8-2.3-43.1s2.9-36.8,10.5-41.6
	c4.4-2.7,5.4-24.8,5.4-24.8s12.7,0.6,20.2-0.6c6.1-1,2.3,21.4,1.8,27.3" />
	<path class="st0" d="M262.8,754.2c0,0-8.6,7.1-1.4,28.6c7.1,21.4,21.4,28.6,29.3,28.6s19.5-7.7,22.1-12.9c3.9-7.6,2.8-17.7,2.8-17.7
	" />
	<path class="st0" d="M295.8,787.5c0,3.6-1.6,11.7-5.9,15.9s-14.3,1.4-17.9-2.9" />
	<path class="st0" d="M333.5,695.7c3.6-2.4-23.6,1.4-23.6,1.4s-2.1-12.1-14.3-12.1c-12.1,0-20.7,7.2-20.7,16.8
	c0,6.1-3.6,33.9-3.6,33.9s-11.4,5-11.4,7.9s8.6,15,8.6,19.3s-0.7,19.3-0.7,19.3s9.2,10.9,12.8,9.4c3.6-1.4,42.9-12.3,42.9-15.9
	s-1.7-29.3-1.7-29.3l-6.9-20.7l16.4-2.9l-5-15.7C326.3,707.1,331.3,697.1,333.5,695.7z" />
	<path class="st0" d="M566.7,728.6c0,3.6,1.7,90.4,1.7,90.4l-43.6,20.9L505.1,825" />
	<line class="st0" x1="503.8" y1="760.5" x2="504.2" y2="798.5" />
	<polyline class="st0" points="496.3,585 501.3,685.7 524.1,701.4 567.7,683.5 566.7,622.9 566.3,600.7 " />
	<path class="st0" d="M740.5,719.2c0,0-163.5-91.4-166.4-92.8l-7.1,4" />
	<path class="st0" d="M732.7,731.4c-10-3.6-67.1-37.1-67.1-37.1s-62.8,19.3-81.4,27.1c-4.2,1.8-10.8,4.8-18.6,8.4
	c-27,12.7-68.2,33.1-69.3,35.9c0,0,12.7,32.4,8.2,65.6" />
	<path class="st0" d="M490.8,833c-0.7-5-4.5-77.4-39.4-100.9c-35-23.6-76.6-30.5-120.1-13.3" />
	<path class="st0" d="M332.3,699.2c2.9-0.7,43.1-11.6,66.7-7c6.4,1.2,99.4-34.4,99.4-34.4" />
	<path class="st0" d="M627,302.2c0,0-17.1-11.4-9.3-36.4c7.9-25,82.1-15.7,92.1-12.1c10,3.6,61.4,26.4,65.7,41.4s-3.6,22.1-24.3,22.1
	s-14.3-10.7-35.7-15s-45-10-57.1-5C646.3,302.2,632,305,627,302.2z" />
	<path class="st0" d="M773.4,293.6c0,0-4.3,8.6-15,6.4c-9.2-1.8-8.6-10-38.6-22.1s-54.3-21.4-75.7-21.4s-21.4,5-25.7,7.1" />
	<path class="st0" d="M270.6,312.9c0-3.6,19.3-15,27.1-15c7.9,0,17.9-10.7,58.6,7.9c46.8,21.3,91.4,50,91.4,58.6s5.6,17.1-7.9,20.7
	c-20.7,5.5-28.6,0-57.8-11.4s-106.4-35-108.5-40C271.4,328.6,270.6,316.5,270.6,312.9z" />
	<path class="st0" d="M445.9,361.6c0,0-11.3,13-34.6,7.7c-18.9-4.3-136.8-55.9-140.3-57.4" />
	<path class="st0" d="M314.8,350.7l8,240.7c0,0,12.9,11.4,19.3,11.4s15,1.4,15-2.1s-2.9-32.8-2.9-32.8l65-9.3" />
	<path class="st0" d="M382.8,539.3c-6.4,0-28.6,2.9-28.6,2.9l-0.7-7.9l-10-7.1L339.3,359" />
	<path class="st0" d="M685.5,297.9c0,5.7,0,97.8,0,97.8" />
	<path class="st0" d="M664.8,296.5c3.6,11.4-1.4,90.7-1.4,90.7" />
	<line class="st0" x1="409.9" y1="384.3" x2="412" y2="394.3" />
	<line class="st0" x1="433.7" y1="386.9" x2="434.2" y2="390.7" />
	<path class="st0" d="M232.3,564.4c1.2,20.1,2.1,68.2,2.1,68.2l133.9,59.5" />
	<path class="st0" d="M245.6,547.9c-4-8.7-14.4-7.1-16.5-6.1c-4.5,2.1-7.7,7.7-5.5,15.4c3.9,7.6,10.5,7.7,10.5,7.7
	C250.9,563.5,245.6,547.9,245.6,547.9z" />
	<path class="st0" d="M377.2,692l-139.6-62.2L236,564" />
	<path class="st0" d="M341.8,431.4" />
	<path class="st0" d="M340,359.2" />
</svg>
