<?xml version="1.0" encoding="utf-8" ?>
<!--
	https://github.com/Duxxie/duxxie-images
	This work is licenced by https://creativecommons.org/licenses/by-sa/4.0/
-->
<svg version="1.1" id="tweewielfiets-svg" xmlns="http://www.w3.org/2000/svg" xmlns:xlink="http://www.w3.org/1999/xlink" x="0px" y="0px" width="1000px" height="1000px" viewBox="0 0 1000 1000" style="enable-background:new 0 0 1000 1000;" xml:space="preserve">
	<style type="text/css">
	#tweewielfiets-svg .st0{fill:none;stroke:currentColor;stroke-linecap:round;stroke-linejoin:round;stroke-miterlimit:10;}
</style>
	<path class="st0" d="M679.8,500.3l-10.9-21.5c0,0,16.7-14.5,18-17.4c1.3-2.8-1.3-5.5-4.8-8.3c-3.5-2.8-4.2,0.7-6.2,1.3
	c-2,0.7-11.8,8.3-11.8,8.3S617.5,355.1,616.8,353c-0.7-2-6.2-20.2-6.2-20.2s3.5-70.8,1.3-86.8s-8.3-28.4-8.3-28.4l2.8-6.2l7,4.2
	c0,0,0,0,4.8,0s5.5-0.7,9-2.8c3.5-2,2-13.2,2-13.2s17.4,7,16.7,9s1.3,11.2,2,14.5c0.7,3.5,6.2,7.7,13.9,7.7s0-4.8-2.8-6.2
	c-2.8-1.3-5.5-7.7-2.8-13.9c2.8-6.2,0,0,3.5-6.2c3.5-6.2,0,0-2.8-4.8c-2.8-4.8-18-17.4-24.4-18.7c-6.3-1.3-9-7-9-7l2-4.8l-11.8-12.5
	c0,0,0,0-4.8,1.3c-4.8,1.3-16.7,22.9-16.7,22.9l9.7,12.5c0,0,0,0-5.5,4.8c-5.5,4.8-7.7,3.5-11.2,2c-3.5-1.3-18.7-0.7-27.7-0.7
	s-19.4-2-19.4-2s-18-8.3-27.7-11.2c-9.7-2.8-32.6,8.3-32.6,8.3s-8.3,2-13.9,2c-5.5,0-7,0-11.2,0c-4.2,0-7,4.2-9.7,7
	c-2.8,2.8-4.8,8.3-4.8,8.3l-17.4,9l-52.7,27l8.3,18.7c0,0,54.1-26.4,56.2-27.7c2-1.3,6.2,1.3,13.2-1.3c7-2.8,9-6.2,13.9-6.2
	c4.8,0,7,4.8,7,4.8s-31.2,24.4-34,27c-2.8,2.8-0.7,11.2,0,15.2c0.7,4.2,4.2-4.8,4.2-9c0-4.2,28.4-20.2,32.6-24.4
	c4.2-4.2,9-2.8,16.7-3.5c7.7-0.7,19.4-2.8,24.4-12.5c4.8-9.7,7-7,9.7-6.2c2.7,0.8,7,0,13.9-6.2c7-6.2,20.9-5.5,28.4-5.5s0,7,0,7
	s-12.5,18-18.7,21.5c-6.2,3.5,4.2,18,4.2,25s11.2,11.8,11.2,11.8l27.7,65.9c0,0-0.7,4.8,0,8.3s-2,9-2,9s44.4,88.8,42.4,89.5
	c-2,0.7-42.3,64.9-60,121.8c-16,51-5.1,147.6-5.1,147.6l-56,10.2c-22.2-48.6-48.8-72-48.8-72s2.8-6.2,2-12.5
	c-0.7-6.2-2.8-33.4-2.8-33.4l14.5,1.3l9.7-11.2l-1.3-15.2l-27.7-0.7l-16.7,9l2,16h8.3l-1.3,6.2c0,0-3.5,27.7-3.5,25.7
	c0-2-11.8-7-11.8-7s-19.5-7.1-30.4-6.1" />
	<path class="st0" d="M775.7,526.6c0,0,3.5-7-2-9.7c-5.5-2.7-8.3-2-16.7-2c-8.3,0-65.1,15.2-65.1,15.2" />
	<path class="st0" d="M744.5,530.8c42.8-4.3,65.8-1.7,119.2,21.5c77.6,33.9,112.4,112.1,112.4,112.1c67.1,170.9-61,216.9-126.6,212.6
	c-49-3.1-135-35.5-189.5-132.1c0,0-36.3-84.4,9.3-160.4" />
	<path class="st0" d="M43.1,550c0,0-39.2,40.9-17,128.6c18.4,72.4,84.4,133.5,170.5,121.9c67.8-9,98.8-93.5,98.8-93.5
	s34.4,8.1,42.8,10.9c8.3,2.8,79,28,79,28l-3.1,45.9c0,0-8.5-2.3-13.3-1.6C395.9,790.9,387,807,387,807s-4,14.7-1.2,17.4
	c0,0,33.4,2,36.7,0.7c3.4-1.3,19.2-17.4,19.2-17.4s2-10.4,0.7-13.9c-1.3-3.5-13.7-1.9-13.7-1.9l6.1-37.8c0,0,0,0,4.8-1.3
	c4.8-1.3,11.8-4.2,11.8-4.2l49.1,67.4c0,0,32.2-6.5,29.5-10c-1.1-1.3-5.7-2-7.9-3.2c-0.8-0.4-15.6,3.8-17.4,2.8
	c-2.8-1.3-42.8-65.5-41.4-67.5c1.3-2,4.8-10.4,4.8-10.4s0-4.8,7,4.8c7,9.7,12.5,30.5,12.5,30.5s106.8-16.7,109-16.7
	c2,0,1.9-5.7-0.4-9.8c-3.5-6.5-4.2-60.3-4.2-95c0-34.7,7.4-88,26.4-113.6c19.5-26.2,34.4-28.8,34.4-28.8l17.4,29.2c0,0,0,0-9.7,0
	s-16.3,6.6-23.1,13.6c-7,7-8.1,10.1-11.6,11.4s12.4,17.5,12.4,17.5s7.1-4.3,9.1-1.6c2,2.8-0.7,10.4-1.3,16.7
	c-0.7,6.2-11.2,24.6-14.5,36.1c-4.8,16.6-2.7,71.3-1.3,78.3c1.3,7,1.9,12.9,1.2,26.1c-0.7,13.2-0.5,20.6-1.2,26.1
	c-0.7,5.5,10.4,0.7,14.5-3.5c4.2-4.2,11.6-11.3,11.6-11.3" />
	<path class="st0" d="M121.4,502.5c14.3-2.2,36.7-1.9,53.7,3c53.7,15.2,65.5,36.1,72.4,43.9c14,15.6,33.2,64.7,33.2,64.7" />
	<path class="st0" d="M381.3,617.2c0,0-68.6-106.4-71.3-110.6c-2.8-4.2-7-2.8-7-2.8L254.5,433c0,0,4.8-2,4.8-5.5c0-3.5,0.7-9,0.7-9
	s7-0.7,19.4-4.8c12.5-4.2,9.7-14.5,14.5-20.2c4.8-5.5,17.4-2.8,21.5-7c4.2-4.2,0-13.2-9.7-20.2c-9.7-7-36.1,4.2-49.9,4.8
	c-13.9,0.7-34.7-5.5-53.4-8.3c-18.7-2.8-21.5,7.7-25,11.8c-3.5,4.2-4.8,18.7-4.8,18.7l31.9,14.5v7.7c0,0-7.7,1.3-10.4,3.5
	c-2.8,2,0,8.3,1.3,10.4s16,22.2,18.7,22.9c2.8,0.7,4.8-8.3,4.8-14.5c0-6.2,3.5-6.2,3.5-6.2s9,13.9,11.2,18.7
	c2,4.8,10.4-2.8,10.4-2.8l16,23.5c0,0-5.5,4.2-8.3,7.7c-2.8,3.5,3.5,7,3.5,7l11.2-2l20.9,27.7l-4.8,3.5
	c-24.4-25-87.5-46.6-87.5-46.6s0.7-4.8,4.8-10.4c4.2-5.5,0,0-0.7-3.5c-0.7-3.5-11.2-1.3-15.2,0.7c-4.2,2-16.7,2-16.7,2
	s-86.1-4.2-98.5-2.8c-12.5,1.3-34.7,9-40.2,11.2c-5.5,2-3.5,8.3-3.5,11.8c0,3.5,11.2,0.7,11.2,0.7s-0.7,5.5-0.7,7.7
	s-10.4,1.3-11.8,3.5c-1.3,2-0.7,7.7-0.7,11.2c0,3.5,11.2,7,11.2,7s-2,18.7-2,22.2s3.5,15.2,3.5,15.2s-5.8,10-17.6,16.1
	c-3.9,2-14.1,8.2-12.8,10.4c1.3,2,10.4,1.5,21.9-5.5c6.1-3.8,33.2-33.8,37.9-39.2c2.6-3,19-13.9,40.9-20.3" />
	<path class="st0" d="M104.3,493.8l-0.3-13.7l-41.2-0.8c0,0-2,6.1,1.3,8.1s8.1,12,8.7,15.3c0.7,3.4,5.4,2,5.4,2
	S101.6,494.5,104.3,493.8z" />
	<path class="st0" d="M53.6,506c1.3,4.7,3.4,9.4,5.4,10.6c2,1.3-10.6,9.4-11.3,11.3c-0.7,1.9-5.4,4.7-5.4,4.7s-2.7-11.3-1.3-14
	c1.3-2.7,1.3-10.6,1.3-10.6L53.6,506z" />
	<path class="st0" d="M199.8,485.3c0,0,18.7,4,32,10c13.3,5.9,37.4,23.4,37.4,23.4l-17.4,2c0,0-12.6-6.7-20-10.6
	c-7.4-4-30-16.7-30-16.7L199.8,485.3z" />
	<path class="st0" d="M165.1,474.6c0,0,17.4,3.4,19.4,4c2,0.7,6.7,4,6.7,4l0.7,7.4c0,0-21.4-10.6-24.1-10.6
	C165.1,479.4,165.8,475.9,165.1,474.6z" />
	<path class="st0" d="M278.7,527.3c0,0,19.4,11.3,24.1,17.4c4.7,6.1,15.5,20.9,15.5,23.5L262,530C262,530,276.7,528.6,278.7,527.3z" />
	<path class="st0" d="M694.9,595.9c0,0,24.4-29.7,60.3-27.7c19.5,1.1,114.1,16.3,157,80.2c43.1,64,37.3,119.4,18.7,150.3
	C903,845,792.9,864.2,716.4,777.3c-74.9-85.2-34-164.7-34-164.7" />
	<path class="st0" d="M122.2,535c24.2-3.4,58.7-2.6,85.7,17.8c44,33.2,47.9,61.8,47.9,61.8" />
	<path class="st0" d="M262.7,698.3c0.7,16-28.1,56.8-56,68.2c-37.8,15.5-112.2,4.2-147.6-81.4S80.7,547.8,93,542.6
	c1.9-0.8,7-3,14.8-4.8" />
	<path class="st0" d="M369.8,626.1c0,0-48.8-10.6-61-10.2c-12.1,0.4-53.1-0.8-63-0.8c-10,0-45.7,7.8-51,8.6
	c-5.2,0.8-24.2,5.2-24.2,5.2" />
	<path class="st0" d="M400.4,649.2c0,0-22.5-8.2-35-9.6c-12.5-1.3-47.1-9.6-55.3-9.6s-45.3-3.5-52.6-3c-7.4,0.4-30.3,0.4-32.8,2.2
	c-2.6,1.7-8.2,8.2-8.2,8.2" />
	<path class="st0" d="M451.6,748.9c0,0,9.7-5.9,11.6-10.5" />
	<path class="st0" d="M776.4,720.4c0,0-6.6-3.2-23.3-19.9c-16.7-16.7-67.5-80.9-69.4-84.9c-2-4-21.4-48.2-20-55.4
	c0,0,5.2-32.6,16.4-57.7l5.7-26.4l0.9-5l3.1-4.7c0,0,8.9-13.5,14.5-13.2c7.3,0.3,19.6,10.1,15.6,20.9c-4.4,11.8-9,10.4-13.1,11.6
	c-3.4,1.1-6.1,17.5-6.7,24.5c-0.7,7-6.2,14.5-6.2,14.5c-0.8,0.7-9.4,16.3-9.4,25.3c0,0-0.1,19.5,1.2,24.9c1.3,5.4,10,32,22.1,48.7
	c12,16.7,60.1,78.2,63.5,79.5c3.4,1.3,9.4,4,9.4,4" />
	<path class="st0" d="M732.3,574.7c0,0,8.2,23.5,14.8,30.9c6.6,7.4,62.8,77.5,62.8,77.5s-1.3,4-4.7,4s-3.4,0-3.4,0l-62.2-62.8
	c0,0-10-12.6-12-17.4c-2-4.7-10.6-25-10.6-25" />
	<path class="st0" d="M294.7,707.1c0,0-38.5-11.3-47.5-12.6c-7.9-1.2-55-3.1-61.6-3.8c-6.7-0.7-58.5,1.7-66.6-5
	c-8.1-6.7-12.9-16.3-11.2-28.3c0.5-3.4,4.6-13.9,11.8-19.8c8.3-6.9,25.4-8.7,30.7-10.6c5.2-1.9,20-2,20-2s-4,10,2,11.3
	c6.1,1.3,30.7,4,40.1,2.7c9.4-1.3,35.1-8.3,42.5-7c4.6,0.8,118.5,21,124.6,21c6.1,0,41.4,4.7,46.8,8.7c5.4,4,35.4,8.7,40.8,32
	c5.4,23.4,1.3,34,1.3,34" />
	<path class="st0" d="M318,567.7c0,0,72.9,59.2,80.3,61.9c7.4,2.7,21.4,15.3,23.4,18.7s0,6.1-4.7,8.7c-4.7,2.7-9.4-4-9.4-4
	l-88.8-65.5c-2.6-3.1-51.8-39.6-56.8-41.4c0,0-94.9-54.8-108.2-59.5s-49.5-6.3-49.5-6.3" />
	<path class="st0" d="M438.8,728.5c4.6-1.9,8.6-3.5,11.8-9.3c3.2-5.8,1.1-20-5.2-29.3c-7.8-11.3-25.3-8.1-25.3-8.1s-15.5,2-15.5,21.1
	s9,24.4,11.8,25.7" />
	<path class="st0" d="M434.9,753.9c0,0,5.2-40,6.1-42.8c0.8-2.8-2.4-8.1-5.2-11.4c-2.8-3.2-7.3-2-9-2c0,0-9.4,2.8-9.8,6.5
	c-0.4,3.6,0,42,0,42" />
	<path class="st0" d="M471.1,611.4c-1.2-2.4-1.2-13.9-1.2-13.9l-33.9-2.4" />
	<line class="st0" x1="478.4" y1="587.2" x2="469.9" y2="597.5" />
	<polyline class="st0" points="440.1,794 420.1,809.6 386.5,807.7 " />
	<path class="st0" d="M589.6,219.4c0,0,14.3,10,14.7,22.6c0.4,12.6-0.5,88.4-0.5,88.4l-2.2,3.6l-28.4-60.6c0,0,1.1-2.7,0.5-5.8
	c-0.5-3.1-8.5-11.6-8.5-14.3c0-2.7,12.6-19,14.3-24.8c1.6-5.8,1.6-14.3,4.2-14.7S589.6,219.4,589.6,219.4z" />
	<path class="st0" d="M507,201.5c-4.7,0-21,6.9-21,6.9s4.7,4.7,6.9,6.9c2.2,2.2,5.8,3.6,9.4,1.1c3.6-2.6,13.2-6.3,17.4-6.3
	C524,209.9,511.9,201.5,507,201.5z" />
	<path class="st0" d="M456.6,656.5c0,0-12.5-12.1-16.4-14.3" />
	<path class="st0" d="M297.2,614.6c0,0-7.4-25.4-15.6-39.3s-16.4-28.3-19.6-29.2" />
	<polyline class="st0" points="318.8,587.4 311.9,602.5 294.1,602.5 " />
	<path class="st0" d="M352,571c0,0,76.7,56.8,79.3,65.5" />
	<path class="st0" d="M372.3,602.9c0,0,30.3,22.5,33.6,26.8" />
	<line class="st0" x1="817.8" y1="695.4" x2="798.1" y2="714.7" />
	<line class="st0" x1="807.1" y1="689.7" x2="787.3" y2="706.9" />
	<path class="st0" d="M784.2,705.7c0,0,12.9,3,14.7,10.8c1.7,7.8-2.6,12.1-7.8,12.9c-5.2,0.8-11.7-0.4-12.5-3.9
	C777.7,722,772.5,708.3,784.2,705.7z" />
	<path class="st0" d="M808,679.3c0,0,11.7,1.3,13.9,8.2c2.2,6.9-0.4,13.9-2.2,15.1c-1.7,1.2-7.8-0.8-7.8-0.8" />
	<path class="st0" d="M798.3,683c0,0-4.3,7.9-0.5,14.3" />
	<path class="st0" d="M684,559.1c2.6-0.4,20.9-13.6,29.5-14.9s18.6-1.3,20.3-1.3s0.8-6.5,6.1-10c5.2-3.5,12.1-11.2,16-12.1
	c3.9-0.8,17.8-5.2,19,3" />
	<path class="st0" d="M688.1,468.8c0,0-5,11.3-0.8,17.2c4.2,5.9,12.1,3.1,18.4,1.1" />
	<path class="st0" d="M204.5,407.9c0,0,36.6,3,45.6,2.6c9-0.3,20-3,25.7-6.1c5.7-3,12.5-7.9,18.3-11.2" />
	<path class="st0" d="M120,490.2c0,0,9.6-5.5,42.3,0.7" />
	<path class="st0" d="M119.6,481c0,0,0.4,8.9,0.9,21.7c1.5,33.1,4.3,92.2,6.5,92.6c3.1,0.7,28.9,9.3,37.5,13.6
	c8.6,4.3,20.3,12.9,20.3,15.3" />
	<path class="st0" d="M104,493.5l1.7,12l7.5,97.1c0,0,1.9,11,6.7,12.9c4.8,1.9,11-0.7,22.1,3.1c11,3.6,18.4,3.1,19.1,5.5" />
	<path class="st0" d="M164.7,535.6c1.5,33.1,3.1,48.4,4.3,52.2c0.9,3,14.8,3.6,23.3,7.9c8.6,4.3,26.6,20.9,26.6,23.3" />
	<path class="st0" d="M151.7,534.7l3.1,45.7c0,0-0.4,16.7,4.6,18.4c5,1.7,14.1,0.3,25.2,3.9c11,3.6,19.6,15.1,20.3,17.6" />
</svg>
