<!--
  https://github.com/Duxxie/duxxie-creative-commons
  This work is licenced by https://creativecommons.org/licenses/by-sa/4.0/
-->
<svg version="1.1" id="urineschuitje-svg" xmlns="http://www.w3.org/2000/svg" x="0px" y="0px" width="1000px" height="1000px" viewBox="0 0 1000 1000" xml:space="preserve">
  <style>
    #urineschuitje-svg .st0{fill:none;stroke:currentColor;stroke-miterlimit:10;}
  </style>
  <path class="st0" d="M800.1 624.2c-30.4-3.9-80.1-10.7-89.5-8.7-5.5 1.1-7 .1-17.5 11.2-15.2 16.1-41.2 43.7-65 46.2-23.7 2.5-208.7-1.2-344.8-43.7s-176.2-58.7-194.9-87.5c-18.7-28.7-30-55.7-32.4-65 0 0-9.6-36.9-1.2-70 2.6-10.1 33.7-102.4 152.4-112.4s244.9 46.2 258.6 52.5 131.2 52.5 143.7 58.7 56.2 46.2 86.2 83.7 51.2 42.5 71.2 51.2c9.1 4 36.1 14.6 62.8 25M867.9 644.7l-47.6-17.5c0 0-3.7-.9-8.2-1.5M840.2 569.1c20.1 7.8 43.9 17.4 52.7 20.9"/>
  <path class="st0" d="M577,416.8c0,0,28.7,27.5-1.2,52.5c-30,25-90,35-118.7,37.5S298.4,519.2,220.9,483s-42.9-94.8-23.7-107.5 c19.3-12.8,61.2-43.7,154.9-30s103.7,33.7,131.2,41.2C510.8,394.3,569.5,408,577,416.8z"/>
  <path class="st0" d="M186.4 457.5c0 0 2.9-35.1 29.6-52 24.1-15.2 47.5-35 123.7-20s109.9 51.5 137.4 59 66.8 16.6 90.1 31.1M236.1 489.6c5-1.2 10.9-23.8 78.5-16.6 58.7 6.3 97.5 36.2 97.5 36.2M61 490.2c0 0 13.9 65.2 212.3 105.3 173.2 35 312.4 50 348.6 47.5 36.2-2.5 40.2-7.9 56.2-16.2 20.6-10.7 19.2-10.3 34.2-11.5M849 573c0 0 .4-7.4-3.6-9.8-7.9-4.7-20.2.5-30.6 19.7-10.4 19.2-15.8 39.5-11.7 48.3 0 0-8.4 35.5 3.7 47 10.9 10.4 30.8 18.6 50 10.3 27.6-11.9 29.2-32.1 32.9-34.6 3.6-2.6 2.9-5.2 5.5-4.7s33.2 10.4 37.8 9.3 18.1-30.6 18.1-30.6 1.6-10.9-2.6-12.4c-4.1-1.6-37.8-16.1-37.8-16.1s-.6-6.8-5.2-9.3c-2.9-1.6-8.1-3-11.6-.6-1.4 1-6.5 5.9-6.5 5.9s-24.1 22.9-19.1 51.7c0 0 6.2 4.2 10.8 6.7 1.8 1-6.2 14-10.4 17.1-4.1 3.1-15 15-36.8 11.9s-22.2-12.6-25.1-20c-4-10.3 2.7-29.4 2.7-29.4s3.8 2.2 7.9 2.2c4.1 0 7.8-6.2 7.8-6.2"/>
  <path class="st0" d="M843.8 570.5c0 0-1.7-7.7-13 5.7-7.7 9.1-19.7 33.2-19.7 40.9 0 7.8 1.6 9.5 4.1 11.4 1.8 1.4 5.2-1.3 5.2-1.3M910.2 598.7c0 0-2.7-3.6-6.4 2.1-3.7 5.7-12.8 20.8-14.7 24.7-4.6 9.4-2.9 25.8.2 28.3"/>
</svg>
