<!--
	https://github.com/Duxxie/duxxie-images
	This work is licenced by https://creativecommons.org/licenses/by-sa/4.0/
-->
<svg version="1.1" id="windring-svg" xmlns="http://www.w3.org/2000/svg" x="0px" y="0px" width="1000px" height="1000px" viewBox="0 0 1000 1000" xml:space="preserve">
  <style>
    #windring-svg .st0{fill:none;stroke:currentColor;stroke-linecap:round;stroke-linejoin:round;stroke-miterlimit:10;}
  </style>
  <path class="st0" d="M489.3,430.2c0,0,159.6-5.6,191.6,70.8c31.9,76.4-109.6,95.8-176.3,97.1c-66.7,1.3-183.2-34.7-187.4-90.2	S420,423.3,489.3,430.2z"/>
  <path class="st0" d="M62.2,627c-16-16.9-33-38.2-39.5-55.1c-3.2-8.2-22.3-53.7,5.9-111.1c3.2-6.4,9.7-16.6,20.9-25	s15.3-23.5,27.8-36.1c12.5-12.5,56.9-38.8,76.4-51.4s134.5-52.8,151.1-56.9c16.6-4.1,51.4-9.7,62.5-12.5c8.1-2,165.2-13.8,237.3,2.8	c72.2,16.6,133.3,31.9,172.1,48.6s176.3,70.8,211,170.8c34.7,99.9-65.2,174.9-70.8,176.3c-5.6,1.3-11-4.1-25,13.8	c-13.8,18.1-47.1,27.8-83.3,44.4c-36.1,16.6-88.9,36.1-109.6,36.1s-55.5-6.9-63.9-2.8c-8.4,4.1-33.3,18.1-66.7,16.6	c-33.4-1.5-15.3-8.4-65.2-4.1c-50,4.1-55.5,11-91.7,0c-36.1-11-52.8-9.7-72.2-9.7s-16.6-2.8-50-15.3	c-33.3-12.5-86.1-27.8-111.1-41.6c-25-13.8-22.2-23.5-34.7-26.3c-12.5-2.8-32.5-15.3-47.8-29.3c-3.3-2.9-9.7-8.2-15.2-13.4"/>
  <path class="st0" d="M842.9,360.8c0,0,80.2,50,101.8,83.3c8.1,12.6,12.5,22.2,22.2,41.6s9.7,29.1,9.7,43s0,38.8-1.3,44.4	c-1.3,5.6-13.8,33.3-27.8,48.6c-13.8,15.3-25,33.3-38.8,36.1c-13.8,2.8-25,5.6-34.7,18.1c-9.7,12.5-48.6,34.7-66.7,37.5	c-18.1,2.8-45.8,8.4-63.9,18.1c-18.1,9.7-52.8,15.3-69.4,15.3s-30.6-5.6-43,0c-12.5,5.6-41.6,13.8-61.1,12.5	c-19.4-1.3-11-8.4-51.4-4.1c-40.3,4.1-45.8,5.6-61.1,1.3c-15.3-4.1-52.8-12.5-93-13.8c-40.2-1.3-95.8-23.5-118-27.8	c-22.2-4.3-63.9-20.9-77.7-33.3c-13.8-12.5-25-22.2-51.4-33.3c-26.3-11-59.7-37.5-76.4-65.2c-16.6-27.8-28.6-57.9-20.9-101.4"/>
  <path class="st0" d="M468.1 595.9c-9.7 0-34.6-5.2-60.9-10.6-26.3-5.6-78.5-30.9-89.8-47.9-8.4-12.5-32.1-51.6 11-81.9 27.8-19.4 64.1-44 155.5-41.6 113.7 2.9 168 27.8 195.7 59.7 27.8 31.9 22.2 55.5 15.3 66.7-6.9 11-20.8 31.3-68.8 42-42.3 9.4-41.5 8-51.5 9.4M47.1 660.1c.3 1.9 4.7 3.9 6.9 2 2.3-1.9 2.5-13.7-.3-19.2-2.8-5.5-9.3-10-13.2-8.6-3.9 1.3-2.3 6.3-2.3 6.3"/>
  <path class="st0" d="M40.6,634.3l8.6-0.7l18.2-10c0,0,10.2,1.1,16.6,20.2l-23.7,11.3l-6.4,7.1"/>
  <path class="st0" d="M27.4,670.8c0.7-0.4,23.3-13,23.3-13c0.8-1.5,2-3.5-0.9-10.8s-9.6-6.7-9.6-6.7l-22,12.5"/>
  <path class="st0" d="M7.4,651.7c0,0,4.9-1.2,7.7-0.4c2.8,0.8,8.4,9.2,9.2,10.6c0.8,1.5,4.3,7.6,3.3,11.6s-0.1,4.7-2.9,4.9	c-2.8,0.3-4.5,0.3-6.8-0.3C15.7,677.7,6,666.5,5.5,664C5,661.5,4.2,654.1,7.4,651.7z"/>
</svg>
