<?xml version="1.0" encoding="utf-8" ?>
<!--
	https://github.com/Duxxie/duxxie-images
	This work is licenced by https://creativecommons.org/licenses/by-sa/4.0/
-->
<svg version="1.1" id="zitkussen-ad-svg" xmlns="http://www.w3.org/2000/svg" xmlns:xlink="http://www.w3.org/1999/xlink" x="0px" y="0px" width="1000px" height="1000px" viewBox="0 0 1000 1000" style="enable-background:new 0 0 1000 1000;" xml:space="preserve">
	<style type="text/css">
	#zitkussen-ad-svg .st0{fill:#FFFFFF;stroke:currentColor;stroke-miterlimit:10;}
	#zitkussen-ad-svg .st1{fill:#FFFFFF;stroke:currentColor;stroke-linecap:round;stroke-linejoin:round;stroke-miterlimit:10;}
	#zitkussen-ad-svg .st2{fill:none;stroke:currentColor;stroke-linecap:round;stroke-linejoin:round;stroke-miterlimit:10;}
</style>
	<path class="st0" d="M21,515.5c0,0-17,4-16,16s11.9,16,11.9,16S375.2,769,379.3,770.9c4,1.9,36,16,73.9-9S497,740,504.9,740
	c7.9,0,474.8-191.5,474.8-191.5s17.9,4,14.9-7.9c-3-11.9-26-23-26-23" />
	<path class="st0" d="M481.3,368.2c0,0-1.5-31.9,0-34.9c1.5-3,7.2-10.9,12.8-12.4c5.7-1.5,48.1-12.4,51.6-12.4
	c3.6,0,12.2-1.9,20.7,3.4l26.6,10.4c0,0,11.5,4.9,13.6,10c2.1,4.9,0.7,39.3,0.7,39.3s-58.1,17.5-63,17.5c-4.9,0-22.2,0-25.8-2.5
	C515.1,384,481.3,368.2,481.3,368.2z" />
	<path class="st0" d="M557.2,404.9c0,0-1.5-34.9,0-38.2c1.5-3.3,7.3-11.9,13.1-13.6c5.8-1.6,49.1-13.6,52.8-13.6
	c3.7,0,12.5-2.2,21.2,3.7l27.2,11.3c0,0,11.8,5.4,13.9,10.9c2.2,5.4,0.7,42.8,0.7,42.8s-59.4,19-64.5,19c-5.1,0-22.7,0-26.4-2.7
	C591.7,422.1,557.2,404.9,557.2,404.9z" />
	<path class="st0" d="M633,450c0,0-1.6-43.9,0-48.1c1.6-4,8.1-15.1,14.5-17c6.4-1.9,54-17,58.1-17s13.7-2.7,23.4,4.8l29.9,14.3
	c0,0,12.8,6.9,15.4,13.6c2.4,6.9,0.7,53.9,0.7,53.9s-65.4,23.9-70.9,23.9c-5.5,0-24.9,0-29.1-3.4S633,450,633,450z" />
	<path class="st0" d="M715.8,490.5c0,0-1.6-46,0-50.3c1.6-4.3,8.5-15.7,15.2-17.9c6.7-2.1,56.9-17.9,61-17.9c4.2,0,14.5-2.8,24.6,5.1
	l31.3,15.1c0,0,13.6,7.2,16.1,14.3c2.5,7.2,0.9,56.6,0.9,56.6s-68.8,25.1-74.6,25.1c-5.8,0-26.3,0-30.6-3.6
	C755.7,513.2,715.8,490.5,715.8,490.5z" />
	<path class="st0" d="M810.5,538.4c0,0-1.8-50.6,0-55.4c1.8-4.8,9.1-17.3,16.4-19.7c7.3-2.4,60.9-19.7,65.4-19.7s15.4-3.1,26.4,5.5
	l33.6,16.6c0,0,14.5,7.9,17.3,15.7c2.7,7.9,0.9,62.1,0.9,62.1s-73.6,27.5-80,27.5s-28.2,0-32.7-3.9
	C853.2,563.3,810.5,538.4,810.5,538.4z" />
	<path class="st0" d="M371.6,403.6c0,0-1.5-37.2,0-40.6c1.5-3.4,7.8-12.7,14-14.5c6.3-1.8,52.2-14.5,56.1-14.5s13.3-2.2,22.5,4
	l28.8,12.1c0,0,12.4,5.8,14.8,11.5c2.4,5.8,0.7,45.5,0.7,45.5s-63.1,20.2-68.5,20.2s-24.2,0-28.1-2.8
	C408.2,421.8,371.6,403.6,371.6,403.6z" />
	<path class="st0" d="M440.4,446.1c0,0-1.6-42.2,0-46.3c1.6-3.9,8.2-14.5,14.8-16.4c6.6-1.9,55.2-16.4,59.3-16.4c4,0,14-2.7,23.9,4.6
	l30.4,13.7c0,0,13.1,6.6,15.7,13.1c2.5,6.6,0.9,51.9,0.9,51.9s-66.7,23-72.4,23s-25.5,0-29.7-3.3
	C479.1,466.9,440.4,446.1,440.4,446.1z" />
	<path class="st0" d="M524.6,492.6c0,0-1.6-49.1,0-53.6c1.6-4.6,8.5-16.7,15.2-19.1c6.7-2.4,56.9-19.1,61.2-19.1
	c4.2,0,14.5-3,24.6,5.4l31.5,16c0,0,13.6,7.6,16.1,15.2c2.5,7.6,0.9,60.2,0.9,60.2s-68.8,26.9-74.8,26.9s-26.3,0-30.6-3.9
	C564.6,516.7,524.6,492.6,524.6,492.6z" />
	<path class="st0" d="M605.2,533c0,0-1.8-51.3,0-56.1c1.8-4.8,9.3-17.6,16.7-20c7.5-2.4,62.2-20,67-20c4.6,0,15.8-3.1,27,5.5
	l34.5,16.7c0,0,14.9,8.1,17.6,16c2.7,7.9,0.9,63.1,0.9,63.1s-75.4,27.9-81.9,27.9c-6.6,0-28.8,0-33.4-4
	C649,558.2,605.2,533,605.2,533z" />
	<path class="st0" d="M704.2,581.2c0,0-1.8-55.4,0-60.6c1.8-5.2,9-19,16.1-21.5c7.2-2.5,60-21.5,64.5-21.5s15.2-3.4,26,6l33.1,18.1
	c0,0,14.3,8.7,17,17.2c2.7,8.7,0.9,68.1,0.9,68.1S789.3,617,783,617c-6.3,0-27.8,0-32.2-4.3C746.3,608.5,704.2,581.2,704.2,581.2z" />
	<path class="st0" d="M264.9,444.5c0,0-1.5-41.6,0-45.5s7.5-14.2,13.4-16.1c6-1.9,50.3-16.1,54-16.1s12.7-2.5,21.8,4.5l27.8,13.6
	c0,0,11.9,6.4,14.3,13c2.4,6.6,0.7,51,0.7,51s-60.8,22.7-66,22.7c-5.2,0-23.3,0-27-3.3C300.3,464.9,264.9,444.5,264.9,444.5z" />
	<path class="st0" d="M328.8,486.6c0,0-1.8-47.5,0-51.9c1.8-4.5,8.8-16.3,15.8-18.5c7-2.2,59-18.5,63.3-18.5c4.3,0,14.9-3,25.5,5.2
	l32.5,15.5c0,0,14,7.3,16.7,14.8c2.7,7.5,0.9,58.2,0.9,58.2s-71.2,25.8-77.5,25.8c-6.1,0-27.3,0-31.6-3.7
	C370.1,509.7,328.8,486.6,328.8,486.6z" />
	<path class="st0" d="M404.6,533.9c0,0-1.8-53,0-57.9c1.8-4.9,9-18.1,16.3-20.6s60.5-20.6,64.9-20.6s15.4-3.3,26.1,5.8l33.4,17.3
	c0,0,14.5,8.2,17.2,16.4c2.7,8.2,0.9,65.1,0.9,65.1s-73,28.8-79.4,28.8s-27.9,0-32.5-4.2C447,560,404.6,533.9,404.6,533.9z" />
	<path class="st0" d="M481.5,574.8c0,0-1.8-54.6,0-59.7c1.8-5.1,9.3-18.7,16.7-21.2c7.5-2.5,62.2-21.2,67-21.2c4.6,0,15.8-3.4,27,6
	l34.5,17.8c0,0,14.9,8.5,17.6,17c2.7,8.5,0.9,67,0.9,67s-75.4,29.7-81.8,29.7s-28.8,0-33.4-4.2C525.2,601.7,481.5,574.8,481.5,574.8
	z" />
	<path class="st0" d="M567.3,624.5c0,0-2.1-56.3,0-61.5c2.1-5.2,10.4-19.3,18.8-21.9c8.4-2.7,69.9-21.9,75.1-21.9s17.8-3.4,30.3,6.1
	l38.7,18.4c0,0,16.7,8.8,19.9,17.5c3.1,8.8,1,69.1,1,69.1s-84.5,30.6-91.8,30.6s-32.4,0-37.6-4.3
	C616.4,652.3,567.3,624.5,567.3,624.5z" />
	<path class="st0" d="M147.3,486.3c0,0-1.6-47.9,0-52.4c1.6-4.5,8.4-16.4,15.1-18.7c6.7-2.2,56-18.7,60.2-18.7s14.2-3,24.2,5.2
	l30.9,15.7c0,0,13.3,7.5,15.8,14.9c2.5,7.5,0.9,58.8,0.9,58.8s-67.6,26.1-73.4,26.1s-25.8,0-30-3.7
	C186.6,509.9,147.3,486.3,147.3,486.3z" />
	<path class="st0" d="M211.2,528.7c0,0-1.6-53.3,0-58.4c1.6-4.9,8.4-18.2,14.9-20.7c6.6-2.5,55.5-20.7,59.7-20.7s14-3.3,24,5.8
	l30.6,17.5c0,0,13.3,8.4,15.8,16.6c2.5,8.4,0.9,65.5,0.9,65.5s-67.2,29-73,29c-5.8,0-25.7,0-29.9-4.2
	C250.1,554.9,211.2,528.7,211.2,528.7z" />
	<path class="st0" d="M287,577c0,0-1.8-57.3,0-62.7c1.8-5.4,9-19.6,16-22.2c7-2.7,59.7-22.2,64.2-22.2c4.5,0,15.1-3.6,25.8,6.3
	l33,18.7c0,0,14.2,9,16.9,17.8c2.7,9,0.9,70.3,0.9,70.3s-72.1,31.2-78.4,31.2c-6.3,0-27.6,0-32.1-4.5C328.8,605.2,287,577,287,577z" />
	<path class="st0" d="M363.7,618.4c0,0-1.8-58.1,0-63.4c1.8-5.4,9-19.9,16.3-22.5c7.3-2.7,60.5-22.5,64.9-22.5s15.4-3.6,26.1,6.3
	l33.4,19c0,0,14.5,9,17.2,18.1c2.7,9,0.9,71.2,0.9,71.2s-73,31.5-79.4,31.5s-27.9,0-32.5-4.5C406.1,646.9,363.7,618.4,363.7,618.4z" />
	<path class="st0" d="M446.6,665.7c0,0-1.9-60.6,0-66.3c1.9-5.7,9.4-20.7,17-23.6c7.5-2.8,63.1-23.6,67.8-23.6c4.6,0,16-3.7,27.3,6.6
	l34.8,19.7c0,0,15.1,9.4,17.9,18.8c2.8,9.4,0.9,74.3,0.9,74.3s-76.3,33-82.8,33s-29.1,0-33.9-4.8
	C490.9,695.4,446.6,665.7,446.6,665.7z" />
	<g>
		<path class="st0" d="M23.7,524.6c0,0-1.8-56.6,0-61.9c1.8-5.2,8.8-19.4,15.8-21.9s59-21.9,63.3-21.9c4.3,0,14.9-3.6,25.5,6.1
		l32.5,18.5c0,0,14,8.8,16.7,17.6c2.7,8.8,0.9,69.4,0.9,69.4s-71.2,30.7-77.5,30.7c-6.3,0-27.3,0-31.6-4.3
		C65.1,552.6,23.7,524.6,23.7,524.6z" />
		<path class="st0" d="M87.6,567.5c0,0-1.9-61.3,0-67c1.9-5.7,9.6-20.9,17.2-23.9c7.6-2.8,63.9-23.9,68.5-23.9
		c4.8,0,16.1-3.9,27.6,6.7l35.2,20c0,0,15.2,9.6,18.1,19.1c2.8,9.6,0.9,75.2,0.9,75.2S177.9,607,171.2,607c-6.7,0-29.6,0-34.3-4.8
		C132.1,597.5,87.6,567.5,87.6,567.5z" />
		<path class="st0" d="M163.4,617.2c0,0-1.9-63.1,0-69c1.9-5.8,9.9-21.6,17.6-24.5c7.9-3,65.7-24.5,70.6-24.5
		c4.9,0,16.7-3.9,28.5,6.9l36.3,20.6c0,0,15.7,9.9,18.7,19.6c3,9.9,1,77.5,1,77.5s-79.4,34.3-86.3,34.3c-6.9,0-30.4,0-35.4-4.9
		C209.4,648.2,163.4,617.2,163.4,617.2z" />
		<path class="st0" d="M240.1,658.4c0,0-1.9-64.2,0-70.2c1.9-6,10-21.9,17.9-24.9c7.9-3,66.9-24.9,71.8-24.9c4.9,0,17-4,29,7
		l36.9,20.9c0,0,16,10,19,20c3,10,1,78.8,1,78.8S334.9,700,327.9,700c-7,0-30.9,0-36-4.9C287,689.9,240.1,658.4,240.1,658.4z" />
		<path class="st0" d="M321.9,708.1c0,0-2.1-66,0-72.1s10.3-22.5,18.5-25.7s68.7-25.7,73.9-25.7c5.1,0,17.5-4,29.7,7.2l37.9,21.5
		c0,0,16.4,10.3,19.6,20.4c3.1,10.3,1,81.1,1,81.1s-83.1,35.8-90.3,35.8c-7.2,0-31.8,0-36.9-5.1
		C370.1,740.5,321.9,708.1,321.9,708.1z" />
	</g>
	<path class="st0" d="M490.5,714.7c0.7,0.9,4.8,4,4.8,4v4.3l-63.6,28.2l-11.8,2.7l-0.9-8.1l10.3-2.7L490.5,714.7z" />
	<path class="st1" d="M484.9,708.5c3.1,3,8.2,6.1,9.6,8.1c1,1.6,2.8,7.2,0.9,8.5c-1.9,1.5-58.5,27.6-58.5,27.6c-3-1.6-6,4.6-9.3,4.9
	c-2.4,0.3-6-0.6-8.4-4.2c-1.5-2.2-0.7-10.4,2.8-12.1c1.8-0.7,4-0.6,5.1-0.3c1.6,0.6,3.3-0.9,3.3-0.9c0.6-1.9,0.3-2.8,0.3-2.8
	l47.5-22.2c0,0-1.9-2.8-3-3.6C472.8,709.9,480.9,704.7,484.9,708.5z" />
	<path class="st2" d="M475.1,716.5c-3.1-1.3-5.1-6-3.7-12.1c1.3-6.1,5.7-9.9,10-8.4c4.2,1.5,6.6,7.5,5.4,13.6" />
	<path class="st2" d="M447.6,729.3c0,0,12.2-0.7,7.8,14.8" />
	<path class="st2" d="M430.9,737.6c0,0,11.2,2.5,6.1,15.2" />
</svg>
