<!--
  https://github.com/Duxxie/duxxie-creative-commons
  This work is licenced by https://creativecommons.org/licenses/by-sa/4.0/
-->
<?xml version="1.0" encoding="utf-8"?>
<svg version="1.1" xmlns="http://www.w3.org/2000/svg" xmlns:xlink="http://www.w3.org/1999/xlink" x="0px" y="0px" width="1000px"
	 height="1000px" id="zitkussen-ad-high-care" viewBox="0 0 1000 1000" style="enable-background:new 0 0 1000 1000;" xml:space="preserve">
<style type="text/css">
	#zitkussen-ad-high-care .st0{fill:#FFFFFF;stroke:none;}
	#zitkussen-ad-high-care .st1{fill:none;stroke:currentColor;stroke-linecap:round;stroke-linejoin:round;stroke-miterlimit:10;}
</style>
<g id="Laag_3">
	<g>
		<path class="st0" d="M124.8,276.7c0,0-7.3,2.9-14.6,8.7c-7.3,5.8-13.1,32.1-17.5,46.6c-4.4,14.6,17.5,46.9,17.5,46.9L124.8,276.7z
			"/>
		<path class="st0" d="M107.5,581.4c-2.9,17.5-11.8,61.1-11.8,61.1s106.4,7.3,138.4,14.6c32.1,7.3,157.4,23.3,193.8,30.6
			s25.3,4,68.5,8.7c143.9,15.8,206.9,18.9,239,23.3s36.4,5.8,53.9,11.7c17.5,5.8,40.8,20.4,40.8,13.1s-4.4-17.5,0-32.1
			c4.4-14.6,8.7-29.1,10.2-46.6s-10.2-32.1-10.2-32.1s7.3-1.5,24.8-2.9c17.5-1.5,16,14.6,16,14.6s0,0,11.7-1.5c0,0,0-13.1-2.9-18.9
			s11.7,2.9,11.7,2.9l2.9-20.4c0,0,0-10.2-1.5-16c-1.5-5.8,4.4-7.3,7.3-11.7c2.9-4.4,10.2-7.3,10.2-7.3s-4.4-10.2-4.4-18.9
			c0-8.7,2.9-14.6,2.9-14.6l-11.7-1.5l-7.3-8.7c0,0,0,0,0-7.3c0-7.3,4.4-7.3,2.9-14.6c-1.5-7.3-7.3-10.2-7.3-10.2l-18.9-21.9
			c0,0-7.3-4.4-10.2-8.7s0-11.7,0-11.7l-17.3-7.3l2.7,0c0,0,4.4-21.9,7.3-33.5s-1.5-65.6-2.9-80.1c-1.5-14.6-33.5-129.7-40.8-142.8
			c-7.3-13.1-20.4-8.7-37.9-11.7c-17.5-2.9-9.7-2.4-9.7-2.4s-36.9-20.9-55.9-32.6c-18.9-11.7-81.6-46.6-102-49.5
			c-19.9-2.8-45.6,13.8-46.8,14.6c-42.7-14.4-78.3-26.1-85.8-27.8C446.9,77.1,339,45,317.2,39.2c-21.9-5.8-14.6,0-24.8,1.5
			S202.1,80,202.1,80c-2.9,2.9-10.2,24.8-14.6,39.3s-18.9,77.2-27.7,86c-8.7,8.7-17.5,21.9-27.7,37.9s-4.4,64.1-7.3,83.1
			c-2.9,18.9-10.2,45.2-13.1,52.5c-2.9,7.3,10.2,59.7,10.2,59.7l2,0c-4.8,9.3-9.1,19.4-10.8,21.8c-2.9,4.4,0,0-4.4,14.6
			c-4.4,14.6,1.5,5.8-1.5,14.6c-2.9,8.7,0,0-5.8,11.7c-5.8,11.7,0,0,0,5.8s7.3,11.7,7.3,11.7l4.4,10.2l11.7,2.9
			c1.5-1.5,4.2,0.9,6.4,5.2l-0.9-0.1C130.4,536.8,110.4,563.9,107.5,581.4z M795.1,623.5l5.2,6.1l-21-2.9L795.1,623.5z M748.5,620.6
			l14.6,2.9c0,0,0,0,3.1,1.3l-21.2-2.9L748.5,620.6z M535.7,592.9h13.2h10.2c0,0,8.3,0,15.4,5.4L535.7,592.9z M588.3,600.2h10.2
			l11.7,1.5c0,0,0.9,0.7,2.2,1.9L588.3,600.2z M648.1,608.5l-7.4-1c11.6-2.9,0,0,5.8,0C650.1,607.5,649.3,607.5,648.1,608.5z
			 M712.1,614.8l4.2,3.2l-11.5-1.6C707,615.9,709.4,615.3,712.1,614.8z M189,541.9l11.7-1.5h13.1c0,0,0,0,13.1,1.5
			c13.1,1.5,0,0,5.8,4.4c5.8,4.4,7.3,2.9,14.6,2.9s0,0,5.8-4.4c5.8-4.4,16,5.8,29.1,10.2c13.1,4.4,14.6,5.8,26.2,2.9
			c0,0,16,1.5,23.3,2.9s7.3,4.4,23.3,2.9c16-1.5,0,0,13.1-5.8l18.9,5.8c0,0,0,0,8.7-1.5c0,0,16,4.4,32.1,7.3c0,0,13.1-1.5,18.9-2.9
			c5.8-1.5,8.7,10.2,8.7,10.2l11.7,2.9l14.6,4.4l20.4,2.9h18.9l10.6,5.3l-350.4-48.6L189,541.9z"/>
		<path class="st0" d="M718.4,734.1c14.6,1.5,70.9-2.7,70.9-2.7l-85.5-7.9C703.8,723.5,703.8,732.6,718.4,734.1z"/>
		<path class="st0" d="M702.9,717.8l-407.7,73.1c1.5,4.4,4.9,16.4,19.3,13.8c13-2.3,161.5-6.3,181.9-10.7
			c20.4-4.4,61.2-11.7,77.2-13.1s75.7-9.4,90.3-8.7c16,0.8,33.8-3,37.2-11.6C706.9,746,702.9,723.6,702.9,717.8z"/>
		<path class="st0" d="M311.7,841.9l-6.1-37.4C308.2,834.1,311.7,841.9,311.7,841.9z"/>
		<path class="st0" d="M701.6,795c0,0,2.6-38.8,2.6-49.4L701.6,795z"/>
		<path class="st0" d="M915.8,808.9c0.9-1.8,10.4-6.2,10.4-6.2s-2.6-8.5-4.4-9.5c-1.8-0.9-7.9-0.2-10.1,0.1
			c-2.2,0.3-2.8-4.4-5.4-4.3c-2.6,0-7.9,2.5-7.9,2.5c-4.7-6.4-8-8.1-8-8.1l-18.8,5.8c0,0,2,10.4,1.5,16c-0.3,3.8-17.9,9.7-25.3,11.9
			L702,843.4c-39,1.1-58.2-6.1-58.2-6.1c0.3-1.1,41.9-14.1,69.5-25.7c11.3-4.7,46.4-14.2,46.4-14.2c3.5-1.7,11-1.9,11-1.9l6,12.3
			c0,0,14.2-1,14.8-2.6c1.2-3,3.5-10.5,3.5-10.5s44.7-8.5,51.5-13.1l-0.1,0.4c4.9-1.8,13.4,0.3,15.8-8.7
			c1.5-5.6,20.3-62.4,21.8-74.1c1.5-11.7,0.6-12.2-8.7-21.9c-12.6-13.1-4.9-29.5-6.4-33.9l-11.3,69.7L830,727.9
			c0,0,13.3-4.1,26.8-10.2l-9.3,57.5c-0.7-7.9-3.6-20.5-3.6-20.5s-3.2-4.7-14.1-1.9c-7.2,1.9-10.7,7.2-10.7,7.2l1.3,9.1l-31.5,4.6
			l-5.2-12.2l-14,2.6l-1.7,15.7c0,0-71.2,16-85.2,21.9c-18.5,7.9-78.3,31.8-78.3,31.8c-112.9,11.1-156.7,10.8-156.7,9v-13.8
			c0,0-8.5-0.4-11,1.2s-4.1,13-8.1,13c-3.9,0-84.6,0.8-124.5-1l-46.2-49.2c7.9-0.1,14.3-0.2,18.5-0.4c23.3-0.8,29.1-5.8,33.5-16
			c4.4-10.2-3.4-106-3.4-106l-110.8,56.1l-76.3-81.3c0,0-23.7,99.1-19.3,113.7c4.4,14.6,16.7,56.6,20.6,66.4
			c4.1,10.1,5,19.9,18.5,26.9c20,10.4,139.5,15.6,150.8,16c4.3,0.4,27.2,1.8,30.8-8.4l-0.4-0.5c22.3,0.5,62.5,1.1,105.8-0.6
			c8.2-0.3,6.9,4.1,8.1,5.7c0.9,1.2,0.7,2.1,0.5,2.6l-111-7c0,0,4.4,13.4,26,13.4c15.8,0,74.2-5,85.8-6
			c-12.6,5.8-22.6,11.2-31.5,15.3c-24.4,11.3-86.4,42.4-117,49.4c-30.5,7-78.4,6.5-78.4,6.5c-7.7,0-26.2-0.4-27.7-4
			c-2.1-5.2-3.2-15.7-3.2-15.7h-19.7c0,0-2.6,2.6-5.3,10.1c0,0-5.8-0.8-8.3-0.1c-2.5,0.7-1.8,5.4-3.9,5.7s-8.2,1.4-9.6,2.9
			c-1.4,1.4-1.4,10.4-1.4,10.4s10.4,1.4,11.8,2.9c1.4,1.4,1.1,4.6,1.1,4.6l9.6,1.4l0-0.4c2,5.1,4.6,8.3,4.6,8.3s20.1,1.4,20.4-1.8
			c0.7-8.2,5-11.4,5-11.4s23.8,1.7,31.8,1.8c7,0.1,59.3-4.3,79.3-8.6c19.4-4.2,105.8-41.1,156.9-69c18.7-10.2,78.6-18.2,118.4-22.3
			l0,0.2c0,0,0-0.1,0-0.2c19.2-2,33.8-3.1,36.9-3.1c-8.1,0.9,61,12.9,112.1,7.1c0,0,78.7-12,129.6-24.9c7.7-2,29.9-11,29.9-11
			s5,1.8,8.1,9.5c1.2,3,20-4.3,20-4.3s1.5-3.8,2-9.2l0.1,0.4l8.8-4.2C916.1,813.7,914.8,810.7,915.8,808.9z M436.2,867.3l-0.7,0
			l2-0.6C437.1,866.9,436.6,867.1,436.2,867.3z"/>
	</g>
	<path class="st0" d="M865.4,611.7l3.5,31.9l-5.9,40l-0.8,89.7l-141.9,27.8l-103.1,34.8l-152.3,21.6l-29.4,9.7l-85.7,6.3l-45.8-31.5
		L147.1,731.6c0,0-26.4-63.6-26.4-67.2c0-3.6,0-69.5,0-69.5s42-75.5,48-79.1c6-3.6,320.2-9.6,327.4-10.8
		C503.3,503.8,865.4,611.7,865.4,611.7z"/>
	<path class="st0" d="M151.9,258c0,3.6-41.7,27.5-41.7,27.5l-6.3,61.2l10.8,44.4c0,0,75.5-22.8,74.3-27.6S151.9,258,151.9,258z"/>
</g>
<g id="Laag_2">
	<path class="st1" d="M121.6,439.1c0,0-13.1-52.5-10.2-59.7c2.9-7.3,10.2-33.5,13.1-52.5c2.9-18.9-2.9-67,7.3-83.1
		s18.9-29.1,27.7-37.9c8.7-8.7,23.3-71.4,27.7-86c4.4-14.6,11.7-36.4,14.6-39.3c0,0,80.1-37.9,90.3-39.3c10.2-1.5,2.9-7.3,24.8-1.5
		s129.7,37.9,150.1,42.3c20.4,4.4,247.7,83.1,260.8,88.9c13.1,5.8,21.9,5.8,39.3,8.7s30.6-1.5,37.9,11.7s39.3,128.2,40.8,142.8
		s5.8,68.5,2.9,80.1c-2.9,11.7-7.3,33.5-7.3,33.5"/>
	<path class="st1" d="M552.7,109.9c0,0,26.5-17.6,46.9-14.7c20.4,2.9,83.1,37.9,102,49.5c18.9,11.7,55.9,32.6,55.9,32.6"/>
	<path class="st1" d="M109.9,379.6c0,0-21.9-32.3-17.5-46.9c4.4-14.6,10.2-40.8,17.5-46.6c7.3-5.8,14.6-8.7,14.6-8.7"/>
	<path class="st1" d="M124.5,532.3l-11.7-2.9l-4.4-10.2c0,0-7.3-5.8-7.3-11.7s-5.8,5.8,0-5.8c5.8-11.7,2.9-2.9,5.8-11.7
		c2.9-8.7-2.9,0,1.5-14.6c4.4-14.6,1.5-10.2,4.4-14.6c2.9-4.4,14.6-33.5,21.9-37.9c7.3-4.4,7.3-4.4,7.3-4.4l10.2-10.2l11.7-7.3
		c0,0-7.3,4.4,13.1-2.9c20.4-7.3,20.4-7.3,20.4-7.3s4.4-1.5,20.4-2.9c16-1.5,35,0,35,0l13.1,4.4l20.4-2.9l14.6,1.5l10.2,5.8
		l11.7-1.5c0,0,16,8.7,20.4,11.7s8.7,5.8,10.2,10.2c1.5,4.4,0-4.4,11.7,4.4c11.7,8.7,14.6,14.6,14.6,14.6s5.8,4.4,10.2,4.4
		s24.8,0,24.8,0l27.7-1.5l21.9,1.5l37.9,4.4c0,0,43.7-1.5,53.9,1.5s23.3,1.5,33.5,0c10.2-1.5,7.3,0,18.9,2.9
		c11.7,2.9,29.1,5.8,29.1,5.8s1.5-2.9,10.2-5.8s30.6-16,30.6-16s-1.5-5.8,4.4-10.2s18.9-2.9,18.9-2.9s21.9,1.5,29.1,0
		c7.3-1.5,18.9,2.9,18.9,2.9l18.9,10.2l10.2,4.4l14.6-2.9l10.2,4.4h14.6l37.9,16c0,0-2.9,7.3,0,11.7c2.9,4.4,10.2,8.7,10.2,8.7
		l18.9,21.9c0,0,5.8,2.9,7.3,10.2c1.5,7.3-2.9,7.3-2.9,14.6c0,7.3,0,7.3,0,7.3l7.3,8.7l11.7,1.5c0,0-2.9,5.8-2.9,14.6
		s4.4,18.9,4.4,18.9s-7.3,2.9-10.2,7.3c-2.9,4.4-8.7,5.8-7.3,11.7c1.5,5.8,1.5,16,1.5,16l-2.9,20.4c0,0-14.6-8.7-11.7-2.9
		c2.9,5.8,2.9,18.9,2.9,18.9c-11.7,1.5-11.7,1.5-11.7,1.5s1.5-16-16-14.6c-17.5,1.5-24.8,2.9-24.8,2.9h-26.2l-8.7-10.2l-21.9,4.4
		c-10.2-4.4-10.2-4.4-10.2-4.4l-14.6-2.9l-11.7,4.4c-13.1-1.5-13.1-1.5-13.1-1.5l-11.7-8.7c-14.6,2.9-21.9,5.8-21.9,5.8l-18.9-2.9
		c0,0-7.3-1.5-11.7-2.9c-4.4-1.5-13.1,1.5-13.1-2.9s5.8-4.4,0-4.4s5.8-2.9-5.8,0c-11.7,2.9-17.5,8.7-20.4,4.4
		c-2.9-4.4-10.2-10.2-10.2-10.2l-11.7-1.5h-11.7l-11.7-1.5c-7.3-5.8-16-5.8-16-5.8h-10.2h-16l-11.7-5.8h-18.9l-20.4-2.9l-14.6-4.4
		l-11.7-2.9c0,0-2.9-11.7-8.7-10.2c-5.8,1.5-18.9,2.9-18.9,2.9c-16-2.9-32.1-7.3-32.1-7.3c-8.7,1.5-8.7,1.5-8.7,1.5l-18.9-5.8
		c-13.1,5.8,2.9,4.4-13.1,5.8c-16,1.5-16-1.5-23.3-2.9c-7.3-1.5-23.3-2.9-23.3-2.9c-11.7,2.9-13.1,1.5-26.2-2.9
		s-23.3-14.6-29.1-10.2c-5.8,4.4,1.5,4.4-5.8,4.4c-7.3,0-8.7,1.5-14.6-2.9c-5.8-4.4,7.3-2.9-5.8-4.4c-13.1-1.5-13.1-1.5-13.1-1.5
		h-13.1l-11.7,1.5l-11.7,2.9l-10.2-2.9c0,0-10.2,4.4-16,5.8c-5.8,1.5-5.8,1.5-5.8,1.5l-10.2,2.9
		C134.7,541.1,127.4,529.4,124.5,532.3z"/>
	<path class="st1" d="M130.1,537.4c0,0-20,27.1-23,44.6c-2.9,17.5-11.8,61.1-11.8,61.1s106.4,7.3,138.4,14.6
		c32.1,7.3,157.4,23.3,193.8,30.6c36.4,7.3,25.3,4,68.5,8.7c143.9,15.8,206.9,18.9,239,23.3c32.1,4.4,36.4,5.8,53.9,11.7
		s40.8,20.4,40.8,13.1c0-7.3-4.4-17.5,0-32.1s8.7-29.1,10.2-46.6c1.5-17.5-10.2-32.1-10.2-32.1"/>
	<path class="st1" d="M119,646c0,0-23.7,99.1-19.3,113.7s16.7,56.6,20.6,66.4c4.1,10.1,5,19.9,18.5,26.9
		c22.3,11.6,168.4,16.7,150.1,15.9c0,0,27.5,3,31.5-8.3"/>
	<path class="st1" d="M323.5,860.8c0,0,4.4,13.4,26,13.4c17.5,0,84.7-6.3,84.7-6.3"/>
	<path class="st1" d="M868.5,644.2c1.5,4.4-6.2,20.7,6.4,33.9c9.3,9.7,10.2,10.2,8.7,21.9s-20.3,68.4-21.8,74.1
		c-2.4,9-10.9,6.9-15.8,8.7"/>
	<path class="st1" d="M703.4,724.1c0,0,0,9.1,14.6,10.6c14.6,1.5,70.9-2.7,70.9-2.7"/>
	<path class="st1" d="M829.7,728.5c0,0,45.2-14,54-28.6"/>
	<path class="st1" d="M306.2,671.1c0,0,7.7,95.8,3.4,106c-4.4,10.2-10.2,15.3-33.5,16c-24.2,0.8-127.2,1.9-142.8-1.5
		c-15-3.3-29.8-23.4-33.5-33.4"/>
	<path class="st1" d="M308.7,779.4c1.5,4.4,3.2,25.9,19.9,24c13.1-1.5,147-4.5,167.4-8.9c20.4-4.4,61.2-11.7,77.2-13.1
		c16-1.5,75.7-9.4,90.3-8.7c16,0.8,33.8-3,37.2-11.6c5.7-14.6,1.8-37,1.8-42.8"/>
	<path class="st1" d="M819.1,438.9c0,0-44.7-91.6-68.1-109.1c-23.3-17.5-46.6-24.8-97.6-26.2c-51-1.5-97.6-2.9-106.4-2.9"/>
	<path class="st1" d="M318.1,842.2c0,0-8.8-26-8.8-61.2"/>
	<path class="st1" d="M701.2,795.6c0,0,2.6-38.8,2.6-49.4"/>
	<path class="st1" d="M322.7,395.4c17.2-12.2,184.8-17.7,221.2-12.2c36.4,5.5,133.1,28.5,157.6,37"/>
	<path class="st1" d="M445.3,864c0,0,1.6-9.3,2-20.7"/>
	<path class="st1" d="M151.7,957.5l-9.6-1.4c0,0,0.4-3.2-1.1-4.6c-1.4-1.4-11.8-2.9-11.8-2.9s0-8.9,1.4-10.4
		c1.4-1.4,7.5-2.5,9.6-2.9s1.4-5,3.9-5.7c2.5-0.7,8.3,0.1,8.3,0.1"/>
	<path class="st1" d="M208.4,939.3c0,0-5.2,9.6-2.7,13.9"/>
	<path class="st1" d="M605.9,850.7c0,0,6.1-10.1,0-16.2"/>
	<path class="st1" d="M568.2,854.3c0,0,1.2-12.8-0.6-15.2"/>
	<path class="st1" d="M752.8,921.1"/>
	<g>
		<path class="st1" d="M532.7,840.7c-70.7,9.6-104.5,31.4-128.9,42.8c-24.4,11.3-86.4,42.4-117,49.4c-30.5,7-78.4,6.5-78.4,6.5
			c-7.7,0-26.2-0.4-27.7-4c-2.1-5.2-3.2-15.7-3.2-15.7h-19.7c0,0-2.6,2.6-5.3,10.1c-0.9,2.5-1.8,5.5-2.6,9.2
			c-3.2,14.6,6.4,26.4,6.4,26.4s20.1,1.4,20.4-1.8c0.7-8.2,5-11.4,5-11.4s23.8,1.7,31.8,1.8c7,0.1,59.3-4.3,79.3-8.6
			c19.4-4.2,105.8-41.1,156.9-69c27.8-15.2,145.8-25.4,155.4-25.4c-8.1,0.9,61,12.9,112.1,7.1c0,0,78.7-12,129.6-24.9
			c7.7-2,29.9-11,29.9-11s5,1.8,8.1,9.5c1.2,3,20-4.3,20-4.3s5.8-14.1-1.6-27.2c-1.8-3.3-3.6-5.9-5.2-8c-4.7-6.4-8-8.1-8-8.1
			l-18.8,5.8c0,0,2,10.4,1.5,16c-0.3,3.8-17.9,9.7-25.3,11.9L701.7,844c-39,1.1-58.2-6.1-58.2-6.1c0.3-1.1,41.9-14.1,69.5-25.7
			c11.3-4.7,46.4-14.2,46.4-14.2c3.5-1.7,11-1.9,11-1.9l6,12.3c0,0,14.2-1,14.8-2.6c1.2-3,3.5-10.5,3.5-10.5s50.6-9.6,52.3-14
			c1.7-4.4-3.4-26.1-3.4-26.1s-3.2-4.7-14.1-1.9c-7.2,1.9-10.7,7.2-10.7,7.2l1.3,9.1l-31.5,4.6l-5.2-12.2l-14,2.6l-1.7,15.7
			c0,0-71.2,16-85.2,21.9c-18.5,7.9-78.3,31.8-78.3,31.8c-112.9,11.1-156.7,10.8-156.7,9l0-13.8c0,0-8.5-0.4-11,1.2
			c-2.4,1.6-4.1,13-8.1,13s-90.6,0.8-128.8-1.2s-97.9-11.4-97.9-11.4s0-8.1-2.4-9.7c-8.8-5.9-19.1-1.2-19.1-1.2
			c-6.9,0.5-7.7,15-4.1,28c1.2,4.3,118.7,11.4,126,11.4c0,0,58.5,2.4,123.9,0c8.2-0.3,6.9,4.1,8.1,5.7s0.4,2.8,0.4,2.8"/>
		<path class="st1" d="M907,818.5l8.8-4.2c0,0-1.3-3-0.3-4.8s10.4-6.2,10.4-6.2s-2.6-8.5-4.4-9.5s-7.9-0.2-10.1,0.1
			c-2.2,0.3-2.8-4.4-5.4-4.3s-7.9,2.5-7.9,2.5"/>
		<path class="st1" d="M847.5,817.7c0,0,7.8,7.7,6.6,12.5"/>
	</g>
	<g>
		<g>
			<path class="st1" d="M466,321.7c2.5-0.5,36.7-9.1,73.3-4.1c16.8,2.3,24.4,8.2,26.2,15.1c1.8,6.5-4.1,17.8-23.7,18.5
				c-3.7,0.1-10.3,0.4-18.4,0.6c-25.7,0.8-66.6,1.7-77.8-0.6c-14.8-3.1-18.2-7.2-14.2-14.8C433.7,332.2,442.2,326.2,466,321.7z"/>
			<polyline class="st1" points="495.6,353.5 497,358.9 484.9,361.2 514.5,375.4 535.9,359.4 523.5,359.4 520.5,352.9 			"/>
		</g>
		<g>
			<path class="st1" d="M460.8,331.7l5.5,13.1l10.8-0.4c0,0,5.7-3.9-1.8-6.8c-0.5-0.2,3.2-4.9-3.4-6.3
				C465.2,329.8,460.8,331.7,460.8,331.7z"/>
			<polyline class="st1" points="486,344.3 487.1,340.2 489.8,329.7 502.5,344.7 			"/>
			<path class="st1" d="M515,329.5c0,0-10.8-1.9-9.5,7c0.6,4.4,5.5,8.7,14.8,7"/>
			<line class="st1" x1="523" y1="327.2" x2="527.6" y2="342.5"/>
			<line class="st1" x1="533.8" y1="328.2" x2="527.8" y2="334.8"/>
			<line class="st1" x1="537.9" y1="341.2" x2="526.7" y2="335.2"/>
			<line class="st1" x1="488.6" y1="339.3" x2="496.6" y2="339.1"/>
			<line class="st1" x1="474.7" y1="337.6" x2="464.7" y2="338.4"/>
		</g>
	</g>
	<path class="st1" d="M428.3,843.7c0,0-4.7,11.8,1,15.7"/>
	<path class="st1" d="M767.6,780.5c0,0-1.9,12.5,2.8,15.6"/>
	<path class="st1" d="M871.3,789.8c3,2.6,20.7,17.5,13.6,41.8"/>
	<path class="st1" d="M788.5,774.4c0,0-8.3,19.9,6.1,20.9"/>
</g>
</svg>
