<!--
	https://github.com/Duxxie/duxxie-images
	This work is licenced by https://creativecommons.org/licenses/by-sa/4.0/
-->
<svg version="1.1" id="zitkussen-statisch-svg" xmlns="http://www.w3.org/2000/svg" x="0px" y="0px" width="1000px" height="1000px" viewBox="0 0 1000 1000" xml:space="preserve">
  <style>
    #zitkussen-statisch-svg .st0{fill:none;stroke:currentColor;stroke-miterlimit:10;}
  </style>
  <path class="st0" d="M401.7,343.9c5.3,1.8,290.9,37,336.8,40.6s217,12.6,229.2,14.1c21.2,2.7,10.5-3.9,18,5.9	c16.2,21.2,6.8,47.9,4.9,56.6c-6.8,29.9-196.4,231.2-215,232.8c-24.8,2.2-327.9-59-375.5-66.1S86,576.9,61.4,574.9	c-43.3-3.6-54.7-14.1-54.7-26.4c0-12.3-1.8-59.9-1.8-59.9L401.7,343.9z"/>
  <path class="st0" d="M984 401.2L777.2 601.3 5 488.5M780.3 689.8c0 0 5.7-63.8-3.1-88.5"/>
</svg>
